<svg xmlns="http://www.w3.org/2000/svg" width="768" height="768" viewBox="0 0 2048 2048"><path fill="#2a1326" d="M1205.46 238.801c10.1-.309 22.73 3.584 32.69 5.909 93.42 21.797 188.16 104.028 170.74 208.483-4.58 27.447-14.32 47.955-33.38 68.309 2.57 16.004 2.27 29.848 2.09 45.392-.33 28.798 18.23 1.819 24.27-6.274 6.17-8.262 13.51-16.585 20.4-23.533-4.81-47.986 19.41-91.321 57.61-119.346 68.58-50.321 162.94-42.154 235.77-5.859 6.22 3.099 20.24 9.418 17.73 18.549-40.13 89.036-125.97 188.727-234.87 165.538-23.82-5.073-57.01-25.181-69.9-45.898-7.85 8.359-22.67 25.809-28.41 35.166 46 18.823 89.37 43.52 129.02 73.478 124.56 94.885 200.67 233.05 196.96 391.135-2.54 108.35-38.36 193.52-103.51 278.81 36.56 54.14 62.03 114.84 32.52 178.61-13.04 28.18-40.85 39.07-68.6 24.28-34.94-18.61-57.63-57.77-69.56-94.25-60.13 42.43-123.09 70.59-195.87 83.36-.2 69.66 1.99 139.3 6.55 208.81 19.02 12.04 55.63 40.29 31.42 66.33-15.97 17.17-53.94 21.98-77.49 21.46-27.94-.61-96.04-3.24-105.85-38.94-3.55-17.16-4.82-46.4-6.09-64.84-4.21-61.22-7.21-122.91-4.74-184.24-17.02-1.84-34.63-3.21-51.26-7.19.42 28.15-.89 56.61-.48 85.45l2.05 67.98c.86 22.46 5.12 84.23.08 99.97-18.17 44.59-125.485 41.41-161.693 29.76-55.73-17.94-29.535-60.62 10.424-78.14-8.509-82.04-10.153-175.2-1.921-256.81-14.093-5.22-46.409-24.01-59.377-32.82-112.18-76.22-189.304-181.24-216.164-314.38-53.06-34.93-93.096-74.13-125.97-128.691-29.885-49.601-52.655-114.99-38.273-172.851-9.593-1.074-28.512-5.895-38.92-8.196l-74.571-16.504c-41.522-9.228-82.806-16.366-124.241-26.581-38.196-9.416-57.617-37.345-64.249-75.197-11.806-67.375 9.665-144.925 47.939-200.807 20.106-29.357 52.327-61.169 88.375-68.203 30.846-6.21 47.345 6.794 72.923 19.928 24.332 12.495 46.937 27.306 70.79 40.382a9007 9007 0 0 1 134.137 73.359c17.826 10.002 36.585 20.266 54.052 30.929 12.359 7.545 13.209 21.521 15.618 35.133 37.055 17.981 73.866 35.435 110.369 54.729a440 440 0 0 1 101.337-73.878c142.095-75.978 295.985-80.42 448.045-34.221.89-16.565 1.34-29.438-1.57-45.804-42.64 11.964-85.89-3.057-118.03-32.095-38.45-34.736-52.54-86.066-55.45-136.113-1.36-23.377 2.36-103.939 16.53-119.578m-521.958 708.39c.889-8.833 2.721-17.267 4.45-25.96 6.065-26.731 13.056-52.111 23.899-77.405-13.683-3.104-27.741-7.789-40.637-10.606.766 36.622-5.761 79.355 12.288 113.971"/><path fill="#d2e7c5" d="M829.859 686.513c92.445-87.937 228.761-131.851 355.171-129.302 150.04 3.025 294.8 60.626 399 169.974 52.5 55.1 94.8 127.518 113.17 201.767 29.98 112.918 13.17 233.168-46.65 333.528a429 429 0 0 1-36.63 53.55 247 247 0 0 0-49.86-50.44c-21.26-13.6-39.68-22.95-65.14-26.62 58.17 34.23 94.61 64.17 128.57 125.15 7.56 14.64 18.13 34.84 21.92 50.72 6.63 27.73 4.1 66.09-10.1 91.36-22.67 40.37-65.16 2.57-81.99-20.79-44.98-62.41-33.51-136.62-110.21-175.9 10.69 12.39 15.81 18.67 24.4 32.95 22.95 34.7 25.23 42.15 39.24 81.36-64.82 48.29-125.35 68.82-202.62 85.63a564 564 0 0 0-1.49 45.22c.01 7.85.58 23.04.07 30.09-1.55-2.18-1.01-15.95-.99-19.66-50 8.83-76.38 9.09-126.89 8.8.11-19.03.45-38.06 1.01-57.09-15.29-2.12-30.68-3.25-46.28-5.56a554 554 0 0 1-97.16-23.87 533.87 533.87 0 0 1-248.929-176.63c-15.088-19.62-31.175-43.67-41.963-65.99a254 254 0 0 1-15.262-29.99c-50.007-116.73-51.647-248.545-4.56-366.491 11.55 3.645 50.81 11.727 56.205 18.015 10.997 23.35 43.213 32.823 66.234 21.818a186 186 0 0 0 7.491-3.854c7.458-5.883 14.282-11.272 20.479-18.533 3.01 7.203 5.603 13.307 9.773 19.858 21.314 33.735 63.925 43.677 99.686 28.447 52.556-22.382 79.226-91.028 55.816-143.054-23.23-51.63-80.819-59.785-124.886-28.981-2.225-10.703-3.871-19.974-9.717-29.415-11.99-19.365-36.428-26.158-57.799-20.953a208 208 0 0 0-6.667 1.761c-4.894-2.374-7.876-3.757-12.442-6.875"/><path fill="#a6cc9d" d="m745.508 1244.76 1.639.84c30.674 30.01 58.751 58.77 93.933 84.13 175.83 126.71 424.16 140.03 609.9 26.73 6.11-3.73 15.45-9.51 20.53-14 22.95 34.7 25.23 42.15 39.24 81.36-64.82 48.29-125.35 68.82-202.62 85.63a564 564 0 0 0-1.49 45.22c.01 7.85.58 23.04.07 30.09-1.55-2.18-1.01-15.95-.99-19.66-50 8.83-76.38 9.09-126.89 8.8.11-19.03.45-38.06 1.01-57.09-15.29-2.12-30.68-3.25-46.28-5.56a554 554 0 0 1-97.16-23.87 533.87 533.87 0 0 1-248.929-176.63c-15.088-19.62-31.175-43.67-41.963-65.99M1697.2 928.952c29.98 112.918 13.17 233.168-46.65 333.528a429 429 0 0 1-36.63 53.55 247 247 0 0 0-49.86-50.44c72.76-77.51 115.9-188.62 128.35-292.949 1.74-14.503 2.33-29.326 4.79-43.689"/><path fill="#e9a2a6" d="M781.891 866.294c10.997 23.35 43.213 32.823 66.234 21.818a186 186 0 0 0 7.491-3.854c12.621 9.605 29.049 22.861 24.476 41.067-4.85 19.007-29.638 21.083-47.093 19.502-25.927-2.35-77.845-25.384-71.991-58.533 1.602-9.068 12.892-15.651 20.883-20"/><path fill="#2a1326" d="M1303.51 839.292c87.71-10.538 115.61 96.03 69.36 155.49-18.91 24.308-37.15 36.968-67.61 42.158-19.15 1.54-41.91-2.6-57.33-14.75-68.68-54.082-27.16-169.975 55.58-182.898"/><path fill="#fff" d="M1286.63 861.196c31.22.638 29.03 44.274-2.52 52.82-32.91.643-30.09-45.198 2.52-52.82M1255.25 927.435c6.14-2.606 13.23.289 15.79 6.448s-.39 13.225-6.57 15.74c-6.11 2.488-13.09-.422-15.62-6.517s.32-13.093 6.4-15.671M1072.75 577.349c20.85-4.009 98.68.031 68.03 41.211-20.32 27.293-80.26 43.788-113.54 47.996-15.33 3.543-53.45 2.914-65.869-6.984-23.822-18.984 8.813-44.648 23.82-53.791 30.249-18.426 53.829-24.053 87.559-28.432"/><path fill="#2a1326" d="M1032.87 939.064c12.51 1.03 33.68 11.409 45.76 15.907 10.8 4.017 48.13 10.013 47.49 22.595-1.21 23.994-18.93 61.084-33.18 78.944-15.5 15.58-36.92 26.16-56.05 9.05-29.27-26.17-22.92-79.953-14.13-113.738 1.75-6.71 4.23-9.871 10.11-12.758"/><path fill="#e9a2a6" d="M1078.42 996.337c9.02-1.123 17.89.379 26.62 2.349-8.19 23.664-19.65 57.454-48.27 59.764-21.22-6.24-23.63-24.77-26.58-43.8 17.03-11.7 27.65-15.531 48.23-18.313M1315.74 1053.31c23.16-2.54 46.45 4.82 66.48 17.15 13.62 8.37 35.93 30.42 24.29 48.11-5.37 8.17-18.16 11.63-27.65 13.07-67.28 5.23-138.85-67.35-63.12-78.33"/><path fill="#f6ca75" d="M262.292 534.082c4.899-12.353 12.532-22.477 19.735-33.425 29.49-44.822 98.987-99.498 136.667-28.927 15.105 28.699 14.665 62.901 12.75 94.617 7.905-26.114 6.852-51.844 3.05-78.423-2.738-10.792-5.499-18.459-9.742-28.837 10.849 5.666 33.049 16.289 42.117 22.439 3.746 8.67 5.829 15.423 7.769 24.755 13.087 62.62-6.875 137.808-40.103 191.602-12.009 7.616-17.984 14.645-34.664 11.245-4.74-.966-15.883-5.749-19.727-8.417l-4.726 6.939-2.769-3.5c-76.236 91.405-146.168 52.631-140.65-57.708 1.714-34.281 12.741-82.173 30.293-112.36"/><path fill="#fff" d="M262.292 534.082c4.899-12.353 12.532-22.477 19.735-33.425 29.49-44.822 98.987-99.498 136.667-28.927-12.325.737-32.2-37.76-84.992-10.589-11.191 5.76-22.861 13.012-31.315 22.461-7.355 8.221-14.738 16.936-20.884 26.095-4.79 7.14-9.219 15.853-14.821 22.283-1.569 1.801-2.121 1.733-4.39 2.102M424.752 459.087c10.849 5.666 33.049 16.289 42.117 22.439 3.746 8.67 5.829 15.423 7.769 24.755-1.22.928-.42.455-2.575 1.068-12.55-6.521-25.233-12.489-37.569-19.425-2.738-10.792-5.499-18.459-9.742-28.837"/><path fill="#351d1c" d="M372.649 704.15c5.447-7.814 11.677-17.259 17.709-24.444-3.186 7.465-6.471 13.784-10.214 21.005l-4.726 6.939z"/><path fill="#2a1326" d="M350.4 467.251c99.552-4.663 46.092 230.132-49.846 254.856-102.539 10.699-48.864-240.2 49.846-254.856"/><path fill="#aceae4" d="M373.591 499.143c10.918-1.053 12.452 12.099 13.628 20.68 8.314 60.684-24.394 155.995-80.764 185.373-5.726-5.06-9.993-12.737-12.199-20.001-17.214-56.67 20.377-166.445 79.335-186.052"/><path fill="#fff" d="M350.944 523.048c22.455-.841 28.674 10.627 22.595 31.434-5.094 17.437-15.994 29.741-31.758 38.216-39.201 7.09-24.472-53.642 9.163-69.65"/><path fill="#dfa550" d="M352.986 481.209c3.827-.093 13.369.371 14.684 4.453l-7.561 3.672c-66.092 32.502-104.547 151.784-71.428 218.697-65.196-20.988-11.831-212.991 64.305-226.822"/><path fill="#f6ca75" d="m486.51 494.953 125.886 68.903c19.17 10.463 53.004 27.581 70.517 39.194 3.164 6.592 3.717 8.724 5.544 15.831 6.534 43.273.713 78.799-16.905 118.909-10.612 28.436-40.827 74.542-69.498 88.059-20.851-3.473-57.099-13.063-79.148-18.04-45.113-10.183-93.291-20.014-137.8-31.481 37.929-28.845 54.611-55.773 77.039-96.456 25.161-60.615 34.748-98.115 28.734-164.809z"/><path fill="#dfa550" d="M385.106 776.328c37.929-28.845 54.611-55.773 77.039-96.456-.338 10.809-3.083 30.622 5.305 38.422 9.945 9.249 28.181 15.25 41.269 18.78 36.969 9.973 73.991 26.717 112.215 29.736 26.313 2.079 34.037-20.629 50.618-29.02-10.612 28.436-40.827 74.542-69.498 88.059-20.851-3.473-57.099-13.063-79.148-18.04-45.113-10.183-93.291-20.014-137.8-31.481"/><path fill="#fff" d="m486.51 494.953 125.886 68.903c19.17 10.463 53.004 27.581 70.517 39.194 3.164 6.592 3.717 8.724 5.544 15.831-5.847-1.402-26.391-12.999-32.428-16.29a2808 2808 0 0 0-53.625-29.059l-70.456-36.969c-13.547-7.006-28.049-13.751-41.069-21.5zM524.656 551.249c27.151-2.482 92.279 33.203 56.676 49.387-22.702 2.32-51.953-10.881-64.856-30.146-5.763-8.604.954-15.165 8.18-19.241M616.006 596.206c15.576 1.776 32.516 18.422 10.759 25.791-15.64-1.274-32.01-18.367-10.759-25.791"/><path fill="#d2e7c5" d="M975.707 1478.32c37.663 17.67 83.183 34.14 124.273 41.4a598 598 0 0 0-1.33 45.39c.02 8.3.55 22.94.03 30.65.32 29.71 1.03 59.42 2.11 89.11.98 23.95 3 52.44 2.32 76.1-1.06 10.07-1.6 12.99-9.63 19.99-23.99 20.9-148.93 28.05-156.315-8.59a62 62 0 0 1 2.459-6.63c7.377-16.78 23.938-23.38 39.604-29.67-1.153-25.56-5.064-53.52-6.322-80.09-2.038-43.08-1.832-82.33-.911-125.35a3009 3009 0 0 1 3.712-52.31"/><path fill="#a6cc9d" d="M975.707 1478.32c37.663 17.67 83.183 34.14 124.273 41.4a598 598 0 0 0-1.33 45.39c.02 8.3.55 22.94.03 30.65-1.68-2.46-1-26.45-.98-31.05-28.61-3.37-62.71-11.74-90.15-20.53-11.494-3.69-23.839-9.41-35.555-13.55a3009 3009 0 0 1 3.712-52.31M937.165 1772.37c7.907.24 21.318 4.44 30.871 5.03 49.684 3.04 88.144 1.25 135.074-16.43-1.06 10.07-1.6 12.99-9.63 19.99-23.99 20.9-148.93 28.05-156.315-8.59"/><path fill="#d2e7c5" d="M1435.1 524.876c1.47-18.087 4.67-33.465 13.5-49.44 55.43-100.204 183.71-91.73 270.46-45.688-8.63 17.01-17.66 31.688-27.81 47.808-32.08 47.354-77.59 94.361-136.15 105.589-43.68 8.375-89.41-5.919-116.81-41.878 3.42-3.154 6.11-5.715 9.86-8.527 47.16-40.569 106.04-64.171 165.83-77.459 6.32-1.404 8.12-5.568 5.43-11.46-7.43-5.794-27.86 1.601-36.75 4.023-55.53 15.13-103.71 39.596-147.56 77.032"/><path fill="#a6cc9d" d="M1448.15 532.74c13.5 14.219 48.4 26.154 67.1 29.789 57.28 11.14 108.33-15.724 146.47-57.06 8.23-8.922 16.09-19.662 25.34-27.362l4.19-.551c-32.08 47.354-77.59 94.361-136.15 105.589-43.68 8.375-89.41-5.919-116.81-41.878 3.42-3.154 6.11-5.715 9.86-8.527"/><path fill="#d2e7c5" d="M1213.68 253.781c61.61 11.958 119.47 40.803 156.61 93.287 31.19 44.073 38.35 112.761 2.47 156.605-10.67-56.099-33.81-106.647-67.27-152.722-5.49-7.551-16.17-25.778-26.03-25.348-3.26 1.761-3.08 1.92-4.84 5.036-.11 2.558-.48 3.667 1.35 5.915 39.35 48.473 68.66 102.366 81.74 164.356.86 3.96 1.54 8.898 2.22 12.971-15.62 3.173-30.83 4.321-46.35 1.119-77.38-15.961-110.75-93.117-110.9-165.535-.02-10.628-.7-21.193 1.24-31.536.55-16.783 5.39-47.817 9.76-64.148"/><path fill="#a6cc9d" d="M1203.92 317.929c5.48 57.237 7.58 105.434 55.87 146.965 23.59 20.294 66.48 37.871 97.92 36.016.86 3.96 1.54 8.898 2.22 12.971-15.62 3.173-30.83 4.321-46.35 1.119-77.38-15.961-110.75-93.117-110.9-165.535-.02-10.628-.7-21.193 1.24-31.536"/><path fill="#d2e7c5" d="M1178.83 1573.9c50.51.29 76.89.03 126.89-8.8-.02 3.71-.56 17.48.99 19.66 1.13 49.14 2.73 105.81 7.62 154.69 10.57 5.84 21.51 11.41 29.03 21.18 3.61 4.52 6.4 8.57 7.57 14.37-.12 6.14-1.25 7.71-5.36 12.27-28.03 23.3-118.73 18.23-149.1-3.1-6.48-4.55-6.82-12.24-7.51-19.61-2.24-13.93-3.8-37.14-4.97-51.73-3.81-46.21-5.53-92.57-5.16-138.93"/><path fill="#a6cc9d" d="M1188.96 1764.56c34.57 21.27 112.22 33.26 149.66 14.74l4.99-1.93c3.13-.82 4.33-1.18 7.32-2.37-.12 6.14-1.25 7.71-5.36 12.27-28.03 23.3-118.73 18.23-149.1-3.1-6.48-4.55-6.82-12.24-7.51-19.61"/><path fill="#b0d3ae" d="M1350.93 1775c-.12 6.14-1.25 7.71-5.36 12.27-2.32-4.14-2-4.93-1.96-9.9 3.13-.82 4.33-1.18 7.32-2.37"/><path fill="#f6ca75" d="M705.69 642.252c10.716 3.791 45.035 21.658 56.593 27.331a5202 5202 0 0 1 57.213 28.455c10.901 5.429 21.88 10.665 32.65 16.356 6.995 3.696 7.554 6.374 8.45 13.817 3.809 19.465-.5 47.476-8.424 65.48-6.548 22.559-26.079 48.608-46.714 61.028-17.282-3.726-38.259-10.013-55.805-14.648a4548 4548 0 0 1-106.075-29.082c19.084-22.953 35.865-50.038 46.481-77.991 14.337-41.877 12.992-49.516 15.631-90.746"/><path fill="#dfa550" d="M690.059 732.998c.076 10.177-2.172 31.933 5.36 39.656 8.901 9.127 107.349 42.455 122.798 41.707 15.61-.756 22.039-14.137 33.955-20.67-6.548 22.559-26.079 48.608-46.714 61.028-17.282-3.726-38.259-10.013-55.805-14.648a4548 4548 0 0 1-106.075-29.082c19.084-22.953 35.865-50.038 46.481-77.991"/><path fill="#fff" d="M705.69 642.252c10.716 3.791 45.035 21.658 56.593 27.331a5202 5202 0 0 1 57.213 28.455c10.901 5.429 21.88 10.665 32.65 16.356 6.995 3.696 7.554 6.374 8.45 13.817-1.094-.118-141.524-67.185-153.341-74.169-1.698-3.303-1.424-7.936-1.565-11.79"/><path fill="#d2e7c5" d="M631.528 823.392a590 590 0 0 0 24.317 6.863c1.253 12 1.304 21.133.409 33.18-1.368 35.66-.592 56.275 14.153 89.887l9.13 16.743c-3.387 43.885-4.724 90.515 2.69 134.135-14.45-10.67-35.381-26.55-47.559-39.17-56.04-53.18-103.196-135.552-101.703-214.072a130.3 130.3 0 0 1 3.145-25.013c19.921 4.527 44.415 11.271 64.755 12.99 10.201.862 22.794-9.011 30.663-15.543"/><path fill="#a6cc9d" d="m670.407 953.322 9.13 16.743c-3.387 43.885-4.724 90.515 2.69 134.135-14.45-10.67-35.381-26.55-47.559-39.17 2.449-5.1 2.439-19.25 3.482-26.14 3.785-25.01 16.629-65.705 32.257-85.568M631.528 823.392a590 590 0 0 0 24.317 6.863c1.253 12 1.304 21.133.409 33.18a554 554 0 0 1-56.722-4.797c-12.277-1.612-56.354-9.453-66.567-7.68a130.3 130.3 0 0 1 3.145-25.013c19.921 4.527 44.415 11.271 64.755 12.99 10.201.862 22.794-9.011 30.663-15.543"/><path fill="#dfa550" d="M380.144 700.711c3.844 2.668 14.987 7.451 19.727 8.417 16.68 3.4 22.655-3.629 34.664-11.245-19.493 34.148-38.942 55.531-72.27 75.356-16.64-3.031-32.926-8.109-48.838-11.014 27.454-13.256 45.084-28.621 61.991-54.575z"/><path fill="#f6ca75" d="M862.3 702.41c19.403 4.291 34.748 11.667 38.084 33.54 7.559 30.493-4.919 73.636-21.425 99.497-7.983 1.101-11.041 1.485-19.021 1.225-4.588-2.838-5.345-3.159-8.942-7.017 20.015-34.907 29.863-69.597 23.376-109.961-3.813-8.799-4.565-10.831-12.072-17.284"/><path fill="#fff" d="M862.3 702.41c19.403 4.291 34.748 11.667 38.084 33.54-3.279-.782-17.587-12.353-26.012-16.256-3.813-8.799-4.565-10.831-12.072-17.284M943.575 748.17c31.803 1.468 30.423 43.825-2.018 53.763-33.123 1.547-31.812-44.656 2.018-53.763"/><path fill="#dfa550" d="M800.669 869.534a64 64 0 0 0 3.798-.364c19.609-2.539 35.241-24.836 46.529-39.515 3.597 3.858 4.354 4.179 8.942 7.017 7.98.26 11.038-.124 19.021-1.225-17.951 30.827-41.575 56.473-78.29 34.087"/><path fill="#fff" d="M912.362 814.635c6.226-2.216 13.073 1.014 15.321 7.229s-.949 13.078-7.152 15.356c-6.248 2.295-13.17-.928-15.434-7.187s.995-13.165 7.265-15.398"/></svg>