<svg version="1.1" xmlns="http://www.w3.org/2000/svg" viewBox="0 0 2048 2048" width="768" height="768">
<defs>
	<linearGradient id="Gradient1" gradientUnits="userSpaceOnUse" x1="815.454" y1="811.987" x2="988.205" y2="1567.56">
		<stop class="stop0" offset="0" stop-opacity="1" stop-color="rgb(153,196,161)"/>
		<stop class="stop1" offset="1" stop-opacity="1" stop-color="rgb(197,215,168)"/>
	</linearGradient>
</defs>
<path transform="translate(0,0)" fill="rgb(47,31,43)" d="M 1143.78 235.451 C 1159.16 235.05 1207.9 233.685 1218.86 241.74 C 1223.31 250.449 1218.69 273.451 1217.25 283.677 C 1265.81 288.298 1323.38 311.438 1362.3 339.838 C 1454.16 406.877 1494.74 498.294 1512.25 607.47 C 1535.72 603.33 1556.94 604.243 1578.35 615.663 C 1599.17 627.024 1614.65 646.149 1621.44 668.876 C 1628.96 693.147 1626.23 719.437 1613.88 741.643 C 1566.65 827.814 1436.64 789.476 1442.19 693.332 C 1443.3 674.097 1446.59 664.61 1456.08 648.1 C 1441.09 634.488 1403.32 613.198 1384.31 606.068 C 1380.59 618.162 1380.13 619.689 1371.99 629.625 C 1391 652.87 1402.91 686.888 1384.19 713.769 C 1444.74 761.94 1496.47 842.962 1520.02 916.361 C 1604.92 1180.92 1431.15 1458.6 1173.01 1539.67 C 1174.92 1556.24 1175.24 1586.88 1175.71 1604.08 C 1177.09 1666 1176.5 1727.96 1173.93 1789.85 C 1184.63 1795.34 1193.4 1800.75 1202.46 1808.35 C 1216.79 1820.36 1224.84 1844.98 1209.83 1859.71 C 1189.48 1879.67 1150.41 1882.55 1122.99 1882.2 C 1091.82 1881.81 1046.86 1878.7 1022.96 1855.65 C 1018.27 1850.8 1014.31 1844.52 1013.51 1837.65 C 1010.98 1815.96 1012 1792.72 1011.71 1770.85 C 1011.08 1711.45 1010.97 1652.04 1011.38 1592.64 L 1011.93 1572.64 C 992.745 1573.62 976.044 1574.37 956.846 1573.97 C 958.498 1594.1 957.539 1630.91 957.668 1652.91 C 957.913 1688.06 957.843 1723.21 957.458 1758.35 C 957.371 1784.35 958.186 1816.4 953.804 1842.06 C 952.425 1850.14 940.427 1860.76 932.529 1864.56 C 891.132 1883.41 834.848 1885.65 791.208 1874.61 C 770.247 1869.31 744.512 1852.98 754.383 1828.29 C 762.045 1809.13 776.539 1797.95 794.548 1789.12 C 792.972 1769.97 794.143 1729.94 794.133 1709.81 L 794.312 1551.17 C 347.562 1421.03 247.325 857.418 670.47 624.889 C 646.615 590.474 685.612 550.884 710.128 530.102 C 715.629 525.439 726.099 522.191 731.253 517.09 C 736.092 512.3 740.825 503.786 744.595 497.862 C 727.967 489.514 708.968 477.531 696.325 463.821 C 648.862 412.352 619.802 335.741 616.643 266.107 C 615.984 251.58 700.102 253.844 710.684 254.695 C 723.169 255.677 735.552 257.681 747.71 260.687 C 809.072 276.223 853.253 305.531 885.533 360.181 C 901.319 348.544 922.735 338.225 940.633 329.904 C 948.176 326.397 962.347 321.049 968.954 317.142 C 978.781 311.33 987.173 297.879 997.742 290.142 C 1046.08 254.759 1084.46 240.548 1143.78 235.451 z"/>
<path transform="translate(0,0)" fill="rgb(214,233,200)" d="M 685.308 633.057 C 705.663 633.568 728.94 628.264 749.327 624.733 C 764.092 622.259 778.938 620.291 793.838 618.83 C 903.39 607.624 1000.5 612.814 1107.84 639.286 C 1148.78 649.945 1186.44 661.718 1225.77 677.734 C 1240.79 683.846 1262.48 692.218 1276.65 699.737 C 1307.98 711.835 1341.42 732.136 1373.53 722.743 C 1379.49 728.337 1387.03 735.049 1392.52 740.908 C 1477.72 826.796 1526.36 933.671 1526.01 1055.65 C 1524.66 1167.71 1484.28 1275.79 1411.82 1361.29 C 1367.83 1419.35 1283.46 1477.75 1217.15 1506.43 C 1066.88 1572.97 896.318 1577.07 743.022 1517.82 C 611.491 1465.78 506.448 1362.98 451.58 1232.6 C 405.568 1124.3 403.969 1002.25 447.128 892.779 C 449.449 887.588 451.467 882.3 453.675 877.064 C 495.586 777.649 574.828 697.876 666.796 644.459 C 671.725 640.957 679.925 636.314 685.308 633.057 z"/>
<path transform="translate(0,0)" fill="rgb(47,31,43)" d="M 1411.82 1361.29 C 1367.83 1419.35 1283.46 1477.75 1217.15 1506.43 C 1066.88 1572.97 896.318 1577.07 743.022 1517.82 C 611.491 1465.78 506.448 1362.98 451.58 1232.6 C 405.568 1124.3 403.969 1002.25 447.128 892.779 C 452.006 904.008 447.856 914.282 447.209 926.19 C 446.544 938.431 445.793 950.601 445.852 962.87 C 442.531 1083.01 482.267 1203.67 557.667 1297.47 C 571.605 1314.81 599.622 1345.06 618.612 1358.52 C 619.774 1359.34 619.923 1358.91 621.709 1358.17 C 615.052 1343 613.911 1336.12 611.479 1319.91 L 621.248 1334.98 C 627.795 1337.69 661.183 1369.57 672.877 1377.48 C 716.484 1406.98 756.414 1430.19 809.1 1440.35 C 821.216 1442.69 849.76 1443.02 856.701 1444.78 C 863.408 1439.79 870.153 1431.38 872.152 1423.26 C 885.053 1371.23 825.875 1352.06 789.544 1335.09 C 750.692 1316.94 717.077 1300.64 696.374 1261.14 C 711.015 1269.7 727.689 1282.89 742.439 1292.31 C 759.423 1303.17 774.59 1311.08 792.303 1320.51 C 775.362 1279.12 808.865 1269.85 841.629 1261.66 C 862.117 1256.54 883.302 1253.42 904.143 1250.11 C 909.364 1239.4 916.157 1228.85 921.456 1218.41 C 982.275 1098.58 1015.42 1171.66 1059.19 1249.77 C 1087.36 1255.65 1116.62 1258.72 1144.04 1267.77 C 1172.7 1277.23 1182.98 1290.77 1171.91 1320.01 C 1181.08 1315.47 1190.32 1310.67 1199.27 1305.73 C 1222.87 1292.68 1244.08 1275.9 1266.79 1261.35 C 1244.62 1306.51 1199.57 1322.71 1156.55 1343.26 C 1139.89 1350.77 1124.33 1357.53 1110.57 1369.91 C 1087.53 1390.66 1081.26 1418.85 1104.96 1442.53 C 1114.22 1441.05 1127.05 1442.79 1137.19 1441.76 C 1206.18 1434.75 1269.12 1397.8 1320.54 1352.97 C 1325.91 1348.29 1334.08 1339.38 1340.83 1339.26 C 1345.11 1333.07 1349.43 1326.91 1353.8 1320.79 C 1345.52 1372.64 1316.75 1400.07 1275.82 1431.3 C 1264.82 1439.69 1252.79 1444.34 1242.85 1451.25 L 1240.16 1454.46 L 1241.04 1455.34 C 1254.08 1452.44 1266.88 1446.02 1278.97 1440.46 C 1316.74 1423.08 1349.08 1404.66 1382.58 1379.92 C 1390.24 1374.27 1402.46 1361.97 1411.82 1361.29 z"/>
<path transform="translate(0,0)" fill="url(#Gradient1)" d="M 1411.82 1361.29 C 1367.83 1419.35 1283.46 1477.75 1217.15 1506.43 C 1066.88 1572.97 896.318 1577.07 743.022 1517.82 C 611.491 1465.78 506.448 1362.98 451.58 1232.6 C 405.568 1124.3 403.969 1002.25 447.128 892.779 C 452.006 904.008 447.856 914.282 447.209 926.19 C 446.544 938.431 445.793 950.601 445.852 962.87 C 442.531 1083.01 482.267 1203.67 557.667 1297.47 C 571.605 1314.81 599.622 1345.06 618.612 1358.52 C 619.774 1359.34 619.923 1358.91 621.709 1358.17 C 626.663 1366.89 633.638 1378.91 640.015 1386.46 C 686.295 1441.21 774.161 1492.35 847.362 1467.24 C 845.507 1511.01 850.126 1533.72 901.824 1520.45 C 910.537 1522.27 953.746 1500.96 963.22 1495.9 L 968.603 1497.83 C 983.315 1503.12 1001.7 1499.13 1009.67 1502.02 C 1021.83 1506.43 1037.91 1514.48 1051.78 1519.36 L 1053.69 1518.41 C 1066.12 1520.84 1072.75 1525.4 1087.15 1524.26 C 1118.69 1521.78 1116.13 1490.8 1113.86 1466.19 C 1163.63 1482.93 1197.63 1470.35 1242.85 1451.25 L 1240.16 1454.46 L 1241.04 1455.34 C 1254.08 1452.44 1266.88 1446.02 1278.97 1440.46 C 1316.74 1423.08 1349.08 1404.66 1382.58 1379.92 C 1390.24 1374.27 1402.46 1361.97 1411.82 1361.29 z"/>
<path transform="translate(0,0)" fill="rgb(166,211,184)" d="M 1104.96 1442.53 C 1114.22 1441.05 1127.05 1442.79 1137.19 1441.76 C 1206.18 1434.75 1269.12 1397.8 1320.54 1352.97 C 1325.91 1348.29 1334.08 1339.38 1340.83 1339.26 C 1303.91 1404.85 1196.16 1486.46 1114.08 1449.26 C 1111.53 1448.1 1107.12 1444.41 1104.96 1442.53 z"/>
<path transform="translate(0,0)" fill="rgb(166,211,184)" d="M 621.248 1334.98 C 627.795 1337.69 661.183 1369.57 672.877 1377.48 C 716.484 1406.98 756.414 1430.19 809.1 1440.35 C 821.216 1442.69 849.76 1443.02 856.701 1444.78 C 854.785 1446.16 851.497 1448.5 849.423 1449.43 C 766.83 1486.17 656.609 1403.43 621.248 1334.98 z"/>
<path transform="translate(0,0)" fill="rgb(214,233,200)" d="M 981.18 1483.7 C 999.469 1496.69 1033.07 1510.15 1053.69 1518.41 L 1051.78 1519.36 C 1037.91 1514.48 1021.83 1506.43 1009.67 1502.02 C 1001.7 1499.13 983.315 1503.12 968.603 1497.83 L 963.22 1495.9 C 953.746 1500.96 910.537 1522.27 901.824 1520.45 C 929.434 1510.87 956.018 1498.56 981.18 1483.7 z"/>
<path transform="translate(0,0)" fill="rgb(254,240,175)" d="M 920.324 1251.19 C 929.373 1230.92 957.318 1183.3 975.279 1170.58 C 989.729 1160.35 1015.16 1202.95 1021.66 1215.02 C 1032.16 1228.96 1040.24 1249.16 1051.18 1262.82 C 1077.37 1268.41 1147.01 1276.16 1161.11 1295.81 C 1164.03 1312.28 1142.92 1334.37 1128.74 1340.67 C 1112.55 1348.71 1106.65 1352.94 1093.22 1365.19 C 1081.36 1382.79 1077.71 1386.15 1074.39 1407.96 C 1076.38 1428.37 1076.91 1435.21 1091.28 1451.11 L 1098.11 1457.26 C 1099.46 1469.85 1106.56 1511.53 1084.27 1509.79 C 1049.66 1507.09 1012.39 1483.3 981.098 1469.02 L 979.658 1469.58 C 949.61 1481.4 924.216 1498.93 891.765 1507.81 C 855.547 1517.72 859.092 1484.79 863.709 1459.06 C 884.784 1439.89 890.44 1430.89 889.155 1401.68 C 886.494 1386 880.431 1376.97 870.858 1364.77 L 858.802 1353.81 C 831.203 1335.88 812.934 1336.31 801.388 1300.51 L 805.291 1292.4 C 819.223 1276.8 885.959 1267.71 908.321 1263.65 C 914.562 1261.52 916.647 1256.74 920.324 1251.19 z"/>
<path transform="translate(0,0)" fill="rgb(250,206,80)" d="M 889.155 1401.68 C 893.46 1410.21 891.358 1420.09 889.038 1429.03 C 897.411 1442.65 904.816 1452.74 920.164 1459.4 C 924.921 1461.46 929.481 1462.26 934.557 1464.53 C 943.447 1459.55 957.561 1450.51 967.186 1449.49 C 979.909 1445.29 984.658 1445.01 996.942 1451.46 C 1010.44 1461.07 1051.78 1477.05 1068.46 1481.79 C 1087.51 1487.2 1089.44 1465.01 1091.28 1451.11 L 1098.11 1457.26 C 1099.46 1469.85 1106.56 1511.53 1084.27 1509.79 C 1049.66 1507.09 1012.39 1483.3 981.098 1469.02 L 979.658 1469.58 C 949.61 1481.4 924.216 1498.93 891.765 1507.81 C 855.547 1517.72 859.092 1484.79 863.709 1459.06 C 884.784 1439.89 890.44 1430.89 889.155 1401.68 z"/>
<path transform="translate(0,0)" fill="rgb(254,230,127)" d="M 889.155 1401.68 C 893.46 1410.21 891.358 1420.09 889.038 1429.03 C 897.411 1442.65 904.816 1452.74 920.164 1459.4 C 924.921 1461.46 929.481 1462.26 934.557 1464.53 C 943.447 1459.55 957.561 1450.51 967.186 1449.49 C 947.126 1462 906.637 1483.33 882.876 1485.64 C 867.117 1487.17 863.862 1472.38 863.709 1459.06 C 884.784 1439.89 890.44 1430.89 889.155 1401.68 z"/>
<path transform="translate(0,0)" fill="rgb(254,230,127)" d="M 805.291 1292.4 C 819.223 1276.8 885.959 1267.71 908.321 1263.65 C 900.232 1270.82 876.37 1268.62 866.623 1273.84 C 865.049 1274.69 863.238 1286.5 862.429 1288.66 C 860.094 1302.2 842.74 1312.74 838.784 1326.72 C 838.387 1328.12 838.861 1328.64 840.052 1330.08 C 851.39 1343.74 865.594 1347.33 870.858 1364.77 L 858.802 1353.81 C 831.203 1335.88 812.934 1336.31 801.388 1300.51 L 805.291 1292.4 z"/>
<path transform="translate(0,0)" fill="rgb(250,206,80)" d="M 805.291 1292.4 C 817.568 1307.12 827.698 1321.01 841.678 1334.62 C 844.824 1337.68 857.798 1351.02 858.802 1353.81 C 831.203 1335.88 812.934 1336.31 801.388 1300.51 L 805.291 1292.4 z"/>
<path transform="translate(0,0)" fill="rgb(254,230,127)" d="M 1051.18 1262.82 C 1077.37 1268.41 1147.01 1276.16 1161.11 1295.81 C 1164.03 1312.28 1142.92 1334.37 1128.74 1340.67 C 1112.55 1348.71 1106.65 1352.94 1093.22 1365.19 C 1098.74 1351.32 1121.51 1344.46 1130.82 1331.51 C 1147.71 1308.02 1109.78 1297.4 1107.76 1277.4 L 1107.68 1276.48 C 1095.33 1271.81 1055.99 1268.69 1051.18 1262.82 z"/>
<path transform="translate(0,0)" fill="rgb(250,206,80)" d="M 1161.11 1295.81 C 1164.03 1312.28 1142.92 1334.37 1128.74 1340.67 C 1135.2 1325.57 1152.09 1313.46 1161.11 1295.81 z"/>
<path transform="translate(0,0)" fill="rgb(254,230,127)" d="M 920.324 1251.19 C 929.373 1230.92 957.318 1183.3 975.279 1170.58 C 989.729 1160.35 1015.16 1202.95 1021.66 1215.02 C 1018.32 1213.42 1015.89 1210.61 1013.2 1207.99 C 1013.24 1205.89 1013.41 1206.95 1012.59 1204.8 L 1011.45 1205.44 L 1012.16 1206.26 C 1011.78 1208.61 1011.37 1210.3 1010.57 1212.54 C 992.552 1192.21 975.111 1199.55 981.269 1225.75 L 980.095 1225.93 C 977.588 1221.29 977.901 1215.99 978.892 1211.04 C 973.699 1206.06 950.461 1211.24 944.264 1214.08 C 937.398 1222.67 927.112 1247.7 920.324 1251.19 z"/>
<path transform="translate(0,0)" fill="rgb(254,230,127)" d="M 996.942 1451.46 C 1004.48 1452.3 1014.51 1458.36 1022.07 1461.58 C 1039.69 1469.98 1056.09 1458.64 1067.88 1446.07 C 1071.77 1441.93 1072.77 1439.77 1078.42 1437.95 C 1074.58 1427.63 1070.7 1419.07 1074.39 1407.96 C 1076.38 1428.37 1076.91 1435.21 1091.28 1451.11 C 1089.44 1465.01 1087.51 1487.2 1068.46 1481.79 C 1051.78 1477.05 1010.44 1461.07 996.942 1451.46 z"/>
<path transform="translate(0,0)" fill="rgb(255,255,255)" d="M 981.269 1225.75 C 975.111 1199.55 992.552 1192.21 1010.57 1212.54 C 1015.74 1222.19 1020.46 1230.59 1017.17 1241.92 C 1014.63 1250.68 1006.05 1252.14 998.72 1248.3 C 989.298 1243.37 985.517 1234.83 981.269 1225.75 z"/>
<path transform="translate(0,0)" fill="rgb(255,255,255)" d="M 1069.26 1277.39 C 1081.18 1278.03 1097.28 1279.75 1101.25 1294.21 C 1103.55 1302.56 1093.79 1307.42 1086.67 1308.17 C 1078.1 1307.97 1069.72 1308.44 1062.21 1303.71 C 1045.11 1292.94 1051.31 1280.09 1069.26 1277.39 z"/>
<path transform="translate(0,0)" fill="rgb(255,255,255)" d="M 1021.52 1254.67 C 1026.92 1253.11 1032.57 1256.17 1034.22 1261.55 C 1035.86 1266.92 1032.89 1272.62 1027.54 1274.35 C 1024.01 1275.49 1020.13 1274.64 1017.4 1272.12 C 1014.67 1269.6 1013.51 1265.81 1014.36 1262.19 C 1015.21 1258.58 1017.95 1255.7 1021.52 1254.67 z"/>
<path transform="translate(0,0)" fill="rgb(255,255,255)" d="M 1107.84 639.286 C 1148.78 649.945 1186.44 661.718 1225.77 677.734 C 1240.79 683.846 1262.48 692.218 1276.65 699.737 C 1279.34 707.795 1283.5 710.871 1285.96 717.258 L 1287.35 718.692 C 1290.44 731.641 1291.78 746.613 1275.8 751.895 C 1228.71 767.464 1125.02 711.485 1108.44 669.122 L 1107.43 668.765 C 1104.48 660.863 1101.44 645.997 1107.84 639.286 z"/>
<path transform="translate(0,0)" fill="rgb(226,219,204)" d="M 1107.84 639.286 C 1148.78 649.945 1186.44 661.718 1225.77 677.734 C 1240.79 683.846 1262.48 692.218 1276.65 699.737 C 1279.34 707.795 1283.5 710.871 1285.96 717.258 C 1278.35 716.475 1251.78 708.068 1243.7 705.543 C 1215.93 696.864 1187.68 689.301 1159.63 681.597 C 1146.5 677.994 1120.53 669.805 1108.44 669.122 L 1107.43 668.765 C 1104.48 660.863 1101.44 645.997 1107.84 639.286 z"/>
<path transform="translate(0,0)" fill="rgb(166,211,184)" d="M 685.308 633.057 C 705.663 633.568 728.94 628.264 749.327 624.733 C 764.092 622.259 778.938 620.291 793.838 618.83 C 903.39 607.624 1000.5 612.814 1107.84 639.286 C 1101.44 645.997 1104.48 660.863 1107.43 668.765 C 1099.55 666.004 1075.49 661.473 1066.2 659.523 C 997.838 645.169 922.987 634.692 853.05 634.049 C 812.803 633.366 772.551 634.992 732.491 638.919 C 720.469 640.177 674.766 647.451 666.796 644.459 C 671.725 640.957 679.925 636.314 685.308 633.057 z"/>
<path transform="translate(0,0)" fill="rgb(166,211,184)" d="M 1276.65 699.737 C 1307.98 711.835 1341.42 732.136 1373.53 722.743 C 1379.49 728.337 1387.03 735.049 1392.52 740.908 C 1350.27 742.557 1324.2 725.374 1287.35 718.692 L 1285.96 717.258 C 1283.5 710.871 1279.34 707.795 1276.65 699.737 z"/>
<path transform="translate(0,0)" fill="rgb(240,179,184)" d="M 1284.74 1061.41 C 1306.39 1057.92 1356.85 1065.94 1360.58 1094.13 C 1364.44 1123.34 1321.63 1134.55 1299.24 1137.73 C 1277.97 1139.22 1255.59 1137.69 1237.42 1125.25 C 1223.51 1115.72 1217.24 1099.46 1228.84 1085.32 C 1242.07 1069.19 1264.84 1063.44 1284.74 1061.41 z"/>
<path transform="translate(0,0)" fill="rgb(240,179,184)" d="M 644.137 1067.38 C 664.241 1064.35 694.528 1068.47 710.959 1081.28 C 738.308 1102.59 718.332 1127.39 692.586 1135.81 C 682.501 1139.11 675.987 1140.36 665.237 1141.79 C 643.555 1143.74 618.613 1141.89 599.896 1129.49 C 586.628 1120.7 580.051 1104.89 590.995 1091.3 C 603.28 1076.05 625.361 1069.58 644.137 1067.38 z"/>
<path transform="translate(0,0)" fill="rgb(47,31,43)" d="M 764.671 951.429 C 786.378 949.254 816.594 955.855 835.041 967.47 C 844.989 973.733 870.198 988.458 858.048 1002.5 C 854.934 1006.07 850.227 1007.83 845.532 1007.18 C 839.526 1006.38 832.566 1001.04 826.769 998.752 C 804.614 990 785.261 987.763 761.973 989.672 C 748.258 992.142 740.376 994.391 727.438 1000.36 C 717.267 1004.38 704.429 1017.08 693.654 1018.29 C 677.092 1019.83 669.517 999.635 680.422 988.316 C 702.158 965.753 733.851 953.626 764.671 951.429 z"/>
<path transform="translate(0,0)" fill="rgb(47,31,43)" d="M 1163.66 949.384 C 1198.29 945.029 1247.21 960.709 1269.53 988.504 C 1278.26 999.384 1265.61 1018.05 1252.36 1015.49 C 1247.31 1014.51 1242.13 1010.78 1237.79 1008.13 C 1225.63 999.734 1214.45 994.374 1200.39 990.06 C 1176.05 982.652 1147.86 985.979 1124.32 994.941 C 1113.72 998.976 1101.42 1010.8 1089.99 1003.22 C 1083.31 998.791 1085.78 986.279 1090.6 981.471 C 1110.04 962.099 1136.76 952.299 1163.66 949.384 z"/>
<path transform="translate(0,0)" fill="rgb(47,31,43)" d="M 1032.39 1049.94 C 1048.22 1048.14 1046.61 1062.43 1039.22 1070.54 C 1007.97 1104.85 955.033 1102.99 921.013 1075.36 C 915.328 1069.19 911.853 1063.32 915.242 1054.79 C 917.031 1053.18 916.78 1052.81 918.824 1052.49 C 929.78 1050.77 932.716 1062.97 940 1067.66 C 954.682 1077.12 975.643 1080.41 992.52 1076.97 C 1004.97 1074.43 1019.7 1068.77 1026.35 1057.74 C 1028 1055.02 1029.65 1053.07 1031.71 1050.71 L 1032.39 1049.94 z"/>
<path transform="translate(0,0)" fill="rgb(255,255,255)" d="M 1324.28 763.245 C 1337.35 759.575 1350.91 767.195 1354.58 780.262 C 1358.25 793.329 1350.62 806.894 1337.55 810.556 C 1324.49 814.217 1310.93 806.597 1307.27 793.536 C 1303.6 780.474 1311.22 766.914 1324.28 763.245 z"/>
<path transform="translate(0,0)" fill="rgb(166,211,184)" d="M 802.237 445.045 C 950.237 297.042 1229.58 223.189 1394.27 386.635 C 1454.75 446.667 1485.83 529.873 1498 612.906 C 1491.56 615.381 1485.5 618.739 1479.99 622.884 C 1473.52 627.865 1470.08 631.428 1464.31 637.325 C 1440.8 615.667 1416.91 605.033 1388.27 592.06 C 1390.73 571.266 1386.75 548.321 1379.23 528.911 C 1376.55 521.981 1368.38 503.593 1359.54 504.898 C 1355.78 513.118 1388.43 572.708 1362.82 618.919 C 1353.69 612.301 1344.37 605.969 1334.85 599.933 C 1168.93 495.296 947.006 462.502 756.627 505.677 C 766.409 485.026 786.379 461.418 802.237 445.045 z"/>
<path transform="translate(0,0)" fill="rgb(125,180,162)" d="M 756.627 505.677 C 766.409 485.026 786.379 461.418 802.237 445.045 L 802.416 446.048 C 803.536 452.689 801.953 465.24 807.658 468.117 C 823.119 475.918 855.253 473.8 871.501 474.044 C 890.792 474.526 910.076 475.232 929.35 476.163 C 989.361 478.697 1049.17 484.825 1108.45 494.514 C 1139 499.528 1170.78 507.127 1201.49 513.923 C 1241.32 522.741 1273.57 537.647 1315.81 533.007 C 1346.85 529.597 1346.99 495.844 1356.49 495.656 C 1378.18 495.226 1397.13 536.627 1410.41 550.008 C 1434.61 575.292 1457.84 597.538 1479.99 622.884 C 1473.52 627.865 1470.08 631.428 1464.31 637.325 C 1440.8 615.667 1416.91 605.033 1388.27 592.06 C 1390.73 571.266 1386.75 548.321 1379.23 528.911 C 1376.55 521.981 1368.38 503.593 1359.54 504.898 C 1355.78 513.118 1388.43 572.708 1362.82 618.919 C 1353.69 612.301 1344.37 605.969 1334.85 599.933 C 1168.93 495.296 947.006 462.502 756.627 505.677 z"/>
<path transform="translate(0,0)" fill="rgb(255,255,255)" d="M 702.044 559.271 C 711.147 550.123 732.59 530.301 743.971 526.184 C 792.867 508.494 866.725 503.433 917.031 502.784 C 1045.95 501.123 1172.05 528.675 1286 589.147 C 1306.37 599.953 1340.33 618.831 1356.77 634.593 C 1368.62 647.324 1377.18 663.446 1378.77 680.881 C 1383.33 730.842 1325.21 703.043 1301.75 693.338 C 1282.67 685.442 1264.09 677.37 1245.3 669.516 C 1214.89 656.769 1183.85 645.571 1152.3 635.963 C 1037.78 601.545 917.539 590.352 798.635 603.04 C 780.239 604.724 761.913 607.095 743.695 610.148 C 732.683 612.014 689.567 622.235 682.291 614.835 C 667.785 600.082 691.292 570.812 702.044 559.271 z"/>
<path transform="translate(0,0)" fill="rgb(226,219,204)" d="M 1356.77 634.593 C 1368.62 647.324 1377.18 663.446 1378.77 680.881 C 1383.33 730.842 1325.21 703.043 1301.75 693.338 C 1282.67 685.442 1264.09 677.37 1245.3 669.516 C 1214.89 656.769 1183.85 645.571 1152.3 635.963 C 1037.78 601.545 917.539 590.352 798.635 603.04 C 780.239 604.724 761.913 607.095 743.695 610.148 C 732.683 612.014 689.567 622.235 682.291 614.835 C 667.785 600.082 691.292 570.812 702.044 559.271 C 704.206 563.642 704.556 567.852 705.38 572.692 C 714.951 583.456 720.929 585.716 735.615 586.462 C 750.396 587.214 765.739 586.068 780.567 585.347 C 803.364 584.048 826.189 583.291 849.022 583.076 C 981.282 583.083 1114.66 593.463 1239.15 640.191 C 1263.32 649.265 1322.56 672.512 1347.89 654.451 C 1353.41 650.508 1355.33 641.057 1356.77 634.593 z"/>
<path transform="translate(0,0)" fill="rgb(214,233,200)" d="M 1027.22 1571.36 C 1070.28 1567.94 1117.39 1557.76 1158.63 1545.11 C 1159.05 1562.16 1159.65 1579.19 1160.43 1596.23 C 1161.16 1637.51 1161.17 1678.81 1160.46 1720.1 C 1159.93 1744.39 1158.09 1777.24 1158.74 1801.01 C 1176.77 1807.49 1193.94 1817.01 1201.78 1835.57 C 1203.65 1857.12 1174.17 1862.76 1157.21 1864.98 C 1120.15 1869.84 1070.5 1868.19 1037.53 1848.55 C 1030.67 1844.47 1028.74 1833.34 1027.86 1826.11 C 1027.97 1818.23 1027.44 1810.11 1027.44 1802.19 C 1027.42 1744.37 1025.78 1685.96 1027.05 1628.19 C 1026.27 1612.07 1027.14 1588.08 1027.22 1571.36 z"/>
<path transform="translate(0,0)" fill="rgb(166,211,184)" d="M 1027.22 1571.36 C 1070.28 1567.94 1117.39 1557.76 1158.63 1545.11 C 1159.05 1562.16 1159.65 1579.19 1160.43 1596.23 C 1121.65 1605.91 1086.33 1617.4 1045.46 1617.82 C 1040.18 1617.88 1033.85 1618.59 1028.68 1619.58 C 1027.26 1622.83 1027.34 1624.7 1027.05 1628.19 C 1026.27 1612.07 1027.14 1588.08 1027.22 1571.36 z"/>
<path transform="translate(0,0)" fill="rgb(166,211,184)" d="M 1027.86 1826.11 C 1039.72 1830.84 1052.27 1835.54 1064.59 1838.56 C 1098.86 1846.95 1167.47 1851.53 1199.75 1839.02 C 1201.37 1837.16 1200.93 1837.93 1201.78 1835.57 C 1203.65 1857.12 1174.17 1862.76 1157.21 1864.98 C 1120.15 1869.84 1070.5 1868.19 1037.53 1848.55 C 1030.67 1844.47 1028.74 1833.34 1027.86 1826.11 z"/>
<path transform="translate(0,0)" fill="rgb(214,233,200)" d="M 809.823 1556.24 C 856.674 1566.86 893.917 1572.4 942.393 1574.48 C 942.308 1591.08 943.539 1621.39 942.683 1636.75 C 942.879 1670.96 942.854 1705.17 942.608 1739.38 C 942.423 1767.53 942.288 1799 939.877 1826.95 C 939.053 1832.31 938.521 1836.59 936.892 1841.82 C 907.844 1872.46 769.181 1876.94 767.93 1836.65 C 776.043 1815.64 789.893 1808.18 808.569 1798.49 C 809.676 1776.98 809.138 1750.61 809.187 1728.87 L 809.609 1605.88 C 809.786 1589.33 809.857 1572.78 809.823 1556.24 z"/>
<path transform="translate(0,0)" fill="rgb(166,211,184)" d="M 809.823 1556.24 C 856.674 1566.86 893.917 1572.4 942.393 1574.48 C 942.308 1591.08 943.539 1621.39 942.683 1636.75 C 941.048 1633.95 941.647 1627.18 941.684 1623.55 C 892.792 1622.31 856.968 1617.86 809.609 1605.88 C 809.786 1589.33 809.857 1572.78 809.823 1556.24 z"/>
<path transform="translate(0,0)" fill="rgb(166,211,184)" d="M 767.93 1836.65 C 772.797 1838.1 778.126 1840.38 783.017 1842.02 C 822.802 1855.31 866.657 1852.42 906.427 1840.6 C 918.108 1837.13 928.494 1830.31 939.877 1826.95 C 939.053 1832.31 938.521 1836.59 936.892 1841.82 C 907.844 1872.46 769.181 1876.94 767.93 1836.65 z"/>
<path transform="translate(0,0)" fill="rgb(214,233,200)" d="M 630.855 272.896 C 718.312 257.873 829.552 281.602 872.19 367.597 C 858.425 377.06 844.96 386.954 831.816 397.263 C 805.49 371.76 778.729 347.843 746.805 329.348 C 742.392 326.791 726.324 313.521 720.976 322.442 C 719.49 324.92 719.758 326.638 720.269 329.306 C 724.128 334.53 731.317 338.3 736.963 341.508 C 766.489 358.282 796.401 382.268 819.65 406.99 C 799.333 425.925 778.5 444.88 762.669 467.913 C 758.571 473.362 754.433 479.353 750.436 484.925 C 698.243 458.332 672.204 415.096 651.676 361.69 C 646.836 349.098 641.146 332.012 639.547 318.768 C 635.873 302.812 632.94 289.23 630.855 272.896 z"/>
<path transform="translate(0,0)" fill="rgb(166,211,184)" d="M 639.547 318.768 C 645.091 324.316 654.693 349.94 658.501 358.335 C 677.155 399.461 698.734 438.138 740.694 459.484 C 746.812 462.596 756.067 466.778 762.669 467.913 C 758.571 473.362 754.433 479.353 750.436 484.925 C 698.243 458.332 672.204 415.096 651.676 361.69 C 646.836 349.098 641.146 332.012 639.547 318.768 z"/>
<path transform="translate(0,0)" fill="rgb(255,255,255)" d="M 1524.5 620.682 C 1566.89 615.583 1605.35 645.879 1610.32 688.277 C 1615.3 730.675 1584.89 769.049 1542.48 773.897 C 1500.24 778.725 1462.06 748.47 1457.11 706.25 C 1452.16 664.029 1482.3 625.76 1524.5 620.682 z"/>
<path transform="translate(0,0)" fill="rgb(214,233,200)" d="M 1147.52 250.403 C 1162.4 248.149 1190.78 250.175 1205.51 252.401 C 1204.93 261.338 1203.35 272.05 1202.25 281.07 C 1158.04 274.256 1102.25 281.434 1058.77 289.87 C 1041.27 294.088 1023.84 298.524 1006.46 303.177 C 1048.14 268.925 1094.85 254.908 1147.52 250.403 z"/>
</svg>