<svg version="1.1" xmlns="http://www.w3.org/2000/svg" viewBox="0 0 2048 2048" width="768" height="768">
<defs>
	<linearGradient id="Gradient1" gradientUnits="userSpaceOnUse" x1="340.597" y1="1902.22" x2="338.977" y2="1832.01">
		<stop class="stop0" offset="0" stop-opacity="1" stop-color="rgb(147,98,76)"/>
		<stop class="stop1" offset="1" stop-opacity="1" stop-color="rgb(169,120,94)"/>
	</linearGradient>
</defs>
<path transform="translate(0,0)" fill="rgb(43,20,38)" d="M 1346.2 121.508 C 1357.39 120.837 1374.15 120.55 1384.81 123.378 C 1392.64 125.457 1390.04 150.26 1389.86 156.99 C 1387.26 258.844 1350.56 375.363 1246.83 414.913 C 1211.38 428.427 1166.99 426.023 1132.87 409.825 C 1125.56 433.171 1119.57 453.143 1120.08 478.226 C 1138.85 472.122 1177 469.056 1197.27 466.859 C 1449.69 439.504 1718.09 575.761 1818.85 816.146 C 1875.71 950.407 1876.43 1101.85 1820.85 1236.64 C 1772.97 1353.07 1678.76 1453.35 1568.86 1514.23 C 1548.34 1525.6 1524.12 1536.52 1502.38 1545.58 C 1492.42 1549.73 1481.72 1552.63 1471.32 1556.96 C 1470.85 1574.58 1468.53 1597.43 1467.32 1615.52 C 1465.82 1640.33 1464.68 1665.16 1463.91 1690 C 1461.81 1749.99 1461.34 1814.49 1457.44 1874.4 C 1456.33 1891.41 1427.75 1906.6 1412.08 1910.37 C 1372.17 1919.13 1312.19 1928.95 1272.21 1916.87 C 1199.95 1895.04 1234.65 1845.69 1280.85 1822.59 C 1274.49 1771.83 1271.64 1710.87 1271.86 1660.09 C 1271.96 1646.06 1272.33 1632.02 1272.99 1618 C 1273.42 1609.55 1274.66 1599.43 1274.18 1591.2 C 1247.17 1590.79 1229.95 1591.06 1202.27 1588.77 C 1201 1640.25 1198.13 1688.89 1197.75 1741.26 C 1197.65 1764.47 1197.68 1787.69 1197.85 1810.9 C 1197.91 1822.64 1198.89 1854.2 1195.77 1863.62 C 1183.48 1900.69 1118.14 1907.5 1085.82 1909.47 C 1058.92 1911.11 1036.84 1910.33 1011.31 1904.51 C 998.394 1901.56 981.749 1893.19 975.35 1881.27 C 960.95 1846.78 996.211 1825.86 1021.27 1812.88 C 1014.13 1718.04 1010.57 1639.93 1018.5 1543.64 C 1004.36 1539.48 989.158 1533.29 975.887 1526.85 C 943.236 1510.99 949.959 1515.4 928.529 1538.34 C 923.927 1543.14 923.681 1545.55 927.752 1551.05 C 952.411 1584.36 929.245 1603.14 899.442 1624.06 C 846.409 1660.77 788.151 1689.29 726.627 1708.66 C 705.051 1715.4 655.787 1728 633.859 1719.04 C 625.786 1715.74 619.204 1685.55 615.964 1674.65 C 570.244 1655.5 526.375 1630.86 481.746 1609.2 C 469.213 1603.12 455.472 1596.22 443.608 1588.98 C 442.431 1590.18 441.229 1591.36 440.003 1592.51 C 396.034 1633.78 360.229 1633.61 354.892 1565.42 C 353.047 1541.85 360.301 1469.36 394.581 1470.66 C 412.161 1471.32 440.671 1511.08 450.502 1525.48 C 493.154 1531.25 539.708 1540.61 583.328 1546.9 C 577.494 1523.96 572.565 1499.97 566.416 1477.23 C 564.841 1471.41 556.367 1454.91 553.757 1447.98 C 537.464 1404.72 537.781 1377.09 555.233 1335.7 C 546.954 1328.17 540.286 1321.02 537.01 1309.94 C 517.549 1244.19 611.983 1192.08 660.348 1177.5 C 620.796 1051.24 636.489 911.867 695.231 793.973 C 754.719 674.582 858.419 581.115 978.595 524.7 C 1014.64 507.777 1048.82 497.623 1085.97 485.103 C 1082 475.629 1079.25 468.436 1073.99 459.404 C 1068.57 450.096 1062.43 441.134 1057.58 431.586 C 1043.88 441.072 1030.81 450.412 1014.71 455.68 C 878.056 500.378 785.041 368.948 754.304 253.444 C 752.712 247.465 742.412 211.86 749.498 209.777 C 803.542 193.889 862.276 189.86 917.322 203.312 C 1011.88 226.003 1091.62 316.169 1065.99 417.02 C 1075.71 436.783 1090.99 455.722 1098.05 477.044 C 1098.86 479.5 1100.43 480.306 1102.56 481.037 C 1105.76 478.417 1104.99 453.667 1106.45 447.01 C 1109.93 431.157 1114.03 414.91 1120.97 400.143 C 1106.61 381.641 1100.63 362.353 1098.64 339.294 C 1092.62 269.786 1128.44 212.337 1183.33 172.769 C 1236.03 134.78 1284.31 126.604 1346.2 121.508 z M 601.523 1348.54 C 591.562 1364.01 583.116 1408.92 595.59 1423.42 C 599.475 1424.88 599.85 1424.03 602.927 1420.85 C 635.738 1396.21 664.335 1379.56 702.758 1364.43 C 711.509 1360.98 741.274 1352.5 746.017 1349.24 C 745.442 1343.67 734.553 1327.96 730.421 1324.11 L 728.395 1323.94 C 693.916 1342.66 640.548 1356.35 601.523 1348.54 z"/>
<path transform="translate(0,0)" fill="rgb(213,233,201)" d="M 709.118 1256.31 L 705.041 1247.88 C 646.187 1124.93 639.617 982.803 686.761 855.806 C 814.897 510.632 1261.86 379.073 1570.86 563.604 C 1661.48 617.719 1741.84 695.304 1787.52 790.975 C 1797.16 807.098 1809.58 838.078 1815.74 855.929 C 1849.57 953.863 1854.16 1059.53 1828.95 1160.02 C 1799.46 1276.51 1728.29 1377.37 1634.08 1450.9 C 1453.88 1591.53 1201.93 1610.43 995.961 1516.81 C 1039.41 1511.1 1081.45 1497.53 1120.03 1476.76 C 1157.86 1455.83 1195.19 1426.14 1212.31 1385.35 C 1205.69 1390.03 1202.39 1392.72 1196.38 1398.17 C 1179.14 1413.3 1162.38 1428.58 1143.53 1441.69 C 1094.02 1476.11 1035.77 1497.53 975.511 1501.66 C 940.717 1504.04 896.345 1496.68 885.225 1457.91 L 885.042 1456 C 879.015 1397.68 966.176 1379.09 1008.1 1358.75 C 1052.12 1337.4 1105.46 1310.54 1129.71 1266.01 C 1106.57 1275.67 1092.54 1288.17 1072.55 1302.34 C 1060.36 1310.94 1047.69 1318.83 1034.59 1325.98 C 1012.51 1337.88 989.135 1347.1 966.161 1357.05 C 954.193 1362.23 939.731 1367.86 928.671 1374.58 C 908.997 1349.24 883.911 1338.38 851.957 1345.74 C 837.789 1349 826.282 1356.49 814.037 1363.91 C 791.875 1308.05 768.087 1274.51 709.118 1256.31 z"/>
<path transform="translate(0,0)" fill="rgb(168,205,158)" d="M 1787.52 790.975 C 1797.16 807.098 1809.58 838.078 1815.74 855.929 C 1849.57 953.863 1854.16 1059.53 1828.95 1160.02 C 1799.46 1276.51 1728.29 1377.37 1634.08 1450.9 C 1453.88 1591.53 1201.93 1610.43 995.961 1516.81 C 1039.41 1511.1 1081.45 1497.53 1120.03 1476.76 C 1120.05 1477.27 1120.58 1478.63 1120.76 1479.19 C 1127.6 1482.83 1176.05 1484.4 1186.17 1484.55 C 1345.42 1486.78 1502.15 1434.66 1617.92 1323.58 C 1701.4 1243.53 1758.94 1140.28 1783.1 1027.17 C 1796.7 961.653 1801.09 878.879 1788.3 812.713 C 1787.04 806.196 1787.39 797.597 1787.52 790.975 z"/>
<path transform="translate(0,0)" fill="rgb(168,205,158)" d="M 885.225 1457.91 C 946.706 1508.42 1070.74 1459.15 1132.47 1428.42 C 1142.86 1423.26 1153.04 1417.68 1162.98 1411.69 C 1172.66 1405.85 1184.87 1395.62 1196.38 1398.17 C 1179.14 1413.3 1162.38 1428.58 1143.53 1441.69 C 1094.02 1476.11 1035.77 1497.53 975.511 1501.66 C 940.717 1504.04 896.345 1496.68 885.225 1457.91 z"/>
<path transform="translate(0,0)" fill="rgb(43,20,38)" d="M 1287.73 814.384 C 1309.04 811.758 1332.66 819.219 1349.9 831.518 C 1428.5 887.601 1419.55 1032.12 1313.25 1048.97 C 1167.13 1060.95 1158.37 827.512 1287.73 814.384 z"/>
<path transform="translate(0,0)" fill="rgb(255,255,255)" d="M 1310.18 850.213 C 1348.25 849.844 1357.4 907.197 1319.74 916.969 C 1281.09 917.978 1272.79 861.262 1310.18 850.213 z"/>
<path transform="translate(0,0)" fill="rgb(255,255,255)" d="M 1330.16 938.618 C 1337.68 936.41 1345.58 940.665 1347.87 948.159 C 1350.16 955.654 1345.99 963.595 1338.52 965.967 C 1333.62 967.525 1328.25 966.328 1324.48 962.831 C 1320.7 959.335 1319.1 954.079 1320.27 949.069 C 1321.45 944.059 1325.23 940.068 1330.16 938.618 z"/>
<path transform="translate(0,0)" fill="rgb(43,20,38)" d="M 850.624 836.322 C 982.894 826.096 1006.75 1045.68 875.908 1070 C 862.133 1072.24 843.642 1070.12 830.738 1064.96 C 730.782 1025 738.737 852.327 850.624 836.322 z"/>
<path transform="translate(0,0)" fill="rgb(255,255,255)" d="M 875.06 874.075 C 911.395 872.084 924.118 925.955 888.068 939.691 C 852.166 942.806 839.661 888.368 875.06 874.075 z"/>
<path transform="translate(0,0)" fill="rgb(255,255,255)" d="M 896.29 962.636 C 903.521 960.868 910.869 965.075 913.006 972.205 C 915.142 979.335 911.318 986.89 904.307 989.389 C 899.44 991.124 894.013 990.034 890.194 986.554 C 886.375 983.074 884.786 977.772 886.062 972.765 C 887.338 967.758 891.271 963.863 896.29 962.636 z"/>
<path transform="translate(0,0)" fill="rgb(255,255,255)" d="M 1426.07 546.171 C 1465.5 544.74 1492.88 555.205 1527.35 574.44 C 1563.34 595.551 1602.73 625.619 1615.57 667.092 C 1621.67 686.796 1614.41 700.41 1594.23 704.779 C 1503.84 717.061 1344.15 566.159 1426.07 546.171 z"/>
<path transform="translate(0,0)" fill="rgb(236,171,171)" d="M 1425.25 1030.37 C 1454.37 1027.28 1497.39 1032.49 1506.36 1065.8 C 1499.86 1096.46 1467.01 1106.78 1439.67 1110.65 C 1419.25 1113.58 1391.84 1110.48 1374.12 1098.7 C 1359.08 1088.7 1354.29 1071.32 1366.41 1056.63 C 1380.27 1039.83 1404.43 1033.15 1425.25 1030.37 z"/>
<path transform="translate(0,0)" fill="rgb(236,171,171)" d="M 742.823 1054.36 C 764.93 1051.67 789.998 1055.28 808.469 1068.46 C 820.938 1077.03 827.418 1093.01 818.621 1106.7 C 806.405 1125.71 779.158 1132.57 758.244 1134.47 C 736.86 1138.22 683.341 1129.48 679.391 1101.74 C 674.934 1070.44 718.858 1057.64 742.823 1054.36 z"/>
<path transform="translate(0,0)" fill="rgb(43,20,38)" d="M 1120.05 1050.94 C 1165.02 1054.54 1074.89 1134.68 1007.67 1078.37 C 1002.1 1072.52 996.431 1065.09 1002.45 1057.3 C 1004.96 1056.24 1011.19 1055.5 1012.7 1057.14 C 1035.21 1081.62 1069.66 1086.91 1098.43 1069.8 C 1106.4 1065.06 1112.56 1057.76 1120.05 1050.94 z"/>
<path transform="translate(0,0)" fill="rgb(127,218,196)" d="M 455.025 1540 C 485.07 1544.78 515.053 1549.95 544.967 1555.49 C 558.605 1557.99 586.597 1563.92 598.947 1564.11 C 606.24 1554.78 577.642 1480.52 581.987 1468.21 C 591.841 1445.33 623.122 1422.2 644.235 1410.37 C 686.851 1386.48 746.791 1352.92 796.076 1364.77 C 805.27 1375.11 817.483 1396.75 824.884 1409.29 L 861.812 1471.91 C 875.506 1494.04 889.058 1516.26 902.467 1538.57 C 909.626 1550.53 920.132 1567.31 925.673 1579.66 C 875.927 1639 740.52 1698.59 662.421 1707.37 C 656.509 1708.04 648.356 1708.72 642.746 1706.55 C 637.984 1701.82 637.156 1696.11 635.38 1689.6 C 633.26 1681.86 630.965 1674.77 628.459 1667.14 C 622.54 1662.62 588.809 1646.51 579.941 1642.14 L 509.056 1606.65 C 491.48 1597.89 467.806 1586.56 451.245 1576.6 L 453.569 1559.95 L 455.025 1540 z"/>
<path transform="translate(0,0)" fill="rgb(89,198,171)" d="M 861.812 1471.91 C 875.506 1494.04 889.058 1516.26 902.467 1538.57 C 909.626 1550.53 920.132 1567.31 925.673 1579.66 C 875.927 1639 740.52 1698.59 662.421 1707.37 C 656.509 1708.04 648.356 1708.72 642.746 1706.55 C 637.984 1701.82 637.156 1696.11 635.38 1689.6 C 692.011 1686.77 768.942 1651.58 808.357 1611.18 C 846.406 1572.17 861.532 1525.14 861.812 1471.91 z"/>
<path transform="translate(0,0)" fill="rgb(89,198,171)" d="M 453.569 1559.95 C 454.221 1563.27 453.92 1564.68 457.329 1566.57 C 496.1 1588.05 539.253 1601.21 579.462 1619.94 C 592.512 1626.02 607.89 1629.06 619.332 1637.99 C 623.201 1640.97 628.027 1661.9 628.459 1667.14 C 622.54 1662.62 588.809 1646.51 579.941 1642.14 L 509.056 1606.65 C 491.48 1597.89 467.806 1586.56 451.245 1576.6 L 453.569 1559.95 z"/>
<path transform="translate(0,0)" fill="rgb(43,20,38)" d="M 748.56 1374.31 C 771.401 1371.79 774.972 1384.5 759.975 1399.37 C 739.201 1419.96 704.09 1431.68 675.099 1432.21 C 667.96 1431.69 656.234 1430.03 654.447 1421.45 C 653.966 1419.14 655.376 1414.73 657.114 1413.16 C 678.34 1394.01 721.128 1378.09 748.56 1374.31 z"/>
<path transform="translate(0,0)" fill="rgb(60,139,115)" d="M 749.561 1387.41 C 751.903 1386.93 751.099 1386.91 753.489 1387.77 C 753.405 1389.75 753.785 1390.03 752.344 1391.34 C 732.878 1409.02 697.5 1418.39 673.243 1420.8 L 669.647 1420.86 L 668.67 1419.56 C 674.639 1409.55 735.332 1388.38 749.561 1387.41 z"/>
<path transform="translate(0,0)" fill="rgb(255,255,255)" d="M 637.826 1548.09 C 655.248 1547.3 660.448 1559.17 661.08 1575.64 C 661.326 1582.06 659.276 1586.08 654.576 1590.37 C 633.563 1594.8 624.174 1561.25 637.826 1548.09 z"/>
<path transform="translate(0,0)" fill="rgb(255,255,255)" d="M 629.148 1499.18 C 636.797 1500.16 642.032 1503.2 644.615 1510.97 C 646.092 1515.34 645.758 1520.12 643.687 1524.24 C 641.076 1529.31 638.166 1530.51 633.032 1532.18 C 614.488 1528.51 610.329 1503.55 629.148 1499.18 z"/>
<path transform="translate(0,0)" fill="rgb(213,233,201)" d="M 1291.52 1591.18 C 1348.17 1589.6 1399.94 1579.2 1454.11 1563.76 C 1453.15 1580.71 1451.49 1599.33 1450.16 1616.34 C 1447.91 1662.15 1446.22 1707.99 1445.09 1753.85 C 1444.21 1784.67 1443.91 1817.69 1442.22 1848.25 C 1442.14 1858.44 1443.21 1871.88 1434.5 1879.84 C 1421.97 1891.28 1404.35 1892.68 1389.46 1897.71 C 1364.47 1906.14 1238.42 1915.54 1249.33 1871.82 C 1262.26 1847.1 1277.66 1847.17 1296.92 1832.94 C 1296.83 1816.56 1294.84 1796.51 1293.86 1779.88 C 1291.39 1737.71 1288.21 1696.84 1289.08 1654.54 C 1288.28 1640.03 1290.61 1606.16 1291.52 1591.18 z"/>
<path transform="translate(0,0)" fill="rgb(168,205,158)" d="M 1291.52 1591.18 C 1348.17 1589.6 1399.94 1579.2 1454.11 1563.76 C 1453.15 1580.71 1451.49 1599.33 1450.16 1616.34 L 1448.55 1616.63 C 1429.2 1620.19 1408.48 1627.64 1389.01 1631.55 C 1356.62 1638.04 1323.03 1641.27 1290.09 1642.89 C 1289.84 1646.53 1289.69 1651.02 1289.08 1654.54 C 1288.28 1640.03 1290.61 1606.16 1291.52 1591.18 z"/>
<path transform="translate(0,0)" fill="rgb(168,205,158)" d="M 1442.22 1848.25 C 1442.14 1858.44 1443.21 1871.88 1434.5 1879.84 C 1421.97 1891.28 1404.35 1892.68 1389.46 1897.71 C 1364.47 1906.14 1238.42 1915.54 1249.33 1871.82 L 1250.3 1876.05 C 1255.89 1883.7 1277.05 1881.46 1286.32 1882.03 C 1330.55 1884.77 1373.12 1876.92 1414.49 1861.56 C 1423.78 1858.11 1432.66 1851.19 1442.22 1848.25 z"/>
<path transform="translate(0,0)" fill="rgb(213,233,201)" d="M 1035.32 1551.59 C 1087.57 1569.13 1130.26 1580.68 1185.84 1587.7 C 1184.42 1603.69 1183.89 1618.78 1183.38 1634.81 C 1183.16 1641.76 1183.19 1655.08 1182.15 1661.52 C 1180.71 1717.9 1180.01 1774.29 1180.04 1830.69 C 1180.16 1840.84 1181.98 1861.68 1173.3 1868.35 C 1143.63 1891.1 1093.6 1893.64 1057.34 1893.97 C 1040.13 1894.13 983.337 1888.36 990.159 1861.14 C 1000.26 1838.26 1018.25 1834.39 1037.12 1823.43 L 1038.28 1822.75 C 1038.35 1813.42 1037.74 1803.13 1037 1793.82 C 1032.04 1730.88 1030.8 1670.2 1032.07 1607.12 C 1032.93 1590.03 1033.48 1568.42 1035.32 1551.59 z"/>
<path transform="translate(0,0)" fill="rgb(168,205,158)" d="M 1035.32 1551.59 C 1087.57 1569.13 1130.26 1580.68 1185.84 1587.7 C 1184.42 1603.69 1183.89 1618.78 1183.38 1634.81 C 1183.16 1641.76 1183.19 1655.08 1182.15 1661.52 C 1181.5 1654.41 1182.04 1646.08 1182.31 1638.84 C 1143.54 1635.85 1108.54 1627.89 1070.8 1618.76 C 1058.7 1615.83 1043.51 1609.34 1032.07 1607.12 C 1032.93 1590.03 1033.48 1568.42 1035.32 1551.59 z"/>
<path transform="translate(0,0)" fill="rgb(168,205,158)" d="M 990.159 1861.14 C 994.529 1869.66 1010.96 1867.61 1019.41 1867.96 C 1062.78 1869.75 1105.38 1860.11 1146.18 1846.15 C 1157.25 1842.37 1169.49 1833.17 1180.04 1830.69 C 1180.16 1840.84 1181.98 1861.68 1173.3 1868.35 C 1143.63 1891.1 1093.6 1893.64 1057.34 1893.97 C 1040.13 1894.13 983.337 1888.36 990.159 1861.14 z"/>
<path transform="translate(0,0)" fill="rgb(213,233,201)" d="M 1125.65 379.79 C 1116.2 363.55 1113.22 342.846 1113.32 324.513 C 1113.76 244.471 1176.2 184.267 1246.73 156.901 C 1290.33 139.986 1329.04 136.772 1374.73 137.296 C 1374.35 154.865 1372.98 170.929 1371.08 188.377 C 1364.09 292.126 1302.99 416.025 1181.71 408.394 C 1166.39 407.43 1149.6 403.041 1136.12 395.611 C 1138.91 388.43 1140.54 384.677 1144.17 377.916 C 1173.31 314.912 1220.66 262.313 1275.25 220.663 C 1281.26 216.08 1285 211.369 1278.07 204.841 C 1270.27 201.972 1261.12 209.95 1255.36 214.68 C 1211.63 250.586 1172.94 292.564 1144.13 341.432 C 1137 353.533 1131.49 366.996 1125.65 379.79 z"/>
<path transform="translate(0,0)" fill="rgb(168,205,158)" d="M 1144.17 377.916 C 1237.4 385.676 1314.65 319.95 1351.12 239.335 C 1358.86 222.238 1363.78 205.545 1371.08 188.377 C 1364.09 292.126 1302.99 416.025 1181.71 408.394 C 1166.39 407.43 1149.6 403.041 1136.12 395.611 C 1138.91 388.43 1140.54 384.677 1144.17 377.916 z"/>
<path transform="translate(0,0)" fill="rgb(213,233,201)" d="M 763.408 222.08 C 830.914 203.693 907.168 206.052 969.057 241.385 C 1028.05 275.063 1061.75 333.55 1054.73 402.098 C 1010.26 346.469 959.426 303.403 894.873 271.618 C 888.118 268.292 869.576 257.236 866.406 269.922 C 864.337 278.201 881.763 284.608 887.8 287.56 C 941.411 313.774 996.621 354.047 1032.82 401.832 C 1035.45 403.773 1043.79 416.842 1045.72 419.853 C 1014.27 449.076 962.605 455.113 922.685 443.498 C 876.062 429.933 835.267 390.478 812.351 348.705 C 789.124 309.695 771.346 266.984 763.408 222.08 z"/>
<path transform="translate(0,0)" fill="rgb(168,205,158)" d="M 812.351 348.705 C 820.071 351.163 827.559 362.164 833.744 367.615 C 877.627 406.293 938.435 427.151 996.441 413.348 C 1003.54 411.66 1027.77 406.638 1032.82 401.832 C 1035.45 403.773 1043.79 416.842 1045.72 419.853 C 1014.27 449.076 962.605 455.113 922.685 443.498 C 876.062 429.933 835.267 390.478 812.351 348.705 z"/>
<path transform="translate(0,0)" fill="rgb(213,233,201)" d="M 552.033 1306.17 C 539.656 1250.37 621.367 1207.93 664.661 1192.48 C 668.51 1206.53 674.906 1222.68 679.876 1236.69 C 682.675 1242.72 685.347 1248.81 687.889 1254.95 C 682.067 1255.16 676.246 1255.42 670.428 1255.72 L 662.424 1247.41 C 655.72 1241.83 640.874 1230.47 632.668 1238.31 C 632.587 1248.12 650.724 1257.2 656.738 1270.42 C 659.622 1284.09 660.271 1292.41 652.418 1305.01 C 631.979 1337.79 569.759 1345.49 552.033 1306.17 z"/>
<path transform="translate(0,0)" fill="rgb(168,205,158)" d="M 656.738 1270.42 C 659.622 1284.09 660.271 1292.41 652.418 1305.01 C 631.979 1337.79 569.759 1345.49 552.033 1306.17 C 581.585 1310.86 612.555 1303.43 637.665 1287.33 C 645.693 1282.18 649.391 1275.64 656.738 1270.42 z"/>
<path transform="translate(0,0)" fill="rgb(189,216,176)" d="M 679.876 1236.69 C 682.675 1242.72 685.347 1248.81 687.889 1254.95 C 682.067 1255.16 676.246 1255.42 670.428 1255.72 L 662.424 1247.41 C 668.422 1248.01 668.487 1246.16 674.038 1244.61 C 675.074 1244.32 676.649 1246.27 680.347 1245.16 C 679.944 1242.47 679.677 1241.16 679.789 1238.44 L 679.876 1236.69 z"/>
<path transform="translate(0,0)" fill="rgb(127,218,196)" d="M 368.568 1545.06 C 368.968 1533.68 370.24 1517.93 375.312 1507.58 C 377.432 1506.59 377.377 1506.66 379.725 1506.4 C 384.809 1490.34 378.187 1494.68 393.034 1483.18 C 408.207 1511.98 405.81 1557.39 397.886 1588.18 C 396.2 1594.74 391.463 1608.02 382.953 1605.52 C 372.675 1596.25 367.864 1566.91 368.292 1553.3 C 368.29 1550.59 368.458 1547.77 368.568 1545.06 z"/>
<path transform="translate(0,0)" fill="rgb(13,11,14)" d="M 371.602 1544.37 C 374.519 1542.7 375.197 1542 378.569 1542.2 C 381.674 1544.4 380.452 1542.98 381.903 1546.95 C 381.205 1551.61 382.092 1549.62 379.318 1553.24 C 375.625 1554.45 375.205 1554.25 371.5 1552.17 L 371.602 1544.37 z"/>
<path transform="translate(0,0)" fill="rgb(13,11,14)" d="M 382.596 1574.62 L 385.989 1575.25 C 388.492 1577.69 387.617 1576.23 388.356 1579.96 C 387.303 1584.22 387.158 1584.32 384.031 1587.56 C 380.326 1586.22 379.809 1585.74 378.388 1582.38 C 378.797 1578.48 380.045 1577.62 382.596 1574.62 z"/>
<path transform="translate(0,0)" fill="rgb(13,11,14)" d="M 388.319 1513.45 C 392.827 1513.69 393.672 1513.48 396.384 1516.82 C 396.561 1519.9 395.643 1520.75 393.996 1523.38 C 391.754 1524.7 392.3 1524.41 389.848 1525.22 L 388.099 1523.8 C 387.173 1520.09 387.854 1517.26 388.319 1513.45 z"/>
<path transform="translate(0,0)" fill="rgb(13,11,14)" d="M 390.383 1548.24 C 397.637 1550.13 397.156 1553.06 396.789 1559.69 C 392.288 1558.97 394.053 1559.92 390.922 1557.45 C 389.41 1554.24 390.052 1551.83 390.383 1548.24 z"/>
<path transform="translate(0,0)" fill="rgb(127,218,196)" d="M 682.08 1268.46 C 716.519 1268.83 743.721 1279.76 765.811 1306.92 C 771.034 1313.34 791.37 1340.76 790.689 1348.17 L 787.843 1348.4 C 782.13 1347.54 776.039 1347.01 770.27 1346.39 C 749.055 1306.12 722.154 1286.81 676.364 1286.83 C 676.371 1280.03 674.677 1276.48 675.543 1270.48 C 677.654 1268.04 677.613 1268.85 682.08 1268.46 z"/>
<path transform="translate(0,0)" fill="rgb(127,218,196)" d="M 568.676 1344.21 C 574.686 1346.65 579.745 1347.81 586.015 1349.4 C 569.585 1382.48 574.097 1404.67 584.971 1437.85 C 582.084 1441.19 579.194 1445.15 576.492 1448.69 C 574.934 1451.3 574.506 1453.19 572.29 1454.09 C 565.92 1449.26 560.393 1422.25 558.8 1414.15 C 554.887 1394.28 556.655 1361.35 568.676 1344.21 z"/>
<path transform="translate(0,0)" fill="rgb(127,218,196)" d="M 867.123 1358.38 C 887.969 1357.57 901.874 1366.47 915.495 1381.3 C 910.395 1384.1 903.876 1388.44 898.814 1391.6 C 888.657 1383.92 883.606 1381.11 871.2 1378.71 C 852.654 1378.79 846.138 1382.42 831.78 1393.43 C 828.516 1388.06 825.317 1382.34 822.162 1376.88 C 837.712 1365.21 847.816 1360.13 867.123 1358.38 z"/>
<path transform="translate(0,0)" fill="rgb(127,218,196)" d="M 416.036 1503.82 C 421.932 1508.3 435.058 1527.17 439.39 1533.5 C 440.332 1547.47 438.221 1562.22 436.558 1576.15 C 432.48 1580.23 427.135 1584.32 422.604 1588.01 L 408.953 1598.34 C 418.942 1566.95 417.798 1536.28 416.036 1503.82 z"/>
<path transform="translate(0,0)" fill="rgb(168,205,158)" d="M 858.964 1394.21 C 860.562 1394.06 862.165 1393.99 863.77 1394 C 870.089 1394.02 880.306 1396.22 884.911 1400.84 C 885.394 1402.68 886.146 1404.13 884.698 1405.7 C 873.876 1417.41 871.2 1424.2 866.472 1439.47 L 865.579 1439.65 C 856.279 1433.47 845.584 1415.42 840.754 1405.34 C 846.344 1400.9 852.46 1397.16 858.964 1394.21 z"/>
<path transform="translate(0,0)" fill="rgb(168,205,158)" d="M 674.114 1302.87 C 691.339 1302.61 701.02 1302.46 715.773 1312.19 C 704.502 1316.48 693.913 1321.54 682.29 1324.9 C 671.351 1328.25 660.642 1330.68 649.526 1333.32 C 661.304 1322.17 666.245 1316.76 674.114 1302.87 z"/>
<path transform="translate(0,0)" fill="rgb(89,198,171)" d="M 905.67 1508.57 C 914.416 1508.99 921.823 1512.06 930.07 1514.91 C 927.916 1518.59 926.152 1520.8 923.54 1524.21 L 916.003 1531.45 C 912.15 1523.95 908.065 1516.65 905.67 1508.57 z"/>
<path transform="translate(0,0)" fill="rgb(43,20,38)" d="M 260.801 1687.47 C 283.59 1686.92 308.023 1695.48 322.41 1713.74 C 326.039 1718.35 328.863 1722.98 332.714 1727.67 C 361.041 1694.42 383.736 1683.31 427.826 1688.68 C 434.092 1689.45 442.577 1691.21 446.591 1696.34 C 448.84 1704.82 442.052 1721.27 438.436 1729.56 C 422.95 1765.05 388.817 1786.01 350.212 1774.78 C 354.022 1792.43 354.06 1801.63 353.952 1819.5 C 380.962 1813.66 407.91 1816.67 425.012 1841.13 C 439.792 1841.13 454.453 1844 467.379 1854.08 C 478.883 1863.06 505.109 1895.75 492.267 1911.22 C 488.363 1915.92 466.665 1914.98 459.25 1914.99 C 438.676 1914.48 417.257 1915.06 396.547 1915.08 L 275.112 1915.2 C 257.582 1915.24 201.281 1917.48 188.74 1912.18 C 173.225 1894.39 205.896 1860.05 221.256 1851.45 C 234.863 1843.84 243.601 1843.77 258.456 1843.7 C 273.401 1817.42 292.773 1814.05 320.291 1817.62 C 321.418 1806.08 321.494 1787.36 320.999 1775.85 C 269.34 1788.79 238.693 1754.06 225.097 1708.03 C 218.82 1686.78 246.556 1688.6 260.801 1687.47 z"/>
<path transform="translate(0,0)" fill="url(#Gradient1)" d="M 354.038 1834.54 C 369.359 1828.87 381.712 1828.8 396.828 1835.84 C 402.422 1838.46 407.604 1841.88 412.21 1846 C 416.432 1851.51 416.887 1854.93 421.784 1856.49 C 428.176 1855.83 434.827 1855.06 441.074 1856.85 C 461.65 1862.75 476.946 1882.18 483.747 1901.47 L 280.095 1901.22 C 254.33 1901.07 222.935 1902.57 198.134 1901.04 C 205.433 1882.57 215.814 1870.54 233.346 1860.71 C 238.12 1859.55 248.139 1856.65 253.052 1857.3 C 252.086 1857.17 258.723 1860.34 258.881 1860.41 C 260.718 1859.28 260.82 1859.21 262.843 1858.29 L 265.849 1859.71 C 266.792 1855.58 268.626 1855.82 268.234 1850.74 L 267.656 1849.26 C 271.178 1844.69 283.099 1835.9 287.633 1834.5 C 298.376 1831.18 318.717 1826.76 320.281 1842.92 C 320.621 1846.44 325.934 1852.04 328.301 1854.89 C 324.282 1857.67 321.295 1859.14 318.965 1863.37 L 319.129 1865.46 C 323.606 1867.81 335.498 1865.35 343.568 1866.91 L 344.836 1867.15 C 345.089 1867.2 345.341 1867.26 345.594 1867.31 C 349.179 1870.68 351.112 1873.55 356.307 1871.96 C 358.293 1868.05 356.948 1866.54 354.797 1862.96 C 350.096 1858.46 347.055 1857.38 341.267 1854.89 L 347.388 1844.97 L 354.038 1834.54 z"/>
<path transform="translate(0,0)" fill="rgb(43,20,38)" d="M 412.21 1846 C 416.432 1851.51 416.887 1854.93 421.784 1856.49 C 420.788 1856.75 417.296 1857.62 416.56 1857.95 C 415.281 1861.16 415.482 1861.01 412.617 1862.9 C 403.437 1864.85 391.181 1855.19 397.046 1847.34 C 401.368 1845.37 406.541 1846.42 410.843 1847.91 L 412.21 1846 z"/>
<path transform="translate(0,0)" fill="rgb(134,90,81)" d="M 412.21 1846 C 416.432 1851.51 416.887 1854.93 421.784 1856.49 C 420.788 1856.75 417.296 1857.62 416.56 1857.95 C 414.748 1855.69 412.265 1850.62 410.843 1847.91 L 412.21 1846 z"/>
<path transform="translate(0,0)" fill="rgb(134,90,81)" d="M 233.346 1860.71 C 238.12 1859.55 248.139 1856.65 253.052 1857.3 C 252.086 1857.17 258.723 1860.34 258.881 1860.41 C 260.718 1859.28 260.82 1859.21 262.843 1858.29 L 265.849 1859.71 L 266.563 1860.81 C 256.145 1861.39 263.877 1866.98 256.887 1872.06 C 252.725 1872.3 254.484 1872.81 251.218 1871.22 C 250.483 1867.85 250.923 1868.5 252.331 1864.65 C 248.824 1863.22 237.511 1861.4 233.346 1860.71 z"/>
<path transform="translate(0,0)" fill="rgb(13,11,14)" d="M 268.234 1850.74 C 274.073 1847.32 277.586 1846.56 282.313 1851.94 C 284.729 1862.65 274.008 1863.81 266.563 1860.81 L 265.849 1859.71 C 266.792 1855.58 268.626 1855.82 268.234 1850.74 z"/>
<path transform="translate(0,0)" fill="rgb(134,90,81)" d="M 341.267 1854.89 L 347.388 1844.97 C 348.023 1852.18 352.813 1853.8 354.797 1862.96 C 350.096 1858.46 347.055 1857.38 341.267 1854.89 z"/>
<path transform="translate(0,0)" fill="rgb(213,233,201)" d="M 245.712 1724.88 C 243.309 1719.72 237.106 1708.63 238.787 1703.88 C 246.545 1698.81 268.345 1699.45 277.511 1701.43 C 304.737 1707.31 320.003 1725.68 330.331 1750.34 C 321.822 1743.61 295.867 1720.22 285.235 1727.11 C 283.433 1730.16 283.804 1728.52 284.373 1732.25 C 288.64 1738.55 306.594 1747.24 315.695 1754.88 C 317.363 1756.15 321.117 1759.88 322.817 1761.48 C 287.424 1773.97 260.348 1757.06 245.712 1724.88 z"/>
<path transform="translate(0,0)" fill="rgb(168,205,158)" d="M 245.712 1724.88 C 249.712 1726.3 252.88 1729.26 255.619 1732.25 C 268.44 1746.22 279.568 1757.71 300.064 1757.89 C 305.674 1757.94 312.129 1760.14 315.695 1754.88 C 317.363 1756.15 321.117 1759.88 322.817 1761.48 C 287.424 1773.97 260.348 1757.06 245.712 1724.88 z"/>
<path transform="translate(0,0)" fill="rgb(213,233,201)" d="M 344.259 1748.56 C 348.756 1730.24 360.438 1715.14 377.529 1706.84 C 395.277 1698.26 415.661 1696.89 434.393 1703.04 C 433.254 1706.32 431.993 1709.51 430.74 1712.75 C 419.102 1745.4 396.047 1772.05 357.171 1763.03 C 355.426 1762.62 354.443 1761.76 353.383 1760.35 C 353.914 1757.54 354.946 1756.51 357.796 1754.48 C 360.799 1751.88 363.808 1749.92 367.067 1747.69 C 372.828 1743.27 393.063 1735.14 388.549 1727.17 C 377.23 1720.23 353.289 1741.69 344.259 1748.56 z"/>
<path transform="translate(0,0)" fill="rgb(168,205,158)" d="M 405.14 1734.88 C 413.031 1724.35 418.983 1719.02 430.74 1712.75 C 419.102 1745.4 396.047 1772.05 357.171 1763.03 C 355.426 1762.62 354.443 1761.76 353.383 1760.35 C 353.914 1757.54 354.946 1756.51 357.796 1754.48 C 360.799 1751.88 363.808 1749.92 367.067 1747.69 C 376.795 1756.54 396.401 1741.37 403.971 1735.74 L 405.14 1734.88 z"/>
<path transform="translate(0,0)" fill="rgb(189,216,176)" d="M 367.067 1747.69 C 376.795 1756.54 396.401 1741.37 403.971 1735.74 L 405.14 1734.88 C 403.641 1747.09 368.788 1761.05 357.796 1754.48 C 360.799 1751.88 363.808 1749.92 367.067 1747.69 z"/>
<path transform="translate(0,0)" fill="rgb(168,205,158)" d="M 335.925 1775.42 C 337.524 1776.68 337.886 1777.02 338.645 1779.01 C 345.943 1798.2 343.652 1822.2 335.772 1840.74 L 334.317 1841.42 C 327.963 1834.24 334.158 1787.11 335.925 1775.42 z"/>
<path transform="translate(0,0)" fill="rgb(99,198,213)" d="M 336.485 1597.71 C 339.85 1600.1 337.833 1608.01 339.694 1614.43 C 342.779 1626.31 347.442 1638.43 346.638 1650.91 C 345.48 1668.87 335.484 1672.71 319.771 1671.54 C 299.377 1665.51 306.372 1638.54 313.992 1624.91 C 319.198 1615.6 328.699 1604.99 336.485 1597.71 z"/>
<path transform="translate(0,0)" fill="rgb(255,255,255)" d="M 321.727 1635.37 C 326.135 1635.42 331.012 1640.64 331.37 1645.04 C 332.001 1652.8 329.094 1656.43 324.432 1662.2 C 307.805 1664.29 316.055 1642.9 321.727 1635.37 z"/>
<path transform="translate(0,0)" fill="rgb(99,198,213)" d="M 290.819 1535.99 C 296.184 1528.59 316.537 1509.06 325.813 1510.78 C 327.988 1514.69 325.302 1516.62 324.521 1520.25 C 319.58 1543.17 327.839 1550.31 314.851 1572.94 C 307.709 1576.84 303.741 1578.48 295.722 1575.65 C 286.143 1571.34 285.161 1567.02 282.583 1557.56 C 284.564 1547.62 285.005 1544.65 290.819 1535.99 z"/>
<path transform="translate(0,0)" fill="rgb(255,255,255)" d="M 290.819 1535.99 C 295.612 1537.48 297.168 1539.05 301.908 1538.81 C 307.68 1545.9 308.36 1549.34 307.292 1558.44 C 306.438 1563.56 307.344 1562.44 304.42 1565.98 L 303.096 1566.44 C 299.099 1567.88 297.817 1567.9 295.606 1571.16 C 296.259 1573.23 296.347 1573.57 295.722 1575.65 C 286.143 1571.34 285.161 1567.02 282.583 1557.56 C 284.564 1547.62 285.005 1544.65 290.819 1535.99 z"/>
<path transform="translate(0,0)" fill="rgb(139,218,227)" d="M 290.819 1535.99 C 295.612 1537.48 297.168 1539.05 301.908 1538.81 C 278.416 1546.36 291.066 1581.54 307.292 1558.44 C 306.438 1563.56 307.344 1562.44 304.42 1565.98 L 303.096 1566.44 C 299.099 1567.88 297.817 1567.9 295.606 1571.16 C 296.259 1573.23 296.347 1573.57 295.722 1575.65 C 286.143 1571.34 285.161 1567.02 282.583 1557.56 C 284.564 1547.62 285.005 1544.65 290.819 1535.99 z"/>
<path transform="translate(0,0)" fill="rgb(13,11,14)" fill-opacity="0.0117647" d="M 375.433 1470.39 L 377.059 1471.01 C 376.38 1473.95 374.316 1475.58 372.133 1478.13 L 370.919 1478.51 C 372.445 1474.15 372.561 1473.97 375.433 1470.39 z"/>
<path transform="translate(0,0)" fill="rgb(13,11,14)" fill-opacity="0.0156863" d="M 1341.54 342.618 C 1342.51 345.997 1341.22 346.388 1338.95 350.708 C 1338.28 347.463 1339.91 345.497 1341.54 342.618 z"/>
</svg>