<svg version="1.1" xmlns="http://www.w3.org/2000/svg" viewBox="0 0 2048 2048" width="768" height="768">
<path transform="translate(0,0)" fill="rgb(40,17,37)" d="M 1238.77 98.4475 C 1260.89 97.0895 1290.43 98.4228 1311.97 103.786 C 1322.36 106.373 1318.88 123.516 1317.95 131.579 C 1305.32 241.105 1259.53 368.867 1143.99 405.444 C 1097.37 420.201 1056.34 414.303 1014 391.724 C 1007.15 412.035 1002.81 424.313 998.696 445.291 C 1027.82 445.534 1055.67 444.692 1085.09 446.573 C 1271.65 458.493 1453.25 543.66 1567.8 693.87 C 1608.66 747.453 1641.23 806.787 1659.15 871.314 C 1667.27 854.791 1676.83 838.432 1683.4 821.158 C 1702.62 770.563 1716.9 708.718 1774.21 688.256 C 1819.36 672.135 1862.91 700.537 1876.23 744.927 C 1902.14 831.292 1848.93 919.904 1803.85 990.084 C 1777.26 1031.45 1748.41 1071.32 1717.43 1109.52 C 1700.33 1130.38 1677.54 1153.72 1659.9 1174.23 C 1656.93 1177.69 1650.17 1204.25 1647.54 1211.35 C 1639.42 1233.37 1629.96 1254.87 1619.22 1275.73 C 1545.05 1422.97 1415.41 1534.68 1258.83 1586.29 C 1261.67 1605.04 1261.99 1635.45 1262.49 1655.17 C 1264.15 1730.85 1261.39 1806.56 1254.2 1881.91 C 1266.16 1888.51 1274.93 1893.82 1285.29 1902.39 C 1303.46 1917.41 1315.98 1946.91 1295.99 1965.86 C 1275.55 1985.25 1234.57 1990.4 1207.17 1990.32 C 1166.11 1990.2 1108.8 1985.7 1076.38 1957.63 C 1070.08 1951.67 1065.45 1943.53 1064.52 1934.81 C 1061.34 1905.13 1065.4 1873.35 1066.49 1843.27 C 1069.13 1770.43 1070.61 1698.72 1069.87 1625.78 C 1047.77 1628.13 1032.01 1628.13 1010.01 1628.22 C 1010.03 1700.41 1007.28 1772.58 1001.77 1844.57 C 999.666 1873.82 997.551 1905.46 992.493 1934.2 C 987.841 1960.63 958.55 1971.35 934.742 1976.46 C 892.457 1985.53 843.924 1986 801.577 1975.57 C 758.736 1962.16 739.221 1931.47 775.823 1895.39 C 785.56 1885.79 795.047 1880.1 806.92 1873.46 C 808.619 1834.25 812.407 1791.91 814.598 1752.13 C 816.901 1701.74 818.344 1651.31 818.927 1600.86 C 764.324 1586.06 712.053 1563.72 663.627 1534.47 C 528.594 1453.63 425.794 1325.54 387.275 1171.89 C 344.779 1131.7 292.281 1064.65 259.976 1015.29 C 212.409 942.615 149.726 848.79 167.706 758.218 C 172.488 734.13 185.729 709.969 206.731 696.534 C 224.324 685.425 245.589 681.703 265.909 686.175 C 324.11 699.064 344.432 766.471 361.216 814.459 C 367.734 833.096 378.958 855.059 389.439 871.575 C 408.88 813.908 426.811 774.926 461.525 724.364 C 547.272 599.474 685.797 509.223 831.747 470.968 C 858.146 463.856 884.906 458.159 911.912 453.901 C 924.55 451.984 940.83 451.107 952.147 449.012 L 953.217 448.803 C 948.98 438.804 932.821 401.13 930.354 392.873 L 929.44 393.482 C 890.454 419.373 849.354 425.932 803.867 415.985 C 693.046 391.749 634.599 267.707 617.395 165.345 C 616.564 157.771 607.532 127.671 618.179 125.109 C 735.971 96.7706 882.657 132.932 934.995 252.752 C 951.273 290.019 956.963 341.235 942.157 379.998 C 953.324 401.473 962.55 423.902 969.727 447.018 C 973.714 446.853 977.577 446.465 981.543 446.099 C 983.921 425.26 993.47 398.727 1003.03 380.025 C 989.221 363.08 985.245 339.398 984.076 318.135 C 981.487 271.023 1001.26 221.924 1033.17 187.397 C 1088.26 127.796 1159.51 101.895 1238.77 98.4475 z"/>
<path transform="translate(0,0)" fill="rgb(212,234,199)" d="M 436.321 803.73 C 596.952 480.888 1030.23 379.929 1342.36 533.05 C 1474.71 597.978 1589.09 715.95 1636.33 857.258 C 1680.45 992.087 1668.86 1138.96 1604.12 1265.19 C 1583.29 1306.94 1557.56 1346.06 1527.49 1381.73 C 1514.93 1398.65 1495.14 1418.77 1479.86 1433.42 C 1408.97 1501.43 1322.31 1546.94 1229.05 1576.27 C 1055.26 1630.92 862.208 1620.91 699.906 1534.35 C 560.791 1461.9 456.341 1336.94 409.733 1187.17 C 379.937 1088.38 375.524 985.115 404.75 885.976 C 412.883 858.384 422.704 829.139 436.321 803.73 z"/>
<path transform="translate(0,0)" fill="rgb(167,204,158)" d="M 436.321 803.73 C 436.572 804.328 436.839 804.919 437.073 805.524 C 440.263 813.745 430.619 853.66 429.125 865.595 C 426.804 884.138 425.795 902.447 425.358 921.12 C 419.924 1153.18 533.099 1348.61 742.76 1451.74 C 857.166 1508.01 978.827 1536.47 1106.43 1533.23 C 1138.4 1532.41 1170.77 1530.29 1202.34 1524.98 C 1243.6 1518.05 1285.11 1506.23 1324.67 1492.75 C 1364.51 1479.17 1402.95 1460.37 1439.16 1439 C 1457.66 1428.08 1475.63 1415.98 1493.12 1403.52 C 1502.24 1397.03 1511.2 1389.02 1520.91 1383.51 C 1522.95 1382.35 1524.63 1382.08 1526.92 1381.82 C 1527.11 1381.8 1527.3 1381.76 1527.49 1381.73 C 1514.93 1398.65 1495.14 1418.77 1479.86 1433.42 C 1408.97 1501.43 1322.31 1546.94 1229.05 1576.27 C 1055.26 1630.92 862.208 1620.91 699.906 1534.35 C 560.791 1461.9 456.341 1336.94 409.733 1187.17 C 379.937 1088.38 375.524 985.115 404.75 885.976 C 412.883 858.384 422.704 829.139 436.321 803.73 z"/>
<path transform="translate(0,0)" fill="rgb(40,17,37)" d="M 1263.31 785.399 C 1287.43 783.951 1313.22 792.745 1332.5 807.046 C 1418.93 871.141 1410.8 1027.92 1290.68 1045.94 C 1280 1046.39 1268.17 1046.5 1257.75 1043.95 C 1162.8 1020.71 1132.32 895.451 1192.11 822.97 C 1209.8 801.356 1235.48 787.807 1263.31 785.399 z"/>
<path transform="translate(0,0)" fill="rgb(255,255,255)" d="M 1307.28 826.173 C 1346.91 824.485 1361.8 886.69 1320.61 897.967 C 1281 899.637 1265.66 837.184 1307.28 826.173 z"/>
<path transform="translate(0,0)" fill="rgb(255,255,255)" d="M 1328.11 916.973 C 1336.37 915.604 1344.23 921.006 1345.92 929.208 C 1347.61 937.409 1342.52 945.479 1334.39 947.484 C 1328.84 948.852 1322.99 947.076 1319.14 942.855 C 1315.29 938.634 1314.06 932.646 1315.93 927.247 C 1317.8 921.849 1322.47 917.907 1328.11 916.973 z"/>
<path transform="translate(0,0)" fill="rgb(40,17,37)" d="M 785.725 824.296 C 798.993 823.48 811.282 823.312 824.164 826.966 C 941.677 860.306 948.034 1061.77 819.526 1081.91 C 667.102 1091.78 639.837 848.117 785.725 824.296 z"/>
<path transform="translate(0,0)" fill="rgb(255,255,255)" d="M 835.415 860.067 C 873.299 859.307 885.554 917.541 847.67 930.114 C 807.408 929.743 797.041 873.326 835.415 860.067 z"/>
<path transform="translate(0,0)" fill="rgb(255,255,255)" d="M 851.658 950.988 C 859.949 948.692 868.539 953.52 870.887 961.797 C 873.236 970.073 868.462 978.693 860.201 981.094 C 851.865 983.517 843.15 978.691 840.78 970.34 C 838.411 961.989 843.292 953.305 851.658 950.988 z"/>
<path transform="translate(0,0)" fill="rgb(40,17,37)" d="M 1113.55 1041.43 C 1140.05 1039.89 1155.92 1041.58 1156.03 1073.06 C 1156.21 1124.6 1138.28 1185.36 1086.32 1206.53 C 1057.59 1218.23 1030.43 1213.77 1003.97 1199.1 C 995.708 1193.92 988.239 1187.58 981.786 1180.27 C 957.692 1153.28 941.895 1106.01 944.078 1070.4 C 947.726 1063.67 952.161 1058.04 959.809 1056.08 C 977.505 1051.55 997.114 1050.29 1015.24 1048.7 C 1047.99 1045.93 1080.76 1043.51 1113.55 1041.43 z"/>
<path transform="translate(0,0)" fill="rgb(234,159,162)" d="M 1054.18 1111.41 C 1078.69 1108.91 1107.52 1116.54 1127.45 1131.29 C 1114.37 1165.83 1096.44 1188.04 1058.3 1193.07 C 1020.57 1194.1 1000.74 1177.06 982.74 1145.57 C 1003.22 1123.63 1024.55 1114.34 1054.18 1111.41 z"/>
<path transform="translate(0,0)" fill="rgb(255,255,255)" d="M 1201.65 522.261 C 1241.78 517.585 1300.33 540.048 1335.06 562.844 C 1353.48 574.938 1414.4 622.506 1394.77 653.771 C 1389.55 662.089 1376.84 664.552 1367.24 665.836 C 1320.23 667.577 1273.6 647.601 1232.97 622.64 C 1214.96 611.579 1155.03 566.273 1173.27 535.427 C 1178.19 527.108 1192.07 523.698 1201.65 522.261 z"/>
<path transform="translate(0,0)" fill="rgb(234,159,162)" d="M 1438.57 1004.44 C 1457.75 1003.3 1483.35 1008.62 1499.43 1019.79 C 1515.14 1030.7 1519.63 1050.02 1506.79 1065.34 C 1488.97 1086.6 1459.32 1093.97 1432.86 1096.98 C 1408.93 1097.47 1385.1 1094.47 1365.79 1079.11 C 1350.33 1066.83 1349.35 1048.07 1362.63 1033.75 C 1381.93 1012.96 1411.27 1005.93 1438.57 1004.44 z"/>
<path transform="translate(0,0)" fill="rgb(234,159,162)" d="M 687.575 1075.41 C 712.919 1072.03 769.425 1081.03 771.877 1113.08 C 774.572 1148.31 721.477 1160.89 696.249 1163.96 C 670.549 1164.71 642.675 1164.66 621.223 1148.31 C 606.287 1136.92 604.069 1118.54 616.815 1104.49 C 634.733 1084.73 661.899 1077.53 687.575 1075.41 z"/>
<path transform="translate(0,0)" fill="rgb(212,234,199)" d="M 1087.6 1624.85 C 1149.72 1617.56 1182.11 1610.3 1241.8 1592.8 C 1242.19 1617.87 1245.31 1644.41 1244.78 1669.57 C 1245.12 1703.07 1244.61 1736.58 1243.23 1770.05 C 1242.65 1784.79 1235.11 1888.09 1236.83 1894.08 C 1243.83 1900.28 1255.56 1902.76 1262.78 1907.93 C 1275.92 1917.35 1292.77 1933.57 1284.51 1950.91 C 1254.25 1983.45 1136.33 1973.73 1097.9 1950.97 C 1086.65 1944.31 1082.99 1936.47 1081.97 1924.07 C 1081.83 1894.1 1084.07 1859.07 1085.19 1828.64 C 1086.82 1783.96 1087.82 1739.26 1088.17 1694.55 C 1087.24 1674.1 1088.19 1646.9 1087.6 1624.85 z"/>
<path transform="translate(0,0)" fill="rgb(167,204,158)" d="M 1087.6 1624.85 C 1149.72 1617.56 1182.11 1610.3 1241.8 1592.8 C 1242.19 1617.87 1245.31 1644.41 1244.78 1669.57 C 1243.75 1664.17 1243.71 1661.67 1243.55 1656.25 C 1201.92 1669.77 1161.43 1679.53 1117.59 1683.17 C 1111.69 1683.66 1094.4 1684.43 1089.83 1685.85 C 1088.8 1689.41 1088.63 1690.83 1088.17 1694.55 C 1087.24 1674.1 1088.19 1646.9 1087.6 1624.85 z"/>
<path transform="translate(0,0)" fill="rgb(167,204,158)" d="M 1081.97 1924.07 C 1087.75 1933.7 1122.88 1943.24 1134.83 1946.2 C 1170.44 1955.04 1208.26 1956.24 1244.78 1954.83 C 1252.01 1954.55 1281.1 1950.32 1284.51 1950.91 C 1254.25 1983.45 1136.33 1973.73 1097.9 1950.97 C 1086.65 1944.31 1082.99 1936.47 1081.97 1924.07 z"/>
<path transform="translate(0,0)" fill="rgb(212,234,199)" d="M 837.004 1607.21 C 887.794 1619.85 939.816 1626.88 992.138 1628.19 C 992.079 1648.56 991.847 1668.94 991.443 1689.31 C 989.37 1761.6 985.414 1853.77 974.697 1924.89 C 973.823 1932.31 972.502 1939.48 965.402 1943.89 C 929.927 1965.94 876.926 1967.01 836.189 1963.38 C 817.3 1961.7 775.447 1953.64 777.28 1928.81 C 785.043 1904.8 804.169 1896.74 824.121 1885.14 C 826.323 1870.39 827.542 1840.61 828.571 1824.97 C 831.938 1772.81 834.36 1720.59 835.835 1668.34 C 836.455 1647.97 836.845 1627.59 837.004 1607.21 z"/>
<path transform="translate(0,0)" fill="rgb(167,204,158)" d="M 837.004 1607.21 C 887.794 1619.85 939.816 1626.88 992.138 1628.19 C 992.079 1648.56 991.847 1668.94 991.443 1689.31 C 934.667 1687.29 891.536 1683.48 835.835 1668.34 C 836.455 1647.97 836.845 1627.59 837.004 1607.21 z"/>
<path transform="translate(0,0)" fill="rgb(167,204,158)" d="M 777.28 1928.81 C 783.407 1931.05 791.714 1936.15 797.494 1938.07 C 841.576 1952.77 899.726 1951.26 944.2 1938.83 C 956.397 1935.42 963.536 1929.79 973.745 1925.3 L 974.697 1924.89 C 973.823 1932.31 972.502 1939.48 965.402 1943.89 C 929.927 1965.94 876.926 1967.01 836.189 1963.38 C 817.3 1961.7 775.447 1953.64 777.28 1928.81 z"/>
<path transform="translate(0,0)" fill="rgb(212,234,199)" d="M 1010.27 360.883 C 980.483 291.333 1020.38 211.33 1077.87 169.851 C 1142.47 123.244 1223.21 108.031 1301.06 119.219 C 1298.92 140.805 1295.44 162.236 1290.62 183.386 C 1288.05 199.774 1282.81 216.554 1277.53 232.215 C 1260.2 283.593 1233.2 331.403 1188.52 363.843 C 1153.85 389.017 1111.12 401.206 1068.45 394.444 C 1051.69 391.789 1035.49 386.578 1021.96 376.081 C 1023.92 372.28 1026.86 366.127 1029.14 362.754 C 1062.77 301.819 1111.79 251.089 1168.35 211.111 C 1175.75 205.876 1186.84 200.102 1193 193.864 C 1195.58 184.378 1190.91 177.762 1181.4 181.638 C 1169.75 186.389 1157.08 196.684 1147.12 204.119 C 1091.71 245.489 1041.47 298.735 1010.27 360.883 z"/>
<path transform="translate(0,0)" fill="rgb(167,204,158)" d="M 1029.14 362.754 C 1043.57 368.309 1075.42 369.094 1090.73 368.474 C 1178.65 364.914 1239.1 315.108 1269.43 233.795 C 1274.12 221.209 1281.65 196.123 1289.17 184.767 C 1289.65 184.306 1290.14 183.846 1290.62 183.386 C 1288.05 199.774 1282.81 216.554 1277.53 232.215 C 1260.2 283.593 1233.2 331.403 1188.52 363.843 C 1153.85 389.017 1111.12 401.206 1068.45 394.444 C 1051.69 391.789 1035.49 386.578 1021.96 376.081 C 1023.92 372.28 1026.86 366.127 1029.14 362.754 z"/>
<path transform="translate(0,0)" fill="rgb(212,234,199)" d="M 631.077 140.638 C 724.017 117.951 850.671 148.332 904.411 231.756 C 929.433 270.599 939.439 315.709 930.578 361.057 C 887.65 297.633 835.642 245.312 769.661 205.73 C 761.877 201.061 740.171 185.347 737.665 202.466 C 737.318 204.626 737.973 205.906 738.82 207.789 C 742.874 211.634 779.529 233.71 788.561 239.996 C 835.761 272.591 876.51 313.653 908.742 361.102 C 912.564 366.49 916.611 373.31 920.177 378.999 C 906.03 389.395 890.194 396.019 873.059 399.834 C 832.836 408.563 790.793 400.971 756.164 378.725 C 694.664 339.111 655.772 258.567 640.666 188.736 C 636.276 171.705 633.69 158.144 631.077 140.638 z"/>
<path transform="translate(0,0)" fill="rgb(167,204,158)" d="M 640.666 188.736 C 648.884 197.053 658.154 227.58 664.151 240.235 C 679.381 272.371 697.023 304.731 721.914 330.569 C 748.625 356.76 794.518 376.25 831.659 378.128 C 853.966 379.255 876.184 376.52 896.587 367.201 C 900.003 365.64 905.93 363.466 908.742 361.102 C 912.564 366.49 916.611 373.31 920.177 378.999 C 906.03 389.395 890.194 396.019 873.059 399.834 C 832.836 408.563 790.793 400.971 756.164 378.725 C 694.664 339.111 655.772 258.567 640.666 188.736 z"/>
<path transform="translate(0,0)" fill="rgb(212,234,199)" d="M 322.406 1070.14 C 286.074 1025.07 248.93 967.047 221.036 916.444 C 194.866 867.264 172.168 808.002 188.571 752.226 C 198.379 718.873 229.976 692.699 265.952 705.264 C 313.613 721.91 327.907 777.023 343.715 819.398 C 349.662 835.338 357.579 850.716 365.327 865.999 C 370.98 876.128 376.464 886.231 382.729 895.998 C 361.985 979.136 361.411 1053.07 377.335 1137.45 C 369.964 1128.43 325.472 1076.79 322.406 1070.14 z"/>
<path transform="translate(0,0)" fill="rgb(167,204,158)" d="M 365.327 865.999 C 370.98 876.128 376.464 886.231 382.729 895.998 C 361.985 979.136 361.411 1053.07 377.335 1137.45 C 369.964 1128.43 325.472 1076.79 322.406 1070.14 C 324.827 1065.83 327.326 1017.64 328.379 1009.09 C 333.182 968.775 342.32 929.091 355.637 890.731 C 358.093 883.631 361.669 872.264 365.327 865.999 z"/>
<path transform="translate(0,0)" fill="rgb(212,234,199)" d="M 1681.65 867.389 C 1689.46 851.673 1698.77 833.946 1704.68 817.644 C 1719.97 775.126 1734.38 721.672 1781.92 704.933 C 1818.82 692.36 1850.1 719.585 1859.5 753.219 C 1877.95 819.153 1843.46 890.609 1809.52 946.136 C 1786.2 984.287 1755.81 1033.61 1726.44 1068.04 C 1724.91 1070.68 1715.88 1081.7 1713.64 1084.58 C 1699.67 1102.51 1684.45 1119.76 1669.54 1136.93 C 1686.01 1051.86 1686.09 978.687 1666.17 894.361 L 1681.65 867.389 z"/>
<path transform="translate(0,0)" fill="rgb(167,204,158)" d="M 1666.17 894.361 L 1681.65 867.389 C 1700.26 896.573 1718.82 991.899 1720.95 1028.07 C 1721.44 1036.38 1721.68 1064.75 1726.44 1068.04 C 1724.91 1070.68 1715.88 1081.7 1713.64 1084.58 C 1699.67 1102.51 1684.45 1119.76 1669.54 1136.93 C 1686.01 1051.86 1686.09 978.687 1666.17 894.361 z"/>
</svg>