<svg version="1.1" xmlns="http://www.w3.org/2000/svg" viewBox="0 0 2048 2048" width="768" height="768">
<path transform="translate(0,0)" fill="rgb(42,19,38)" d="M 1205.46 238.801 C 1215.56 238.492 1228.19 242.385 1238.15 244.71 C 1331.57 266.507 1426.31 348.738 1408.89 453.193 C 1404.31 480.64 1394.57 501.148 1375.51 521.502 C 1378.08 537.506 1377.78 551.35 1377.6 566.894 C 1377.27 595.692 1395.83 568.713 1401.87 560.62 C 1408.04 552.358 1415.38 544.035 1422.27 537.087 C 1417.46 489.101 1441.68 445.766 1479.88 417.741 C 1548.46 367.42 1642.82 375.587 1715.65 411.882 C 1721.87 414.981 1735.89 421.3 1733.38 430.431 C 1693.25 519.467 1607.41 619.158 1498.51 595.969 C 1474.69 590.896 1441.5 570.788 1428.61 550.071 C 1420.76 558.43 1405.94 575.88 1400.2 585.237 C 1446.2 604.06 1489.57 628.757 1529.22 658.715 C 1653.78 753.6 1729.89 891.765 1726.18 1049.85 C 1723.64 1158.2 1687.82 1243.37 1622.67 1328.66 C 1659.23 1382.8 1684.7 1443.5 1655.19 1507.27 C 1642.15 1535.45 1614.34 1546.34 1586.59 1531.55 C 1551.65 1512.94 1528.96 1473.78 1517.03 1437.3 C 1456.9 1479.73 1393.94 1507.89 1321.16 1520.66 C 1320.96 1590.32 1323.15 1659.96 1327.71 1729.47 C 1346.73 1741.51 1383.34 1769.76 1359.13 1795.8 C 1343.16 1812.97 1305.19 1817.78 1281.64 1817.26 C 1253.7 1816.65 1185.6 1814.02 1175.79 1778.32 C 1172.24 1761.16 1170.97 1731.92 1169.7 1713.48 C 1165.49 1652.26 1162.49 1590.57 1164.96 1529.24 C 1147.94 1527.4 1130.33 1526.03 1113.7 1522.05 C 1114.12 1550.2 1112.81 1578.66 1113.22 1607.5 L 1115.27 1675.48 C 1116.13 1697.94 1120.39 1759.71 1115.35 1775.45 C 1097.18 1820.04 989.865 1816.86 953.657 1805.21 C 897.927 1787.27 924.122 1744.59 964.081 1727.07 C 955.572 1645.03 953.928 1551.87 962.16 1470.26 C 948.067 1465.04 915.751 1446.25 902.783 1437.44 C 790.603 1361.22 713.479 1256.2 686.619 1123.06 C 633.559 1088.13 593.523 1048.93 560.649 994.369 C 530.764 944.768 507.994 879.379 522.376 821.518 C 512.783 820.444 493.864 815.623 483.456 813.322 L 408.885 796.818 C 367.363 787.59 326.079 780.452 284.644 770.237 C 246.448 760.821 227.027 732.892 220.395 695.04 C 208.589 627.665 230.06 550.115 268.334 494.233 C 288.44 464.876 320.661 433.064 356.709 426.03 C 387.555 419.82 404.054 432.824 429.632 445.958 C 453.964 458.453 476.569 473.264 500.422 486.34 C 545.341 510.413 590.055 534.867 634.559 559.699 C 652.385 569.701 671.144 579.965 688.611 590.628 C 700.97 598.173 701.82 612.149 704.229 625.761 C 741.284 643.742 778.095 661.196 814.598 680.49 C 844.675 651.151 878.801 626.273 915.935 606.612 C 1058.03 530.634 1211.92 526.192 1363.98 572.391 C 1364.87 555.826 1365.32 542.953 1362.41 526.587 C 1319.77 538.551 1276.52 523.53 1244.38 494.492 C 1205.93 459.756 1191.84 408.426 1188.93 358.379 C 1187.57 335.002 1191.29 254.44 1205.46 238.801 z M 683.502 947.191 C 684.391 938.358 686.223 929.924 687.952 921.231 C 694.017 894.5 701.008 869.12 711.851 843.826 C 698.168 840.722 684.11 836.037 671.214 833.22 C 671.98 869.842 665.453 912.575 683.502 947.191 z"/>
<path transform="translate(0,0)" fill="rgb(210,231,197)" d="M 829.859 686.513 C 922.304 598.576 1058.62 554.662 1185.03 557.211 C 1335.07 560.236 1479.83 617.837 1584.03 727.185 C 1636.53 782.285 1678.83 854.703 1697.2 928.952 C 1727.18 1041.87 1710.37 1162.12 1650.55 1262.48 C 1639.71 1281.23 1627.46 1299.13 1613.92 1316.03 C 1599.82 1296.91 1583.02 1279.92 1564.06 1265.59 C 1542.8 1251.99 1524.38 1242.64 1498.92 1238.97 C 1557.09 1273.2 1593.53 1303.14 1627.49 1364.12 C 1635.05 1378.76 1645.62 1398.96 1649.41 1414.84 C 1656.04 1442.57 1653.51 1480.93 1639.31 1506.2 C 1616.64 1546.57 1574.15 1508.77 1557.32 1485.41 C 1512.34 1423 1523.81 1348.79 1447.11 1309.51 C 1457.8 1321.9 1462.92 1328.18 1471.51 1342.46 C 1494.46 1377.16 1496.74 1384.61 1510.75 1423.82 C 1445.93 1472.11 1385.4 1492.64 1308.13 1509.45 C 1307.03 1524.5 1306.53 1539.58 1306.64 1554.67 C 1306.65 1562.52 1307.22 1577.71 1306.71 1584.76 C 1305.16 1582.58 1305.7 1568.81 1305.72 1565.1 C 1255.72 1573.93 1229.34 1574.19 1178.83 1573.9 C 1178.94 1554.87 1179.28 1535.84 1179.84 1516.81 C 1164.55 1514.69 1149.16 1513.56 1133.56 1511.25 C 1100.52 1506.24 1068 1498.25 1036.4 1487.38 C 938.002 1453.98 851.489 1392.6 787.471 1310.75 C 772.383 1291.13 756.296 1267.08 745.508 1244.76 C 739.762 1235.11 734.664 1225.09 730.246 1214.77 C 680.239 1098.04 678.599 966.225 725.686 848.279 C 737.236 851.924 776.496 860.006 781.891 866.294 C 792.888 889.644 825.104 899.117 848.125 888.112 C 850.651 886.884 853.148 885.599 855.616 884.258 C 863.074 878.375 869.898 872.986 876.095 865.725 C 879.105 872.928 881.698 879.032 885.868 885.583 C 907.182 919.318 949.793 929.26 985.554 914.03 C 1038.11 891.648 1064.78 823.002 1041.37 770.976 C 1018.14 719.346 960.551 711.191 916.484 741.995 C 914.259 731.292 912.613 722.021 906.767 712.58 C 894.777 693.215 870.339 686.422 848.968 691.627 C 846.736 692.177 844.514 692.764 842.301 693.388 C 837.407 691.014 834.425 689.631 829.859 686.513 z"/>
<path transform="translate(0,0)" fill="rgb(166,204,157)" d="M 745.508 1244.76 C 746.054 1245.04 746.6 1245.32 747.147 1245.6 C 777.821 1275.61 805.898 1304.37 841.08 1329.73 C 1016.91 1456.44 1265.24 1469.76 1450.98 1356.46 C 1457.09 1352.73 1466.43 1346.95 1471.51 1342.46 C 1494.46 1377.16 1496.74 1384.61 1510.75 1423.82 C 1445.93 1472.11 1385.4 1492.64 1308.13 1509.45 C 1307.03 1524.5 1306.53 1539.58 1306.64 1554.67 C 1306.65 1562.52 1307.22 1577.71 1306.71 1584.76 C 1305.16 1582.58 1305.7 1568.81 1305.72 1565.1 C 1255.72 1573.93 1229.34 1574.19 1178.83 1573.9 C 1178.94 1554.87 1179.28 1535.84 1179.84 1516.81 C 1164.55 1514.69 1149.16 1513.56 1133.56 1511.25 C 1100.52 1506.24 1068 1498.25 1036.4 1487.38 C 938.002 1453.98 851.489 1392.6 787.471 1310.75 C 772.383 1291.13 756.296 1267.08 745.508 1244.76 z"/>
<path transform="translate(0,0)" fill="rgb(166,204,157)" d="M 1697.2 928.952 C 1727.18 1041.87 1710.37 1162.12 1650.55 1262.48 C 1639.71 1281.23 1627.46 1299.13 1613.92 1316.03 C 1599.82 1296.91 1583.02 1279.92 1564.06 1265.59 C 1636.82 1188.08 1679.96 1076.97 1692.41 972.641 C 1694.15 958.138 1694.74 943.315 1697.2 928.952 z"/>
<path transform="translate(0,0)" fill="rgb(233,162,166)" d="M 781.891 866.294 C 792.888 889.644 825.104 899.117 848.125 888.112 C 850.651 886.884 853.148 885.599 855.616 884.258 C 868.237 893.863 884.665 907.119 880.092 925.325 C 875.242 944.332 850.454 946.408 832.999 944.827 C 807.072 942.477 755.154 919.443 761.008 886.294 C 762.61 877.226 773.9 870.643 781.891 866.294 z"/>
<path transform="translate(0,0)" fill="rgb(42,19,38)" d="M 1303.51 839.292 C 1391.22 828.754 1419.12 935.322 1372.87 994.782 C 1353.96 1019.09 1335.72 1031.75 1305.26 1036.94 C 1286.11 1038.48 1263.35 1034.34 1247.93 1022.19 C 1179.25 968.108 1220.77 852.215 1303.51 839.292 z"/>
<path transform="translate(0,0)" fill="rgb(255,255,255)" d="M 1286.63 861.196 C 1317.85 861.834 1315.66 905.47 1284.11 914.016 C 1251.2 914.659 1254.02 868.818 1286.63 861.196 z"/>
<path transform="translate(0,0)" fill="rgb(255,255,255)" d="M 1255.25 927.435 C 1261.39 924.829 1268.48 927.724 1271.04 933.883 C 1273.6 940.043 1270.65 947.108 1264.47 949.623 C 1258.36 952.111 1251.38 949.201 1248.85 943.106 C 1246.32 937.011 1249.17 930.013 1255.25 927.435 z"/>
<path transform="translate(0,0)" fill="rgb(255,255,255)" d="M 1072.75 577.349 C 1093.6 573.34 1171.43 577.38 1140.78 618.56 C 1120.46 645.853 1060.52 662.348 1027.24 666.556 C 1011.91 670.099 973.79 669.47 961.371 659.572 C 937.549 640.588 970.184 614.924 985.191 605.781 C 1015.44 587.355 1039.02 581.728 1072.75 577.349 z"/>
<path transform="translate(0,0)" fill="rgb(42,19,38)" d="M 1032.87 939.064 C 1045.38 940.094 1066.55 950.473 1078.63 954.971 C 1089.43 958.988 1126.76 964.984 1126.12 977.566 C 1124.91 1001.56 1107.19 1038.65 1092.94 1056.51 C 1077.44 1072.09 1056.02 1082.67 1036.89 1065.56 C 1007.62 1039.39 1013.97 985.607 1022.76 951.822 C 1024.51 945.112 1026.99 941.951 1032.87 939.064 z"/>
<path transform="translate(0,0)" fill="rgb(233,162,166)" d="M 1078.42 996.337 C 1087.44 995.214 1096.31 996.716 1105.04 998.686 C 1096.85 1022.35 1085.39 1056.14 1056.77 1058.45 C 1035.55 1052.21 1033.14 1033.68 1030.19 1014.65 C 1047.22 1002.95 1057.84 999.119 1078.42 996.337 z"/>
<path transform="translate(0,0)" fill="rgb(233,162,166)" d="M 1315.74 1053.31 C 1338.9 1050.77 1362.19 1058.13 1382.22 1070.46 C 1395.84 1078.83 1418.15 1100.88 1406.51 1118.57 C 1401.14 1126.74 1388.35 1130.2 1378.86 1131.64 C 1311.58 1136.87 1240.01 1064.29 1315.74 1053.31 z"/>
<path transform="translate(0,0)" fill="rgb(246,202,117)" d="M 262.292 534.082 C 267.191 521.729 274.824 511.605 282.027 500.657 C 311.517 455.835 381.014 401.159 418.694 471.73 C 433.799 500.429 433.359 534.631 431.444 566.347 C 439.349 540.233 438.296 514.503 434.494 487.924 C 431.756 477.132 428.995 469.465 424.752 459.087 C 435.601 464.753 457.801 475.376 466.869 481.526 C 470.615 490.196 472.698 496.949 474.638 506.281 C 487.725 568.901 467.763 644.089 434.535 697.883 C 422.526 705.499 416.551 712.528 399.871 709.128 C 395.131 708.162 383.988 703.379 380.144 700.711 L 375.418 707.65 L 372.649 704.15 C 296.413 795.555 226.481 756.781 231.999 646.442 C 233.713 612.161 244.74 564.269 262.292 534.082 z"/>
<path transform="translate(0,0)" fill="rgb(255,255,255)" d="M 262.292 534.082 C 267.191 521.729 274.824 511.605 282.027 500.657 C 311.517 455.835 381.014 401.159 418.694 471.73 C 406.369 472.467 386.494 433.97 333.702 461.141 C 322.511 466.901 310.841 474.153 302.387 483.602 C 295.032 491.823 287.649 500.538 281.503 509.697 C 276.713 516.837 272.284 525.55 266.682 531.98 C 265.113 533.781 264.561 533.713 262.292 534.082 z"/>
<path transform="translate(0,0)" fill="rgb(255,255,255)" d="M 424.752 459.087 C 435.601 464.753 457.801 475.376 466.869 481.526 C 470.615 490.196 472.698 496.949 474.638 506.281 C 473.418 507.209 474.218 506.736 472.063 507.349 C 459.513 500.828 446.83 494.86 434.494 487.924 C 431.756 477.132 428.995 469.465 424.752 459.087 z"/>
<path transform="translate(0,0)" fill="rgb(53,29,28)" d="M 372.649 704.15 C 378.096 696.336 384.326 686.891 390.358 679.706 C 387.172 687.171 383.887 693.49 380.144 700.711 L 375.418 707.65 L 372.649 704.15 z"/>
<path transform="translate(0,0)" fill="rgb(42,19,38)" d="M 350.4 467.251 C 449.952 462.588 396.492 697.383 300.554 722.107 C 198.015 732.806 251.69 481.907 350.4 467.251 z"/>
<path transform="translate(0,0)" fill="rgb(172,234,228)" d="M 373.591 499.143 C 384.509 498.09 386.043 511.242 387.219 519.823 C 395.533 580.507 362.825 675.818 306.455 705.196 C 300.729 700.136 296.462 692.459 294.256 685.195 C 277.042 628.525 314.633 518.75 373.591 499.143 z"/>
<path transform="translate(0,0)" fill="rgb(255,255,255)" d="M 350.944 523.048 C 373.399 522.207 379.618 533.675 373.539 554.482 C 368.445 571.919 357.545 584.223 341.781 592.698 C 302.58 599.788 317.309 539.056 350.944 523.048 z"/>
<path transform="translate(0,0)" fill="rgb(223,165,80)" d="M 352.986 481.209 C 356.813 481.116 366.355 481.58 367.67 485.662 L 360.109 489.334 C 294.017 521.836 255.562 641.118 288.681 708.031 C 223.485 687.043 276.85 495.04 352.986 481.209 z"/>
<path transform="translate(0,0)" fill="rgb(246,202,117)" d="M 486.51 494.953 L 612.396 563.856 C 631.566 574.319 665.4 591.437 682.913 603.05 C 686.077 609.642 686.63 611.774 688.457 618.881 C 694.991 662.154 689.17 697.68 671.552 737.79 C 660.94 766.226 630.725 812.332 602.054 825.849 C 581.203 822.376 544.955 812.786 522.906 807.809 C 477.793 797.626 429.615 787.795 385.106 776.328 C 423.035 747.483 439.717 720.555 462.145 679.872 C 487.306 619.257 496.893 581.757 490.879 515.063 L 486.51 494.953 z"/>
<path transform="translate(0,0)" fill="rgb(223,165,80)" d="M 385.106 776.328 C 423.035 747.483 439.717 720.555 462.145 679.872 C 461.807 690.681 459.062 710.494 467.45 718.294 C 477.395 727.543 495.631 733.544 508.719 737.074 C 545.688 747.047 582.71 763.791 620.934 766.81 C 647.247 768.889 654.971 746.181 671.552 737.79 C 660.94 766.226 630.725 812.332 602.054 825.849 C 581.203 822.376 544.955 812.786 522.906 807.809 C 477.793 797.626 429.615 787.795 385.106 776.328 z"/>
<path transform="translate(0,0)" fill="rgb(255,255,255)" d="M 486.51 494.953 L 612.396 563.856 C 631.566 574.319 665.4 591.437 682.913 603.05 C 686.077 609.642 686.63 611.774 688.457 618.881 C 682.61 617.479 662.066 605.882 656.029 602.591 C 638.26 592.711 620.384 583.024 602.404 573.532 L 531.948 536.563 C 518.401 529.557 503.899 522.812 490.879 515.063 L 486.51 494.953 z"/>
<path transform="translate(0,0)" fill="rgb(255,255,255)" d="M 524.656 551.249 C 551.807 548.767 616.935 584.452 581.332 600.636 C 558.63 602.956 529.379 589.755 516.476 570.49 C 510.713 561.886 517.43 555.325 524.656 551.249 z"/>
<path transform="translate(0,0)" fill="rgb(255,255,255)" d="M 616.006 596.206 C 631.582 597.982 648.522 614.628 626.765 621.997 C 611.125 620.723 594.755 603.63 616.006 596.206 z"/>
<path transform="translate(0,0)" fill="rgb(210,231,197)" d="M 975.707 1478.32 C 1013.37 1495.99 1058.89 1512.46 1099.98 1519.72 C 1098.96 1534.83 1098.52 1549.97 1098.65 1565.11 C 1098.67 1573.41 1099.2 1588.05 1098.68 1595.76 C 1099 1625.47 1099.71 1655.18 1100.79 1684.87 C 1101.77 1708.82 1103.79 1737.31 1103.11 1760.97 C 1102.05 1771.04 1101.51 1773.96 1093.48 1780.96 C 1069.49 1801.86 944.55 1809.01 937.165 1772.37 C 937.857 1770.12 938.678 1767.9 939.624 1765.74 C 947.001 1748.96 963.562 1742.36 979.228 1736.07 C 978.075 1710.51 974.164 1682.55 972.906 1655.98 C 970.868 1612.9 971.074 1573.65 971.995 1530.63 C 973.08 1513.18 974.318 1495.75 975.707 1478.32 z"/>
<path transform="translate(0,0)" fill="rgb(166,204,157)" d="M 975.707 1478.32 C 1013.37 1495.99 1058.89 1512.46 1099.98 1519.72 C 1098.96 1534.83 1098.52 1549.97 1098.65 1565.11 C 1098.67 1573.41 1099.2 1588.05 1098.68 1595.76 C 1097 1593.3 1097.68 1569.31 1097.7 1564.71 C 1069.09 1561.34 1034.99 1552.97 1007.55 1544.18 C 996.056 1540.49 983.711 1534.77 971.995 1530.63 C 973.08 1513.18 974.318 1495.75 975.707 1478.32 z"/>
<path transform="translate(0,0)" fill="rgb(166,204,157)" d="M 937.165 1772.37 C 945.072 1772.61 958.483 1776.81 968.036 1777.4 C 1017.72 1780.44 1056.18 1778.65 1103.11 1760.97 C 1102.05 1771.04 1101.51 1773.96 1093.48 1780.96 C 1069.49 1801.86 944.55 1809.01 937.165 1772.37 z"/>
<path transform="translate(0,0)" fill="rgb(210,231,197)" d="M 1435.1 524.876 C 1436.57 506.789 1439.77 491.411 1448.6 475.436 C 1504.03 375.232 1632.31 383.706 1719.06 429.748 C 1710.43 446.758 1701.4 461.436 1691.25 477.556 C 1659.17 524.91 1613.66 571.917 1555.1 583.145 C 1511.42 591.52 1465.69 577.226 1438.29 541.267 C 1441.71 538.113 1444.4 535.552 1448.15 532.74 C 1495.31 492.171 1554.19 468.569 1613.98 455.281 C 1620.3 453.877 1622.1 449.713 1619.41 443.821 C 1611.98 438.027 1591.55 445.422 1582.66 447.844 C 1527.13 462.974 1478.95 487.44 1435.1 524.876 z"/>
<path transform="translate(0,0)" fill="rgb(166,204,157)" d="M 1448.15 532.74 C 1461.65 546.959 1496.55 558.894 1515.25 562.529 C 1572.53 573.669 1623.58 546.805 1661.72 505.469 C 1669.95 496.547 1677.81 485.807 1687.06 478.107 C 1688.71 477.89 1690.11 477.706 1691.25 477.556 C 1659.17 524.91 1613.66 571.917 1555.1 583.145 C 1511.42 591.52 1465.69 577.226 1438.29 541.267 C 1441.71 538.113 1444.4 535.552 1448.15 532.74 z"/>
<path transform="translate(0,0)" fill="rgb(210,231,197)" d="M 1213.68 253.781 C 1275.29 265.739 1333.15 294.584 1370.29 347.068 C 1401.48 391.141 1408.64 459.829 1372.76 503.673 C 1362.09 447.574 1338.95 397.026 1305.49 350.951 C 1300 343.4 1289.32 325.173 1279.46 325.603 C 1276.2 327.364 1276.38 327.523 1274.62 330.639 C 1274.51 333.197 1274.14 334.306 1275.97 336.554 C 1315.32 385.027 1344.63 438.92 1357.71 500.91 C 1358.57 504.87 1359.25 509.808 1359.93 513.881 C 1344.31 517.054 1329.1 518.202 1313.58 515 C 1236.2 499.039 1202.83 421.883 1202.68 349.465 C 1202.66 338.837 1201.98 328.272 1203.92 317.929 C 1204.47 301.146 1209.31 270.112 1213.68 253.781 z"/>
<path transform="translate(0,0)" fill="rgb(166,204,157)" d="M 1203.92 317.929 C 1209.4 375.166 1211.5 423.363 1259.79 464.894 C 1283.38 485.188 1326.27 502.765 1357.71 500.91 C 1358.57 504.87 1359.25 509.808 1359.93 513.881 C 1344.31 517.054 1329.1 518.202 1313.58 515 C 1236.2 499.039 1202.83 421.883 1202.68 349.465 C 1202.66 338.837 1201.98 328.272 1203.92 317.929 z"/>
<path transform="translate(0,0)" fill="rgb(210,231,197)" d="M 1178.83 1573.9 C 1229.34 1574.19 1255.72 1573.93 1305.72 1565.1 C 1305.7 1568.81 1305.16 1582.58 1306.71 1584.76 C 1307.84 1633.9 1309.44 1690.57 1314.33 1739.45 C 1324.9 1745.29 1335.84 1750.86 1343.36 1760.63 C 1346.97 1765.15 1349.76 1769.2 1350.93 1775 C 1350.81 1781.14 1349.68 1782.71 1345.57 1787.27 C 1317.54 1810.57 1226.84 1805.5 1196.47 1784.17 C 1189.99 1779.62 1189.65 1771.93 1188.96 1764.56 C 1186.72 1750.63 1185.16 1727.42 1183.99 1712.83 C 1180.18 1666.62 1178.46 1620.26 1178.83 1573.9 z"/>
<path transform="translate(0,0)" fill="rgb(166,204,157)" d="M 1188.96 1764.56 C 1223.53 1785.83 1301.18 1797.82 1338.62 1779.3 L 1343.61 1777.37 C 1346.74 1776.55 1347.94 1776.19 1350.93 1775 C 1350.81 1781.14 1349.68 1782.71 1345.57 1787.27 C 1317.54 1810.57 1226.84 1805.5 1196.47 1784.17 C 1189.99 1779.62 1189.65 1771.93 1188.96 1764.56 z"/>
<path transform="translate(0,0)" fill="rgb(176,211,174)" d="M 1350.93 1775 C 1350.81 1781.14 1349.68 1782.71 1345.57 1787.27 C 1343.25 1783.13 1343.57 1782.34 1343.61 1777.37 C 1346.74 1776.55 1347.94 1776.19 1350.93 1775 z"/>
<path transform="translate(0,0)" fill="rgb(246,202,117)" d="M 705.69 642.252 C 716.406 646.043 750.725 663.91 762.283 669.583 C 781.412 678.951 800.484 688.436 819.496 698.038 C 830.397 703.467 841.376 708.703 852.146 714.394 C 859.141 718.09 859.7 720.768 860.596 728.211 C 864.405 747.676 860.096 775.687 852.172 793.691 C 845.624 816.25 826.093 842.299 805.458 854.719 C 788.176 850.993 767.199 844.706 749.653 840.071 C 714.178 830.805 678.818 821.11 643.578 810.989 C 662.662 788.036 679.443 760.951 690.059 732.998 C 704.396 691.121 703.051 683.482 705.69 642.252 z"/>
<path transform="translate(0,0)" fill="rgb(223,165,80)" d="M 690.059 732.998 C 690.135 743.175 687.887 764.931 695.419 772.654 C 704.32 781.781 802.768 815.109 818.217 814.361 C 833.827 813.605 840.256 800.224 852.172 793.691 C 845.624 816.25 826.093 842.299 805.458 854.719 C 788.176 850.993 767.199 844.706 749.653 840.071 C 714.178 830.805 678.818 821.11 643.578 810.989 C 662.662 788.036 679.443 760.951 690.059 732.998 z"/>
<path transform="translate(0,0)" fill="rgb(255,255,255)" d="M 705.69 642.252 C 716.406 646.043 750.725 663.91 762.283 669.583 C 781.412 678.951 800.484 688.436 819.496 698.038 C 830.397 703.467 841.376 708.703 852.146 714.394 C 859.141 718.09 859.7 720.768 860.596 728.211 C 859.502 728.093 719.072 661.026 707.255 654.042 C 705.557 650.739 705.831 646.106 705.69 642.252 z"/>
<path transform="translate(0,0)" fill="rgb(210,231,197)" d="M 631.528 823.392 C 639.584 825.853 647.691 828.141 655.845 830.255 C 657.098 842.255 657.149 851.388 656.254 863.435 C 654.886 899.095 655.662 919.71 670.407 953.322 L 679.537 970.065 C 676.15 1013.95 674.813 1060.58 682.227 1104.2 C 667.777 1093.53 646.846 1077.65 634.668 1065.03 C 578.628 1011.85 531.472 929.478 532.965 850.958 C 533.202 842.538 534.256 834.161 536.11 825.945 C 556.031 830.472 580.525 837.216 600.865 838.935 C 611.066 839.797 623.659 829.924 631.528 823.392 z"/>
<path transform="translate(0,0)" fill="rgb(166,204,157)" d="M 670.407 953.322 L 679.537 970.065 C 676.15 1013.95 674.813 1060.58 682.227 1104.2 C 667.777 1093.53 646.846 1077.65 634.668 1065.03 C 637.117 1059.93 637.107 1045.78 638.15 1038.89 C 641.935 1013.88 654.779 973.185 670.407 953.322 z"/>
<path transform="translate(0,0)" fill="rgb(166,204,157)" d="M 631.528 823.392 C 639.584 825.853 647.691 828.141 655.845 830.255 C 657.098 842.255 657.149 851.388 656.254 863.435 C 637.277 862.809 618.345 861.208 599.532 858.638 C 587.255 857.026 543.178 849.185 532.965 850.958 C 533.202 842.538 534.256 834.161 536.11 825.945 C 556.031 830.472 580.525 837.216 600.865 838.935 C 611.066 839.797 623.659 829.924 631.528 823.392 z"/>
<path transform="translate(0,0)" fill="rgb(223,165,80)" d="M 380.144 700.711 C 383.988 703.379 395.131 708.162 399.871 709.128 C 416.551 712.528 422.526 705.499 434.535 697.883 C 415.042 732.031 395.593 753.414 362.265 773.239 C 345.625 770.208 329.339 765.13 313.427 762.225 C 340.881 748.969 358.511 733.604 375.418 707.65 L 380.144 700.711 z"/>
<path transform="translate(0,0)" fill="rgb(246,202,117)" d="M 862.3 702.41 C 881.703 706.701 897.048 714.077 900.384 735.95 C 907.943 766.443 895.465 809.586 878.959 835.447 C 870.976 836.548 867.918 836.932 859.938 836.672 C 855.35 833.834 854.593 833.513 850.996 829.655 C 871.011 794.748 880.859 760.058 874.372 719.694 C 870.559 710.895 869.807 708.863 862.3 702.41 z"/>
<path transform="translate(0,0)" fill="rgb(255,255,255)" d="M 862.3 702.41 C 881.703 706.701 897.048 714.077 900.384 735.95 C 897.105 735.168 882.797 723.597 874.372 719.694 C 870.559 710.895 869.807 708.863 862.3 702.41 z"/>
<path transform="translate(0,0)" fill="rgb(255,255,255)" d="M 943.575 748.17 C 975.378 749.638 973.998 791.995 941.557 801.933 C 908.434 803.48 909.745 757.277 943.575 748.17 z"/>
<path transform="translate(0,0)" fill="rgb(223,165,80)" d="M 800.669 869.534 C 801.938 869.45 803.205 869.329 804.467 869.17 C 824.076 866.631 839.708 844.334 850.996 829.655 C 854.593 833.513 855.35 833.834 859.938 836.672 C 867.918 836.932 870.976 836.548 878.959 835.447 C 861.008 866.274 837.384 891.92 800.669 869.534 z"/>
<path transform="translate(0,0)" fill="rgb(255,255,255)" d="M 912.362 814.635 C 918.588 812.419 925.435 815.649 927.683 821.864 C 929.93 828.079 926.734 834.942 920.531 837.22 C 914.283 839.515 907.361 836.292 905.097 830.033 C 902.834 823.774 906.092 816.868 912.362 814.635 z"/>
</svg>