<svg xmlns="http://www.w3.org/2000/svg" width="768" height="768" viewBox="0 0 2048 2048"><path fill="#2a1425" d="M1090.53 102.413c15.02-.87 62.8-1.471 77.8 6.341 1.93 1.147 3.53 5.508 3.48 7.671-2.78 120.334-60.84 273.216-196.825 290.55-30.455 3.882-67.848-.431-92.751-19.793-6.755 16.32-11.702 35.355-14.993 52.641 9.541-1.321 26.478-1.371 36.674-1.603a707 707 0 0 1 177.575 18.338c153.85 34.821 298.03 126.891 381.57 261.931 79.42 128.373 89.78 263.479 56.85 407.791l16.37-1.54a3644 3644 0 0 0 26.2-80.22c5.78-18.14 14.27-58.899 32.8-64.889 16.89-5.461 61.03 12.766 77.22 19.909 9.95-21.356 22.74-20.58 41.89-11.612 12.09-23.647 28.43-39.084 57.52-33.654a49.42 49.42 0 0 1 32.67 22.171c8.92 14.113 8.4 27.315 4.66 42.625 20.89 6.43 31.86 13.8 27.33 37.41 63.11 17.94 88.06 18.48 59.69 92.08-1.92 4.97-3.93 11.77-5.69 16.97a4167 4167 0 0 0-31.8 95.65c64.29 27.58 62.74 117.88 4.84 150.74-16.94 9.61-30.02 9.85-48.84 8.84-3.97 10.3-8.18 25.1-11.67 35.95a2619 2619 0 0 1-19.33 57.91c-7.69 22.43-9.35 41.16-34.71 48.63-11.85-2.22-28.48-8.57-40.59-12.65l-54.06-17.79-192.38-63.16c-48.37-15.84-23.24-57.08-10.89-90.74 8.85-24.38 17.39-48.87 25.63-73.46-10.46-3.57-21.29-6.17-32-8.93-14.57 24.59-38.63 53-57.49 74.32-55.05 62.22-125.01 110.6-200.31 145.11-13.82 6.34-27.83 10.97-41.84 16.89 3.54 28.11 4.06 74.25 4.11 102.99.27 65.42-2.48 130.81-8.24 195.97 27.34 12.31 72.48 47.35 40.99 80.69-19.23 20.36-70.22 25.43-96.77 24.4-36.48-1.42-88.936-6.03-116.935-32.12-17.007-15.69-12.094-58.17-11.232-79.37 1.142-24.15 1.932-48.32 2.369-72.5a6225 6225 0 0 0 1.5-105.67c-.034-22.41-1.177-50.87-.207-72.55l-15.466 1.1a759 759 0 0 1-42.119 1.39c1.467 27.86-.643 72.19-1.386 100.67a2140 2140 0 0 1-8.205 150.86c-1.745 18.67-3.497 37.74-6.736 56.24-2.14 12.22-8.659 21.04-19.758 27.54-39.579 23.17-110.581 23.55-154.763 15.25-15.907-3.41-41.549-12.02-49.843-27.37-18.286-33.84 19.047-60.18 43.613-73.81.936-29.27 3.122-59.21 4.539-88.56a4103 4103 0 0 0 5.432-182.34c-81.077-17.75-202.82-79.36-259.547-141.01-95.798 65.49-236.007 50.93-313.134-37.67-46.38-53.28-19.945-130.42 55.596-120.5-3.029-24.58 2.643-60.03 36.317-57.52 17.304 1.29 30.41 20.29 40.264 33.47 22.212 29.72 49.399 39.62 84.941 44.23a533.8 533.8 0 0 1-76.883-219.95c-9.492-81.986-3.032-160.276 25.455-238.058 79.296-216.513 288.112-349.664 511.557-375.441-7.662-19.731-13.333-34.478-22.804-53.231a155 155 0 0 1-13.097 9.464c-30.782 19.723-78.241 23.982-113.246 15.586-112.728-27.038-169.1-153.326-184.346-258.278-.913-6.284-2.321-10.621-.865-17.132 5.598-8.573 22.588-9.651 32.228-11.116 108.463-16.482 231.835 17.851 281.947 123.935 17.826 37.736 23.35 83.623 9.123 123.337a553 553 0 0 1 27.985 66.069 600 600 0 0 0 12.707-1.011 222.7 222.7 0 0 1 19.284-63.72c-12.065-15.348-17.31-37.4-18.862-56.278-8.597-104.529 81.293-184.222 175.437-208.333 22.76-5.829 41.33-8.277 64.45-10.08"/><path fill="#d4eac7" d="M345.161 779.925C564.062 330.07 1327.19 347.983 1496.27 830.729c44.8 127.923 25.61 278.371-33.29 398.201-10.98 22.33-47.42 83.83-64.97 100.42-6.58 10.57-30.77 37.55-39.95 46.95-118.07 120.97-295.72 181.15-462.1 183.9-147.376 2.43-316.999-51.14-424.152-154.98 19.192-16.53 34.467-31.83 44.837-55.03-10.337 6.3-30.952 22.96-41.243 30.71-46.373 34.93-94.048 58.9-153.891 56.9-55.985-1.87-116.6-20.39-155.795-62.28-14.315-15.3-27.745-36.88-27.064-58.54.514-29.1 24.145-43.88 50.62-43.77 23.993-.52 31.648 6.66 27.407-22.5-4.833-33.23 15.702-47.41 37.234-17.24 8.257 11.57 24.805 29.63 36.495 37.73a125.95 125.95 0 0 0 94.835 20.52c30.185-5.57 53.289-19.37 70.544-44.57l-12.876 5.64c-25.404 10.51-36.311 15.73-63.291 21.15a504.5 504.5 0 0 1-53.792-110.6c-41.68-124.42-39.881-264.812 19.333-383.415"/><path fill="#a7ce9e" d="M138.652 1316.98c34.685 48.27 85.025 73.35 143.01 82.49 80.713 12.72 160.359-14.98 225.233-62q4.64-3.315 9.094-6.9c92.037 81.45 233.603 133.84 354.206 149.18a780.4 780.4 0 0 0 140.065 3.96c82.6-5.09 186.57-32.6 260.01-71.2a754 754 0 0 0 65.32-39.18 654 654 0 0 0 38.61-28.2c5.63-4.35 17.23-14.93 23.81-15.78-6.58 10.57-30.77 37.55-39.95 46.95-118.07 120.97-295.72 181.15-462.1 183.9-147.376 2.43-316.999-51.14-424.152-154.98 19.192-16.53 34.467-31.83 44.837-55.03-10.337 6.3-30.952 22.96-41.243 30.71-46.373 34.93-94.048 58.9-153.891 56.9-55.985-1.87-116.6-20.39-155.795-62.28-14.315-15.3-27.745-36.88-27.064-58.54M345.161 779.925c3.237 10.569-1.416 27.945-3.279 39.389a483 483 0 0 0-5.545 49.191c-6.59 119.205 18.138 234.615 78.228 338.275 5.679 9.79 22.398 38.91 28.346 46.01-25.404 10.51-36.311 15.73-63.291 21.15a504.5 504.5 0 0 1-53.792-110.6c-41.68-124.42-39.881-264.812 19.333-383.415"/><path fill="#2a1425" d="M1145.12 764.352c25.13-2.452 52.32 6.9 72.04 21.664 62.66 46.899 76.89 152.789 16.51 207.323-17.38 15.691-34.65 22.151-57.43 25.311-112.93 6.98-162.73-134.799-99.02-216.067a100.19 100.19 0 0 1 67.9-38.231"/><path fill="#fff" d="M1188.45 804.111c39.08-3.549 57.07 53.27 18.23 69.606-38.7 2.863-56.65-51.893-18.23-69.606M1212.16 892.595c8.3-1.232 16.01 4.515 17.21 12.817s-4.58 15.995-12.89 17.157c-8.26 1.154-15.89-4.584-17.08-12.836s4.51-15.914 12.76-17.138"/><path fill="#2a1425" d="M694.254 803.387a96.98 96.98 0 0 1 66.232 18.457c84.154 61.49 73.29 218.226-38.234 234.146-149.414 8.95-171.791-236.749-27.998-252.603"/><path fill="#fff" d="M740.216 838.179c36.692.902 48.783 57.404 10.402 69.045-39.615-.373-49.79-58.267-10.402-69.045M754.798 927.776a15.243 15.243 0 0 1 19.996 17.55 15.25 15.25 0 0 1-10.4 11.384c-7.93 2.456-16.367-1.885-18.98-9.764s1.559-16.401 9.384-19.17M1076.14 512.307c43.31-3.624 93.1 15.511 130.5 38.11 19.06 11.511 83.41 60.897 57.92 90.833-5.3 6.225-15.36 8.401-23.33 9.574-44.25 3.857-94.56-18.272-133.1-41.372-17.9-10.728-75.98-54.528-58.39-84.665 4.48-7.682 17.45-11.171 26.4-12.48"/><path fill="#eca6a8" d="M1312.73 977.423c23.42-3.44 77.48 4.945 81.11 35.797 3.94 33.44-47.86 50.57-74.6 53.22-21.83 3.36-49.78-1.88-68.09-14.84-16.32-11.55-19.6-28.84-6.21-44.47 16.46-19.216 43.25-27.717 67.79-29.707M606.863 1049.44c21.293.34 42.911 3.32 60.323 16.62 15.736 12.02 16.867 31.01 2.84 44.89-18.957 18.76-48.502 25.34-74.259 26.28-22.18.09-45.544-1.68-63.631-16.05-14.637-11.62-14.78-30.46-1.963-43.58 20.296-20.76 48.663-27 76.69-28.16"/><path fill="#2a1425" d="M1018.33 1027c11.32-.68 19.58 5.58 12.41 16.07-26.1 38.13-93.805 42.37-131.661 21.91-6.564-5.2-14.276-16.37-8.34-24.37 8.923-6 13.579 1.58 19.91 6.11 13.209 9.46 37.671 10.35 53.114 8.91 24.361-2.29 39.027-9.99 54.567-28.63"/><path fill="#fefdfe" d="M1614.52 1022.47c6.32 1.29 12.07 2.99 18.27 4.76l25.97 7.62c-6.55 15.3-16.9 34.63 4.8 42.57 42.72 15.62 86.36 28.93 129.23 44.19 23.99 8.54 26.77-7.19 32-25.38 10.83 2.64 26.19 7.33 36.79 11.18-9.75 31.34-19.74 62.59-29.97 93.77-5.87 18.05-13 38.43-17.91 56.58-22.7 6.56-38.38 19.48-49.88 40.28a87.57 87.57 0 0 0-7.9 67.44c4.27 14.55 10.41 23.62 19.76 35.18-5.44 15.23-10.05 31.83-15.7 46.51-6.84 21.43-15.01 46.75-23.02 67.6-71.7-25.42-143.91-48.03-216.38-71.08-13.11-4.17-26.66-7.68-39.39-12.82 10.92-31.24 21.08-64.07 31.4-95.64l73.45-226c9.28-28.19 18.53-59.11 28.48-86.76"/><path fill="#fff" d="M1614.52 1022.47c6.32 1.29 12.07 2.99 18.27 4.76-4.14 6.57-21.34 60.61-25.29 72.57l-34.43 106.2c-6.71 20.46-15.02 42.14-20.68 62.85-7.9 28.89-15.51 57.52-24.33 86.2-5.4 17.55-6.08 37.65-10.59 55.81 46.33 21.46 98.94 35.15 147.11 52.2 18.38 6.5 40.33 13.7 59.16 5.94 13.48-4.36 26.75-19.02 36.24-21.83-6.84 21.43-15.01 46.75-23.02 67.6-71.7-25.42-143.91-48.03-216.38-71.08-13.11-4.17-26.66-7.68-39.39-12.82 10.92-31.24 21.08-64.07 31.4-95.64l73.45-226c9.28-28.19 18.53-59.11 28.48-86.76"/><path d="M1667.4 1161.85c14.38 3.16 34.08 10.6 48.51 14.92 8.04 2.4 29.81 9.15 36.42 12.61 1.9 3.16 1.21 2.48.52 7.2-7.47-.54-82.6-23.77-86.74-27.46-.87-3 .09-4.33 1.29-7.27M1612.27 1339.35c9.36 2.06 80.93 25.3 86.89 28.87 1.6 3.31 1.07 2.38.42 6.74-7.08.01-78.58-23.31-86.6-27.58-1.87-3.61-1.14-3.18-.71-8.03M1642.28 1253.56c7.7.31 73.66 20.94 79.85 25.08 1.26 3.48.78 2.55-.48 6.92-5.04.19-71.95-20.89-78.29-24.05-2.1-3.73-1.38-2.88-1.08-7.95M1656.8 1134.61c2.56-.1 1.67-.11 4.24.72 1.96 3.16 1.51 1.46 1.23 5.3-4.63 7.86-28.67 24.5-37.07 29.73-3.47-4.57-7.15-11.77-10.01-16.97-3.66-5.24-7.55-8.66-4.68-14.8 7.07-4.53 14.69 12.97 17.88 18.41 8.79-7.51 18.98-15.85 28.41-22.39M1630.69 1228.84c2.75 1.95 2.58 1.78 4.14 4.77l-.48 2.74c-11.1 8.83-26.17 17.75-37.25 26.56-2.62-5.17-5.35-10.29-8.17-15.35-2.94-4.41-6.06-8.67-3.62-13.83l2.25-.3c7.63 3.23 8.38 6.86 12.34 14.45 10.68-5.81 18.53-13.1 30.79-19.04M1596.87 1315.72c2.16-.1 1.8.06 4 .71 2.03 2.81 1.56 1.28 1.44 4.75-2.89 5.56-25.32 26.43-30.49 25.98-3.75-3.4-5.46-7.55-7.85-12.08-2.59-3.82-7.87-10.61-4.65-15.12 6.75-.25 12.09 9.73 15.17 14.54q11.1-9.51 22.38-18.78"/><path fill="#d4eac7" d="M977.996 1573.34c54.654-6.69 96.434-16.3 148.864-33.87 1.96 12.34 4.1 53.87 4.06 67.08.92 37.05.64 74.12-.86 111.15-.55 15.12-7.53 118.14-5.35 125.68 4.28 3.53 9.47 5.49 14.47 8 16.44 8.25 26.7 16.16 33.87 33.44.56 15.05-11.08 21.47-24.05 25.51-38.93 12.11-81.44 9.31-121.02 1.73-15.15-2.89-31.682-7.87-43.989-17.48-8.188-6.38-8.832-15.12-9.576-24.63-.945-26.45 1.477-60.95 2.266-87.87 1.042-43.18 1.839-86.37 2.392-129.56-.551-9.04-.083-22.81-.101-32.2-.073-15.66-.399-31.33-.976-46.98"/><path fill="#a7ce9e" d="M977.996 1573.34c54.654-6.69 96.434-16.3 148.864-33.87 1.96 12.34 4.1 53.87 4.06 67.08-.73-3.56-.43-5.75-2.6-7.54-13.18 2.96-27.57 8.06-41.45 11.47a538 538 0 0 1-106.886 15.56c-.077 7.75.147 19.08-.911 26.48-.551-9.04-.083-22.81-.101-32.2-.073-15.66-.399-31.33-.976-46.98M974.415 1869.95c44.195 26.61 139.755 29.77 190.165 20.28 4.25-.8 6.74-1.36 8.47-5.41.56 15.05-11.08 21.47-24.05 25.51-38.93 12.11-81.44 9.31-121.02 1.73-15.15-2.89-31.682-7.87-43.989-17.48-8.188-6.38-8.832-15.12-9.576-24.63"/><path fill="#d4eac7" d="M733.889 1561.21c54.998 12.11 96.2 15.9 152.011 17.39.073 15.46.927 43.94-.514 58.18-.877 50.3-3.015 100.57-6.412 150.77-1.838 26.17-4.184 57.46-8.368 83.16-.862 7.38-2.174 19.64-9.231 23.92-37.163 22.53-90.439 21.62-132.547 17.28-16.144-1.66-54.468-10.71-52.718-31.84 7.589-22.74 27.365-31.48 46.628-41.96a4119 4119 0 0 0 10.198-221.31c.346-18.31 1.088-37.37.953-55.59"/><path fill="#a7ce9e" d="M733.889 1561.21c54.998 12.11 96.2 15.9 152.011 17.39.073 15.46.927 43.94-.514 58.18l-.853-2.16c-1.142-.39-41.047-2.02-42.261-1.8-16.642 2.98-103.3-17.8-109.336-16.02.346-18.31 1.088-37.37.953-55.59M676.11 1880.07c2.351 2.81 20.59 8.64 25.353 9.91 54.91 14.68 119.451 7.11 169.143-19.27-.862 7.38-2.174 19.64-9.231 23.92-37.163 22.53-90.439 21.62-132.547 17.28-16.144-1.66-54.468-10.71-52.718-31.84"/><path fill="#d4eac7" d="M876.594 357.679c-29.25-66.891 7.108-142.588 61.878-183.639 62.398-46.769 140.478-61.902 216.618-52.036-2.05 24.401-4.65 40.928-9.34 65.023-8.09 39.4-19.08 71.962-38.92 107.219-36.35 64.616-105.63 109.465-181.369 94.317-12.935-2.587-26.757-7.516-37.23-15.874 1.578-3.461 3.916-9.104 5.993-12.05 22.843-47.091 72.353-100.148 113.106-132.595 14.05-11.185 31.03-20.995 43.93-31.904 2.8-9.418-5.61-16.509-11.88-12.601-66.728 41.582-127.703 103.53-162.786 174.14"/><path fill="#a7ce9e" d="M1145.75 187.027c-8.09 39.4-19.08 71.962-38.92 107.219-36.35 64.616-105.63 109.465-181.369 94.317-12.935-2.587-26.757-7.516-37.23-15.874 1.578-3.461 3.916-9.104 5.993-12.05 101.048 21.41 195.356-24.147 230.086-121.508 4.04-11.33 13.98-42.906 20.22-50.625z"/><path fill="#d4eac7" d="M503.766 148.622c71.328-14.368 153.292-6.319 214.657 34.628 62.262 41.546 90.067 103.034 79.705 176.696-9.331-13.541-20.404-29.265-31.058-41.764-37.969-44.543-97.323-94.552-150.297-119.439-5.828.939-8.058 6.18-8.57 11.452 1.381 5.922 47.035 30.758 56.442 37.913 40.908 31.116 85.449 69.015 113.109 112.941 4.164 6.033 6.474 9.781 9.98 16.218-12.835 11.529-29.859 17.181-46.339 21.269-39.796 9.873-82.446.571-116.958-21.06-54.727-34.299-96.277-113.258-109.938-175.612-4.731-18.511-8.718-34.099-10.733-53.242"/><path fill="#a7ce9e" d="m514.499 201.864.737.802c9.592 12.549 16.033 32.956 23.055 47.749 31.3 69.264 81.954 122.214 162.039 127.454 23.409 1.531 45.561-1.118 67.177-11.23 3.19-1.493 8.027-3.099 10.247-5.59 4.164 6.033 6.474 9.781 9.98 16.218-12.835 11.529-29.859 17.181-46.339 21.269-39.796 9.873-82.446.571-116.958-21.06-54.727-34.299-96.277-113.258-109.938-175.612"/><path fill="#d4eac7" d="M1827.04 1272.29c31.41-.5 55.45 17.93 62.5 48.38 4.35 19.44.61 39.8-10.34 56.43-10.9 16.89-24.54 24.85-43.73 28.93-15.19.89-27.21-1.36-40-10.54a62.56 62.56 0 0 1-25.58-41.86 75.87 75.87 0 0 1 14.31-57.03c11.05-14.5 24.97-21.95 42.84-24.31"/><path fill="#fff" d="M1756.47 971.183c8.39-.61 14.92-.153 22.56 3.976a31.14 31.14 0 0 1 15.32 19.679c3.39 13.042-1.92 22.232-8.06 32.922 8.42 2.93 29.74 8.26 34.23 14.4 2.86 11.47-12.55 51.47-16.95 64.79-16.97-6.11-34.26-11.96-51.31-17.88-26.92-9.84-58.53-18.79-83.85-28.85 4.58-12.76 17.11-54.79 24.97-61.504 6.94-1.095 26.99 6.264 35.4 8.534 2.68-19.216 7.99-30.316 27.69-36.067"/><path fill="#b99e98" d="M1600.92 994.858c8.87-.596 62.69 15.052 64.15 22.832-5.98 4.67-50.84-17.715-58.31-10.3-11.32 11.24-20.92 50.99-26.02 66.19-22.55 68.04-44.69 136.23-66.4 204.54a8830 8830 0 0 1-31.57 94.28c-6.09 17.8-12.59 35.54-17.76 53.61-2.67 9.32.83 17.98 10.27 21.21 18.08 6.18 36.29 11.99 54.49 17.83l105.44 33.87a6720 6720 0 0 1 67.71 22.71c13.11 4.43 30.2 10.73 43.43 13.44 6.83-11.09 28.31-78.63 33.34-93.82l10.02-29.56 10.38 5.44c-7.24 20.49-37.67 118.22-46.92 127.1-1.66 1.6-3.26 1.78-5.49 1.62-8.16-.6-19.08-5.78-26.96-8.4L1664 1518.7l-140.76-45.97c-19.98-6.66-40.32-13.08-59.95-20.14-20.44-7.36-12.23-23.76-6.72-38.39 2.39-6.36 4.73-12.9 7.04-19.26 7.88-21.77 15.6-43.58 23.17-65.46a8863 8863 0 0 0 81.73-249.01l16.79-53.24c4.16-13.18 4.86-23.3 15.62-32.372"/><path fill="#a7ce9e" d="M1516 1143.27c4.71-.25 9.89-.28 14.64-.41-15.53 47.07-32.44 98.92-49.15 145.53l-10.24-3.32c-4.34-1.22-11.71-2.59-16.32-3.59 31.26-50.83 42.51-82.89 61.07-138.21"/><path fill="#b99e98" d="M1831.45 1072.19c10.53 2.31 23.9 7.1 33.46 9.43 36.76 8.95 29.02 24.44 19.01 53.17-2.6 7.49-6.14 17.78-8.91 25.76-11.16 31.6-21.88 63.36-32.16 95.25-2.47.88-5.69.93-8.06-.25-.82-2.06-.94-3.05-.55-5.33 1.66-9.85 6.55-20.67 9.72-30.17 5.07-15.19 37.57-108.89 35.56-117.3-3.4-14.29-35.85-16.05-47.1-22.82-2.16-3.48-1.41-2.66-.97-7.74"/><path fill-opacity=".125" d="M1497.74 775.768c3.67 4.143 4 6.632 6.22 11.719l-.74.204c-2.53-1.81-4.52-8.863-5.48-11.923"/></svg>