<svg version="1.1" xmlns="http://www.w3.org/2000/svg" viewBox="0 0 2048 2048" width="768" height="768">
<path transform="translate(0,0)" fill="rgb(42,20,37)" d="M 1090.53 102.413 C 1105.55 101.543 1153.33 100.942 1168.33 108.754 C 1170.26 109.901 1171.86 114.262 1171.81 116.425 C 1169.03 236.759 1110.97 389.641 974.985 406.975 C 944.53 410.857 907.137 406.544 882.234 387.182 C 875.479 403.502 870.532 422.537 867.241 439.823 C 876.782 438.502 893.719 438.452 903.915 438.22 C 963.644 436.804 1023.31 442.966 1081.49 456.558 C 1235.34 491.379 1379.52 583.449 1463.06 718.489 C 1542.48 846.862 1552.84 981.968 1519.91 1126.28 L 1536.28 1124.74 C 1545.32 1098.1 1554.06 1071.36 1562.48 1044.52 C 1568.26 1026.38 1576.75 985.621 1595.28 979.631 C 1612.17 974.17 1656.31 992.397 1672.5 999.54 C 1682.45 978.184 1695.24 978.96 1714.39 987.928 C 1726.48 964.281 1742.82 948.844 1771.91 954.274 C 1785.41 956.804 1797.24 964.836 1804.58 976.445 C 1813.5 990.558 1812.98 1003.76 1809.24 1019.07 C 1830.13 1025.5 1841.1 1032.87 1836.57 1056.48 C 1899.68 1074.42 1924.63 1074.96 1896.26 1148.56 C 1894.34 1153.53 1892.33 1160.33 1890.57 1165.53 C 1879.59 1197.28 1868.98 1229.17 1858.77 1261.18 C 1923.06 1288.76 1921.51 1379.06 1863.61 1411.92 C 1846.67 1421.53 1833.59 1421.77 1814.77 1420.76 C 1810.8 1431.06 1806.59 1445.86 1803.1 1456.71 C 1796.88 1476.09 1790.44 1495.39 1783.77 1514.62 C 1776.08 1537.05 1774.42 1555.78 1749.06 1563.25 C 1737.21 1561.03 1720.58 1554.68 1708.47 1550.6 L 1654.41 1532.81 L 1462.03 1469.65 C 1413.66 1453.81 1438.79 1412.57 1451.14 1378.91 C 1459.99 1354.53 1468.53 1330.04 1476.77 1305.45 C 1466.31 1301.88 1455.48 1299.28 1444.77 1296.52 C 1430.2 1321.11 1406.14 1349.52 1387.28 1370.84 C 1332.23 1433.06 1262.27 1481.44 1186.97 1515.95 C 1173.15 1522.29 1159.14 1526.92 1145.13 1532.84 C 1148.67 1560.95 1149.19 1607.09 1149.24 1635.83 C 1149.51 1701.25 1146.76 1766.64 1141 1831.8 C 1168.34 1844.11 1213.48 1879.15 1181.99 1912.49 C 1162.76 1932.85 1111.77 1937.92 1085.22 1936.89 C 1048.74 1935.47 996.284 1930.86 968.285 1904.77 C 951.278 1889.08 956.191 1846.6 957.053 1825.4 C 958.195 1801.25 958.985 1777.08 959.422 1752.9 C 960.221 1717.68 960.721 1682.46 960.922 1647.23 C 960.888 1624.82 959.745 1596.36 960.715 1574.68 L 945.249 1575.78 C 931.225 1576.63 917.18 1577.1 903.13 1577.17 C 904.597 1605.03 902.487 1649.36 901.744 1677.84 C 900.786 1728.21 898.049 1778.52 893.539 1828.7 C 891.794 1847.37 890.042 1866.44 886.803 1884.94 C 884.663 1897.16 878.144 1905.98 867.045 1912.48 C 827.466 1935.65 756.464 1936.03 712.282 1927.73 C 696.375 1924.32 670.733 1915.71 662.439 1900.36 C 644.153 1866.52 681.486 1840.18 706.052 1826.55 C 706.988 1797.28 709.174 1767.34 710.591 1737.99 C 713.753 1677.26 715.564 1616.46 716.023 1555.65 C 634.946 1537.9 513.203 1476.29 456.476 1414.64 C 360.678 1480.13 220.469 1465.57 143.342 1376.97 C 96.9611 1323.69 123.397 1246.55 198.938 1256.47 C 195.909 1231.89 201.581 1196.44 235.255 1198.95 C 252.559 1200.24 265.665 1219.24 275.519 1232.42 C 297.731 1262.14 324.918 1272.04 360.46 1276.65 C 318.949 1209.89 292.696 1134.79 283.577 1056.7 C 274.085 974.714 280.545 896.424 309.032 818.642 C 388.328 602.129 597.144 468.978 820.589 443.201 C 812.927 423.47 807.256 408.723 797.785 389.97 C 793.587 393.35 789.215 396.509 784.688 399.434 C 753.906 419.157 706.447 423.416 671.442 415.02 C 558.714 387.982 502.342 261.694 487.096 156.742 C 486.183 150.458 484.775 146.121 486.231 139.61 C 491.829 131.037 508.819 129.959 518.459 128.494 C 626.922 112.012 750.294 146.345 800.406 252.429 C 818.232 290.165 823.756 336.052 809.529 375.766 C 820.277 397.16 829.625 419.23 837.514 441.835 C 841.753 441.543 845.989 441.206 850.221 440.824 C 853.42 418.737 859.921 397.258 869.505 377.104 C 857.44 361.756 852.195 339.704 850.643 320.826 C 842.046 216.297 931.936 136.604 1026.08 112.493 C 1048.84 106.664 1067.41 104.216 1090.53 102.413 z"/>
<path transform="translate(0,0)" fill="rgb(212,234,199)" d="M 345.161 779.925 C 564.062 330.07 1327.19 347.983 1496.27 830.729 C 1541.07 958.652 1521.88 1109.1 1462.98 1228.93 C 1452 1251.26 1415.56 1312.76 1398.01 1329.35 C 1391.43 1339.92 1367.24 1366.9 1358.06 1376.3 C 1239.99 1497.27 1062.34 1557.45 895.96 1560.2 C 748.584 1562.63 578.961 1509.06 471.808 1405.22 C 491 1388.69 506.275 1373.39 516.645 1350.19 C 506.308 1356.49 485.693 1373.15 475.402 1380.9 C 429.029 1415.83 381.354 1439.8 321.511 1437.8 C 265.526 1435.93 204.911 1417.41 165.716 1375.52 C 151.401 1360.22 137.971 1338.64 138.652 1316.98 C 139.166 1287.88 162.797 1273.1 189.272 1273.21 C 213.265 1272.69 220.92 1279.87 216.679 1250.71 C 211.846 1217.48 232.381 1203.3 253.913 1233.47 C 262.17 1245.04 278.718 1263.1 290.408 1271.2 C 318.01 1290.43 352.159 1297.82 385.243 1291.72 C 415.428 1286.15 438.532 1272.35 455.787 1247.15 L 442.911 1252.79 C 417.507 1263.3 406.6 1268.52 379.62 1273.94 C 357.244 1239.4 339.179 1202.26 325.828 1163.34 C 284.148 1038.92 285.947 898.528 345.161 779.925 z"/>
<path transform="translate(0,0)" fill="rgb(167,206,158)" d="M 138.652 1316.98 C 173.337 1365.25 223.677 1390.33 281.662 1399.47 C 362.375 1412.19 442.021 1384.49 506.895 1337.47 C 509.988 1335.26 513.021 1332.96 515.989 1330.57 C 608.026 1412.02 749.592 1464.41 870.195 1479.75 C 916.669 1485.27 963.545 1486.59 1010.26 1483.71 C 1092.86 1478.62 1196.83 1451.11 1270.27 1412.51 C 1292.69 1400.56 1314.49 1387.48 1335.59 1373.33 C 1348.8 1364.4 1361.68 1355 1374.2 1345.13 C 1379.83 1340.78 1391.43 1330.2 1398.01 1329.35 C 1391.43 1339.92 1367.24 1366.9 1358.06 1376.3 C 1239.99 1497.27 1062.34 1557.45 895.96 1560.2 C 748.584 1562.63 578.961 1509.06 471.808 1405.22 C 491 1388.69 506.275 1373.39 516.645 1350.19 C 506.308 1356.49 485.693 1373.15 475.402 1380.9 C 429.029 1415.83 381.354 1439.8 321.511 1437.8 C 265.526 1435.93 204.911 1417.41 165.716 1375.52 C 151.401 1360.22 137.971 1338.64 138.652 1316.98 z"/>
<path transform="translate(0,0)" fill="rgb(167,206,158)" d="M 345.161 779.925 C 348.398 790.494 343.745 807.87 341.882 819.314 C 339.193 835.606 337.343 852.024 336.337 868.505 C 329.747 987.71 354.475 1103.12 414.565 1206.78 C 420.244 1216.57 436.963 1245.69 442.911 1252.79 C 417.507 1263.3 406.6 1268.52 379.62 1273.94 C 357.244 1239.4 339.179 1202.26 325.828 1163.34 C 284.148 1038.92 285.947 898.528 345.161 779.925 z"/>
<path transform="translate(0,0)" fill="rgb(42,20,37)" d="M 1145.12 764.352 C 1170.25 761.9 1197.44 771.252 1217.16 786.016 C 1279.82 832.915 1294.05 938.805 1233.67 993.339 C 1216.29 1009.03 1199.02 1015.49 1176.24 1018.65 C 1063.31 1025.63 1013.51 883.851 1077.22 802.583 C 1093.77 781.197 1118.26 767.409 1145.12 764.352 z"/>
<path transform="translate(0,0)" fill="rgb(255,255,255)" d="M 1188.45 804.111 C 1227.53 800.562 1245.52 857.381 1206.68 873.717 C 1167.98 876.58 1150.03 821.824 1188.45 804.111 z"/>
<path transform="translate(0,0)" fill="rgb(255,255,255)" d="M 1212.16 892.595 C 1220.46 891.363 1228.17 897.11 1229.37 905.412 C 1230.57 913.714 1224.79 921.407 1216.48 922.569 C 1208.22 923.723 1200.59 917.985 1199.4 909.733 C 1198.21 901.481 1203.91 893.819 1212.16 892.595 z"/>
<path transform="translate(0,0)" fill="rgb(42,20,37)" d="M 694.254 803.387 C 717.844 801.244 741.403 807.809 760.486 821.844 C 844.64 883.334 833.776 1040.07 722.252 1055.99 C 572.838 1064.94 550.461 819.241 694.254 803.387 z"/>
<path transform="translate(0,0)" fill="rgb(255,255,255)" d="M 740.216 838.179 C 776.908 839.081 788.999 895.583 750.618 907.224 C 711.003 906.851 700.828 848.957 740.216 838.179 z"/>
<path transform="translate(0,0)" fill="rgb(255,255,255)" d="M 754.798 927.776 C 760.001 925.935 765.793 927.049 769.94 930.69 C 774.088 934.33 775.945 939.928 774.794 945.326 C 773.643 950.723 769.665 955.078 764.394 956.71 C 756.464 959.166 748.027 954.825 745.414 946.946 C 742.801 939.067 746.973 930.545 754.798 927.776 z"/>
<path transform="translate(0,0)" fill="rgb(255,255,255)" d="M 1076.14 512.307 C 1119.45 508.683 1169.24 527.818 1206.64 550.417 C 1225.7 561.928 1290.05 611.314 1264.56 641.25 C 1259.26 647.475 1249.2 649.651 1241.23 650.824 C 1196.98 654.681 1146.67 632.552 1108.13 609.452 C 1090.23 598.724 1032.15 554.924 1049.74 524.787 C 1054.22 517.105 1067.19 513.616 1076.14 512.307 z"/>
<path transform="translate(0,0)" fill="rgb(236,166,168)" d="M 1312.73 977.423 C 1336.15 973.983 1390.21 982.368 1393.84 1013.22 C 1397.78 1046.66 1345.98 1063.79 1319.24 1066.44 C 1297.41 1069.8 1269.46 1064.56 1251.15 1051.6 C 1234.83 1040.05 1231.55 1022.76 1244.94 1007.13 C 1261.4 987.914 1288.19 979.413 1312.73 977.423 z"/>
<path transform="translate(0,0)" fill="rgb(236,166,168)" d="M 606.863 1049.44 C 628.156 1049.78 649.774 1052.76 667.186 1066.06 C 682.922 1078.08 684.053 1097.07 670.026 1110.95 C 651.069 1129.71 621.524 1136.29 595.767 1137.23 C 573.587 1137.32 550.223 1135.55 532.136 1121.18 C 517.499 1109.56 517.356 1090.72 530.173 1077.6 C 550.469 1056.84 578.836 1050.6 606.863 1049.44 z"/>
<path transform="translate(0,0)" fill="rgb(42,20,37)" d="M 1018.33 1027 C 1029.65 1026.32 1037.91 1032.58 1030.74 1043.07 C 1004.64 1081.2 936.935 1085.44 899.079 1064.98 C 892.515 1059.78 884.803 1048.61 890.739 1040.61 C 899.662 1034.61 904.318 1042.19 910.649 1046.72 C 923.858 1056.18 948.32 1057.07 963.763 1055.63 C 988.124 1053.34 1002.79 1045.64 1018.33 1027 z"/>
<path transform="translate(0,0)" fill="rgb(254,253,254)" d="M 1614.52 1022.47 C 1620.84 1023.76 1626.59 1025.46 1632.79 1027.23 L 1658.76 1034.85 C 1652.21 1050.15 1641.86 1069.48 1663.56 1077.42 C 1706.28 1093.04 1749.92 1106.35 1792.79 1121.61 C 1816.78 1130.15 1819.56 1114.42 1824.79 1096.23 C 1835.62 1098.87 1850.98 1103.56 1861.58 1107.41 C 1851.83 1138.75 1841.84 1170 1831.61 1201.18 C 1825.74 1219.23 1818.61 1239.61 1813.7 1257.76 C 1791 1264.32 1775.32 1277.24 1763.82 1298.04 C 1752.22 1318.54 1749.38 1342.85 1755.92 1365.48 C 1760.19 1380.03 1766.33 1389.1 1775.68 1400.66 C 1770.24 1415.89 1765.63 1432.49 1759.98 1447.17 C 1753.14 1468.6 1744.97 1493.92 1736.96 1514.77 C 1665.26 1489.35 1593.05 1466.74 1520.58 1443.69 C 1507.47 1439.52 1493.92 1436.01 1481.19 1430.87 C 1492.11 1399.63 1502.27 1366.8 1512.59 1335.23 L 1586.04 1109.23 C 1595.32 1081.04 1604.57 1050.12 1614.52 1022.47 z"/>
<path transform="translate(0,0)" fill="rgb(255,255,255)" d="M 1614.52 1022.47 C 1620.84 1023.76 1626.59 1025.46 1632.79 1027.23 C 1628.65 1033.8 1611.45 1087.84 1607.5 1099.8 L 1573.07 1206 C 1566.36 1226.46 1558.05 1248.14 1552.39 1268.85 C 1544.49 1297.74 1536.88 1326.37 1528.06 1355.05 C 1522.66 1372.6 1521.98 1392.7 1517.47 1410.86 C 1563.8 1432.32 1616.41 1446.01 1664.58 1463.06 C 1682.96 1469.56 1704.91 1476.76 1723.74 1469 C 1737.22 1464.64 1750.49 1449.98 1759.98 1447.17 C 1753.14 1468.6 1744.97 1493.92 1736.96 1514.77 C 1665.26 1489.35 1593.05 1466.74 1520.58 1443.69 C 1507.47 1439.52 1493.92 1436.01 1481.19 1430.87 C 1492.11 1399.63 1502.27 1366.8 1512.59 1335.23 L 1586.04 1109.23 C 1595.32 1081.04 1604.57 1050.12 1614.52 1022.47 z"/>
<path transform="translate(0,0)" fill="rgb(0,0,0)" d="M 1667.4 1161.85 C 1681.78 1165.01 1701.48 1172.45 1715.91 1176.77 C 1723.95 1179.17 1745.72 1185.92 1752.33 1189.38 C 1754.23 1192.54 1753.54 1191.86 1752.85 1196.58 C 1745.38 1196.04 1670.25 1172.81 1666.11 1169.12 C 1665.24 1166.12 1666.2 1164.79 1667.4 1161.85 z"/>
<path transform="translate(0,0)" fill="rgb(0,0,0)" d="M 1612.27 1339.35 C 1621.63 1341.41 1693.2 1364.65 1699.16 1368.22 C 1700.76 1371.53 1700.23 1370.6 1699.58 1374.96 C 1692.5 1374.97 1621 1351.65 1612.98 1347.38 C 1611.11 1343.77 1611.84 1344.2 1612.27 1339.35 z"/>
<path transform="translate(0,0)" fill="rgb(0,0,0)" d="M 1642.28 1253.56 C 1649.98 1253.87 1715.94 1274.5 1722.13 1278.64 C 1723.39 1282.12 1722.91 1281.19 1721.65 1285.56 C 1716.61 1285.75 1649.7 1264.67 1643.36 1261.51 C 1641.26 1257.78 1641.98 1258.63 1642.28 1253.56 z"/>
<path transform="translate(0,0)" fill="rgb(0,0,0)" d="M 1656.8 1134.61 C 1659.36 1134.51 1658.47 1134.5 1661.04 1135.33 C 1663 1138.49 1662.55 1136.79 1662.27 1140.63 C 1657.64 1148.49 1633.6 1165.13 1625.2 1170.36 C 1621.73 1165.79 1618.05 1158.59 1615.19 1153.39 C 1611.53 1148.15 1607.64 1144.73 1610.51 1138.59 C 1617.58 1134.06 1625.2 1151.56 1628.39 1157 C 1637.18 1149.49 1647.37 1141.15 1656.8 1134.61 z"/>
<path transform="translate(0,0)" fill="rgb(0,0,0)" d="M 1630.69 1228.84 C 1633.44 1230.79 1633.27 1230.62 1634.83 1233.61 C 1634.67 1234.52 1634.51 1235.44 1634.35 1236.35 C 1623.25 1245.18 1608.18 1254.1 1597.1 1262.91 C 1594.48 1257.74 1591.75 1252.62 1588.93 1247.56 C 1585.99 1243.15 1582.87 1238.89 1585.31 1233.73 L 1587.56 1233.43 C 1595.19 1236.66 1595.94 1240.29 1599.9 1247.88 C 1610.58 1242.07 1618.43 1234.78 1630.69 1228.84 z"/>
<path transform="translate(0,0)" fill="rgb(0,0,0)" d="M 1596.87 1315.72 C 1599.03 1315.62 1598.67 1315.78 1600.87 1316.43 C 1602.9 1319.24 1602.43 1317.71 1602.31 1321.18 C 1599.42 1326.74 1576.99 1347.61 1571.82 1347.16 C 1568.07 1343.76 1566.36 1339.61 1563.97 1335.08 C 1561.38 1331.26 1556.1 1324.47 1559.32 1319.96 C 1566.07 1319.71 1571.41 1329.69 1574.49 1334.5 C 1581.89 1328.16 1589.35 1321.9 1596.87 1315.72 z"/>
<path transform="translate(0,0)" fill="rgb(212,234,199)" d="M 977.996 1573.34 C 1032.65 1566.65 1074.43 1557.04 1126.86 1539.47 C 1128.82 1551.81 1130.96 1593.34 1130.92 1606.55 C 1131.84 1643.6 1131.56 1680.67 1130.06 1717.7 C 1129.51 1732.82 1122.53 1835.84 1124.71 1843.38 C 1128.99 1846.91 1134.18 1848.87 1139.18 1851.38 C 1155.62 1859.63 1165.88 1867.54 1173.05 1884.82 C 1173.61 1899.87 1161.97 1906.29 1149 1910.33 C 1110.07 1922.44 1067.56 1919.64 1027.98 1912.06 C 1012.83 1909.17 996.298 1904.19 983.991 1894.58 C 975.803 1888.2 975.159 1879.46 974.415 1869.95 C 973.47 1843.5 975.892 1809 976.681 1782.08 C 977.723 1738.9 978.52 1695.71 979.073 1652.52 C 978.522 1643.48 978.99 1629.71 978.972 1620.32 C 978.899 1604.66 978.573 1588.99 977.996 1573.34 z"/>
<path transform="translate(0,0)" fill="rgb(167,206,158)" d="M 977.996 1573.34 C 1032.65 1566.65 1074.43 1557.04 1126.86 1539.47 C 1128.82 1551.81 1130.96 1593.34 1130.92 1606.55 C 1130.19 1602.99 1130.49 1600.8 1128.32 1599.01 C 1115.14 1601.97 1100.75 1607.07 1086.87 1610.48 C 1051.85 1619.24 1016.04 1624.45 979.984 1626.04 C 979.907 1633.79 980.131 1645.12 979.073 1652.52 C 978.522 1643.48 978.99 1629.71 978.972 1620.32 C 978.899 1604.66 978.573 1588.99 977.996 1573.34 z"/>
<path transform="translate(0,0)" fill="rgb(167,206,158)" d="M 974.415 1869.95 C 1018.61 1896.56 1114.17 1899.72 1164.58 1890.23 C 1168.83 1889.43 1171.32 1888.87 1173.05 1884.82 C 1173.61 1899.87 1161.97 1906.29 1149 1910.33 C 1110.07 1922.44 1067.56 1919.64 1027.98 1912.06 C 1012.83 1909.17 996.298 1904.19 983.991 1894.58 C 975.803 1888.2 975.159 1879.46 974.415 1869.95 z"/>
<path transform="translate(0,0)" fill="rgb(212,234,199)" d="M 733.889 1561.21 C 788.887 1573.32 830.089 1577.11 885.9 1578.6 C 885.973 1594.06 886.827 1622.54 885.386 1636.78 C 884.509 1687.08 882.371 1737.35 878.974 1787.55 C 877.136 1813.72 874.79 1845.01 870.606 1870.71 C 869.744 1878.09 868.432 1890.35 861.375 1894.63 C 824.212 1917.16 770.936 1916.25 728.828 1911.91 C 712.684 1910.25 674.36 1901.2 676.11 1880.07 C 683.699 1857.33 703.475 1848.59 722.738 1838.11 C 728.121 1764.44 731.522 1690.65 732.936 1616.8 C 733.282 1598.49 734.024 1579.43 733.889 1561.21 z"/>
<path transform="translate(0,0)" fill="rgb(167,206,158)" d="M 733.889 1561.21 C 788.887 1573.32 830.089 1577.11 885.9 1578.6 C 885.973 1594.06 886.827 1622.54 885.386 1636.78 L 884.533 1634.62 C 883.391 1634.23 843.486 1632.6 842.272 1632.82 C 825.63 1635.8 738.972 1615.02 732.936 1616.8 C 733.282 1598.49 734.024 1579.43 733.889 1561.21 z"/>
<path transform="translate(0,0)" fill="rgb(167,206,158)" d="M 676.11 1880.07 C 678.461 1882.88 696.7 1888.71 701.463 1889.98 C 756.373 1904.66 820.914 1897.09 870.606 1870.71 C 869.744 1878.09 868.432 1890.35 861.375 1894.63 C 824.212 1917.16 770.936 1916.25 728.828 1911.91 C 712.684 1910.25 674.36 1901.2 676.11 1880.07 z"/>
<path transform="translate(0,0)" fill="rgb(212,234,199)" d="M 876.594 357.679 C 847.344 290.788 883.702 215.091 938.472 174.04 C 1000.87 127.271 1078.95 112.138 1155.09 122.004 C 1153.04 146.405 1150.44 162.932 1145.75 187.027 C 1137.66 226.427 1126.67 258.989 1106.83 294.246 C 1070.48 358.862 1001.2 403.711 925.461 388.563 C 912.526 385.976 898.704 381.047 888.231 372.689 C 889.809 369.228 892.147 363.585 894.224 360.639 C 917.067 313.548 966.577 260.491 1007.33 228.044 C 1021.38 216.859 1038.36 207.049 1051.26 196.14 C 1054.06 186.722 1045.65 179.631 1039.38 183.539 C 972.652 225.121 911.677 287.069 876.594 357.679 z"/>
<path transform="translate(0,0)" fill="rgb(167,206,158)" d="M 1145.75 187.027 C 1137.66 226.427 1126.67 258.989 1106.83 294.246 C 1070.48 358.862 1001.2 403.711 925.461 388.563 C 912.526 385.976 898.704 381.047 888.231 372.689 C 889.809 369.228 892.147 363.585 894.224 360.639 C 995.272 382.049 1089.58 336.492 1124.31 239.131 C 1128.35 227.801 1138.29 196.225 1144.53 188.506 L 1145.75 187.027 z"/>
<path transform="translate(0,0)" fill="rgb(212,234,199)" d="M 503.766 148.622 C 575.094 134.254 657.058 142.303 718.423 183.25 C 780.685 224.796 808.49 286.284 798.128 359.946 C 788.797 346.405 777.724 330.681 767.07 318.182 C 729.101 273.639 669.747 223.63 616.773 198.743 C 610.945 199.682 608.715 204.923 608.203 210.195 C 609.584 216.117 655.238 240.953 664.645 248.108 C 705.553 279.224 750.094 317.123 777.754 361.049 C 781.918 367.082 784.228 370.83 787.734 377.267 C 774.899 388.796 757.875 394.448 741.395 398.536 C 701.599 408.409 658.949 399.107 624.437 377.476 C 569.71 343.177 528.16 264.218 514.499 201.864 C 509.768 183.353 505.781 167.765 503.766 148.622 z"/>
<path transform="translate(0,0)" fill="rgb(167,206,158)" d="M 514.499 201.864 C 514.744 202.131 514.99 202.399 515.236 202.666 C 524.828 215.215 531.269 235.622 538.291 250.415 C 569.591 319.679 620.245 372.629 700.33 377.869 C 723.739 379.4 745.891 376.751 767.507 366.639 C 770.697 365.146 775.534 363.54 777.754 361.049 C 781.918 367.082 784.228 370.83 787.734 377.267 C 774.899 388.796 757.875 394.448 741.395 398.536 C 701.599 408.409 658.949 399.107 624.437 377.476 C 569.71 343.177 528.16 264.218 514.499 201.864 z"/>
<path transform="translate(0,0)" fill="rgb(212,234,199)" d="M 1827.04 1272.29 C 1858.45 1271.79 1882.49 1290.22 1889.54 1320.67 C 1893.89 1340.11 1890.15 1360.47 1879.2 1377.1 C 1868.3 1393.99 1854.66 1401.95 1835.47 1406.03 C 1820.28 1406.92 1808.26 1404.67 1795.47 1395.49 C 1781.6 1385.6 1772.36 1370.48 1769.89 1353.63 C 1766.8 1333.47 1771.96 1312.91 1784.2 1296.6 C 1795.25 1282.1 1809.17 1274.65 1827.04 1272.29 z"/>
<path transform="translate(0,0)" fill="rgb(255,255,255)" d="M 1756.47 971.183 C 1764.86 970.573 1771.39 971.03 1779.03 975.159 C 1786.65 979.297 1792.21 986.429 1794.35 994.838 C 1797.74 1007.88 1792.43 1017.07 1786.29 1027.76 C 1794.71 1030.69 1816.03 1036.02 1820.52 1042.16 C 1823.38 1053.63 1807.97 1093.63 1803.57 1106.95 C 1786.6 1100.84 1769.31 1094.99 1752.26 1089.07 C 1725.34 1079.23 1693.73 1070.28 1668.41 1060.22 C 1672.99 1047.46 1685.52 1005.43 1693.38 998.716 C 1700.32 997.621 1720.37 1004.98 1728.78 1007.25 C 1731.46 988.034 1736.77 976.934 1756.47 971.183 z"/>
<path transform="translate(0,0)" fill="rgb(185,158,152)" d="M 1600.92 994.858 C 1609.79 994.262 1663.61 1009.91 1665.07 1017.69 C 1659.09 1022.36 1614.23 999.975 1606.76 1007.39 C 1595.44 1018.63 1585.84 1058.38 1580.74 1073.58 C 1558.19 1141.62 1536.05 1209.81 1514.34 1278.12 C 1503.99 1309.61 1493.47 1341.04 1482.77 1372.4 C 1476.68 1390.2 1470.18 1407.94 1465.01 1426.01 C 1462.34 1435.33 1465.84 1443.99 1475.28 1447.22 C 1493.36 1453.4 1511.57 1459.21 1529.77 1465.05 L 1635.21 1498.92 C 1657.82 1506.37 1680.39 1513.94 1702.92 1521.63 C 1716.03 1526.06 1733.12 1532.36 1746.35 1535.07 C 1753.18 1523.98 1774.66 1456.44 1779.69 1441.25 L 1789.71 1411.69 L 1800.09 1417.13 C 1792.85 1437.62 1762.42 1535.35 1753.17 1544.23 C 1751.51 1545.83 1749.91 1546.01 1747.68 1545.85 C 1739.52 1545.25 1728.6 1540.07 1720.72 1537.45 L 1664 1518.7 L 1523.24 1472.73 C 1503.26 1466.07 1482.92 1459.65 1463.29 1452.59 C 1442.85 1445.23 1451.06 1428.83 1456.57 1414.2 C 1458.96 1407.84 1461.3 1401.3 1463.61 1394.94 C 1471.49 1373.17 1479.21 1351.36 1486.78 1329.48 C 1515.25 1246.89 1542.49 1163.88 1568.51 1080.47 L 1585.3 1027.23 C 1589.46 1014.05 1590.16 1003.93 1600.92 994.858 z"/>
<path transform="translate(0,0)" fill="rgb(167,206,158)" d="M 1516 1143.27 C 1520.71 1143.02 1525.89 1142.99 1530.64 1142.86 C 1515.11 1189.93 1498.2 1241.78 1481.49 1288.39 L 1471.25 1285.07 C 1466.91 1283.85 1459.54 1282.48 1454.93 1281.48 C 1486.19 1230.65 1497.44 1198.59 1516 1143.27 z"/>
<path transform="translate(0,0)" fill="rgb(185,158,152)" d="M 1831.45 1072.19 C 1841.98 1074.5 1855.35 1079.29 1864.91 1081.62 C 1901.67 1090.57 1893.93 1106.06 1883.92 1134.79 C 1881.32 1142.28 1877.78 1152.57 1875.01 1160.55 C 1863.85 1192.15 1853.13 1223.91 1842.85 1255.8 C 1840.38 1256.68 1837.16 1256.73 1834.79 1255.55 C 1833.97 1253.49 1833.85 1252.5 1834.24 1250.22 C 1835.9 1240.37 1840.79 1229.55 1843.96 1220.05 C 1849.03 1204.86 1881.53 1111.16 1879.52 1102.75 C 1876.12 1088.46 1843.67 1086.7 1832.42 1079.93 C 1830.26 1076.45 1831.01 1077.27 1831.45 1072.19 z"/>
<path transform="translate(0,0)" fill="rgb(0,0,0)" fill-opacity="0.12549" d="M 1497.74 775.768 C 1501.41 779.911 1501.74 782.4 1503.96 787.487 L 1503.22 787.691 C 1500.69 785.881 1498.7 778.828 1497.74 775.768 z"/>
</svg>