<svg version="1.1" xmlns="http://www.w3.org/2000/svg" viewBox="0 0 2048 2048" width="768" height="768">
<path transform="translate(0,0)" fill="rgb(42,17,37)" d="M 913.205 382.243 C 908.252 375.018 904.253 367.182 901.309 358.932 C 887.222 320.486 892.489 273.769 910.158 237.518 C 963.21 128.675 1095.09 89.3174 1208.2 104.179 C 1211.61 104.628 1217.78 105.586 1220.59 107.159 C 1228.68 111.687 1222.95 141.543 1222.17 147.639 C 1212.36 224.351 1186.41 303.716 1130.68 359.544 C 1078.86 411.114 990.751 433.92 926.062 393.098 C 919.628 416.439 915.942 418.392 912.247 445.655 C 1041.21 435.468 1170.48 461.084 1285.8 519.681 C 1418.64 587.091 1527.29 702.777 1574.09 845.582 C 1584.15 876.302 1591.84 907.278 1594.59 939.577 C 1600.55 929.712 1604.89 918.586 1610.42 907.729 C 1632.82 862.61 1686.17 797.829 1742.26 805.4 C 1793.11 812.264 1799.21 897.24 1790.24 933.438 C 1766.25 1030.32 1642.34 1149.32 1564.86 1201.45 C 1557.84 1221.29 1549.82 1240.76 1540.83 1259.79 C 1471.83 1403.5 1348.37 1513.75 1197.81 1566.12 C 1202.46 1635.36 1202.96 1704.81 1199.32 1774.11 C 1198.28 1793.66 1197.04 1813.2 1195.6 1832.72 C 1194.73 1844.23 1193.23 1857.16 1193.29 1868.5 C 1206.76 1873.49 1215.53 1880.7 1226.49 1889.52 C 1248.96 1893.94 1332.56 1910.46 1325.63 1941.18 C 1318.72 1971.8 1226.65 1988.39 1200.02 1992.59 C 1066.91 2013.58 929.287 2014.24 795.599 1999.13 C 758.262 1994.89 643.565 1980.03 623.61 1945.62 C 622.698 1944.02 621.838 1942.39 621.032 1940.74 C 622.626 1930.7 625.692 1925.05 634.423 1919.06 C 653.619 1905.88 688.708 1895.85 711.766 1892.48 C 726.066 1877.27 733.546 1871.56 751.679 1861.5 C 758.736 1771.5 762.525 1681.27 763.039 1590.99 C 650.497 1560.06 576.389 1519.73 488.591 1442.36 C 477.057 1501.18 470.158 1564.86 427.575 1609.7 C 353.647 1687.54 296.669 1592.45 298.056 1519.93 C 299.472 1445.89 342.054 1360.53 392.49 1308.59 C 346.277 1243.28 319.907 1160.31 309.508 1081.21 C 265.836 748.987 542.701 483.887 864.07 449.692 C 858.183 431.174 849.74 414.364 842.319 396.514 C 838.548 399.282 834.649 401.871 830.635 404.272 C 794.577 426.191 749.959 430.185 709.511 419.776 C 603.14 392.401 546.233 272.264 528.784 172.329 C 527.137 162.9 523.303 148.093 525.559 139.117 C 531.669 130.89 547.111 130.946 556.973 129.337 C 681.469 109.025 823.319 159.329 857.223 292.599 C 864.965 323.034 864.131 353.202 854.499 383.734 C 866.928 409.475 871.96 419.402 881.243 447.435 L 895.639 446.142 C 895.687 425.546 904.802 400.783 913.205 382.243 z M 940.654 1878.95 C 960.915 1878.64 985.246 1878.58 1005.31 1880 C 1007.11 1871.57 1007.98 1821.9 1008.33 1809.92 C 1010.77 1743.23 1011.5 1676.49 1010.53 1609.77 C 991.062 1611.74 971.514 1612.88 951.945 1613.19 C 952.822 1647.25 951.403 1686.14 950.177 1720.22 C 948.706 1773.22 945.53 1826.16 940.654 1878.95 z"/>
<path transform="translate(0,0)" fill="rgb(239,232,240)" d="M 940.654 1878.95 C 960.915 1878.64 985.246 1878.58 1005.31 1880 C 1004.46 1899.83 1001.5 1926.61 1016.1 1941.93 C 1043.43 1967.77 1095.75 1973.28 1131.82 1974.66 C 1162.49 1975.84 1211.05 1972.53 1234.3 1950.83 C 1254.18 1932.27 1241.69 1906.63 1226.49 1889.52 C 1248.96 1893.94 1332.56 1910.46 1325.63 1941.18 C 1318.72 1971.8 1226.65 1988.39 1200.02 1992.59 C 1066.91 2013.58 929.287 2014.24 795.599 1999.13 C 758.262 1994.89 643.565 1980.03 623.61 1945.62 C 622.698 1944.02 621.838 1942.39 621.032 1940.74 C 622.626 1930.7 625.692 1925.05 634.423 1919.06 C 653.619 1905.88 688.708 1895.85 711.766 1892.48 C 681.981 1947.53 740.155 1964.33 783.039 1968.62 C 826.937 1973.02 885.757 1970.03 922.936 1944.77 C 939.319 1933.64 939.118 1897.17 940.654 1878.95 z"/>
<path transform="translate(0,0)" fill="rgb(212,234,199)" d="M 372.913 797.817 C 595.895 335.866 1381.22 348.333 1556.23 847.796 C 1601.88 978.085 1580.95 1135.3 1521 1257.99 C 1504.04 1293.24 1483.15 1326.45 1458.74 1357.01 C 1378.75 1462.64 1268.69 1527.01 1143.02 1564.19 C 1107.1 1575.18 1070.38 1583.36 1033.19 1588.63 C 864.049 1612 686.61 1573.15 549.422 1469.37 C 528.651 1453.66 515.004 1441.46 495.997 1423.72 C 503.759 1403.22 514.138 1372.58 523.302 1353.63 C 484.173 1384.24 471.353 1429.62 463.612 1476.29 C 462.411 1471.66 456.343 1466.56 452.766 1463.03 C 429.883 1440.43 409.961 1414.74 392.693 1387.64 C 386.683 1378.21 382.475 1365.94 375.738 1357 C 393.255 1329.05 424.007 1295.61 447.509 1272.85 C 432.064 1279.93 420.106 1287.03 406.309 1296.81 C 379.884 1256.53 359.528 1212.58 345.896 1166.38 C 314.59 1064.13 315.963 954.654 349.823 853.218 C 356.313 834.373 363.47 815.386 372.913 797.817 z"/>
<path transform="translate(0,0)" fill="rgb(167,205,158)" d="M 372.913 797.817 C 372.997 798.109 373.086 798.399 373.164 798.692 C 375.651 808.039 366.125 855.5 364.819 869.286 C 363.09 887.535 362.351 906.284 362.405 924.619 C 362.177 962.638 365.297 1000.6 371.73 1038.07 C 399.225 1192.74 486.921 1330.34 622.546 1411.63 C 751.572 1488.93 900.818 1525.74 1050.99 1517.32 C 1151.42 1511.68 1251.36 1483.91 1340.13 1435.88 C 1380.02 1414.29 1417 1386.4 1452.86 1358.79 C 1454.92 1357.17 1456.23 1357.05 1458.74 1357.01 C 1378.75 1462.64 1268.69 1527.01 1143.02 1564.19 C 1107.1 1575.18 1070.38 1583.36 1033.19 1588.63 C 864.049 1612 686.61 1573.15 549.422 1469.37 C 528.651 1453.66 515.004 1441.46 495.997 1423.72 C 503.759 1403.22 514.138 1372.58 523.302 1353.63 C 484.173 1384.24 471.353 1429.62 463.612 1476.29 C 462.411 1471.66 456.343 1466.56 452.766 1463.03 C 429.883 1440.43 409.961 1414.74 392.693 1387.64 C 386.683 1378.21 382.475 1365.94 375.738 1357 C 393.255 1329.05 424.007 1295.61 447.509 1272.85 C 432.064 1279.93 420.106 1287.03 406.309 1296.81 C 379.884 1256.53 359.528 1212.58 345.896 1166.38 C 314.59 1064.13 315.963 954.654 349.823 853.218 C 356.313 834.373 363.47 815.386 372.913 797.817 z"/>
<path transform="translate(0,0)" fill="rgb(42,17,37)" d="M 1202.4 782.402 C 1320.67 782.064 1370.75 961.638 1273.05 1026.22 C 1256.83 1036.94 1241.09 1040.73 1222.09 1042.8 C 1191.41 1043.62 1167.83 1034.8 1144.01 1015.21 C 1064.98 950.186 1088.42 789.64 1202.4 782.402 z"/>
<path transform="translate(0,0)" fill="rgb(255,255,255)" d="M 1244.33 822.271 C 1283.19 824.637 1295.38 883.768 1255 894.467 C 1248.05 894.284 1243.24 893.242 1237.15 889.592 C 1227.45 883.662 1220.65 873.968 1218.37 862.829 C 1214.25 842.887 1223.89 826.035 1244.33 822.271 z"/>
<path transform="translate(0,0)" fill="rgb(255,255,255)" d="M 1261.08 913.691 C 1269.26 910.967 1278.09 915.375 1280.83 923.543 C 1283.57 931.711 1279.18 940.556 1271.02 943.313 C 1262.84 946.077 1253.96 941.672 1251.21 933.48 C 1248.46 925.289 1252.89 916.422 1261.08 913.691 z"/>
<path transform="translate(0,0)" fill="rgb(42,17,37)" d="M 729.898 823.375 C 755.084 820.361 780.489 826.833 801.163 841.529 C 886.425 901.537 877.942 1062.36 764.478 1080.87 C 733.023 1082.26 713.001 1077.47 686.989 1058.74 C 604.914 999.625 618.617 837.603 729.898 823.375 z"/>
<path transform="translate(0,0)" fill="rgb(255,255,255)" d="M 781.382 858.17 C 818.095 858.515 830.219 920.832 789.685 929 C 751.198 926.535 741.379 868.348 781.382 858.17 z"/>
<path transform="translate(0,0)" fill="rgb(255,255,255)" d="M 798.27 948.078 C 800.345 948.201 801.75 948.367 803.749 948.913 C 808.311 950.111 812.129 953.227 814.218 957.455 C 816.278 961.681 816.469 966.578 814.745 970.952 C 812.356 977.137 808.927 979.156 803.179 981.524 C 783.492 980.307 777.507 958.13 798.27 948.078 z"/>
<path transform="translate(0,0)" fill="rgb(255,255,255)" d="M 1122.35 519.277 C 1169.12 515.602 1219.78 534.357 1259.3 558.539 C 1284.69 575.795 1316.13 599.55 1323.76 630.957 C 1328.33 649.715 1314.21 657.824 1298.1 660.806 C 1253.04 665.341 1207.27 645.896 1166.77 623.983 C 1146.78 613.164 1080.21 566.5 1096.88 532.343 C 1100.64 524.631 1113.73 520.79 1122.35 519.277 z"/>
<path transform="translate(0,0)" fill="rgb(234,165,167)" d="M 1377.34 999.439 C 1396.16 998.77 1421.97 1003.96 1437.14 1016.12 C 1452.89 1028.74 1453.87 1048.69 1439.58 1063.17 C 1420.4 1082.6 1390.78 1090.85 1364.09 1091.97 C 1333.6 1092.41 1263.56 1075.51 1298.71 1028.81 C 1314.19 1008.26 1352.24 1000.8 1377.34 999.439 z"/>
<path transform="translate(0,0)" fill="rgb(234,165,167)" d="M 631.825 1074.39 C 652.898 1071.79 682.507 1075.82 700.948 1087.5 C 716.758 1097.52 724.415 1116.15 711.587 1132.22 C 695.164 1152.8 666.678 1159.68 641.693 1162.82 C 616.682 1164.17 589.423 1163.65 568.217 1148.36 C 553.107 1137.46 549.424 1119.61 561.908 1104.98 C 579.172 1084.75 606.403 1077.45 631.825 1074.39 z"/>
<path transform="translate(0,0)" fill="rgb(42,17,37)" d="M 1066.91 1050.88 C 1092.19 1050.56 1078.21 1071.77 1066.92 1080.71 C 1034.28 1106.52 977.663 1109.45 942.242 1088.64 C 935.805 1083.19 928.326 1072.29 935.376 1064.58 C 945.243 1059.34 949.16 1066.91 956.521 1072.08 C 966.238 1078.91 982.847 1080.6 994.438 1080.85 C 1014.38 1081.27 1036.55 1078.02 1052.6 1065.31 C 1056.71 1061.96 1062.56 1055.09 1066.91 1050.88 z"/>
<path transform="translate(0,0)" fill="rgb(212,234,199)" d="M 1028.77 1608.29 C 1087.03 1600.89 1124.45 1591.37 1179.82 1573.8 C 1180.53 1594.11 1182.66 1614.32 1183.05 1634.87 C 1184.42 1691.06 1183.43 1747.29 1180.08 1803.4 C 1178.9 1825.83 1176.73 1848.23 1175.05 1870.63 C 1174.82 1873.77 1175.11 1878.7 1177.97 1880.36 C 1198.65 1892.3 1215.74 1896.87 1225.13 1921.9 L 1225.13 1923.55 C 1225.18 1929.67 1225.11 1931.35 1220.79 1936.46 C 1209.76 1949.51 1172.24 1955.22 1155.42 1955.87 C 1121.13 1957.19 1058.93 1953.37 1031.51 1931.03 C 1023.66 1924.62 1023.75 1912.92 1023.22 1903.7 C 1023.05 1875.36 1025.33 1840.27 1026.29 1811.24 C 1027.86 1764.03 1028.82 1716.8 1029.17 1669.56 C 1028.8 1649.4 1029.16 1628.81 1028.77 1608.29 z"/>
<path transform="translate(0,0)" fill="rgb(167,205,158)" d="M 1028.77 1608.29 C 1087.03 1600.89 1124.45 1591.37 1179.82 1573.8 C 1180.53 1594.11 1182.66 1614.32 1183.05 1634.87 C 1178.93 1633.25 1161.32 1640.26 1155.12 1641.92 C 1125.75 1649.81 1097.4 1655.26 1067.31 1659.13 C 1061.37 1659.9 1032.97 1661.97 1030.62 1662.58 L 1029.17 1669.56 C 1028.8 1649.4 1029.16 1628.81 1028.77 1608.29 z"/>
<path transform="translate(0,0)" fill="rgb(167,205,158)" d="M 1023.22 1903.7 C 1025.94 1909.53 1033.62 1912.02 1039.92 1914.27 C 1056.22 1919.97 1072.98 1924.26 1090.02 1927.09 C 1112.93 1930.85 1212.86 1938.51 1225.13 1921.9 L 1225.13 1923.55 C 1225.18 1929.67 1225.11 1931.35 1220.79 1936.46 C 1209.76 1949.51 1172.24 1955.22 1155.42 1955.87 C 1121.13 1957.19 1058.93 1953.37 1031.51 1931.03 C 1023.66 1924.62 1023.75 1912.92 1023.22 1903.7 z"/>
<path transform="translate(0,0)" fill="rgb(212,234,199)" d="M 781.057 1596.31 C 836.435 1609.75 878.203 1612.24 934.496 1613.99 L 934.123 1664.67 C 934.087 1672.63 934.351 1689.11 933.125 1696.29 C 932.871 1728.58 930.787 1764.58 928.719 1796.87 C 926.471 1831.96 923.761 1872.3 918.581 1906.73 C 917.722 1913.77 916.936 1920.36 914.504 1927.09 C 880.972 1958.96 720.656 1964.51 721.964 1915.93 C 729.154 1892.45 749.341 1884.76 767.655 1873.88 C 770.341 1860.33 772.851 1817.27 773.697 1802.1 C 776.415 1753.35 779.487 1701.14 780 1652.3 C 780.63 1633.64 780.982 1614.98 781.057 1596.31 z"/>
<path transform="translate(0,0)" fill="rgb(167,205,158)" d="M 781.057 1596.31 C 836.435 1609.75 878.203 1612.24 934.496 1613.99 L 934.123 1664.67 C 934.087 1672.63 934.351 1689.11 933.125 1696.29 C 932.429 1687.98 933.129 1678.89 933.537 1670.5 C 876.26 1669.6 836.093 1665.36 780 1652.3 C 780.63 1633.64 780.982 1614.98 781.057 1596.31 z"/>
<path transform="translate(0,0)" fill="rgb(167,205,158)" d="M 721.964 1915.93 C 775.589 1946.18 865.828 1935.32 918.581 1906.73 C 917.722 1913.77 916.936 1920.36 914.504 1927.09 C 880.972 1958.96 720.656 1964.51 721.964 1915.93 z"/>
<path transform="translate(0,0)" fill="rgb(212,234,199)" d="M 920.712 361.658 C 911.081 341.91 909.428 315.917 911.499 294.57 C 915.867 249.54 944.307 205.192 979.772 177.703 C 1046.55 125.944 1125.71 113.178 1207.05 121.562 C 1204.18 146.144 1202.13 164.624 1196.32 188.668 C 1177.16 296.504 1100.03 414.581 973.85 394.564 C 958.612 392.147 945.815 386.313 932.737 378.305 C 934.821 374.078 936.985 369.346 939.451 365.378 C 971.716 301.764 1030.69 243.02 1090.33 204.414 C 1097.64 199.682 1104.62 195.464 1098.05 185.915 C 1090.81 181.012 1081.14 188.057 1075.05 192.187 C 1025.44 225.823 981.553 268.99 946.879 317.856 C 936.878 331.951 929.421 346.882 920.712 361.658 z"/>
<path transform="translate(0,0)" fill="rgb(167,205,158)" d="M 939.451 365.378 C 1049.94 382.46 1136.22 344.282 1176.81 236.132 C 1180.44 226.461 1189.19 192.972 1196.32 188.668 C 1177.16 296.504 1100.03 414.581 973.85 394.564 C 958.612 392.147 945.815 386.313 932.737 378.305 C 934.821 374.078 936.985 369.346 939.451 365.378 z"/>
<path transform="translate(0,0)" fill="rgb(212,234,199)" d="M 542.81 149.792 C 665.034 124.609 812.385 168.041 842.283 303.68 C 846.443 322.553 846.629 346.513 842.485 365.394 C 798.99 301.323 745.094 250.412 677.476 212.153 C 669.642 207.72 650.32 193.647 648.352 211.435 C 648.18 213.058 649.225 214.893 649.953 216.277 C 659.478 223.708 671.713 229.33 682.079 235.777 C 734.222 268.209 788.035 315.073 821.835 366.777 C 824.647 370.43 829.434 378.798 831.992 383.021 C 784.076 419.717 709.706 413.463 662.258 380.716 C 611.52 345.698 566.265 265.274 554.502 205.002 C 549.167 184.825 546.072 170.384 542.81 149.792 z"/>
<path transform="translate(0,0)" fill="rgb(167,205,158)" d="M 554.502 205.002 C 562.856 214.335 575.177 245.347 580.685 257.118 C 612.819 325.787 659.278 374.415 737.682 382.312 C 763.866 385.706 798.96 379.731 821.835 366.777 C 824.647 370.43 829.434 378.798 831.992 383.021 C 784.076 419.717 709.706 413.463 662.258 380.716 C 611.52 345.698 566.265 265.274 554.502 205.002 z"/>
<path transform="translate(0,0)" fill="rgb(212,234,199)" d="M 1615.15 941.004 C 1633.05 902.931 1649.03 873.605 1682.41 845.402 C 1709.59 820.95 1753.48 808.511 1768.2 853.792 C 1779.89 889.735 1776.37 935.368 1758.7 968.988 C 1731.11 1021.49 1684.82 1075.24 1641.18 1114.73 C 1639.67 1116.64 1629.64 1125.86 1627.48 1127.91 C 1610.49 1144.08 1592.42 1159.34 1574.56 1174.56 C 1586.75 1130.73 1594.61 1089.64 1597.31 1044.08 C 1598.63 1021.89 1597.4 996.259 1599.46 974.67 C 1599.73 971.873 1612.75 945.937 1615.15 941.004 z"/>
<path transform="translate(0,0)" fill="rgb(167,205,158)" d="M 1615.15 941.004 C 1619.58 946.898 1621.47 953.112 1623.93 959.991 C 1641.57 1009.32 1639.67 1059.9 1638.31 1111.26 C 1638.23 1114.23 1638.73 1113.59 1641.18 1114.73 C 1639.67 1116.64 1629.64 1125.86 1627.48 1127.91 C 1610.49 1144.08 1592.42 1159.34 1574.56 1174.56 C 1586.75 1130.73 1594.61 1089.64 1597.31 1044.08 C 1598.63 1021.89 1597.4 996.259 1599.46 974.67 C 1599.73 971.873 1612.75 945.937 1615.15 941.004 z"/>
<path transform="translate(0,0)" fill="rgb(212,234,199)" d="M 375.738 1357 C 382.475 1365.94 386.683 1378.21 392.693 1387.64 C 409.961 1414.74 429.883 1440.43 452.766 1463.03 C 456.343 1466.56 462.411 1471.66 463.612 1476.29 C 456.521 1513.34 450.866 1544.15 430.346 1576.36 C 381.465 1653.08 332.199 1621.07 318.606 1544.52 C 307.288 1480.78 340.921 1408.04 375.738 1357 z"/>
</svg>