<svg xmlns="http://www.w3.org/2000/svg" width="768" height="768" viewBox="0 0 2048 2048"><defs><linearGradient id="a" x1="340.597" x2="338.977" y1="1902.22" y2="1832.01" gradientUnits="userSpaceOnUse"><stop class="stop0" offset="0" stop-color="#93624c"/><stop class="stop1" offset="1" stop-color="#a9785e"/></linearGradient></defs><path fill="#2b1426" d="M1346.2 121.508c11.19-.671 27.95-.958 38.61 1.87 7.83 2.079 5.23 26.882 5.05 33.612-2.6 101.854-39.3 218.373-143.03 257.923-35.45 13.514-79.84 11.11-113.96-5.088-7.31 23.346-13.3 43.318-12.79 68.401 18.77-6.104 56.92-9.17 77.19-11.367 252.42-27.355 520.82 108.902 621.58 349.287 56.86 134.261 57.58 285.704 2 420.494-47.88 116.43-142.09 216.71-251.99 277.59-20.52 11.37-44.74 22.29-66.48 31.35-9.96 4.15-20.66 7.05-31.06 11.38-.47 17.62-2.79 40.47-4 58.56-1.5 24.81-2.64 49.64-3.41 74.48-2.1 59.99-2.57 124.49-6.47 184.4-1.11 17.01-29.69 32.2-45.36 35.97-39.91 8.76-99.89 18.58-139.87 6.5-72.26-21.83-37.56-71.18 8.64-94.28-6.36-50.76-9.21-111.72-8.99-162.5.1-14.03.47-28.07 1.13-42.09.43-8.45 1.67-18.57 1.19-26.8-27.01-.41-44.23-.14-71.91-2.43-1.27 51.48-4.14 100.12-4.52 152.49-.1 23.21-.07 46.43.1 69.64.06 11.74 1.04 43.3-2.08 52.72-12.29 37.07-77.63 43.88-109.95 45.85-26.9 1.64-48.98.86-74.51-4.96-12.916-2.95-29.561-11.32-35.96-23.24-14.4-34.49 20.861-55.41 45.92-68.39-7.14-94.84-10.7-172.95-2.77-269.24-14.14-4.16-29.342-10.35-42.613-16.79-32.651-15.86-25.928-11.45-47.358 11.49-4.602 4.8-4.848 7.21-.777 12.71 24.659 33.31 1.493 52.09-28.31 73.01a642.8 642.8 0 0 1-172.815 84.6c-21.576 6.74-70.84 19.34-92.768 10.38-8.073-3.3-14.655-33.49-17.895-44.39-45.72-19.15-89.589-43.79-134.218-65.45-12.533-6.08-26.274-12.98-38.138-20.22-1.177 1.2-2.379 2.38-3.605 3.53-43.969 41.27-79.774 41.1-85.111-27.09-1.845-23.57 5.409-96.06 39.689-94.76 17.58.66 46.09 40.42 55.921 54.82 42.652 5.77 89.206 15.13 132.826 21.42-5.834-22.94-10.763-46.93-16.912-69.67-1.575-5.82-10.049-22.32-12.659-29.25-16.293-43.26-15.976-70.89 1.476-112.28-8.279-7.53-14.947-14.68-18.223-25.76-19.461-65.75 74.973-117.86 123.338-132.44-39.552-126.26-23.859-265.633 34.883-383.527C754.719 674.582 858.419 581.115 978.595 524.7c36.045-16.923 70.225-27.077 107.375-39.597-3.97-9.474-6.72-16.667-11.98-25.699-5.42-9.308-11.56-18.27-16.41-27.818-13.7 9.486-26.77 18.826-42.87 24.094-136.654 44.698-229.669-86.732-260.406-202.236-1.592-5.979-11.892-41.584-4.806-43.667 54.044-15.888 112.778-19.917 167.824-6.465 94.558 22.691 174.298 112.857 148.668 213.708 9.72 19.763 25 38.702 32.06 60.024.81 2.456 2.38 3.262 4.51 3.993 3.2-2.62 2.43-27.37 3.89-34.027 3.48-15.853 7.58-32.1 14.52-46.867-14.36-18.502-20.34-37.79-22.33-60.849-6.02-69.508 29.8-126.957 84.69-166.525 52.7-37.989 100.98-46.165 162.87-51.261M601.523 1348.54c-9.961 15.47-18.407 60.38-5.933 74.88 3.885 1.46 4.26.61 7.337-2.57 32.811-24.64 61.408-41.29 99.831-56.42 8.751-3.45 38.516-11.93 43.259-15.19-.575-5.57-11.464-21.28-15.596-25.13l-2.026-.17c-34.479 18.72-87.847 32.41-126.872 24.6"/><path fill="#d5e9c9" d="m709.118 1256.31-4.077-8.43c-58.854-122.95-65.424-265.077-18.28-392.074 128.136-345.174 575.099-476.733 884.099-292.202 90.62 54.115 170.98 131.7 216.66 227.371 9.64 16.123 22.06 47.103 28.22 64.954a533.66 533.66 0 0 1 13.21 304.091c-29.49 116.49-100.66 217.35-194.87 290.88-180.2 140.63-432.15 159.53-638.119 65.91a360.9 360.9 0 0 0 124.069-40.05c37.83-20.93 75.16-50.62 92.28-91.41-6.62 4.68-9.92 7.37-15.93 12.82-17.24 15.13-34 30.41-52.85 43.52-49.51 34.42-107.76 55.84-168.019 59.97-34.794 2.38-79.166-4.98-90.286-43.75l-.183-1.91c-6.027-58.32 81.134-76.91 123.058-97.25 44.02-21.35 97.36-48.21 121.61-92.74-23.14 9.66-37.17 22.16-57.16 36.33a390 390 0 0 1-37.96 23.64c-22.08 11.9-45.455 21.12-68.429 31.07-11.968 5.18-26.43 10.81-37.49 17.53-19.674-25.34-44.76-36.2-76.714-28.84-14.168 3.26-25.675 10.75-37.92 18.17-22.162-55.86-45.95-89.4-104.919-107.6"/><path fill="#a8cd9e" d="M1787.52 790.975c9.64 16.123 22.06 47.103 28.22 64.954a533.66 533.66 0 0 1 13.21 304.091c-29.49 116.49-100.66 217.35-194.87 290.88-180.2 140.63-432.15 159.53-638.119 65.91a360.9 360.9 0 0 0 124.069-40.05c.02.51.55 1.87.73 2.43 6.84 3.64 55.29 5.21 65.41 5.36 159.25 2.23 315.98-49.89 431.75-160.97a577.9 577.9 0 0 0 165.18-296.41c13.6-65.517 17.99-148.291 5.2-214.457-1.26-6.517-.91-15.116-.78-21.738"/><path fill="#a8cd9e" d="M885.225 1457.91c61.481 50.51 185.515 1.24 247.245-29.49a428 428 0 0 0 30.51-16.73c9.68-5.84 21.89-16.07 33.4-13.52-17.24 15.13-34 30.41-52.85 43.52-49.51 34.42-107.76 55.84-168.019 59.97-34.794 2.38-79.166-4.98-90.286-43.75"/><path fill="#2b1426" d="M1287.73 814.384c21.31-2.626 44.93 4.835 62.17 17.134 78.6 56.083 69.65 200.602-36.65 217.452-146.12 11.98-154.88-221.458-25.52-234.586"/><path fill="#fff" d="M1310.18 850.213c38.07-.369 47.22 56.984 9.56 66.756-38.65 1.009-46.95-55.707-9.56-66.756M1330.16 938.618c7.52-2.208 15.42 2.047 17.71 9.541 2.29 7.495-1.88 15.436-9.35 17.808a14.29 14.29 0 0 1-14.04-3.136 14.31 14.31 0 0 1-4.21-13.762 14.32 14.32 0 0 1 9.89-10.451"/><path fill="#2b1426" d="M850.624 836.322c132.27-10.226 156.126 209.358 25.284 233.678-13.775 2.24-32.266.12-45.17-5.04-99.956-39.96-92.001-212.633 19.886-228.638"/><path fill="#fff" d="M875.06 874.075c36.335-1.991 49.058 51.88 13.008 65.616-35.902 3.115-48.407-51.323-13.008-65.616M896.29 962.636c7.231-1.768 14.579 2.439 16.716 9.569 2.136 7.13-1.688 14.685-8.699 17.184a13.983 13.983 0 1 1-8.017-26.753M1426.07 546.171c39.43-1.431 66.81 9.034 101.28 28.269 35.99 21.111 75.38 51.179 88.22 92.652 6.1 19.704-1.16 33.318-21.34 37.687-90.39 12.282-250.08-138.62-168.16-158.608"/><path fill="#ecabab" d="M1425.25 1030.37c29.12-3.09 72.14 2.12 81.11 35.43-6.5 30.66-39.35 40.98-66.69 44.85-20.42 2.93-47.83-.17-65.55-11.95-15.04-10-19.83-27.38-7.71-42.07 13.86-16.8 38.02-23.48 58.84-26.26M742.823 1054.36c22.107-2.69 47.175.92 65.646 14.1 12.469 8.57 18.949 24.55 10.152 38.24-12.216 19.01-39.463 25.87-60.377 27.77-21.384 3.75-74.903-4.99-78.853-32.73-4.457-31.3 39.467-44.1 63.432-47.38"/><path fill="#2b1426" d="M1120.05 1050.94c44.97 3.6-45.16 83.74-112.38 27.43-5.57-5.85-11.239-13.28-5.22-21.07 2.51-1.06 8.74-1.8 10.25-.16 22.51 24.48 56.96 29.77 85.73 12.66 7.97-4.74 14.13-12.04 21.62-18.86"/><path fill="#7fdac4" d="M455.025 1540c30.045 4.78 60.028 9.95 89.942 15.49 13.638 2.5 41.63 8.43 53.98 8.62 7.293-9.33-21.305-83.59-16.96-95.9 9.854-22.88 41.135-46.01 62.248-57.84 42.616-23.89 102.556-57.45 151.841-45.6 9.194 10.34 21.407 31.98 28.808 44.52l36.928 62.62a6029 6029 0 0 1 40.655 66.66c7.159 11.96 17.665 28.74 23.206 41.09-49.746 59.34-185.153 118.93-263.252 127.71-5.912.67-14.065 1.35-19.675-.82-4.762-4.73-5.59-10.44-7.366-16.95-2.12-7.74-4.415-14.83-6.921-22.46-5.919-4.52-39.65-20.63-48.518-25l-70.885-35.49c-17.576-8.76-41.25-20.09-57.811-30.05l2.324-16.65z"/><path fill="#59c6ab" d="M861.812 1471.91a6029 6029 0 0 1 40.655 66.66c7.159 11.96 17.665 28.74 23.206 41.09-49.746 59.34-185.153 118.93-263.252 127.71-5.912.67-14.065 1.35-19.675-.82-4.762-4.73-5.59-10.44-7.366-16.95 56.631-2.83 133.562-38.02 172.977-78.42 38.049-39.01 53.175-86.04 53.455-139.27M453.569 1559.95c.652 3.32.351 4.73 3.76 6.62 38.771 21.48 81.924 34.64 122.133 53.37 13.05 6.08 28.428 9.12 39.87 18.05 3.869 2.98 8.695 23.91 9.127 29.15-5.919-4.52-39.65-20.63-48.518-25l-70.885-35.49c-17.576-8.76-41.25-20.09-57.811-30.05z"/><path fill="#2b1426" d="M748.56 1374.31c22.841-2.52 26.412 10.19 11.415 25.06-20.774 20.59-55.885 32.31-84.876 32.84-7.139-.52-18.865-2.18-20.652-10.76-.481-2.31.929-6.72 2.667-8.29 21.226-19.15 64.014-35.07 91.446-38.85"/><path fill="#3c8b73" d="M749.561 1387.41c2.342-.48 1.538-.5 3.928.36-.084 1.98.296 2.26-1.145 3.57-19.466 17.68-54.844 27.05-79.101 29.46l-3.596.06-.977-1.3c5.969-10.01 66.662-31.18 80.891-32.15"/><path fill="#fff" d="M637.826 1548.09c17.422-.79 22.622 11.08 23.254 27.55.246 6.42-1.804 10.44-6.504 14.73-21.013 4.43-30.402-29.12-16.75-42.28M629.148 1499.18c7.649.98 12.884 4.02 15.467 11.79a17.25 17.25 0 0 1-.928 13.27c-2.611 5.07-5.521 6.27-10.655 7.94-18.544-3.67-22.703-28.63-3.884-33"/><path fill="#d5e9c9" d="M1291.52 1591.18c56.65-1.58 108.42-11.98 162.59-27.42-.96 16.95-2.62 35.57-3.95 52.58-2.25 45.81-3.94 91.65-5.07 137.51-.88 30.82-1.18 63.84-2.87 94.4-.08 10.19.99 23.63-7.72 31.59-12.53 11.44-30.15 12.84-45.04 17.87-24.99 8.43-151.04 17.83-140.13-25.89 12.93-24.72 28.33-24.65 47.59-38.88-.09-16.38-2.08-36.43-3.06-53.06-2.47-42.17-5.65-83.04-4.78-125.34-.8-14.51 1.53-48.38 2.44-63.36"/><path fill="#a8cd9e" d="M1291.52 1591.18c56.65-1.58 108.42-11.98 162.59-27.42-.96 16.95-2.62 35.57-3.95 52.58l-1.61.29c-19.35 3.56-40.07 11.01-59.54 14.92-32.39 6.49-65.98 9.72-98.92 11.34-.25 3.64-.4 8.13-1.01 11.65-.8-14.51 1.53-48.38 2.44-63.36M1442.22 1848.25c-.08 10.19.99 23.63-7.72 31.59-12.53 11.44-30.15 12.84-45.04 17.87-24.99 8.43-151.04 17.83-140.13-25.89l.97 4.23c5.59 7.65 26.75 5.41 36.02 5.98 44.23 2.74 86.8-5.11 128.17-20.47 9.29-3.45 18.17-10.37 27.73-13.31"/><path fill="#d5e9c9" d="M1035.32 1551.59c52.25 17.54 94.94 29.09 150.52 36.11-1.42 15.99-1.95 31.08-2.46 47.11-.22 6.95-.19 20.27-1.23 26.71-1.44 56.38-2.14 112.77-2.11 169.17.12 10.15 1.94 30.99-6.74 37.66-29.67 22.75-79.7 25.29-115.96 25.62-17.21.16-74.003-5.61-67.181-32.83 10.101-22.88 28.091-26.75 46.961-37.71l1.16-.68c.07-9.33-.54-19.62-1.28-28.93-4.96-62.94-6.2-123.62-4.93-186.7.86-17.09 1.41-38.7 3.25-55.53"/><path fill="#a8cd9e" d="M1035.32 1551.59c52.25 17.54 94.94 29.09 150.52 36.11-1.42 15.99-1.95 31.08-2.46 47.11-.22 6.95-.19 20.27-1.23 26.71-.65-7.11-.11-15.44.16-22.68-38.77-2.99-73.77-10.95-111.51-20.08-12.1-2.93-27.29-9.42-38.73-11.64.86-17.09 1.41-38.7 3.25-55.53M990.159 1861.14c4.37 8.52 20.801 6.47 29.251 6.82 43.37 1.79 85.97-7.85 126.77-21.81 11.07-3.78 23.31-12.98 33.86-15.46.12 10.15 1.94 30.99-6.74 37.66-29.67 22.75-79.7 25.29-115.96 25.62-17.21.16-74.003-5.61-67.181-32.83"/><path fill="#d5e9c9" d="M1125.65 379.79c-9.45-16.24-12.43-36.944-12.33-55.277.44-80.042 62.88-140.246 133.41-167.612 43.6-16.915 82.31-20.129 128-19.605-.38 17.569-1.75 33.633-3.65 51.081-6.99 103.749-68.09 227.648-189.37 220.017-15.32-.964-32.11-5.353-45.59-12.783 2.79-7.181 4.42-10.934 8.05-17.695 29.14-63.004 76.49-115.603 131.08-157.253 6.01-4.583 9.75-9.294 2.82-15.822-7.8-2.869-16.95 5.109-22.71 9.839-43.73 35.906-82.42 77.884-111.23 126.752-7.13 12.101-12.64 25.564-18.48 38.358"/><path fill="#a8cd9e" d="M1144.17 377.916c93.23 7.76 170.48-57.966 206.95-138.581 7.74-17.097 12.66-33.79 19.96-50.958-6.99 103.749-68.09 227.648-189.37 220.017-15.32-.964-32.11-5.353-45.59-12.783 2.79-7.181 4.42-10.934 8.05-17.695"/><path fill="#d5e9c9" d="M763.408 222.08c67.506-18.387 143.76-16.028 205.649 19.305 58.993 33.678 92.693 92.165 85.673 160.713-44.47-55.629-95.304-98.695-159.857-130.48-6.755-3.326-25.297-14.382-28.467-1.696-2.069 8.279 15.357 14.686 21.394 17.638 53.611 26.214 108.821 66.487 145.02 114.272 2.63 1.941 10.97 15.01 12.9 18.021-31.45 29.223-83.115 35.26-123.035 23.645-46.623-13.565-87.418-53.02-110.334-94.793-23.227-39.01-41.005-81.721-48.943-126.625"/><path fill="#a8cd9e" d="M812.351 348.705c7.72 2.458 15.208 13.459 21.393 18.91 43.883 38.678 104.691 59.536 162.697 45.733 7.099-1.688 31.329-6.71 36.379-11.516 2.63 1.941 10.97 15.01 12.9 18.021-31.45 29.223-83.115 35.26-123.035 23.645-46.623-13.565-87.418-53.02-110.334-94.793"/><path fill="#d5e9c9" d="M552.033 1306.17c-12.377-55.8 69.334-98.24 112.628-113.69 3.849 14.05 10.245 30.2 15.215 44.21a474 474 0 0 1 8.013 18.26c-5.822.21-11.643.47-17.461.77l-8.004-8.31c-6.704-5.58-21.55-16.94-29.756-9.1-.081 9.81 18.056 18.89 24.07 32.11 2.884 13.67 3.533 21.99-4.32 34.59-20.439 32.78-82.659 40.48-100.385 1.16"/><path fill="#a8cd9e" d="M656.738 1270.42c2.884 13.67 3.533 21.99-4.32 34.59-20.439 32.78-82.659 40.48-100.385 1.16 29.552 4.69 60.522-2.74 85.632-18.84 8.028-5.15 11.726-11.69 19.073-16.91"/><path fill="#bdd8b0" d="M679.876 1236.69a474 474 0 0 1 8.013 18.26c-5.822.21-11.643.47-17.461.77l-8.004-8.31c5.998.6 6.063-1.25 11.614-2.8 1.036-.29 2.611 1.66 6.309.55-.403-2.69-.67-4-.558-6.72z"/><path fill="#7fdac4" d="M368.568 1545.06c.4-11.38 1.672-27.13 6.744-37.48 2.12-.99 2.065-.92 4.413-1.18 5.084-16.06-1.538-11.72 13.309-23.22 15.173 28.8 12.776 74.21 4.852 105-1.686 6.56-6.423 19.84-14.933 17.34-10.278-9.27-15.089-38.61-14.661-52.22-.002-2.71.166-5.53.276-8.24"/><path fill="#0d0b0e" d="M371.602 1544.37c2.917-1.67 3.595-2.37 6.967-2.17 3.105 2.2 1.883.78 3.334 4.75-.698 4.66.189 2.67-2.585 6.29-3.693 1.21-4.113 1.01-7.818-1.07zM382.596 1574.62l3.393.63c2.503 2.44 1.628.98 2.367 4.71-1.053 4.26-1.198 4.36-4.325 7.6-3.705-1.34-4.222-1.82-5.643-5.18.409-3.9 1.657-4.76 4.208-7.76M388.319 1513.45c4.508.24 5.353.03 8.065 3.37.177 3.08-.741 3.93-2.388 6.56-2.242 1.32-1.696 1.03-4.148 1.84l-1.749-1.42c-.926-3.71-.245-6.54.22-10.35M390.383 1548.24c7.254 1.89 6.773 4.82 6.406 11.45-4.501-.72-2.736.23-5.867-2.24-1.512-3.21-.87-5.62-.539-9.21"/><path fill="#7fdac4" d="M682.08 1268.46c34.439.37 61.641 11.3 83.731 38.46 5.223 6.42 25.559 33.84 24.878 41.25l-2.846.23c-5.713-.86-11.804-1.39-17.573-2.01-21.215-40.27-48.116-59.58-93.906-59.56.007-6.8-1.687-10.35-.821-16.35 2.111-2.44 2.07-1.63 6.537-2.02M568.676 1344.21c6.01 2.44 11.069 3.6 17.339 5.19-16.43 33.08-11.918 55.27-1.044 88.45-2.887 3.34-5.777 7.3-8.479 10.84-1.558 2.61-1.986 4.5-4.202 5.4-6.37-4.83-11.897-31.84-13.49-39.94-3.913-19.87-2.145-52.8 9.876-69.94M867.123 1358.38c20.846-.81 34.751 8.09 48.372 22.92-5.1 2.8-11.619 7.14-16.681 10.3-10.157-7.68-15.208-10.49-27.614-12.89-18.546.08-25.062 3.71-39.42 14.72-3.264-5.37-6.463-11.09-9.618-16.55 15.55-11.67 25.654-16.75 44.961-18.5M416.036 1503.82c5.896 4.48 19.022 23.35 23.354 29.68.942 13.97-1.169 28.72-2.832 42.65-4.078 4.08-9.423 8.17-13.954 11.86l-13.651 10.33c9.989-31.39 8.845-62.06 7.083-94.52"/><path fill="#a8cd9e" d="M858.964 1394.21q2.398-.225 4.806-.21c6.319.02 16.536 2.22 21.141 6.84.483 1.84 1.235 3.29-.213 4.86-10.822 11.71-13.498 18.5-18.226 33.77l-.893.18c-9.3-6.18-19.995-24.23-24.825-34.31a87.2 87.2 0 0 1 18.21-11.13M674.114 1302.87c17.225-.26 26.906-.41 41.659 9.32-11.271 4.29-21.86 9.35-33.483 12.71-10.939 3.35-21.648 5.78-32.764 8.42 11.778-11.15 16.719-16.56 24.588-30.45"/><path fill="#59c6ab" d="M905.67 1508.57c8.746.42 16.153 3.49 24.4 6.34-2.154 3.68-3.918 5.89-6.53 9.3l-7.537 7.24c-3.853-7.5-7.938-14.8-10.333-22.88"/><path fill="#2b1426" d="M260.801 1687.47c22.789-.55 47.222 8.01 61.609 26.27 3.629 4.61 6.453 9.24 10.304 13.93 28.327-33.25 51.022-44.36 95.112-38.99 6.266.77 14.751 2.53 18.765 7.66 2.249 8.48-4.539 24.93-8.155 33.22-15.486 35.49-49.619 56.45-88.224 45.22 3.81 17.65 3.848 26.85 3.74 44.72 27.01-5.84 53.958-2.83 71.06 21.63 14.78 0 29.441 2.87 42.367 12.95 11.504 8.98 37.73 41.67 24.888 57.14-3.904 4.7-25.602 3.76-33.017 3.77-20.574-.51-41.993.07-62.703.09l-121.435.12c-17.53.04-73.831 2.28-86.372-3.02-15.515-17.79 17.156-52.13 32.516-60.73 13.607-7.61 22.345-7.68 37.2-7.75 14.945-26.28 34.317-29.65 61.835-26.08 1.127-11.54 1.203-30.26.708-41.77-51.659 12.94-82.306-21.79-95.902-67.82-6.277-21.25 21.459-19.43 35.704-20.56"/><path fill="url(#a)" d="M354.038 1834.54c15.321-5.67 27.674-5.74 42.79 1.3A63.4 63.4 0 0 1 412.21 1846c4.222 5.51 4.677 8.93 9.574 10.49 6.392-.66 13.043-1.43 19.29.36 20.576 5.9 35.872 25.33 42.673 44.62l-203.652-.25c-25.765-.15-57.16 1.35-81.961-.18 7.299-18.47 17.68-30.5 35.212-40.33 4.774-1.16 14.793-4.06 19.706-3.41-.966-.13 5.671 3.04 5.829 3.11 1.837-1.13 1.939-1.2 3.962-2.12l3.006 1.42c.943-4.13 2.777-3.89 2.385-8.97l-.578-1.48c3.522-4.57 15.443-13.36 19.977-14.76 10.743-3.32 31.084-7.74 32.648 8.42.34 3.52 5.653 9.12 8.02 11.97-4.019 2.78-7.006 4.25-9.336 8.48l.164 2.09c4.477 2.35 16.369-.11 24.439 1.45l1.268.24c.253.05.505.11.758.16 3.585 3.37 5.518 6.24 10.713 4.65 1.986-3.91.641-5.42-1.51-9-4.701-4.5-7.742-5.58-13.53-8.07l6.121-9.92z"/><path fill="#2b1426" d="M412.21 1846c4.222 5.51 4.677 8.93 9.574 10.49-.996.26-4.488 1.13-5.224 1.46-1.279 3.21-1.078 3.06-3.943 4.95-9.18 1.95-21.436-7.71-15.571-15.56 4.322-1.97 9.495-.92 13.797.57z"/><path fill="#865a51" d="M412.21 1846c4.222 5.51 4.677 8.93 9.574 10.49-.996.26-4.488 1.13-5.224 1.46-1.812-2.26-4.295-7.33-5.717-10.04zM233.346 1860.71c4.774-1.16 14.793-4.06 19.706-3.41-.966-.13 5.671 3.04 5.829 3.11 1.837-1.13 1.939-1.2 3.962-2.12l3.006 1.42.714 1.1c-10.418.58-2.686 6.17-9.676 11.25-4.162.24-2.403.75-5.669-.84-.735-3.37-.295-2.72 1.113-6.57-3.507-1.43-14.82-3.25-18.985-3.94"/><path fill="#0d0b0e" d="M268.234 1850.74c5.839-3.42 9.352-4.18 14.079 1.2 2.416 10.71-8.305 11.87-15.75 8.87l-.714-1.1c.943-4.13 2.777-3.89 2.385-8.97"/><path fill="#865a51" d="m341.267 1854.89 6.121-9.92c.635 7.21 5.425 8.83 7.409 17.99-4.701-4.5-7.742-5.58-13.53-8.07"/><path fill="#d5e9c9" d="M245.712 1724.88c-2.403-5.16-8.606-16.25-6.925-21 7.758-5.07 29.558-4.43 38.724-2.45 27.226 5.88 42.492 24.25 52.82 48.91-8.509-6.73-34.464-30.12-45.096-23.23-1.802 3.05-1.431 1.41-.862 5.14 4.267 6.3 22.221 14.99 31.322 22.63 1.668 1.27 5.422 5 7.122 6.6-35.393 12.49-62.469-4.42-77.105-36.6"/><path fill="#a8cd9e" d="M245.712 1724.88c4 1.42 7.168 4.38 9.907 7.37 12.821 13.97 23.949 25.46 44.445 25.64 5.61.05 12.065 2.25 15.631-3.01 1.668 1.27 5.422 5 7.122 6.6-35.393 12.49-62.469-4.42-77.105-36.6"/><path fill="#d5e9c9" d="M344.259 1748.56c4.497-18.32 16.179-33.42 33.27-41.72a76.1 76.1 0 0 1 56.864-3.8c-1.139 3.28-2.4 6.47-3.653 9.71-11.638 32.65-34.693 59.3-73.569 50.28-1.745-.41-2.728-1.27-3.788-2.68.531-2.81 1.563-3.84 4.413-5.87 3.003-2.6 6.012-4.56 9.271-6.79 5.761-4.42 25.996-12.55 21.482-20.52-11.319-6.94-35.26 14.52-44.29 21.39"/><path fill="#a8cd9e" d="M405.14 1734.88c7.891-10.53 13.843-15.86 25.6-22.13-11.638 32.65-34.693 59.3-73.569 50.28-1.745-.41-2.728-1.27-3.788-2.68.531-2.81 1.563-3.84 4.413-5.87 3.003-2.6 6.012-4.56 9.271-6.79 9.728 8.85 29.334-6.32 36.904-11.95z"/><path fill="#bdd8b0" d="M367.067 1747.69c9.728 8.85 29.334-6.32 36.904-11.95l1.169-.86c-1.499 12.21-36.352 26.17-47.344 19.6 3.003-2.6 6.012-4.56 9.271-6.79"/><path fill="#a8cd9e" d="M335.925 1775.42c1.599 1.26 1.961 1.6 2.72 3.59 7.298 19.19 5.007 43.19-2.873 61.73l-1.455.68c-6.354-7.18-.159-54.31 1.608-66"/><path fill="#63c6d5" d="M336.485 1597.71c3.365 2.39 1.348 10.3 3.209 16.72 3.085 11.88 7.748 24 6.944 36.48-1.158 17.96-11.154 21.8-26.867 20.63-20.394-6.03-13.399-33-5.779-46.63 5.206-9.31 14.707-19.92 22.493-27.2"/><path fill="#fff" d="M321.727 1635.37c4.408.05 9.285 5.27 9.643 9.67.631 7.76-2.276 11.39-6.938 17.16-16.627 2.09-8.377-19.3-2.705-26.83"/><path fill="#63c6d5" d="M290.819 1535.99c5.365-7.4 25.718-26.93 34.994-25.21 2.175 3.91-.511 5.84-1.292 9.47-4.941 22.92 3.318 30.06-9.67 52.69-7.142 3.9-11.11 5.54-19.129 2.71-9.579-4.31-10.561-8.63-13.139-18.09 1.981-9.94 2.422-12.91 8.236-21.57"/><path fill="#fff" d="M290.819 1535.99c4.793 1.49 6.349 3.06 11.089 2.82 5.772 7.09 6.452 10.53 5.384 19.63-.854 5.12.052 4-2.872 7.54l-1.324.46c-3.997 1.44-5.279 1.46-7.49 4.72.653 2.07.741 2.41.116 4.49-9.579-4.31-10.561-8.63-13.139-18.09 1.981-9.94 2.422-12.91 8.236-21.57"/><path fill="#8bdae3" d="M290.819 1535.99c4.793 1.49 6.349 3.06 11.089 2.82-23.492 7.55-10.842 42.73 5.384 19.63-.854 5.12.052 4-2.872 7.54l-1.324.46c-3.997 1.44-5.279 1.46-7.49 4.72.653 2.07.741 2.41.116 4.49-9.579-4.31-10.561-8.63-13.139-18.09 1.981-9.94 2.422-12.91 8.236-21.57"/><path fill="#0d0b0e" fill-opacity=".012" d="m375.433 1470.39 1.626.62c-.679 2.94-2.743 4.57-4.926 7.12l-1.214.38c1.526-4.36 1.642-4.54 4.514-8.12"/><path fill="#0d0b0e" fill-opacity=".016" d="M1341.54 342.618c.97 3.379-.32 3.77-2.59 8.09-.67-3.245.96-5.211 2.59-8.09"/></svg>