<svg xmlns="http://www.w3.org/2000/svg" width="768" height="768" viewBox="0 0 2048 2048"><path fill="#2a1125" d="M913.205 382.243a101.7 101.7 0 0 1-11.896-23.311c-14.087-38.446-8.82-85.163 8.849-121.414 53.052-108.843 184.932-148.2 298.042-133.339 3.41.449 9.58 1.407 12.39 2.98 8.09 4.528 2.36 34.384 1.58 40.48-9.81 76.712-35.76 156.077-91.49 211.905-51.82 51.57-139.929 74.376-204.618 33.554-6.434 23.341-10.12 25.294-13.815 52.557a702.5 702.5 0 0 1 373.553 74.026c132.84 67.41 241.49 183.096 288.29 325.901 10.06 30.72 17.75 61.696 20.5 93.995 5.96-9.865 10.3-20.991 15.83-31.848 22.4-45.119 75.75-109.9 131.84-102.329 50.85 6.864 56.95 91.84 47.98 128.038-23.99 96.882-147.9 215.882-225.38 268.012a623 623 0 0 1-24.03 58.34 598.7 598.7 0 0 1-343.02 306.33 1741 1741 0 0 1 1.51 207.99c-1.04 19.55-2.28 39.09-3.72 58.61-.87 11.51-2.37 24.44-2.31 35.78 13.47 4.99 22.24 12.2 33.2 21.02 22.47 4.42 106.07 20.94 99.14 51.66-6.91 30.62-98.98 47.21-125.61 51.41-133.11 20.99-270.733 21.65-404.421 6.54-37.337-4.24-152.034-19.1-171.989-53.51a87 87 0 0 1-2.578-4.88c1.594-10.04 4.66-15.69 13.391-21.68 19.196-13.18 54.285-23.21 77.343-26.58 14.3-15.21 21.78-20.92 39.913-30.98 7.057-90 10.846-180.23 11.36-270.51-112.542-30.93-186.65-71.26-274.448-148.63-11.534 58.82-18.433 122.5-61.016 167.34-73.928 77.84-130.906-17.25-129.519-89.77 1.416-74.04 43.998-159.4 94.434-211.34-46.213-65.31-72.583-148.28-82.982-227.38-43.672-332.223 233.193-597.323 554.562-631.518-5.887-18.518-14.33-35.328-21.751-53.178a149 149 0 0 1-11.684 7.758c-36.058 21.919-80.676 25.913-121.124 15.504-106.371-27.375-163.278-147.512-180.727-247.447-1.647-9.429-5.481-24.236-3.225-33.212 6.11-8.227 21.552-8.171 31.414-9.78 124.496-20.312 266.346 29.992 300.25 163.262 7.742 30.435 6.908 60.603-2.724 91.135 12.429 25.741 17.461 35.668 26.744 63.701l14.396-1.293c.048-20.596 9.163-45.359 17.566-63.899m27.449 1496.707c20.261-.31 44.592-.37 64.656 1.05 1.8-8.43 2.67-58.1 3.02-70.08 2.44-66.69 3.17-133.43 2.2-200.15a691 691 0 0 1-58.585 3.42c.877 34.06-.542 72.95-1.768 107.03-1.471 53-4.647 105.94-9.523 158.73"/><path fill="#efe8f0" d="M940.654 1878.95c20.261-.31 44.592-.37 64.656 1.05-.85 19.83-3.81 46.61 10.79 61.93 27.33 25.84 79.65 31.35 115.72 32.73 30.67 1.18 79.23-2.13 102.48-23.83 19.88-18.56 7.39-44.2-7.81-61.31 22.47 4.42 106.07 20.94 99.14 51.66-6.91 30.62-98.98 47.21-125.61 51.41-133.11 20.99-270.733 21.65-404.421 6.54-37.337-4.24-152.034-19.1-171.989-53.51a87 87 0 0 1-2.578-4.88c1.594-10.04 4.66-15.69 13.391-21.68 19.196-13.18 54.285-23.21 77.343-26.58-29.785 55.05 28.389 71.85 71.273 76.14 43.898 4.4 102.718 1.41 139.897-23.85 16.383-11.13 16.182-47.6 17.718-65.82"/><path fill="#d4eac7" d="M372.913 797.817C595.895 335.866 1381.22 348.333 1556.23 847.796c45.65 130.289 24.72 287.504-35.23 410.194a519.7 519.7 0 0 1-62.26 99.02c-79.99 105.63-190.05 170-315.72 207.18a721 721 0 0 1-109.83 24.44c-169.141 23.37-346.58-15.48-483.768-119.26-20.771-15.71-34.418-27.91-53.425-45.65 7.762-20.5 18.141-51.14 27.305-70.09-39.129 30.61-51.949 75.99-59.69 122.66-1.201-4.63-7.269-9.73-10.846-13.26-22.883-22.6-42.805-48.29-60.073-75.39-6.01-9.43-10.218-21.7-16.955-30.64 17.517-27.95 48.269-61.39 71.771-84.15-15.445 7.08-27.403 14.18-41.2 23.96a491.2 491.2 0 0 1-60.413-130.43 513.9 513.9 0 0 1 3.927-313.162c6.49-18.845 13.647-37.832 23.09-55.401"/><path fill="#a7cd9e" d="M372.913 797.817c.084.292.173.582.251.875 2.487 9.347-7.039 56.808-8.345 70.594-1.729 18.249-2.468 36.998-2.414 55.333a647.5 647.5 0 0 0 9.325 113.451c27.495 154.67 115.191 292.27 250.816 373.56a751.77 751.77 0 0 0 428.444 105.69c100.43-5.64 200.37-33.41 289.14-81.44 39.89-21.59 76.87-49.48 112.73-77.09 2.06-1.62 3.37-1.74 5.88-1.78-79.99 105.63-190.05 170-315.72 207.18a721 721 0 0 1-109.83 24.44c-169.141 23.37-346.58-15.48-483.768-119.26-20.771-15.71-34.418-27.91-53.425-45.65 7.762-20.5 18.141-51.14 27.305-70.09-39.129 30.61-51.949 75.99-59.69 122.66-1.201-4.63-7.269-9.73-10.846-13.26-22.883-22.6-42.805-48.29-60.073-75.39-6.01-9.43-10.218-21.7-16.955-30.64 17.517-27.95 48.269-61.39 71.771-84.15-15.445 7.08-27.403 14.18-41.2 23.96a491.2 491.2 0 0 1-60.413-130.43 513.9 513.9 0 0 1 3.927-313.162c6.49-18.845 13.647-37.832 23.09-55.401"/><path fill="#2a1125" d="M1202.4 782.402c118.27-.338 168.35 179.236 70.65 243.818-16.22 10.72-31.96 14.51-50.96 16.58-30.68.82-54.26-8-78.08-27.59-79.03-65.024-55.59-225.57 58.39-232.808"/><path fill="#fff" d="M1244.33 822.271c38.86 2.366 51.05 61.497 10.67 72.196-6.95-.183-11.76-1.225-17.85-4.875a41 41 0 0 1-18.78-26.763c-4.12-19.942 5.52-36.794 25.96-40.558M1261.08 913.691c8.18-2.724 17.01 1.684 19.75 9.852s-1.65 17.013-9.81 19.77c-8.18 2.764-17.06-1.641-19.81-9.833s1.68-17.058 9.87-19.789"/><path fill="#2a1125" d="M729.898 823.375a102.07 102.07 0 0 1 71.265 18.154c85.262 60.008 76.779 220.831-36.685 239.341-31.455 1.39-51.477-3.4-77.489-22.13-82.075-59.115-68.372-221.137 42.909-235.365"/><path fill="#fff" d="M781.382 858.17c36.713.345 48.837 62.662 8.303 70.83-38.487-2.465-48.306-60.652-8.303-70.83M798.27 948.078c2.075.123 3.48.289 5.479.835a16.3 16.3 0 0 1 10.469 8.542 16.77 16.77 0 0 1 .527 13.497c-2.389 6.185-5.818 8.204-11.566 10.572-19.687-1.217-25.672-23.394-4.909-33.446M1122.35 519.277c46.77-3.675 97.43 15.08 136.95 39.262 25.39 17.256 56.83 41.011 64.46 72.418 4.57 18.758-9.55 26.867-25.66 29.849-45.06 4.535-90.83-14.91-131.33-36.823-19.99-10.819-86.56-57.483-69.89-91.64 3.76-7.712 16.85-11.553 25.47-13.066"/><path fill="#eaa5a7" d="M1377.34 999.439c18.82-.669 44.63 4.521 59.8 16.681 15.75 12.62 16.73 32.57 2.44 47.05-19.18 19.43-48.8 27.68-75.49 28.8-30.49.44-100.53-16.46-65.38-63.16 15.48-20.55 53.53-28.01 78.63-29.371M631.825 1074.39c21.073-2.6 50.682 1.43 69.123 13.11 15.81 10.02 23.467 28.65 10.639 44.72-16.423 20.58-44.909 27.46-69.894 30.6-25.011 1.35-52.27.83-73.476-14.46-15.11-10.9-18.793-28.75-6.309-43.38 17.264-20.23 44.495-27.53 69.917-30.59"/><path fill="#2a1125" d="M1066.91 1050.88c25.28-.32 11.3 20.89.01 29.83-32.64 25.81-89.257 28.74-124.678 7.93-6.437-5.45-13.916-16.35-6.866-24.06 9.867-5.24 13.784 2.33 21.145 7.5 9.717 6.83 26.326 8.52 37.917 8.77 19.942.42 42.112-2.83 58.162-15.54 4.11-3.35 9.96-10.22 14.31-14.43"/><path fill="#d4eac7" d="M1028.77 1608.29c58.26-7.4 95.68-16.92 151.05-34.49.71 20.31 2.84 40.52 3.23 61.07 1.37 56.19.38 112.42-2.97 168.53-1.18 22.43-3.35 44.83-5.03 67.23-.23 3.14.06 8.07 2.92 9.73 20.68 11.94 37.77 16.51 47.16 41.54v1.65c.05 6.12-.02 7.8-4.34 12.91-11.03 13.05-48.55 18.76-65.37 19.41-34.29 1.32-96.49-2.5-123.91-24.84-7.85-6.41-7.76-18.11-8.29-27.33-.17-28.34 2.11-63.43 3.07-92.46 1.57-47.21 2.53-94.44 2.88-141.68-.37-20.16-.01-40.75-.4-61.27"/><path fill="#a7cd9e" d="M1028.77 1608.29c58.26-7.4 95.68-16.92 151.05-34.49.71 20.31 2.84 40.52 3.23 61.07-4.12-1.62-21.73 5.39-27.93 7.05-29.37 7.89-57.72 13.34-87.81 17.21-5.94.77-34.34 2.84-36.69 3.45l-1.45 6.98c-.37-20.16-.01-40.75-.4-61.27M1023.22 1903.7c2.72 5.83 10.4 8.32 16.7 10.57 16.3 5.7 33.06 9.99 50.1 12.82 22.91 3.76 122.84 11.42 135.11-5.19v1.65c.05 6.12-.02 7.8-4.34 12.91-11.03 13.05-48.55 18.76-65.37 19.41-34.29 1.32-96.49-2.5-123.91-24.84-7.85-6.41-7.76-18.11-8.29-27.33"/><path fill="#d4eac7" d="M781.057 1596.31c55.378 13.44 97.146 15.93 153.439 17.68l-.373 50.68c-.036 7.96.228 24.44-.998 31.62-.254 32.29-2.338 68.29-4.406 100.58-2.248 35.09-4.958 75.43-10.138 109.86-.859 7.04-1.645 13.63-4.077 20.36-33.532 31.87-193.848 37.42-192.54-11.16 7.19-23.48 27.377-31.17 45.691-42.05 2.686-13.55 5.196-56.61 6.042-71.78 2.718-48.75 5.79-100.96 6.303-149.8.63-18.66.982-37.32 1.057-55.99"/><path fill="#a7cd9e" d="M781.057 1596.31c55.378 13.44 97.146 15.93 153.439 17.68l-.373 50.68c-.036 7.96.228 24.44-.998 31.62-.696-8.31.004-17.4.412-25.79-57.277-.9-97.444-5.14-153.537-18.2.63-18.66.982-37.32 1.057-55.99M721.964 1915.93c53.625 30.25 143.864 19.39 196.617-9.2-.859 7.04-1.645 13.63-4.077 20.36-33.532 31.87-193.848 37.42-192.54-11.16"/><path fill="#d4eac7" d="M920.712 361.658c-9.631-19.748-11.284-45.741-9.213-67.088 4.368-45.03 32.808-89.378 68.273-116.867 66.778-51.759 145.938-64.525 227.278-56.141-2.87 24.582-4.92 43.062-10.73 67.106-19.16 107.836-96.29 225.913-222.47 205.896-15.238-2.417-28.035-8.251-41.113-16.259 2.084-4.227 4.248-8.959 6.714-12.927 32.265-63.614 91.239-122.358 150.879-160.964 7.31-4.732 14.29-8.95 7.72-18.499-7.24-4.903-16.91 2.142-23 6.272-49.61 33.636-93.497 76.803-128.171 125.669-10.001 14.095-17.458 29.026-26.167 43.802"/><path fill="#a7cd9e" d="M939.451 365.378c110.489 17.082 196.769-21.096 237.359-129.246 3.63-9.671 12.38-43.16 19.51-47.464-19.16 107.836-96.29 225.913-222.47 205.896-15.238-2.417-28.035-8.251-41.113-16.259 2.084-4.227 4.248-8.959 6.714-12.927"/><path fill="#d4eac7" d="M542.81 149.792c122.224-25.183 269.575 18.249 299.473 153.888 4.16 18.873 4.346 42.833.202 61.714-43.495-64.071-97.391-114.982-165.009-153.241-7.834-4.433-27.156-18.506-29.124-.718-.172 1.623.873 3.458 1.601 4.842 9.525 7.431 21.76 13.053 32.126 19.5 52.143 32.432 105.956 79.296 139.756 131 2.812 3.653 7.599 12.021 10.157 16.244-47.916 36.696-122.286 30.442-169.734-2.305-50.738-35.018-95.993-115.442-107.756-175.714-5.335-20.177-8.43-34.618-11.692-55.21"/><path fill="#a7cd9e" d="M554.502 205.002c8.354 9.333 20.675 40.345 26.183 52.116 32.134 68.669 78.593 117.297 156.997 125.194 26.184 3.394 61.278-2.581 84.153-15.535 2.812 3.653 7.599 12.021 10.157 16.244-47.916 36.696-122.286 30.442-169.734-2.305-50.738-35.018-95.993-115.442-107.756-175.714"/><path fill="#d4eac7" d="M1615.15 941.004c17.9-38.073 33.88-67.399 67.26-95.602 27.18-24.452 71.07-36.891 85.79 8.39 11.69 35.943 8.17 81.576-9.5 115.196-27.59 52.502-73.88 106.252-117.52 145.742-1.51 1.91-11.54 11.13-13.7 13.18-16.99 16.17-35.06 31.43-52.92 46.65 12.19-43.83 20.05-84.92 22.75-130.48 1.32-22.19.09-47.821 2.15-69.41.27-2.797 13.29-28.733 15.69-33.666"/><path fill="#a7cd9e" d="M1615.15 941.004c4.43 5.894 6.32 12.108 8.78 18.987 17.64 49.329 15.74 99.909 14.38 151.269-.08 2.97.42 2.33 2.87 3.47-1.51 1.91-11.54 11.13-13.7 13.18-16.99 16.17-35.06 31.43-52.92 46.65 12.19-43.83 20.05-84.92 22.75-130.48 1.32-22.19.09-47.821 2.15-69.41.27-2.797 13.29-28.733 15.69-33.666"/><path fill="#d4eac7" d="M375.738 1357c6.737 8.94 10.945 21.21 16.955 30.64 17.268 27.1 37.19 52.79 60.073 75.39 3.577 3.53 9.645 8.63 10.846 13.26-7.091 37.05-12.746 67.86-33.266 100.07-48.881 76.72-98.147 44.71-111.74-31.84-11.318-63.74 22.315-136.48 57.132-187.52"/></svg>