<svg version="1.1" xmlns="http://www.w3.org/2000/svg" viewBox="151.85 174.12 1700.05 1642.78" width="1700" height="1643">
<path transform="translate(0,0)" fill="rgb(43,35,43)" d="M 871.656 386.616 L 871.539 385.233 C 870.511 373.994 866.776 362.239 864.769 350.953 C 860.556 327.258 860.822 307.824 866.038 284.38 C 870.752 263.192 888.617 237.088 910.536 259.146 C 945.948 294.779 944.491 343.063 944.825 389.55 L 946.226 389.042 C 965.941 381.697 977.288 351.671 1010.51 346.79 C 1016.66 345.886 1024.36 346.185 1030.06 348.926 C 1034.04 350.84 1036.81 355.115 1037.96 359.27 C 1041.23 371.003 1034.31 386.375 1028.21 396.296 C 1020.26 409.2 1007.84 421.758 996.465 431.683 C 994.041 433.798 989.714 435.845 987.872 438.326 C 986.445 440.248 985.324 444.923 985.874 447.274 C 985.959 447.638 986.133 447.975 986.262 448.326 C 991.233 450.593 998.134 449.11 1003.42 449.366 C 1146.63 456.299 1292.65 511.223 1397.72 610.262 C 1405.49 617.582 1409.54 621.898 1418.61 627.842 L 1419.57 628.456 C 1423.13 628.255 1423.2 628.388 1426.67 627.021 C 1424.18 615.346 1420.51 603.028 1418.89 591.531 C 1413.87 555.413 1421.9 518.69 1441.55 487.97 C 1463.3 454.381 1500 427.709 1539.51 419.621 C 1578.21 412.018 1618.34 420.128 1651.05 442.159 C 1683.24 463.68 1709.12 503.425 1716.63 541.372 C 1723.39 575.476 1717.93 610.872 1701.22 641.357 C 1694.56 653.471 1688.18 660.115 1685.01 673.554 C 1704.03 671.741 1720.37 669.075 1737.58 681.748 C 1747.99 689.411 1755.68 712.606 1756.17 725.544 C 1760.04 826.052 1697.73 939.782 1633.81 1013.67 C 1617.39 1032.65 1590.04 1058.18 1571.04 1074.14 C 1563.08 1080.82 1552.64 1086.63 1544.64 1092.76 C 1507.16 1238.04 1415.08 1351.06 1285.57 1427.59 C 1253.42 1446.58 1177.62 1483.93 1140.94 1488.28 C 1139.98 1508.75 1140.67 1529.23 1140.18 1549.7 C 1139.6 1573.62 1137.61 1600.77 1138.6 1624.68 L 1139.98 1625.46 C 1164.2 1638.94 1194.4 1647.89 1216.68 1665.42 C 1224.05 1671.21 1234.53 1681.98 1228.52 1691.78 C 1217.85 1709.16 1197.19 1703.81 1180.09 1704.01 C 1182.45 1712.93 1185.95 1723.78 1180.62 1731.83 C 1165.97 1753.94 1120.7 1724.8 1107.37 1714.99 C 1092.58 1704.11 1064.35 1683.92 1055.68 1669.8 C 1054.59 1657.84 1055 1643.26 1055.16 1631.13 C 1055.67 1590.28 1053.8 1549.74 1053.95 1508.89 C 1015.12 1512.7 977.308 1516.68 938.204 1514.96 C 933.09 1514.73 927.543 1514.77 922.436 1514.86 C 924.257 1558.89 922.047 1604.07 922.958 1648.21 C 923.1 1655.05 922.941 1662.09 922.7 1668.94 C 902.466 1697.49 853.384 1731.58 819.34 1740.25 C 806.061 1743.64 794.142 1733.71 793.891 1720.52 C 793.799 1715.66 795.515 1708.8 796.531 1703.84 C 781.816 1705.51 774.617 1706.79 759.979 1703.34 C 748.282 1693.16 742.201 1684.14 755.014 1670.49 C 776.03 1648.11 815.765 1640.69 839.239 1624.07 C 838.221 1613.21 837.352 1601.38 837.607 1590.45 C 838.282 1561.57 834.461 1532.58 835.743 1503.78 C 753.965 1494.96 651.615 1445.41 586.105 1396.37 C 575.313 1388.28 564.804 1379.83 554.597 1371.01 C 543.025 1360.89 536.269 1352.39 522.637 1345.28 C 522.371 1345.44 522.105 1345.61 521.839 1345.77 C 506.763 1355.12 494.739 1371.77 481.058 1382.11 C 442.309 1411.41 396.676 1440.95 347.182 1445.81 C 323.759 1448.11 300.669 1440.82 287.789 1419.97 C 270.487 1391.96 280.353 1359.21 286.754 1329.48 C 300.096 1274.4 323.585 1220.62 348.968 1170.12 C 352.908 1162.28 357.416 1153.76 361.637 1146.48 C 364.705 1140.37 382.723 1120.05 382.573 1114.34 C 382.009 1092.89 374.537 1071 371.173 1049.21 C 339.379 843.221 453.937 652.075 630.219 544.028 C 682.752 512.334 739.514 488.252 798.81 472.5 C 812.403 469.07 826.077 465.974 839.821 463.214 C 845.209 462.091 857.964 460.96 861.049 457.001 C 860.744 454.125 859.423 451.001 856.556 449.162 C 837.491 436.932 794.561 397.192 813.719 372.214 C 824.503 358.153 857.233 381.581 871.656 386.616 z"/>
<path transform="translate(0,0)" fill="rgb(171,170,170)" d="M 1426.67 627.021 C 1429.54 630.412 1432.74 639.493 1434.51 644.064 C 1430.27 639.653 1423.35 632.914 1419.57 628.456 C 1423.13 628.255 1423.2 628.388 1426.67 627.021 z"/>
<path transform="translate(0,0)" fill="rgb(135,194,177)" d="M 423.58 791.705 C 468.229 685.481 563.208 595.819 663.179 541.175 C 906.395 408.231 1233.84 444.428 1423.24 653.883 C 1444.78 677.706 1468.31 709.108 1483.67 737.413 C 1492.55 751.058 1492.11 760.61 1498.58 771.318 C 1493.08 797.204 1495 813.534 1523.89 822.39 C 1528.99 838.481 1535.04 857.86 1537.56 874.573 C 1539 882.089 1540.24 894.337 1546.18 899.066 C 1551.25 900.318 1554.16 897.838 1556.75 893.608 C 1553.39 868.48 1547.9 852.609 1542.1 828.514 C 1548.74 835.664 1553.23 841.344 1562.53 845.095 C 1583.22 853.44 1605.46 842.829 1613.21 822.359 C 1627.38 820.175 1632.97 819.277 1644.6 810.439 C 1652.8 800.652 1654.94 789.267 1650.94 777.265 C 1643.29 762.662 1664.51 758.209 1645.49 732.514 C 1648.99 720.443 1652.36 704.775 1662.94 697.379 C 1674.63 689.211 1698.13 683.763 1712.21 685.868 C 1748.06 688.951 1744.11 738.706 1740.71 764.077 C 1732.89 822.377 1709.04 876.576 1679.24 926.579 C 1646.71 983.409 1603.09 1033.11 1550.96 1072.74 C 1552.73 1062.08 1560.71 1023.97 1554.74 1013.67 C 1554.23 1012.78 1550.77 1010.8 1549.61 1010.14 C 1546.06 1012.01 1543.42 1013.07 1542.48 1017.16 C 1540.07 1027.65 1540.08 1039.15 1538.66 1049.85 C 1536.58 1065.61 1533.39 1080.34 1529.55 1095.66 C 1507.3 1184.4 1460.77 1259.56 1397.07 1324.51 C 1386.19 1335.6 1367.28 1353.92 1354.84 1363.24 C 1208.15 1476.78 1046.01 1517.79 862.449 1494.24 C 802.02 1485.99 743.226 1468.45 688.146 1442.26 C 670.999 1435.14 631.445 1411.71 615.614 1401.18 C 498.488 1324.82 416.758 1204.8 388.624 1067.84 C 373.375 990.136 379.117 909.774 405.257 835.029 C 408.591 825.397 418.251 799.676 423.58 791.705 z"/>
<path transform="translate(0,0)" fill="rgb(251,249,234)" d="M 666.883 1339.93 C 668.283 1278.54 696.271 1220.02 736.821 1174.94 C 884.234 1011.04 1227.22 1020.85 1331.44 1229.15 C 1343.77 1253.8 1355.16 1292.98 1356.17 1320.57 C 1357.95 1330.32 1356.54 1353.52 1354.84 1363.24 C 1208.15 1476.78 1046.01 1517.79 862.449 1494.24 C 802.02 1485.99 743.226 1468.45 688.146 1442.26 C 675.747 1426.19 667.205 1375.67 666.84 1355.05 L 666.883 1339.93 z"/>
<path transform="translate(0,0)" fill="rgb(231,212,194)" d="M 1356.17 1320.57 C 1357.95 1330.32 1356.54 1353.52 1354.84 1363.24 C 1208.15 1476.78 1046.01 1517.79 862.449 1494.24 C 802.02 1485.99 743.226 1468.45 688.146 1442.26 C 675.747 1426.19 667.205 1375.67 666.84 1355.05 L 666.883 1339.93 C 678.289 1347.09 696.209 1355.37 708.526 1361.2 C 767.679 1389.89 830.381 1410.59 894.986 1422.76 C 914.264 1426.38 933.739 1428.59 953.287 1430.16 C 1072.52 1439.79 1193.65 1419.81 1300.81 1365.65 C 1318.93 1356.49 1339.42 1346.15 1356.11 1334.76 L 1356.17 1320.57 z"/>
<path transform="translate(0,0)" fill="rgb(108,165,150)" d="M 423.58 791.705 L 425.08 791.865 L 426.423 789.791 C 426.963 798.171 421.179 824.355 419.674 834.849 C 416.97 854.826 415.419 874.943 415.03 895.098 C 412.687 1040.02 465.769 1181.87 577.747 1276.26 C 607.331 1301.2 632.486 1318.29 666.133 1337.98 C 666.125 1343.9 665.901 1349.19 666.84 1355.05 C 667.205 1375.67 675.747 1426.19 688.146 1442.26 C 670.999 1435.14 631.445 1411.71 615.614 1401.18 C 498.488 1324.82 416.758 1204.8 388.624 1067.84 C 373.375 990.136 379.117 909.774 405.257 835.029 C 408.591 825.397 418.251 799.676 423.58 791.705 z"/>
<path transform="translate(0,0)" fill="rgb(108,165,150)" d="M 1549.85 985.61 C 1556.53 983.481 1566.2 982.253 1573.16 980.792 C 1594.82 976.254 1613.79 969.088 1632.43 957.227 C 1646.71 948.142 1659.91 938.654 1673.19 928.121 C 1674.9 926.764 1677.16 926.666 1679.24 926.579 C 1646.71 983.409 1603.09 1033.11 1550.96 1072.74 C 1552.73 1062.08 1560.71 1023.97 1554.74 1013.67 C 1554.23 1012.78 1550.77 1010.8 1549.61 1010.14 C 1548.55 1003.48 1549.25 992.361 1549.85 985.61 z"/>
<path transform="translate(0,0)" fill="rgb(108,165,150)" d="M 1644.6 810.439 C 1640.95 850.124 1617.47 878.066 1579.05 889.087 C 1573.57 890.657 1559.92 891.079 1556.75 893.608 C 1553.39 868.48 1547.9 852.609 1542.1 828.514 C 1548.74 835.664 1553.23 841.344 1562.53 845.095 C 1583.22 853.44 1605.46 842.829 1613.21 822.359 C 1627.38 820.175 1632.97 819.277 1644.6 810.439 z"/>
<path transform="translate(0,0)" fill="rgb(108,165,150)" d="M 1483.67 737.413 C 1492.55 751.058 1492.11 760.61 1498.58 771.318 C 1493.08 797.204 1495 813.534 1523.89 822.39 C 1528.99 838.481 1535.04 857.86 1537.56 874.573 C 1527.29 878.339 1512.14 864.909 1505.21 858.108 C 1482.58 835.925 1469.42 803.595 1477.05 772.008 C 1479.24 762.967 1484.04 746.37 1483.67 737.413 z"/>
<path transform="translate(0,0)" fill="rgb(108,165,150)" d="M 1645.49 732.514 C 1648.99 720.443 1652.36 704.775 1662.94 697.379 C 1674.63 689.211 1698.13 683.763 1712.21 685.868 C 1705.89 686.212 1699.67 687.666 1693.85 690.163 C 1675.32 711.227 1655.97 732.25 1654.52 760.916 C 1654.26 766.07 1652.2 772.177 1650.94 777.265 C 1643.29 762.662 1664.51 758.209 1645.49 732.514 z"/>
<path transform="translate(0,0)" fill="rgb(43,35,43)" d="M 1174.3 737.415 C 1290.77 731.479 1330.37 938.457 1193.99 958.975 C 1057.79 965.177 1047.59 747.345 1174.3 737.415 z"/>
<path transform="translate(0,0)" fill="rgb(255,255,255)" d="M 1138.48 789.6 C 1142.9 792.954 1149.09 805.463 1152.5 810.382 C 1159.49 820.479 1173.65 822.884 1184.84 825.087 C 1159.35 840.356 1158.35 845.968 1154.6 874.262 C 1152.14 871.514 1144.69 857.284 1140.71 852.314 C 1132.16 841.647 1120.33 840.69 1107.53 838.691 C 1132.9 824.178 1137.47 819.375 1138.48 789.6 z"/>
<path transform="translate(0,0)" fill="rgb(255,255,255)" d="M 1223.04 849.794 C 1229.82 847.278 1237.36 850.69 1239.94 857.444 C 1242.53 864.198 1239.2 871.775 1232.47 874.431 C 1228.05 876.174 1223.05 875.412 1219.35 872.435 C 1215.65 869.458 1213.84 864.725 1214.6 860.042 C 1215.37 855.358 1218.59 851.444 1223.04 849.794 z"/>
<path transform="translate(0,0)" fill="rgb(43,35,43)" d="M 734.664 777.297 C 857.729 765.831 892.752 969.479 767.022 996.83 C 759.281 998.244 748.942 998.514 741.155 997.316 C 630.66 980.313 618.155 796.149 734.664 777.297 z"/>
<path transform="translate(0,0)" fill="rgb(255,255,255)" d="M 762.162 802.122 C 795.837 798.603 808.3 849.043 776.052 862.905 C 750.942 864.643 739.726 840.792 746.333 818.422 C 748.744 810.259 754.658 805.69 762.162 802.122 z"/>
<path transform="translate(0,0)" fill="rgb(255,255,255)" d="M 710.229 831.824 C 713.07 834.82 720.737 849.629 724.338 854.339 C 732.563 865.092 744.259 866.023 756.862 867.698 C 730.331 884.826 728.367 886.036 725.044 918.375 C 723.633 916.673 723.773 916.803 722.72 914.889 C 707.97 888.096 706.457 887.771 678.956 879.747 C 704.205 869.16 708.232 857.647 710.229 831.824 z"/>
<path transform="translate(0,0)" fill="rgb(255,255,255)" d="M 791.577 884.786 C 798.501 882.173 806.238 885.611 808.941 892.5 C 811.643 899.389 808.307 907.17 801.454 909.963 C 796.941 911.802 791.787 911.07 787.964 908.048 C 784.141 905.025 782.24 900.179 782.988 895.363 C 783.736 890.547 787.017 886.506 791.577 884.786 z"/>
<path transform="translate(0,0)" fill="rgb(43,35,43)" d="M 975.494 874.112 C 1000.91 874.447 1048.43 904.044 1068.83 920.308 C 1072.22 923.008 1071.17 933.724 1070.52 937.465 C 1065.17 968.26 1033.72 1059.01 994.939 1051.64 C 954.422 1033.8 911.494 981.93 895.067 941.115 C 903.452 921.942 955.422 880.524 975.494 874.112 z"/>
<path transform="translate(0,0)" fill="rgb(245,205,135)" d="M 975.385 888.963 C 992.507 888.808 1037.92 916.264 1052.27 926.713 C 1038.56 937.639 1005.43 955.598 989.363 963.658 C 981.58 968.165 923.057 944.988 913.706 939.812 C 929.048 922.803 956.271 901.166 975.385 888.963 z"/>
<path transform="translate(0,0)" fill="rgb(122,34,32)" d="M 1041.92 950.267 L 1053.54 943.257 C 1052.31 948.608 1051.16 954.02 1049.6 959.277 C 1044.68 971.809 1040.04 984.446 1035.68 997.181 C 1004.74 981.895 978.104 978.804 945.456 992.457 C 936.166 981.505 927.659 969.913 919.998 957.766 C 928.528 960.555 937.166 964.696 945.747 967.632 C 959.449 972.322 973.313 975.754 987.451 978.76 C 1003.02 973.53 1028.44 959.486 1041.92 950.267 z"/>
<path transform="translate(0,0)" fill="rgb(245,190,186)" d="M 982.856 996.383 L 983.989 996.369 C 998.43 996.313 1017.41 1000.17 1028.01 1010.54 C 1022.21 1019.68 1012.36 1032.83 1002.62 1037.75 C 986.157 1031.84 965.441 1016.43 955.302 1002.33 C 965.393 998.781 972.181 997.132 982.856 996.383 z"/>
<path transform="translate(0,0)" fill="rgb(255,255,255)" d="M 1165.23 532.291 C 1217.59 528.255 1305.3 572.801 1321.98 626.181 C 1326.8 641.609 1313.99 649.353 1300.93 651.995 C 1268.25 653.546 1240.17 642.575 1211.32 627.073 C 1185.38 611.505 1150.86 588.921 1140.88 558.741 C 1135.26 541.717 1151.64 534.886 1165.23 532.291 z"/>
<path transform="translate(0,0)" fill="rgb(245,190,186)" d="M 1311.53 927.33 C 1328.78 925.388 1350.65 927.966 1365.96 936.872 C 1378.74 944.308 1384.88 959.069 1374.96 971.694 C 1362.86 987.099 1340.86 993.639 1322.25 996.657 C 1239.98 1006.05 1229.95 937.815 1311.53 927.33 z"/>
<path transform="translate(0,0)" fill="rgb(245,190,186)" d="M 648.487 989.39 C 728.308 984.942 739.452 1046.82 658.183 1058.77 C 640.706 1060.68 614.796 1058.6 601.344 1048.04 C 573.205 1025.96 602.947 999.142 627.289 993.349 C 635.948 991.288 639.866 990.186 648.487 989.39 z"/>
<path transform="translate(0,0)" fill="rgb(252,238,166)" d="M 1446.23 506.842 C 1461.92 474.039 1490.1 448.893 1524.47 437.028 C 1558.4 425.186 1595.65 427.346 1627.98 443.032 C 1663.08 460.261 1686.59 489.675 1699.36 526.398 C 1712.21 563.371 1705.37 623.425 1679.62 653.827 C 1661.47 683.737 1644.91 683.783 1632.61 724.84 C 1620.4 724.995 1608.2 725.37 1596 725.962 C 1595.3 712.714 1593.61 690.227 1594.12 677.369 C 1593.59 664.271 1593.7 652.624 1593.92 639.506 C 1608.48 633.678 1632.32 624.856 1629.07 604.625 C 1627.78 596.63 1619.57 591.695 1611.75 593.964 C 1594.72 598.912 1592.82 618.203 1586.01 631.717 C 1584.8 634.121 1580.74 633.971 1578.44 634.224 C 1571.32 635.628 1556.64 634.992 1549.01 634.708 C 1544.69 621.187 1531.32 593.102 1513.01 602.433 C 1510.02 603.95 1507.79 606.635 1506.84 609.853 C 1501.23 628.733 1528.93 638.393 1542.45 641.996 C 1546.06 674.945 1546.73 693.974 1547.77 726.675 C 1536.11 726.627 1523.22 727.245 1511.49 727.631 C 1497.02 679.801 1456.93 672.701 1440.98 623.681 C 1427.17 581.215 1427.24 546.952 1446.23 506.842 z"/>
<path transform="translate(0,0)" fill="rgb(245,205,135)" d="M 1446.23 506.842 C 1445.58 520.6 1444.59 535.788 1445.82 549.406 C 1449.22 587.058 1464.04 626.565 1489.75 654.733 C 1499.77 665.707 1511.11 674.652 1523.63 682.52 C 1530.04 686.547 1539.15 691.19 1544.14 696.222 C 1544.02 680.745 1542.4 657.928 1539.15 642.798 C 1504.09 639.353 1484.5 595.98 1525.53 598.784 C 1539.53 599.74 1544.65 623.574 1552.23 630.752 C 1558.3 631.953 1570.8 633.108 1578.44 634.224 C 1571.32 635.628 1556.64 634.992 1549.01 634.708 C 1544.69 621.187 1531.32 593.102 1513.01 602.433 C 1510.02 603.95 1507.79 606.635 1506.84 609.853 C 1501.23 628.733 1528.93 638.393 1542.45 641.996 C 1546.06 674.945 1546.73 693.974 1547.77 726.675 C 1536.11 726.627 1523.22 727.245 1511.49 727.631 C 1497.02 679.801 1456.93 672.701 1440.98 623.681 C 1427.17 581.215 1427.24 546.952 1446.23 506.842 z"/>
<path transform="translate(0,0)" fill="rgb(245,205,135)" d="M 1596.74 704.735 C 1602.44 704.973 1633.23 705.045 1636.11 702.66 C 1642.82 697.087 1672.34 655.975 1679.62 653.827 C 1661.47 683.737 1644.91 683.783 1632.61 724.84 C 1620.4 724.995 1608.2 725.37 1596 725.962 C 1595.3 712.714 1593.61 690.227 1594.12 677.369 C 1597.12 686.99 1596.41 694.655 1596.74 704.735 z"/>
<path transform="translate(0,0)" fill="rgb(255,255,255)" d="M 1623.75 458.189 C 1651.13 460.703 1683.08 501.716 1646.73 511.409 C 1627.75 507.192 1582.42 468.672 1623.75 458.189 z"/>
<path transform="translate(0,0)" fill="rgb(255,255,255)" d="M 1581.82 447.972 C 1589 447.47 1602.37 448.72 1600.69 459.401 C 1599.96 464.108 1593.94 467.21 1590.15 469.685 C 1568.37 476.522 1566.23 456.395 1581.82 447.972 z"/>
<path transform="translate(0,0)" fill="rgb(255,255,255)" d="M 1669.11 518.581 C 1674.91 516.629 1681.2 519.713 1683.2 525.493 C 1685.21 531.274 1682.18 537.59 1676.42 539.648 C 1670.58 541.734 1664.17 538.659 1662.14 532.803 C 1660.1 526.948 1663.24 520.559 1669.11 518.581 z"/>
<path transform="translate(0,0)" fill="rgb(135,194,177)" d="M 360.606 1178.04 C 367.263 1166.7 381.635 1138.96 389.282 1130.68 C 416.5 1210.75 451.878 1273.12 510.756 1334.53 C 497.802 1348.15 489.173 1356.41 474.641 1368.43 C 448.021 1389.49 415.411 1411.06 383.292 1422.6 C 214.811 1483.11 329.903 1237.54 360.606 1178.04 z"/>
<path transform="translate(0,0)" fill="rgb(108,165,150)" d="M 360.606 1178.04 C 367.263 1166.7 381.635 1138.96 389.282 1130.68 C 416.5 1210.75 451.878 1273.12 510.756 1334.53 C 497.802 1348.15 489.173 1356.41 474.641 1368.43 C 470.725 1364.53 466.168 1361.54 462.192 1357.27 C 416.39 1308.06 381.816 1247.51 364.121 1182.6 C 363.651 1180.87 361.945 1179.27 360.606 1178.04 z"/>
<path transform="translate(0,0)" fill="rgb(245,205,135)" d="M 1068.74 1506.6 C 1086.77 1504.23 1108.61 1499.2 1126.61 1495.32 C 1125.38 1511.6 1126.3 1529.35 1125.34 1546.13 C 1124.85 1565.94 1122.36 1615.64 1124.32 1631.82 C 1124.63 1632.03 1124.92 1632.24 1125.23 1632.44 C 1140.91 1642.93 1213.12 1669.81 1215.84 1685.73 C 1216.1 1687.25 1215.24 1687.74 1214.4 1688.89 C 1203.12 1693.41 1180.84 1688.01 1169.1 1684.74 C 1158.84 1681.88 1139.45 1659.22 1132.98 1673.11 C 1133.67 1687.11 1182.76 1712.44 1168.81 1726.57 C 1144.85 1730.87 1083.65 1685.03 1069.24 1666.89 L 1069.01 1553.77 L 1068.74 1506.6 z"/>
<path transform="translate(0,0)" fill="rgb(229,168,93)" d="M 1068.74 1506.6 C 1086.77 1504.23 1108.61 1499.2 1126.61 1495.32 C 1125.38 1511.6 1126.3 1529.35 1125.34 1546.13 C 1119.85 1545.58 1076.93 1552.22 1069.01 1553.77 L 1068.74 1506.6 z"/>
<path transform="translate(0,0)" fill="rgb(245,205,135)" d="M 849.925 1508.66 C 869.418 1511.23 888.992 1513.16 908.613 1514.43 L 908.189 1557.34 C 908.426 1593.94 908.35 1630.54 907.959 1667.14 C 906.667 1668.68 905.32 1670.17 903.923 1671.61 C 891.861 1684.04 822.239 1739.49 807.965 1723.72 C 801.623 1702.09 849.056 1687.78 843.503 1672.01 C 833.852 1662.84 825.235 1678.91 816.968 1682.49 C 804.084 1688.06 776.219 1694.58 763.257 1689.41 C 749.478 1673.59 843.061 1642.94 849.468 1633.53 C 855.71 1624.36 851.246 1561.56 850.919 1548.19 L 849.925 1508.66 z"/>
<path transform="translate(0,0)" fill="rgb(229,168,93)" d="M 849.925 1508.66 C 869.418 1511.23 888.992 1513.16 908.613 1514.43 L 908.189 1557.34 C 887.061 1555.54 869.855 1550.41 850.919 1548.19 L 849.925 1508.66 z"/>
<path transform="translate(0,0)" fill="rgb(171,170,170)" d="M 1507.23 746.948 C 1509.08 744.197 1509.79 741.742 1512.98 741.851 C 1534.22 742.579 1618.75 736.456 1635.85 741.295 C 1644.72 749.572 1636.22 762.653 1632.09 771.463 C 1639.2 782.426 1643.11 790.114 1632.73 801.223 C 1622.12 809.71 1578.6 810.348 1563.32 809.789 C 1530.42 808.585 1499.09 814.313 1514.77 770.812 C 1509.99 759.468 1506.83 759.486 1507.23 746.948 z"/>
<path transform="translate(0,0)" fill="rgb(145,144,145)" d="M 1514.77 770.812 C 1509.99 759.468 1506.83 759.486 1507.23 746.948 C 1508.33 752.114 1510.29 754.892 1512.42 759.517 C 1533.83 805.927 1589.08 797.897 1632.73 801.223 C 1622.12 809.71 1578.6 810.348 1563.32 809.789 C 1530.42 808.585 1499.09 814.313 1514.77 770.812 z"/>
<path transform="translate(0,0)" fill="rgb(245,205,135)" d="M 888.99 387.714 C 876.257 350.612 867.721 308.523 885.51 270.862 C 887.073 267.554 888.584 265.445 891.987 264.069 C 896.313 263.982 898.781 265.475 901.875 268.536 C 925.47 291.886 931.572 328.304 931.982 359.733 C 932.057 369.974 931.427 380.209 930.097 390.363 C 930.641 405.464 924.582 428.844 920.603 443.907 C 910.284 431.16 894.046 403.388 888.99 387.714 z"/>
<path transform="translate(0,0)" fill="rgb(229,168,93)" d="M 888.99 387.714 C 892.451 390.745 893.531 393.398 895.73 397.39 C 911.86 407.389 923.5 412.325 930.097 390.363 C 930.641 405.464 924.582 428.844 920.603 443.907 C 910.284 431.16 894.046 403.388 888.99 387.714 z"/>
<path transform="translate(0,0)" fill="rgb(245,205,135)" d="M 944.132 421.751 C 954.219 402.841 967.406 385.226 985.2 372.917 C 994.686 366.355 1011.46 357.307 1023.18 360.034 C 1036.12 372.473 1002.32 409.762 992.578 418.233 C 990.453 420.097 988.207 421.819 985.854 423.387 C 977.857 429.906 945.445 453.958 935.333 446.607 C 933.409 439.896 940.66 428.53 944.132 421.751 z"/>
<path transform="translate(0,0)" fill="rgb(229,168,93)" d="M 985.854 423.387 C 977.857 429.906 945.445 453.958 935.333 446.607 C 933.409 439.896 940.66 428.53 944.132 421.751 C 944.612 423.125 944.859 425.205 946.244 425.647 C 958.877 429.683 973.606 426.878 985.854 423.387 z"/>
<path transform="translate(0,0)" fill="rgb(245,205,135)" d="M 868.05 442.789 C 859.958 438.572 851.555 431.069 844.914 424.822 C 838.198 418.502 814.177 389.156 824.753 381.17 C 836.114 380.627 867.062 402.258 876.104 410.264 C 880.808 414.418 882.071 415.698 886.077 420.512 C 894.019 431.052 901.897 441.64 909.711 452.275 C 890.34 454.397 884.83 452.015 868.05 442.789 z"/>
<path transform="translate(0,0)" fill="rgb(229,168,93)" d="M 886.077 420.512 C 894.019 431.052 901.897 441.64 909.711 452.275 C 890.34 454.397 884.83 452.015 868.05 442.789 C 872.212 443.182 877.903 444.588 880.878 441.538 L 880.687 438.239 C 881.704 427.04 886.176 431.359 886.077 420.512 z"/>
<path transform="translate(0,0)" fill="rgb(229,168,93)" d="M 876.104 410.264 C 880.808 414.418 882.071 415.698 886.077 420.512 C 886.176 431.359 881.704 427.04 880.687 438.239 C 878.849 428.194 880.678 419.724 876.104 410.264 z"/>
<path transform="translate(0,0)" fill="rgb(252,238,166)" d="M 1562.49 643.618 C 1570.02 643.08 1577.55 642.505 1585.08 641.891 C 1584.6 654.773 1584.29 667.661 1584.14 680.552 C 1585.41 695.474 1585.61 711.026 1586.52 726.104 L 1557.17 726.342 C 1556.94 716.461 1556.74 707.462 1555.88 697.58 C 1554.85 679.663 1552.25 661.313 1551.48 643.969 C 1554.87 642.573 1558.73 643.309 1562.49 643.618 z"/>
<path transform="translate(0,0)" fill="rgb(245,205,135)" d="M 1584.14 680.552 C 1585.41 695.474 1585.61 711.026 1586.52 726.104 L 1557.17 726.342 C 1556.94 716.461 1556.74 707.462 1555.88 697.58 L 1559.58 698.821 C 1567.4 701.303 1576.16 702.391 1584.31 703.191 C 1583.76 694.897 1583.44 688.8 1584.14 680.552 z"/>
<path transform="translate(0,0)" fill="rgb(245,205,135)" d="M 1555.88 697.58 C 1554.85 679.663 1552.25 661.313 1551.48 643.969 C 1554.87 642.573 1558.73 643.309 1562.49 643.618 C 1557.68 644.457 1557.58 643.635 1554.82 646.422 C 1557.64 663.884 1557.62 681.271 1559.58 698.821 L 1555.88 697.58 z"/>
<path transform="translate(0,0)" fill="rgb(245,205,135)" d="M 1614.35 600.692 C 1618.3 600.945 1618.1 600.999 1621.02 603.351 C 1624.82 614.255 1610.74 624.115 1602.32 628.437 C 1599.32 629.529 1600.49 629.565 1597.64 629.066 C 1594.74 620.053 1606.92 605.318 1614.35 600.692 z"/>
<path transform="translate(0,0)" fill="rgb(245,205,135)" d="M 1515.8 607.675 C 1527.08 608.122 1542.27 623.718 1538.61 632.749 C 1527.87 630.012 1506.37 622.235 1515.8 607.675 z"/>
<path transform="translate(0,0)" fill="rgb(145,144,145)" d="M 1587.03 823.43 C 1589.96 823.1 1592.04 822.469 1594.56 823.808 L 1594.54 825.696 C 1588.06 833.583 1576.3 834.557 1566.93 833.25 C 1561.42 830.159 1558.76 827.883 1553.84 823.931 C 1565.51 824.18 1575.36 824.151 1587.03 823.43 z"/>
<path transform="translate(0,0)" fill="rgb(145,144,145)" d="M 1478.05 700.789 C 1489.01 705.906 1495.67 717.013 1497.8 728.565 C 1489.49 723.15 1482.23 709.589 1478.05 700.789 z"/>
<path transform="translate(0,0)" fill="rgb(1,1,1)" d="M 1565.04 334.519 C 1565.84 334.819 1568.16 335.77 1568.48 336.389 C 1573.64 346.148 1575.17 376.566 1567.76 384.09 L 1564.02 382.02 C 1560.53 377.22 1560.22 356.175 1560.02 349.702 C 1559.8 342.717 1560.23 339.405 1565.04 334.519 z"/>
<path transform="translate(0,0)" fill="rgb(1,1,1)" d="M 1355.62 529.657 C 1363.66 529.409 1394.31 530.225 1395.19 540.066 L 1392.3 543.392 C 1384.24 543.971 1356.73 541.498 1353.58 533.33 L 1355.62 529.657 z"/>
<path transform="translate(0,0)" fill="rgb(1,1,1)" d="M 1782.14 518.178 C 1785.68 518.832 1787.59 519.309 1788.93 522.526 C 1785.23 529.667 1762.65 532.785 1754.58 534.816 C 1751.09 534.145 1747.09 533.422 1747.25 529.286 C 1752.04 522.255 1773.21 521.161 1782.14 518.178 z"/>
<path transform="translate(0,0)" fill="rgb(1,1,1)" d="M 1417.39 394.454 C 1419.71 396.034 1441.65 423.132 1443.11 428.35 C 1443.72 430.51 1442.95 430.502 1441.51 433.105 C 1433.77 429.572 1418.2 407.292 1414.46 399.208 C 1414.01 398.228 1416.67 395.399 1417.39 394.454 z"/>
<path transform="translate(0,0)" fill="rgb(43,35,43)" d="M 1710.32 402.546 C 1711.46 404.646 1712.74 407.183 1713.98 409.176 C 1709.38 415.633 1703.91 429.382 1695.73 433.283 C 1692.3 432.688 1693.69 433.507 1691.53 430.572 C 1691.09 425.68 1706.37 408.087 1710.32 402.546 z"/>
<path transform="translate(0,0)" fill="rgb(1,1,1)" fill-opacity="0.988235" d="M 1710.32 402.546 C 1713.02 399.067 1713.92 397.176 1717.8 395.51 L 1720.26 395.684 C 1722.18 398.45 1721.61 396.874 1721.35 400.762 C 1719.05 404.712 1717.35 405.964 1713.98 409.176 C 1712.74 407.183 1711.46 404.646 1710.32 402.546 z"/>
</svg>