<svg version="1.1" xmlns="http://www.w3.org/2000/svg" viewBox="254.78 219.16 1573.73 1553.49" width="1574" height="1553">
<defs>
	<linearGradient id="Gradient1" gradientUnits="userSpaceOnUse" x1="1519.72" y1="892.972" x2="1722.97" y2="819.517">
		<stop class="stop0" offset="0" stop-opacity="1" stop-color="rgb(120,170,158)"/>
		<stop class="stop1" offset="1" stop-opacity="1" stop-color="rgb(152,208,193)"/>
	</linearGradient>
</defs>
<path transform="translate(0,0)" fill="rgb(43,36,43)" d="M 988.244 442.555 C 985.737 422.858 983.206 404.223 984.921 383.444 C 986.72 361.635 991.666 330.97 1014.02 319.537 C 1018.45 317.272 1024.78 318.4 1029.55 319.206 C 1066.11 357.087 1074 395.712 1065.32 447.66 L 1066.53 447.067 C 1098.78 430.94 1098.9 413.529 1141.76 413.902 C 1169.78 432.739 1140.95 471.542 1123.77 487.708 C 1115.8 495.217 1091.67 507.118 1088.58 515.117 C 1092.79 517.461 1132.55 521.528 1141.01 522.89 C 1152.89 524.905 1164.71 527.21 1176.47 529.802 C 1289.15 554.741 1405.59 627.876 1476.88 718.367 C 1481.73 724.518 1501.4 752.705 1505.68 755.104 C 1511.65 751.313 1518.28 739.493 1523.55 733.724 C 1552.27 702.263 1597.98 641.05 1646.57 650.065 C 1663.79 653.259 1682.87 672.221 1691.08 686.661 C 1721.29 739.814 1726.63 809.289 1713.02 867.578 C 1696.67 935.537 1662.77 998.014 1614.71 1048.76 C 1605.54 1058.56 1582.04 1075.28 1576.4 1085.18 C 1573.16 1090.88 1568.38 1121.06 1565.85 1130.49 C 1562.54 1142.81 1560.41 1149.6 1555.69 1162.1 C 1525.88 1239.44 1478.57 1308.84 1417.46 1364.85 C 1408.19 1373.45 1396.12 1382.48 1386.27 1390.74 C 1391.11 1395.09 1392.86 1397.56 1396 1403.35 C 1396 1409.67 1396.13 1416.5 1395.88 1422.78 C 1419.16 1412.42 1436.03 1431.54 1423.43 1454.7 C 1396.88 1503.51 1355.63 1541.41 1309.5 1571.47 C 1289.82 1584.29 1265.3 1569.07 1255.85 1550.24 C 1256.91 1542.42 1256.79 1532.54 1256.93 1524.49 C 1253.97 1518.29 1227.14 1485.29 1220.95 1479.22 C 1193.27 1487.92 1164.63 1497.25 1136.2 1503.14 C 1124.05 1505.66 1111.33 1506.53 1099.02 1508.03 C 1071.24 1511.4 1044.45 1514.45 1016.38 1513.45 C 984.264 1512.29 954.069 1508.7 922.593 1502.42 C 919.384 1501.78 905.242 1497.94 902.987 1499.18 C 902.015 1499.71 885.611 1529.35 884.061 1532.36 C 879.792 1540.66 877.036 1548.07 875.354 1557.25 C 892.17 1602.02 870.949 1643.26 821.759 1618.48 C 782.754 1598.83 737.038 1573.21 708.694 1539.2 C 698.12 1526.52 696.293 1523.11 698.585 1506.74 L 699.554 1505.65 C 711.788 1492.12 719.436 1498.88 725.08 1494.71 C 720.832 1478.55 715.799 1462.41 735.875 1456.58 C 746.066 1454.47 763.531 1462.74 768.083 1457.25 C 767.339 1452.92 767.271 1453.98 764.056 1450.07 C 763.481 1446.46 747.28 1440.17 742.822 1437.6 C 722.637 1426.05 703.014 1413.53 684.02 1400.11 C 662.169 1384.44 641.529 1365.6 621.354 1347.79 C 615.643 1342.75 609.236 1333.67 603.794 1327.69 C 555.38 1274.52 508.452 1197.36 495.254 1125.73 C 494.586 1121.93 493.992 1118.12 493.474 1114.29 L 492.238 1113.01 C 480.791 1101.23 467.896 1094.06 455.833 1083.65 C 386.393 1023.7 340.286 923.385 340.739 831.7 C 340.976 783.858 349.857 731.124 386.562 697.576 C 442.637 647.79 513.581 743.949 545.768 779.219 C 558.729 766.817 566.186 750.842 576.882 737.086 C 588.355 722.331 601.163 705.553 613.911 691.967 C 691.251 609.889 791.285 552.709 901.256 527.717 C 917.538 523.903 958.022 516.023 974.456 515.961 C 976.084 515.954 977.712 516.011 979.336 516.132 C 973.461 507.751 963.185 502.369 956.073 495.893 C 942.691 483.707 926.48 454.603 931.3 436.059 C 938.512 408.309 976.628 435.509 988.244 442.555 z"/>
<path transform="translate(0,0)" fill="rgb(255,255,255)" d="M 764.056 1450.07 C 767.893 1449.21 766.049 1449.08 769.776 1450.6 C 772.631 1454.79 770.997 1466.28 771.236 1472.51 C 758.362 1462.04 752.938 1457.43 735.875 1456.58 C 746.066 1454.47 763.531 1462.74 768.083 1457.25 C 767.339 1452.92 767.271 1453.98 764.056 1450.07 z"/>
<path transform="translate(0,0)" fill="rgb(139,197,181)" d="M 499.279 1046.44 C 482.344 764.931 721.34 548.17 991.162 530.361 C 1146.76 520.091 1297.57 567.163 1413.98 672.514 C 1500.09 750.606 1558.82 864.793 1565.65 981.479 C 1570.93 1077.57 1545.46 1172.85 1492.94 1253.5 C 1480.06 1273.43 1463.53 1293.93 1448.54 1312.24 C 1431.43 1332.59 1388.8 1374.57 1366.31 1386.79 C 1358.84 1390.54 1351.97 1396.09 1345.25 1401.13 C 1337.11 1362.17 1310.98 1381.58 1297.13 1404.43 C 1290.79 1415.07 1285.62 1426.37 1281.7 1438.13 C 1155.17 1500.48 1010.09 1513.99 874.216 1476.1 C 859.136 1471.98 840.25 1465 825.665 1460.49 C 803.87 1453.75 805.384 1440.31 780.342 1439.85 C 774.847 1439.75 736.769 1417.07 730.055 1412.49 C 710.216 1401.3 683.192 1381.6 665.913 1366.69 C 566.095 1280.56 510.591 1177.25 499.279 1046.44 z"/>
<path transform="translate(0,0)" fill="rgb(251,249,234)" d="M 1047.04 1064.67 C 1059.76 1063.31 1076.57 1065.31 1089.42 1066.46 C 1220.02 1078.11 1356.34 1164.16 1371.35 1304.21 C 1372.97 1319.33 1373.75 1337.04 1372.18 1352.24 C 1370.81 1364.56 1369.81 1374.77 1366.31 1386.79 C 1358.84 1390.54 1351.97 1396.09 1345.25 1401.13 C 1337.11 1362.17 1310.98 1381.58 1297.13 1404.43 C 1290.79 1415.07 1285.62 1426.37 1281.7 1438.13 C 1155.17 1500.48 1010.09 1513.99 874.216 1476.1 C 859.136 1471.98 840.25 1465 825.665 1460.49 C 803.87 1453.75 805.384 1440.31 780.342 1439.85 C 774.847 1439.75 736.769 1417.07 730.055 1412.49 C 720.44 1392.43 715.997 1363.08 715.767 1340.99 L 715.649 1340.34 C 713.537 1289.97 733.087 1237.35 762.057 1196.46 C 805.391 1135.29 865.054 1099.02 936.194 1079.09 C 957.387 1073.15 977.655 1070.01 999.212 1066.35 C 1017.11 1079.15 1030.18 1079.47 1047.04 1064.67 z"/>
<path transform="translate(0,0)" fill="rgb(234,216,200)" d="M 715.767 1340.99 C 746.787 1357.56 775.354 1373.26 807.918 1385.61 C 974.359 1448.72 1163.21 1437.29 1326.86 1371 C 1341.58 1365.04 1357.23 1357.53 1372.18 1352.24 C 1370.81 1364.56 1369.81 1374.77 1366.31 1386.79 C 1358.84 1390.54 1351.97 1396.09 1345.25 1401.13 C 1337.11 1362.17 1310.98 1381.58 1297.13 1404.43 C 1290.79 1415.07 1285.62 1426.37 1281.7 1438.13 C 1155.17 1500.48 1010.09 1513.99 874.216 1476.1 C 859.136 1471.98 840.25 1465 825.665 1460.49 C 803.87 1453.75 805.384 1440.31 780.342 1439.85 C 774.847 1439.75 736.769 1417.07 730.055 1412.49 C 720.44 1392.43 715.997 1363.08 715.767 1340.99 z"/>
<path transform="translate(0,0)" fill="rgb(43,36,43)" d="M 940.169 924.755 C 948.386 911.119 1002.01 867.711 1018.66 870.527 C 1040.51 874.222 1084.66 904.447 1098.34 922.23 C 1097.89 930.005 1095 946.675 1093.56 954.554 C 1086.5 993.062 1075.27 1036.09 1047.04 1064.67 C 1030.18 1079.47 1017.11 1079.15 999.212 1066.35 C 964.989 1033.32 944.839 971.227 940.169 924.755 z"/>
<path transform="translate(0,0)" fill="rgb(245,208,138)" d="M 1014.56 883.869 C 1032.01 885.121 1068.81 912.288 1081.43 923.955 C 1065.26 932.758 1039.83 941.237 1021.94 947.828 C 1007.36 949.105 975.171 931.963 960.096 927.972 C 957.314 927.236 958.889 928.577 957.242 926.543 C 960.726 917.03 1004.29 888.905 1014.56 883.869 z"/>
<path transform="translate(0,0)" fill="rgb(244,188,184)" d="M 1024 993.258 C 1040.18 991.973 1052.38 992.708 1067.17 1000.08 C 1060.83 1024 1048.44 1051.7 1024.48 1062.19 C 1004.19 1061.03 987.602 1031.37 979.882 1015.32 C 995.079 1003.38 1005.06 997.633 1024 993.258 z"/>
<path transform="translate(0,0)" fill="rgb(140,40,36)" d="M 1079.79 939.953 L 1080.91 941.475 C 1080.69 949.15 1073.94 977.533 1072.02 985.994 C 1034.09 971.343 1005.9 978.626 973.883 1001.99 C 971.307 996.314 969.124 988.848 967.17 982.787 C 963.293 969.558 959.016 956.108 956.425 942.595 C 973.199 947.56 1004.74 962.445 1020.77 961.253 C 1032.22 960.403 1068.41 945.024 1079.79 939.953 z"/>
<path transform="translate(0,0)" fill="rgb(123,172,161)" d="M 499.279 1046.44 C 503.461 1051.4 505.308 1064.05 507.375 1070.75 C 540.612 1178.39 610.416 1271.73 705.088 1333.04 C 708.464 1335.23 712.197 1338.4 715.649 1340.34 L 715.767 1340.99 C 715.997 1363.08 720.44 1392.43 730.055 1412.49 C 710.216 1401.3 683.192 1381.6 665.913 1366.69 C 566.095 1280.56 510.591 1177.25 499.279 1046.44 z"/>
<path transform="translate(0,0)" fill="rgb(123,172,161)" d="M 1372.18 1352.24 C 1380.62 1348.64 1390.21 1341.66 1398.19 1338.1 C 1410.32 1332.67 1436.38 1311.98 1448.54 1312.24 C 1431.43 1332.59 1388.8 1374.57 1366.31 1386.79 C 1369.81 1374.77 1370.81 1364.56 1372.18 1352.24 z"/>
<path transform="translate(0,0)" fill="rgb(255,255,255)" d="M 1241.96 593.279 C 1292.58 590.95 1365.58 630.621 1380.94 682.138 C 1385.56 697.648 1377.89 705.988 1362.92 709.019 C 1329.25 709.968 1302.6 697.486 1274.55 678.937 C 1253.53 663.581 1226.48 642.283 1220.52 615.498 C 1217.32 601.094 1230.15 595.214 1241.96 593.279 z"/>
<path transform="translate(0,0)" fill="rgb(43,36,43)" d="M 1223.71 810.43 C 1262.48 807.593 1316.69 830.665 1321.52 876.191 C 1323.4 897.71 1302.65 900.465 1291.63 887.254 C 1272.46 864.285 1261.66 856.339 1231.58 853.029 C 1200.05 852.419 1179.41 862.898 1159.46 887.345 C 1154.8 893.058 1150.38 905.838 1141.33 902.029 C 1128.63 887.666 1146.02 855.413 1156.62 843.324 C 1174.81 822.576 1196.54 812.717 1223.71 810.43 z"/>
<path transform="translate(0,0)" fill="rgb(43,36,43)" d="M 795.169 824.414 C 877.794 819.789 912.178 906.525 887.788 911.477 C 878.877 908.961 873.645 897.529 866.369 890.669 C 849.367 874.639 831.941 866.75 808.858 866.793 C 752.903 869.258 745.968 909.625 727.872 913.775 C 724.257 914.604 719.174 912.747 716.212 910.674 C 712.666 908.191 710.817 904.318 710.313 900.09 C 708.568 885.455 717.02 870.03 726.208 859.176 C 744.21 837.908 767.692 826.762 795.169 824.414 z"/>
<path transform="translate(0,0)" fill="rgb(244,188,184)" d="M 1340.78 941.389 C 1357.22 940.029 1377.18 942.633 1391.58 951.288 C 1403.42 958.403 1408.88 972.343 1399.55 983.991 C 1388.13 998.241 1367.58 1003.37 1350.25 1005.55 C 1330.83 1008.21 1290.92 1001.8 1287.68 978.671 C 1284.1 953.129 1322.61 943.438 1340.78 941.389 z"/>
<path transform="translate(0,0)" fill="rgb(244,188,184)" d="M 689.207 964.317 C 765.623 955.138 782.508 1018.71 710.207 1026.8 C 638.948 1037.63 607.078 977.927 689.207 964.317 z"/>
<path transform="translate(0,0)" fill="url(#Gradient1)" d="M 1631.57 666.312 C 1633.87 666.227 1636.16 666.201 1638.46 666.235 C 1690.48 667.358 1705.49 775.636 1702.87 815.5 C 1698.34 884.612 1672.01 955.758 1628.55 1010.1 C 1613.59 1028.8 1597.97 1043.21 1580.75 1059.23 L 1579.58 1060.39 L 1578.13 1060.34 C 1577.68 1058.12 1579.58 1039.08 1579.83 1034.53 C 1580.5 1021.27 1580.68 1007.99 1580.37 994.714 C 1577.78 912.938 1554.74 843.449 1513.97 773.094 C 1519.58 765.303 1525.26 757.566 1531.02 749.884 C 1553.27 720.638 1594.39 671.404 1631.57 666.312 z"/>
<path transform="translate(0,0)" fill="rgb(139,197,181)" d="M 384.38 954.255 C 363.451 905.903 352.587 858.391 357.456 805.086 C 359.64 776.31 372.243 728.215 395.697 709.21 C 437.608 675.25 501.046 749.966 524.779 778.893 C 529.628 784.981 535.155 791.626 539.534 797.961 C 497.586 881.922 479.341 956.46 485.358 1050.98 C 486.243 1064.88 488.231 1077.37 489.365 1090.77 C 444.041 1055.75 405.601 1007.72 384.38 954.255 z"/>
<path transform="translate(0,0)" fill="rgb(123,172,161)" d="M 524.779 778.893 C 529.628 784.981 535.155 791.626 539.534 797.961 C 497.586 881.922 479.341 956.46 485.358 1050.98 C 486.243 1064.88 488.231 1077.37 489.365 1090.77 C 444.041 1055.75 405.601 1007.72 384.38 954.255 C 398.638 954.131 419.736 990.056 440.207 993.532 C 446.922 989.969 449.557 959.187 450.989 950.653 C 461.756 886.451 488.135 831.981 524.779 778.893 z"/>
<path transform="translate(0,0)" fill="rgb(245,208,138)" d="M 1324.56 1393.58 L 1327.98 1393.92 C 1336.7 1401.67 1327.08 1436.47 1322.5 1446.52 C 1325.97 1450.09 1327.32 1452.09 1332.02 1452.85 C 1341.8 1449.37 1359.43 1389.53 1378.85 1403.47 C 1385.59 1418.03 1357.01 1456.82 1357.41 1461.99 C 1359.04 1465.76 1358.91 1465.58 1362.08 1468.2 C 1363.93 1468.58 1365.86 1469.38 1367.51 1467.82 C 1374.5 1461.19 1398.44 1434.43 1409.06 1436.98 C 1415.94 1445.17 1397.26 1468.56 1392.24 1475.27 C 1384.18 1485.56 1375.59 1495.43 1366.5 1504.83 C 1295.38 1577.44 1248.22 1588.2 1286.96 1465.47 C 1294.35 1442.05 1305.48 1409.9 1324.56 1393.58 z"/>
<path transform="translate(0,0)" fill="rgb(245,208,138)" d="M 785.724 1453.44 C 811.591 1457.2 868.023 1565.51 865.674 1590.09 C 860.53 1643.92 754.861 1561.33 737.905 1546.72 C 730.81 1540.56 711.255 1524.41 714.565 1514.23 C 727.258 1508.71 757.645 1536.57 764.851 1536.3 C 767.184 1535.16 773.16 1530.26 770.515 1527.31 C 761.82 1517.58 731.74 1484.91 737.492 1472.05 C 755.153 1461.06 779.49 1510.11 794.017 1511.86 C 797.771 1510.53 796.188 1511.58 798.843 1508.44 C 800.829 1499.16 775.602 1470.19 785.724 1453.44 z"/>
<path transform="translate(0,0)" fill="rgb(245,208,138)" d="M 1003.82 429.626 C 1001.2 424.38 999.422 394.278 1000.11 387.639 C 1011.52 277.451 1057.06 364.904 1051.28 425.663 C 1051.14 438.352 1043.76 494.076 1034.16 500.821 C 1023.32 497.269 1004.69 442.849 1003.82 429.626 z"/>
<path transform="translate(0,0)" fill="rgb(231,176,105)" d="M 1041.99 471.798 C 1046.38 457.263 1045.88 434.91 1051.28 425.663 C 1051.14 438.352 1043.76 494.076 1034.16 500.821 C 1023.32 497.269 1004.69 442.849 1003.82 429.626 C 1009.88 436.087 1009.57 456.522 1015.72 463.084 C 1022.27 470.059 1033.26 471.187 1041.99 471.798 z"/>
<path transform="translate(0,0)" fill="rgb(245,208,138)" d="M 1063.75 477.162 C 1074.44 462.16 1116.64 420.502 1136.46 430.53 C 1147.84 445.008 1110.24 483.909 1097.61 489.081 C 1085.76 501.537 1061.26 508.675 1045.12 512.366 C 1048.36 502.427 1057.23 485.271 1063.75 477.162 z"/>
<path transform="translate(0,0)" fill="rgb(231,176,105)" d="M 1063.75 477.162 C 1060.83 490.466 1062.62 492.418 1076.02 494.832 C 1077.99 495.185 1079.96 495.528 1081.94 495.859 C 1086.19 493.898 1093.37 490.322 1097.61 489.081 C 1085.76 501.537 1061.26 508.675 1045.12 512.366 C 1048.36 502.427 1057.23 485.271 1063.75 477.162 z"/>
<path transform="translate(0,0)" fill="rgb(245,208,138)" d="M 945.816 439.389 C 971.758 445.049 1000.52 472.475 1012.93 495.144 C 1016.45 501.586 1021.17 507.103 1024.04 513.977 C 1023.28 514.103 1020.33 514.611 1019.52 514.483 C 986.145 509.221 946.351 473.922 945.816 439.389 z"/>
<path transform="translate(0,0)" fill="rgb(231,176,105)" d="M 836.708 1479.37 C 854.857 1484.64 867.495 1489.82 886.783 1493.78 C 883.694 1501.84 876.781 1515.16 872.815 1523.36 C 870.186 1529.28 867.954 1533.46 864.82 1539.14 C 856.792 1524.91 845.154 1501.38 836.323 1486.31 C 835.596 1485.07 836.379 1481.05 836.708 1479.37 z"/>
<path transform="translate(0,0)" fill="rgb(231,176,105)" d="M 1272.56 1457.8 L 1273.98 1458.09 C 1273.96 1457.92 1263.35 1499.47 1262.34 1504.04 L 1252.09 1492.45 C 1247.33 1486.34 1241.09 1479.4 1235.99 1473.42 C 1250.23 1468.34 1259.35 1465.11 1272.56 1457.8 z"/>
<path transform="translate(0,0)" fill="rgb(103,192,217)" d="M 1555.22 1413.16 C 1556.37 1412.98 1561.36 1412.12 1561.86 1413.35 C 1573.48 1441.62 1580.63 1447.27 1606.65 1462.94 C 1603.21 1472.26 1597.06 1490.21 1586.76 1492.29 C 1579.71 1490.16 1573.04 1486.92 1567 1482.7 C 1545.22 1467.57 1536.59 1446.64 1532.22 1421.64 C 1539.97 1416.64 1546.4 1415.37 1555.22 1413.16 z"/>
<path transform="translate(0,0)" fill="rgb(238,121,86)" d="M 1149.1 1640.99 C 1154.13 1641.49 1155.69 1646.4 1158.42 1650.46 C 1163.76 1658.38 1169.77 1670.66 1177.41 1676.39 C 1183.22 1680.75 1189.89 1683.85 1195.31 1688.81 C 1197.22 1697.89 1181.12 1710.85 1174 1714.37 C 1148.38 1704.35 1129.28 1678.87 1125.9 1651.71 C 1132.43 1647.87 1141.9 1642.9 1149.1 1640.99 z"/>
<path transform="translate(0,0)" fill="rgb(238,121,86)" d="M 687.529 332.474 C 693.996 332.46 708.443 334.163 714.416 336.365 C 719.182 340.396 717.166 357.012 719.882 366.208 C 723.672 379.044 727.721 386.334 732.953 398.343 C 729.7 400.418 726.11 402.307 722.721 404.19 C 700.089 411.973 698.018 405.764 688.587 384.54 C 682.519 370.886 678.02 350.227 682.162 335.527 C 682.858 333.058 685.472 332.929 687.529 332.474 z"/>
<path transform="translate(0,0)" fill="rgb(244,135,180)" d="M 349.891 1149.32 C 353.738 1151.59 353.674 1160.11 356.336 1165.2 C 361.637 1175.34 367.735 1183.17 374.539 1192.2 C 375.498 1194.14 378.731 1196.99 377.949 1199.13 C 375.985 1204.51 370.416 1207.9 365.927 1211.64 C 360.677 1216.02 357.919 1218.7 350.903 1216.98 C 338.284 1207.05 313.062 1172.79 319.897 1157.53 C 326.096 1152.03 341.544 1150.29 349.891 1149.32 z"/>
<path transform="translate(0,0)" fill="rgb(238,121,86)" d="M 1738.21 1063.59 C 1749.61 1065.23 1759.28 1067.11 1770.22 1070.62 C 1766.84 1096.06 1759.18 1114.54 1740.24 1131.99 C 1732.91 1132.29 1715.65 1123.28 1711.06 1117.25 C 1708.85 1114.57 1712.47 1110.61 1714.42 1108.72 C 1728.53 1095.11 1731.79 1081.69 1738.21 1063.59 z"/>
<path transform="translate(0,0)" fill="rgb(103,192,217)" d="M 560.213 517.275 L 561.875 517.576 C 565.196 520.586 569.622 543.198 574.11 550.018 C 576.717 553.982 589.59 571.57 589.113 574.618 C 584.049 581.949 573.255 586.492 564.771 588.412 C 554.792 583.682 543.93 566.299 539.817 556.163 C 526.468 523.264 529.886 523.214 560.213 517.275 z"/>
<path transform="translate(0,0)" fill="rgb(245,208,138)" d="M 1507.77 486.014 C 1516.6 485.567 1539.97 487.861 1537.22 500.86 C 1532.98 520.914 1521.11 538.951 1505.36 551.749 C 1494.57 559.989 1481.4 540.463 1476.73 532.312 C 1480.07 528.318 1486.45 522.945 1490.5 518.395 C 1500.11 507.579 1502.2 498.666 1507.77 486.014 z"/>
<path transform="translate(0,0)" fill="rgb(245,208,138)" d="M 471.984 1362.17 C 481.894 1361.96 491.808 1361.99 501.717 1362.26 C 502.817 1387.34 501.719 1407.13 485.698 1428.23 C 478.152 1428.55 458.927 1422.22 457.115 1414.11 C 457.845 1408.99 462.712 1400.59 464.779 1394.2 C 467.888 1384.58 467.034 1368.52 471.984 1362.17 z"/>
<path transform="translate(0,0)" fill="rgb(108,109,208)" d="M 1348.6 324.29 C 1355.19 324.022 1366.61 325.739 1372.11 329.391 C 1380.05 342.732 1364.1 373.619 1353.09 383.22 C 1342.77 379.202 1333.41 373.07 1325.6 365.219 C 1328.79 358.945 1334.86 349.788 1336.72 343.177 C 1338.39 337.25 1337.77 333.353 1340.19 326.647 C 1342.68 324.417 1345.16 324.64 1348.6 324.29 z"/>
<path transform="translate(0,0)" fill="rgb(43,36,43)" fill-opacity="0.0666667" d="M 1497.77 1283.58 L 1498.84 1284.62 C 1498.16 1289.04 1495.35 1291.91 1492.37 1295.04 L 1491.65 1294.19 C 1491.97 1290.54 1495.32 1287.07 1497.77 1283.58 z"/>
</svg>