<svg version="1.1" xmlns="http://www.w3.org/2000/svg" viewBox="283.63 222.34 1494.68 1620.05" width="1495" height="1620">
<path transform="translate(0,0)" fill="rgb(46,37,45)" d="M 994.699 291.999 C 1015.37 296.743 1021.06 305.924 1030.62 323.845 C 1051.4 345.649 1050.57 404.908 1049.95 433.923 L 1049.92 435.128 C 1066.07 419.661 1090.09 397.763 1112.91 394.197 C 1116.77 393.593 1123.82 393.82 1127.88 393.91 L 1130.61 393.978 C 1138.41 398.374 1139.7 399.284 1144.03 407.266 C 1144.19 414.754 1143.75 429.231 1138.65 435.153 C 1130.45 455.164 1115.51 470.933 1099.42 484.87 C 1094.85 488.832 1081.07 496.133 1080.01 501.23 C 1086.03 502.367 1077.15 500.892 1083.05 501.089 C 1095.36 501.499 1117.4 505.725 1129.23 507.655 C 1154.96 510.123 1178 516.425 1202.82 523.029 C 1293.47 546.843 1375.74 594.443 1445.78 656.034 C 1482.04 687.91 1506.63 717.438 1533.6 757.515 C 1542.26 769.309 1548.2 782.464 1555.27 795.216 C 1598.13 872.473 1622.82 984.343 1607.71 1072.35 C 1622.3 1089.31 1644.25 1106.23 1658.75 1122.7 C 1686.36 1154.07 1718.31 1202.29 1708.11 1245.72 C 1702.62 1269.07 1678.03 1306.12 1661.62 1323.05 C 1639.02 1346.37 1599.7 1368.62 1572.46 1386.04 C 1582.48 1397.18 1591.54 1402.44 1596.42 1418.15 C 1592.08 1437.24 1577.47 1445.55 1559.21 1448.78 C 1526.45 1454.57 1493.62 1443.72 1464.6 1429.26 C 1456.75 1425.35 1448.35 1416.52 1441.08 1411.34 C 1420.76 1420.79 1396.95 1442.6 1376.69 1454.57 C 1360.79 1463.96 1343.98 1476.39 1328.08 1485.5 C 1315.21 1493.58 1299.27 1497.36 1286 1504.05 C 1254.84 1519.76 1226.42 1526.19 1192.94 1534.84 C 1194.65 1567.08 1191.87 1593.24 1191.91 1625.25 C 1191.92 1633.36 1191.04 1642.22 1190.91 1650.41 C 1191.11 1652.95 1195.61 1655.7 1197.56 1656.78 C 1222.71 1670.68 1274.14 1683.88 1279.43 1716.03 C 1280.61 1723.2 1270.64 1731.06 1265.73 1735.63 C 1252.65 1738.27 1245.02 1738.1 1231.71 1737.87 C 1235.79 1750.12 1235.46 1757.33 1227.39 1767.32 C 1216.85 1771.84 1208.22 1772.14 1197.1 1769.6 C 1172.03 1763.87 1113.5 1721.11 1100.79 1700.59 C 1099.89 1681.32 1100.68 1658.37 1100.5 1638.68 C 1100.24 1609.08 1099.57 1582.52 1102.95 1553.1 C 1061.33 1555.74 1025.58 1559.18 983.732 1554.56 C 977.188 1553.84 949.913 1549.99 946.835 1552.11 C 944.966 1592.14 946.463 1632.49 946.04 1672.57 C 945.951 1681.06 946.286 1689.77 945.137 1698.19 L 944.946 1699.53 C 927.944 1722.35 901.982 1738.88 877.655 1753.23 C 855.973 1766.02 823.36 1782.39 808.213 1753 C 809.693 1747.02 811.328 1741.07 813.116 1735.17 C 800.558 1735.7 780.461 1737.76 771.647 1728.2 C 738.328 1692.08 840.409 1664.19 855.19 1650.35 C 853.213 1613.42 854.764 1569.19 855.35 1531.72 C 854.255 1530.63 841.118 1528.68 836.942 1527.39 C 816.387 1521.05 795.753 1513.6 776.031 1505.03 C 766.237 1500.94 756.208 1494.01 746.634 1489.9 C 709.937 1474.15 678.041 1450.85 645.528 1428 C 634.381 1420.16 628.748 1413.03 615.391 1406.99 C 607.23 1411.99 598.225 1419.48 589.286 1425.32 C 566.86 1439.97 540.961 1444.28 514.962 1447.37 C 501.087 1449.03 476.016 1441.89 465.955 1431.99 C 444.052 1410.44 477.485 1391.21 477.363 1380.73 C 473.966 1376.85 453.595 1364.97 447.986 1361.12 C 422.266 1343.48 398.856 1327.73 379.353 1303.1 C 360.663 1279.5 345.656 1257.35 344.797 1225.91 C 343.631 1183.27 375.697 1145.05 401.999 1114.51 C 415.369 1099.36 434.196 1084.78 447.911 1070.33 C 446.185 1062.37 446.981 1056.46 446.222 1048.69 C 442.366 1009.24 446.197 966.312 454.006 927.377 C 459.84 896.739 468.732 866.764 480.547 837.901 C 553.178 664.874 737.469 534.835 919.924 509.14 C 926.642 508.194 960.093 504.63 960.397 497.971 C 957.834 495.179 941.93 483.906 937.733 480.635 C 915.937 468.172 884.999 397.964 934.978 406.842 C 943.492 408.354 955.226 418.226 966.184 421.039 C 966.25 408.935 963.496 400.58 962.102 389.004 C 957.994 354.884 959.831 308.974 994.699 291.999 z"/>
<path transform="translate(0,0)" fill="rgb(232,213,197)" d="M 994.699 291.999 C 1015.37 296.743 1021.06 305.924 1030.62 323.845 L 1029.37 322.56 C 1018.34 311.126 999.877 282.344 982.097 302.187 C 952.988 334.674 964.863 394.846 973.965 431.318 C 961.069 424.581 953.646 416.904 938.514 411.385 C 897.591 396.463 910.396 443.295 923.408 462.257 C 925.948 465.958 936.328 477.093 937.733 480.635 C 915.937 468.172 884.999 397.964 934.978 406.842 C 943.492 408.354 955.226 418.226 966.184 421.039 C 966.25 408.935 963.496 400.58 962.102 389.004 C 957.994 354.884 959.831 308.974 994.699 291.999 z"/>
<path transform="translate(0,0)" fill="rgb(232,213,197)" d="M 1066.56 503.891 C 1084.9 490.649 1098.16 485.323 1115.62 466.899 C 1123.43 458.661 1135.13 437.681 1138.65 435.153 C 1130.45 455.164 1115.51 470.933 1099.42 484.87 C 1094.85 488.832 1081.07 496.133 1080.01 501.23 C 1086.03 502.367 1077.15 500.892 1083.05 501.089 C 1095.36 501.499 1117.4 505.725 1129.23 507.655 C 1125.05 508.302 1106.84 506.104 1101.51 505.617 C 1089.05 504.479 1079.13 503.828 1066.56 503.891 z"/>
<path transform="translate(0,0)" fill="rgb(134,195,178)" d="M 537.202 769.669 C 618.01 642.448 750.426 562.999 895.635 530.546 C 1055.05 495.821 1221.72 524.905 1359.95 611.568 C 1471.6 682.681 1554.74 788.997 1582.94 919.467 C 1594.31 972.071 1593.67 1009.53 1590.77 1062.62 C 1586.77 1059.74 1581.04 1055.18 1576.54 1053.45 C 1570.54 1051.15 1566.36 1056.44 1567.25 1062.47 C 1571.11 1068.74 1587.2 1078.76 1594.65 1085.2 C 1635.55 1120.57 1678.75 1161.41 1690.45 1216.18 C 1693.72 1246.29 1682.15 1271.45 1663.43 1294.6 C 1647.35 1314.49 1628.13 1330.71 1607.26 1345.3 C 1597.63 1352.03 1587.83 1358.71 1577.63 1364.55 C 1570.28 1368.75 1562.24 1372.44 1555.24 1377.17 C 1553.38 1378.42 1550.34 1380.32 1549.43 1382.45 C 1549.06 1383.32 1548.79 1386.37 1548.95 1387.3 C 1550.53 1396.84 1584.84 1405.83 1576.97 1422.57 C 1574.53 1427.78 1566.76 1430.75 1561.59 1431.96 C 1532.2 1438.81 1492.15 1426.85 1467.51 1410.72 C 1458.96 1405.12 1450.49 1397.76 1445.59 1388.65 C 1409.35 1329.16 1538.83 1236.77 1523.06 1216.14 C 1515.45 1213.01 1511.49 1217.43 1507 1222.63 C 1502.17 1214.37 1491.31 1191.55 1487.5 1186.99 C 1483.08 1184.28 1476.41 1185.97 1476.26 1190.54 C 1475.81 1204.08 1490.44 1225.3 1497.39 1236.33 C 1472.2 1271.48 1445.66 1295.75 1428.12 1337.64 C 1422.49 1359.3 1419.23 1374.71 1431.04 1395.55 C 1411.32 1410.49 1385.82 1432.09 1364.37 1443.98 C 1352.86 1452.34 1332.57 1463.41 1319.93 1469.96 C 1258.38 1502.14 1191.72 1523.44 1122.91 1532.92 C 992.697 1551.72 859.861 1529.72 742.668 1469.93 C 722.149 1459.23 701.18 1447.56 682.622 1433.68 C 669.369 1427.04 636.685 1401.28 624.794 1391.26 C 649.52 1330.61 588.993 1276.54 555.864 1231.76 C 559.995 1226.03 563.44 1220.79 567.25 1214.82 C 571.873 1206.29 576.04 1199.01 579.417 1189.88 C 577.453 1186.12 577.104 1184.54 573.655 1182.43 C 565.408 1181.16 562.315 1188.62 559.189 1195.25 C 555.134 1203.85 552.26 1210.43 546.486 1217.99 C 541.783 1212 538.326 1209.18 530.372 1212 C 514.434 1232.14 645.667 1325.58 608.737 1387.64 C 608.285 1388.4 607.822 1389.15 607.346 1389.88 C 582.684 1420.19 530.093 1435.56 491.568 1428.18 C 466.987 1422.37 476.903 1404.25 492.125 1394.26 C 506.301 1384.95 513.007 1380.77 493.727 1370.75 C 445.468 1345.64 351.071 1277.26 363.918 1214.82 C 367.758 1168.81 420.149 1116.41 453.604 1086.59 C 464.271 1077.08 479.144 1068.4 488.514 1058.08 C 481.576 1042.55 474.411 1051.33 464.523 1058.54 C 455.272 956.791 480.902 854.923 537.202 769.669 z"/>
<path transform="translate(0,0)" fill="rgb(251,249,236)" d="M 675.904 1341.31 C 688.189 1262.25 721.995 1206.81 786.345 1158.63 C 872.165 1094.38 984.425 1077.35 1088.66 1094.21 C 1176.39 1108.41 1268.41 1152.37 1321.91 1225.58 C 1360.68 1278.64 1372.78 1324.97 1373.11 1389.76 C 1371.05 1410.89 1369.44 1423.03 1364.37 1443.98 C 1352.86 1452.34 1332.57 1463.41 1319.93 1469.96 C 1258.38 1502.14 1191.72 1523.44 1122.91 1532.92 C 992.697 1551.72 859.861 1529.72 742.668 1469.93 C 722.149 1459.23 701.18 1447.56 682.622 1433.68 C 674.893 1411.3 671.949 1365.74 676.037 1341.92 L 675.904 1341.31 z"/>
<path transform="translate(0,0)" fill="rgb(232,213,197)" d="M 676.037 1341.92 C 687.575 1352.77 715.65 1370.28 729.613 1378.84 C 831.564 1441.37 951.535 1467.43 1070.25 1465.47 C 1156.77 1464.04 1243.28 1445.98 1323.04 1412.85 C 1339.96 1405.82 1356.47 1397.64 1373.11 1389.76 C 1371.05 1410.89 1369.44 1423.03 1364.37 1443.98 C 1352.86 1452.34 1332.57 1463.41 1319.93 1469.96 C 1258.38 1502.14 1191.72 1523.44 1122.91 1532.92 C 992.697 1551.72 859.861 1529.72 742.668 1469.93 C 722.149 1459.23 701.18 1447.56 682.622 1433.68 C 674.893 1411.3 671.949 1365.74 676.037 1341.92 z"/>
<path transform="translate(0,0)" fill="rgb(112,165,153)" d="M 464.523 1058.54 C 455.272 956.791 480.902 854.923 537.202 769.669 C 539.114 779.938 527.737 809.671 524.898 821.608 C 519.736 843.313 515.277 864.29 512.428 886.503 C 505.885 938.373 506.205 990.88 513.38 1042.67 C 504.638 1049.23 496.399 1050.8 488.514 1058.08 C 481.576 1042.55 474.411 1051.33 464.523 1058.54 z"/>
<path transform="translate(0,0)" fill="rgb(112,165,153)" d="M 1690.45 1216.18 C 1693.72 1246.29 1682.15 1271.45 1663.43 1294.6 C 1647.35 1314.49 1628.13 1330.71 1607.26 1345.3 C 1597.63 1352.03 1587.83 1358.71 1577.63 1364.55 C 1570.28 1368.75 1562.24 1372.44 1555.24 1377.17 C 1553.38 1378.42 1550.34 1380.32 1549.43 1382.45 C 1549.06 1383.32 1548.79 1386.37 1548.95 1387.3 C 1550.53 1396.84 1584.84 1405.83 1576.97 1422.57 C 1574.53 1427.78 1566.76 1430.75 1561.59 1431.96 C 1532.2 1438.81 1492.15 1426.85 1467.51 1410.72 C 1458.96 1405.12 1450.49 1397.76 1445.59 1388.65 C 1491.38 1391.88 1554.56 1361.2 1593.47 1336.95 C 1634.53 1311.36 1679.89 1264.98 1690.45 1216.18 z"/>
<path transform="translate(0,0)" fill="rgb(112,165,153)" d="M 363.918 1214.82 L 364.199 1218.69 L 364.79 1219.2 L 365.351 1214.9 C 368.883 1221.39 370.189 1230.44 373.306 1237.23 C 407.257 1311.23 484.216 1355.62 558.875 1379.61 C 573.893 1384.43 592.041 1387.11 607.346 1389.88 C 582.684 1420.19 530.093 1435.56 491.568 1428.18 C 466.987 1422.37 476.903 1404.25 492.125 1394.26 C 506.301 1384.95 513.007 1380.77 493.727 1370.75 C 445.468 1345.64 351.071 1277.26 363.918 1214.82 z"/>
<path transform="translate(0,0)" fill="rgb(112,165,153)" d="M 567.25 1214.82 C 588.148 1257.56 619.556 1294.63 655.841 1325.18 C 660.058 1328.73 671.689 1338.68 675.904 1341.31 L 676.037 1341.92 C 671.949 1365.74 674.893 1411.3 682.622 1433.68 C 669.369 1427.04 636.685 1401.28 624.794 1391.26 C 649.52 1330.61 588.993 1276.54 555.864 1231.76 C 559.995 1226.03 563.44 1220.79 567.25 1214.82 z"/>
<path transform="translate(0,0)" fill="rgb(112,165,153)" d="M 1420.4 1364.64 C 1421.14 1353.89 1421.03 1346.21 1428.12 1337.64 C 1422.49 1359.3 1419.23 1374.71 1431.04 1395.55 C 1411.32 1410.49 1385.82 1432.09 1364.37 1443.98 C 1369.44 1423.03 1371.05 1410.89 1373.11 1389.76 C 1386.67 1383.47 1406.75 1371.92 1420.4 1364.64 z"/>
<path transform="translate(0,0)" fill="rgb(46,37,45)" d="M 1224.33 801.225 C 1234.03 800.606 1244.77 800.045 1254.3 802.146 C 1359.25 825.286 1366.77 999.379 1255.96 1020.92 C 1127.71 1041.33 1096.42 828.418 1224.33 801.225 z"/>
<path transform="translate(0,0)" fill="rgb(255,255,255)" d="M 1266.58 837.2 C 1300.02 836.638 1308.55 886.124 1277.66 897.321 L 1276.33 897.297 C 1240.54 896.952 1232.99 845.895 1266.58 837.2 z"/>
<path transform="translate(0,0)" fill="rgb(255,255,255)" d="M 1278.21 915.753 C 1285.29 913.939 1292.52 918.12 1294.48 925.162 C 1296.44 932.204 1292.41 939.52 1285.41 941.626 C 1280.75 943.027 1275.7 941.8 1272.2 938.417 C 1268.71 935.035 1267.31 930.026 1268.56 925.324 C 1269.8 920.621 1273.5 916.96 1278.21 915.753 z"/>
<path transform="translate(0,0)" fill="rgb(46,37,45)" d="M 788.905 783.354 C 912.704 770.205 936.649 984.767 807.237 1003.74 C 785.369 1005.69 763.544 999.544 745.914 986.458 C 672.576 932.567 695.293 795.543 788.905 783.354 z"/>
<path transform="translate(0,0)" fill="rgb(255,255,255)" d="M 825.107 819.117 C 860.367 816.887 869.046 864.261 838.472 879.572 C 804.358 883.815 793.552 833.059 825.107 819.117 z"/>
<path transform="translate(0,0)" fill="rgb(255,255,255)" d="M 836.682 898.592 C 843.967 897.268 850.946 902.097 852.275 909.381 C 853.603 916.665 848.777 923.648 841.494 924.98 C 834.205 926.313 827.216 921.483 825.887 914.193 C 824.557 906.904 829.391 899.917 836.682 898.592 z"/>
<path transform="translate(0,0)" fill="rgb(46,37,45)" d="M 932.727 966.311 C 933.046 958.52 936.633 956.007 942.48 950.685 C 955.098 939.201 1005.89 901.276 1021.03 903.16 C 1040.5 905.583 1091.45 941.612 1105.71 957.656 C 1108.57 960.866 1109.12 963.19 1109.34 967.186 C 1108.83 974.859 1093.64 1003.29 1088.04 1009.93 C 1076.82 1025.4 1039.55 1061.47 1019.38 1062.23 C 992.83 1063.22 946.274 1006.63 937.726 981.752 C 935.571 975.482 933.074 972.631 932.727 966.311 z"/>
<path transform="translate(0,0)" fill="rgb(112,165,153)" d="M 932.727 966.311 C 947.871 990.453 988.504 1033.59 1015.38 1042.49 C 1036.61 1049.51 1097.76 984.93 1109.34 967.186 C 1108.83 974.859 1093.64 1003.29 1088.04 1009.93 C 1076.82 1025.4 1039.55 1061.47 1019.38 1062.23 C 992.83 1063.22 946.274 1006.63 937.726 981.752 C 935.571 975.482 933.074 972.631 932.727 966.311 z"/>
<path transform="translate(0,0)" fill="rgb(246,206,136)" d="M 1017.68 917.917 C 1033.03 918.837 1080.44 952.879 1091.3 964.828 C 1067.56 974.896 1047.72 985.528 1023.25 995.225 C 1014.53 997.576 961.696 969.851 950.854 963.578 C 962.853 950.845 1001.4 925.374 1017.68 917.917 z"/>
<path transform="translate(0,0)" fill="rgb(226,168,98)" d="M 973.4 991.879 C 987.683 996.752 1002.72 1006.21 1019.24 1011.31 C 1036.74 1006.84 1049.61 998.468 1066.43 992.395 C 1062.97 996.999 1060.97 999.016 1057 1002.99 C 1050.25 1009.19 1024.03 1031.04 1016.29 1027.82 C 1005.89 1023.48 978.925 1001.61 973.4 991.879 z"/>
<path transform="translate(0,0)" fill="rgb(255,255,255)" d="M 1245.35 604.258 C 1302.39 599.181 1379 645.955 1400.24 699.919 C 1405.48 713.225 1400.44 725.001 1386.23 728.68 C 1315.9 741.1 1181.69 625.435 1245.35 604.258 z"/>
<path transform="translate(0,0)" fill="rgb(244,195,189)" d="M 1360.58 998.32 C 1379.44 995.892 1405.31 999.063 1421.51 1009.69 C 1442.67 1023.58 1437.72 1045.36 1416.86 1056.34 C 1404.95 1062.6 1395.55 1064.71 1382.24 1066.66 C 1303.57 1075.87 1275.44 1011.43 1360.58 998.32 z"/>
<path transform="translate(0,0)" fill="rgb(244,195,189)" d="M 674.582 983.327 C 743.598 973.205 790.159 1040.92 702.236 1051.72 C 681.873 1053.5 659.41 1050.57 641.652 1039.56 C 629.213 1031.85 619.559 1016.13 630.515 1002.83 C 640.724 990.446 659.206 985.529 674.582 983.327 z"/>
<path transform="translate(0,0)" fill="rgb(246,206,136)" d="M 870.98 1534.87 C 890.592 1539.62 909.495 1542.47 929.105 1546.41 C 928.536 1562.87 928.215 1579.34 928.141 1595.81 C 928.044 1629.19 927.727 1662.57 927.191 1695.95 C 916.244 1708.37 841.45 1768.05 827.087 1751.78 C 821.86 1730.6 868.891 1714.18 863.752 1699.88 C 853.115 1691.92 841.363 1708.75 831.498 1712.59 C 822.101 1716.24 787.461 1722.75 781.439 1715.13 C 781.549 1698.7 856.794 1671.76 872.414 1661.32 C 874.077 1645.8 872.046 1601.83 871.671 1584.85 C 870.696 1569.23 871.044 1550.73 870.98 1534.87 z"/>
<path transform="translate(0,0)" fill="rgb(226,168,98)" d="M 870.98 1534.87 C 890.592 1539.62 909.495 1542.47 929.105 1546.41 C 928.536 1562.87 928.215 1579.34 928.141 1595.81 C 921.312 1593.51 905.821 1591.99 897.608 1590.37 C 890.711 1589.01 876.393 1583.89 871.671 1584.85 C 870.696 1569.23 871.044 1550.73 870.98 1534.87 z"/>
<path transform="translate(0,0)" fill="rgb(246,206,136)" d="M 1118.25 1548.28 C 1139.38 1545.77 1155.75 1542.89 1176.63 1539.43 C 1174.99 1558.53 1176.28 1580.14 1174.13 1599.3 C 1174.23 1610.23 1169.44 1656.45 1175.84 1663.83 C 1184.37 1673.65 1274.32 1703.37 1260.21 1719.85 C 1249.44 1723.82 1223.43 1717.34 1212.14 1713.91 C 1203.96 1711.43 1190.29 1691.59 1180.83 1701.99 C 1178.9 1717.13 1226.82 1736.77 1215.04 1755.79 C 1213.53 1758.24 1203.05 1755.64 1201.11 1754.69 C 1177.14 1746.2 1133.73 1715.64 1118.03 1696.28 C 1117.77 1667.06 1117.37 1631.76 1118.31 1602.58 C 1118.9 1584.72 1118.45 1566.2 1118.25 1548.28 z"/>
<path transform="translate(0,0)" fill="rgb(226,168,98)" d="M 1118.25 1548.28 C 1139.38 1545.77 1155.75 1542.89 1176.63 1539.43 C 1174.99 1558.53 1176.28 1580.14 1174.13 1599.3 C 1173.83 1594.45 1173.66 1589.59 1173.62 1584.73 C 1155 1590.59 1139.31 1592.42 1120.17 1595.19 C 1118.99 1598.12 1118.84 1599.53 1118.31 1602.58 C 1118.9 1584.72 1118.45 1566.2 1118.25 1548.28 z"/>
<path transform="translate(0,0)" fill="rgb(246,206,136)" d="M 984.808 413.72 C 977.676 387.739 974.22 359.117 982.003 332.87 C 983.915 326.421 986.74 313.195 994.598 311.786 C 998.541 311.08 1003.84 314.538 1006.4 317.286 C 1029.34 343.353 1033.86 384.08 1033.28 417.376 C 1033.22 420.56 1033 429.098 1032.23 431.651 C 1032.56 445.663 1025.51 476.626 1022.51 490.858 C 1007.76 472.66 989.485 436.768 984.808 413.72 z"/>
<path transform="translate(0,0)" fill="rgb(226,168,98)" d="M 984.808 413.72 C 993.364 425.73 994.45 444.387 1013.09 447.125 C 1017.58 447.784 1023.4 448.796 1027.44 446.428 C 1030.53 442.789 1029.39 437.028 1032.23 431.651 C 1032.56 445.663 1025.51 476.626 1022.51 490.858 C 1007.76 472.66 989.485 436.768 984.808 413.72 z"/>
<path transform="translate(0,0)" fill="rgb(246,206,136)" d="M 1049.24 463.916 C 1065.01 439.178 1089.8 414.957 1119.99 409.748 C 1122.73 409.275 1124.26 410.751 1126.02 412.352 C 1128.39 420.129 1122.9 429.699 1119.36 436.794 C 1107.38 464.413 1077.02 479.88 1052.71 495.104 C 1048.25 497.899 1042.12 500.659 1036.77 500.08 C 1028.9 494.447 1045.15 470.334 1049.24 463.916 z"/>
<path transform="translate(0,0)" fill="rgb(226,168,98)" d="M 1049.24 463.916 C 1049.06 467.468 1048.89 468.213 1049.76 471.777 C 1055.09 476.902 1060.2 472.165 1066.73 472.926 C 1088.21 475.431 1098.47 462.559 1109.82 446.883 C 1112.64 442.992 1115.08 439.351 1119.36 436.794 C 1107.38 464.413 1077.02 479.88 1052.71 495.104 C 1048.25 497.899 1042.12 500.659 1036.77 500.08 C 1028.9 494.447 1045.15 470.334 1049.24 463.916 z"/>
<path transform="translate(0,0)" fill="rgb(246,206,136)" d="M 975.74 487.843 C 952.823 475.516 934.632 459.19 925.021 433.454 C 923.628 429.723 924.289 426.643 926.148 423.291 L 928.139 422.723 C 941.354 425.641 970.507 446.639 980.248 457.269 C 985.911 463.601 1009.51 493.113 1009.89 500.292 C 1004.81 506.928 982.474 491.118 975.74 487.843 z"/>
<path transform="translate(0,0)" fill="rgb(226,168,98)" d="M 980.248 457.269 C 985.911 463.601 1009.51 493.113 1009.89 500.292 C 1004.81 506.928 982.474 491.118 975.74 487.843 C 981.919 485.71 980.197 463.964 980.248 457.269 z"/>
</svg>