<svg version="1.1" xmlns="http://www.w3.org/2000/svg" viewBox="251.20 200.66 1564.88 1631.81" width="1565" height="1632">
<path transform="translate(0,0)" fill="rgb(47,38,47)" d="M 936.816 261.101 C 946.305 261.113 954.622 265.303 960.926 272.241 C 993.587 308.182 992.339 356.998 993.018 401.06 C 1006.4 391.786 1014.85 381.376 1027.41 372.589 C 1044.75 360.452 1071.81 347.527 1086.96 368.852 C 1087.58 423.773 1024.57 450.586 1025.8 465.215 C 1060.97 469.195 1088.47 468.681 1125.81 475.659 C 1247.07 497.696 1358.65 556.359 1445.55 643.748 C 1476.82 675.043 1504.74 708.108 1526.11 747.084 C 1536.13 765.374 1537.36 782.249 1556.22 758.058 C 1625.68 668.947 1752.57 564.964 1754.55 764.518 C 1755.64 874.893 1707.12 984.832 1642.54 1072.67 C 1623.4 1098.85 1604.35 1118.84 1580.28 1140.69 C 1576.42 1144.18 1569.64 1185.13 1565.76 1192.14 C 1512.58 1363.29 1358.71 1502.23 1188.4 1552.3 C 1188.27 1581.78 1186.29 1617.98 1187 1646.12 C 1211.9 1659.54 1253.36 1671.59 1272.52 1694.07 C 1274.61 1696.52 1277.1 1702.93 1278.4 1706.17 C 1269 1731.42 1250.14 1725.4 1227.55 1723.79 C 1230.29 1736.34 1237.97 1748.28 1222.64 1757.44 C 1198.22 1772.04 1137.32 1725.69 1121.29 1709.12 C 1115.13 1703.01 1109.19 1697.27 1103.52 1690.67 C 1101.13 1673.98 1101.77 1656.09 1101.79 1639.15 L 1101.88 1572.78 C 1075.35 1574.91 1051.37 1579.03 1023.99 1579.86 C 995.525 1580.71 970.622 1579.21 942.225 1576.91 C 942.932 1612.23 942.535 1648.48 942.019 1683.82 C 941.846 1695.65 924.205 1711.33 914.621 1718.01 C 890.517 1734.81 860.544 1761.37 829.457 1760.07 C 809.857 1758.57 813.517 1736.9 816.749 1724.14 C 802.846 1724.85 792.051 1726.25 778.617 1722.38 C 772.4 1716.47 763.701 1709.71 768.63 1700.53 C 782.589 1674.54 832.21 1656.78 857.438 1644.94 C 855.204 1618.65 855.703 1590.39 855.329 1563.82 C 842.83 1559.11 821.853 1554.89 806.764 1549.7 C 749.579 1530.57 695.456 1503.29 646.069 1468.69 C 621.931 1451.44 596.906 1432.65 576.196 1411.31 C 570.62 1405.56 555.624 1386.57 548.427 1384.74 C 542.044 1383.11 510.98 1399.15 502.406 1402.03 C 464.771 1414.66 411.958 1422.88 373.828 1408.26 C 356.266 1401.53 341.264 1388.52 333.623 1371.17 C 311.634 1321.23 359.271 1200.49 382.209 1152.68 C 388.421 1139.73 407.153 1110.22 409.182 1099.45 C 411.242 1088.52 405.827 1054.65 405.427 1040.64 C 403.517 973.723 411.964 908.598 436.017 845.877 C 449.783 809.411 467.269 774.462 488.199 741.581 C 574.128 608.465 726.503 510.651 880.762 480.113 C 887.998 478.68 906.865 475.8 912.644 473.226 C 912.559 463.7 885.574 449.135 878.03 440.279 C 867.414 427.818 847.643 399.763 858.975 383.329 C 869.711 367.758 901.804 394.523 913.513 392.433 C 915.919 381.504 911.313 365.588 910.226 354.217 C 907.501 325.728 907.927 277.357 936.816 261.101 z"/>
<path transform="translate(0,0)" fill="rgb(138,196,180)" d="M 445.67 862.44 C 449.697 845.857 462.172 818.544 469.655 803.053 C 536.934 663.77 667.394 562.069 812.644 512.813 C 967.261 460.241 1136.38 470.867 1283.21 542.376 C 1373.47 587.137 1455.8 656.574 1508.52 743.163 C 1514.97 753.745 1528.12 776.371 1531.93 787.659 C 1528.46 792.972 1516 811.038 1527.45 814.249 C 1536.11 812.286 1539.99 803.933 1544.45 796.996 C 1570.7 756.853 1603.74 718.739 1641.85 689.847 C 1691.41 652.279 1726.86 649.389 1737.05 719.433 C 1742.83 759.088 1740.97 791.877 1734.3 830.752 C 1723.13 916.221 1668.92 1023.1 1613.22 1088.05 C 1605.86 1096.64 1593.72 1110.29 1585.15 1117.24 C 1587.62 1098.17 1590.42 1074.07 1589.87 1054.73 C 1586.52 1052.64 1583.96 1050.45 1580.09 1050.66 C 1577.26 1052.03 1577.26 1051.94 1574.97 1054.04 C 1572.73 1081.04 1571.96 1101.32 1567.03 1128.51 C 1550.61 1219.05 1515.81 1286.64 1458.75 1357.01 C 1440.83 1381.51 1408.45 1412.09 1385.1 1431.72 C 1355.56 1453.83 1329.51 1473.43 1296.98 1491.29 C 1181.04 1554.96 1043.85 1577.9 913.228 1559.26 C 847.287 1549.84 766.444 1526.41 709.255 1491.87 C 699.153 1487.93 678.98 1474.03 668.919 1467.64 C 562.357 1399.88 482.718 1297.13 443.683 1177.03 C 416.225 1091.21 411.848 999.679 430.992 911.632 C 433.612 899.818 440.344 872.875 445.67 862.44 z"/>
<path transform="translate(0,0)" fill="rgb(251,249,235)" d="M 687.95 1384.06 C 686.928 1329.98 698.076 1282.55 726.163 1235.67 C 839.248 1046.92 1153.42 1019.71 1308.1 1169.63 C 1362.11 1221.97 1391.38 1288.5 1392 1364.27 C 1392.09 1375.47 1391.61 1386.67 1390.56 1397.83 L 1390.08 1398.39 C 1389 1411.72 1387.53 1418.79 1385.1 1431.72 C 1355.56 1453.83 1329.51 1473.43 1296.98 1491.29 C 1181.04 1554.96 1043.85 1577.9 913.228 1559.26 C 847.287 1549.84 766.444 1526.41 709.255 1491.87 C 696.237 1452.97 689.11 1426.28 687.95 1384.06 z"/>
<path transform="translate(0,0)" fill="rgb(234,211,196)" d="M 687.95 1384.06 C 846.031 1481.48 1036.33 1512.15 1217.01 1469.33 C 1268.54 1456.84 1344.42 1426.43 1390.08 1398.39 C 1389 1411.72 1387.53 1418.79 1385.1 1431.72 C 1355.56 1453.83 1329.51 1473.43 1296.98 1491.29 C 1181.04 1554.96 1043.85 1577.9 913.228 1559.26 C 847.287 1549.84 766.444 1526.41 709.255 1491.87 C 696.237 1452.97 689.11 1426.28 687.95 1384.06 z"/>
<path transform="translate(0,0)" fill="rgb(113,167,154)" d="M 445.67 862.44 C 447.952 860.551 447.047 861.692 448.198 858.693 C 450.029 866.591 447.856 880.819 447.068 889.058 C 430.849 1058.45 490.878 1230.78 625.071 1339.16 C 645.225 1355.44 666.052 1369.86 687.95 1384.06 C 689.11 1426.28 696.237 1452.97 709.255 1491.87 C 699.153 1487.93 678.98 1474.03 668.919 1467.64 C 562.357 1399.88 482.718 1297.13 443.683 1177.03 C 416.225 1091.21 411.848 999.679 430.992 911.632 C 433.612 899.818 440.344 872.875 445.67 862.44 z"/>
<path transform="translate(0,0)" fill="rgb(113,167,154)" d="M 1574.97 1054.04 C 1574.72 1024.68 1572.24 1021.34 1599.05 1005.93 C 1652.69 975.114 1687.95 922.671 1716.39 869.267 C 1721.2 860.242 1728.64 837.198 1734.3 830.752 C 1723.13 916.221 1668.92 1023.1 1613.22 1088.05 C 1605.86 1096.64 1593.72 1110.29 1585.15 1117.24 C 1587.62 1098.17 1590.42 1074.07 1589.87 1054.73 C 1586.52 1052.64 1583.96 1050.45 1580.09 1050.66 C 1577.26 1052.03 1577.26 1051.94 1574.97 1054.04 z"/>
<path transform="translate(0,0)" fill="rgb(113,167,154)" d="M 1390.56 1397.83 C 1402.59 1390.81 1450.63 1357.98 1458.75 1357.01 C 1440.83 1381.51 1408.45 1412.09 1385.1 1431.72 C 1387.53 1418.79 1389 1411.72 1390.08 1398.39 L 1390.56 1397.83 z"/>
<path transform="translate(0,0)" fill="rgb(47,38,47)" d="M 1198.77 755.291 C 1331 746.792 1357.37 951.898 1233.8 977.03 C 1211.7 980.93 1186.33 975.713 1167.57 963.254 C 1091.71 912.898 1101.61 773.817 1198.77 755.291 z"/>
<path transform="translate(0,0)" fill="rgb(255,255,255)" d="M 1241.38 789.04 C 1279.16 788.037 1285.83 839.253 1255.12 850.757 C 1219.79 853.178 1207.8 801.515 1241.38 789.04 z"/>
<path transform="translate(0,0)" fill="rgb(255,255,255)" d="M 1257.69 868.714 C 1262.34 866.97 1267.57 867.939 1271.28 871.233 C 1274.99 874.527 1276.57 879.604 1275.39 884.423 C 1274.28 888.944 1270.9 892.564 1266.47 893.981 C 1259.55 896.19 1252.14 892.483 1249.76 885.626 C 1247.38 878.77 1250.9 871.266 1257.69 868.714 z"/>
<path transform="translate(0,0)" fill="rgb(47,38,47)" d="M 765.664 799.291 C 896.809 791.367 917.5 999.328 793.681 1020.71 C 737.645 1028.13 692.216 979.03 684.357 926.99 C 675.737 869.901 704.91 808.558 765.664 799.291 z"/>
<path transform="translate(0,0)" fill="rgb(255,255,255)" d="M 806.318 830.196 C 810.964 829.845 815.259 829.272 819.643 831.097 C 843.624 841.078 847.433 880.91 821.286 891.007 C 784.324 892.524 775.61 843.959 806.318 830.196 z"/>
<path transform="translate(0,0)" fill="rgb(255,255,255)" d="M 821.622 909.921 C 828.635 907.286 836.459 910.808 839.136 917.805 C 841.812 924.802 838.336 932.647 831.355 935.365 C 824.316 938.106 816.39 934.594 813.691 927.539 C 810.992 920.483 814.551 912.578 821.622 909.921 z"/>
<path transform="translate(0,0)" fill="rgb(47,38,47)" d="M 937.204 983.088 C 934.075 979.578 923.676 968.867 926.233 963.689 C 935.068 945.795 993.633 891.893 1013.63 897.394 C 1040.12 904.68 1080.44 925.255 1100.48 945.441 C 1103.13 948.105 1101.45 954.058 1100.68 957.157 C 1101.77 963.735 1096.91 966.066 1095.27 971.578 C 1087.56 997.366 1047.01 1047.8 1020.93 1051.91 C 996.777 1055.7 943.621 1006.2 937.204 983.088 z"/>
<path transform="translate(0,0)" fill="rgb(113,167,154)" d="M 1100.68 957.157 C 1101.77 963.735 1096.91 966.066 1095.27 971.578 C 1087.56 997.366 1047.01 1047.8 1020.93 1051.91 C 996.777 1055.7 943.621 1006.2 937.204 983.088 C 949.978 994.349 1002 1041.87 1019.6 1037.11 C 1049.82 1028.93 1081.58 981.47 1100.68 957.157 z"/>
<path transform="translate(0,0)" fill="rgb(245,206,139)" d="M 1006.78 911.838 C 1021.18 911.288 1072.61 940.364 1081.86 950.467 L 1081.62 952.439 C 1073.85 959.628 1030.7 982.862 1019.43 988.733 C 1011.83 990.909 954.189 970.362 945.898 964.349 C 945.815 954.023 996.547 917.177 1006.78 911.838 z"/>
<path transform="translate(0,0)" fill="rgb(229,174,103)" d="M 1018 1004.75 C 1032.44 999.004 1046.08 989.283 1061.49 982.64 C 1058.28 987.19 1056.23 990.549 1051.92 994.192 C 1047.62 998.725 1043.65 1003.11 1038.9 1007.19 C 1031.13 1017.06 1017.64 1027.15 1007.21 1018.5 C 1002.48 1014.58 975.933 1000.04 974.478 994.648 C 979.31 992.613 1007.21 1003.24 1018 1004.75 z"/>
<path transform="translate(0,0)" fill="rgb(255,255,255)" d="M 1209.21 546.177 C 1263.61 543.272 1336.89 578.584 1363.8 628.873 C 1374 647.936 1366.38 660.668 1345.54 664.895 C 1297.31 668.211 1238.01 634.652 1205.48 600.754 C 1187.18 581.685 1172.41 554.295 1209.21 546.177 z"/>
<path transform="translate(0,0)" fill="rgb(234,211,196)" d="M 672.865 1011.32 C 691.082 1009.04 712.82 1010.98 728.87 1020.75 C 742.061 1028.77 747.639 1043.04 738.037 1056.38 C 727.569 1070.92 707.019 1077.14 690.079 1079.83 C 671.863 1083.09 648.504 1081.15 632.234 1071.46 C 618.926 1063.54 612.918 1048.22 623.096 1035.07 C 634.319 1020.58 655.425 1014.17 672.865 1011.32 z"/>
<path transform="translate(0,0)" fill="rgb(234,211,196)" d="M 1341.77 948.352 C 1360.78 945.843 1384.74 948.209 1401.22 958.926 C 1413.13 966.679 1416.71 980.84 1407.65 992.409 C 1395.72 1007.65 1374.75 1013.62 1356.5 1016.73 C 1334.56 1020.53 1292.01 1016.23 1287.63 989.714 C 1283.47 964.535 1323.22 951.025 1341.77 948.352 z"/>
<path transform="translate(0,0)" fill="rgb(138,196,180)" d="M 387.558 1175.34 C 392.886 1162.85 406.742 1132.57 414.278 1122.25 C 429.934 1200.4 456.305 1263.93 502.225 1329.83 C 512.41 1344.45 525.826 1358.67 535.336 1372.39 C 519.879 1380 509.87 1383.8 493.476 1389.04 C 454.951 1400.98 362.208 1416.22 346.169 1364.37 C 331.64 1317.4 366.973 1219.98 387.558 1175.34 z"/>
<path transform="translate(0,0)" fill="rgb(113,167,154)" d="M 387.558 1175.34 C 392.886 1162.85 406.742 1132.57 414.278 1122.25 C 429.934 1200.4 456.305 1263.93 502.225 1329.83 C 512.41 1344.45 525.826 1358.67 535.336 1372.39 C 519.879 1380 509.87 1383.8 493.476 1389.04 C 486.664 1379.6 478.118 1370.28 470.75 1360.06 C 446.462 1326.22 426.639 1289.38 411.772 1250.47 C 402.771 1227.08 396.857 1203.19 390.543 1179.04 C 390.112 1177.39 388.839 1176.34 387.558 1175.34 z"/>
<path transform="translate(0,0)" fill="rgb(245,206,139)" d="M 1116.56 1570.47 C 1136.44 1566.35 1154.25 1562.86 1174.13 1558.22 C 1174.06 1572.94 1173.76 1587.66 1173.23 1602.37 C 1172.77 1612.2 1168.95 1648.49 1176.19 1654.27 C 1191.26 1666.31 1260.61 1688.32 1265.03 1707.67 C 1262.63 1712.2 1258.45 1711.42 1253.67 1711.49 L 1251.62 1711.54 C 1238.46 1711.72 1216.71 1706.64 1205.14 1700.18 C 1197.43 1695.88 1193.67 1685.53 1183.22 1690.96 C 1171.68 1706.85 1223.3 1721.41 1218.37 1744.96 C 1205.56 1760.97 1123.48 1700.44 1116.88 1687.17 C 1115.67 1680.02 1116.19 1660.79 1116.14 1652.91 C 1115.95 1625.35 1116.87 1598.07 1116.56 1570.47 z"/>
<path transform="translate(0,0)" fill="rgb(229,174,103)" d="M 1116.56 1570.47 C 1136.44 1566.35 1154.25 1562.86 1174.13 1558.22 C 1174.06 1572.94 1173.76 1587.66 1173.23 1602.37 C 1152.76 1605.31 1138.91 1609.71 1117.35 1611.21 C 1117.26 1631.05 1118.36 1668.71 1116.88 1687.17 C 1115.67 1680.02 1116.19 1660.79 1116.14 1652.91 C 1115.95 1625.35 1116.87 1598.07 1116.56 1570.47 z"/>
<path transform="translate(0,0)" fill="rgb(245,206,139)" d="M 869.878 1567.73 C 891.454 1572.27 907.211 1573.53 928.037 1576.98 C 927.861 1590.76 927.849 1604.54 928 1618.32 C 928.118 1641.04 928.1 1663.77 927.945 1686.49 C 914.25 1703.46 847.6 1753.84 829.055 1747.01 C 816.103 1735.13 850.2 1711.52 857.853 1704.8 C 861.891 1701.26 864.369 1698.6 864.233 1693.15 C 859.111 1686.31 850.312 1691.66 845.402 1695.84 C 834.849 1704.83 822.145 1708.83 808.467 1709.95 C 801.726 1710.51 782.708 1714.2 781.075 1705.71 C 787.592 1688.13 852.918 1664.43 870.834 1652.63 C 872.527 1641.9 870.996 1615.98 870.561 1603.81 C 869.986 1591.84 870.084 1579.73 869.878 1567.73 z"/>
<path transform="translate(0,0)" fill="rgb(229,174,103)" d="M 869.878 1567.73 C 891.454 1572.27 907.211 1573.53 928.037 1576.98 C 927.861 1590.76 927.849 1604.54 928 1618.32 L 926.993 1614.47 C 925.094 1612.55 876.577 1604.68 870.561 1603.81 C 869.986 1591.84 870.084 1579.73 869.878 1567.73 z"/>
<path transform="translate(0,0)" fill="rgb(245,206,139)" d="M 925.999 364.816 C 920.786 337.927 920.048 305.686 933.212 280.141 C 937.588 271.651 946.892 274.909 951.719 280.81 C 975.703 308.623 981.033 350.205 979.089 385.5 C 978.832 389.595 978.47 393.682 978.002 397.758 C 978.256 414.426 972.025 438.542 967.305 454.303 C 949.985 433.442 927.921 391.951 925.999 364.816 z"/>
<path transform="translate(0,0)" fill="rgb(229,174,103)" d="M 925.999 364.816 C 931.961 375.695 938.125 399.602 944.369 413.511 C 952.048 416.044 956.95 418.285 965.05 418.572 L 973.872 412.849 C 974.826 407.555 975.275 402.253 978.002 397.758 C 978.256 414.426 972.025 438.542 967.305 454.303 C 949.985 433.442 927.921 391.951 925.999 364.816 z"/>
<path transform="translate(0,0)" fill="rgb(232,189,125)" d="M 944.369 413.511 C 952.048 416.044 956.95 418.285 965.05 418.572 C 957.581 419.547 956.386 421.79 950.72 422.909 C 947.616 421.419 946.025 416.833 944.369 413.511 z"/>
<path transform="translate(0,0)" fill="rgb(245,206,139)" d="M 997.62 421.897 C 1012.58 399.528 1034.12 377.342 1061.56 370.973 C 1065.23 370.121 1068.25 369.583 1071.81 370.87 C 1085.97 385.457 1043.64 428.926 1031.8 437.244 C 1017.25 449.543 997.619 460.097 979.098 464.924 C 982.669 451.55 987.902 432.147 997.62 421.897 z"/>
<path transform="translate(0,0)" fill="rgb(229,174,103)" d="M 979.098 464.924 C 982.669 451.55 987.902 432.147 997.62 421.897 C 996.161 425.985 992.479 433.969 993.474 437.11 C 998.61 439.943 1021.44 440.318 1026.99 438.771 C 1028.61 438.322 1030.21 437.812 1031.8 437.244 C 1017.25 449.543 997.619 460.097 979.098 464.924 z"/>
<path transform="translate(0,0)" fill="rgb(245,206,139)" d="M 911.973 451.56 C 897.428 446.676 864.931 410.121 869.874 393.75 C 877.515 387.428 904.366 406.672 911.067 412.3 C 923.522 419.63 951.762 454.556 955.469 466.004 L 954.623 467.947 C 946.871 470.568 918.137 456.691 911.973 451.56 z"/>
<path transform="translate(0,0)" fill="rgb(229,174,103)" d="M 911.067 412.3 C 923.522 419.63 951.762 454.556 955.469 466.004 L 954.623 467.947 C 946.871 470.568 918.137 456.691 911.973 451.56 C 915.562 451.998 918.994 453.267 922.414 454.422 C 924.144 453.005 924.08 440.126 928.21 433.452 C 927.229 427.254 914.868 419.332 911.067 412.3 z"/>
</svg>