<svg version="1.1" xmlns="http://www.w3.org/2000/svg" viewBox="156.38 303.48 1736.14 1439.48" width="1736" height="1439">
<path transform="translate(0,0)" fill="rgb(47,40,47)" d="M 771.583 368.048 C 772.477 368.004 773.372 367.974 774.267 367.96 C 789.227 367.777 796.618 382.829 803.237 393.92 C 819.851 421.762 820.009 454.229 819.936 486.085 C 835.704 472.64 850.42 456.951 871.046 451.394 C 882.56 448.292 898.527 447.701 901.004 462.541 C 904.519 483.598 888.759 503.387 875.367 517.822 C 869.683 523.949 862.717 528.718 858.151 535.666 L 858.581 537.194 C 862.453 539.495 872.621 540.916 877.282 541.236 C 1047.53 552.9 1215.76 645.265 1301.2 795.666 C 1316.36 822.356 1325.98 850.41 1337.97 879.987 C 1350.9 866.821 1385.36 846.322 1402.73 840.009 C 1421.21 833.293 1441.09 827.644 1459.94 836.976 C 1479.85 846.841 1484.21 860.111 1491.77 878.655 C 1508.23 919.003 1487.76 972.901 1470.59 1010.23 C 1464.88 1022.64 1456.43 1036.5 1450.13 1049.93 L 1676.21 1049.91 L 1743.66 1049.9 C 1782.35 1049.85 1825.9 1044.04 1827.05 1098.5 C 1827.7 1129.01 1827.28 1159.78 1827.29 1190.31 L 1827.34 1365.52 L 1827.52 1444.87 C 1827.7 1462.07 1828.22 1481.13 1826.75 1498.33 C 1825.51 1505.05 1819.15 1515.51 1814.2 1520.23 C 1797.91 1535.76 1772.88 1534.22 1752.25 1534.1 C 1738.39 1534.02 1725.52 1533.99 1712.15 1533.99 C 1661.34 1534.27 1610.52 1534.1 1559.71 1533.5 C 1562.45 1553.52 1566.28 1568.28 1566.09 1588.9 C 1580.28 1587.47 1620.56 1586.05 1633.56 1590.73 C 1645.41 1596.07 1666.29 1606.95 1672.06 1618.31 C 1677.72 1629.47 1662.59 1647.93 1652.3 1650.57 C 1631.74 1655.85 1606.5 1652.25 1585.1 1653.68 C 1544.91 1656.36 1504.01 1655.77 1463.67 1655.98 C 1454.86 1655.98 1415.85 1657.16 1409.81 1655.17 C 1394.08 1649.98 1364.79 1643.61 1351.31 1637.02 C 1347.85 1624.93 1349.69 1619.19 1351.21 1606.78 C 1369.96 1581.16 1423.98 1587.84 1452.11 1587.99 C 1452.15 1571.78 1448.32 1549.4 1447.93 1534.12 L 1271.38 1533.98 C 1244.69 1534.01 1213.83 1535.26 1187.41 1532.56 C 1181.41 1531.94 1168.46 1524.3 1164.22 1520 C 1159.16 1514.87 1154.85 1507.56 1153.48 1500.25 C 1151.38 1488.97 1152.55 1475.19 1152.49 1463.49 C 1152.37 1438.51 1152.76 1413.49 1152.31 1388.52 C 1152.24 1385.04 1153.02 1386.28 1150.86 1384.25 C 1144.41 1384.45 1136.9 1390.01 1131.52 1393.56 C 1124.21 1398.1 1117.12 1404.49 1110.03 1408.42 C 1102.62 1412.53 1093.42 1415.97 1085.59 1419.97 C 1055.22 1435.46 1022.12 1449.05 989.169 1458.28 L 987.14 1570.29 C 993.014 1574.73 999.146 1576.62 1005.69 1579.99 C 1022.09 1588.45 1040.11 1595.65 1055.57 1605.67 C 1060.36 1608.78 1067.84 1618.39 1067.66 1624.39 C 1066.93 1648.37 1039.9 1645.26 1023.16 1645.02 C 1031.11 1664.12 1025.48 1678.65 1002.17 1675.22 C 970.076 1670.5 935.972 1642.37 912.504 1620.64 C 904.885 1613.59 909.893 1569.7 908.583 1557.54 C 909.539 1531.54 906.952 1501.14 910.243 1475.91 C 869.197 1481.66 840.409 1484.28 799.3 1483.04 C 799.873 1508.47 799.941 1533.25 799.569 1558.68 C 799.303 1576.81 800.038 1595.63 799.057 1613.69 C 784.9 1638.64 726.071 1678.28 695.567 1678.03 C 687.847 1677.96 682.113 1670.74 678.052 1665.14 C 678.517 1658.93 679.319 1652.97 679.707 1646.74 C 667.183 1649.18 647.876 1647.6 640.65 1635.74 C 640.52 1632.42 640.475 1629.1 640.514 1625.77 C 641.107 1597.95 700.333 1587.9 719.076 1570.37 C 717.14 1546.12 720.503 1520.41 717.859 1496.08 C 716.919 1487.43 716.324 1480.79 717.023 1472 C 701.552 1468.45 689.219 1466.2 673.45 1461.76 C 594.48 1439.52 509.445 1395.71 450.852 1337.54 C 412.492 1374.06 358.335 1408.08 306.692 1420.48 C 264.605 1430.72 223.066 1408.12 229.906 1360.01 C 241.576 1277.94 276.29 1196.04 323.245 1128.39 C 321.13 1118.07 315.634 1111.81 313.765 1102.73 C 293.34 1003.44 306.217 892.332 358.949 804.544 C 425.389 694.945 528.572 612.483 650.124 571.843 C 676.726 562.696 703.979 556.757 731.278 550.318 C 734.625 549.529 736.748 549.022 738.246 546.444 C 735.534 541.58 725.588 537.796 721.199 533.748 C 708.54 522.2 694.683 501.82 695.704 483.896 C 697.417 453.858 735.819 476.844 748.449 481.894 C 747.731 479.388 747.091 476.861 746.531 474.315 C 740.707 447.256 734.171 375.975 771.583 368.048 z"/>
<path transform="translate(0,0)" fill="rgb(134,193,176)" d="M 361.325 834.882 C 410.671 724.236 524.233 636.114 635.309 593.444 C 773.176 539.113 927.075 542.353 1062.53 602.439 C 1171.76 651.123 1271.34 742.63 1313.15 855.997 C 1338.64 925.094 1339.97 981.545 1330.59 1053.06 L 1236.3 1052.97 C 1192.17 1052.92 1153.83 1044.62 1154.44 1104.27 L 1154.93 1283.23 L 1154.96 1332.33 C 1154.98 1338.51 1155.33 1354.54 1154.55 1360.26 C 1135 1375.94 1111.95 1389.86 1089.92 1401.73 C 989.666 1455.08 875.606 1476.8 762.765 1464.04 C 707.625 1458 643.355 1442.27 593.746 1417.02 C 579.847 1391.43 575.605 1365.57 574.703 1336.76 C 573.441 1334.4 573.762 1330.9 573.693 1327.96 C 554.259 1314.43 522.867 1297.31 505.764 1281.36 C 505.41 1277.95 505.507 1276.3 505.648 1272.96 C 504.274 1268.98 502.483 1266.47 498.515 1264.89 C 495.884 1265.14 494.592 1265.38 492.711 1267.36 C 487.089 1273.28 482.562 1281.2 477.493 1287.69 C 467.093 1301.01 455.056 1314.11 442.681 1325.61 C 404.372 1361.19 336.516 1410.48 282.625 1408.12 C 271.88 1407.65 261.4 1404.71 254.179 1396.28 C 220.684 1357.19 296.03 1200.39 319.408 1160.19 C 325.421 1149.85 355.445 1114.2 355.858 1107.94 C 354.593 1104.52 353.303 1104.08 350.288 1102 C 343.644 1104.06 339.168 1110.19 334.331 1115.38 C 308.939 1016.77 315.684 926.166 361.325 834.882 z"/>
<path transform="translate(0,0)" fill="rgb(252,251,238)" d="M 574.749 1327.8 C 576.027 1265.77 604.512 1205.84 649.225 1163.21 C 714.289 1101.18 802.863 1075.33 891.238 1077.17 C 973.491 1078.88 1056.14 1107.07 1113.95 1167.33 C 1127.1 1181.03 1146.34 1205.86 1152.76 1223.96 C 1154.99 1230.26 1154.12 1259.51 1154.1 1267.97 L 1154.04 1333.43 C 1154.05 1340.68 1153.71 1353.48 1154.55 1360.26 C 1135 1375.94 1111.95 1389.86 1089.92 1401.73 C 989.666 1455.08 875.606 1476.8 762.765 1464.04 C 707.625 1458 643.355 1442.27 593.746 1417.02 C 579.847 1391.43 575.605 1365.57 574.703 1336.76 L 574.749 1327.8 z"/>
<path transform="translate(0,0)" fill="rgb(231,212,197)" d="M 574.749 1327.8 C 587.152 1336.36 599.612 1341.34 613.127 1347.72 C 725.964 1401.03 852.543 1422.59 976.355 1399.9 C 1028.29 1390.18 1078.54 1372.96 1125.53 1348.79 C 1133.42 1344.81 1146.83 1338.3 1154.04 1333.43 C 1154.05 1340.68 1153.71 1353.48 1154.55 1360.26 C 1135 1375.94 1111.95 1389.86 1089.92 1401.73 C 989.666 1455.08 875.606 1476.8 762.765 1464.04 C 707.625 1458 643.355 1442.27 593.746 1417.02 C 579.847 1391.43 575.605 1365.57 574.703 1336.76 L 574.749 1327.8 z"/>
<path transform="translate(0,0)" fill="rgb(111,164,150)" d="M 361.325 834.882 C 362.29 850.024 357.048 862.308 354.981 876.862 C 344.713 949.132 352.665 1017.24 372.086 1087.2 C 364.895 1094.15 352.448 1097.98 350.292 1101.36 L 350.288 1102 C 343.644 1104.06 339.168 1110.19 334.331 1115.38 C 308.939 1016.77 315.684 926.166 361.325 834.882 z"/>
<path transform="translate(0,0)" fill="rgb(47,40,47)" d="M 642.174 847.192 C 660.497 845.655 674.66 846.645 690.892 855.833 C 750.129 889.361 752.137 986.409 690.182 1018.2 C 682.936 1021.92 676.866 1023.71 669.039 1025.74 C 561.899 1037.97 538.632 872.623 642.174 847.192 z"/>
<path transform="translate(0,0)" fill="rgb(255,255,255)" d="M 672.229 870.089 C 700.722 869.662 707.366 909.768 682.25 920.77 C 652.574 919.226 646.733 878.669 672.229 870.089 z"/>
<path transform="translate(0,0)" fill="rgb(255,255,255)" d="M 684.865 936.559 C 690.62 935.083 696.477 938.574 697.915 944.339 C 699.354 950.103 695.826 955.937 690.052 957.339 C 684.331 958.728 678.561 955.238 677.135 949.526 C 675.709 943.813 679.162 938.021 684.865 936.559 z"/>
<path transform="translate(0,0)" fill="rgb(47,40,47)" d="M 1033.66 809.422 C 1124.54 804.353 1154.67 966.956 1045.77 981.924 C 935.542 983.854 935.557 815.735 1033.66 809.422 z"/>
<path transform="translate(0,0)" fill="rgb(255,255,255)" d="M 1053.42 834.171 C 1081.14 835.649 1087.64 877.118 1060.83 884.998 C 1038.62 883.703 1035.4 865.557 1037.27 846.973 C 1042.11 839.011 1044.7 836.73 1053.42 834.171 z"/>
<path transform="translate(0,0)" fill="rgb(255,255,255)" d="M 1065.81 898.667 C 1071.29 897.199 1076.94 900.413 1078.48 905.879 C 1080.02 911.345 1076.88 917.033 1071.44 918.644 C 1067.85 919.706 1063.97 918.755 1061.28 916.156 C 1058.59 913.557 1057.51 909.712 1058.44 906.091 C 1059.38 902.47 1062.19 899.634 1065.81 898.667 z"/>
<path transform="translate(0,0)" fill="rgb(47,40,47)" d="M 781.35 984.972 C 778.16 980.845 772.091 973.957 776.127 968.785 C 789.017 952.268 823.797 921.689 842.445 915.167 C 862.71 914.352 891.007 931.497 906.852 941.536 C 926.845 954.202 932.808 957.778 919.387 976.087 C 921.733 996.947 876.229 1048.07 856.303 1050.55 C 834.73 1053.24 785.279 1005.01 781.35 984.972 z"/>
<path transform="translate(0,0)" fill="rgb(111,164,150)" d="M 919.387 976.087 C 921.733 996.947 876.229 1048.07 856.303 1050.55 C 834.73 1053.24 785.279 1005.01 781.35 984.972 C 788.639 992.08 796.234 998.867 804.114 1005.31 C 815.549 1014.49 843.094 1036.64 856.751 1033.61 C 878.709 1028.75 906.305 992.498 919.387 976.087 z"/>
<path transform="translate(0,0)" fill="rgb(246,206,137)" d="M 844.49 927.875 C 858.824 927.164 898.959 951.92 911.473 961.818 C 897.355 971.559 871.219 984.732 855.415 993.489 C 848.88 995.411 799.13 976.319 790.057 972.907 C 799.078 960.295 830.796 935.749 844.49 927.875 z"/>
<path transform="translate(0,0)" fill="rgb(228,170,97)" d="M 812.895 994.856 C 826.728 997.681 837.677 1003.83 854.372 1007.32 C 861.757 1004.71 866.554 1001.73 873.381 997.831 C 876.007 998.942 878.503 999.862 880.901 1001.4 C 872.207 1009.86 864.159 1016.97 853.533 1022.86 C 836.956 1013.75 826.693 1007.61 812.895 994.856 z"/>
<path transform="translate(0,0)" fill="rgb(206,148,87)" d="M 873.381 997.831 C 880.528 993.655 884.254 991.699 891.846 988.458 C 887.538 994.672 886.392 996.177 880.901 1001.4 C 878.503 999.862 876.007 998.942 873.381 997.831 z"/>
<path transform="translate(0,0)" fill="rgb(255,255,255)" d="M 1012.79 617.375 C 1044.95 617.715 1080.66 632.824 1107.1 652.365 C 1119.14 661.258 1153.77 693.943 1140.53 713.14 C 1136.49 718.994 1127.6 720.288 1120.68 721.051 C 1086.11 720.918 1058.99 707.298 1030.41 688.772 C 1008.83 674.79 954.548 623.318 1012.79 617.375 z"/>
<path transform="translate(0,0)" fill="rgb(245,196,192)" d="M 1130.65 962.217 C 1201.76 955.898 1221.38 1004.86 1147.29 1020.8 C 1079.37 1030.15 1058.96 976.035 1130.65 962.217 z"/>
<path transform="translate(0,0)" fill="rgb(245,196,192)" d="M 561.043 1016.41 C 622.252 1009.93 644.589 1065.77 565.234 1075.81 C 493.338 1079.66 489.316 1023.74 561.043 1016.41 z"/>
<path transform="translate(0,0)" fill="rgb(252,251,238)" d="M 1219.44 1067.9 C 1227.4 1066.13 1264.25 1066.75 1274.62 1066.75 L 1390.16 1066.78 L 1647.03 1066.74 C 1693 1066.7 1738.98 1066.53 1784.95 1066.92 C 1794.61 1067 1808.04 1072.45 1809.98 1082.93 C 1813.1 1099.89 1812 1118.76 1812.02 1136.14 L 1812.07 1218.02 L 1812.06 1360.36 C 1812.05 1383.14 1812.85 1411.65 1811.86 1433.96 C 1812.17 1443.88 1811.84 1455.88 1811.79 1465.95 C 1749.12 1467.02 1683.05 1465.96 1620.15 1465.96 L 1198.96 1466.3 C 1198.02 1386.98 1198.7 1306.13 1198.8 1226.71 L 1198.74 1144.02 C 1198.68 1126.72 1196.91 1100.42 1201.13 1083.49 C 1203.05 1075.78 1212.19 1070.82 1219.44 1067.9 z"/>
<path transform="translate(0,0)" fill="rgb(231,212,197)" d="M 1198.96 1466.3 C 1198.02 1386.98 1198.7 1306.13 1198.8 1226.71 L 1198.74 1144.02 C 1198.68 1126.72 1196.91 1100.42 1201.13 1083.49 C 1203.05 1075.78 1212.19 1070.82 1219.44 1067.9 C 1218.77 1117.2 1218.58 1166.51 1218.84 1215.82 C 1219.06 1270.98 1213 1361.85 1252.46 1402.85 C 1290.11 1441.98 1384.81 1443.54 1436.11 1443.87 L 1680.16 1443.87 L 1759.92 1443.88 C 1774.27 1443.87 1796.02 1444.37 1809.76 1442.86 C 1811.45 1440.66 1811.49 1436.91 1811.86 1433.96 C 1812.17 1443.88 1811.84 1455.88 1811.79 1465.95 C 1749.12 1467.02 1683.05 1465.96 1620.15 1465.96 L 1198.96 1466.3 z"/>
<path transform="translate(0,0)" fill="rgb(122,193,116)" d="M 1707.47 1118.15 C 1723.29 1118.07 1714.25 1144.71 1714.05 1155.9 C 1713.87 1165.48 1711.73 1192.13 1700.1 1193.84 C 1687.34 1190.79 1691.75 1171.02 1692.29 1160.58 L 1618.9 1245.66 C 1607.56 1258.84 1559.05 1317.95 1547.2 1324.35 C 1538.88 1325.26 1492.72 1286.68 1482.21 1278.93 C 1465.96 1296.5 1360.91 1414.1 1347.96 1418.94 C 1339.96 1417.37 1333.87 1411.12 1339.67 1403.99 C 1353.78 1386.66 1370.81 1370.95 1386.21 1354.61 L 1440.5 1296.31 C 1451.28 1284.73 1466.96 1264.61 1481.2 1258.74 C 1485.95 1256.78 1505.01 1272.71 1509.78 1276.34 C 1521.34 1285.23 1533.02 1293.97 1544.8 1302.57 L 1629.79 1203.57 C 1645.09 1185.88 1662.78 1166.65 1677.15 1148.48 C 1671.01 1149.02 1649.07 1153.4 1645.33 1149.49 C 1627.61 1130.91 1695.73 1120.99 1707.47 1118.15 z"/>
<path transform="translate(0,0)" fill="rgb(122,193,116)" d="M 1570.53 1151.23 C 1578.71 1152.92 1577.15 1166.76 1582.57 1173.41 C 1587.44 1179.37 1598.26 1179.22 1600.92 1184.94 C 1597.93 1187.53 1589.35 1189 1586.17 1191.3 C 1578.47 1196.88 1576.25 1209.17 1574.22 1217.6 C 1573.18 1217.4 1570.78 1216.96 1570.43 1215.79 C 1566.74 1203.35 1567.83 1201.3 1559.74 1190.96 C 1554.22 1188.84 1546.55 1186.71 1540.56 1184.61 C 1561.88 1177.7 1567.86 1174.41 1570.53 1151.23 z"/>
<path transform="translate(0,0)" fill="rgb(255,255,255)" d="M 1572.94 1171.72 C 1574.52 1172.81 1578.52 1179.07 1583.99 1183.3 C 1578.48 1189.1 1577.24 1190.61 1572.81 1197.38 C 1568.55 1191.22 1567.42 1189.59 1561.99 1184.47 C 1567.3 1179.34 1568.88 1177.96 1572.94 1171.72 z"/>
<path transform="translate(0,0)" fill="rgb(122,193,116)" d="M 1336.49 1277.82 C 1343.19 1278.26 1342.56 1284.09 1344.95 1290.35 C 1348.61 1299.97 1356.91 1300.86 1365.62 1304.78 C 1345.77 1309.79 1344.19 1312.57 1340.99 1332.8 C 1339.85 1332.51 1337.12 1331.53 1336.91 1330.72 C 1334.7 1322.55 1333.24 1318.2 1328.9 1311.13 L 1311.77 1304.34 C 1329.82 1299.07 1332.93 1296.35 1336.49 1277.82 z"/>
<path transform="translate(0,0)" fill="rgb(255,255,255)" d="M 1339.13 1295.04 C 1341.78 1298.85 1344.04 1300.81 1347.35 1304.01 C 1343.62 1307.77 1342.37 1309.58 1339.32 1313.96 C 1336.64 1310.73 1333.19 1307.36 1330.23 1304.3 C 1333.29 1301.43 1336.25 1298.12 1339.13 1295.04 z"/>
<path transform="translate(0,0)" fill="rgb(134,193,176)" d="M 1363.88 878.044 C 1385.37 863.422 1420.41 843.209 1447.25 848.908 C 1488.65 857.7 1482.97 923.611 1476.05 952.635 C 1469.79 978.584 1459.6 1003.42 1445.83 1026.29 C 1440.9 1035.02 1434.36 1044.42 1428.77 1052.87 C 1400.59 1053.03 1372.42 1053.01 1344.24 1052.8 C 1352.65 1002.88 1351.76 946.928 1339.58 897.617 C 1346.8 890.811 1355.93 884.157 1363.88 878.044 z"/>
<path transform="translate(0,0)" fill="rgb(111,164,150)" d="M 1363.88 878.044 C 1381.62 923.687 1380.61 982.248 1374.14 1029.9 C 1402.33 1032.69 1418.52 1031.56 1445.83 1026.29 C 1440.9 1035.02 1434.36 1044.42 1428.77 1052.87 C 1400.59 1053.03 1372.42 1053.01 1344.24 1052.8 C 1352.65 1002.88 1351.76 946.928 1339.58 897.617 C 1346.8 890.811 1355.93 884.157 1363.88 878.044 z"/>
<path transform="translate(0,0)" fill="rgb(127,126,127)" d="M 1199.1 1480.5 C 1220.55 1479.5 1247.47 1480.24 1269.49 1480.2 L 1406.39 1480.11 L 1812.03 1480.02 C 1812.28 1493.85 1812.78 1500.3 1803.65 1510.91 C 1790.55 1520.58 1772.56 1517.88 1756.76 1517.78 C 1740.07 1517.67 1723.39 1517.64 1706.7 1517.7 C 1645.83 1517.91 1584.96 1517.81 1524.1 1517.39 L 1328.25 1517.73 C 1292.72 1517.75 1256.88 1518.37 1221.42 1516.63 C 1202.53 1515.71 1197.28 1496.34 1199.1 1480.5 z"/>
<path transform="translate(0,0)" fill="rgb(246,206,137)" d="M 923.364 1472.8 C 941.524 1469.94 956.913 1466.31 974.765 1461.98 C 973.491 1481.31 975.196 1505.13 973.141 1523.26 C 972.763 1541.37 971.723 1561.34 972.149 1579.22 L 973.352 1580 C 986.945 1588.68 1048.91 1613.22 1052.77 1625.66 C 1053.21 1627.07 1052.53 1627.74 1051.97 1629.01 C 1036.36 1638.99 1000.27 1621.38 987.271 1611.63 C 984.904 1609.85 980.216 1613.5 979.335 1617.4 C 983.059 1629.3 1014.38 1642.29 1012.55 1659.86 C 1000.41 1674.42 933.81 1622.25 924.284 1611.33 C 924.035 1587.72 922.843 1550.75 924.182 1528.19 C 923.413 1510.82 923.781 1490.54 923.364 1472.8 z"/>
<path transform="translate(0,0)" fill="rgb(228,170,97)" d="M 923.364 1472.8 C 941.524 1469.94 956.913 1466.31 974.765 1461.98 C 973.491 1481.31 975.196 1505.13 973.141 1523.26 C 972.787 1516.46 972.878 1511.76 973.163 1504.94 L 924.957 1513.56 C 924.734 1517.96 924.622 1523.95 924.182 1528.19 C 923.413 1510.82 923.781 1490.54 923.364 1472.8 z"/>
<path transform="translate(0,0)" fill="rgb(246,206,137)" d="M 732.868 1474.51 C 751.269 1477.32 765.669 1478.25 783.814 1480.16 C 783.33 1492.58 783.15 1505 783.273 1517.43 L 782.965 1611.24 C 774.156 1624.23 709.599 1673.09 695.374 1662.47 C 686.121 1645.83 727.779 1630.43 727.621 1617.58 C 725.081 1613.87 726.706 1615.16 722.653 1613.47 C 714.111 1613.7 708.303 1621.31 700 1625.79 C 689.625 1631.38 669.088 1632.94 657.338 1631.13 C 655.041 1630.77 654.63 1628.66 654.099 1627.01 C 657.941 1613.71 717.93 1590.94 733.18 1581.94 L 734.269 1581.28 C 736.058 1566.84 734.008 1524.9 733.583 1508.81 C 732.667 1498.67 732.947 1484.93 732.868 1474.51 z"/>
<path transform="translate(0,0)" fill="rgb(228,170,97)" d="M 732.868 1474.51 C 751.269 1477.32 765.669 1478.25 783.814 1480.16 C 783.33 1492.58 783.15 1505 783.273 1517.43 C 776.135 1516.11 768.834 1515.15 761.612 1513.91 C 753.054 1512.45 741.972 1509.39 733.583 1508.81 C 732.667 1498.67 732.947 1484.93 732.868 1474.51 z"/>
<path transform="translate(0,0)" fill="rgb(111,164,150)" d="M 460.696 1327.74 C 477.452 1311.01 492.509 1292.66 505.648 1272.96 C 505.507 1276.3 505.41 1277.95 505.764 1281.36 C 522.867 1297.31 554.259 1314.43 573.693 1327.96 C 573.762 1330.9 573.441 1334.4 574.703 1336.76 C 575.605 1365.57 579.847 1391.43 593.746 1417.02 C 549.83 1397.8 494.413 1362.1 460.696 1327.74 z"/>
<path transform="translate(0,0)" fill="rgb(111,108,113)" d="M 1192.2 1067.19 C 1193.26 1067.37 1192.67 1067.14 1193.71 1068.35 C 1190.98 1072.47 1188.33 1076.8 1186.94 1081.59 C 1182.01 1098.64 1184.79 1177.69 1184.67 1200.64 L 1184.13 1384.01 C 1184.11 1419.21 1183.64 1454.38 1184.78 1489.58 C 1185.18 1502.09 1186.64 1505.71 1192.61 1516.5 L 1191.52 1517.24 C 1187.95 1517.04 1184.7 1515.46 1181.34 1514.13 C 1164.73 1503.62 1168.71 1485 1168.53 1467.64 L 1168.36 1385.22 C 1168 1319.31 1168.12 1253.4 1168.71 1187.5 C 1168.82 1154.67 1168.38 1121.8 1168.93 1088.99 C 1169.15 1075.5 1180.52 1069.29 1192.2 1067.19 z"/>
<path transform="translate(0,0)" fill="rgb(246,206,137)" d="M 761.859 468.652 C 755.239 443.93 754.019 413.991 764.552 390.069 C 767.366 383.679 774.948 381.341 779.926 385.997 C 795.435 400.498 802.319 428.164 804.435 447.816 C 805.173 454.99 805.583 462.194 805.664 469.406 C 806.213 492.111 802.203 515.484 795.579 537.19 C 778.673 512.072 767.757 498.751 761.859 468.652 z"/>
<path transform="translate(0,0)" fill="rgb(228,170,97)" d="M 761.859 468.652 C 765.673 473.883 770.289 489.269 773.491 496.509 C 810.06 518.344 800.234 487.055 805.664 469.406 C 806.213 492.111 802.203 515.484 795.579 537.19 C 778.673 512.072 767.757 498.751 761.859 468.652 z"/>
<path transform="translate(0,0)" fill="rgb(127,126,127)" d="M 1480.62 1530.9 C 1501.43 1531.45 1522.25 1531.47 1543.06 1530.97 L 1546.49 1550.71 C 1548.86 1568.19 1551.48 1585.63 1554.33 1603.03 C 1532.29 1602.82 1510.25 1602.93 1488.22 1603.38 C 1487.43 1586.44 1485.84 1569.55 1483.46 1552.76 C 1482.06 1546.34 1481.35 1537.63 1480.62 1530.9 z"/>
<path transform="translate(0,0)" fill="rgb(111,108,113)" d="M 1480.62 1530.9 C 1501.43 1531.45 1522.25 1531.47 1543.06 1530.97 L 1546.49 1550.71 C 1539.27 1550.91 1487.19 1550.26 1483.46 1552.76 C 1482.06 1546.34 1481.35 1537.63 1480.62 1530.9 z"/>
<path transform="translate(0,0)" fill="rgb(246,206,137)" d="M 822.45 507.972 C 830.477 492.496 867.488 457.67 885.528 466.112 C 893.92 477.655 868.077 508.595 857.996 515.171 C 855.955 516.502 846.329 523.801 844.949 525.271 C 842.858 530.203 829.587 535.898 824.403 537.973 C 823.601 538.294 822.795 538.604 821.985 538.903 C 820.897 539.322 819.805 539.733 818.71 540.136 C 814.152 541.827 812.768 542.783 808.73 540.93 C 805.81 534.093 817.857 513.656 822.45 507.972 z"/>
<path transform="translate(0,0)" fill="rgb(243,195,120)" d="M 821.985 538.903 C 820.897 539.322 819.805 539.733 818.71 540.136 C 814.152 541.827 812.768 542.783 808.73 540.93 C 805.81 534.093 817.857 513.656 822.45 507.972 C 821.667 513.424 820.025 515.815 817.516 520.682 L 826.239 524.576 C 830.154 524.812 841.6 525.724 844.949 525.271 C 842.858 530.203 829.587 535.898 824.403 537.973 C 823.601 538.294 822.795 538.604 821.985 538.903 z"/>
<path transform="translate(0,0)" fill="rgb(228,170,97)" d="M 826.239 524.576 C 830.154 524.812 841.6 525.724 844.949 525.271 C 842.858 530.203 829.587 535.898 824.403 537.973 C 823.601 538.294 822.795 538.604 821.985 538.903 C 824.166 534.543 826.421 534.062 830.88 530.988 C 828.27 528.085 824.344 529.854 819.702 527.053 C 821.605 524.768 822.478 525.334 826.239 524.576 z"/>
<path transform="translate(0,0)" fill="rgb(127,126,127)" d="M 1448.12 1603.48 C 1461.32 1602.75 1467.22 1612.34 1475.61 1612.53 C 1503.97 1613.1 1533.39 1614.29 1561.59 1612.03 C 1564.06 1611.83 1565.89 1607.15 1566.77 1605.2 C 1574.06 1601.33 1617.69 1602.8 1628.3 1604.7 C 1632.26 1605.4 1646.74 1614.4 1650.99 1617.18 C 1631.91 1618.33 1608.27 1617.54 1588.47 1617.87 C 1531.16 1618.41 1473.11 1618.55 1415.81 1617.41 C 1409.48 1617.29 1381.16 1610.76 1376.63 1607.6 L 1377.21 1606.37 C 1393.36 1602.21 1429.78 1603.62 1448.12 1603.48 z"/>
<path transform="translate(0,0)" fill="rgb(111,108,113)" d="M 1596.82 1628.45 C 1606.47 1628.29 1647.93 1626.93 1654.87 1628.79 L 1655.22 1630.73 C 1651.8 1637.02 1648.78 1638.47 1641.57 1638.78 C 1624.77 1639.51 1607.61 1639.13 1590.8 1639.27 C 1550.79 1639.66 1510.77 1639.82 1470.75 1639.75 C 1456.44 1639.89 1442.03 1639.41 1427.7 1639.73 C 1423.89 1639.82 1415.96 1640.52 1413.63 1637.77 C 1413.37 1634.76 1412.88 1632.69 1413.97 1629.89 C 1418.6 1627.33 1574.1 1629 1596.82 1628.45 z"/>
<path transform="translate(0,0)" fill="rgb(246,206,137)" d="M 709.483 482.553 C 728.434 486.82 743.64 497.735 757.924 510.373 L 764.74 517.204 C 769.443 523.175 780.118 536.672 783.128 543.282 C 775.483 548.672 755.158 540.506 747.959 535.495 C 728.08 524.349 711.608 505.898 709.483 482.553 z"/>
<path transform="translate(0,0)" fill="rgb(228,170,97)" d="M 764.74 517.204 C 769.443 523.175 780.118 536.672 783.128 543.282 C 775.483 548.672 755.158 540.506 747.959 535.495 C 753.05 536.338 756.857 539.317 761.286 535.912 C 762.222 532.173 761.526 530.726 760.612 527.001 L 764.927 525.827 C 766.597 522.398 765.627 521.962 764.74 517.204 z"/>
<path transform="translate(0,0)" fill="rgb(243,195,120)" d="M 757.924 510.373 L 764.74 517.204 C 765.627 521.962 766.597 522.398 764.927 525.827 L 760.612 527.001 C 758.71 519.895 757.948 517.774 757.924 510.373 z"/>
<path transform="translate(0,0)" fill="rgb(111,108,113)" d="M 1463.89 1530.85 C 1467.21 1530.79 1468.19 1530.6 1471.4 1531.67 C 1473.1 1537.54 1474.45 1553.78 1475.13 1560.41 C 1476.46 1574.42 1478.15 1588.39 1480.21 1602.31 C 1476 1601.82 1474.35 1601.94 1470.72 1599.98 C 1468.48 1593.8 1464.23 1539.78 1463.89 1530.85 z"/>
<path transform="translate(0,0)" fill="rgb(111,108,113)" d="M 1366.06 1616.59 C 1378.31 1619.26 1390.4 1622.65 1402.25 1626.76 L 1401.96 1638.42 C 1392.64 1635.17 1375.2 1631.06 1365.11 1628.35 C 1365.04 1624.69 1365.66 1620.29 1366.06 1616.59 z"/>
</svg>