<svg version="1.1" xmlns="http://www.w3.org/2000/svg" viewBox="262.63 363.10 1455.20 1383.01" width="1455" height="1383">
<defs>
	<linearGradient id="Gradient1" gradientUnits="userSpaceOnUse" x1="1447.94" y1="1298.14" x2="1517.77" y2="1255.75">
		<stop class="stop0" offset="0" stop-opacity="1" stop-color="rgb(226,210,209)"/>
		<stop class="stop1" offset="1" stop-opacity="1" stop-color="rgb(242,239,241)"/>
	</linearGradient>
	<linearGradient id="Gradient2" gradientUnits="userSpaceOnUse" x1="1478.17" y1="798.28" x2="1460.04" y2="883.737">
		<stop class="stop0" offset="0" stop-opacity="1" stop-color="rgb(191,217,230)"/>
		<stop class="stop1" offset="1" stop-opacity="1" stop-color="rgb(243,250,252)"/>
	</linearGradient>
	<linearGradient id="Gradient3" gradientUnits="userSpaceOnUse" x1="1551.51" y1="544.752" x2="1555.94" y2="553.106">
		<stop class="stop0" offset="0" stop-opacity="1" stop-color="rgb(71,95,68)"/>
		<stop class="stop1" offset="1" stop-opacity="1" stop-color="rgb(88,130,80)"/>
	</linearGradient>
	<linearGradient id="Gradient4" gradientUnits="userSpaceOnUse" x1="1145.66" y1="791.3" x2="1217.71" y2="643.902">
		<stop class="stop0" offset="0" stop-opacity="1" stop-color="rgb(81,77,81)"/>
		<stop class="stop1" offset="1" stop-opacity="1" stop-color="rgb(125,120,125)"/>
	</linearGradient>
	<linearGradient id="Gradient5" gradientUnits="userSpaceOnUse" x1="892.5" y1="875.71" x2="946.583" y2="722.216">
		<stop class="stop0" offset="0" stop-opacity="1" stop-color="rgb(89,84,89)"/>
		<stop class="stop1" offset="1" stop-opacity="1" stop-color="rgb(124,119,124)"/>
	</linearGradient>
	<linearGradient id="Gradient6" gradientUnits="userSpaceOnUse" x1="1445.03" y1="781.268" x2="1442.18" y2="664.433">
		<stop class="stop0" offset="0" stop-opacity="1" stop-color="rgb(240,124,97)"/>
		<stop class="stop1" offset="1" stop-opacity="1" stop-color="rgb(240,236,130)"/>
	</linearGradient>
</defs>
<path transform="translate(0,0)" fill="rgb(56,50,55)" d="M 872.532 454.186 C 874.826 442.796 881.613 416.994 897.802 421.428 C 920.274 427.583 931.561 474.132 931.146 494.364 C 946.43 478.031 971.703 462.412 971.604 500.616 C 971.575 511.852 960.024 534.487 952.969 543.36 C 960.36 543.635 968.46 543.774 975.76 544.428 C 990.226 540.586 1014.39 540.875 1029.41 543.083 C 1077.61 545.869 1133.36 564.633 1175.99 586.908 C 1258.94 630.256 1317.36 704.163 1357.65 787.082 C 1369.63 780.71 1386.59 770.265 1395.8 760.206 C 1385.07 730.089 1395.92 705.478 1400.11 673.465 C 1400.32 663.311 1401.24 640.65 1398.9 631.649 C 1384.09 632.742 1369.64 640.915 1368.57 619.572 C 1359.68 599.16 1376.86 583.602 1387.44 569.928 L 1387.98 569.214 L 1388.72 567.699 L 1390.09 568.501 C 1390.17 575.434 1385.26 574.555 1386.98 577.687 C 1394.75 577.069 1399.31 573.485 1405.92 570.769 C 1414.07 569.842 1416.32 570.164 1424.02 571.359 L 1425.41 569.509 C 1427.86 569.488 1429.26 569.498 1431.7 569.142 L 1433.4 568.884 C 1438.72 571.671 1440.69 571.958 1443.99 576.902 C 1447.02 571.953 1443.24 565.899 1447.88 561.391 C 1449.46 559.863 1448.89 560.624 1449.86 558.55 C 1448.61 554.428 1447.96 552.985 1446.02 549.125 C 1445.93 544.578 1446.68 543.757 1448.71 539.477 C 1449.75 528.804 1456.81 522.604 1464.45 515.902 C 1482.17 514.109 1485.74 516.146 1497.73 528.485 C 1498.35 531.658 1498.4 535.131 1500.4 536.877 C 1501.91 533.906 1501.51 531.465 1501.47 528.089 C 1504.45 521.434 1505.71 520.675 1510.19 515.407 C 1521.81 511.608 1533 508.881 1546.07 509.518 C 1562.4 510.314 1588.31 510.394 1595.65 529.004 C 1603.49 548.863 1586.78 566.362 1592.77 585.562 C 1593.89 589.131 1585.54 609.046 1583.28 613.171 C 1575.51 627.23 1566.06 632.85 1552.36 639.544 C 1544.25 643.508 1536.01 654.677 1524.35 655.474 C 1519.68 656.603 1516.83 657.151 1511.78 657.829 C 1515.88 675.766 1517.55 693.126 1521.96 711.408 C 1549.51 715.093 1555.42 731.947 1560.16 756.622 C 1563.15 772.181 1562.36 786.511 1559.36 802.008 C 1546.22 872.062 1503 935.096 1444.15 974.872 C 1428.72 985.303 1414.51 993.504 1397.88 1002.02 C 1395.52 1018.74 1390.84 1052.06 1383.57 1067.32 C 1378.06 1078.88 1372.44 1091.46 1368.75 1103.85 C 1373.47 1110.62 1380.02 1120.23 1385.65 1126.14 C 1395.15 1106.4 1422.1 1027.56 1451.57 1065.51 L 1453.61 1077.26 C 1459.82 1076.01 1458.19 1071.53 1468.99 1073.27 C 1488.06 1076.35 1482.28 1095.87 1478.19 1108.8 C 1472.08 1126.33 1461.92 1143.48 1455.29 1161.13 C 1453.49 1166.51 1452.83 1168.59 1450.06 1173.65 C 1459.45 1173.6 1474.41 1173.24 1483.19 1175.09 C 1499.38 1176.97 1517.83 1174.79 1533.15 1176.59 C 1562.15 1180 1593.42 1176.99 1621.59 1181.21 C 1651.16 1179.2 1663.94 1215.83 1653.84 1238.65 C 1646.39 1255.45 1607.78 1251.86 1593.34 1257.59 C 1564.58 1269 1535.84 1279.56 1505.46 1287.35 C 1526.33 1311.19 1555.21 1354.13 1574.65 1380.33 L 1618.63 1439.32 C 1628.13 1452.02 1643.21 1470.37 1649.43 1484.18 C 1647.96 1496.3 1645.09 1506.6 1638.82 1517.14 C 1626.61 1522.74 1600.1 1531.12 1586.54 1528.47 C 1576.35 1526.48 1570.91 1521.33 1565.3 1513.31 C 1511.83 1524.11 1449.47 1540.29 1396.01 1553.18 L 1163.9 1608.11 L 1066.22 1631.18 C 1050.22 1634.89 1031.43 1640.1 1015.57 1642.49 C 1012.96 1655.61 1009.75 1664.33 1001.63 1674.87 C 980.787 1684.16 949.087 1692.21 933.735 1670.06 C 909.398 1634.93 886.394 1598.84 863.127 1562.97 L 792.29 1453.35 C 777.536 1430.24 764.223 1410.34 750.683 1386.36 C 724.287 1386.99 694.765 1389.5 668.244 1391.32 L 545.138 1399.71 C 523.117 1401.23 465.432 1408.12 447.85 1400.83 C 441.558 1394.09 438.008 1387.47 436.984 1378.28 C 432.539 1338.4 467.04 1337.75 494.029 1334.22 C 496.504 1323.97 498.954 1306.71 500.928 1295.64 L 515.967 1212.29 L 534.203 1114.77 C 536.544 1102.03 542.019 1075.16 542.973 1062.87 C 538.207 1054.36 529.673 1042.58 524.032 1034.2 C 514.672 1020.24 505.467 1006.18 496.42 992.018 L 404.645 851.507 C 381.061 816.111 356.979 779.827 334.253 745.017 C 316.529 717.505 324.572 683.007 361.842 680.766 C 377.573 679.819 381.461 675.173 399.449 680.494 C 405.981 687.687 410.351 695.444 415.485 703.651 C 444.157 698.625 476.283 695.081 505.347 691.381 L 661.133 671.792 C 682.207 669.116 712.101 666.387 732.872 661.789 C 741.909 656.534 752.72 642.155 760.122 635.864 C 781.92 617.339 804.792 601.822 829.846 588.217 C 837.546 584.035 855.218 575.925 860.069 570.442 C 857.864 567.992 840.488 560.6 835.834 557.86 C 819.965 548.513 796.563 529.435 820.124 512.979 L 821.118 512.296 C 838.823 509.894 847.656 512.597 863.794 519.324 C 868.164 521.146 871.412 522.764 876.111 522.736 L 876.972 521.596 C 876.387 518.18 875.739 514.774 875.027 511.381 C 868.488 492.601 868.763 473.458 872.532 454.186 z M 862.141 1388.9 C 869.242 1404.35 895.817 1444.02 905.669 1459.49 L 981.39 1579.55 C 983.685 1583.25 987.496 1590.61 990.873 1592.42 C 1003.79 1588.26 1018.61 1585.92 1032 1582.8 L 1116.59 1562.98 L 1418.29 1492.26 C 1436.15 1487.99 1517.23 1469.68 1527.36 1464 C 1527.19 1456.44 1504.39 1427.96 1498.84 1420.35 C 1483.86 1399.55 1468.7 1378.89 1453.33 1358.37 C 1445.7 1348.15 1426.13 1320.16 1418.75 1312.39 C 1417.48 1312.22 1416.73 1311.97 1415.55 1312.18 C 1323.86 1336.93 1231.38 1358.62 1138.25 1377.23 C 1076.9 1389.01 1014.41 1399.38 951.581 1399.55 C 922.508 1399.63 890.948 1392.88 862.141 1388.9 z M 639.379 1294.14 C 652.213 1290.46 670.404 1287.32 681.643 1281.86 C 679.046 1276.57 658.586 1246.16 654.835 1240.63 C 643.992 1224.61 610.498 1166.45 597.901 1156.82 C 591.001 1188.84 584.547 1220.96 578.541 1253.15 C 575.495 1269.05 570.101 1293.72 568.771 1308.89 C 580.62 1309.1 626.375 1297.46 639.379 1294.14 z"/>
<path transform="translate(0,0)" fill="rgb(106,68,55)" d="M 1387.98 569.214 L 1388.72 567.699 L 1390.09 568.501 C 1390.17 575.434 1385.26 574.555 1386.98 577.687 C 1394.75 577.069 1399.31 573.485 1405.92 570.769 L 1410.44 575.515 C 1404.81 576.558 1402.35 576.757 1397.03 579.23 C 1388.46 583.218 1388.3 590.408 1380.4 589.802 C 1378.62 593.784 1382.39 594.391 1379.93 596.324 C 1377.49 598.241 1375.87 600.495 1374.21 603.065 C 1375.31 598.596 1376.28 594.096 1377.12 589.573 L 1377.32 589.907 L 1376.14 588.114 C 1368.17 593.599 1370.76 611.935 1368.57 619.572 C 1359.68 599.16 1376.86 583.602 1387.44 569.928 L 1387.98 569.214 z"/>
<path transform="translate(0,0)" fill="rgb(108,101,109)" d="M 1483.19 1175.09 C 1499.38 1176.97 1517.83 1174.79 1533.15 1176.59 C 1562.15 1180 1593.42 1176.99 1621.59 1181.21 C 1616.18 1182.6 1469.48 1178.54 1459.2 1176.23 C 1466.95 1175.15 1475.34 1177.26 1483.19 1175.09 z"/>
<path transform="translate(0,0)" fill="rgb(177,171,177)" d="M 1448.71 539.477 C 1448.64 560.52 1448.44 550.879 1460.36 559.713 L 1458.86 559.951 C 1454.8 560.621 1453.06 560.526 1449.85 562.982 C 1442.5 573.866 1457.47 586.612 1457.67 594.595 C 1453.4 593.035 1448.06 582.456 1444.08 577.812 L 1443.99 576.902 C 1447.02 571.953 1443.24 565.899 1447.88 561.391 C 1449.46 559.863 1448.89 560.624 1449.86 558.55 C 1448.61 554.428 1447.96 552.985 1446.02 549.125 C 1445.93 544.578 1446.68 543.757 1448.71 539.477 z"/>
<path transform="translate(0,0)" fill="rgb(106,68,55)" d="M 1405.92 570.769 C 1414.07 569.842 1416.32 570.164 1424.02 571.359 C 1435.1 575.503 1434.53 575.619 1442.6 584.683 L 1442.34 585.417 C 1430.17 579.552 1424.02 574.34 1410.44 575.515 L 1405.92 570.769 z"/>
<path transform="translate(0,0)" fill="rgb(68,59,65)" d="M 872.532 454.186 C 874.788 458.006 871.714 485.74 873.505 492.067 C 873.924 493.546 875.302 509.785 875.027 511.381 C 868.488 492.601 868.763 473.458 872.532 454.186 z"/>
<path transform="translate(0,0)" fill="rgb(177,171,177)" d="M 975.76 544.428 C 990.226 540.586 1014.39 540.875 1029.41 543.083 C 1024.55 544.162 980.455 545.449 975.76 544.428 z"/>
<path transform="translate(0,0)" fill="rgb(177,171,177)" d="M 1459.2 1176.23 C 1454.33 1176.27 1451.63 1177.16 1448.5 1173.21 C 1448.42 1169.33 1452.12 1164.66 1454.32 1160.91 L 1455.29 1161.13 C 1453.49 1166.51 1452.83 1168.59 1450.06 1173.65 C 1459.45 1173.6 1474.41 1173.24 1483.19 1175.09 C 1475.34 1177.26 1466.95 1175.15 1459.2 1176.23 z"/>
<path transform="translate(0,0)" fill="rgb(68,59,65)" d="M 1398.9 631.649 L 1400.46 631.81 C 1403.6 639.485 1404.47 667.453 1400.11 673.465 C 1400.32 663.311 1401.24 640.65 1398.9 631.649 z"/>
<path transform="translate(0,0)" fill="rgb(158,204,191)" d="M 1274.94 758.271 C 1284.14 727.193 1285.29 712.356 1274.39 681.539 C 1310.56 723.272 1336.62 766.588 1356.53 817.418 C 1357.54 819.978 1361.29 823.157 1364.22 823.694 C 1372.43 818.688 1365.84 806.406 1362.85 800.559 C 1376.43 791.332 1391.42 782.283 1404.43 772.783 C 1418.68 789.057 1427.77 795.439 1449.28 800.95 C 1450.06 819.533 1450.61 838.124 1450.93 856.72 C 1439.45 859.283 1419.92 862.247 1412.07 871.738 C 1408.05 877.355 1411.85 882.977 1417.7 884.87 C 1444.41 893.501 1477.62 893.282 1504.25 884.496 C 1508.93 882.951 1517.71 876.712 1513.53 871.351 C 1506.28 862.063 1486.76 858.764 1475.86 855.976 C 1474.9 846.078 1475 838.161 1475.05 828.267 C 1481.44 834.983 1507.42 862.746 1516.46 852.765 C 1518.05 844.335 1502.84 837.875 1496.97 832.52 C 1471.06 808.865 1458.43 773.965 1490.18 748.022 C 1503.94 736.778 1518.47 735.384 1531 726.264 C 1539.24 731.199 1544.81 741.017 1546.67 750.22 C 1565.83 845.149 1477.73 948.651 1399.26 988.615 C 1400.02 970.418 1399.51 871.139 1380.33 865.308 C 1372.16 870.772 1378.82 886.235 1380.36 894.125 C 1383.61 910.566 1385.86 927.189 1387.1 943.903 C 1389.3 973.147 1387.09 1002.55 1380.56 1031.14 C 1374.51 1054.39 1370.36 1068.61 1359.67 1090.77 C 1312.12 1189.75 1233.4 1234.23 1131.43 1261.91 C 1130.24 1241.87 1128.32 1229.67 1124.64 1209.97 C 1121.32 1191.21 1115.94 1157.68 1101.16 1144.66 C 1092.08 1136.68 1083.77 1148.19 1080.31 1156.27 C 1075.23 1148.34 1067.74 1137.08 1057.91 1135.96 C 1035.35 1133.38 1037.74 1157.08 1039.57 1170.11 C 1003.27 1159.99 1016.93 1194.8 1026.07 1212.74 C 1020.75 1216.1 1019.72 1217.16 1015.88 1222.15 C 1001.17 1262.05 1031.28 1263.45 1060.74 1263.59 L 1068.83 1273.08 C 1036.84 1275.85 1004.68 1276.25 972.628 1274.3 C 894.254 1273.18 794.694 1239 734.266 1187.76 C 723.643 1178.76 700.003 1137.94 691.727 1124.82 C 677.336 1102.01 655.407 1073.25 646.956 1048.2 C 655.746 1053.1 675.306 1067.71 684.782 1063.64 C 686.672 1060.58 685.961 1062.28 685.813 1057.83 C 680.276 1051.7 647.696 1035.1 637.211 1028.35 C 618.716 1016.3 601.129 1002.91 584.589 988.291 C 554.989 961.848 515.532 915.978 513.208 874.903 L 513.1 873.818 C 507.045 807.268 602.844 762.851 655.209 742.795 C 661.266 740.475 676.132 734.332 682.071 733.781 L 682.718 735.147 L 680.782 738.831 C 663.509 772.277 649.174 810.954 645.456 848.582 C 638.098 843.686 627.723 833.937 620.532 833.072 C 618.097 833.827 617.394 833.873 615.29 835.25 C 615.595 837.617 615.832 839.956 617.092 842.04 C 620.338 847.405 635.853 857.514 641.366 861.77 C 651.419 869.53 721.685 923.392 728.699 922.76 C 730.378 922.609 731.281 921.577 732.596 920.629 C 735.995 910.261 709.158 895.874 701.282 890.488 C 690.119 883.09 679.346 874 668.021 866.225 L 685.035 858.894 L 765.313 822.606 C 785.534 813.442 807.068 804.177 826.594 793.855 C 826.255 838.615 845.867 868.181 884.327 889.391 C 889.588 891.401 896.53 894.258 901.74 895.867 C 915.822 898.586 930.955 899.117 945.032 896.109 C 970.41 890.72 992.592 875.434 1006.66 853.636 C 1023.74 826.937 1025.23 801.109 1018.54 771.038 C 1031.82 753.579 1049.29 742.791 1071.65 742.797 C 1077.66 742.799 1084.3 742.613 1090.07 744.315 C 1093.6 746.863 1096.66 756.081 1098.56 760.667 C 1088.94 759.752 1069.99 757.924 1062.32 763.711 C 1049.98 773.033 1027.7 810.31 1025.68 823.272 C 1022.54 843.38 1099.06 869.543 1114.25 854.423 C 1127.17 840.851 1129.63 814.841 1130.12 797.834 C 1145.28 807.181 1159.88 813.762 1177.86 815.59 C 1203.17 818.061 1228.43 810.473 1248.19 794.466 C 1260.66 784.302 1268.57 772.947 1274.94 758.271 z"/>
<path transform="translate(0,0)" fill="rgb(251,250,240)" d="M 928.338 1209.81 C 919.971 1189.86 915.02 1173.35 912.763 1151.62 C 906.986 1090.56 925.634 1029.71 964.624 982.371 C 1055.12 870.876 1239.36 825.885 1342.81 948.733 C 1357.72 966.44 1378.4 1007.94 1380.56 1031.14 C 1374.51 1054.39 1370.36 1068.61 1359.67 1090.77 C 1312.12 1189.75 1233.4 1234.23 1131.43 1261.91 C 1130.24 1241.87 1128.32 1229.67 1124.64 1209.97 C 1121.32 1191.21 1115.94 1157.68 1101.16 1144.66 C 1092.08 1136.68 1083.77 1148.19 1080.31 1156.27 C 1075.23 1148.34 1067.74 1137.08 1057.91 1135.96 C 1035.35 1133.38 1037.74 1157.08 1039.57 1170.11 C 1003.27 1159.99 1016.93 1194.8 1026.07 1212.74 C 1020.75 1216.1 1019.72 1217.16 1015.88 1222.15 C 1001.17 1262.05 1031.28 1263.45 1060.74 1263.59 L 1068.83 1273.08 C 1036.84 1275.85 1004.68 1276.25 972.628 1274.3 C 955.282 1256.77 937.629 1233.19 928.737 1210.12 L 928.338 1209.81 z"/>
<path transform="translate(0,0)" fill="rgb(255,255,255)" d="M 1124.64 1209.97 C 1131.61 1209.54 1145.51 1206.38 1152.84 1204.44 C 1211.24 1188.98 1266.35 1161.55 1314.98 1125.85 C 1327.18 1116.89 1348.45 1094.84 1359.67 1090.77 C 1312.12 1189.75 1233.4 1234.23 1131.43 1261.91 C 1130.24 1241.87 1128.32 1229.67 1124.64 1209.97 z"/>
<path transform="translate(0,0)" fill="rgb(255,255,255)" d="M 928.737 1210.12 C 950.356 1214.74 994.231 1223.06 1015.88 1222.15 C 1001.17 1262.05 1031.28 1263.45 1060.74 1263.59 L 1068.83 1273.08 C 1036.84 1275.85 1004.68 1276.25 972.628 1274.3 C 955.282 1256.77 937.629 1233.19 928.737 1210.12 z"/>
<path transform="translate(0,0)" fill="rgb(137,177,167)" d="M 513.208 874.903 L 514.594 874.994 C 515.386 869.01 513.69 867.059 515.198 858.865 C 522.286 869.608 528.346 881.434 535.547 892.294 C 574.986 951.771 634.903 995.479 693.532 1034.48 C 699.638 1038.54 722.108 1077.16 729.267 1086.29 C 780.816 1152.03 847.607 1191.41 928.338 1209.81 L 928.737 1210.12 C 937.629 1233.19 955.282 1256.77 972.628 1274.3 C 894.254 1273.18 794.694 1239 734.266 1187.76 C 723.643 1178.76 700.003 1137.94 691.727 1124.82 C 677.336 1102.01 655.407 1073.25 646.956 1048.2 C 655.746 1053.1 675.306 1067.71 684.782 1063.64 C 686.672 1060.58 685.961 1062.28 685.813 1057.83 C 680.276 1051.7 647.696 1035.1 637.211 1028.35 C 618.716 1016.3 601.129 1002.91 584.589 988.291 C 554.989 961.848 515.532 915.978 513.208 874.903 z"/>
<path transform="translate(0,0)" fill="rgb(240,203,191)" d="M 901.74 895.867 C 910.617 920.495 887.65 931.784 867.404 937.052 C 857.558 939.614 844.907 938.917 836.273 933.233 C 826.06 926.509 829.766 915.338 836.929 907.822 C 849.661 893.678 866.343 890.645 884.327 889.391 C 889.588 891.401 896.53 894.258 901.74 895.867 z"/>
<path transform="translate(0,0)" fill="rgb(137,177,167)" d="M 615.29 835.25 C 614.087 828.986 616.599 823.141 619.825 817.859 C 631.961 797.986 659.243 745.55 680.782 738.831 C 663.509 772.277 649.174 810.954 645.456 848.582 C 638.098 843.686 627.723 833.937 620.532 833.072 C 618.097 833.827 617.394 833.873 615.29 835.25 z"/>
<path transform="translate(0,0)" fill="rgb(240,203,191)" d="M 1274.94 758.271 C 1285.4 756.48 1296.14 754.847 1305.6 760.717 C 1314.11 765.999 1314.33 777.712 1308.34 784.836 C 1292.94 803.142 1267.47 810.028 1248.19 794.466 C 1260.66 784.302 1268.57 772.947 1274.94 758.271 z"/>
<path transform="translate(0,0)" fill="rgb(137,177,167)" d="M 685.035 858.894 C 688.272 870.672 694.835 876.261 701.196 886.127 C 701.917 887.246 701.54 889.211 701.282 890.488 C 690.119 883.09 679.346 874 668.021 866.225 L 685.035 858.894 z"/>
<path transform="translate(0,0)" fill="rgb(158,204,191)" d="M 682.09 764.163 C 746.271 616.097 926.061 522.209 1083.54 564.705 C 1104.13 569.745 1124.26 576.477 1143.75 584.833 C 1165.01 593.371 1198.37 612.042 1215.21 626.91 C 1188.28 619.357 1162.11 620.478 1137.21 634.263 C 1115.47 646.44 1099.41 666.704 1092.52 690.652 C 1089.22 702.403 1088.99 712.251 1089.05 724.358 C 1056.78 721.941 1031.34 725.046 1010.15 752.385 C 999.649 735.861 990.57 725.558 973.347 715.576 C 926.713 688.547 865.931 704.46 839.523 751.694 C 836.251 757.546 833.785 763.436 831.264 769.68 C 779.727 791.693 727.715 818.581 676.85 839.776 C 669.998 842.782 663.391 846.159 656.703 849.504 C 663.617 813.399 667.378 797.811 682.09 764.163 z"/>
<path transform="translate(0,0)" fill="rgb(255,255,255)" d="M 1083.54 564.705 C 1104.13 569.745 1124.26 576.477 1143.75 584.833 C 1139.99 611.972 1101.75 605.173 1082.59 601.51 C 1073 599.677 1045.34 588.186 1054.12 575.071 C 1059.27 567.39 1074.82 566.057 1083.54 564.705 z"/>
<path transform="translate(0,0)" fill="rgb(137,177,167)" d="M 682.09 764.163 C 682.777 778.687 667.749 827.906 676.85 839.776 C 669.998 842.782 663.391 846.159 656.703 849.504 C 663.617 813.399 667.378 797.811 682.09 764.163 z"/>
<path transform="translate(0,0)" fill="rgb(196,147,106)" d="M 610.507 1092.5 C 614.28 1094.98 944.316 1607.09 969.767 1649.94 C 968.683 1662.28 968.513 1666.02 959.982 1675.36 C 952.328 1675.11 949.601 1673.16 945.016 1666.98 C 932.195 1649.69 920.95 1631.33 909.156 1613.35 C 886.105 1578.79 863.489 1543.95 841.315 1508.82 L 693.417 1279.5 C 663.646 1233.4 632.162 1182.96 601.167 1138.22 C 603.69 1123.3 607.348 1107.39 610.507 1092.5 z"/>
<path transform="translate(0,0)" fill="rgb(56,50,55)" d="M 755.322 1340.03 C 771.414 1339.2 778.244 1357.01 766.658 1367.14 C 751.462 1367.3 744.408 1350.55 755.322 1340.03 z"/>
<path transform="translate(0,0)" fill="rgb(196,147,106)" d="M 757.735 1345.3 C 766.592 1347.38 767.622 1353.97 765.315 1361.51 C 757.248 1357.85 753.804 1354.14 757.735 1345.3 z"/>
<path transform="translate(0,0)" fill="rgb(223,180,133)" d="M 613.114 1082.91 L 614.71 1080.28 C 623.064 1078.4 659.027 1115.23 674.932 1118.66 C 680.668 1124.79 703.987 1163.17 708.836 1170.93 L 771.078 1268.99 L 925.593 1510.88 L 973 1586.09 C 983.237 1602.15 997.325 1622.95 1006.24 1639.24 C 997.064 1642.73 985.058 1645.04 975.304 1647.24 C 963.947 1627.5 947.267 1603.33 934.606 1583.59 L 850.258 1451.91 L 695.707 1210.97 C 668.661 1168.99 640.833 1124.13 613.114 1082.91 z"/>
<path transform="translate(0,0)" fill="rgb(223,180,133)" d="M 994.825 1601.73 C 1018.04 1595.87 1042.46 1590.83 1065.91 1585.27 L 1294.21 1531.85 L 1446.17 1496.06 C 1482.03 1487.51 1517.84 1478.69 1553.87 1470.85 C 1556.92 1470.19 1564.16 1468.64 1566.93 1469.72 C 1573.47 1472.26 1577.27 1479 1579.79 1485.08 C 1582.7 1495.74 1582.46 1498.82 1571.11 1501.49 C 1535.92 1509.79 1500.69 1517.82 1465.53 1526.3 L 1161.21 1598.78 L 1059.88 1623.06 C 1047.24 1626.13 1026.32 1630.25 1015.07 1634 L 1008.19 1622.17 L 994.825 1601.73 z"/>
<path transform="translate(0,0)" fill="rgb(196,147,106)" d="M 1579.79 1485.08 C 1582.7 1495.74 1582.46 1498.82 1571.11 1501.49 C 1535.92 1509.79 1500.69 1517.82 1465.53 1526.3 L 1161.21 1598.78 L 1059.88 1623.06 C 1047.24 1626.13 1026.32 1630.25 1015.07 1634 L 1008.19 1622.17 C 1014.26 1621.63 1029.12 1618.81 1035.58 1617.32 C 1075.33 1608.12 1115.13 1598.42 1154.81 1589 L 1370.48 1537.83 L 1502.93 1506.57 C 1525.06 1501.37 1547.44 1496.87 1569.34 1490.62 C 1573.93 1489.32 1577.44 1488.66 1579.79 1485.08 z"/>
<path transform="translate(0,0)" fill="rgb(255,255,255)" d="M 558.353 695.539 C 562.022 694.457 580.313 692.633 584.883 692.089 L 642.252 685.202 C 642.89 687.697 663.567 722.497 666.235 726.681 C 635.886 735.918 622.757 743.129 594.907 756.447 C 572.917 768.287 547.91 785.474 530.27 803.059 C 517.284 816.971 513.313 822.977 505.502 840.118 C 495.868 826.715 486.492 811.543 477.351 797.662 L 420.967 712.578 C 438.726 710.764 456.45 708.628 474.132 706.171 L 558.353 695.539 z"/>
<path transform="translate(0,0)" fill="rgb(234,186,117)" d="M 420.967 712.578 C 438.726 710.764 456.45 708.628 474.132 706.171 C 490.78 731.306 505.821 755.898 519.675 782.698 C 522.78 788.704 526.856 797.664 530.27 803.059 C 517.284 816.971 513.313 822.977 505.502 840.118 C 495.868 826.715 486.492 811.543 477.351 797.662 L 420.967 712.578 z"/>
<path transform="translate(0,0)" fill="rgb(234,186,117)" d="M 558.353 695.539 C 562.022 694.457 580.313 692.633 584.883 692.089 L 642.252 685.202 C 642.89 687.697 663.567 722.497 666.235 726.681 C 635.886 735.918 622.757 743.129 594.907 756.447 C 587.17 741.391 567.786 708.064 558.353 695.539 z"/>
<path transform="translate(0,0)" fill="rgb(237,223,139)" d="M 1476.15 617.019 C 1487.69 616.591 1498.49 614.361 1509.48 613.78 C 1507.43 619.715 1504.83 626.691 1503.13 632.626 C 1502.8 650.522 1502.53 659.25 1505.2 677.103 C 1506.85 688.122 1514.31 713.774 1513.43 722.725 C 1511.42 723.978 1511.55 723.854 1509.16 723.726 L 1506.45 724.402 C 1503.87 727.144 1491.52 732.494 1486.56 736.172 C 1465.73 751.658 1461.93 760.108 1457.64 784.331 L 1457.68 787.09 L 1458.1 788.244 C 1457.94 790.439 1458.15 792.407 1457.09 794.046 C 1444.69 790.78 1432.09 787.324 1422.29 778.577 C 1390.21 749.954 1403.78 715.406 1409.71 679.45 C 1411.89 666.211 1411.38 652.934 1410.21 639.94 C 1409.18 630.117 1406.93 623.948 1403.57 614.774 C 1410.27 615.905 1414.98 615.406 1421.5 617.808 C 1428.43 617.298 1432.02 615.886 1438.6 617.688 C 1449.01 618.35 1459.32 618.114 1469.75 618.016 L 1476.15 617.019 z"/>
<path transform="translate(0,0)" fill="url(#Gradient6)" d="M 1410.21 639.94 L 1415.76 640.571 C 1415.85 644.966 1415.79 654.988 1416.31 658.906 C 1416.55 662.248 1416.85 665.627 1416.94 668.97 L 1418.73 666.573 L 1420.24 666.399 L 1423.37 669.17 L 1424.73 668.684 L 1426.11 663.871 C 1426.62 670.656 1426.07 675.846 1427.52 682.386 L 1428.68 682.319 C 1430.06 678.621 1430.23 678.099 1430.91 674.229 C 1436.39 682.745 1462.39 680.421 1473.1 683.19 L 1473.97 682.151 C 1474.06 693.691 1476.93 724.88 1479.81 736.051 C 1482.42 737.013 1481.02 736.832 1484.25 735.576 L 1486.56 736.172 C 1465.73 751.658 1461.93 760.108 1457.64 784.331 L 1457.68 787.09 L 1458.1 788.244 C 1457.94 790.439 1458.15 792.407 1457.09 794.046 C 1444.69 790.78 1432.09 787.324 1422.29 778.577 C 1390.21 749.954 1403.78 715.406 1409.71 679.45 C 1411.89 666.211 1411.38 652.934 1410.21 639.94 z"/>
<path transform="translate(0,0)" fill="rgb(255,255,255)" d="M 1410.21 639.94 L 1415.76 640.571 C 1415.85 644.966 1415.79 654.988 1416.31 658.906 C 1416.55 662.248 1416.85 665.627 1416.94 668.97 L 1416.91 670.513 C 1416.23 703.5 1396.44 741.266 1424.04 770.834 C 1433.38 780.833 1444.75 783.065 1457.64 784.331 L 1457.68 787.09 L 1458.1 788.244 C 1457.94 790.439 1458.15 792.407 1457.09 794.046 C 1444.69 790.78 1432.09 787.324 1422.29 778.577 C 1390.21 749.954 1403.78 715.406 1409.71 679.45 C 1411.89 666.211 1411.38 652.934 1410.21 639.94 z"/>
<path transform="translate(0,0)" fill="rgb(106,68,55)" d="M 1416.31 658.906 C 1416.55 662.248 1416.85 665.627 1416.94 668.97 L 1416.91 670.513 C 1416.23 703.5 1396.44 741.266 1424.04 770.834 C 1433.38 780.833 1444.75 783.065 1457.64 784.331 L 1457.68 787.09 C 1445.55 786.78 1430.29 781.042 1422.04 772.259 C 1394.21 742.624 1415.38 699.006 1416.29 660.238 L 1416.31 658.906 z"/>
<path transform="translate(0,0)" fill="rgb(223,180,133)" d="M 1442.67 763.176 C 1446.9 762.796 1450.18 762.158 1453.46 764.696 C 1453.51 768.746 1453.38 767.607 1450.77 771.663 C 1446.77 771.941 1446.38 771.314 1443.3 769.072 C 1441.33 765.16 1441.42 767.069 1442.67 763.176 z"/>
<path transform="translate(0,0)" fill="rgb(240,203,191)" d="M 1429.04 740.824 C 1431.52 739.691 1434.45 740.764 1435.62 743.231 C 1436.78 745.698 1435.74 748.64 1433.29 749.83 C 1431.67 750.612 1429.76 750.467 1428.29 749.451 C 1426.81 748.434 1426 746.703 1426.15 744.917 C 1426.31 743.132 1427.41 741.569 1429.04 740.824 z"/>
<path transform="translate(0,0)" fill="rgb(244,230,184)" d="M 1440.34 703.71 C 1442 702.329 1444.43 702.436 1445.96 703.958 C 1447.49 705.479 1447.61 707.914 1446.23 709.574 C 1445.22 710.792 1443.61 711.335 1442.07 710.975 C 1440.53 710.615 1439.32 709.415 1438.96 707.876 C 1438.59 706.337 1439.13 704.724 1440.34 703.71 z"/>
<path transform="translate(0,0)" fill="rgb(234,186,117)" d="M 1476.15 617.019 C 1487.69 616.591 1498.49 614.361 1509.48 613.78 C 1507.43 619.715 1504.83 626.691 1503.13 632.626 C 1502.8 650.522 1502.53 659.25 1505.2 677.103 C 1506.85 688.122 1514.31 713.774 1513.43 722.725 C 1511.42 723.978 1511.55 723.854 1509.16 723.726 L 1506.45 724.402 C 1502.83 711.605 1500.28 691.34 1497.12 677.371 C 1496.28 670.439 1496.01 645.45 1493.37 642.278 C 1478.46 634.094 1449.76 638.407 1433.96 641.845 L 1434.16 640.192 L 1431.4 637.982 C 1424.73 638.506 1422.15 638.532 1415.76 640.571 L 1410.21 639.94 C 1409.18 630.117 1406.93 623.948 1403.57 614.774 C 1410.27 615.905 1414.98 615.406 1421.5 617.808 C 1428.43 617.298 1432.02 615.886 1438.6 617.688 C 1449.01 618.35 1459.32 618.114 1469.75 618.016 L 1476.15 617.019 z"/>
<path transform="translate(0,0)" fill="rgb(255,255,255)" d="M 1403.57 614.774 C 1410.27 615.905 1414.98 615.406 1421.5 617.808 C 1428.43 617.298 1432.02 615.886 1438.6 617.688 C 1449.01 618.35 1459.32 618.114 1469.75 618.016 L 1476.15 617.019 C 1472.92 619.962 1473.67 619.426 1473.71 624.314 C 1474.75 628.122 1475.44 629.469 1473.56 633.076 C 1470.14 634.651 1468.18 634.61 1464.47 634.998 C 1457.43 635.171 1447.53 635.094 1440.99 636.881 L 1439.79 639.309 C 1437.14 640.024 1436.91 640.049 1434.16 640.192 L 1431.4 637.982 C 1424.73 638.506 1422.15 638.532 1415.76 640.571 L 1410.21 639.94 C 1409.18 630.117 1406.93 623.948 1403.57 614.774 z"/>
<path transform="translate(0,0)" fill="rgb(255,255,255)" d="M 1403.57 614.774 C 1410.27 615.905 1414.98 615.406 1421.5 617.808 C 1424.62 624.619 1427.92 631.346 1431.4 637.982 C 1424.73 638.506 1422.15 638.532 1415.76 640.571 L 1410.21 639.94 C 1409.18 630.117 1406.93 623.948 1403.57 614.774 z"/>
<path transform="translate(0,0)" fill="rgb(68,59,65)" d="M 1421.5 617.808 C 1428.43 617.298 1432.02 615.886 1438.6 617.688 C 1434.56 617.814 1433.69 617.096 1431.12 619.077 C 1430.67 624.766 1437.22 632.24 1440.99 636.881 L 1439.79 639.309 C 1437.14 640.024 1436.91 640.049 1434.16 640.192 L 1431.4 637.982 C 1427.92 631.346 1424.62 624.619 1421.5 617.808 z"/>
<path transform="translate(0,0)" fill="rgb(137,177,167)" d="M 1469.75 618.016 L 1476.15 617.019 C 1472.92 619.962 1473.67 619.426 1473.71 624.314 C 1474.75 628.122 1475.44 629.469 1473.56 633.076 C 1470.51 627.451 1470.58 624.286 1469.75 618.016 z"/>
<path transform="translate(0,0)" fill="rgb(255,255,255)" d="M 1476.15 617.019 C 1487.69 616.591 1498.49 614.361 1509.48 613.78 C 1507.43 619.715 1504.83 626.691 1503.13 632.626 C 1501.84 636.079 1501.42 638.226 1498.71 640.705 C 1495.89 639.638 1493.09 638.54 1490.3 637.409 C 1492.06 624.729 1483.87 631.663 1473.71 624.314 C 1473.67 619.426 1472.92 619.962 1476.15 617.019 z"/>
<path transform="translate(0,0)" fill="rgb(255,255,255)" d="M 1498.71 640.705 C 1501.42 638.226 1501.84 636.079 1503.13 632.626 C 1502.8 650.522 1502.53 659.25 1505.2 677.103 C 1506.85 688.122 1514.31 713.774 1513.43 722.725 C 1511.42 723.978 1511.55 723.854 1509.16 723.726 C 1503.62 695.314 1497.34 669.95 1498.71 640.705 z"/>
<path transform="translate(0,0)" fill="rgb(255,255,255)" d="M 1473.71 624.314 C 1483.87 631.663 1492.06 624.729 1490.3 637.409 C 1477.34 633.285 1477.88 635.126 1464.47 634.998 C 1468.18 634.61 1470.14 634.651 1473.56 633.076 C 1475.44 629.469 1474.75 628.122 1473.71 624.314 z"/>
<path transform="translate(0,0)" fill="rgb(244,230,184)" d="M 1473.97 682.151 C 1473.77 674.735 1471.84 660.129 1476.08 654.937 C 1479.07 653.785 1479.51 654.05 1482.68 654.234 C 1486.61 657.867 1486.22 676.649 1487.41 683.084 C 1490.5 676.024 1491.22 681.084 1497.12 677.371 C 1500.28 691.34 1502.83 711.605 1506.45 724.402 C 1503.87 727.144 1491.52 732.494 1486.56 736.172 L 1484.25 735.576 C 1481.02 736.832 1482.42 737.013 1479.81 736.051 C 1476.93 724.88 1474.06 693.691 1473.97 682.151 z"/>
<path transform="translate(0,0)" fill="rgb(241,205,144)" d="M 1497.12 677.371 C 1500.28 691.34 1502.83 711.605 1506.45 724.402 C 1503.87 727.144 1491.52 732.494 1486.56 736.172 L 1484.25 735.576 C 1485.83 733.413 1492.7 729.971 1492.97 728.387 C 1495.12 715.765 1489.68 695.544 1487.41 683.084 C 1490.5 676.024 1491.22 681.084 1497.12 677.371 z"/>
<path transform="translate(0,0)" fill="rgb(255,255,255)" d="M 1433.96 641.845 C 1449.76 638.407 1478.46 634.094 1493.37 642.278 L 1492.55 644.713 C 1483.45 650.367 1470.15 649.263 1459.62 649.26 C 1445.26 649.257 1431.18 650.148 1418.67 642.169 L 1433.96 641.845 z"/>
<path transform="translate(0,0)" fill="rgb(244,230,184)" d="M 1426.11 663.871 C 1425.94 660.04 1424.62 652.45 1425.68 649.883 C 1428.39 649.909 1428.41 650.564 1431.12 652.284 C 1432.43 655.497 1430.55 668.572 1430.91 674.229 C 1430.23 678.099 1430.06 678.621 1428.68 682.319 L 1427.52 682.386 C 1426.07 675.846 1426.62 670.656 1426.11 663.871 z"/>
<path transform="translate(0,0)" fill="rgb(196,147,106)" d="M 348.491 693.469 C 354.535 696.14 378.352 735.231 383.933 743.742 L 434.778 820.552 L 568.833 1025.51 C 556.768 1027.43 551.92 1027.25 548.398 1040 C 548.21 1042.91 548.438 1044.93 546.761 1047.25 L 544.99 1046.37 L 413.385 844.608 C 389.811 809.156 365.181 772.579 342.403 736.532 C 333.573 722.558 333.057 703.654 348.491 693.469 z"/>
<path transform="translate(0,0)" fill="url(#Gradient5)" d="M 910.167 716.394 C 916.949 716.07 924.911 716.196 931.791 716.139 C 925.144 740.871 912.364 777.608 909.317 801.528 C 914.662 803.793 925.408 809.633 930.415 809.551 L 932.137 811.301 C 938.494 801.135 957.533 739.025 961.013 724.93 C 968.143 728.95 972.16 731.239 978.611 736.147 C 971.325 756.552 966.919 778.155 959.682 799.259 C 952.058 820.282 940.808 865.277 932.042 883.562 C 929.783 883.641 927.522 883.66 925.263 883.621 C 898.768 883.068 881.891 874.893 863.948 856.106 C 870.66 825.263 884.46 792.162 892.943 761.445 C 896.931 747.001 900.747 732.209 905.607 718.113 C 905.994 716.99 908.954 716.687 910.167 716.394 z"/>
<path transform="translate(0,0)" fill="url(#Gradient4)" d="M 1168.76 636.364 C 1175.9 636.036 1183.38 636.142 1190.55 636.136 L 1190.3 637.004 C 1183.79 659.136 1176.22 684.397 1173.95 707.228 C 1173.69 709.903 1193.65 714.152 1196.56 722.019 C 1199.1 720.002 1218.19 651.925 1220.22 643.638 C 1228.2 647.374 1231.54 649.588 1238.02 655.243 C 1232.41 679.146 1224.56 704.319 1218.05 728.24 C 1215.14 738.545 1199.32 796.342 1193.48 800.942 C 1177.97 804.177 1155.55 795.993 1141.37 790.919 C 1147.21 774.664 1142.64 774.944 1129.05 768.291 C 1138.12 734.98 1155.98 674.289 1166.54 638.311 C 1167.28 637.662 1168.02 637.013 1168.76 636.364 z"/>
<path transform="translate(0,0)" fill="rgb(196,147,106)" d="M 1009.66 1312.42 C 1012.81 1312.08 1018.36 1312.16 1021.71 1312.09 C 1030.74 1322.04 1039.98 1341.57 1030.84 1354.7 C 1029.08 1357.23 1026.35 1357.82 1023.29 1358.15 C 1004.86 1360.15 986.18 1360.59 967.654 1361.68 L 846.979 1369.26 C 837.571 1355.69 826.999 1338.26 818.014 1324.2 C 832.563 1324.08 853.056 1321.97 868.097 1321.13 L 1009.66 1312.42 z"/>
<path transform="translate(0,0)" fill="rgb(234,186,117)" d="M 1300.31 1191.87 C 1326.64 1195.92 1353.43 1196.56 1379.49 1199.15 C 1380.41 1203.37 1380.61 1205.1 1382.45 1208.93 C 1386.06 1214.61 1387.2 1216.14 1392.96 1219.73 C 1398.5 1221.33 1400.01 1221.28 1405.84 1221.41 C 1409.9 1225.37 1443.12 1227.94 1452.21 1229.51 C 1425.27 1235.37 1397.81 1239.43 1370.85 1245.33 C 1366.81 1246.22 1360.25 1247.69 1356.15 1247.91 C 1338.47 1252.11 1319.62 1255.39 1301.72 1258.9 C 1289.35 1261.32 1272.57 1265.19 1260.22 1266.23 C 1248.31 1263.18 1233.48 1263.51 1218.9 1259.93 L 1215.25 1260.05 C 1206.85 1258.57 1197.87 1258.94 1189.8 1256.31 C 1207.14 1249.28 1221.08 1243.1 1237.8 1234.73 C 1252.58 1225.23 1264.22 1219.12 1279.13 1208.48 C 1286.06 1202.77 1293.12 1197.23 1300.31 1191.87 z"/>
<path transform="translate(0,0)" fill="rgb(255,255,255)" d="M 1237.8 1234.73 C 1244.91 1235.12 1265.74 1236.01 1271.48 1237.91 L 1272.34 1237.54 C 1284.31 1238.43 1350.31 1244.08 1356.15 1247.91 C 1338.47 1252.11 1319.62 1255.39 1301.72 1258.9 C 1289.35 1261.32 1272.57 1265.19 1260.22 1266.23 C 1248.31 1263.18 1233.48 1263.51 1218.9 1259.93 L 1215.25 1260.05 C 1206.85 1258.57 1197.87 1258.94 1189.8 1256.31 C 1207.14 1249.28 1221.08 1243.1 1237.8 1234.73 z"/>
<path transform="translate(0,0)" fill="rgb(255,255,255)" d="M 1237.8 1234.73 C 1244.91 1235.12 1265.74 1236.01 1271.48 1237.91 C 1260.97 1246.89 1225.25 1255.18 1218.9 1259.93 L 1215.25 1260.05 C 1206.85 1258.57 1197.87 1258.94 1189.8 1256.31 C 1207.14 1249.28 1221.08 1243.1 1237.8 1234.73 z"/>
<path transform="translate(0,0)" fill="rgb(255,255,255)" d="M 1300.31 1191.87 C 1326.64 1195.92 1353.43 1196.56 1379.49 1199.15 C 1380.41 1203.37 1380.61 1205.1 1382.45 1208.93 C 1372.23 1209.97 1349.14 1209.18 1341.55 1214.97 L 1333.24 1214.31 C 1316.35 1212.29 1295.56 1211.67 1279.13 1208.48 C 1286.06 1202.77 1293.12 1197.23 1300.31 1191.87 z"/>
<path transform="translate(0,0)" fill="rgb(196,147,106)" d="M 1237.8 1234.73 C 1252.58 1225.23 1264.22 1219.12 1279.13 1208.48 C 1295.56 1211.67 1316.35 1212.29 1333.24 1214.31 L 1334.08 1215.59 C 1331.3 1217.87 1327.31 1218.37 1323.52 1219.47 C 1312.21 1222.83 1301.03 1226.61 1290.01 1230.8 C 1286.74 1232.03 1274.47 1237.21 1272.34 1237.54 L 1271.48 1237.91 C 1265.74 1236.01 1244.91 1235.12 1237.8 1234.73 z"/>
<path transform="translate(0,0)" fill="rgb(255,255,255)" d="M 1382.45 1208.93 C 1386.06 1214.61 1387.2 1216.14 1392.96 1219.73 C 1386.71 1220.45 1348.75 1216.28 1341.55 1214.97 C 1349.14 1209.18 1372.23 1209.97 1382.45 1208.93 z"/>
<path transform="translate(0,0)" fill="rgb(196,147,106)" d="M 559.841 1039.95 C 567.386 1043.66 576.542 1051.41 582.095 1057.78 C 581.009 1073.88 575.543 1097.16 572.168 1113.52 L 556.995 1190.16 L 533.911 1310.14 C 530.445 1328.15 525.277 1359.63 520.421 1376.52 C 518.613 1377.77 516.738 1378.5 514.492 1377.48 C 502.539 1372.08 500.084 1359.76 501.936 1347.77 C 504.853 1328.89 508.706 1310.04 512.194 1291.21 L 532.225 1182.51 L 548.097 1095.86 C 550.281 1083.64 555.462 1050.29 559.841 1039.95 z"/>
<path transform="translate(0,0)" fill="rgb(56,50,55)" d="M 566.312 1053.7 C 578.891 1058.41 580.798 1073.87 567.922 1080.61 C 554.015 1076.5 553.611 1061.25 566.312 1053.7 z"/>
<path transform="translate(0,0)" fill="rgb(196,147,106)" d="M 564.793 1061.13 C 567.486 1061.73 567.296 1061.81 569.314 1063.77 C 570.828 1067.35 569.962 1069.9 569.365 1073.81 C 565.034 1072.43 566.734 1073.65 564.034 1070.07 C 563.3 1066.05 563.774 1065.24 564.793 1061.13 z"/>
<path transform="translate(0,0)" fill="rgb(196,147,106)" d="M 715.002 1332.06 C 722.859 1342.38 736.334 1364.2 743.259 1375.81 C 676.807 1379.73 608.567 1385.85 542.23 1389.07 C 535.726 1388.1 532.872 1390.05 527.949 1387.06 C 558.279 1379.55 555.556 1370.72 561.098 1342.81 C 608.568 1339.68 668.849 1337.26 715.002 1332.06 z"/>
<path transform="translate(0,0)" fill="rgb(223,180,133)" d="M 357.27 692.492 C 365.857 691.41 386.059 685.999 393.253 691.23 C 400.393 696.421 491.38 835.878 501.701 853.537 C 499.982 868.733 500.537 882.393 504.655 897.254 L 503.779 899.168 L 502.749 897.097 C 497.483 894.414 498.101 895.304 491.833 895.675 C 460.935 848.314 429.773 801.127 398.349 754.114 C 385.177 734.338 370.929 711.545 357.27 692.492 z"/>
<path transform="translate(0,0)" fill="rgb(241,205,144)" d="M 1030.47 1195.76 C 1028.62 1191.08 1025.45 1184.99 1027.25 1180.34 C 1037.1 1172.54 1051.38 1207.15 1061.49 1202.88 C 1066.26 1195.15 1059.2 1188.37 1055.78 1181.02 C 1052.19 1173.31 1046.2 1154.55 1050.6 1146.71 C 1069.19 1136.12 1076.55 1194.68 1090.86 1189.19 C 1094.7 1182.76 1086.56 1160.26 1093.87 1154.1 C 1100.68 1155.01 1102.41 1163.7 1104.1 1169.54 C 1109.53 1188.23 1113.53 1208.45 1116.59 1227.62 C 1119.73 1242.42 1127.72 1292.87 1099.72 1281.6 C 1076.13 1272.11 1040.03 1217.77 1030.47 1195.76 z"/>
<path transform="translate(0,0)" fill="rgb(223,180,133)" d="M 1030.47 1195.76 C 1051.28 1202.05 1071.27 1258.7 1101.34 1242.07 C 1107.74 1238.53 1112.06 1233.18 1116.59 1227.62 C 1119.73 1242.42 1127.72 1292.87 1099.72 1281.6 C 1076.13 1272.11 1040.03 1217.77 1030.47 1195.76 z"/>
<path transform="translate(0,0)" fill="rgb(223,180,133)" d="M 1493.7 1291.1 C 1493.96 1291.1 1494.24 1291.02 1494.49 1291.1 C 1497.58 1292.11 1630.02 1472.51 1639.62 1486.97 C 1631.15 1489.98 1622.17 1491.82 1613.4 1493.84 L 1611.91 1494.13 C 1611.09 1493.82 1610.27 1493.52 1609.45 1493.21 C 1572.62 1445.67 1499.72 1341.41 1467.5 1298.2 C 1475.99 1296.16 1485.21 1293.42 1493.7 1291.1 z"/>
<path transform="translate(0,0)" fill="rgb(255,255,255)" d="M 745.945 1211.56 C 760.449 1219.71 776.152 1230.51 791.832 1239.39 C 817.32 1251.24 874.628 1275.42 902.642 1277.6 C 917.472 1291.92 955.296 1291.41 958.547 1297.03 L 958.064 1297.79 C 933.628 1299.3 904.104 1302.59 880.4 1303.16 C 864.47 1305.68 826.893 1306.72 808.134 1307.98 C 786.926 1276.71 766.823 1243.32 745.945 1211.56 z"/>
<path transform="translate(0,0)" fill="rgb(196,147,106)" d="M 745.945 1211.56 C 760.449 1219.71 776.152 1230.51 791.832 1239.39 C 791.413 1242.39 792.318 1243.44 794.66 1246.06 C 804.938 1257.56 818.517 1279.06 830.841 1287.61 C 840.088 1294.04 861.661 1298.55 872.566 1302.77 C 873.706 1303.21 878.741 1303.1 880.4 1303.16 C 864.47 1305.68 826.893 1306.72 808.134 1307.98 C 786.926 1276.71 766.823 1243.32 745.945 1211.56 z"/>
<path transform="translate(0,0)" fill="rgb(241,205,144)" d="M 1405.61 1115.53 C 1409.62 1104.72 1423.8 1067.24 1438.19 1067.53 C 1449.64 1076.33 1428.83 1109.96 1437.63 1119.17 C 1449.81 1119.66 1447.25 1092.71 1466.99 1084.39 C 1474.44 1085.28 1470.47 1097.44 1468.73 1102.36 C 1458.98 1129.88 1444.63 1155.55 1431.18 1181.38 C 1427.73 1187.71 1419.42 1202.85 1413.64 1206.6 C 1391.81 1220.75 1389.28 1195.26 1390.89 1179.68 C 1393.21 1157.34 1399.32 1136.96 1405.61 1115.53 z"/>
<path transform="translate(0,0)" fill="rgb(223,180,133)" d="M 1431.18 1181.38 C 1427.73 1187.71 1419.42 1202.85 1413.64 1206.6 C 1391.81 1220.75 1389.28 1195.26 1390.89 1179.68 C 1393.21 1157.34 1399.32 1136.96 1405.61 1115.53 C 1407 1122.95 1410.42 1120.29 1410.43 1131.64 C 1410.45 1149.07 1401.8 1187 1431.18 1181.38 z"/>
<path transform="translate(0,0)" fill="rgb(196,147,106)" d="M 605.088 1057.36 L 606.099 1057.69 C 607.404 1061.79 596.99 1105.41 595.494 1113.13 C 585.167 1168.85 574.353 1224.49 563.053 1280.03 L 551.606 1337.6 C 549.629 1347.37 546.964 1362.91 543.504 1371.75 C 538.434 1373.99 534.561 1374.77 529.223 1376.11 L 527.526 1375.62 C 526.864 1371.16 536.143 1328.08 537.636 1320.14 L 587.934 1060.56 C 593.618 1059.32 599.339 1058.25 605.088 1057.36 z"/>
<path transform="translate(0,0)" fill="rgb(196,147,106)" d="M 1460.57 1300.44 C 1497.8 1354.25 1540.65 1409.06 1578.99 1462.82 L 1575.8 1464.33 C 1564.51 1457.43 1556.27 1459.16 1544.35 1463.1 C 1505.77 1412.44 1468.07 1359.15 1429.78 1307.82 C 1440.1 1305.62 1450.37 1303.16 1460.57 1300.44 z"/>
<path transform="translate(0,0)" fill="rgb(122,171,96)" d="M 1530.35 520.272 C 1529.91 526.451 1527.69 541.852 1537.07 542.285 C 1548.89 535.83 1544.57 517.896 1558.89 519.144 C 1568.13 519.949 1576.29 523.094 1584.26 527.583 L 1586.34 529.124 C 1596.8 584.069 1559.19 562.267 1548.67 573.156 C 1548.23 576.72 1547.83 575.163 1549.73 578.03 C 1560.29 583.675 1577.75 578.637 1582.49 581.096 C 1583.04 585.439 1582.47 588.169 1581.92 592.507 L 1580.84 594.949 C 1574.41 608.195 1573.02 618.076 1556.34 615.352 C 1555.42 605.164 1555.43 601.384 1550.4 592.202 C 1548.53 591.102 1548.65 590.054 1547.59 587.541 C 1542.75 578.64 1535.59 575.1 1526.93 570.957 C 1523.04 570.139 1518.69 568.936 1514.79 567.958 C 1518.44 568.045 1520.7 568.501 1523.86 566.729 C 1520.19 565.934 1519.2 565.971 1516.22 563.602 C 1512.54 556.955 1518.8 552.114 1511.48 545.496 C 1514.09 527.116 1510.49 523.895 1530.35 520.272 z"/>
<path transform="translate(0,0)" fill="rgb(133,182,102)" d="M 1530.35 520.272 C 1529.91 526.451 1527.69 541.852 1537.07 542.285 C 1548.89 535.83 1544.57 517.896 1558.89 519.144 C 1568.13 519.949 1576.29 523.094 1584.26 527.583 C 1566.14 536.597 1538.71 553.312 1523.86 566.729 C 1520.19 565.934 1519.2 565.971 1516.22 563.602 C 1512.54 556.955 1518.8 552.114 1511.48 545.496 C 1514.09 527.116 1510.49 523.895 1530.35 520.272 z"/>
<path transform="translate(0,0)" fill="rgb(122,171,96)" d="M 1550.4 592.202 C 1560.51 594.691 1570.45 595.054 1580.84 594.949 C 1574.41 608.195 1573.02 618.076 1556.34 615.352 C 1555.42 605.164 1555.43 601.384 1550.4 592.202 z"/>
<path transform="translate(0,0)" fill="url(#Gradient3)" d="M 1584.26 527.583 L 1586.34 529.124 C 1563.54 543.225 1547.83 555.786 1526.93 570.957 C 1523.04 570.139 1518.69 568.936 1514.79 567.958 C 1518.44 568.045 1520.7 568.501 1523.86 566.729 C 1538.71 553.312 1566.14 536.597 1584.26 527.583 z"/>
<path transform="translate(0,0)" fill="rgb(63,90,60)" d="M 1547.59 587.541 C 1558.48 590.639 1570.57 591.339 1581.92 592.507 L 1580.84 594.949 C 1570.45 595.054 1560.51 594.691 1550.4 592.202 C 1548.53 591.102 1548.65 590.054 1547.59 587.541 z"/>
<path transform="translate(0,0)" fill="rgb(196,147,106)" d="M 491.833 895.675 C 498.101 895.304 497.483 894.414 502.749 897.097 L 503.779 899.168 L 504.655 897.254 C 525.418 958.585 570.558 993.469 618.721 1031.51 C 621.44 1033.66 671.033 1111.17 674.932 1118.66 C 659.027 1115.23 623.064 1078.4 614.71 1080.28 L 613.114 1082.91 C 612.38 1080.53 617.609 1056.03 618.096 1048.4 C 608.479 1030.7 596.443 1020.74 575.681 1024.15 C 565.3 1009.19 555.71 993.372 545.741 978.087 L 491.833 895.675 z"/>
<path transform="translate(0,0)" fill="rgb(255,255,255)" d="M 1375.24 1251.3 C 1382.41 1254.2 1386.18 1265.68 1386.53 1272.88 C 1385.74 1275.7 1384.15 1280.73 1383.62 1283.41 L 1290.11 1302.17 L 1288.68 1301.63 L 1289.37 1291.69 C 1285.96 1277.34 1282.67 1279.21 1279.2 1270.42 C 1309.75 1263.57 1344.46 1256.84 1375.24 1251.3 z"/>
<path transform="translate(0,0)" fill="rgb(255,255,255)" d="M 1289.37 1291.69 C 1317.38 1286.01 1359.15 1275.18 1386.53 1272.88 C 1385.74 1275.7 1384.15 1280.73 1383.62 1283.41 L 1290.11 1302.17 L 1288.68 1301.63 L 1289.37 1291.69 z"/>
<path transform="translate(0,0)" fill="rgb(255,255,255)" d="M 1097.99 1305.12 C 1129.34 1298.96 1159.31 1292.75 1190.87 1287.52 C 1197.04 1296.82 1198.99 1299.4 1201.54 1310.32 C 1200.83 1313.32 1199.94 1317.86 1198.73 1320.51 L 1108.84 1338.67 C 1108.01 1336.11 1108.68 1329.96 1108.87 1327.03 L 1108.79 1326.3 C 1105.62 1312.45 1101.32 1313.35 1097.99 1305.12 z"/>
<path transform="translate(0,0)" fill="rgb(255,255,255)" d="M 1108.79 1326.3 C 1118.3 1325.4 1134.79 1321.71 1144.98 1319.77 C 1163.74 1316.07 1182.6 1312.92 1201.54 1310.32 C 1200.83 1313.32 1199.94 1317.86 1198.73 1320.51 L 1108.84 1338.67 C 1108.01 1336.11 1108.68 1329.96 1108.87 1327.03 L 1108.79 1326.3 z"/>
<path transform="translate(0,0)" fill="rgb(234,186,117)" d="M 1190.87 1287.52 C 1220.36 1281.98 1249.56 1275.84 1279.2 1270.42 C 1282.67 1279.21 1285.96 1277.34 1289.37 1291.69 L 1288.68 1301.63 L 1290.11 1302.17 C 1275.46 1305.69 1259.51 1308.29 1244.65 1311.36 C 1229.48 1314.49 1213.95 1318.07 1198.73 1320.51 C 1199.94 1317.86 1200.83 1313.32 1201.54 1310.32 C 1198.99 1299.4 1197.04 1296.82 1190.87 1287.52 z"/>
<path transform="translate(0,0)" fill="rgb(196,147,106)" d="M 1201.54 1310.32 C 1215.56 1305.71 1272.31 1294.48 1286.26 1293.72 L 1287.71 1295.05 C 1287.82 1297.67 1287.85 1299.09 1288.68 1301.63 L 1290.11 1302.17 C 1275.46 1305.69 1259.51 1308.29 1244.65 1311.36 C 1229.48 1314.49 1213.95 1318.07 1198.73 1320.51 C 1199.94 1317.86 1200.83 1313.32 1201.54 1310.32 z"/>
<path transform="translate(0,0)" fill="rgb(196,147,106)" d="M 1471.91 608.09 C 1478.1 583.244 1503.77 564.986 1527.43 579.296 C 1534.82 583.349 1540.73 589.648 1544.3 597.282 C 1554.43 619.24 1543.68 639.66 1522.35 648.999 C 1519.32 650.325 1517.66 650.451 1514.43 650.383 C 1513.2 649.76 1511.85 649.438 1511.62 648.391 C 1510.24 642.059 1514.9 619.721 1516.72 614.092 C 1517.24 612.994 1518.15 610.277 1518.61 609.003 L 1515.67 601.802 L 1508.3 603.531 L 1503.24 604.329 C 1501.07 604.777 1497.28 605.706 1495.22 605.801 L 1491.05 606.054 C 1486.99 607.068 1476.63 607.699 1471.91 608.09 z"/>
<path transform="translate(0,0)" fill="rgb(223,180,133)" d="M 1542.16 604.434 L 1543.6 602.446 C 1543.39 599.721 1543.14 599.682 1544.3 597.282 C 1554.43 619.24 1543.68 639.66 1522.35 648.999 C 1519.32 650.325 1517.66 650.451 1514.43 650.383 C 1513.2 649.76 1511.85 649.438 1511.62 648.391 C 1510.24 642.059 1514.9 619.721 1516.72 614.092 L 1518.35 614.98 C 1524.75 614.489 1531.98 614.246 1538.1 612.584 L 1540.49 611.798 C 1542.83 609.148 1542 609.064 1542.16 604.434 z"/>
<path transform="translate(0,0)" fill="rgb(244,230,184)" d="M 1538.1 612.584 C 1542.1 623.578 1534.25 631.964 1525.38 637.185 C 1520.28 629.161 1516.77 624.822 1518.35 614.98 C 1524.75 614.489 1531.98 614.246 1538.1 612.584 z"/>
<path transform="translate(0,0)" fill="rgb(241,205,144)" d="M 1521.49 586.564 C 1530.33 589.105 1532.95 594.641 1537.47 602.487 L 1538.62 602.397 C 1539.06 604.786 1539.47 607.179 1539.85 609.576 C 1540.95 608.784 1541.82 605.758 1542.16 604.434 C 1542 609.064 1542.83 609.148 1540.49 611.798 L 1538.1 612.584 C 1531.98 614.246 1524.75 614.489 1518.35 614.98 L 1516.72 614.092 C 1517.24 612.994 1518.15 610.277 1518.61 609.003 L 1515.67 601.802 C 1516 599.337 1520.3 589.403 1521.49 586.564 z"/>
<path transform="translate(0,0)" fill="rgb(231,158,76)" d="M 1537.47 602.487 L 1538.62 602.397 C 1539.06 604.786 1539.47 607.179 1539.85 609.576 C 1540.95 608.784 1541.82 605.758 1542.16 604.434 C 1542 609.064 1542.83 609.148 1540.49 611.798 L 1538.1 612.584 C 1531.98 614.246 1524.75 614.489 1518.35 614.98 L 1516.72 614.092 C 1517.24 612.994 1518.15 610.277 1518.61 609.003 C 1522.27 612.096 1533.92 609.443 1537.51 606.371 L 1537.47 602.487 z"/>
<path transform="translate(0,0)" fill="rgb(244,230,184)" d="M 1510.75 582.918 L 1515.92 584.827 L 1521.49 586.564 C 1520.3 589.403 1516 599.337 1515.67 601.802 L 1508.3 603.531 L 1503.24 604.329 C 1496.93 601.481 1491.99 599.851 1488.15 593.962 L 1489.56 592.697 C 1495.17 587.616 1497.07 585.881 1504.6 584.268 L 1510.75 582.918 z"/>
<path transform="translate(0,0)" fill="rgb(231,158,76)" d="M 1515.92 584.827 L 1521.49 586.564 C 1520.3 589.403 1516 599.337 1515.67 601.802 L 1508.3 603.531 C 1512.41 598.539 1514.07 591.068 1515.92 584.827 z"/>
<path transform="translate(0,0)" fill="rgb(223,180,133)" d="M 1482.66 597 C 1486.39 598.683 1492.91 602.409 1495.22 605.801 L 1491.05 606.054 C 1487.7 606.162 1485.61 606.565 1482.59 605.114 C 1481.16 602.37 1482.06 600.172 1482.66 597 z"/>
<path transform="translate(0,0)" fill="rgb(241,205,144)" d="M 893.286 530.412 C 884.646 508.102 880.512 484.348 883.289 460.407 C 884.81 447.295 892.66 421.66 906.505 444.223 C 919.486 465.378 918.46 493.045 914.147 516.636 C 912.371 526.647 907.894 544.615 903.349 553.582 C 898.445 545.414 896.352 539.432 893.286 530.412 z"/>
<path transform="translate(0,0)" fill="rgb(223,180,133)" d="M 893.286 530.412 C 901.666 531.873 909.122 522.546 914.147 516.636 C 912.371 526.647 907.894 544.615 903.349 553.582 C 898.445 545.414 896.352 539.432 893.286 530.412 z"/>
<path transform="translate(0,0)" fill="rgb(234,186,117)" d="M 1375.24 1251.3 C 1381.44 1249.39 1394.75 1247.6 1401.55 1246.21 C 1421.82 1242.06 1443.94 1238.97 1463.93 1233.71 C 1467.25 1240.58 1470.21 1247.36 1469.83 1255.18 L 1468.43 1258.65 L 1467.53 1266.67 C 1442.71 1272.15 1408.9 1278.76 1383.62 1283.41 C 1384.15 1280.73 1385.74 1275.7 1386.53 1272.88 C 1386.18 1265.68 1382.41 1254.2 1375.24 1251.3 z"/>
<path transform="translate(0,0)" fill="rgb(196,147,106)" d="M 1386.53 1272.88 C 1388.33 1272.19 1393.16 1270.6 1394.89 1270.35 C 1405.05 1268.88 1462.46 1254.91 1468.43 1258.65 L 1467.53 1266.67 C 1442.71 1272.15 1408.9 1278.76 1383.62 1283.41 C 1384.15 1280.73 1385.74 1275.7 1386.53 1272.88 z"/>
<path transform="translate(0,0)" fill="rgb(255,255,255)" d="M 1429.29 1205.8 C 1430.44 1203.86 1432.41 1200.35 1433.63 1198.64 C 1474.39 1199.31 1515.55 1203.09 1556.37 1204.06 C 1562.66 1204.21 1568.64 1204.67 1574.87 1205.58 C 1563.08 1208.27 1533.78 1214.85 1522.14 1215.75 C 1498.86 1220.46 1475.54 1225.04 1452.21 1229.51 C 1443.12 1227.94 1409.9 1225.37 1405.84 1221.41 C 1417.4 1218.72 1421.73 1214.27 1429.29 1205.8 z"/>
<path transform="translate(0,0)" fill="rgb(234,186,117)" d="M 1429.29 1205.8 C 1430.44 1203.86 1432.41 1200.35 1433.63 1198.64 C 1474.39 1199.31 1515.55 1203.09 1556.37 1204.06 C 1562.66 1204.21 1568.64 1204.67 1574.87 1205.58 C 1563.08 1208.27 1533.78 1214.85 1522.14 1215.75 C 1515.86 1211.68 1442.2 1207.27 1429.29 1205.8 z"/>
<path transform="translate(0,0)" fill="rgb(241,205,144)" d="M 1070.37 771.244 C 1091.46 769.349 1111.87 774.014 1131.34 781.792 C 1117.17 797.279 1105.57 805.527 1085.76 811.676 C 1068.02 816.978 1054.08 821.073 1035.89 824.266 C 1042.06 807.782 1057.15 782.834 1070.37 771.244 z"/>
<path transform="translate(0,0)" fill="rgb(255,255,255)" d="M 1463.93 1233.71 C 1487.73 1229.66 1513.12 1224.34 1536.9 1219.65 C 1549.97 1220.45 1549.57 1226.91 1551.62 1238.87 L 1550.71 1239.5 C 1549.89 1242.78 1548.96 1247.09 1547.72 1250.16 C 1521.71 1257.05 1493.35 1260.28 1467.53 1266.67 L 1468.43 1258.65 L 1469.83 1255.18 C 1470.21 1247.36 1467.25 1240.58 1463.93 1233.71 z"/>
<path transform="translate(0,0)" fill="rgb(255,255,255)" d="M 1469.83 1255.18 C 1471.58 1255.74 1543.24 1241.15 1550.71 1239.5 C 1549.89 1242.78 1548.96 1247.09 1547.72 1250.16 C 1521.71 1257.05 1493.35 1260.28 1467.53 1266.67 L 1468.43 1258.65 L 1469.83 1255.18 z"/>
<path transform="translate(0,0)" fill="rgb(255,255,255)" d="M 1191.31 1329.51 L 1191.76 1331.41 C 1183.36 1341.03 1169.51 1353.72 1159.72 1361.6 C 1144.08 1366.21 1123.06 1369.6 1106.87 1372.43 C 1097.14 1374.13 1078.96 1377.54 1069.31 1378.27 C 1070.41 1375.29 1082.13 1367.08 1086.19 1363.09 C 1092.47 1356.91 1094.98 1354.34 1100.57 1347.27 C 1124.82 1340.96 1165.39 1334.55 1191.31 1329.51 z"/>
<path transform="translate(0,0)" fill="rgb(196,147,106)" d="M 1191.31 1329.51 C 1221.29 1323.26 1251 1317.89 1281.21 1311.38 C 1277.58 1316.33 1257.72 1337.53 1257.42 1339.68 L 1257.79 1340.58 C 1245.86 1344.48 1172.56 1360.45 1159.72 1361.6 C 1169.51 1353.72 1183.36 1341.03 1191.76 1331.41 L 1191.31 1329.51 z"/>
<path transform="translate(0,0)" fill="rgb(223,180,133)" d="M 1604.28 1197.5 C 1582.86 1196.16 1450.77 1192.24 1441.54 1188.59 L 1441.45 1186.32 C 1442.02 1185.91 1442.47 1185.27 1443.15 1185.09 C 1449.01 1183.54 1620.02 1191.67 1634.03 1193.56 C 1643.5 1203.3 1646.09 1211.94 1647.31 1225.02 C 1644.53 1242.85 1633.11 1240.8 1617.55 1242.98 C 1619.68 1237.1 1620.6 1234.28 1620.69 1227.86 C 1620.41 1226.11 1620.1 1224.36 1619.74 1222.63 C 1617.47 1211.62 1613.81 1203.82 1604.28 1197.5 z"/>
<path transform="translate(0,0)" fill="rgb(196,147,106)" d="M 1620.69 1227.86 C 1626.45 1228.33 1642.07 1227.05 1647.31 1225.02 C 1644.53 1242.85 1633.11 1240.8 1617.55 1242.98 C 1619.68 1237.1 1620.6 1234.28 1620.69 1227.86 z"/>
<path transform="translate(0,0)" fill="rgb(255,255,255)" d="M 642.252 685.202 C 663.026 682.643 703.707 676.468 723.239 675.797 C 711.952 690.299 701.702 702.883 692.777 719.058 C 683.828 721.399 674.952 723.565 666.235 726.681 C 663.567 722.497 642.89 687.697 642.252 685.202 z"/>
<path transform="translate(0,0)" fill="rgb(234,186,117)" d="M 1129.66 1274.45 C 1150.1 1269.78 1170.19 1263.72 1189.8 1256.31 C 1197.87 1258.94 1206.85 1258.57 1215.25 1260.05 L 1218.9 1259.93 C 1233.48 1263.51 1248.31 1263.18 1260.22 1266.23 C 1243.17 1271.19 1216.08 1274.88 1197.95 1278.81 C 1188.96 1280.76 1159.65 1287.38 1152.31 1287.9 C 1142.35 1289.94 1133.44 1291.66 1123.34 1293.17 L 1116.9 1292.44 C 1120.69 1289.7 1123.44 1286.58 1126.69 1283.22 L 1129.66 1274.45 z"/>
<path transform="translate(0,0)" fill="rgb(196,147,106)" d="M 1129.66 1274.45 C 1150.1 1269.78 1170.19 1263.72 1189.8 1256.31 C 1197.87 1258.94 1206.85 1258.57 1215.25 1260.05 C 1202.49 1268.23 1143.36 1282.85 1127.58 1283.12 L 1126.69 1283.22 L 1129.66 1274.45 z"/>
<path transform="translate(0,0)" fill="rgb(255,255,255)" d="M 1126.69 1283.22 L 1127.58 1283.12 C 1138.57 1285.27 1143.24 1281.7 1152.31 1287.9 C 1142.35 1289.94 1133.44 1291.66 1123.34 1293.17 L 1116.9 1292.44 C 1120.69 1289.7 1123.44 1286.58 1126.69 1283.22 z"/>
<path transform="translate(0,0)" fill="rgb(196,147,106)" d="M 685.607 1293.18 L 688.47 1293.04 C 691.59 1295.14 696.235 1303.31 698.786 1307.14 C 672.093 1315.99 640.347 1325.22 612.195 1326.66 C 600.321 1327.26 588.301 1328.32 576.453 1329.26 C 572.932 1329.71 566.717 1331.01 564.123 1329.03 C 564.196 1325.53 564.661 1325.32 566.415 1322.33 C 571.915 1319.9 590.942 1316.03 597.821 1314.31 C 627.028 1307.04 656.29 1300 685.607 1293.18 z"/>
<path transform="translate(0,0)" fill="rgb(196,147,106)" d="M 519.988 1390.8 C 504.027 1392.87 487.38 1393.26 471.338 1394.74 C 457.97 1395.98 449.425 1391.84 448.29 1377.31 C 445.876 1346.39 468.286 1349.65 490.326 1348.98 C 489.397 1369.23 494.824 1377.9 512.078 1387.61 L 513.029 1389.18 C 517.526 1389.36 516.747 1388.67 519.988 1390.8 z"/>
<path transform="translate(0,0)" fill="rgb(255,255,255)" d="M 1370.34 1293.57 C 1369.17 1298.99 1347.93 1314.71 1342.21 1319.46 C 1331.23 1323.85 1311.01 1328.27 1298.95 1331.12 C 1286.75 1333.99 1269.88 1338.52 1257.79 1340.58 L 1257.42 1339.68 C 1257.72 1337.53 1277.58 1316.33 1281.21 1311.38 C 1291.48 1308.7 1305.72 1306.36 1316.5 1304.25 L 1370.34 1293.57 z"/>
<path transform="translate(0,0)" fill="rgb(223,180,133)" d="M 1338.42 1148.25 C 1344.43 1149.02 1350.37 1148.73 1356.81 1149.6 C 1365.56 1150.02 1375.03 1150.3 1383.69 1151.16 L 1381.15 1164.13 C 1380.08 1170.71 1379.47 1179.28 1378.8 1186.05 C 1356.37 1185.17 1332.81 1182.93 1310.12 1181.75 C 1321.05 1170.08 1328.87 1160.86 1338.42 1148.25 z"/>
<path transform="translate(0,0)" fill="rgb(241,205,144)" d="M 1356.81 1149.6 C 1365.56 1150.02 1375.03 1150.3 1383.69 1151.16 L 1381.15 1164.13 C 1379.23 1164.64 1377.27 1164.96 1375.3 1165.09 C 1366.73 1165.63 1357.19 1158.56 1356.81 1149.6 z"/>
<path transform="translate(0,0)" fill="rgb(196,147,106)" d="M 1076.62 1351.52 C 1084.62 1350.22 1092.61 1348.81 1100.57 1347.27 C 1094.98 1354.34 1092.47 1356.91 1086.19 1363.09 C 1082.13 1367.08 1070.41 1375.29 1069.31 1378.27 C 1054.39 1382.88 975.81 1390.17 960.548 1388.13 C 967.528 1385.19 989.445 1376.18 994.191 1371.82 L 993.246 1370.7 C 996.655 1369.26 1019.49 1369.12 1025.41 1368.19 C 1044.3 1365.24 1063.83 1368.55 1076.62 1351.52 z"/>
<path transform="translate(0,0)" fill="rgb(122,171,96)" d="M 1464.25 530.613 C 1469.01 526.048 1470.52 525.185 1477.06 524.993 C 1482.67 527.948 1483.54 528.79 1487.98 533.323 C 1488.8 543.285 1489.69 556.507 1501.56 559.807 C 1508.9 557.984 1510.16 552.306 1511.48 545.496 C 1518.8 552.114 1512.54 556.955 1516.22 563.602 C 1519.2 565.971 1520.19 565.934 1523.86 566.729 C 1520.7 568.501 1518.44 568.045 1514.79 567.958 C 1509.44 565.879 1501.4 568.08 1495.79 569.536 L 1491.33 570.445 C 1480.8 577.119 1476.27 580.767 1469.95 591.411 C 1465.33 586.838 1454.97 577.593 1458.45 570.781 C 1465.56 567.415 1473.33 571.969 1478.18 566.18 C 1479.47 553.302 1465.6 552.35 1456.68 546.957 L 1455.56 546.266 C 1458.76 539.085 1459.77 537.051 1464.25 530.613 z"/>
<path transform="translate(0,0)" fill="rgb(122,171,96)" d="M 1464.25 530.613 C 1473.79 541.97 1482.93 560.931 1491.33 570.445 C 1480.8 577.119 1476.27 580.767 1469.95 591.411 C 1465.33 586.838 1454.97 577.593 1458.45 570.781 C 1465.56 567.415 1473.33 571.969 1478.18 566.18 C 1479.47 553.302 1465.6 552.35 1456.68 546.957 L 1455.56 546.266 C 1458.76 539.085 1459.77 537.051 1464.25 530.613 z"/>
<path transform="translate(0,0)" fill="rgb(93,128,81)" d="M 1464.25 530.613 C 1469.01 526.048 1470.52 525.185 1477.06 524.993 C 1466.66 535.206 1489.08 558.924 1495.06 569.009 C 1495.31 569.185 1495.55 569.36 1495.79 569.536 L 1491.33 570.445 C 1482.93 560.931 1473.79 541.97 1464.25 530.613 z"/>
<path transform="translate(0,0)" fill="rgb(223,180,133)" d="M 1019.17 1301.9 C 1030.95 1300.75 1042.68 1299.31 1054.38 1301.19 C 1063.84 1309.72 1065.76 1314.5 1069.27 1326.75 C 1072.45 1346.15 1066.16 1352.85 1047.14 1355.35 C 1043.98 1355.76 1040.82 1356.13 1037.65 1356.47 C 1039.07 1351.02 1040.15 1346.77 1041.1 1341.16 C 1038.25 1325.13 1034.39 1316.46 1022 1305.75 L 1023.41 1304.84 L 1022.83 1303.72 L 1019.67 1303.58 L 1019.17 1301.9 z"/>
<path transform="translate(0,0)" fill="rgb(196,147,106)" d="M 1069.27 1326.75 C 1072.45 1346.15 1066.16 1352.85 1047.14 1355.35 C 1043.98 1355.76 1040.82 1356.13 1037.65 1356.47 C 1039.07 1351.02 1040.15 1346.77 1041.1 1341.16 C 1047.31 1340.4 1060.74 1336.59 1067.9 1335.19 C 1069.66 1332.75 1069.23 1329.93 1069.27 1326.75 z"/>
<path transform="translate(0,0)" fill="rgb(234,186,117)" d="M 1536.9 1219.65 C 1555.72 1215.9 1576.37 1212.95 1594.77 1208.83 C 1597.8 1215.25 1599.82 1219.87 1600.64 1227.17 C 1600.93 1232.48 1600.59 1233.96 1599.61 1239.24 C 1584.65 1243.9 1563.33 1247.38 1547.72 1250.16 C 1548.96 1247.09 1549.89 1242.78 1550.71 1239.5 L 1551.62 1238.87 C 1549.57 1226.91 1549.97 1220.45 1536.9 1219.65 z"/>
<path transform="translate(0,0)" fill="rgb(223,180,133)" d="M 1600.64 1227.17 C 1600.93 1232.48 1600.59 1233.96 1599.61 1239.24 C 1584.65 1243.9 1563.33 1247.38 1547.72 1250.16 C 1548.96 1247.09 1549.89 1242.78 1550.71 1239.5 L 1551.62 1238.87 C 1562.73 1234.97 1595.88 1232.8 1600.64 1227.17 z"/>
<path transform="translate(0,0)" fill="url(#Gradient2)" d="M 1458.1 788.244 C 1460.47 798.647 1464.11 808.416 1466.35 817.828 C 1470.28 834.324 1462.66 849.689 1472.35 866.14 C 1474.43 865.953 1473.61 866.128 1475.51 864.8 C 1481.72 865.345 1499.22 870.569 1503.59 874.303 C 1497.17 884.647 1434.82 883.474 1422.16 876.764 L 1421.57 875.219 C 1426.76 870.862 1447.73 863.7 1453.9 867.483 C 1465.41 861.084 1454.24 805.97 1457.09 794.046 C 1458.15 792.407 1457.94 790.439 1458.1 788.244 z"/>
<path transform="translate(0,0)" fill="rgb(196,147,106)" d="M 1370.34 1293.57 C 1377.2 1291.59 1390.22 1289.32 1397.58 1287.83 C 1417.19 1283.83 1436.86 1280.05 1456.57 1276.51 C 1453.09 1279.96 1441.37 1290.51 1440.9 1294.52 C 1420.42 1300.44 1399.74 1305.7 1379.06 1310.83 C 1367.9 1313.59 1353.37 1317.99 1342.21 1319.46 C 1347.93 1314.71 1369.17 1298.99 1370.34 1293.57 z"/>
<path transform="translate(0,0)" fill="rgb(241,205,144)" d="M 850.805 552.837 C 849.786 552.358 848.772 551.866 847.766 551.361 C 839.632 547.313 827.441 538.743 824.535 529.917 C 826.387 517.962 847.65 525.318 855.114 528.217 C 866.991 532.829 876.583 540.084 885.723 548.789 C 889.809 553.12 891.235 554.75 894.667 559.671 L 885.041 563.092 C 872.824 560.551 862.329 557.612 850.805 552.837 z"/>
<path transform="translate(0,0)" fill="rgb(223,180,133)" d="M 885.723 548.789 C 889.809 553.12 891.235 554.75 894.667 559.671 L 885.041 563.092 C 872.824 560.551 862.329 557.612 850.805 552.837 C 859.939 551.647 879.89 554.543 885.723 548.789 z"/>
<path transform="translate(0,0)" fill="rgb(255,255,255)" d="M 885.227 1376.8 C 915.674 1373.2 961.291 1372.46 993.246 1370.7 L 994.191 1371.82 C 989.445 1376.18 967.528 1385.19 960.548 1388.13 C 936.641 1388.71 906.353 1385.77 882.728 1381.77 C 882.792 1378.28 882.319 1380 885.227 1376.8 z"/>
<path transform="translate(0,0)" fill="rgb(241,205,144)" d="M 930.417 517.311 C 934.698 509.537 947.785 488.012 958.123 492.173 C 966.115 503.813 949.057 527.896 941.293 536.785 C 931.555 548.268 929.694 552.006 915.247 554.711 C 919.361 543.839 925.338 527.319 930.417 517.311 z"/>
<path transform="translate(0,0)" fill="rgb(223,180,133)" d="M 915.247 554.711 C 919.361 543.839 925.338 527.319 930.417 517.311 C 931.189 521.3 931.983 526.128 932.942 530 C 935.523 532.266 938.403 535.109 941.293 536.785 C 931.555 548.268 929.694 552.006 915.247 554.711 z"/>
<path transform="translate(0,0)" fill="rgb(196,147,106)" d="M 902.642 1277.6 C 933.407 1283.12 955.874 1286.61 987.464 1287.42 C 999.126 1287.72 1037.03 1285.91 1045.62 1287.08 L 1056.8 1286.62 C 1056.1 1288.87 1055.78 1289.57 1054.76 1291.7 L 1053.25 1291.25 C 1038.28 1290.94 1017.95 1293.15 1002.69 1294.49 C 988.312 1295.74 972.136 1296.3 958.064 1297.79 L 958.547 1297.03 C 955.296 1291.41 917.472 1291.92 902.642 1277.6 z"/>
<path transform="translate(0,0)" fill="rgb(255,255,255)" d="M 1045.62 1287.08 L 1056.8 1286.62 C 1056.1 1288.87 1055.78 1289.57 1054.76 1291.7 L 1053.25 1291.25 C 1048.25 1289.54 1048.72 1290.5 1045.62 1287.08 z"/>
<path transform="translate(0,0)" fill="rgb(234,186,117)" d="M 1073.19 1309.55 C 1081.29 1307.79 1089.79 1306.5 1097.99 1305.12 C 1101.32 1313.35 1105.62 1312.45 1108.79 1326.3 L 1108.87 1327.03 C 1108.68 1329.96 1108.01 1336.11 1108.84 1338.67 C 1098.78 1340.38 1088.77 1342.31 1078.8 1344.44 L 1079.3 1329.94 C 1078.46 1322.07 1076.5 1316.57 1073.19 1309.55 z"/>
<path transform="translate(0,0)" fill="rgb(223,180,133)" d="M 1079.3 1329.94 C 1084.22 1332.83 1099.83 1327.23 1108.87 1327.03 C 1108.68 1329.96 1108.01 1336.11 1108.84 1338.67 C 1098.78 1340.38 1088.77 1342.31 1078.8 1344.44 L 1079.3 1329.94 z"/>
<path transform="translate(0,0)" fill="url(#Gradient1)" d="M 1532.11 1260.55 L 1532.57 1262.6 C 1529.03 1266.06 1526.48 1268.19 1522.6 1271.28 C 1496.92 1279.46 1467.04 1287.74 1440.9 1294.52 C 1441.37 1290.51 1453.09 1279.96 1456.57 1276.51 C 1461.19 1274.75 1475.37 1272.14 1480.68 1271.04 L 1532.11 1260.55 z"/>
<path transform="translate(0,0)" fill="rgb(171,135,108)" d="M 1022 1305.75 C 1013.67 1304.9 977.924 1308.67 967.495 1309.42 L 897.481 1313.82 C 872.905 1315.52 842.652 1318.04 818.142 1317.28 L 817.017 1316.45 L 816.7 1317.14 L 815.627 1316.81 C 820.721 1314.26 998.778 1301.84 1019.17 1301.9 L 1019.67 1303.58 L 1022.83 1303.72 L 1023.41 1304.84 L 1022 1305.75 z"/>
<path transform="translate(0,0)" fill="rgb(234,186,117)" d="M 1403.88 579.681 C 1426.82 577.402 1440.78 584.711 1446.99 607.829 C 1440.18 607.869 1432.4 608.162 1425.76 607.157 L 1423.49 606.848 C 1420.28 605.569 1420.19 604.829 1418.17 602.006 C 1415.22 597.312 1412.37 592.061 1409.61 587.217 L 1403.88 579.681 z"/>
<path transform="translate(0,0)" fill="rgb(244,230,184)" d="M 1409.61 587.217 C 1417.14 572.191 1436.59 591.627 1418.17 602.006 C 1415.22 597.312 1412.37 592.061 1409.61 587.217 z"/>
<path transform="translate(0,0)" fill="rgb(244,230,184)" d="M 1433.45 588.063 C 1436.04 591.453 1439.18 595.342 1441.58 598.78 C 1439.19 608.009 1434.19 606.699 1425.76 607.157 L 1423.49 606.848 C 1423.09 603.478 1426.42 600.055 1428.61 597.07 C 1430.23 593.848 1431.59 591.15 1433.45 588.063 z"/>
<path transform="translate(0,0)" fill="rgb(241,205,144)" d="M 1396.77 582.634 C 1401.5 585.28 1408.59 599.524 1411.8 604.983 C 1405.18 604.622 1398.96 603.103 1394.31 607.049 C 1393.01 611.638 1395.65 617.779 1397.15 622.621 C 1394.06 624.948 1385.75 624.874 1381.5 625.163 C 1379.73 605.216 1381.22 596.114 1396.77 582.634 z"/>
<path transform="translate(0,0)" fill="rgb(255,255,255)" d="M 1081.1 1283.7 C 1088.28 1289.26 1093.5 1291 1102.05 1293.81 C 1105.9 1294.26 1107.2 1294.31 1110.81 1295.54 C 1097.28 1297.98 1083.78 1300.57 1070.3 1303.31 C 1064.73 1296.69 1062.71 1295.02 1054.76 1291.7 C 1055.78 1289.57 1056.1 1288.87 1056.8 1286.62 L 1081.1 1283.7 z"/>
<path transform="translate(0,0)" fill="rgb(196,147,106)" d="M 1002.54 1646.11 L 1003.69 1646.32 L 1004.45 1647.88 C 1002.76 1655.17 998.89 1661.01 994.726 1667.11 C 986.11 1670.42 981.416 1671.41 972.26 1673.41 L 971.374 1673.53 L 970.61 1672.65 C 972.967 1665.41 974.177 1661.06 975.744 1653.62 C 984.106 1650.74 993.896 1648.39 1002.54 1646.11 z"/>
<path transform="translate(0,0)" fill="rgb(223,180,133)" d="M 1067.9 828.393 C 1068.82 828.482 1079.45 833.769 1080.85 834.582 C 1085.58 837.325 1103.3 842.404 1104.75 847.443 C 1100.51 849.827 1093.06 848.699 1088.23 848.152 C 1071.07 844.31 1061.88 841.178 1046.58 832.475 L 1067.9 828.393 z"/>
<path transform="translate(0,0)" fill="rgb(196,147,106)" d="M 1588.84 1482.06 L 1591.45 1479.64 C 1596.59 1485.88 1601.14 1490.87 1604.68 1498.18 C 1602.54 1506.66 1599.92 1522.21 1588.05 1518.07 C 1583.65 1516.54 1580.68 1516.45 1578.21 1512.18 C 1581.82 1502.01 1595.19 1510.02 1588.84 1482.06 z"/>
<path transform="translate(0,0)" fill="rgb(196,147,106)" d="M 582.586 1033.43 C 592.449 1031.54 602.646 1043.34 608.337 1050.29 C 602.402 1051.82 596.257 1052.9 590.229 1054.07 C 589.359 1054.28 586.92 1054.58 586.209 1053.79 C 579.23 1046.02 572.838 1040.81 563.745 1035.68 L 582.586 1033.43 z"/>
<path transform="translate(0,0)" fill="rgb(223,180,133)" d="M 1029.99 1222.59 C 1033.69 1224.69 1049.39 1247.58 1049.95 1251.35 L 1047.25 1252.02 C 1040.3 1252.15 1034.36 1252.86 1028.58 1248.2 C 1019.08 1240.52 1022.72 1230.31 1029.99 1222.59 z"/>
<path transform="translate(0,0)" fill="rgb(223,180,133)" d="M 1361.06 1114.56 C 1367.78 1122.35 1374.27 1131.79 1380.34 1140.2 L 1368.75 1139.68 C 1361.11 1139.27 1354.5 1138.78 1346.9 1137.94 C 1351.57 1130.12 1356.29 1122.32 1361.06 1114.56 z"/>
<path transform="translate(0,0)" fill="rgb(196,147,106)" d="M 1633.53 1494.08 L 1636.05 1493.83 L 1636.84 1495.41 C 1632.93 1513.49 1624.48 1512.33 1608.24 1516.17 L 1605.98 1516.4 C 1605.17 1513.72 1609.4 1504.08 1610.72 1500.47 C 1617.83 1498.18 1626.24 1496.08 1633.53 1494.08 z"/>
<path transform="translate(0,0)" fill="rgb(196,147,106)" d="M 1532.11 1260.55 C 1540.42 1258.49 1570.3 1252.98 1578.38 1252.26 C 1567.67 1256.98 1533.85 1269.08 1522.6 1271.28 C 1526.48 1268.19 1529.03 1266.06 1532.57 1262.6 L 1532.11 1260.55 z"/>
<path transform="translate(0,0)" fill="rgb(211,125,103)" d="M 1098.46 817.8 C 1099.94 817.603 1099.1 817.524 1100.85 818.57 C 1101.63 823.927 1100.65 829.742 1100.08 835.211 L 1088.9 830.009 C 1085.16 828.209 1080.66 826.478 1076.77 824.864 C 1086.12 823.788 1089.94 821.638 1098.46 817.8 z"/>
<path transform="translate(0,0)" fill="rgb(171,135,108)" d="M 1601.23 1203.52 C 1607.6 1204.67 1611.13 1210.23 1613.15 1215.98 C 1616.15 1224.34 1615.78 1233.54 1612.11 1241.63 L 1610.42 1242.56 C 1608.18 1240.21 1611.49 1231.04 1609.65 1223.96 C 1607.21 1214.5 1605.75 1212.06 1601.23 1203.52 z"/>
<path transform="translate(0,0)" fill="rgb(223,180,133)" d="M 1117.64 807.864 L 1118.95 809.134 C 1119.77 818.994 1115.43 832.284 1111.52 841.307 C 1109.8 838.73 1110.97 819.237 1110.83 813.301 L 1117.64 807.864 z"/>
<path transform="translate(0,0)" fill="rgb(171,135,108)" d="M 1578.99 1462.82 C 1583.32 1466.82 1588.42 1474.57 1591.45 1479.64 L 1588.84 1482.06 C 1584.3 1473.71 1582.19 1470.91 1575.8 1464.33 L 1578.99 1462.82 z"/>
<path transform="translate(0,0)" fill="rgb(171,135,108)" d="M 512.078 1387.61 C 518.693 1387.88 521.457 1387.7 527.949 1387.06 C 532.872 1390.05 535.726 1388.1 542.23 1389.07 C 537.036 1389.87 525.193 1391 519.988 1390.8 C 516.747 1388.67 517.526 1389.36 513.029 1389.18 L 512.078 1387.61 z"/>
<path transform="translate(0,0)" fill="rgb(255,255,255)" d="M 1454.71 602.966 C 1459.2 602.836 1463.39 601.831 1466.21 605.491 L 1465.77 608.315 C 1462.38 608.779 1460.77 608.982 1457.37 608.992 C 1454.56 606.775 1455.45 607.615 1454.71 602.966 z"/>
<path transform="translate(0,0)" fill="rgb(255,255,255)" d="M 704.333 1316.1 C 704.709 1316.21 707.179 1317.62 707.601 1317.85 L 707.139 1319.85 C 702.961 1321.74 699.507 1321.79 694.94 1322.31 C 694.259 1322.22 692.492 1321.71 691.759 1321.52 C 694.545 1318.97 700.407 1317.48 704.333 1316.1 z"/>
<path transform="translate(0,0)" fill="rgb(240,203,191)" d="M 867.144 1378.83 C 874.499 1377.01 877.661 1377.05 885.227 1376.8 C 882.319 1380 882.792 1378.28 882.728 1381.77 L 867.144 1378.83 z"/>
<path transform="translate(0,0)" fill="rgb(255,255,255)" d="M 1102.05 1293.81 C 1107.15 1293.29 1111.72 1292.47 1116.9 1292.44 L 1123.34 1293.17 C 1120.46 1293.73 1113.39 1295.29 1110.81 1295.54 C 1107.2 1294.31 1105.9 1294.26 1102.05 1293.81 z"/>
<path transform="translate(0,0)" fill="rgb(68,59,65)" d="M 1331.97 594.549 C 1336.99 580.058 1342.79 565.89 1348.41 551.64 C 1351.75 543.179 1360.26 530.993 1359.74 522.566 L 1359.68 521.497 C 1359.52 518.982 1359.25 520.218 1360.88 518.012 C 1361.84 517.904 1380.21 520.132 1386.26 520.142 C 1396.31 519.579 1435.77 520.987 1443.45 525.127 L 1443.85 528.051 C 1439.13 537.757 1429.06 530.834 1417.47 551.251 C 1413.66 552.495 1411.59 553.474 1407.66 553.477 C 1404.87 556.32 1401.9 558.696 1400.85 562.452 L 1402.04 563.678 C 1410.32 563.712 1413.62 561.768 1421.5 565.252 C 1426.43 565.719 1428.98 566.471 1433.4 568.884 L 1431.7 569.142 C 1429.26 569.498 1427.86 569.488 1425.41 569.509 L 1424.02 571.359 C 1416.32 570.164 1414.07 569.842 1405.92 570.769 C 1399.31 573.485 1394.75 577.069 1386.98 577.687 C 1385.26 574.555 1390.17 575.434 1390.09 568.501 L 1388.72 567.699 L 1387.98 569.214 L 1384.98 568.043 C 1373.92 569.898 1377.01 584.462 1363.95 582.907 C 1354.07 581.731 1346.68 594.561 1336.84 600.262 L 1331.97 594.549 z"/>
<path transform="translate(0,0)" fill="rgb(108,101,109)" d="M 1386.26 520.142 C 1396.31 519.579 1435.77 520.987 1443.45 525.127 L 1443.85 528.051 C 1436.13 521.329 1398.76 525.452 1387.02 521.648 L 1386.26 520.142 z"/>
<path transform="translate(0,0)" fill="rgb(255,255,255)" d="M 1394.27 560.024 C 1399.14 556.553 1402.1 553.577 1407.66 553.477 C 1404.87 556.32 1401.9 558.696 1400.85 562.452 L 1402.04 563.678 C 1410.32 563.712 1413.62 561.768 1421.5 565.252 C 1416.75 566.27 1403.53 568.089 1398.9 567.364 C 1395.27 564.892 1396.24 564.998 1394.27 560.024 z"/>
<path transform="translate(0,0)" fill="rgb(211,125,103)" d="M 1369.42 533.668 C 1372.39 536.228 1381.77 551.772 1384.66 556.219 L 1374.34 562.741 C 1370.89 565.759 1368.44 569.395 1365.66 573.062 C 1367.19 560.852 1368.11 546.247 1369.42 533.668 z"/>
<path transform="translate(0,0)" fill="rgb(211,125,103)" d="M 1372.92 530.666 C 1378.85 531.568 1401.9 539.607 1406.33 543.904 L 1405.97 545.315 L 1401.44 546.564 C 1397.86 548.692 1393.12 552.054 1389.53 554.432 C 1384.61 546.799 1378.22 538.191 1372.92 530.666 z"/>
<path transform="translate(0,0)" fill="rgb(211,125,103)" d="M 1362.52 540.678 C 1363.8 545.641 1362.33 563.983 1362.08 570.316 C 1356.88 573.049 1352.83 575.709 1347.9 578.896 C 1347.02 574.768 1359.64 545.813 1362.52 540.678 z"/>
<path transform="translate(0,0)" fill="rgb(211,125,103)" d="M 1385.92 528.337 C 1393.66 527.846 1413.76 528.231 1420.49 530.915 L 1420.74 532.397 L 1417.5 535.205 C 1415.8 537.286 1414.15 538.919 1412.3 540.85 C 1405.2 537.716 1391.94 532.329 1385.92 528.337 z"/>
<path transform="translate(0,0)" fill="rgb(0,0,0)" fill-opacity="0.117647" d="M 1497.73 528.485 C 1499.58 529.002 1499.11 528.677 1501.47 528.089 C 1501.51 531.465 1501.91 533.906 1500.4 536.877 C 1498.4 535.131 1498.35 531.658 1497.73 528.485 z"/>
</svg>