<svg version="1.1" xmlns="http://www.w3.org/2000/svg" viewBox="340.75 195.55 1326.21 1617.98" width="1326" height="1618">
<defs>
	<linearGradient id="Gradient1" gradientUnits="userSpaceOnUse" x1="1189.79" y1="990.016" x2="1176.78" y2="1076.92">
		<stop class="stop0" offset="0" stop-opacity="1" stop-color="rgb(34,21,31)"/>
		<stop class="stop1" offset="1" stop-opacity="1" stop-color="rgb(55,48,56)"/>
	</linearGradient>
	<linearGradient id="Gradient2" gradientUnits="userSpaceOnUse" x1="1014.34" y1="981.859" x2="1019.32" y2="1012.95">
		<stop class="stop0" offset="0" stop-opacity="1" stop-color="rgb(219,162,101)"/>
		<stop class="stop1" offset="1" stop-opacity="1" stop-color="rgb(240,192,126)"/>
	</linearGradient>
</defs>
<path transform="translate(0,0)" fill="rgb(50,43,50)" d="M 909.582 295.688 C 913.989 276.94 920.108 261.574 940.322 255.474 C 982.557 268.683 990.05 320.677 994.814 359.182 C 995.521 364.893 994.712 386.7 996.89 389.597 C 1001.24 389.867 1001.72 388.051 1004.56 385.03 C 1013.54 375.466 1024.28 367.401 1036.13 361.71 C 1049.33 355.388 1068.21 345.994 1081.24 357.514 C 1086.66 362.313 1087.75 367.546 1089.95 374.165 C 1082.61 413.367 1057.06 432.127 1030.9 457.921 C 1046.58 457.345 1067.09 460.245 1083.19 461.891 C 1213.64 475.934 1336.15 531.428 1432.74 620.227 C 1446.74 633.17 1458.24 648.034 1470.83 662.699 C 1543.56 747.401 1591.02 863.641 1597.67 974.23 C 1607.04 1129.85 1553.14 1269.61 1446.32 1382.05 C 1373.79 1458.41 1294.63 1502.51 1195.02 1537.85 C 1195.93 1568.17 1195.3 1595.3 1195.5 1625.23 L 1196.62 1626.01 C 1221.1 1642.68 1272.94 1653.89 1284.45 1684.67 C 1285.96 1688.7 1283.71 1695.82 1281.04 1699.19 C 1271.2 1711.58 1249.34 1709.64 1235.12 1709.45 C 1237.95 1713.68 1239.19 1715.67 1241.38 1720.24 C 1239.96 1727.05 1238.98 1736.33 1232.42 1740.36 C 1210.89 1753.6 1182.21 1735.3 1163.84 1723.41 C 1145.81 1711.74 1121.52 1695.29 1108.99 1678.11 C 1102.78 1669.61 1104.39 1640.29 1104.4 1628.65 L 1104.51 1560.97 C 1096.1 1562.04 1088.82 1561.94 1080.57 1562.83 C 1040.56 1567.14 989.866 1569.79 949.753 1566.98 L 949.909 1633.56 C 949.934 1645.57 950.416 1664.46 948.942 1675.87 C 930.855 1701.64 875.791 1738.82 844.216 1746.15 C 830.349 1749.37 821.559 1744.19 813.779 1732.84 C 814.539 1725.54 815.255 1718.64 816.368 1711.39 C 801.242 1713.66 771.231 1714.41 767.728 1693.2 C 766.681 1686.86 772.12 1678.83 776.211 1674.53 C 798.398 1652.98 831.74 1640.53 858.66 1627.57 C 858.284 1604.4 858.18 1573.51 859.438 1550.48 C 804.022 1542.9 751.63 1518.23 702.718 1492.04 C 578.012 1425.26 476.037 1314.67 432.1 1178.48 C 407.785 1102.72 400.678 1022.49 411.296 943.635 C 427.021 830.24 486.109 720.918 567.219 640.309 C 586.49 621.158 609.312 602.765 631.07 586.392 C 689.054 542.322 754.375 508.857 824.017 487.542 C 845.42 480.788 868.187 475.191 890.068 470.107 C 893.265 469.364 903.414 468.069 904.8 466.218 C 901.283 458.526 882.744 450.519 876.815 444.145 C 862.869 429.154 847.245 404.105 853.296 382.876 C 856.369 372.093 877.027 373.433 884.04 378.388 C 889.335 379.397 903.775 385.207 910.163 387.358 C 910.11 352.237 898.157 335.065 909.582 295.688 z"/>
<path transform="translate(0,0)" fill="rgb(255,255,255)" d="M 909.582 295.688 C 909.633 296.289 909.684 296.89 909.735 297.491 C 904.723 334.861 907.921 362.37 919.413 398.545 C 905.735 389.078 895.328 385.695 884.04 378.388 C 889.335 379.397 903.775 385.207 910.163 387.358 C 910.11 352.237 898.157 335.065 909.582 295.688 z"/>
<path transform="translate(0,0)" fill="rgb(143,198,183)" d="M 714.315 1480.43 C 705.375 1476.51 691.813 1468.1 683.162 1462.92 C 623.648 1427.26 571.315 1380.8 528.85 1325.94 C 446.355 1218.66 409.938 1082.97 427.636 948.804 C 446.275 811.135 524.832 687.248 634.706 603.654 C 766.478 503.185 932.574 458.774 1096.9 480.071 C 1246.2 500.313 1385.6 575.209 1477.16 695.992 C 1560.6 807.392 1596.23 947.443 1576.17 1085.18 C 1561.25 1192.02 1513.63 1287.45 1440.04 1365.79 C 1427.44 1379.19 1403.09 1403.77 1388.47 1414.8 C 1259.67 1521.29 1102.48 1563.14 936.685 1548.06 C 865.735 1541.61 776.559 1516.03 714.315 1480.43 z"/>
<path transform="translate(0,0)" fill="rgb(50,43,50)" d="M 988.047 1038.04 C 1008.99 1034.47 1022.36 1034.63 1043.54 1036 C 1078.78 1040.35 1109.83 1054.02 1138.33 1075.13 C 1146.13 1071.74 1219.58 1099.81 1226.24 1106.35 C 1256.14 1089.19 1286.24 1069.71 1316.12 1052.28 C 1321.61 1049.08 1326.74 1045.26 1332.56 1042.64 C 1339.64 1039 1345.43 1042.61 1343.89 1051 C 1338.82 1058.68 1319.45 1068.1 1311.28 1073.04 C 1268.07 1099.2 1162.42 1155 1137.29 1196.42 C 1132.38 1204.51 1130.45 1212.98 1132.53 1222.3 C 1138.77 1250.22 1173.06 1277.56 1196.09 1291.48 C 1247.57 1322.58 1309.67 1325.4 1366.9 1310.95 C 1383.94 1306.65 1402.21 1300.97 1417.74 1292.58 C 1428.02 1287.02 1438.57 1279.3 1449.47 1275.24 C 1453.14 1273.87 1455.31 1273.51 1458.94 1275.37 C 1462.17 1279.3 1460.98 1279.17 1462.76 1282.49 C 1453.64 1295.59 1409.14 1313.42 1392.79 1319.05 C 1394.34 1328.96 1393.62 1337.52 1394.85 1346.47 L 1394.97 1353.05 C 1394.71 1370.2 1393.84 1388.81 1390.19 1405.54 L 1388.47 1414.8 C 1259.67 1521.29 1102.48 1563.14 936.685 1548.06 C 865.735 1541.61 776.559 1516.03 714.315 1480.43 C 703.946 1459.86 700.255 1439.85 695.109 1417.53 C 693.25 1406.92 692.403 1396.01 691.95 1385.26 C 692.056 1377.23 691.012 1366.19 691.838 1358.58 C 690.636 1358.19 679.079 1356.54 676.513 1356.08 C 667.628 1354.44 658.813 1352.44 650.092 1350.08 C 637.309 1346.6 587.72 1330.52 579.238 1317.91 C 577.953 1316 579.244 1312.14 579.977 1309.86 C 581.066 1309.46 586.735 1307.46 587.493 1307.88 C 636.317 1335.36 689.701 1348.66 745.988 1343.8 C 790.295 1339.98 848.149 1319.06 877.471 1283.08 C 883.497 1277.07 888.874 1270.44 893.516 1263.31 C 900.203 1252.99 907.513 1239 904.448 1226.41 C 893.835 1182.83 755.398 1119.75 715.04 1099.17 C 702.016 1092.53 689.183 1085.11 676.586 1077.68 C 676.977 1069.95 678.341 1070.09 684.777 1065.79 C 691.33 1069.75 695.641 1072.01 702.564 1075.3 C 736.213 1093.51 770.385 1110.32 804.228 1128.12 C 809.297 1130.78 814.724 1134.22 819.869 1136.48 C 827.08 1130.31 872.845 1099.72 879.626 1101.17 C 908.43 1069.02 945.019 1045.37 988.047 1038.04 z"/>
<path transform="translate(0,0)" fill="rgb(255,255,255)" d="M 1186.32 1351.2 C 1196.81 1353.84 1207.21 1357.97 1217.77 1360.26 C 1271.25 1371.9 1328.7 1370.46 1380.43 1351.71 C 1383.52 1350.6 1391.3 1347.78 1393.95 1349 L 1394.97 1353.05 C 1394.71 1370.2 1393.84 1388.81 1390.19 1405.54 L 1388.47 1414.8 C 1259.67 1521.29 1102.48 1563.14 936.685 1548.06 C 865.735 1541.61 776.559 1516.03 714.315 1480.43 C 703.946 1459.86 700.255 1439.85 695.109 1417.53 C 693.25 1406.92 692.403 1396.01 691.95 1385.26 C 761.063 1398.67 803.928 1393.41 868.812 1368.03 C 966.494 1444.11 1098.97 1442.92 1186.32 1351.2 z"/>
<path transform="translate(0,0)" fill="rgb(235,213,199)" d="M 695.109 1417.53 C 700.027 1419.11 725.301 1432.84 731.329 1435.85 C 754.285 1447.48 777.863 1457.85 801.957 1466.89 C 961.037 1525.24 1136.3 1521.27 1292.57 1455.76 C 1312.82 1447.55 1332.55 1438.11 1351.65 1427.49 C 1363.75 1420.71 1377.89 1411 1390.19 1405.54 L 1388.47 1414.8 C 1259.67 1521.29 1102.48 1563.14 936.685 1548.06 C 865.735 1541.61 776.559 1516.03 714.315 1480.43 C 703.946 1459.86 700.255 1439.85 695.109 1417.53 z"/>
<path transform="translate(0,0)" fill="rgb(235,213,199)" d="M 1188.62 1304.17 C 1195.93 1308.45 1203.4 1312.45 1211.03 1316.14 C 1265.94 1342.13 1336.51 1339.05 1392.79 1319.05 C 1394.34 1328.96 1393.62 1337.52 1394.85 1346.47 L 1394.97 1353.05 L 1393.95 1349 C 1391.3 1347.78 1383.52 1350.6 1380.43 1351.71 C 1328.7 1370.46 1271.25 1371.9 1217.77 1360.26 C 1207.21 1357.97 1196.81 1353.84 1186.32 1351.2 C 1098.97 1442.92 966.494 1444.11 868.812 1368.03 C 803.928 1393.41 761.063 1398.67 691.95 1385.26 C 692.056 1377.23 691.012 1366.19 691.838 1358.58 C 757.418 1363.8 808.564 1354.24 862.876 1316.58 C 880.54 1343.77 903.792 1366.63 932.523 1381.95 C 977.438 1406.28 1030.33 1411.25 1078.99 1395.71 C 1127.6 1380.58 1164.94 1348.98 1188.62 1304.17 z"/>
<path transform="translate(0,0)" fill="rgb(255,255,255)" d="M 1138.33 1075.13 C 1146.13 1071.74 1219.58 1099.81 1226.24 1106.35 C 1212.49 1115.01 1199.97 1122.99 1186.73 1132.34 C 1173.18 1108.14 1159.14 1092.57 1138.33 1075.13 z"/>
<path transform="translate(0,0)" fill="rgb(255,255,255)" d="M 819.869 1136.48 C 827.08 1130.31 872.845 1099.72 879.626 1101.17 C 865.638 1119.06 856.778 1131.64 848.903 1153.65 C 839.246 1147.77 829.78 1141.93 819.869 1136.48 z"/>
<path transform="translate(0,0)" fill="rgb(181,232,237)" d="M 932.101 1074.92 C 988.26 1038.6 1060.25 1041.83 1115.7 1077.71 L 1116.56 1079.53 C 1110.2 1088.88 1097.65 1078.25 1089.56 1084.09 C 1082.03 1089.53 1069.49 1100.5 1069.63 1110.49 C 1069.69 1113.33 1074.12 1115.86 1076.35 1117.51 L 1078.9 1119.44 C 1074.33 1122.14 1070.53 1124.39 1065.71 1126.71 C 1065.01 1130.55 1064.67 1135.7 1062.12 1138.32 C 1048.81 1143.16 1043.2 1144.08 1048.83 1159.3 C 1049.75 1161.76 1051.12 1163.49 1052.75 1165.42 C 1032.58 1185.97 1020.83 1209.18 1045.36 1232.43 C 1055.59 1242.12 1075.62 1232.14 1079.96 1236.74 C 1094.95 1253.92 1086.44 1279.83 1094.86 1299.77 C 1097.72 1306.53 1101.45 1319.44 1110.73 1318.89 C 1134.05 1317.52 1137.18 1283.27 1147.3 1274.33 C 1151.17 1278.91 1144.98 1295.61 1155.25 1296.59 C 1160.48 1294.65 1162.08 1292.43 1165.51 1287.97 C 1168.91 1290.76 1173 1293.93 1176.22 1296.81 C 1169.51 1308.42 1164.48 1317.48 1155.69 1327.76 C 1145.35 1340.18 1133.3 1351.07 1119.9 1360.11 C 1080.98 1386 1033.4 1395.43 987.55 1386.34 C 937.381 1376.09 902.112 1349.24 874.45 1307.17 C 882.722 1299.05 888.47 1293.12 896.1 1284.3 C 902.242 1275.98 907.311 1269.06 912.033 1259.82 C 917.044 1267.79 932.655 1283.49 933.087 1285.71 L 933.218 1286.96 C 935.025 1305.26 928.38 1357.42 953.455 1360.47 C 962.047 1357.31 960.831 1346.03 961.517 1337.81 C 963.431 1319.33 1013.33 1281.34 1011.36 1254.33 C 1010.54 1243.17 989.861 1238.61 982.94 1233.09 C 961.668 1216.13 952.802 1207.45 924.123 1211.47 C 916.205 1206.7 913.116 1202.22 912.846 1192.65 C 914.409 1189.71 913.26 1190.69 916.412 1189.61 C 919.178 1190.49 920.67 1191.23 923.56 1190.86 C 927.009 1187.17 926.016 1179.37 925.898 1174.2 C 936.562 1158.34 942.929 1154.11 959.408 1145.34 C 959.848 1144.41 960.3 1143.49 960.765 1142.58 C 966.011 1132.4 974.822 1138.69 978.5 1131.23 C 984.976 1118.09 961.398 1107.63 959.661 1103.08 C 962.781 1101.14 965.162 1100.14 966.942 1096.98 C 967.88 1082.33 950.623 1076.09 938.58 1075.09 L 932.101 1074.92 z"/>
<path transform="translate(0,0)" fill="rgb(143,198,183)" d="M 912.033 1259.82 C 917.044 1267.79 932.655 1283.49 933.087 1285.71 L 933.218 1286.96 C 935.025 1305.26 928.38 1357.42 953.455 1360.47 C 962.047 1357.31 960.831 1346.03 961.517 1337.81 C 1014.43 1358.93 1064.36 1363.07 1119.51 1342.08 C 1132.63 1337.09 1140.92 1326.05 1155.69 1327.76 C 1145.35 1340.18 1133.3 1351.07 1119.9 1360.11 C 1080.98 1386 1033.4 1395.43 987.55 1386.34 C 937.381 1376.09 902.112 1349.24 874.45 1307.17 C 882.722 1299.05 888.47 1293.12 896.1 1284.3 C 902.242 1275.98 907.311 1269.06 912.033 1259.82 z"/>
<path transform="translate(0,0)" fill="rgb(181,232,237)" d="M 912.033 1259.82 C 917.044 1267.79 932.655 1283.49 933.087 1285.71 C 932.249 1293.32 933.023 1310.76 933.15 1319.24 C 925.35 1309.94 906.026 1294.99 896.1 1284.3 C 902.242 1275.98 907.311 1269.06 912.033 1259.82 z"/>
<path transform="translate(0,0)" fill="rgb(50,43,50)" d="M 1008.67 1056.38 C 1014.86 1056.15 1035.56 1057.5 1037.37 1065.33 C 1042.71 1088.49 1028.28 1093.67 1010.99 1101.98 C 1006.77 1104.01 1004.24 1110.96 995.979 1114.04 C 977.92 1111.32 978.864 1101.5 979.094 1085.99 C 972.65 1083.38 968.339 1082.72 965.494 1076.56 C 965.653 1061.93 997.401 1057.46 1008.67 1056.38 z"/>
<path transform="translate(0,0)" fill="rgb(173,216,139)" d="M 1007.74 1064.43 C 1016.94 1064.1 1022.45 1066.09 1030.95 1068.91 C 1024.87 1097.18 1015.04 1082.77 997.641 1105.98 C 994.244 1106.01 993.97 1105.89 990.785 1105.22 C 983.697 1099.34 988.203 1093.49 985.732 1085.28 C 983.694 1078.51 978.752 1078.9 974.473 1074.78 L 974.83 1072.85 C 981.017 1067.74 999.578 1065.03 1007.74 1064.43 z"/>
<path transform="translate(0,0)" fill="rgb(173,216,139)" d="M 1061.05 1168.43 C 1069.64 1167.25 1078.48 1166.76 1087.15 1166.15 C 1101.26 1179.38 1108.52 1171.63 1126.98 1176.59 L 1132.57 1177.49 C 1104.91 1212.66 1115.34 1234.97 1141.35 1266.52 C 1133.77 1280.16 1127.65 1308.46 1110.73 1309.82 C 1097.26 1304.18 1098.59 1271.31 1097.44 1259.52 C 1096.82 1253.1 1090.73 1238.62 1087.76 1232.63 C 1084.69 1230.65 1081.46 1229.22 1078.18 1227.65 C 1074.39 1228.02 1062.76 1230.06 1059.98 1229.43 C 1023.47 1221.2 1042.48 1182.74 1061.05 1168.43 z"/>
<path transform="translate(0,0)" fill="rgb(173,216,139)" d="M 928.018 1218.3 C 932.922 1217.94 939.906 1217.44 944.619 1218.09 C 946.926 1218.41 949.162 1219.11 951.233 1220.18 C 956.737 1223.01 1001.15 1252.15 1003.66 1255.4 C 1000.75 1276.06 976.054 1304.78 961.573 1319.19 C 951.099 1332.11 956.466 1341.09 951.476 1351.24 L 949.885 1351.46 C 937.762 1337.38 943.998 1302.34 940.862 1285.36 C 939.687 1279 927.711 1268.76 923.559 1263.41 C 920.677 1259.69 919.314 1256.51 917.32 1252.18 C 919.202 1241.69 923.272 1227.8 928.018 1218.3 z"/>
<path transform="translate(0,0)" fill="rgb(173,216,139)" d="M 1095.72 1126.09 C 1100.65 1121.71 1110.26 1113.88 1103.59 1106.69 C 1094.69 1103.21 1085.07 1117.66 1078.36 1108.27 C 1078.89 1101.34 1092.07 1088.26 1099.06 1089.38 C 1108.33 1090.87 1119.45 1098.97 1123.75 1084.94 C 1128.17 1084.71 1132.49 1088.46 1135.77 1091.38 C 1151.57 1105.52 1164.7 1122.41 1174.51 1141.22 C 1161.32 1150.9 1150.81 1158.46 1139.82 1170.93 C 1138.12 1173.99 1136.34 1176.83 1132.57 1177.49 L 1126.98 1176.59 C 1136.33 1175.92 1141.76 1166.44 1136.55 1158.04 C 1136.01 1157.18 1132.26 1157.19 1131.03 1157.08 L 1129.7 1155.68 C 1127.06 1154.4 1126.2 1154.07 1123.78 1152.32 C 1119.91 1151.89 1118.58 1152.9 1115.04 1154.5 C 1105.76 1152.48 1108.59 1138.58 1096.39 1147.65 C 1091.54 1146.27 1087.6 1141.58 1082.79 1142.92 C 1073.4 1145.53 1068.78 1161.28 1057.47 1158.23 C 1053.4 1153.16 1055.01 1147.69 1061.47 1146.56 C 1073.2 1144.51 1068.96 1130.89 1080.23 1127.66 C 1085.77 1126.08 1090.14 1126.21 1095.72 1126.09 z"/>
<path transform="translate(0,0)" fill="rgb(61,57,58)" d="M 1129.7 1155.68 C 1133.4 1155.35 1134.88 1154.81 1137.99 1156.77 C 1140.7 1160.8 1139.93 1165.93 1139.82 1170.93 C 1138.12 1173.99 1136.34 1176.83 1132.57 1177.49 L 1126.98 1176.59 C 1136.33 1175.92 1141.76 1166.44 1136.55 1158.04 C 1136.01 1157.18 1132.26 1157.19 1131.03 1157.08 L 1129.7 1155.68 z"/>
<path transform="translate(0,0)" fill="rgb(173,216,139)" d="M 861.918 1162.5 C 865.747 1145.74 896.655 1087.01 917.095 1093.87 L 920.66 1098.32 C 924.614 1099.64 926.664 1098.25 930.81 1096.79 L 933.32 1099.04 C 929.189 1100.41 924.582 1102.29 921.634 1106.09 C 915.355 1114.19 926.607 1128.39 935.359 1126.1 C 938.884 1125.17 944.749 1113 947.064 1108.88 L 948.97 1109.39 C 956.814 1111.53 966.514 1115.55 970.728 1122.87 C 970.931 1131.09 963.32 1128.38 958.375 1130.18 C 954.973 1133.38 954.407 1136.48 952.85 1140.95 C 950.278 1141.95 946.566 1143.37 944.207 1144.71 C 931.326 1151.91 921.911 1164.02 918.107 1178.28 L 915.962 1178.28 L 911.409 1173.49 C 901.23 1170.29 894.224 1174.04 887.033 1181.3 C 878.47 1174.59 870.833 1168.79 861.918 1162.5 z"/>
<path transform="translate(0,0)" fill="rgb(181,232,237)" d="M 1083.63 1150.59 C 1092.35 1150.22 1090.33 1154.44 1098.61 1157.61 C 1100.76 1157.2 1129.68 1162.68 1132.22 1164.17 C 1133.59 1167.1 1133.57 1165.65 1132.88 1168.56 L 1130.79 1169.59 C 1119.87 1167.54 1111.66 1167.77 1100.98 1165.95 C 1096.62 1165.21 1091.9 1159.94 1088.37 1158.78 C 1086.24 1158.08 1080.24 1158.34 1076.59 1157.8 C 1077.73 1155.64 1081.61 1152.45 1083.63 1150.59 z"/>
<path transform="translate(0,0)" fill="rgb(173,216,139)" d="M 917.095 1093.87 C 930.902 1091.43 938.926 1076.33 954.338 1088.28 C 957.034 1090.37 958.132 1090.35 958.703 1093.59 C 950.628 1098.72 947.285 1091.76 933.32 1099.04 L 930.81 1096.79 C 926.664 1098.25 924.614 1099.64 920.66 1098.32 L 917.095 1093.87 z"/>
<path transform="translate(0,0)" fill="rgb(202,237,159)" d="M 920.66 1098.32 C 923.549 1094.43 929.888 1090.35 934.559 1093.42 L 934.135 1095.31 L 930.81 1096.79 C 926.664 1098.25 924.614 1099.64 920.66 1098.32 z"/>
<path transform="translate(0,0)" fill="rgb(181,232,237)" d="M 898.942 1179.96 C 904.784 1179.34 913.389 1180.91 911.594 1188.64 C 908.636 1190.55 909.29 1189.86 904.728 1189.26 C 899.928 1191.36 895.642 1192.3 893.802 1186.12 C 895.098 1182.18 895.17 1183.11 898.942 1179.96 z"/>
<path transform="translate(0,0)" fill="rgb(181,232,237)" d="M 937.244 1105.9 C 938.148 1106.34 937.517 1105.97 938.754 1107.48 C 937.846 1112.34 935.971 1115.04 932.02 1117.93 C 928.752 1114.28 928.076 1114.54 928.104 1110.69 C 930.267 1108.03 933.909 1107.15 937.244 1105.9 z"/>
<path transform="translate(0,0)" fill="rgb(97,115,131)" d="M 938.58 1075.09 C 932.128 1076.24 931.836 1078.8 923.542 1080.97 C 926.215 1077.88 928.473 1076.98 932.101 1074.92 L 938.58 1075.09 z"/>
<path transform="translate(0,0)" fill="rgb(50,43,50)" d="M 934.268 973.134 C 923.943 961.305 927.664 955.644 938.057 944.991 C 953.45 929.908 983.886 901.571 1002.94 893.754 C 1029.98 890.131 1064.56 915.748 1087.09 928.841 C 1101.31 937.103 1104.87 943.603 1098.34 955.873 C 1090.9 986.091 1082.36 997.731 1060.42 1021.44 C 1055.54 1026.72 1047.43 1030.65 1043.54 1036 C 1022.36 1034.63 1008.99 1034.47 988.047 1038.04 C 987.909 1036.8 987.752 1035.03 986.701 1034.21 C 978.479 1027.8 969.123 1021.24 961.651 1014.01 C 949.387 1002.13 935.074 991.368 934.268 973.134 z"/>
<path transform="translate(0,0)" fill="rgb(121,171,159)" d="M 934.268 973.134 C 949.472 988.36 997.864 1034.15 1021.07 1031.69 C 1037.46 1029.95 1070.28 992.111 1081.84 978.922 C 1085.58 974.655 1093.19 962.313 1097.72 956.639 L 1098.34 955.873 C 1090.9 986.091 1082.36 997.731 1060.42 1021.44 C 1055.54 1026.72 1047.43 1030.65 1043.54 1036 C 1022.36 1034.63 1008.99 1034.47 988.047 1038.04 C 987.909 1036.8 987.752 1035.03 986.701 1034.21 C 978.479 1027.8 969.123 1021.24 961.651 1014.01 C 949.387 1002.13 935.074 991.368 934.268 973.134 z"/>
<path transform="translate(0,0)" fill="rgb(244,208,144)" d="M 1008.63 906.743 C 1020.13 908.118 1079.87 937.074 1083.43 946.352 C 1077.27 954.199 1032.75 976.417 1020.7 984.028 C 1012.74 987.207 955.187 964.294 945.389 959.689 C 956.026 944.795 992.426 916.11 1008.63 906.743 z"/>
<path transform="translate(0,0)" fill="url(#Gradient2)" d="M 1058.81 978.806 L 1060.35 979.681 C 1058.99 988.56 1026.44 1013.92 1018.4 1019 C 1005.6 1012.24 993.307 1004.58 981.607 996.066 C 977.611 992.702 973.644 989.223 969.686 985.808 C 1031.45 1000.36 999.285 1010.65 1058.81 978.806 z"/>
<path transform="translate(0,0)" fill="rgb(121,171,159)" d="M 579.977 1309.86 C 583.706 1300.07 589.527 1288.9 601.685 1290.33 C 615.913 1292.25 630.598 1298.5 644.349 1302.88 C 708.757 1323.36 774.135 1315.54 836.453 1292.01 C 846.94 1288.06 868.33 1278.2 879.028 1277.58 C 878.928 1279.06 877.968 1281.55 877.471 1283.08 C 848.149 1319.06 790.295 1339.98 745.988 1343.8 C 689.701 1348.66 636.317 1335.36 587.493 1307.88 C 586.735 1307.46 581.066 1309.46 579.977 1309.86 z"/>
<path transform="translate(0,0)" fill="rgb(235,213,199)" d="M 676.586 1077.68 C 672.329 1078.79 658.628 1076.37 653.778 1075.28 C 635.268 1071.13 612.752 1058.45 622.778 1036.09 C 627.819 1024.85 641.621 1017.52 652.915 1013.46 C 676.437 1005.17 704.052 1004.39 727.051 1014.84 C 741.492 1021.41 750.951 1034.01 742.595 1049.64 C 735.187 1063.49 716.77 1070.57 702.564 1075.3 C 695.641 1072.01 691.33 1069.75 684.777 1065.79 C 678.341 1070.09 676.977 1069.95 676.586 1077.68 z"/>
<path transform="translate(0,0)" fill="rgb(121,171,159)" d="M 1462.76 1282.49 C 1474.11 1308.87 1419.23 1336.68 1400.02 1344.47 C 1398.31 1345.16 1396.58 1345.83 1394.85 1346.47 C 1393.62 1337.52 1394.34 1328.96 1392.79 1319.05 C 1409.14 1313.42 1453.64 1295.59 1462.76 1282.49 z"/>
<path transform="translate(0,0)" fill="rgb(50,43,50)" d="M 1201.54 751.324 C 1238.07 749.387 1262.34 760.871 1285.9 788.792 C 1318.81 827.797 1323.31 893.449 1293.17 935.095 C 1278.35 955.387 1256.07 968.951 1231.24 972.795 C 1170.6 980.703 1126.9 933.403 1118.78 876.522 C 1110.76 820.255 1141.44 759.441 1201.54 751.324 z"/>
<path transform="translate(0,0)" fill="rgb(255,255,255)" d="M 1242.47 784.096 C 1277.26 782.656 1286.88 836.207 1253.91 847.033 C 1218.62 848.243 1208.51 794.978 1242.47 784.096 z"/>
<path transform="translate(0,0)" fill="rgb(255,255,255)" d="M 1259.9 863.868 C 1264.73 862.883 1269.71 864.63 1272.87 868.417 C 1276.03 872.204 1276.85 877.419 1275.02 881.995 C 1273.18 886.572 1268.98 889.771 1264.08 890.325 C 1256.95 891.13 1250.46 886.182 1249.34 879.097 C 1248.22 872.012 1252.87 865.301 1259.9 863.868 z"/>
<path transform="translate(0,0)" fill="rgb(50,43,50)" d="M 776.163 796.42 C 798.896 796.977 814.562 801.028 833.236 815.102 C 887.38 855.738 894.551 949.808 842.954 995.298 C 826.598 1009.72 809.134 1015.54 787.831 1017.88 C 655.013 1013.68 651.357 804.283 776.163 796.42 z"/>
<path transform="translate(0,0)" fill="rgb(255,255,255)" d="M 808.099 827.184 C 834.677 825.217 846.127 849.021 839.21 872.978 C 836.971 880.734 830.266 885.665 823.079 888.882 C 785.521 891.06 777.655 841.212 808.099 827.184 z"/>
<path transform="translate(0,0)" fill="rgb(255,255,255)" d="M 824.589 906.879 C 831.782 904.685 839.405 908.669 841.71 915.828 C 844.016 922.986 840.15 930.67 833.028 933.086 C 828.322 934.682 823.121 933.618 819.42 930.302 C 815.718 926.987 814.091 921.933 815.162 917.081 C 816.233 912.228 819.836 908.329 824.589 906.879 z"/>
<path transform="translate(0,0)" fill="rgb(255,255,255)" d="M 1212.91 542.345 C 1248.47 541.747 1286.22 555.512 1316.95 576.201 C 1332.83 586.888 1379.71 624.161 1363.94 650.776 C 1360.04 657.354 1349.74 659.726 1342.18 660.813 C 1302.22 662.427 1267.6 643.041 1234.83 622.025 C 1212.98 608.013 1151.7 549.484 1212.91 542.345 z"/>
<path transform="translate(0,0)" fill="rgb(235,213,199)" d="M 1346.68 943.392 C 1362.51 941.466 1388.49 944.711 1401.26 954.227 C 1425.33 972.155 1406.61 994.742 1385.6 1003.55 C 1372.98 1008.84 1365.64 1010.63 1352.24 1012.57 C 1275.86 1022.87 1260.08 952.157 1346.68 943.392 z"/>
<path transform="translate(0,0)" fill="url(#Gradient1)" d="M 1180.41 987.272 C 1181.7 987.433 1185.46 987.809 1185.85 989.124 C 1193.36 1014.45 1198.91 1020.86 1224.17 1028.93 C 1225.8 1029.45 1226.2 1030.7 1226.58 1032.41 C 1220.9 1035.44 1209.78 1039.18 1205.86 1042.14 C 1193.66 1051.36 1190.76 1067.72 1188.52 1081.41 C 1187.13 1081.22 1185.63 1081.03 1184.03 1080.81 C 1179.05 1071.78 1178.59 1061.16 1172.07 1052.02 C 1163.69 1040.25 1149.52 1041.49 1141.88 1034.76 L 1141.86 1033.36 C 1166.5 1023.77 1178.19 1015.79 1180.41 987.272 z"/>
<path transform="translate(0,0)" fill="rgb(255,255,255)" d="M 1183.58 1005.65 C 1184.96 1006.93 1187.83 1011.93 1189 1013.57 C 1196.03 1023.38 1200.55 1026.11 1210.73 1031.6 C 1196.29 1039.78 1192.09 1046.91 1185.64 1061.42 C 1183.82 1061.49 1182.72 1057.99 1181.55 1055.63 C 1175.74 1043.93 1169.72 1039.7 1158.54 1034.15 C 1171.36 1026.49 1178.35 1019.89 1183.58 1005.65 z"/>
<path transform="translate(0,0)" fill="rgb(50,43,50)" d="M 840.697 1023.57 C 841.928 1023.73 843.38 1023.92 845.051 1024.13 C 850.036 1029.86 850.628 1041.7 856.365 1048.47 C 862.834 1056.11 871.289 1053.99 878.133 1060.01 C 879.188 1060.93 878.679 1061.73 878.471 1063.39 C 857.085 1068.85 851.814 1078.28 848.657 1099.44 L 843.921 1099.67 C 840.943 1097.09 841.476 1096.56 840.69 1092.69 C 836.991 1074.49 827.964 1068.89 811.832 1065.47 C 810.534 1063.81 810.998 1064.8 811.19 1062.11 C 814.97 1057.49 824.753 1056.9 828.69 1053.15 C 837.868 1044.41 839.444 1035.12 840.697 1023.57 z"/>
<path transform="translate(0,0)" fill="rgb(255,255,255)" d="M 843.61 1041.53 C 845.509 1042.98 848.526 1048 850.273 1050.26 C 854.337 1055.52 857.417 1057.46 862.851 1060.96 C 853.356 1068.65 851.575 1069.91 845.778 1080.54 L 844.133 1080.37 C 838.506 1072.02 835.237 1068.03 827.184 1062.16 C 835.753 1054.8 839.011 1051.82 843.61 1041.53 z"/>
<path transform="translate(0,0)" fill="rgb(244,208,144)" d="M 1121.74 1555.29 C 1142.88 1550.75 1157.64 1548.16 1179.04 1542.25 C 1179 1556.23 1179.15 1570.73 1178.42 1584.64 C 1178.07 1596.02 1176.66 1624.65 1178.25 1635.35 C 1195.52 1648 1264.65 1671.41 1268.82 1689.6 C 1264.71 1699.61 1224.68 1689.92 1216.03 1686.34 C 1207.3 1682.71 1193.82 1664.32 1185.99 1676.69 C 1185.22 1683.73 1193.92 1690.35 1199.2 1693.92 C 1206.38 1698.77 1232.36 1721.44 1220.6 1730.14 C 1197.68 1734.83 1136.3 1687.24 1122.67 1670.55 C 1121.43 1650.86 1121.24 1612.55 1121.73 1592.35 L 1121.74 1555.29 z"/>
<path transform="translate(0,0)" fill="rgb(226,172,106)" d="M 1121.74 1555.29 C 1142.88 1550.75 1157.64 1548.16 1179.04 1542.25 C 1179 1556.23 1179.15 1570.73 1178.42 1584.64 C 1177.79 1581.08 1178.35 1580.17 1176.23 1578.42 C 1157.74 1583.4 1140.73 1589.08 1121.73 1592.35 L 1121.74 1555.29 z"/>
<path transform="translate(0,0)" fill="rgb(244,208,144)" d="M 874.601 1554.08 C 893.748 1558.04 914.374 1559.59 931.922 1563.43 L 932.099 1606.15 L 932.073 1671.78 C 930.059 1673.92 927.993 1676 925.878 1678.03 C 913.177 1690.15 842.989 1746.03 831.317 1729.38 C 827.189 1704.13 872.45 1691.42 868.601 1678.02 C 864.743 1664.59 843.505 1686.26 834.459 1689.46 C 824.365 1693.03 797.755 1698.36 786.553 1693.76 C 785.702 1692.52 784.834 1691.97 785.099 1690.37 C 787.615 1675.11 860.001 1646.57 874.735 1636.99 C 875.095 1636.75 875.449 1636.51 875.807 1636.27 C 876.244 1624.73 875.94 1613.41 875.52 1601.88 C 874.667 1586.16 874.732 1569.88 874.601 1554.08 z"/>
<path transform="translate(0,0)" fill="rgb(226,172,106)" d="M 874.601 1554.08 C 893.748 1558.04 914.374 1559.59 931.922 1563.43 L 932.099 1606.15 C 913.816 1605.36 896.013 1602.09 878.194 1598.59 C 877.18 1598.39 876.116 1600.91 875.52 1601.88 C 874.667 1586.16 874.732 1569.88 874.601 1554.08 z"/>
<path transform="translate(0,0)" fill="rgb(244,208,144)" d="M 930.753 384.686 C 919.562 355.575 917.483 312.171 930.399 283.079 C 932.587 278.15 934.518 275.508 939.31 273.287 C 942.918 273.062 946.114 274.2 948.648 276.806 C 981.418 310.503 981.294 365.457 976.201 408.562 C 974.778 421.69 970.501 440.597 966.32 453.213 C 949.014 430.842 937.465 412.175 930.753 384.686 z"/>
<path transform="translate(0,0)" fill="rgb(226,172,106)" d="M 930.753 384.686 C 935.829 391.875 938.021 403.259 943.437 412.058 C 951.442 412.138 970.886 413.47 976.201 408.562 C 974.778 421.69 970.501 440.597 966.32 453.213 C 949.014 430.842 937.465 412.175 930.753 384.686 z"/>
<path transform="translate(0,0)" fill="rgb(244,208,144)" d="M 987.14 436.93 C 998.432 410.291 1022.57 383.595 1049.56 372.657 C 1088.91 356.705 1070.28 392.127 1058.18 408.186 C 1049.91 419.17 1040.04 428.848 1028.89 436.896 C 1012.99 449.718 997.904 458.468 977.713 461.588 C 980.717 453.058 983.385 445.19 987.14 436.93 z"/>
<path transform="translate(0,0)" fill="rgb(226,172,106)" d="M 977.713 461.588 C 980.717 453.058 983.385 445.19 987.14 436.93 C 987.94 437.496 988.739 438.063 989.538 438.629 C 1002.94 438.363 1015.37 436.603 1028.89 436.896 C 1012.99 449.718 997.904 458.468 977.713 461.588 z"/>
<path transform="translate(0,0)" fill="rgb(244,208,144)" d="M 921.919 455.866 C 900.95 445.319 883.906 431.821 872.777 410.371 C 870.635 406.242 866.815 395.088 868.364 390.629 C 880.107 384.903 919.833 416.426 928.436 425.996 C 932.88 431.042 950.786 455.842 953.363 461.629 C 950.691 470.21 928.091 459.146 922.975 456.433 L 921.919 455.866 z"/>
<path transform="translate(0,0)" fill="rgb(226,172,106)" d="M 928.436 425.996 C 932.88 431.042 950.786 455.842 953.363 461.629 C 950.691 470.21 928.091 459.146 922.975 456.433 L 921.919 455.866 C 929.121 453.099 930.148 433.119 928.436 425.996 z"/>
</svg>