<svg version="1.1" xmlns="http://www.w3.org/2000/svg" viewBox="258.72 296.42 1403.05 1463.16" width="1403" height="1463">
<defs>
	<linearGradient id="Gradient1" gradientUnits="userSpaceOnUse" x1="1408.03" y1="1211.05" x2="1407.25" y2="1225.08">
		<stop class="stop0" offset="0" stop-opacity="1" stop-color="rgb(98,167,154)"/>
		<stop class="stop1" offset="1" stop-opacity="1" stop-color="rgb(89,142,137)"/>
	</linearGradient>
</defs>
<path transform="translate(0,0)" fill="rgb(48,39,48)" d="M 846.156 479.459 C 839.757 447.052 832.923 419.55 843.398 387.369 C 849.293 369.26 862.298 350.611 880.825 368.72 C 911.019 398.232 911.82 442.353 912.779 481.755 C 923.991 477.055 927.316 475.525 936.037 466.288 C 949.481 452.048 960.473 448.41 979.472 445.24 C 983.95 446.96 986.521 448.345 990.725 450.579 C 1002.82 462.262 986.343 491.839 976.369 501.132 C 972.329 507.78 952.839 521.243 948.381 531.501 C 948.501 533.926 949.042 536.414 952.187 536.596 C 987.9 538.655 1022.61 541.924 1057.81 549.412 C 1244.46 589.121 1414.96 731.167 1449.23 924.606 C 1453.22 947.123 1454.22 975.627 1454.39 998.574 C 1485.74 1009.73 1513.77 1034.58 1518.25 1070.81 C 1518.75 1074.9 1514.08 1087.26 1515.44 1091.2 C 1519.26 1102.34 1533.74 1107.17 1532.86 1120.88 C 1533.15 1134.92 1526.46 1138.61 1517.1 1146.65 C 1510.49 1152.34 1514.35 1172.26 1514.02 1181.06 C 1513.49 1195.47 1512.75 1210.43 1513.31 1224.91 C 1534.13 1225.54 1557.46 1218.5 1577.47 1231.28 C 1589.53 1238.99 1603.83 1254.61 1605.37 1268.83 C 1607.58 1289.17 1606.9 1316.01 1606.91 1336.65 L 1606.91 1475.13 C 1606.91 1514.54 1607.51 1553.93 1607.41 1593.27 C 1607.34 1623.17 1585.63 1642.96 1557.41 1647.79 C 1555.11 1667.9 1551.04 1672.3 1533.77 1682.88 C 1521.46 1683.5 1513.33 1682.09 1504.14 1672.2 C 1498.01 1665.6 1495.26 1657.55 1495.76 1648.51 C 1472.46 1647.61 1446.76 1648.15 1423.22 1648.16 C 1389.74 1648.01 1356.26 1648.15 1322.78 1648.58 C 1323.49 1664.29 1311.97 1680.76 1295.86 1682.82 C 1281.77 1684.63 1268.69 1674.48 1263.2 1662.05 C 1261.8 1658.88 1261.15 1651.63 1260.72 1647.99 C 1241.28 1645.17 1215.77 1628.41 1212.69 1607.68 C 1209.54 1586.45 1211.03 1560.58 1211.06 1538.85 L 1211 1407.97 C 1198.14 1410.64 1172.55 1426.1 1158.2 1432.7 C 1134.62 1443.71 1110.09 1452.56 1084.92 1459.13 C 1084.48 1474.65 1085.04 1491.1 1084.37 1506.5 C 1083.28 1531.72 1082.7 1556.1 1083.02 1581.39 C 1103.77 1590.68 1189.18 1619.6 1152.95 1648.67 C 1140.08 1651.55 1132.41 1650 1119.44 1648.74 C 1124.07 1668.04 1125.94 1673.11 1107.48 1682.84 C 1076.94 1681.29 1030.45 1643.89 1010.29 1621.76 C 1007.7 1607.39 1009.65 1592.55 1009.42 1577.87 C 1008.89 1544.46 1010.76 1510.49 1008.94 1477.12 C 1003.29 1477.27 997.397 1477.78 991.78 1478.49 C 958.111 1482.75 924.986 1482.83 891.128 1483.01 C 891.955 1495.55 892.892 1509.79 892.242 1522.34 C 890.539 1555.2 892.102 1588.1 890.873 1620.92 C 878.77 1638.27 858.913 1652.44 841.606 1664.34 C 818.071 1680.53 765.502 1705.39 781.025 1650.39 C 769.051 1651.19 761.229 1652.36 749.35 1650.46 C 744.543 1646.38 741.523 1643.42 737.121 1638.91 C 737.605 1634.22 738.487 1630.79 739.543 1626.23 C 764.886 1598.79 789.95 1597.71 816.755 1580.14 C 817.244 1574.18 816.67 1568.47 816.434 1562.51 C 815.268 1532.96 815.263 1503.24 814.847 1473.66 C 741.195 1463.36 652.456 1422.96 593.395 1378.36 C 578.633 1367.22 549.626 1338.92 536.174 1333.18 C 534.75 1333.79 530.509 1335.42 529.705 1336.3 C 516.381 1350.83 501.932 1362.92 486.486 1375.19 C 467.69 1389.89 447.006 1402 424.988 1411.19 C 376.145 1432.16 312.914 1427.15 321.173 1357.12 C 328.872 1291.84 360.157 1224.74 389.806 1166.69 C 396.654 1153.29 406.969 1140.89 413.302 1127.37 L 413.88 1126.12 C 412.369 1114.2 407.971 1097.72 405.655 1085.05 C 399.226 1051.64 396.969 1017.56 398.936 983.591 C 411.794 790.313 561.485 634.438 738.61 571.351 C 762.465 562.591 786.999 555.808 811.966 551.072 C 816.212 550.245 835.94 546.874 837.961 545.104 C 837.347 539.836 831.582 535.603 825.599 531.801 C 810.286 522.071 778.098 483.799 796.856 466.836 C 805.441 459.072 830.648 476.287 844.531 479.133 L 846.156 479.459 z M 1480.51 1215.67 C 1482 1194.16 1481.16 1171.19 1481.28 1149.56 C 1477.39 1149.49 1473.4 1149.35 1469.52 1149.45 C 1456.5 1150.58 1427.86 1156.97 1418.88 1166.94 C 1412.86 1173.6 1406.95 1189.61 1404.91 1198.49 C 1412.29 1198.8 1425.75 1198.84 1432.5 1199.75 C 1448.12 1203.3 1466.3 1208.04 1480.51 1215.67 z M 1210.53 1361.25 C 1212.7 1350.95 1210.05 1332.63 1210.19 1322.05 C 1210.48 1301.54 1209.91 1275.51 1214.38 1255.85 C 1210.51 1256.03 1207.38 1255.64 1204.38 1257.84 C 1197.14 1271.64 1201.74 1321.03 1199.98 1338.99 C 1199.02 1348.83 1192.15 1351.26 1187.02 1357.74 C 1186.45 1358.46 1186.07 1365.25 1185.98 1366.74 C 1197.6 1364.09 1197.74 1366.46 1210.53 1361.25 z M 1214.6 1254.91 C 1222.15 1247.61 1230.03 1239.94 1238.08 1233.25 C 1242.88 1229.25 1245.62 1229 1250.46 1224.18 C 1248.93 1221.39 1246.47 1219.4 1244.14 1217.18 C 1231.9 1221.14 1207.96 1234.99 1210.52 1251.51 C 1210.86 1253.64 1212.53 1254.09 1214.6 1254.91 z"/>
<path transform="translate(0,0)" fill="rgb(33,27,34)" d="M 990.725 450.579 C 1002.82 462.262 986.343 491.839 976.369 501.132 C 977.182 497.928 979.733 493.978 981.157 490.635 C 988.828 472.63 990.35 470.003 990.725 450.579 z"/>
<path transform="translate(0,0)" fill="rgb(134,195,178)" d="M 682.862 1418.52 C 508.94 1338.99 389.646 1151.27 414.041 958.071 C 423.462 883.453 458.768 807.483 505.426 748.955 C 605.56 623.345 764.363 553.184 923.544 549.198 C 1067.39 544.237 1207.28 596.875 1312.17 695.438 C 1372.71 753.222 1418.6 830.852 1435.04 913.522 C 1440.24 939.666 1440.73 966.284 1441.32 992.845 C 1433.7 991.64 1423.16 989.316 1417.37 995.257 C 1416.52 999.473 1416.45 997.351 1418.27 1001.79 C 1429.32 1005.34 1441.93 1005.29 1453.54 1009.66 C 1487.57 1022.46 1516.27 1051.14 1500.91 1090.05 C 1481.11 1132.62 1413.53 1167.01 1367.67 1146.45 C 1355.97 1141.2 1346.51 1131.3 1342.09 1119.17 C 1338.8 1110.06 1338.06 1100.23 1339.93 1090.72 C 1340.4 1081.41 1343.24 1072.94 1347.08 1064.38 C 1353.3 1050.54 1365.88 1041.53 1372.66 1028.31 C 1373.75 1026.18 1372.39 1024.29 1371.41 1022.41 C 1363.4 1018.19 1358.32 1025.26 1353.2 1030.98 C 1338.91 1046.95 1327.44 1069.22 1325.52 1090.81 C 1304.48 1091.04 1284.84 1097.81 1286.01 1123.1 C 1286.41 1131.59 1290.33 1139.54 1296.83 1145.04 C 1299.66 1147.46 1303.6 1149.35 1306.95 1151.04 C 1306.58 1175.15 1306.54 1199.26 1306.85 1223.37 C 1304.83 1223.33 1247.21 1222.94 1250.46 1224.18 C 1248.93 1221.39 1246.47 1219.4 1244.14 1217.18 C 1231.9 1221.14 1207.96 1234.99 1210.52 1251.51 C 1210.86 1253.64 1212.53 1254.09 1214.6 1254.91 L 1214.38 1255.85 C 1210.51 1256.03 1207.38 1255.64 1204.38 1257.84 C 1197.14 1271.64 1201.74 1321.03 1199.98 1338.99 C 1199.02 1348.83 1192.15 1351.26 1187.02 1357.74 C 1186.45 1358.46 1186.07 1365.25 1185.98 1366.74 C 1197.6 1364.09 1197.74 1366.46 1210.53 1361.25 C 1210.04 1371.5 1210.13 1381.46 1210.17 1391.71 C 1080.77 1467.47 926.939 1489.78 781.358 1453.89 C 757.735 1447.93 703.318 1430.94 682.862 1418.52 z"/>
<path transform="translate(0,0)" fill="rgb(250,249,235)" d="M 664.815 1327.01 C 665.11 1319.49 666.06 1310.98 667.159 1303.5 C 703.862 1053.52 1090.5 1001.73 1228.82 1190.9 C 1234.98 1199.32 1229.01 1197.13 1227.54 1206.5 C 1231.92 1211.64 1239.01 1202 1244.14 1217.18 C 1231.9 1221.14 1207.96 1234.99 1210.52 1251.51 C 1210.86 1253.64 1212.53 1254.09 1214.6 1254.91 L 1214.38 1255.85 C 1210.51 1256.03 1207.38 1255.64 1204.38 1257.84 C 1197.14 1271.64 1201.74 1321.03 1199.98 1338.99 C 1199.02 1348.83 1192.15 1351.26 1187.02 1357.74 C 1186.45 1358.46 1186.07 1365.25 1185.98 1366.74 C 1197.6 1364.09 1197.74 1366.46 1210.53 1361.25 C 1210.04 1371.5 1210.13 1381.46 1210.17 1391.71 C 1080.77 1467.47 926.939 1489.78 781.358 1453.89 C 757.735 1447.93 703.318 1430.94 682.862 1418.52 C 668.784 1389 665.006 1359.32 664.815 1327.01 z"/>
<path transform="translate(0,0)" fill="rgb(233,214,197)" d="M 664.815 1327.01 C 674.661 1335.48 702.472 1347.59 715.096 1353.3 C 811.064 1397.36 916.769 1415.95 1022.01 1407.26 C 1070.74 1403.59 1118.52 1392.01 1164.55 1375.72 C 1167.62 1374.63 1183.84 1368.35 1185.98 1366.74 C 1197.6 1364.09 1197.74 1366.46 1210.53 1361.25 C 1210.04 1371.5 1210.13 1381.46 1210.17 1391.71 C 1080.77 1467.47 926.939 1489.78 781.358 1453.89 C 757.735 1447.93 703.318 1430.94 682.862 1418.52 C 668.784 1389 665.006 1359.32 664.815 1327.01 z"/>
<path transform="translate(0,0)" fill="rgb(104,170,156)" d="M 1339.93 1090.72 C 1340.08 1117.01 1347.38 1125.23 1373.19 1130.13 C 1409.72 1137.06 1445.2 1125.91 1476.96 1108.18 C 1485.89 1103.19 1491.05 1091.7 1500.91 1090.05 C 1481.11 1132.62 1413.53 1167.01 1367.67 1146.45 C 1355.97 1141.2 1346.51 1131.3 1342.09 1119.17 C 1338.8 1110.06 1338.06 1100.23 1339.93 1090.72 z"/>
<path transform="translate(0,0)" fill="rgb(48,39,48)" d="M 1106.3 790.315 C 1217.8 781.476 1244.82 967.869 1134.1 984.888 C 1081.89 992.734 1042.09 951.299 1034.3 902.301 C 1026.37 852.453 1053.17 798.406 1106.3 790.315 z"/>
<path transform="translate(0,0)" fill="rgb(255,255,255)" d="M 1140.02 820.127 C 1174.27 818.513 1180.67 862.433 1154.57 874.204 C 1122.69 876.162 1112.34 833.928 1140.02 820.127 z"/>
<path transform="translate(0,0)" fill="rgb(255,255,255)" d="M 1155.42 889.882 C 1161.48 887.428 1168.38 890.326 1170.86 896.367 C 1173.35 902.408 1170.5 909.325 1164.47 911.849 C 1158.39 914.394 1151.41 911.508 1148.9 905.417 C 1146.39 899.326 1149.31 892.356 1155.42 889.882 z"/>
<path transform="translate(0,0)" fill="rgb(48,39,48)" d="M 723.462 825.176 C 732.288 824.435 743.571 823.997 752.157 826.083 C 844.325 848.483 850.094 999.963 752.498 1019.83 C 746.472 1020.71 741.313 1021.16 735.233 1020.4 C 652.518 1010.08 625.858 896.095 685.519 843.095 C 697 832.895 708.71 828.238 723.462 825.176 z"/>
<path transform="translate(0,0)" fill="rgb(255,255,255)" d="M 763.405 851.145 C 794.109 850.012 801.744 893.142 774.233 905.579 C 742.149 906.007 735.001 860.903 763.405 851.145 z"/>
<path transform="translate(0,0)" fill="rgb(255,255,255)" d="M 775.2 921.589 C 781.313 919.242 788.185 922.182 790.709 928.225 C 793.233 934.268 790.494 941.222 784.527 943.921 C 780.509 945.738 775.822 945.227 772.291 942.587 C 768.759 939.947 766.942 935.597 767.547 931.229 C 768.152 926.862 771.083 923.169 775.2 921.589 z"/>
<path transform="translate(0,0)" fill="rgb(48,39,48)" d="M 871.283 979.858 C 869.623 977.541 865.512 970.991 867.471 968.282 C 882.259 946.743 909.684 926.831 931.608 913.483 C 947.759 903.649 1016.27 942.532 1022.61 956.706 C 1022.5 961.274 1020.35 964.67 1018.34 968.888 C 1015.41 991.149 971.041 1055.69 945.273 1050.32 C 918.619 1044.77 881.877 1005.5 871.283 979.858 z"/>
<path transform="translate(0,0)" fill="rgb(104,170,156)" d="M 949.015 1034.77 C 975.512 1025.7 1001.3 990.711 1018.34 968.888 C 1015.41 991.149 971.041 1055.69 945.273 1050.32 C 918.619 1044.77 881.877 1005.5 871.283 979.858 C 876.045 983.419 883.478 992.149 888.57 996.544 C 907.249 1012.67 925.427 1027.09 949.015 1034.77 z"/>
<path transform="translate(0,0)" fill="rgb(247,206,137)" d="M 938.693 923.91 C 953.341 925.884 995.303 948.397 1007.11 958.911 C 991.401 969.19 966.803 982.782 950.385 991.427 C 941.887 993.865 893.636 974.574 883.099 969.902 C 890.505 958.332 925.886 930.937 938.693 923.91 z"/>
<path transform="translate(0,0)" fill="rgb(229,170,96)" d="M 983.12 987.881 C 984.228 988.374 983.652 987.953 984.414 989.585 C 979.748 997.956 956.054 1017.98 947.254 1022.5 C 936.688 1015.99 927.006 1010.01 916.811 1002.91 C 912.788 999.922 909.29 996.625 905.571 993.27 C 917.819 995.971 929.214 1001.11 940.902 1004.63 C 951.816 1007.92 972.229 993.032 983.12 987.881 z"/>
<path transform="translate(0,0)" fill="rgb(255,255,255)" d="M 1104.06 610.192 C 1152.6 607.976 1225.78 643.311 1242.92 691.845 C 1247.82 705.717 1236.42 713.151 1224.64 715.939 C 1192.4 717.165 1174 708.158 1145.18 694.126 C 1124.52 684.068 1045.51 623.735 1104.06 610.192 z"/>
<path transform="translate(0,0)" fill="rgb(247,194,191)" d="M 1234.24 957.368 C 1304.88 952.04 1319.65 1006.41 1242.25 1018.67 C 1230.27 1020.68 1204.02 1018.75 1194.82 1010.91 C 1159.12 980.493 1209.4 960.178 1234.24 957.368 z"/>
<path transform="translate(0,0)" fill="rgb(247,194,191)" d="M 649.427 1012.36 C 718.021 1006.58 731.573 1063.86 656.239 1073.63 C 641.339 1075.55 620.815 1073.38 607.925 1065.05 C 596.604 1057.74 593.689 1043.82 602.399 1033.09 C 613.457 1019.47 632.738 1014.41 649.427 1012.36 z"/>
<path transform="translate(0,0)" fill="rgb(134,195,178)" d="M 1223.88 1516.9 L 1223.73 1339.71 C 1223.75 1322.57 1223.47 1305.41 1223.31 1288.31 C 1223.17 1273.38 1223.72 1261.4 1234.31 1249.86 C 1248.4 1234.52 1266.14 1236.83 1284.89 1236.61 C 1304.97 1236.34 1325.06 1236.33 1345.15 1236.59 C 1384.22 1236.85 1424.04 1236.31 1463.17 1236.07 L 1520.13 1235.94 C 1551.06 1235.89 1590.04 1232.11 1593.88 1276.09 C 1595.35 1292.93 1594.73 1312.06 1594.09 1329.01 C 1594.99 1348.8 1594.52 1372.29 1594.48 1392.24 L 1594.4 1494.93 L 1594.52 1562.61 C 1594.54 1574.29 1594.98 1597.61 1592.78 1608.51 C 1584.26 1628.63 1571.68 1635.87 1550.08 1636.1 C 1490.22 1636.74 1430.34 1635.94 1370.48 1636.32 L 1300.92 1636.45 C 1286.27 1636.54 1270.91 1637.17 1256.38 1635.7 C 1242.66 1634.31 1226.47 1617.75 1225.03 1604.27 C 1222.03 1576.03 1223.41 1545.47 1223.88 1516.9 z"/>
<path transform="translate(0,0)" fill="rgb(104,170,156)" d="M 1223.88 1516.9 C 1233.39 1529.55 1261.42 1559.83 1276.02 1563.8 C 1279.93 1565.64 1281.06 1567.29 1284.39 1569.5 L 1284.03 1570.72 L 1285.33 1571.29 C 1360.76 1614.82 1442 1616.59 1526.79 1613.4 C 1542.46 1612.81 1580.88 1607.37 1592.78 1608.51 C 1584.26 1628.63 1571.68 1635.87 1550.08 1636.1 C 1490.22 1636.74 1430.34 1635.94 1370.48 1636.32 L 1300.92 1636.45 C 1286.27 1636.54 1270.91 1637.17 1256.38 1635.7 C 1242.66 1634.31 1226.47 1617.75 1225.03 1604.27 C 1222.03 1576.03 1223.41 1545.47 1223.88 1516.9 z"/>
<path transform="translate(0,0)" fill="rgb(104,170,156)" d="M 1298.28 1309.96 C 1302.58 1310.64 1306.76 1316.04 1309.69 1319.36 C 1311.23 1331.49 1310.78 1346.96 1310.8 1359.46 L 1310.87 1418.18 C 1310.91 1461.64 1312.52 1518.16 1310.75 1560.79 C 1306.94 1566.86 1306.47 1567.41 1300.53 1571.07 C 1297.42 1571 1287.6 1570.41 1285.33 1571.29 L 1284.03 1570.72 L 1284.39 1569.5 C 1284.78 1568.93 1285.18 1568.35 1285.58 1567.78 C 1285.16 1551.48 1284.88 1535.19 1284.99 1518.88 C 1285.4 1454.17 1283.77 1389.03 1285.11 1324.35 C 1290.91 1315.04 1296.72 1316.57 1298.28 1309.96 z"/>

<path transform="translate(0,0)" fill="rgb(75,140,126)" d="M 1276.02 1563.8 C 1274.68 1554.41 1275.24 1530.76 1275.22 1520.54 L 1275.16 1437.87 L 1274.95 1361.95 C 1274.92 1349.01 1274.23 1334.41 1275.58 1321.68 C 1276.76 1310.59 1289.5 1308.51 1298.28 1309.96 C 1296.72 1316.57 1290.91 1315.04 1285.11 1324.35 C 1283.77 1389.03 1285.4 1454.17 1284.99 1518.88 C 1284.88 1535.19 1285.16 1551.48 1285.58 1567.78 C 1285.18 1568.35 1284.78 1568.93 1284.39 1569.5 C 1281.06 1567.29 1279.93 1565.64 1276.02 1563.8 z"/>
<path transform="translate(0,0)" fill="rgb(104,170,156)" d="M 1526.14 1308.49 C 1535.56 1308.54 1540.85 1312.62 1545.48 1320.68 L 1545.36 1463.81 C 1545.49 1492.7 1546.71 1532.37 1544.82 1560.6 C 1538.49 1569.33 1530.1 1574.97 1519.07 1569.8 C 1513.6 1566.83 1512.62 1564.93 1509.23 1559.82 C 1507.42 1520.5 1509.8 1479.06 1508.91 1439.51 C 1508.09 1402.84 1509.22 1365.6 1509.12 1328.88 C 1509.08 1316.07 1514.09 1311.63 1526.14 1308.49 z"/>
<path transform="translate(0,0)" fill="rgb(75,140,126)" d="M 1509.23 1559.82 C 1507.42 1520.5 1509.8 1479.06 1508.91 1439.51 C 1508.09 1402.84 1509.22 1365.6 1509.12 1328.88 C 1509.08 1316.07 1514.09 1311.63 1526.14 1308.49 L 1530.38 1310.96 L 1530.77 1312.58 C 1527.29 1316.37 1519.87 1321.27 1519.4 1325.45 C 1518.4 1334.4 1519.26 1358.95 1518.99 1366.44 C 1518.3 1385.42 1520.59 1565.72 1519.07 1569.8 C 1513.6 1566.83 1512.62 1564.93 1509.23 1559.82 z"/>
<path transform="translate(0,0)" fill="rgb(104,170,156)" d="M 1432.28 1319.6 C 1439.72 1309.95 1443.57 1309.04 1455.33 1310.91 C 1460.57 1311.57 1463.31 1315.34 1466.73 1319.23 C 1468.64 1329.3 1468.03 1345.62 1467.98 1356.28 L 1467.88 1404.74 L 1468.04 1499.71 C 1468.03 1516.37 1467.52 1533.37 1467.72 1549.96 C 1467.9 1565.53 1457.83 1576.9 1441.99 1569.82 C 1434.36 1566.1 1431.38 1560.04 1431.28 1551.77 C 1431.08 1535.23 1431.29 1518.67 1431.36 1502.13 L 1431.52 1411.76 L 1431.33 1356.92 C 1431.27 1346.19 1430.67 1329.76 1432.28 1319.6 z"/>
<path transform="translate(0,0)" fill="rgb(75,140,126)" d="M 1432.28 1319.6 C 1439.72 1309.95 1443.57 1309.04 1455.33 1310.91 L 1454.04 1312.17 C 1444.45 1321.39 1441.17 1319.22 1441.05 1334.45 C 1440.55 1402.64 1441.6 1470.84 1441.05 1539.04 C 1440.97 1549.03 1441.19 1559.87 1441.99 1569.82 C 1434.36 1566.1 1431.38 1560.04 1431.28 1551.77 C 1431.08 1535.23 1431.29 1518.67 1431.36 1502.13 L 1431.52 1411.76 L 1431.33 1356.92 C 1431.27 1346.19 1430.67 1329.76 1432.28 1319.6 z"/>
<path transform="translate(0,0)" fill="rgb(104,170,156)" d="M 1353.11 1561.13 C 1351.54 1509.12 1352.94 1450.68 1352.9 1398.25 L 1352.81 1350.81 C 1352.69 1332.18 1347.94 1303.51 1377.25 1311.04 C 1383.29 1313.68 1384.35 1315.41 1387.89 1321.14 C 1389.8 1367.35 1388.78 1422.5 1388.88 1469.34 L 1389 1523.45 C 1389.05 1534.49 1389.25 1545.27 1388.68 1556.3 C 1388.04 1568.72 1374.14 1575.27 1363.52 1570.81 C 1357.95 1567.82 1356.65 1566.27 1353.11 1561.13 z"/>
<path transform="translate(0,0)" fill="rgb(75,140,126)" d="M 1353.11 1561.13 C 1351.54 1509.12 1352.94 1450.68 1352.9 1398.25 L 1352.81 1350.81 C 1352.69 1332.18 1347.94 1303.51 1377.25 1311.04 C 1372.87 1314.98 1364.12 1318.61 1363.46 1324.78 C 1362.12 1337.25 1362.71 1350.36 1362.56 1362.99 C 1361.96 1398.05 1361.98 1433.11 1362.62 1468.17 C 1362.96 1499.43 1361.36 1540.48 1363.52 1570.81 C 1357.95 1567.82 1356.65 1566.27 1353.11 1561.13 z"/>
<path transform="translate(0,0)" fill="rgb(134,195,178)" d="M 418.49 1142.06 C 444.126 1213.5 473.666 1268.13 526.796 1323.78 C 516.914 1333.56 505.809 1344.87 494.893 1353.46 C 472.734 1372.67 439.888 1393.49 412.086 1403.05 C 394.433 1409.13 368.043 1414.29 350.628 1405.18 C 342.8 1401.09 337.272 1393.82 335.351 1385.41 C 324.77 1339.09 371.48 1222.35 394.228 1183.7 C 401.734 1168.84 409.593 1156.14 418.49 1142.06 z"/>
<path transform="translate(0,0)" fill="rgb(104,170,156)" d="M 418.49 1142.06 C 444.126 1213.5 473.666 1268.13 526.796 1323.78 C 516.914 1333.56 505.809 1344.87 494.893 1353.46 C 454.234 1314.88 430.413 1276.88 408.732 1225.02 C 405.048 1216.21 397.994 1189.4 394.228 1183.7 C 401.734 1168.84 409.593 1156.14 418.49 1142.06 z"/>
<path transform="translate(0,0)" fill="rgb(247,206,137)" d="M 1020.32 1475.48 C 1037.26 1472.36 1056 1468.82 1072.71 1464.52 C 1071.68 1482.31 1072.96 1509.5 1071.15 1525.26 C 1071.27 1544.37 1069.13 1567.64 1070.67 1586.07 C 1085.15 1596.76 1151.03 1619.91 1150.82 1635.15 L 1148.72 1637.11 C 1133.62 1641.78 1109.56 1635.33 1097.5 1626.04 C 1092.47 1622.18 1083.54 1617.28 1078.02 1622.08 C 1076.52 1634.08 1118.64 1655.83 1111.67 1669.57 C 1092.98 1679.19 1033.69 1631.47 1020.78 1618.05 C 1021.42 1585.33 1020.78 1550.68 1020.87 1517.76 C 1020.64 1504.66 1019.84 1488.27 1020.32 1475.48 z"/>
<path transform="translate(0,0)" fill="rgb(229,170,96)" d="M 1020.32 1475.48 C 1037.26 1472.36 1056 1468.82 1072.71 1464.52 C 1071.68 1482.31 1072.96 1509.5 1071.15 1525.26 C 1070.55 1520.42 1070.77 1513.87 1070.76 1508.87 C 1054.42 1511.08 1037.03 1514.51 1020.87 1517.76 C 1020.64 1504.66 1019.84 1488.27 1020.32 1475.48 z"/>
<path transform="translate(0,0)" fill="rgb(247,206,137)" d="M 826.912 1477.56 C 845.587 1480.46 860.951 1480.91 879.282 1482.75 C 879.338 1496.22 879.252 1509.69 879.024 1523.15 L 878.933 1618.28 C 862.431 1637.41 836.166 1654.88 813.717 1666.58 C 807.77 1669.68 792.352 1676.15 788.804 1668.14 C 789.356 1660.77 793.946 1655.01 798.343 1649.4 C 803.351 1643.01 834.167 1628.76 816.594 1620.55 C 808.897 1621.45 802.131 1628.91 795.887 1632.68 C 786.631 1638.28 760.218 1641.2 750.417 1638.38 C 748.199 1635.77 748.802 1637.29 748.93 1633.55 C 757.17 1617.11 812.218 1599.97 827.223 1587.82 C 831.111 1579.74 828.172 1524.71 827.898 1511.88 C 827.543 1500.67 826.982 1488.72 826.912 1477.56 z"/>
<path transform="translate(0,0)" fill="rgb(229,170,96)" d="M 826.912 1477.56 C 845.587 1480.46 860.951 1480.91 879.282 1482.75 C 879.338 1496.22 879.252 1509.69 879.024 1523.15 C 876.301 1519.65 836.804 1514.19 827.898 1511.88 C 827.543 1500.67 826.982 1488.72 826.912 1477.56 z"/>
<path transform="translate(0,0)" fill="rgb(247,206,137)" d="M 855.87 463.785 C 850.374 443.779 842.871 384.636 864.795 372.767 C 874.004 371.797 881.949 386.001 885.977 393.06 C 900.904 419.218 901.275 453.456 899.126 482.486 C 900.664 492.407 893.326 521.008 890.604 531.966 C 875.382 514.66 860.729 486.538 855.87 463.785 z"/>
<path transform="translate(0,0)" fill="rgb(229,170,96)" d="M 855.87 463.785 C 861.329 472.726 863.864 483.069 868.824 492.153 C 877.613 496.335 890.167 504.485 896.332 491.577 C 897.712 488.688 898.056 485.389 899.126 482.486 C 900.664 492.407 893.326 521.008 890.604 531.966 C 875.382 514.66 860.729 486.538 855.87 463.785 z"/>
<path transform="translate(0,0)" fill="rgb(247,206,137)" d="M 913.598 508.065 C 925.463 486.444 946.448 466.152 970.077 457.705 C 974.774 456.026 983.846 455.612 984.479 462.391 C 983.527 478.384 965.446 501.515 953.745 510.182 C 945.517 518.481 916.322 538.284 904.456 535.895 C 898.862 530.434 909.706 513.527 913.598 508.065 z"/>
<path transform="translate(0,0)" fill="rgb(229,170,96)" d="M 913.598 508.065 C 913.023 511.183 912.422 514.295 911.794 517.402 C 920.547 521.841 944.45 512.231 953.745 510.182 C 945.517 518.481 916.322 538.284 904.456 535.895 C 898.862 530.434 909.706 513.527 913.598 508.065 z"/>
<path transform="translate(0,0)" fill="rgb(134,195,178)" d="M 1341.18 1149.68 C 1349.14 1150.64 1360.71 1157.7 1369.03 1160.75 C 1382.27 1165.6 1391.25 1165.39 1405.04 1165.72 C 1399.82 1176.82 1394.33 1187.8 1388.58 1198.63 C 1386.05 1199.45 1376.04 1200.93 1372.5 1201.7 C 1359.45 1204.53 1352.47 1207.89 1340.86 1214.08 C 1340.58 1192.9 1340.08 1170.79 1341.18 1149.68 z"/>
<path transform="translate(0,0)" fill="rgb(247,206,137)" d="M 840.923 529.715 C 827.915 523.432 799.298 493.406 802.544 478.124 C 810.266 470.659 845.429 498.228 852.194 504.458 C 854.429 506.812 857.941 510.118 859.475 512.781 C 866.118 519.949 873.988 531.208 879.981 539.285 C 865.004 540.693 853.395 539.484 840.923 529.715 z"/>
<path transform="translate(0,0)" fill="rgb(229,170,96)" d="M 859.475 512.781 C 866.118 519.949 873.988 531.208 879.981 539.285 C 865.004 540.693 853.395 539.484 840.923 529.715 C 845.093 530.648 847.806 531.177 851.778 532.67 L 853 532.553 C 861.795 520.767 864.301 528.027 859.475 512.781 z"/>
<path transform="translate(0,0)" fill="rgb(237,188,119)" d="M 852.194 504.458 C 854.429 506.812 857.941 510.118 859.475 512.781 C 864.301 528.027 861.795 520.767 853 532.553 L 851.778 532.67 C 855.237 525.618 853.672 512.038 852.194 504.458 z"/>
<path transform="translate(0,0)" fill="url(#Gradient1)" d="M 1402.82 1210.41 C 1422.55 1208.94 1450.3 1212.11 1467.69 1222.48 C 1450.34 1223.2 1431.95 1222.9 1414.5 1222.89 L 1349.29 1223.1 C 1366.88 1213.9 1383.19 1211.71 1402.82 1210.41 z"/>
<path transform="translate(0,0)" fill="rgb(134,195,178)" d="M 1298.74 1126.6 C 1298.18 1112.03 1303.12 1103.51 1318.83 1103.11 C 1321.09 1103.06 1323.36 1103.05 1325.63 1103.06 C 1326.12 1114.25 1326.56 1117.53 1330.78 1128.07 L 1336.39 1139.04 C 1319.38 1139.21 1306.5 1143.73 1298.74 1126.6 z"/>
<path transform="translate(0,0)" fill="rgb(104,170,156)" d="M 1298.74 1126.6 C 1308.76 1127.14 1320.81 1127.97 1330.78 1128.07 L 1336.39 1139.04 C 1319.38 1139.21 1306.5 1143.73 1298.74 1126.6 z"/>
<path transform="translate(0,0)" fill="rgb(134,195,178)" d="M 1489.93 1126.56 C 1496.27 1120.01 1505.31 1107.33 1512.06 1104.62 C 1521.59 1105.23 1521.82 1118.35 1521.67 1125.79 C 1517.1 1143.51 1502.6 1138.57 1488.11 1139.12 C 1484.07 1139.27 1479.84 1139.07 1475.78 1139.05 C 1480.63 1134.48 1484.81 1130.82 1489.93 1126.56 z"/>
<path transform="translate(0,0)" fill="rgb(104,170,156)" d="M 1489.93 1126.56 C 1498.25 1130.23 1513.4 1128.86 1521.67 1125.79 C 1517.1 1143.51 1502.6 1138.57 1488.11 1139.12 C 1484.07 1139.27 1479.84 1139.07 1475.78 1139.05 C 1480.63 1134.48 1484.81 1130.82 1489.93 1126.56 z"/>


<path transform="translate(0,0)" fill="rgb(84,79,85)" d="M 1271.68 1648.94 C 1285.16 1649.21 1298.64 1649.16 1312.12 1648.79 C 1311.41 1656.91 1311.92 1660.24 1306.62 1666.42 C 1289.57 1678.25 1272.38 1670.09 1271.68 1648.94 z"/>
<path transform="translate(0,0)" fill="rgb(84,79,85)" d="M 1505.64 1648.83 C 1515.35 1648.76 1540.37 1645.78 1545.28 1653.58 C 1545.79 1658.53 1543.24 1662.96 1540.38 1666.81 C 1523.91 1679.04 1507.02 1668.95 1505.64 1648.83 z"/>
</svg>