<svg version="1.1" xmlns="http://www.w3.org/2000/svg" viewBox="174.54 296.93 1784.14 1467.99" width="1784" height="1468">
<defs>
	<linearGradient id="Gradient1" gradientUnits="userSpaceOnUse" x1="773.59" y1="545.314" x2="751.004" y2="521.798">
		<stop class="stop0" offset="0" stop-opacity="1" stop-color="rgb(215,166,99)"/>
		<stop class="stop1" offset="1" stop-opacity="1" stop-color="rgb(236,197,132)"/>
	</linearGradient>
	<linearGradient id="Gradient2" gradientUnits="userSpaceOnUse" x1="1579.19" y1="1136.62" x2="1564.96" y2="1124.37">
		<stop class="stop0" offset="0" stop-opacity="1" stop-color="rgb(85,77,89)"/>
		<stop class="stop1" offset="1" stop-opacity="1" stop-color="rgb(105,99,101)"/>
	</linearGradient>
</defs>
<path transform="translate(0,0)" fill="rgb(50,44,50)" d="M 758.609 363.848 C 765.504 363.012 769.767 364.429 776.515 365.935 C 797.419 384.695 809.532 416.345 812.644 443.878 C 813.481 451.279 814.538 472.032 816.788 478.269 C 823.258 478.901 852.915 443.771 880.081 445.424 C 884.237 445.676 887.962 447.205 890.683 450.425 C 895.447 456.063 896.371 465.144 895.386 472.179 C 892.643 491.753 867.25 522.535 851.463 534.078 C 849.595 535.444 848.15 536.769 846.556 538.452 C 847.7 541.415 885.452 543.865 891.996 544.462 C 980.557 552.54 1068.23 585.179 1142.05 634.381 C 1226.17 690.454 1290.63 771.613 1323.24 867.513 C 1329.3 885.308 1334.35 897.202 1337.61 916.242 C 1361.78 916.03 1399.48 914.989 1422.55 916.723 C 1421.35 890.798 1426.11 859.65 1422.52 832.91 C 1421.7 826.723 1424.51 767.831 1428.36 766.796 C 1451.67 760.545 1483.35 766.15 1508.49 763.208 C 1508.31 752.514 1509.95 732.215 1528.59 741.193 C 1534.87 744.214 1536.05 754.772 1537.06 761.368 C 1549.54 765.134 1561.81 765.388 1574.56 761.977 C 1574.62 755.143 1573.8 749.25 1578.62 743.674 C 1583.44 738.096 1590.38 736.882 1596.05 742.429 C 1601.9 748.161 1601.17 754.927 1601.19 762.51 C 1613.43 765.075 1630.7 763.996 1643.49 763.677 C 1644.46 750.941 1646.59 738.175 1661.29 738.214 C 1674.68 738.249 1670.84 761.337 1676.21 763.004 C 1683.09 765.144 1706.17 763.982 1713.68 763.366 C 1716.39 728.538 1740.52 731.525 1742.27 755.277 L 1743 764.981 C 1754.24 763.996 1765.89 763.957 1777.2 763.721 C 1778.65 755.095 1784.37 732.228 1798.87 740.053 C 1806.29 744.058 1807.41 756.323 1808.94 764.174 C 1823.33 764.107 1877.63 761.551 1886.76 767.409 C 1892.6 779.451 1890.83 828.834 1891.05 843.851 C 1891.48 896.01 1891.6 948.172 1891.4 1000.33 L 1891.48 1131.14 C 1891.47 1152.6 1891.72 1174.6 1890.98 1196.05 C 1890.81 1201.27 1888.96 1206.77 1885.83 1211.02 C 1874.33 1215.21 1798.88 1213.39 1780.47 1213.37 L 1620.14 1213.25 L 1506.07 1213.29 C 1497.08 1213.29 1435 1215.37 1431.21 1209.55 C 1419.43 1191.5 1422.04 1150.32 1421.79 1127.74 C 1392.54 1155.08 1353.1 1179.01 1317.89 1197.82 C 1310.47 1214.87 1305.47 1229.98 1296.71 1247.1 C 1256.23 1326.17 1206.48 1377.05 1135.4 1428.03 C 1092.71 1455.6 1050.31 1477.99 1001.75 1493.38 C 1004.55 1522.44 1004.49 1544.1 1003.86 1572.73 C 1026.71 1584.22 1082.55 1596.92 1084.74 1627.9 C 1085.86 1643.68 1055.82 1644.02 1045.87 1646.28 C 1044.29 1646.64 1046.76 1659.77 1044.99 1661.69 C 1030.25 1698.84 965.502 1652.62 947.66 1637.44 C 940.135 1631.04 933.016 1627.47 926.787 1615.18 C 927.549 1579.11 921.312 1550.65 926.342 1513.19 C 887.579 1518.5 847.784 1523.33 808.576 1521.61 C 801.993 1521.33 795.467 1521.09 788.877 1520.92 C 789.356 1532.44 788.592 1548.33 789.407 1559.15 C 791.113 1581.79 792.307 1594.17 791.003 1616.86 C 775.515 1641.62 718.774 1685.82 686.898 1682.82 C 671.108 1681.33 674.196 1661.58 677.02 1650.8 C 662.996 1653.49 642.978 1655.21 634.481 1641.61 C 634.46 1640.26 634.402 1631.58 634.563 1630.91 C 640.383 1606.77 685.362 1594.63 704.012 1581.42 C 705.564 1580.17 708.374 1577.2 708.482 1575.15 C 709.57 1554.56 707.007 1531.79 709.465 1511.29 L 709.643 1509.87 C 622.502 1492.21 532.621 1445.14 465.33 1387.08 C 456.951 1379.85 446.911 1368.77 439.17 1360.53 C 438.821 1360.74 438.464 1360.94 438.122 1361.16 C 431.664 1365.32 405.908 1373.29 396.739 1376.55 C 349.136 1393.47 310.261 1396.38 264.335 1374.63 C 253.481 1357.37 245.159 1349.83 242.547 1326.83 C 240.623 1309.89 244.84 1296.15 248.122 1279.89 C 256.994 1235.94 273.022 1192.79 291.319 1151.94 C 296.786 1139.73 301.319 1127.75 309.616 1117.26 C 312.465 1088.96 304.682 1063.18 304.614 1036.8 C 305.222 977.996 316.838 916.703 339.683 862.325 C 350.25 837.174 364.058 812.738 379.035 790.042 C 439.646 696.723 527.731 624.52 631.129 583.398 C 646.749 577.083 664.802 570.916 681.006 566.414 C 700.966 560.869 719.975 557.244 739.394 549.446 C 719.461 536.141 701.16 524.036 693.131 500.236 C 690.898 493.618 688.122 480.98 692.176 475.113 C 704.536 457.228 732.816 479.641 741.42 476.945 C 741.732 470.963 738.497 463.509 737.5 457.334 C 732.882 428.732 730.167 381.189 758.609 363.848 z"/>
<path transform="translate(0,0)" fill="rgb(143,197,182)" d="M 582.294 1449.36 C 572.914 1445.57 536.991 1423.86 527.865 1417.68 C 425.794 1348.12 357.86 1249.86 331.168 1129.83 C 271.181 860.064 472.523 621.395 730.765 568.501 C 877.193 538.509 1016.62 566.448 1140.97 650.831 C 1233.03 713.299 1301.02 810.758 1322.28 920.595 C 1314.25 920.909 1300.43 919.478 1301.39 931.2 C 1304.16 935.45 1306.74 935.834 1311.79 935.079 C 1359.61 927.912 1409.73 928.354 1457.42 936.084 C 1467.29 937.683 1491.87 946.703 1495.51 956.371 C 1507.33 987.76 1476.87 1031.1 1460.7 1056.78 C 1424.44 1111.75 1380.16 1147.87 1323.62 1180.2 C 1329.35 1159.34 1334.89 1138.09 1337.57 1116.56 C 1338.37 1110.17 1339.1 1101.52 1331.4 1099.96 C 1329.84 1100.64 1326.67 1101.99 1326.34 1104.1 C 1314.15 1181.92 1282.45 1264.47 1229.54 1324.23 C 1219.06 1338.88 1189.31 1369.38 1174.72 1381.08 C 1085.74 1453.79 994.988 1494.02 879.714 1504.89 C 844.135 1508.54 808.284 1508.7 772.674 1505.37 C 704.35 1498.51 643.195 1481.54 582.294 1449.36 z"/>
<path transform="translate(0,0)" fill="rgb(252,251,242)" d="M 560.79 1356.11 C 560.553 1351.79 560.474 1347.46 560.556 1343.14 C 562.082 1270.55 588.096 1212.3 641.019 1161.49 C 782.555 1025.62 1072.96 1045.27 1158.57 1235.71 C 1176.32 1275.18 1179.33 1310.28 1177.82 1352.86 C 1176.93 1362.24 1176.14 1371.78 1174.72 1381.08 C 1085.74 1453.79 994.988 1494.02 879.714 1504.89 C 844.135 1508.54 808.284 1508.7 772.674 1505.37 C 704.35 1498.51 643.195 1481.54 582.294 1449.36 C 569.075 1425.27 562.016 1383.2 560.79 1356.11 z"/>
<path transform="translate(0,0)" fill="rgb(230,215,201)" d="M 560.79 1356.11 C 563.807 1357.41 574.806 1363.7 578.717 1365.71 C 591.734 1372.42 604.905 1378.82 618.22 1384.91 C 776.516 1455.87 972.666 1458.75 1128.5 1380.86 C 1143.41 1373.41 1164.68 1362.84 1177.82 1352.86 C 1176.93 1362.24 1176.14 1371.78 1174.72 1381.08 C 1085.74 1453.79 994.988 1494.02 879.714 1504.89 C 844.135 1508.54 808.284 1508.7 772.674 1505.37 C 704.35 1498.51 643.195 1481.54 582.294 1449.36 C 569.075 1425.27 562.016 1383.2 560.79 1356.11 z"/>
<path transform="translate(0,0)" fill="rgb(119,172,160)" d="M 1177.82 1352.86 C 1186.12 1346.62 1220.52 1323.13 1229.22 1321.77 L 1228.34 1323.73 L 1229.54 1324.23 C 1219.06 1338.88 1189.31 1369.38 1174.72 1381.08 C 1176.14 1371.78 1176.93 1362.24 1177.82 1352.86 z"/>
<path transform="translate(0,0)" fill="rgb(50,44,50)" d="M 1000.51 794.354 C 1108.41 787.099 1139.48 971.323 1021.33 987.673 C 989.188 990.094 965.299 977.066 946.259 951.844 C 905.309 897.598 926.337 803.434 1000.51 794.354 z"/>
<path transform="translate(0,0)" fill="rgb(255,255,255)" d="M 1032.04 823.071 C 1063.66 820.411 1073.47 862.424 1046.19 876.629 C 1013.48 878.678 1003.74 835.002 1032.04 823.071 z"/>
<path transform="translate(0,0)" fill="rgb(255,255,255)" d="M 1049.65 891.687 C 1053.63 890.409 1058 891.374 1061.08 894.212 C 1064.16 897.05 1065.47 901.325 1064.52 905.403 C 1063.57 909.481 1060.51 912.735 1056.49 913.921 C 1050.38 915.727 1043.95 912.279 1042.08 906.188 C 1040.2 900.097 1043.58 893.631 1049.65 891.687 z"/>
<path transform="translate(0,0)" fill="rgb(50,44,50)" d="M 622.559 840.312 C 640.297 838.454 658.14 842.689 673.151 852.32 C 739.489 895.471 734.66 1015.36 647.964 1032.01 C 627.373 1034.53 607.646 1028.82 590.733 1016.95 C 527.033 972.247 538.996 852.504 622.559 840.312 z"/>
<path transform="translate(0,0)" fill="rgb(255,255,255)" d="M 656.249 866.066 C 688.478 864.65 695.204 908.926 669.011 919.159 C 638.838 920.765 628.415 880.518 656.249 866.066 z"/>
<path transform="translate(0,0)" fill="rgb(255,255,255)" d="M 671.948 934.626 C 676.156 933.343 680.729 934.441 683.895 937.495 C 687.061 940.549 688.322 945.08 687.191 949.331 C 686.059 953.582 682.712 956.885 678.447 957.961 C 672.071 959.57 665.576 955.799 663.812 949.464 C 662.048 943.13 665.659 936.545 671.948 934.626 z"/>
<path transform="translate(0,0)" fill="rgb(50,44,50)" d="M 769.232 994.915 C 768.356 993.846 767.489 992.77 766.631 991.687 C 764.549 989.054 760.481 983.852 762.259 980.696 C 773.029 961.576 802.092 939.373 819.721 926.151 C 826.099 921.367 832.135 919.736 839.33 922.068 C 860.445 928.911 897.901 945.948 913.254 962.734 C 915.373 965.051 914.091 969.315 913.374 971.976 C 913.132 979.004 901.831 1002.35 897.125 1009.14 C 887.134 1023.56 861.206 1057.21 841.653 1055.86 C 822.137 1054.52 797.484 1031.09 785.299 1017.24 C 781.996 1013.54 770.208 998.38 769.232 994.915 z"/>
<path transform="translate(0,0)" fill="rgb(119,172,160)" d="M 769.232 994.915 C 777.331 1000.13 788.452 1013.29 797.644 1019.12 C 807.607 1025.45 833.93 1046.85 845.591 1042.66 C 869.527 1034.05 899.976 991.619 913.374 971.976 C 913.132 979.004 901.831 1002.35 897.125 1009.14 C 887.134 1023.56 861.206 1057.21 841.653 1055.86 C 822.137 1054.52 797.484 1031.09 785.299 1017.24 C 781.996 1013.54 770.208 998.38 769.232 994.915 z"/>
<path transform="translate(0,0)" fill="rgb(245,208,148)" d="M 831.516 933.824 C 846.239 934.021 887.668 959.032 899.57 967.681 C 882.822 978.775 860.665 991.706 842.95 1001.07 C 841.995 1001.43 841.039 1001.78 840.084 1002.13 C 823.122 998.114 792.381 987.278 777.384 981.918 C 785.625 969.19 817.95 941.8 831.516 933.824 z"/>
<path transform="translate(0,0)" fill="rgb(239,185,127)" d="M 876.598 996.057 L 877.517 997.407 C 877.281 997.869 876.6 999.458 876.306 999.779 C 846.099 1032.77 847.256 1038.8 810.86 1013.14 C 807.025 1010.16 805.953 1009.41 802.855 1005.78 C 804.97 1003.62 834.008 1014.73 838.904 1014.55 C 853.498 1014.01 863.508 1001.25 876.598 996.057 z"/>
<path transform="translate(0,0)" fill="rgb(255,255,255)" d="M 1006.4 611.302 C 1050.05 608.281 1126.31 645.1 1140.65 690.727 C 1145.04 704.707 1132.51 711.39 1120.72 713.928 C 1084.36 715.086 1057.52 701.988 1027.02 682.986 C 1005.96 669.866 949.935 619.032 1006.4 611.302 z"/>
<path transform="translate(0,0)" fill="rgb(243,198,183)" d="M 1130.08 958.395 C 1200.93 951.612 1210.62 1006.01 1134.22 1019.89 C 1118.37 1021.1 1098.88 1020.89 1086.74 1010.96 C 1062.29 990.972 1089.04 968.334 1109.91 962.4 C 1118.24 960.032 1122.07 959.304 1130.08 958.395 z"/>
<path transform="translate(0,0)" fill="rgb(243,198,183)" d="M 548.578 1026.36 C 615.221 1019.08 628.984 1073.97 555.08 1086.79 C 539.194 1088.2 518.633 1087.81 506.054 1078.17 C 482.989 1060.51 503.631 1038.72 523.91 1032.21 C 533.788 1029.05 538.708 1027.68 548.578 1026.36 z"/>
<path transform="translate(0,0)" fill="rgb(67,57,63)" d="M 1434.14 904.142 L 1879.81 904.054 L 1879.76 1186.97 C 1795.47 1187.55 1711.19 1187.63 1626.91 1187.2 C 1564.32 1187.19 1495.98 1188.64 1433.97 1187.12 C 1433.96 1178.46 1433.68 1168.1 1434.1 1159.57 L 1433.88 1111.54 C 1444.59 1097.91 1454.58 1087.7 1465.5 1072.75 C 1465.99 1071.71 1469.76 1069.1 1470.9 1068.26 C 1471.41 1062.77 1478.54 1053.08 1481.86 1047.96 C 1482.61 1045 1483.19 1044.87 1485.44 1042.79 C 1488.32 1038.47 1491.9 1031.88 1494.6 1027.26 C 1496.31 1023.68 1500.61 1016.01 1500.72 1012.61 C 1501.58 1011.8 1505.28 1009.32 1505.29 1009.22 C 1506.09 1003.82 1506.32 997.921 1508.09 992.216 C 1507.78 987.659 1507.19 988.907 1509.31 985.787 C 1523.22 936.618 1472.25 921.987 1434.28 919.787 L 1434.14 904.142 z"/>
<path transform="translate(0,0)" fill="rgb(255,255,255)" d="M 1434.14 904.142 L 1879.81 904.054 L 1879.76 1186.97 C 1795.47 1187.55 1711.19 1187.63 1626.91 1187.2 C 1564.32 1187.19 1495.98 1188.64 1433.97 1187.12 C 1433.96 1178.46 1433.68 1168.1 1434.1 1159.57 L 1433.88 1111.54 C 1444.59 1097.91 1454.58 1087.7 1465.5 1072.75 C 1465.74 1082.45 1466.89 1106.21 1466.07 1115.3 C 1466.04 1130.59 1465.74 1146.73 1466.04 1161.95 C 1491.33 1162.73 1518.92 1162.11 1544.43 1162.11 L 1673.77 1162.01 C 1686.81 1161.99 1700.49 1162.19 1713.48 1161.91 C 1716.84 1162.41 1722.06 1162.14 1725.63 1162.11 C 1726.42 1144.74 1725.71 1122.75 1725.6 1105.05 C 1767.74 1104.64 1809.88 1104.59 1852.03 1104.92 L 1851.77 1040.77 C 1853.4 1036.71 1858.73 1031.52 1861.27 1027.55 C 1877.47 1002.29 1875.16 964.684 1852.11 944.955 L 1851.39 929.928 C 1791.49 929.394 1731.59 929.326 1671.69 929.725 C 1652.2 929.783 1609.3 928.378 1592.14 930.05 C 1591.9 948.776 1591.91 967.505 1592.16 986.231 C 1574.31 986.127 1556.46 986.117 1538.6 986.202 C 1531.43 986.223 1515.77 986.628 1509.31 985.787 C 1523.22 936.618 1472.25 921.987 1434.28 919.787 L 1434.14 904.142 z"/>
<path transform="translate(0,0)" fill="rgb(230,215,201)" d="M 1465.5 1072.75 C 1465.74 1082.45 1466.89 1106.21 1466.07 1115.3 C 1465.47 1115.67 1463.01 1117.13 1462.3 1118.14 C 1453.6 1130.41 1443.65 1142.35 1435.16 1154.57 C 1435.1 1154.65 1434.13 1159.43 1434.1 1159.57 L 1433.88 1111.54 C 1444.59 1097.91 1454.58 1087.7 1465.5 1072.75 z"/>
<path transform="translate(0,0)" fill="rgb(235,100,70)" d="M 1789.1 934.882 C 1807.51 934.273 1828.16 931.246 1845.98 935.979 C 1848.11 942.343 1846.84 942.008 1852.11 944.955 C 1875.16 964.684 1877.47 1002.29 1861.27 1027.55 C 1858.73 1031.52 1853.4 1036.71 1851.77 1040.77 C 1848.53 1042.12 1847.06 1042.85 1846.23 1046.67 C 1827.04 1058.12 1809.56 1061.43 1788.76 1050.62 L 1787.26 1048.28 C 1779.41 1043.45 1777.86 1043.78 1768.77 1043.28 C 1772.91 1043.22 1773.64 1043.89 1776.69 1042.11 C 1776.66 1038.31 1772.29 1032.78 1769.85 1028.24 C 1768.35 1024.29 1768.3 1024.26 1765.85 1020.8 C 1763.95 1016.97 1763.71 1014.87 1762.78 1010.64 L 1762.13 1009.87 C 1763.48 1005.89 1763.51 1007.88 1761.57 1003.71 L 1761.94 1003.65 C 1763.67 1001.7 1762.85 995.338 1762.81 991.9 L 1764.17 985.834 C 1767.2 977.692 1768.24 967.458 1773.63 959.81 C 1776.42 955.857 1780.29 952.413 1783.35 948.542 L 1784.45 947.143 C 1783.37 942.685 1783.24 939.032 1782.89 934.487 C 1784.14 934.545 1788.11 934.638 1789.1 934.882 z"/>
<path transform="translate(0,0)" fill="rgb(255,255,255)" d="M 1820.38 990.817 L 1846.9 990.933 C 1846.8 1000.59 1846.15 1020.25 1847.17 1029.02 C 1832.19 1046.18 1814.88 1045.42 1794 1040.92 C 1789.91 1038.44 1791.43 1040.09 1789.33 1035.74 C 1788.79 1021.03 1789.02 1005.71 1789.04 990.933 C 1799.49 991.08 1809.94 991.041 1820.38 990.817 z"/>
<path transform="translate(0,0)" fill="rgb(107,56,67)" d="M 1812.49 1005.52 L 1816.41 1007.23 C 1821.07 1005.54 1825.28 1004.86 1830.02 1006.6 L 1831.01 1008.07 C 1827.28 1011.71 1822.37 1009.07 1820.8 1012.36 C 1824.81 1016.29 1833.52 1013.35 1832.75 1024.05 C 1828.96 1029.35 1825.47 1029.72 1819.29 1028.89 L 1812.38 1029.61 C 1809.91 1029.31 1810.05 1029.29 1807.82 1028.14 C 1806.16 1025.04 1807.78 1020.6 1807.45 1015.35 C 1805.48 1013.43 1804.26 1012.73 1803.59 1010.14 C 1805.44 1006.96 1808.84 1006.57 1812.49 1005.52 z"/>
<path transform="translate(0,0)" fill="rgb(107,56,67)" d="M 1812.49 1005.52 C 1813.23 1011.27 1813.43 1024.08 1812.38 1029.61 C 1809.91 1029.31 1810.05 1029.29 1807.82 1028.14 C 1806.16 1025.04 1807.78 1020.6 1807.45 1015.35 C 1805.48 1013.43 1804.26 1012.73 1803.59 1010.14 C 1805.44 1006.96 1808.84 1006.57 1812.49 1005.52 z"/>
<path transform="translate(0,0)" fill="rgb(230,190,198)" d="M 1812.49 1005.52 L 1816.41 1007.23 C 1816.06 1010.97 1815.46 1012.96 1817.16 1016.28 C 1819.7 1018.5 1821.87 1018.23 1825.3 1018.51 C 1827.46 1021.08 1826.53 1019.75 1826.91 1023.99 L 1825.62 1025.35 C 1820.39 1024.29 1817.89 1020.82 1816.03 1021.98 C 1816.51 1026 1816.55 1025.78 1819.29 1028.89 L 1812.38 1029.61 C 1813.43 1024.08 1813.23 1011.27 1812.49 1005.52 z"/>
<path transform="translate(0,0)" fill="rgb(243,198,183)" d="M 1788.76 959.901 C 1790.38 945.453 1823.01 939.135 1833.64 946.508 C 1838.07 949.574 1844.28 949.856 1846.86 955.85 L 1847 985.783 L 1822.8 986.054 C 1812.98 985.462 1799.21 985.809 1789.06 985.801 L 1788.76 959.901 z"/>
<path transform="translate(0,0)" fill="rgb(184,86,61)" d="M 1817.95 965.985 C 1815.19 965.455 1810.48 965.131 1807.6 964.906 L 1806.61 963.177 C 1807.22 957.748 1813.09 947.951 1819.48 949.029 C 1821.45 952.068 1820.78 950.363 1820.76 954.568 C 1825.12 960.098 1827.3 962.801 1822.36 969.338 L 1820.09 970.504 L 1818.41 969.593 L 1817.95 965.985 z"/>
<path transform="translate(0,0)" fill="rgb(138,72,58)" d="M 1820.76 954.568 C 1825.12 960.098 1827.3 962.801 1822.36 969.338 L 1820.09 970.504 L 1818.41 969.593 L 1817.95 965.985 L 1819.06 962.953 C 1817.24 957.825 1817.2 958.098 1820.76 954.568 z"/>
<path transform="translate(0,0)" fill="rgb(67,57,63)" d="M 1783.92 972.772 C 1782.79 967.788 1783.14 963.228 1786.95 959.647 L 1788.76 959.901 L 1789.06 985.801 C 1799.21 985.809 1812.98 985.462 1822.8 986.054 C 1829.88 988.52 1837.25 986.73 1845.06 988.404 C 1837.43 988.743 1827.55 988.788 1820.38 990.817 C 1809.94 991.041 1799.49 991.08 1789.04 990.933 C 1789.02 1005.71 1788.79 1021.03 1789.33 1035.74 C 1791.43 1040.09 1789.91 1038.44 1794 1040.92 C 1792.99 1046.7 1793.61 1047.15 1787.26 1048.28 C 1779.41 1043.45 1777.86 1043.78 1768.77 1043.28 C 1772.91 1043.22 1773.64 1043.89 1776.69 1042.11 C 1776.66 1038.31 1772.29 1032.78 1769.85 1028.24 C 1768.35 1024.29 1768.3 1024.26 1765.85 1020.8 C 1763.95 1016.97 1763.71 1014.87 1762.78 1010.64 L 1765.45 1013.65 C 1775.45 1013.23 1773.81 1003.92 1774.17 995.662 L 1774.82 990.982 C 1775.31 987.979 1775.11 988.056 1777.03 985.762 C 1777.26 981.723 1779.43 974.48 1782.47 971.629 L 1783.92 972.772 z"/>
<path transform="translate(0,0)" fill="rgb(235,121,93)" d="M 1774.17 995.662 C 1775.4 1008.01 1772.92 1021.3 1783.87 1030.13 C 1785.18 1033.3 1785.26 1034.1 1788.01 1036.24 L 1789.33 1035.74 C 1791.43 1040.09 1789.91 1038.44 1794 1040.92 C 1792.99 1046.7 1793.61 1047.15 1787.26 1048.28 C 1779.41 1043.45 1777.86 1043.78 1768.77 1043.28 C 1772.91 1043.22 1773.64 1043.89 1776.69 1042.11 C 1776.66 1038.31 1772.29 1032.78 1769.85 1028.24 C 1768.35 1024.29 1768.3 1024.26 1765.85 1020.8 C 1763.95 1016.97 1763.71 1014.87 1762.78 1010.64 L 1765.45 1013.65 C 1775.45 1013.23 1773.81 1003.92 1774.17 995.662 z"/>
<path transform="translate(0,0)" fill="rgb(230,215,201)" d="M 1774.82 990.982 C 1779.06 991.169 1780.43 990.487 1783.37 992.457 C 1784.58 1000.76 1784.08 1021.15 1783.87 1030.13 C 1772.92 1021.3 1775.4 1008.01 1774.17 995.662 L 1774.82 990.982 z"/>
<path transform="translate(0,0)" fill="rgb(243,198,183)" d="M 1777.03 985.762 C 1777.26 981.723 1779.43 974.48 1782.47 971.629 L 1783.92 972.772 C 1783.97 976.689 1784.65 981.297 1782.49 984.282 C 1780.02 985.571 1779.85 985.408 1777.03 985.762 z"/>
<path transform="translate(0,0)" fill="rgb(85,79,81)" d="M 1846.86 955.85 C 1848.91 957.761 1850.72 959.141 1852.03 961.603 C 1851.98 981.493 1851.61 1002.34 1852.11 1022.16 C 1850.8 1026.06 1850.64 1026.76 1847.17 1029.02 C 1846.15 1020.25 1846.8 1000.59 1846.9 990.933 L 1820.38 990.817 C 1827.55 988.788 1837.43 988.743 1845.06 988.404 C 1837.25 986.73 1829.88 988.52 1822.8 986.054 L 1847 985.783 L 1846.86 955.85 z"/>
<path transform="translate(0,0)" fill="rgb(255,255,255)" d="M 1852.03 961.603 C 1863.58 975.274 1863.12 1008.32 1852.11 1022.16 C 1851.61 1002.34 1851.98 981.493 1852.03 961.603 z"/>
<path transform="translate(0,0)" fill="rgb(50,44,50)" d="M 1782.89 934.487 C 1784.14 934.545 1788.11 934.638 1789.1 934.882 C 1788.71 940.249 1789.49 944.104 1784.45 947.143 C 1783.37 942.685 1783.24 939.032 1782.89 934.487 z"/>
<path transform="translate(0,0)" fill="rgb(255,255,255)" d="M 1640.4 1105.66 C 1644.64 1104.55 1664.26 1104.01 1666.8 1105.2 C 1665.07 1105.7 1663.36 1105.72 1663.15 1106.95 C 1660.89 1119.65 1661.86 1144.49 1661.9 1157.05 L 1657.11 1156.97 C 1650.55 1158.71 1608.2 1157.37 1598.18 1157.17 C 1598.05 1139.96 1598.02 1122.74 1598.1 1105.53 C 1612.2 1105.7 1626.3 1105.74 1640.4 1105.66 z"/>
<path transform="translate(0,0)" fill="rgb(50,44,50)" d="M 1640.4 1105.66 C 1644.64 1104.55 1664.26 1104.01 1666.8 1105.2 C 1665.07 1105.7 1663.36 1105.72 1663.15 1106.95 C 1660.89 1119.65 1661.86 1144.49 1661.9 1157.05 L 1657.11 1156.97 C 1656.75 1140.19 1656.93 1122.65 1656.85 1105.81 L 1640.4 1105.66 z"/>
<path transform="translate(0,0)" fill="rgb(85,79,81)" d="M 1627.61 1123.04 C 1644.52 1105.44 1654.91 1142.92 1630.14 1142.1 L 1627.19 1142.08 C 1620.23 1141.98 1614.83 1141.66 1607.89 1141.06 C 1612.04 1136.24 1619.77 1130.64 1619.91 1124.97 C 1616.25 1123.37 1617.24 1126.03 1611.35 1126.45 C 1609.86 1121.08 1614.51 1119.26 1618.78 1118.64 C 1622.86 1119.82 1622.94 1120.18 1625.81 1123.55 L 1627.61 1123.04 z"/>
<path transform="translate(0,0)" fill="rgb(85,79,81)" d="M 1607.89 1141.06 C 1612.04 1136.24 1619.77 1130.64 1619.91 1124.97 C 1616.25 1123.37 1617.24 1126.03 1611.35 1126.45 C 1609.86 1121.08 1614.51 1119.26 1618.78 1118.64 C 1622.86 1119.82 1622.94 1120.18 1625.81 1123.55 C 1625.38 1130.79 1621.96 1131.05 1621.03 1136.72 C 1625.14 1137.72 1626.26 1137.19 1627.19 1142.08 C 1620.23 1141.98 1614.83 1141.66 1607.89 1141.06 z"/>
<path transform="translate(0,0)" fill="rgb(230,215,201)" d="M 1625.81 1123.55 L 1627.61 1123.04 C 1628.51 1131.7 1629.15 1132.72 1637.55 1133.56 L 1637.57 1135.41 C 1635.68 1137.19 1634.03 1137.15 1631.43 1137.59 C 1629.65 1140.11 1630.2 1138.7 1630.14 1142.1 L 1627.19 1142.08 C 1626.26 1137.19 1625.14 1137.72 1621.03 1136.72 C 1621.96 1131.05 1625.38 1130.79 1625.81 1123.55 z"/>
<path transform="translate(0,0)" fill="rgb(255,255,255)" d="M 1666.8 1105.2 C 1682.53 1106.75 1703.3 1104.72 1720.15 1105.61 C 1720.18 1112.79 1721.7 1153.6 1718.41 1157.23 C 1715.05 1157.87 1714.03 1157.95 1710.59 1158.11 L 1709 1159.12 L 1708.11 1159.14 C 1705.14 1159.24 1704.6 1159.11 1701.84 1160.39 C 1705.52 1160.7 1710 1160.88 1713.48 1161.91 C 1700.49 1162.19 1686.81 1161.99 1673.77 1162.01 C 1674.82 1161.62 1676.14 1160.99 1677.18 1160.52 L 1676.84 1159.49 L 1669.5 1158.11 C 1666.21 1157.88 1665.05 1157.67 1661.9 1157.05 C 1661.86 1144.49 1660.89 1119.65 1663.15 1106.95 C 1663.36 1105.72 1665.07 1105.7 1666.8 1105.2 z"/>
<path transform="translate(0,0)" fill="rgb(10,6,8)" d="M 1669.5 1158.11 C 1683.2 1157.95 1696.89 1157.65 1710.59 1158.11 L 1709 1159.12 L 1708.11 1159.14 C 1705.14 1159.24 1704.6 1159.11 1701.84 1160.39 C 1705.52 1160.7 1710 1160.88 1713.48 1161.91 C 1700.49 1162.19 1686.81 1161.99 1673.77 1162.01 C 1674.82 1161.62 1676.14 1160.99 1677.18 1160.52 L 1676.84 1159.49 L 1669.5 1158.11 z"/>
<path transform="translate(0,0)" fill="rgb(85,79,81)" d="M 1697.07 1118.89 C 1712.15 1117.63 1714.2 1132.6 1704.66 1141.91 C 1688.72 1142.34 1688.37 1128.47 1697.07 1118.89 z"/>
<path transform="translate(0,0)" fill="rgb(255,255,255)" d="M 1698.91 1123.24 C 1707.81 1124.24 1705.12 1132.11 1703.17 1137.79 C 1694.04 1136.33 1696.3 1129.49 1698.91 1123.24 z"/>
<path transform="translate(0,0)" fill="rgb(85,79,81)" d="M 1677.03 1119.03 C 1680.79 1118.9 1685.64 1118.19 1688.02 1121.3 L 1686.92 1128.43 C 1688.87 1131.34 1688.94 1131.35 1690.16 1134.86 C 1689.88 1138.3 1690.09 1138.15 1687.88 1140.74 C 1682.17 1143.57 1677.6 1141.82 1673.84 1137.03 L 1676.01 1135.74 C 1680.07 1136.62 1680.6 1136.97 1684.47 1135.97 L 1685.28 1134.54 C 1682.46 1131.1 1683.39 1132.18 1678.75 1130.38 L 1678.29 1129.18 L 1683.36 1125.84 C 1681.68 1124.51 1679 1124.56 1676.49 1124.18 C 1675.61 1121.48 1676.01 1122.62 1677.03 1119.03 z"/>
<path transform="translate(0,0)" fill="rgb(245,208,148)" d="M 1481.86 1047.96 C 1490.9 1048.22 1511.75 1047.86 1519.34 1048.86 C 1522.68 1048.78 1525.24 1048.31 1528.07 1049.92 C 1529.81 1056.78 1529.05 1090.48 1529 1100.11 C 1522.91 1100.13 1513.2 1100.49 1507.41 1100.14 C 1496.98 1101.14 1481.63 1100.83 1470.98 1100.83 C 1471.14 1092.48 1471.91 1075.95 1470.9 1068.26 C 1471.41 1062.77 1478.54 1053.08 1481.86 1047.96 z"/>
<path transform="translate(0,0)" fill="rgb(209,160,123)" d="M 1481.86 1047.96 C 1490.9 1048.22 1511.75 1047.86 1519.34 1048.86 C 1513.11 1049.52 1502.36 1049.25 1495.78 1049.29 C 1493.68 1054.29 1493.07 1055.77 1489.97 1060.17 L 1491.56 1063.68 L 1484.78 1066.12 C 1484.64 1071.09 1488.99 1072.1 1487.53 1084.08 C 1487.16 1081.43 1486.85 1079.33 1486.33 1076.68 L 1484.46 1075.61 C 1480.45 1078.75 1483.35 1093.45 1477.48 1092.49 C 1476.68 1092.36 1474.49 1092.71 1473.46 1092.89 C 1472.52 1095.21 1472.52 1095.04 1472.55 1097.53 C 1477.48 1101.76 1498.87 1098.98 1507.41 1100.14 C 1496.98 1101.14 1481.63 1100.83 1470.98 1100.83 C 1471.14 1092.48 1471.91 1075.95 1470.9 1068.26 C 1471.41 1062.77 1478.54 1053.08 1481.86 1047.96 z"/>
<path transform="translate(0,0)" fill="rgb(243,198,183)" d="M 1484.78 1066.12 C 1482.75 1061.73 1482.3 1055.34 1484.86 1051.11 C 1489.34 1048.54 1490.21 1049.38 1495.78 1049.29 C 1493.68 1054.29 1493.07 1055.77 1489.97 1060.17 L 1491.56 1063.68 L 1484.78 1066.12 z"/>
<path transform="translate(0,0)" fill="rgb(239,185,127)" d="M 1489.97 1060.17 C 1492.62 1060.81 1494.77 1061.08 1497 1062.62 C 1500.79 1062.81 1504.83 1062.63 1508.12 1064.32 C 1508.2 1065.85 1508.25 1067.03 1507.79 1068.5 C 1505.96 1074.35 1515.65 1079.48 1508.39 1083.67 C 1505.24 1085.49 1501.78 1086.22 1498.43 1086.75 C 1495.53 1087.52 1494.62 1086.92 1491.45 1086.32 L 1487.53 1084.08 C 1488.99 1072.1 1484.64 1071.09 1484.78 1066.12 L 1491.56 1063.68 L 1489.97 1060.17 z"/>
<path transform="translate(0,0)" fill="rgb(184,86,61)" d="M 1497 1062.62 C 1500.79 1062.81 1504.83 1062.63 1508.12 1064.32 C 1508.2 1065.85 1508.25 1067.03 1507.79 1068.5 C 1505.96 1074.35 1515.65 1079.48 1508.39 1083.67 C 1505.24 1085.49 1501.78 1086.22 1498.43 1086.75 C 1496.68 1084.15 1496.66 1084.37 1496.27 1081.29 L 1497.4 1080.46 C 1500.7 1081.01 1502.59 1081.62 1505.82 1080.75 C 1507.45 1078.15 1506.88 1079.58 1506.75 1076.13 L 1505.52 1075.05 L 1500.59 1075.74 L 1498.66 1074.13 L 1498.99 1072.46 C 1501.64 1071.18 1502.26 1071.03 1504.54 1069.09 C 1502.61 1065.44 1502.84 1069.55 1497.42 1065.88 L 1497 1062.62 z"/>
<path transform="translate(0,0)" fill="rgb(184,86,61)" d="M 1491.56 1063.68 C 1493.42 1067.01 1493.89 1082.98 1491.45 1086.32 L 1487.53 1084.08 C 1488.99 1072.1 1484.64 1071.09 1484.78 1066.12 L 1491.56 1063.68 z"/>
<path transform="translate(0,0)" fill="rgb(252,240,195)" d="M 1788.76 1050.62 C 1809.56 1061.43 1827.04 1058.12 1846.23 1046.67 C 1847.83 1056.89 1847.17 1088.1 1847.15 1099.38 C 1828.6 1099.87 1807.55 1100.44 1789.01 1099.7 C 1788.72 1085.77 1787.71 1063.9 1788.76 1050.62 z"/>
<path transform="translate(0,0)" fill="rgb(85,79,81)" d="M 1820.87 1062.32 C 1825.59 1064.71 1824.6 1067.67 1824.97 1072.52 L 1826.39 1072.91 C 1828.76 1069.78 1829.76 1066.87 1831.31 1063.25 L 1832.13 1063.61 C 1832.63 1069.18 1832.3 1072.52 1835.69 1077.19 C 1832.9 1080.21 1833.37 1080.74 1832.82 1084.96 L 1830.62 1086.26 L 1829.37 1085.59 C 1828.84 1082.93 1828.58 1081.75 1827.72 1079.19 C 1823.15 1077.73 1823.06 1080.57 1819.27 1077.76 C 1817.64 1073.12 1819.1 1066.81 1820.87 1062.32 z"/>
<path transform="translate(0,0)" fill="rgb(85,79,81)" d="M 1807.19 1061.86 C 1810.83 1062.52 1810.92 1062.29 1813.69 1064.93 C 1816.76 1073.06 1811.65 1072.25 1809.85 1080.41 C 1813.14 1081.03 1813.44 1081.11 1816.54 1082.39 L 1816.76 1084 C 1813.78 1085.57 1806.86 1084.83 1802.93 1084.76 L 1801.42 1084.5 L 1800.48 1082.89 C 1803.71 1075.33 1812.64 1074.59 1810.85 1068.04 C 1806.08 1066.78 1804.42 1070.27 1800.48 1068.96 C 1801.18 1064.09 1803.26 1064.04 1807.19 1061.86 z"/>
<path transform="translate(0,0)" fill="rgb(239,185,127)" d="M 1725.91 934.977 C 1743.72 934.093 1764.87 934.478 1782.89 934.487 C 1783.24 939.032 1783.37 942.685 1784.45 947.143 L 1783.35 948.542 C 1780.29 952.413 1776.42 955.857 1773.63 959.81 C 1768.24 967.458 1767.2 977.692 1764.17 985.834 L 1725.29 985.961 C 1724.91 968.965 1725.11 951.96 1725.91 934.977 z"/>
<path transform="translate(0,0)" fill="rgb(138,72,58)" d="M 1747.08 949.031 C 1751.68 948.743 1755.11 948.346 1759.24 950.487 C 1760.59 953.792 1760.04 953.059 1758.91 957.389 C 1761.29 963.178 1763.11 966.897 1758.33 971.786 C 1752.87 973.582 1750.49 972.63 1745.33 970.056 L 1745.54 967.207 C 1749.76 965.435 1750.47 968.625 1755.7 967.555 L 1756.47 965.671 C 1754.26 960.62 1751.98 964.24 1750.04 960.019 C 1751.74 958.555 1753.22 957.406 1755.02 956.045 L 1754.91 954.548 C 1750.06 951.036 1749.42 955.797 1745.83 953.098 L 1747.08 949.031 z"/>
<path transform="translate(0,0)" fill="rgb(252,240,195)" d="M 1725.44 991.621 C 1737.9 991.323 1750.36 991.416 1762.81 991.9 C 1762.85 995.338 1763.67 1001.7 1761.94 1003.65 L 1761.57 1003.71 C 1763.51 1007.88 1763.48 1005.89 1762.13 1009.87 L 1762.78 1010.64 C 1763.71 1014.87 1763.95 1016.97 1765.85 1020.8 C 1768.3 1024.26 1768.35 1024.29 1769.85 1028.24 C 1772.29 1032.78 1776.66 1038.31 1776.69 1042.11 C 1773.64 1043.89 1772.91 1043.22 1768.77 1043.28 C 1754.85 1042.86 1739.83 1043.03 1725.81 1042.93 C 1725.18 1025.83 1725.05 1008.72 1725.44 991.621 z"/>
<path transform="translate(0,0)" fill="rgb(85,79,81)" d="M 1761.57 1003.71 C 1763.51 1007.88 1763.48 1005.89 1762.13 1009.87 L 1762.78 1010.64 C 1763.71 1014.87 1763.95 1016.97 1765.85 1020.8 C 1768.3 1024.26 1768.35 1024.29 1769.85 1028.24 C 1760.58 1031.86 1758.82 1031.4 1752.65 1023.32 C 1752.17 1018.12 1752 1016.2 1752.47 1011.04 C 1755.98 1006.81 1756.72 1006.26 1761.57 1003.71 z"/>
<path transform="translate(0,0)" fill="rgb(255,255,255)" d="M 1762.13 1009.87 L 1762.78 1010.64 C 1763.71 1014.87 1763.95 1016.97 1765.85 1020.8 C 1762.94 1024.35 1764.68 1023.43 1761.01 1024.57 L 1758.89 1023.2 C 1756.21 1017.56 1757.32 1013.49 1762.13 1009.87 z"/>
<path transform="translate(0,0)" fill="rgb(85,79,81)" d="M 1749.2 1028.26 C 1748.11 1030.29 1746.62 1029.5 1744.86 1029.28 C 1742.97 1025.1 1744.63 1020.49 1743.73 1015.26 C 1741.23 1014.05 1740.43 1013.83 1738.33 1011.98 C 1739.8 1007.6 1745.13 1004.94 1749.84 1006.92 L 1752.47 1011.04 C 1752 1016.2 1752.17 1018.12 1752.65 1023.32 L 1749.2 1028.26 z"/>
<path transform="translate(0,0)" fill="rgb(255,255,255)" d="M 1749.84 1006.92 L 1752.47 1011.04 C 1752 1016.2 1752.17 1018.12 1752.65 1023.32 L 1749.2 1028.26 C 1749.83 1020.53 1749.89 1014.7 1749.84 1006.92 z"/>
<path transform="translate(0,0)" fill="rgb(255,255,255)" d="M 1508.09 992.216 C 1513.75 992.058 1523.23 992.224 1528.41 991.809 C 1529.46 1000.65 1529.34 1032.59 1528.64 1042.44 C 1520.56 1042.3 1506.44 1044.66 1501.7 1040.78 C 1500.83 1036.73 1501.74 1037.01 1504.07 1032.21 L 1504.11 1029.21 C 1498.89 1029.73 1499.07 1029.83 1494.6 1027.26 C 1496.31 1023.68 1500.61 1016.01 1500.72 1012.61 C 1501.58 1011.8 1505.28 1009.32 1505.29 1009.22 C 1506.09 1003.82 1506.32 997.921 1508.09 992.216 z"/>
<path transform="translate(0,0)" fill="rgb(230,215,201)" d="M 1508.09 992.216 C 1513.75 992.058 1523.23 992.224 1528.41 991.809 C 1517.74 1000.25 1520.96 1025.21 1504.07 1032.21 L 1504.11 1029.21 C 1498.89 1029.73 1499.07 1029.83 1494.6 1027.26 C 1496.31 1023.68 1500.61 1016.01 1500.72 1012.61 C 1501.58 1011.8 1505.28 1009.32 1505.29 1009.22 C 1506.09 1003.82 1506.32 997.921 1508.09 992.216 z"/>
<path transform="translate(0,0)" fill="rgb(184,86,61)" d="M 1494.6 1027.26 C 1496.31 1023.68 1500.61 1016.01 1500.72 1012.61 C 1508.88 1016.49 1515.86 1023.19 1504.11 1029.21 C 1498.89 1029.73 1499.07 1029.83 1494.6 1027.26 z"/>
<path transform="translate(0,0)" fill="rgb(230,215,201)" d="M 1494.6 1027.26 C 1499.07 1029.83 1498.89 1029.73 1504.11 1029.21 L 1504.07 1032.21 C 1501.74 1037.01 1500.83 1036.73 1501.7 1040.78 C 1506.44 1044.66 1520.56 1042.3 1528.64 1042.44 C 1520.86 1043.95 1494.83 1043.09 1485.44 1042.79 C 1488.32 1038.47 1491.9 1031.88 1494.6 1027.26 z"/>
<path transform="translate(0,0)" fill="rgb(255,255,255)" d="M 1608.55 934.541 C 1623.42 934.029 1641.7 933.685 1656.39 934.496 C 1656.8 950.811 1656.27 969.451 1656.21 985.908 L 1644.38 986.007 L 1597.41 986.064 C 1596.85 969.971 1597.34 951.31 1597.37 935.023 L 1608.55 934.541 z"/>
<path transform="translate(0,0)" fill="rgb(67,57,63)" d="M 1625.69 948.312 C 1631.38 951.076 1630.16 966.116 1627.89 970.741 L 1624.29 971.813 C 1624.32 962.421 1624.2 963.352 1621 954.568 C 1621.78 950.908 1622.31 951.478 1625.69 948.312 z"/>
<path transform="translate(0,0)" fill="rgb(255,255,255)" d="M 1534.13 1048.22 C 1548.63 1048.25 1579.49 1047.12 1592.94 1048.94 L 1592.68 1100 C 1573.24 1100.13 1553.81 1100.15 1534.37 1100.05 C 1533.45 1083.99 1533.9 1064.34 1534.13 1048.22 z"/>
<path transform="translate(0,0)" fill="rgb(67,57,63)" d="M 1564.32 1062.31 L 1566.28 1063.32 C 1567.41 1068.05 1565.97 1067.43 1565.27 1073.05 L 1567.06 1073.82 C 1569.46 1071.26 1568.27 1069.81 1570.02 1065.1 L 1571.43 1065.23 C 1576.03 1071.35 1572.13 1071.49 1578.45 1077.99 C 1574.19 1081.57 1574.95 1084.11 1570.61 1086.26 C 1567.12 1084.87 1569.4 1080.83 1566.99 1080.29 C 1562.68 1079.31 1562.8 1081.22 1559.14 1077.98 C 1558.31 1073.67 1562.32 1066.37 1564.32 1062.31 z"/>
<path transform="translate(0,0)" fill="rgb(67,57,63)" d="M 1554.97 1062.67 C 1558.54 1064.94 1559.23 1081.62 1555.54 1085.68 L 1552.27 1085.67 C 1553.47 1074.98 1552.82 1077.6 1549.34 1068.08 C 1550.16 1065.39 1552.5 1064.36 1554.97 1062.67 z"/>
<path transform="translate(0,0)" fill="rgb(255,255,255)" d="M 1662.37 934.434 C 1676.93 933.692 1706.23 933.582 1720.21 934.984 C 1720.28 947.298 1721.01 973.949 1719.68 984.987 L 1718.07 986.175 L 1661.56 986.055 C 1661.47 977.332 1660.42 939.883 1662.37 934.434 z"/>
<path transform="translate(0,0)" fill="rgb(67,57,63)" d="M 1684.79 948.723 C 1690.1 948.516 1691.78 948.423 1695.3 952.608 C 1695.9 956.482 1692.92 961.267 1691.13 965.107 C 1693.26 971.672 1692.32 963.634 1696.76 969.007 L 1696.53 971.356 C 1694.18 972.585 1689.16 972.29 1686.22 972.33 C 1685.1 972.184 1683.17 971.766 1682.01 971.543 L 1681.17 969.973 C 1682.49 964.186 1688.27 961.561 1690.92 955.324 C 1687.33 953.094 1684.93 956.841 1680.79 954.8 C 1681.08 951.963 1682.74 950.838 1684.79 948.723 z"/>
<path transform="translate(0,0)" fill="rgb(255,255,255)" d="M 1534.52 1105.46 C 1553.04 1104.93 1574.13 1105.54 1592.85 1105.64 L 1592.74 1157.17 C 1573.5 1157.51 1553.5 1157.22 1534.21 1157.2 C 1534.38 1139.89 1533.97 1122.85 1534.52 1105.46 z"/>
<path transform="translate(0,0)" fill="url(#Gradient2)" d="M 1568.59 1118.89 C 1584.61 1118.6 1576.7 1122.75 1579.94 1133.11 C 1580.39 1134.52 1580.75 1135.94 1581.09 1137.34 C 1579.75 1140.52 1578.1 1141.05 1575.1 1142.84 C 1571.35 1142.6 1570.68 1142.34 1567.22 1141.3 C 1563.13 1137.11 1566.62 1134.93 1565.72 1130.86 C 1564.02 1123.11 1563.39 1124.68 1568.59 1118.89 z"/>
<path transform="translate(0,0)" fill="rgb(85,79,81)" d="M 1551.09 1133.07 L 1551.88 1132.32 C 1553.92 1130.36 1555.11 1129.66 1555.68 1126.94 C 1552.87 1123.95 1548.55 1126.68 1546.27 1123.91 C 1549.08 1119.8 1553.07 1117.46 1557.93 1119.34 C 1563.16 1126 1559.91 1131.68 1554.74 1136.72 L 1551.09 1133.07 z"/>
<path transform="translate(0,0)" fill="rgb(67,57,63)" d="M 1554.74 1136.72 C 1559.44 1137.29 1559.41 1136.75 1561.6 1139.3 L 1560.54 1140.77 C 1556.14 1142.3 1549.41 1144.26 1546.47 1139.59 C 1546.93 1136.52 1548.8 1135.31 1551.09 1133.07 L 1554.74 1136.72 z"/>
<path transform="translate(0,0)" fill="rgb(255,255,255)" d="M 1533.12 991.995 L 1592.41 991.958 C 1591.87 1009.19 1592.9 1026.29 1592.23 1043.58 C 1574.52 1044.18 1552.18 1043.28 1534.02 1043.07 C 1533.88 1025.99 1533.03 1009.14 1533.12 991.995 z"/>
<path transform="translate(0,0)" fill="rgb(67,57,63)" d="M 1556.31 1006.31 C 1561.58 1006.24 1565.8 1004.84 1567.91 1010.18 C 1567.52 1015.43 1561.89 1024.4 1559.12 1029.81 C 1557.06 1028.65 1557.96 1029.44 1556.49 1027.38 C 1556.99 1021.44 1560.13 1019.42 1561.87 1013.1 L 1560.68 1011.47 C 1557.73 1011.04 1555.7 1011.12 1553.55 1009.14 L 1553.9 1007.65 L 1556.31 1006.31 z"/>
<path transform="translate(0,0)" fill="rgb(255,255,255)" d="M 1603.62 1048.46 L 1656.61 1048.9 C 1656.73 1056.8 1658.22 1094.81 1655.44 1099.39 L 1652.25 1099.93 L 1598.06 1100.06 C 1597.92 1093.15 1595.99 1052.72 1598.99 1048.83 L 1603.62 1048.46 z"/>
<path transform="translate(0,0)" fill="rgb(85,79,81)" d="M 1624.41 1063.21 C 1628.58 1063.09 1634.91 1062.44 1638.47 1064.06 L 1638.92 1066.11 C 1636.48 1068.37 1633.93 1067.84 1629.74 1069.56 C 1633.24 1073.74 1638.15 1071.92 1640.21 1078.06 C 1639.37 1082.03 1638.73 1082.43 1636.12 1085.74 C 1631.61 1086.82 1625.34 1088.16 1623.95 1082.43 C 1627.96 1078.73 1629.53 1082.6 1634.16 1079.46 C 1632.45 1074.15 1628.59 1075.81 1624.49 1073.83 C 1623.07 1070.71 1623.99 1066.79 1624.41 1063.21 z"/>
<path transform="translate(0,0)" fill="rgb(85,79,81)" d="M 1616.82 1062.4 L 1619.41 1063.19 C 1622.37 1067.43 1622.33 1079.81 1620.07 1084.55 C 1619.55 1085.62 1617 1085.81 1615.79 1086.1 C 1616.3 1075.73 1616.94 1077.07 1611.28 1068.55 C 1612.15 1065.45 1613.84 1064.96 1616.82 1062.4 z"/>
<path transform="translate(0,0)" fill="rgb(255,255,255)" d="M 1737.75 1048.53 C 1752.87 1048 1768 1048.15 1783.1 1048.98 C 1783.26 1065.98 1783.71 1082.74 1783.74 1099.81 L 1769.07 1099.87 L 1725.63 1099.96 C 1724.69 1083.75 1725.22 1065.15 1725.37 1048.73 L 1737.75 1048.53 z"/>
<path transform="translate(0,0)" fill="rgb(85,79,81)" d="M 1752.67 1066.52 C 1756.74 1062.75 1761.04 1059.26 1765.97 1063.01 C 1768.8 1068.71 1766.55 1070.6 1770.14 1079.47 C 1769.6 1082.81 1767.51 1084.56 1764.9 1086.76 C 1762.17 1089.05 1753.9 1088.06 1751.07 1086.27 C 1745.95 1084.93 1739.08 1085.14 1733.64 1085.02 C 1736.7 1081.28 1747.09 1072.5 1745.55 1068.03 C 1739.85 1067.47 1743.11 1071.03 1737.1 1070.17 L 1736.35 1068.57 C 1737.01 1064.55 1736.2 1066.27 1738.81 1063.2 C 1745.51 1060.94 1748.47 1063.32 1751.71 1068.63 L 1752.67 1066.52 z"/>
<path transform="translate(0,0)" fill="rgb(85,79,81)" d="M 1733.64 1085.02 C 1736.7 1081.28 1747.09 1072.5 1745.55 1068.03 C 1739.85 1067.47 1743.11 1071.03 1737.1 1070.17 L 1736.35 1068.57 C 1737.01 1064.55 1736.2 1066.27 1738.81 1063.2 C 1745.51 1060.94 1748.47 1063.32 1751.71 1068.63 C 1750.68 1073.85 1748.8 1075.51 1745.62 1079.57 C 1748.76 1082.86 1749.46 1079.31 1751.85 1083.07 L 1751.07 1086.27 C 1745.95 1084.93 1739.08 1085.14 1733.64 1085.02 z"/>
<path transform="translate(0,0)" fill="rgb(230,215,201)" d="M 1751.71 1068.63 L 1752.67 1066.52 C 1756.44 1068.27 1757.73 1067.59 1761.83 1066.87 L 1762.85 1067.87 C 1761.31 1069.92 1759.81 1071.99 1758.35 1074.1 C 1761.98 1077.76 1762.84 1074.42 1765.06 1078.53 C 1762.81 1081.31 1757.78 1080.93 1754.11 1081.18 L 1753.36 1082.13 C 1756.76 1087 1759.17 1086.21 1764.9 1086.76 C 1762.17 1089.05 1753.9 1088.06 1751.07 1086.27 L 1751.85 1083.07 C 1749.46 1079.31 1748.76 1082.86 1745.62 1079.57 C 1748.8 1075.51 1750.68 1073.85 1751.71 1068.63 z"/>
<path transform="translate(0,0)" fill="rgb(252,240,195)" d="M 1661.88 991.718 L 1720.14 991.865 L 1719.89 1042.93 C 1701.23 1043.36 1680.7 1043.01 1661.92 1043.04 C 1661.72 1025.93 1661.71 1008.82 1661.88 991.718 z"/>
<path transform="translate(0,0)" fill="rgb(85,79,81)" d="M 1686.14 1004.89 C 1703.5 1004.99 1702.85 1025.04 1687.28 1031.67 C 1686.06 1030.53 1685.3 1029.65 1684.19 1028.4 C 1685.3 1023.43 1687.73 1027.61 1690.28 1022.6 C 1680.7 1017.44 1675.04 1014.62 1686.14 1004.89 z"/>
<path transform="translate(0,0)" fill="rgb(239,185,127)" d="M 1597.64 991.907 L 1656.16 991.959 C 1656.13 1003.62 1657.11 1032.53 1655.68 1043.06 L 1597.82 1043.09 C 1597.13 1027.18 1597.39 1007.96 1597.64 991.907 z"/>
<path transform="translate(0,0)" fill="rgb(138,72,58)" d="M 1624.46 1004.6 C 1627.67 1005.46 1628.05 1005.99 1630.74 1007.88 C 1632.98 1012.26 1630.84 1013.34 1631.25 1017.78 C 1631.3 1018.41 1633.61 1021.12 1633.93 1024.68 C 1632.58 1027.8 1630.87 1028.51 1628.04 1030.42 C 1623.4 1029.51 1623 1029.42 1618.82 1027.32 C 1616.91 1023.79 1618.28 1021.4 1619.46 1016.96 C 1618.4 1014.06 1618.2 1013.82 1617.91 1010.8 C 1619.83 1007.29 1621 1006.91 1624.46 1004.6 z"/>
<path transform="translate(0,0)" fill="rgb(245,208,148)" d="M 1470.93 1105.71 C 1489.4 1105.22 1510.29 1105.79 1528.94 1105.86 C 1528.62 1122.66 1528.96 1140.2 1529.05 1157.06 C 1509.91 1157.16 1490.77 1157.1 1471.63 1156.88 C 1470.61 1140.46 1470.94 1122.3 1470.93 1105.71 z"/>
<path transform="translate(0,0)" fill="rgb(184,86,61)" d="M 1500.11 1121.17 C 1504.1 1117.6 1513.17 1118.92 1519.1 1119.1 C 1514.68 1125.39 1510.99 1136.5 1507.22 1140.69 L 1505.08 1140.86 L 1504.01 1139.04 C 1503.2 1132.34 1502.98 1127.29 1500.11 1121.17 z"/>
<path transform="translate(0,0)" fill="rgb(239,185,127)" d="M 1500.11 1121.17 L 1501.61 1122.21 C 1503.75 1123.66 1504.19 1123.74 1506.75 1124.5 C 1510.39 1129.27 1506.5 1133.59 1504.01 1139.04 C 1503.2 1132.34 1502.98 1127.29 1500.11 1121.17 z"/>
<path transform="translate(0,0)" fill="rgb(184,86,61)" d="M 1488.75 1118.74 C 1493.69 1118.93 1497 1119.42 1498.65 1124.36 C 1497.84 1129.21 1494.7 1132.05 1491.92 1136.79 C 1494.14 1139.35 1495.9 1135.91 1499.44 1138.86 L 1499.09 1140.98 C 1496.63 1142.48 1490.5 1141.53 1487.25 1141.31 C 1484.99 1140.97 1486.04 1141.4 1484.15 1139.92 C 1484.24 1135.18 1492.29 1131.18 1493.21 1124.97 L 1492.19 1123.9 C 1488.9 1124.87 1487.28 1125.52 1484.13 1126.88 L 1483.43 1126.07 C 1484.5 1121.94 1485.32 1121.68 1488.75 1118.74 z"/>
<path transform="translate(0,0)" fill="rgb(255,255,255)" d="M 1666.69 1048.46 C 1684.45 1048.49 1702.21 1048.64 1719.97 1048.9 C 1720.07 1057.08 1721.28 1094.42 1718.94 1099.38 L 1716.25 1100.01 L 1662.18 1099.93 C 1661.93 1091.69 1660.59 1054.35 1663.28 1049.11 L 1666.69 1048.46 z"/>
<path transform="translate(0,0)" fill="rgb(230,215,201)" d="M 1682.2 1062.56 L 1689.68 1062.74 C 1693.74 1062.73 1697.12 1062.32 1700.83 1063.85 C 1701.93 1066.67 1701.55 1064.15 1701.06 1067.5 C 1699.9 1075.42 1705.38 1076.49 1700.02 1084.46 C 1694.81 1088.12 1689.89 1086.62 1686.83 1081.16 L 1684 1081.84 C 1683.33 1083.86 1683.24 1083.56 1681.88 1085.37 L 1679.64 1085.31 C 1678.15 1082.3 1678.19 1075.44 1677.98 1071.77 L 1674.08 1068.39 L 1674.25 1066.39 C 1676.55 1064.03 1679.02 1063.61 1682.2 1062.56 z"/>
<path transform="translate(0,0)" fill="rgb(85,79,81)" d="M 1689.68 1062.74 C 1693.74 1062.73 1697.12 1062.32 1700.83 1063.85 C 1701.93 1066.67 1701.55 1064.15 1701.06 1067.5 C 1699.9 1075.42 1705.38 1076.49 1700.02 1084.46 C 1694.81 1088.12 1689.89 1086.62 1686.83 1081.16 C 1687.32 1078.72 1686.77 1079.8 1688.52 1077.95 C 1690.98 1078.62 1692.75 1080.17 1694.86 1081.67 L 1696.48 1081.23 L 1697.54 1078.13 L 1696.5 1076.35 C 1693.89 1075.76 1692.11 1075.63 1690.07 1073.92 C 1690.63 1070.53 1693.28 1073.22 1696.44 1068.99 L 1695.52 1067.48 C 1692.34 1067.41 1691.03 1069.08 1687.75 1071.12 L 1687.21 1070.2 L 1689.68 1062.74 z"/>
<path transform="translate(0,0)" fill="rgb(85,79,81)" d="M 1682.2 1062.56 C 1684.64 1068.69 1684.01 1075.13 1684 1081.84 C 1683.33 1083.86 1683.24 1083.56 1681.88 1085.37 L 1679.64 1085.31 C 1678.15 1082.3 1678.19 1075.44 1677.98 1071.77 L 1674.08 1068.39 L 1674.25 1066.39 C 1676.55 1064.03 1679.02 1063.61 1682.2 1062.56 z"/>
<path transform="translate(0,0)" fill="rgb(252,240,195)" d="M 1849.44 774.482 C 1859.52 774.333 1869.57 774.689 1879.65 774.967 C 1881.02 812.873 1879.95 857.668 1879.97 896.06 L 1434.22 896.021 C 1434.02 867.265 1433.98 838.507 1434.07 809.75 C 1433.97 798.149 1434.13 786.548 1434.57 774.955 C 1459.98 774.745 1485.4 774.773 1510.81 775.038 C 1510.6 784.704 1512.34 806.008 1530.48 794.607 C 1535.79 791.274 1535.21 781.106 1535.09 775.054 C 1548.77 774.894 1562.45 774.94 1576.13 775.191 C 1575.98 784.966 1577.93 806.455 1595.89 795.088 C 1601.39 791.611 1600.99 781.3 1600.93 775.016 C 1616.46 774.87 1632 774.885 1647.53 775.061 C 1647.27 784.843 1648.94 806.257 1667.27 794.528 C 1672.35 791.272 1671.76 780.973 1671.66 775.033 C 1686.74 774.87 1701.83 774.945 1716.91 775.257 C 1716.76 780.735 1716.21 790.685 1720.58 793.878 C 1738.67 807.109 1742.02 785.58 1741.95 774.918 C 1755.22 774.596 1768.49 774.62 1781.76 774.988 C 1781.52 784.376 1783.05 805.002 1800.78 794.316 C 1806.28 790.997 1806.11 781 1806.18 774.817 L 1849.44 774.482 z"/>
<path transform="translate(0,0)" fill="rgb(50,44,50)" d="M 1546.16 854.286 C 1549.2 848.723 1554.93 826.341 1561.38 827.567 C 1568.87 833.961 1569.82 861.43 1567.23 870.073 C 1564.75 872.274 1566.24 871.624 1562.36 871.434 C 1559.18 868.726 1560.31 870.361 1559.01 866.249 L 1558.54 847.837 C 1555.84 854.031 1552.92 864.757 1545.57 865.546 C 1539.44 862.333 1537.89 854.628 1535.44 847.913 C 1535.11 858.007 1535.86 863.387 1531.24 872.198 L 1529.12 872.62 C 1522.91 865.872 1525.28 836.608 1528.05 828.741 C 1530.29 828.858 1531.74 829.115 1533.97 829.482 C 1540.85 834.091 1543.45 846.189 1546.16 854.286 z"/>
<path transform="translate(0,0)" fill="rgb(50,44,50)" d="M 1703.44 829.019 C 1727.31 829.598 1728.46 864.414 1707.61 872.09 C 1683.36 869.576 1682.94 835.455 1703.44 829.019 z"/>
<path transform="translate(0,0)" fill="rgb(252,240,195)" d="M 1703.18 837.635 C 1716.53 838.544 1714.39 854.905 1708.34 863.086 C 1694.81 862.185 1697.25 845.567 1703.18 837.635 z"/>
<path transform="translate(0,0)" fill="rgb(50,44,50)" d="M 1586.8 829.092 C 1590.39 829.169 1592.8 828.711 1595.45 830.955 C 1599.29 837.552 1612.38 865.652 1605.4 871.655 C 1602.26 871.568 1602.3 871.824 1599.86 869.975 C 1598.77 867.2 1598.22 865.049 1595.95 862.977 C 1580.37 862.603 1587.08 861.306 1578.92 872.06 C 1562.54 877.36 1583.48 833.434 1586.8 829.092 z"/>
<path transform="translate(0,0)" fill="rgb(245,208,148)" d="M 1590.33 841.783 C 1592.94 845.176 1594.96 850.826 1593.41 854.927 C 1590.72 854.559 1589.58 854.755 1587.62 852.978 C 1586.91 848.757 1588.67 846.278 1590.33 841.783 z"/>
<path transform="translate(0,0)" fill="rgb(50,44,50)" d="M 1760.01 828.866 C 1763.03 829.109 1762.97 829.155 1765.82 830.259 C 1771.41 836.651 1765.15 840.915 1767.53 847.549 C 1770.14 849.568 1769.99 849.813 1773.18 850.159 C 1779.7 845.975 1771.5 830.293 1780.94 829.009 C 1789.46 833.008 1782.15 838.65 1786.14 849.034 C 1788.22 850.593 1788.85 851.319 1790.66 853.222 C 1789.12 856.672 1789.88 855.322 1787.27 857.285 C 1782.41 860.942 1787.85 868.469 1781.66 872.675 C 1774.64 870.614 1775.76 864 1775.71 858.074 C 1772.61 858.051 1768.31 858.091 1765.32 857.529 C 1754.03 855.405 1757.78 836.194 1760.01 828.866 z"/>
<path transform="translate(0,0)" fill="rgb(50,44,50)" d="M 1667.09 829.067 C 1694.25 828.27 1683.58 849.229 1672.06 861.661 C 1673.25 861.615 1674.43 861.586 1675.62 861.572 C 1680.62 861.499 1682.75 861.589 1686.49 865.233 L 1686.11 867.162 C 1679.37 872.509 1675.07 871.107 1666.07 870.748 L 1660.85 869.882 C 1658.18 867.459 1658.95 868.933 1658.55 865.257 C 1661.5 857.391 1675.63 846.985 1675.01 839.757 C 1672.15 837.823 1673.74 838.584 1669.32 838.699 C 1665 841.887 1663.64 843.009 1658.15 841.266 L 1657.38 839.583 C 1659.27 833.503 1661.6 832.318 1667.09 829.067 z"/>
<path transform="translate(0,0)" fill="rgb(50,44,50)" d="M 1734.31 829.143 C 1740.93 828.59 1752.07 829.386 1752.57 838.458 C 1753.1 848.135 1745.53 855.358 1739.55 862.057 C 1744.67 861.912 1753.25 860.475 1754.24 866.997 C 1750.11 872.229 1745.03 870.805 1738.77 870.66 C 1733.46 870.585 1730.11 871.589 1727.01 867.152 C 1726.71 857.385 1745.57 847.63 1744.19 838.86 C 1735.54 835.426 1734.03 842.868 1727.19 841.124 C 1725.67 838.412 1725.77 838.612 1725.93 835.486 C 1728.02 832.153 1730.82 831.108 1734.31 829.143 z"/>
<path transform="translate(0,0)" fill="rgb(50,44,50)" d="M 1622.84 845.329 C 1626.17 839.432 1629.33 831.252 1636.54 830.092 L 1638.02 831.399 C 1638.78 839.502 1634.62 843.377 1629.89 850.406 C 1625.79 856.091 1630.41 867.001 1623.89 871.898 C 1620.28 871.336 1621.98 872.006 1618.91 869.199 C 1617.35 864.753 1617.93 859.372 1618.03 854.512 C 1614.57 849.293 1608.14 840.379 1606.02 834.427 C 1605.14 831.937 1606.94 830.545 1608.46 828.625 C 1617.4 832.283 1617.93 836.201 1622.84 845.329 z"/>
<path transform="translate(0,0)" fill="rgb(143,197,182)" d="M 318.066 1133.64 C 323.281 1153.51 327.007 1170.04 333.702 1189.68 C 355.109 1252.5 385.44 1298.77 427.895 1348.76 C 414.134 1355.68 403.89 1359.75 389.129 1364.81 C 355.868 1375.83 277.523 1390 262.794 1345.31 C 248.812 1302.88 279.198 1219.01 296.086 1178.67 C 300.531 1167.84 311.966 1143.42 318.066 1133.64 z"/>
<path transform="translate(0,0)" fill="rgb(119,172,160)" d="M 318.066 1133.64 C 323.281 1153.51 327.007 1170.04 333.702 1189.68 C 355.109 1252.5 385.44 1298.77 427.895 1348.76 C 414.134 1355.68 403.89 1359.75 389.129 1364.81 C 386.477 1358.08 367.266 1333.64 361.743 1325.87 C 351.224 1310.98 341.95 1295.25 334.017 1278.83 C 325.87 1261.78 318.448 1245.89 311.603 1228.26 C 306.597 1215.36 303.016 1188.37 296.086 1178.67 C 300.531 1167.84 311.966 1143.42 318.066 1133.64 z"/>
<path transform="translate(0,0)" fill="rgb(245,208,148)" d="M 938.921 1509.66 C 956.755 1506.49 971.536 1502.79 988.931 1497.95 C 989.067 1513.22 988.892 1528.48 988.408 1543.73 C 988.225 1553.76 987.501 1570.42 988.656 1579.95 C 1005.92 1591.49 1062.98 1610.18 1070.75 1626.16 C 1068.92 1636.29 1034.17 1627.6 1027.3 1625.79 C 1019.37 1623.71 1008.85 1611.35 1001.08 1613.03 C 997.469 1615.99 998.304 1614.22 997.484 1617.95 C 1001.93 1630.26 1032.82 1643.85 1032.61 1659.49 C 1020.66 1678.46 951.434 1624.55 941.06 1611.75 L 939.801 1546.12 C 939.385 1534.04 939.205 1521.76 938.921 1509.66 z"/>
<path transform="translate(0,0)" fill="rgb(239,185,127)" d="M 938.921 1509.66 C 956.755 1506.49 971.536 1502.79 988.931 1497.95 C 989.067 1513.22 988.892 1528.48 988.408 1543.73 L 987.276 1537.93 C 983.668 1536.78 946.485 1544.65 939.801 1546.12 C 939.385 1534.04 939.205 1521.76 938.921 1509.66 z"/>
<path transform="translate(0,0)" fill="rgb(245,208,148)" d="M 722.92 1511.99 C 742.726 1515.73 755.219 1516.41 774.194 1519.19 L 774.847 1558.58 C 775.392 1576.99 776.179 1595.77 775.76 1614.15 C 765.672 1629.56 709.28 1674.42 690.82 1670.44 C 673.158 1655.6 722.835 1634.67 720.558 1622.32 C 719.214 1620.87 716.5 1617.96 713.502 1619.35 C 702.898 1624.25 693.001 1633.36 681.148 1635.64 C 671.686 1637.46 654.584 1643.73 648.136 1634.69 C 648.515 1622.37 713.513 1593.47 726.511 1586.03 C 726.314 1573.31 725.315 1559.52 724.592 1546.73 C 723.41 1538.06 723.246 1521.4 722.92 1511.99 z"/>
<path transform="translate(0,0)" fill="rgb(239,185,127)" d="M 722.92 1511.99 C 742.726 1515.73 755.219 1516.41 774.194 1519.19 L 774.847 1558.58 L 773.315 1552.19 C 768.786 1550.43 730.236 1544.07 725.724 1544.33 L 724.592 1546.73 C 723.41 1538.06 723.246 1521.4 722.92 1511.99 z"/>
<path transform="translate(0,0)" fill="rgb(245,208,148)" d="M 764.511 492.706 C 750.211 459.829 742.107 418.911 756.978 384.836 C 758.729 380.822 759.935 379.096 763.964 377.574 C 769.213 378.341 773.08 381.789 776.298 385.869 C 799.25 414.976 801.84 456.137 798.913 491.335 C 798.87 501.656 794.506 525.121 791.606 535.655 C 783.447 525.326 769.198 504.633 764.511 492.706 z"/>
<path transform="translate(0,0)" fill="rgb(239,185,127)" d="M 795.023 504.427 C 795.93 500.363 796.706 494.397 798.913 491.335 C 798.87 501.656 794.506 525.121 791.606 535.655 C 783.447 525.326 769.198 504.633 764.511 492.706 C 771.15 497.584 770.852 504.106 780.567 503.272 C 784.381 502.945 791.083 503.956 795.023 504.427 z"/>
<path transform="translate(0,0)" fill="rgb(230,215,201)" d="M 1657.21 1194.51 L 1815.07 1194.15 C 1824.54 1194.14 1873.37 1193.03 1879.06 1194.9 C 1881.27 1198.23 1881.13 1196.63 1880.52 1199.73 C 1877.64 1202.59 1871.65 1203.6 1867.85 1203.6 C 1846.78 1203.58 1825.28 1203.43 1804.24 1203.44 L 1661.5 1203.35 L 1509.81 1203.34 C 1499.69 1203.34 1446.51 1204.38 1440.86 1202.44 C 1438.34 1200.21 1438.51 1199.75 1437.57 1196.53 L 1438.43 1195.32 C 1449.98 1193.82 1493.63 1194.92 1507.53 1194.91 L 1657.21 1194.51 z"/>
<path transform="translate(0,0)" fill="rgb(245,208,148)" d="M 812.18 513.91 C 824.635 491.707 844.909 468.328 869.655 460.133 C 885.997 454.722 883.879 470.175 878.844 479.911 C 870.027 496.963 858.184 510.064 843.231 521.841 C 829.932 533.309 817.988 539.415 801.604 545.084 C 804.052 532.344 806.819 525.822 812.18 513.91 z"/>
<path transform="translate(0,0)" fill="rgb(239,185,127)" d="M 812.18 513.91 C 812.855 516.585 812.825 518.749 815.46 519.969 C 822.236 523.105 836.335 523.424 843.231 521.841 C 829.932 533.309 817.988 539.415 801.604 545.084 C 804.052 532.344 806.819 525.822 812.18 513.91 z"/>
<path transform="translate(0,0)" fill="rgb(245,208,148)" d="M 743.885 534.614 C 734.711 530.141 725.2 521.994 718.378 514.428 C 713.249 508.74 697.301 488.454 706.23 482.006 C 716.775 482.046 744.424 500.518 752.275 508.003 C 758.623 513.383 779.428 537.316 780.378 545.432 C 776.151 552.235 749.725 538.082 743.885 534.614 z"/>
<path transform="translate(0,0)" fill="url(#Gradient1)" d="M 752.275 508.003 C 758.623 513.383 779.428 537.316 780.378 545.432 C 776.151 552.235 749.725 538.082 743.885 534.614 C 747.261 535.183 748.423 535.295 751.849 535.424 C 754.802 530.357 755.205 513.639 752.275 508.003 z"/>
<path transform="translate(0,0)" fill="rgb(230,215,201)" d="M 1251.72 510.908 C 1253.36 510.902 1259.43 511.606 1260.33 512.733 C 1263.73 517.034 1264.42 526.877 1260.62 531.009 C 1252.14 527.255 1254.2 517.345 1247.52 517.571 C 1245.22 520.528 1243.63 526.436 1242.3 530.272 C 1239.8 535.092 1235.67 541.984 1229.84 542.487 L 1228.67 540.684 C 1228.47 527.579 1240.75 516.307 1251.72 510.908 z"/>
<path transform="translate(0,0)" fill="rgb(230,215,201)" d="M 575.696 469.644 C 577.125 470.963 576.491 470.268 577.149 472.477 C 576.887 473.121 576.633 473.769 576.387 474.42 C 573.637 481.712 577.34 485.519 580.926 493.601 C 577.07 496.18 576.545 497 573.419 500.571 C 569.558 500.69 567.688 501.565 565.598 499.673 C 564.862 492.702 571.913 475.04 575.696 469.644 z"/>
<path transform="translate(0,0)" fill="rgb(230,215,201)" d="M 1237.24 492.448 C 1240.68 493.286 1242.56 495.298 1246.55 494.495 C 1254.43 492.908 1256.08 499.852 1258.75 505.664 L 1257.19 507.543 C 1248.52 507.65 1241.02 499.574 1237.24 492.448 z"/>
</svg>