<svg version="1.1" xmlns="http://www.w3.org/2000/svg" viewBox="389 259 1259 1551" width="1259" height="1551">
<path transform="translate(0,0)" fill="rgb(42,34,42)" d="M 966.944 291.016 C 989.139 289.865 1001.24 309.028 1009.21 326.952 C 1023.86 359.915 1024.16 397.275 1021.32 432.635 C 1041.14 411.343 1065.3 388.235 1096.51 388.14 C 1112.04 387.842 1117.52 396.549 1115.74 411.34 C 1111.25 448.813 1079.09 468.915 1052.98 490.252 C 1156.65 494.531 1257.75 523.886 1347.59 575.803 C 1620.79 734.24 1707.92 1070.04 1506.06 1323.84 C 1421.5 1430.14 1308.85 1495.14 1178.42 1529.56 C 1177.9 1569.61 1176.53 1608.15 1175.22 1648.18 C 1199.6 1663.1 1242.06 1675.26 1260.86 1697.95 C 1263.83 1701.85 1267.55 1709.59 1266.05 1714.65 C 1259.54 1736.73 1229.32 1730.31 1214.1 1727.35 C 1233.86 1767.26 1202.33 1771.78 1172.43 1758.34 C 1146.66 1746.76 1122.42 1727.96 1101.69 1708.93 C 1088.7 1697.01 1091.62 1685.27 1091.41 1669.42 C 1091.33 1661.84 1091.58 1654.21 1091.65 1646.63 L 1091.93 1568.93 L 1068.62 1581.37 C 1053.41 1588.46 1041.41 1594.46 1025.22 1599.09 C 1000.65 1591.02 977.35 1578.36 954.768 1566 C 955.43 1606.96 955.72 1654.77 954.736 1695.67 C 943.454 1716.54 904.983 1740.59 883.825 1752.89 C 857.26 1768.34 806.984 1779.39 828.792 1728.61 C 814.831 1730.3 787.811 1734.96 780.711 1719.24 C 766.061 1686.8 848.95 1658.26 869.947 1648.58 C 868.98 1611.27 868.326 1573.96 867.987 1536.64 C 776.27 1511.92 703.576 1480.78 627.082 1422.01 C 516.919 1337.52 441.744 1216.69 424.561 1077.83 C 386.696 771.84 653.815 531.987 939.415 496.955 C 917.26 481.611 891.817 461.149 886.324 433.617 C 875.634 380.041 932.017 415.88 949.242 428.927 C 947.213 421.734 945.057 414.036 943.349 406.805 C 936.025 375.798 932.686 308.64 966.944 291.016 z"/>
<path transform="translate(0,0)" fill="rgb(135,195,178)" d="M 492.51 805.723 C 563.836 672.389 696.586 576.599 839.714 533.066 C 1001.64 482.87 1176.96 500.085 1326.03 580.818 C 1445.05 644.52 1543.07 754.912 1582.22 885.134 C 1617.01 1003.7 1603.23 1131.24 1543.91 1239.64 C 1531.21 1263.21 1500.46 1308.86 1482.44 1327.6 C 1469.58 1346.23 1414.47 1398.01 1395.03 1409.73 C 1397.39 1399.03 1398.32 1390.16 1399.46 1379.35 L 1398.93 1378.2 L 1399.15 1376.71 C 1400.3 1370.41 1399.73 1349.49 1398.15 1343.24 C 1441.53 1332.15 1485.49 1303.17 1503.38 1259.7 C 1504.42 1257.19 1503.82 1254.54 1502.54 1252.24 C 1491.7 1244.29 1484.75 1262.99 1479.6 1270.61 C 1469.74 1287.09 1448.63 1304.37 1431.9 1313.51 C 1395.14 1333.67 1351.87 1338.39 1311.62 1326.61 C 1275.02 1315.52 1232.33 1290.51 1213.61 1255.84 C 1209.69 1249.28 1206.85 1237.52 1207.72 1230.19 C 1214.36 1174.03 1320.47 1143.35 1364.9 1126.36 C 1374.04 1122.33 1385.26 1119.65 1393.54 1114.13 C 1400.31 1109.62 1394.06 1098.56 1386.54 1101.66 C 1364.01 1110.95 1341.28 1119 1318.28 1127.05 C 1317.88 1078.24 1323.06 1078.36 1275.75 1060.84 C 1218.31 1039.58 1164.47 1025.57 1103.57 1018.25 L 1087.81 1016.54 C 1092.57 1009.45 1111.16 988.142 1117.64 980.952 C 1119.14 977.483 1122.37 971.141 1120.12 968.268 C 1104.61 948.401 1064.98 926.771 1042.1 917.595 C 1032.92 914.2 1025.35 914.002 1016.73 919.301 C 993.486 933.603 960.961 953.147 946.155 976.205 C 940.965 984.287 970.867 1010.26 976.428 1016.62 C 953.398 1018.2 930.345 1019.91 907.571 1023.82 C 877.259 1029.03 755.164 1059.39 737.649 1079.52 C 731.297 1086.81 733.077 1116.81 732.147 1127.24 C 709.687 1119.27 687.337 1111.32 665.509 1101.73 C 660.949 1099.73 654.987 1102.76 652.947 1107.25 C 655.039 1117.88 684.64 1125.35 694.671 1129.38 C 747.657 1150.65 889.955 1190.92 827.555 1271.1 C 782.41 1328.87 684.653 1351.86 620.944 1314.51 C 595.592 1299.65 579.945 1287.87 565.819 1261.48 L 563.076 1255.91 C 560.602 1250.2 557.599 1247.95 551.066 1250.78 C 546.672 1254.86 547.564 1260.91 550.174 1265.78 C 579.761 1320.96 633.368 1344.4 693.006 1348.81 C 688.148 1389.76 688.972 1411.16 697.745 1451.18 C 683.718 1445.28 653.299 1422.83 640.637 1413.26 C 551.856 1347.44 486.666 1254.74 454.748 1148.93 C 419.301 1030.2 433.882 913.969 492.51 805.723 z"/>
<path transform="translate(0,0)" fill="rgb(111,164,152)" d="M 697.745 1451.18 C 683.718 1445.28 653.299 1422.83 640.637 1413.26 C 551.856 1347.44 486.666 1254.74 454.748 1148.93 C 419.301 1030.2 433.882 913.969 492.51 805.723 C 492.566 806.063 492.627 806.402 492.679 806.742 C 494.55 819.029 483.029 856.187 480.852 872.922 C 471.059 948.249 476.556 1024.78 497.015 1097.93 C 509.143 1141.18 531.014 1193.33 558.994 1228.89 C 562.854 1233.79 574.385 1244.79 570.379 1251.24 C 567.043 1252.62 565.134 1252.98 563.076 1255.91 C 560.602 1250.2 557.599 1247.95 551.066 1250.78 C 546.672 1254.86 547.564 1260.91 550.174 1265.78 C 579.761 1320.96 633.368 1344.4 693.006 1348.81 C 688.148 1389.76 688.972 1411.16 697.745 1451.18 z"/>
<path transform="translate(0,0)" fill="rgb(111,164,152)" d="M 1213.61 1255.84 C 1290.77 1312.53 1378.82 1313.54 1463.78 1272.32 C 1468.96 1269.81 1476.19 1264.54 1479.6 1270.61 C 1469.74 1287.09 1448.63 1304.37 1431.9 1313.51 C 1395.14 1333.67 1351.87 1338.39 1311.62 1326.61 C 1275.02 1315.52 1232.33 1290.51 1213.61 1255.84 z"/>
<path transform="translate(0,0)" fill="rgb(111,164,152)" d="M 565.819 1261.48 C 569.992 1264.3 570.613 1264.23 575.691 1265.3 C 630.025 1297.68 697.994 1310.24 759.744 1294.4 C 772.395 1291.17 784.777 1286.96 796.778 1281.82 C 805.636 1277.97 814.295 1273.59 823.005 1269.42 C 824.522 1269.98 826.038 1270.54 827.555 1271.1 C 782.41 1328.87 684.653 1351.86 620.944 1314.51 C 595.592 1299.65 579.945 1287.87 565.819 1261.48 z"/>
<path transform="translate(0,0)" fill="rgb(111,164,152)" d="M 1399.46 1379.35 C 1402.1 1373.37 1416.69 1368.34 1422.63 1364.27 C 1442.74 1350.48 1464.07 1337.12 1481.62 1320.14 C 1483.6 1318.24 1480.68 1319.65 1483.74 1318.52 C 1483.44 1321 1483.4 1321.91 1482.53 1324.27 L 1481.95 1325.81 L 1482.44 1327.6 C 1469.58 1346.23 1414.47 1398.01 1395.03 1409.73 C 1397.39 1399.03 1398.32 1390.16 1399.46 1379.35 z"/>
<path transform="translate(0,0)" fill="rgb(125,177,167)" d="M 1087.81 1016.54 C 1092.57 1009.45 1111.16 988.142 1117.64 980.952 C 1117.11 989.168 1110.23 1007.49 1104.79 1013.87 C 1103.52 1015.36 1103.55 1016.33 1103.57 1018.25 L 1087.81 1016.54 z"/>
<path transform="translate(0,0)" fill="rgb(125,177,167)" d="M 563.076 1255.91 C 565.134 1252.98 567.043 1252.62 570.379 1251.24 C 570.77 1258.04 571.469 1259.95 575.691 1265.3 C 570.613 1264.23 569.992 1264.3 565.819 1261.48 L 563.076 1255.91 z"/>
<path transform="translate(0,0)" fill="rgb(42,34,42)" d="M 1217.6 786.193 C 1339.19 775.275 1376.68 978.07 1248.8 1005.69 C 1122.34 1025.98 1088.15 814.355 1217.6 786.193 z"/>
<path transform="translate(0,0)" fill="rgb(255,255,255)" d="M 1259.13 821.139 C 1296.17 819.508 1303.32 870.346 1271.9 881.804 C 1238.98 883.906 1225.95 835.505 1259.13 821.139 z"/>
<path transform="translate(0,0)" fill="rgb(255,255,255)" d="M 1274.23 899.883 C 1281.24 898.428 1288.15 902.811 1289.82 909.782 C 1291.49 916.752 1287.32 923.788 1280.4 925.67 C 1275.74 926.94 1270.75 925.57 1267.39 922.095 C 1264.02 918.619 1262.82 913.589 1264.24 908.968 C 1265.67 904.346 1269.49 900.865 1274.23 899.883 z"/>
<path transform="translate(0,0)" fill="rgb(42,34,42)" d="M 791.94 802.299 C 917.568 789.904 944.913 997.674 819.884 1022.82 C 723.338 1030.93 680.793 913.168 730.434 841.834 C 744.737 820.871 766.931 806.605 791.94 802.299 z"/>
<path transform="translate(0,0)" fill="rgb(255,255,255)" d="M 838.408 835.308 C 872.358 836.383 878.015 887.231 846.654 896.025 C 809.835 896.572 806.031 841.327 838.408 835.308 z"/>
<path transform="translate(0,0)" fill="rgb(255,255,255)" d="M 849.521 914.765 C 856.732 913.923 863.292 919.002 864.284 926.194 C 865.276 933.386 860.336 940.051 853.166 941.192 C 848.393 941.952 843.583 940.072 840.591 936.277 C 837.598 932.482 836.893 927.365 838.746 922.901 C 840.599 918.438 844.721 915.325 849.521 914.765 z"/>
<path transform="translate(0,0)" fill="rgb(255,255,255)" d="M 1234.87 583.248 C 1289.62 579.003 1364.48 621.623 1385.07 673.683 C 1390.74 688.026 1385.8 700.27 1370.79 704.728 C 1301.52 717.726 1165.25 598.519 1234.87 583.248 z"/>
<path transform="translate(0,0)" fill="rgb(245,194,190)" d="M 699.3 1007.4 C 771.47 999.846 800.162 1066.58 709.818 1076.92 C 622.736 1079.49 618.468 1013.87 699.3 1007.4 z"/>
<path transform="translate(0,0)" fill="rgb(245,194,190)" d="M 1355.53 980.379 C 1371.59 977.91 1399.02 982.054 1412.36 991.881 C 1435.97 1009.27 1419.78 1032.44 1397.96 1041.01 C 1387.43 1045.15 1380.08 1047.04 1368.66 1048.66 C 1349.17 1051.04 1326.68 1048.7 1310.35 1036.72 C 1298.88 1028.32 1294.64 1013.77 1304.62 1002.32 C 1317.01 988.087 1337.38 982.442 1355.53 980.379 z"/>
<path transform="translate(0,0)" fill="rgb(42,34,42)" d="M 1019.22 1081.68 C 1027.34 1081.34 1041.91 1080.37 1049.39 1081.86 C 1072.28 1082.52 1112.65 1086.04 1135.19 1090.41 C 1140.2 1091.24 1145.95 1092.02 1150.8 1093.32 C 1191.43 1101.53 1212.35 1106.68 1251.8 1120.99 C 1251.95 1128.83 1252.81 1150.8 1251.05 1157.53 C 1221.55 1175.8 1187.4 1201.86 1192.2 1240.84 C 1198.19 1268.7 1218.11 1295.27 1242.59 1309.74 L 1235.23 1329.38 C 1212.64 1380.69 1189.88 1414.74 1148.29 1452.06 C 1145.36 1454.89 1138.58 1461.53 1135.28 1463.32 C 1106.67 1488.91 1064.91 1514.16 1030.33 1530.59 C 1025.69 1532.93 1023.4 1531.8 1019.05 1529.72 C 986.075 1514.24 942.227 1487.86 915.158 1463.46 C 911.129 1460.48 905.267 1455.2 901.719 1451.71 C 864.544 1416.63 835.91 1378.65 816.474 1331.09 C 813.537 1323.42 811.202 1317.31 808.978 1309.44 C 830.453 1292.31 838.291 1285.24 852.598 1261.96 C 858.672 1246.19 862.256 1231.55 856.613 1214.65 C 849.212 1192.47 818.561 1167.18 798.479 1157.18 L 798.673 1137.2 L 799.213 1121.09 C 835.448 1107.35 862.996 1101.11 900.241 1093.33 C 905.666 1091.92 908.314 1091.49 913.849 1090.75 L 914.818 1090.64 C 949.339 1084.7 984.212 1082.4 1019.22 1081.68 z"/>
<path transform="translate(0,0)" fill="rgb(188,153,119)" d="M 914.818 1090.64 C 949.339 1084.7 984.212 1082.4 1019.22 1081.68 L 1019.28 1096.9 C 1019.66 1106.81 1019.88 1145.78 1017.95 1154.66 C 1004.3 1166.37 990.025 1202.33 979.422 1219.16 C 965.141 1221.7 930.843 1226.67 918.842 1230.55 C 906.176 1233.51 910.149 1228 899.756 1238.34 C 898.842 1242.21 898.555 1244.81 899.796 1248.73 C 902.942 1253.56 906.059 1258.23 909.776 1262.66 C 910.972 1264.09 913.568 1266.16 914.328 1267.3 C 913.965 1275.78 914.594 1285.65 914.659 1294.39 L 914.929 1354.83 C 915.013 1388.5 913.733 1430.74 915.158 1463.46 C 911.129 1460.48 905.267 1455.2 901.719 1451.71 C 864.544 1416.63 835.91 1378.65 816.474 1331.09 C 813.537 1323.42 811.202 1317.31 808.978 1309.44 C 830.453 1292.31 838.291 1285.24 852.598 1261.96 C 858.672 1246.19 862.256 1231.55 856.613 1214.65 C 849.212 1192.47 818.561 1167.18 798.479 1157.18 L 798.673 1137.2 L 799.213 1121.09 C 835.448 1107.35 862.996 1101.11 900.241 1093.33 C 905.666 1091.92 908.314 1091.49 913.849 1090.75 L 914.818 1090.64 z"/>
<path transform="translate(0,0)" fill="rgb(188,153,119)" d="M 914.818 1090.64 C 949.339 1084.7 984.212 1082.4 1019.22 1081.68 L 1019.28 1096.9 C 1019.66 1106.81 1019.88 1145.78 1017.95 1154.66 C 1004.3 1166.37 990.025 1202.33 979.422 1219.16 C 965.141 1221.7 930.843 1226.67 918.842 1230.55 L 915.969 1228.11 C 912.896 1219.4 914.76 1122.92 915.029 1107.42 L 914.818 1090.64 z"/>
<path transform="translate(0,0)" fill="rgb(166,127,98)" d="M 914.818 1090.64 C 949.339 1084.7 984.212 1082.4 1019.22 1081.68 L 1019.28 1096.9 C 993.737 1097.74 938.06 1101.21 915.029 1107.42 L 914.818 1090.64 z"/>
<path transform="translate(0,0)" fill="rgb(120,84,66)" d="M 899.796 1248.73 C 902.942 1253.56 906.059 1258.23 909.776 1262.66 C 910.972 1264.09 913.568 1266.16 914.328 1267.3 C 913.965 1275.78 914.594 1285.65 914.659 1294.39 L 914.929 1354.83 C 915.013 1388.5 913.733 1430.74 915.158 1463.46 C 911.129 1460.48 905.267 1455.2 901.719 1451.71 C 902.301 1447.87 901.92 1408.27 901.943 1401.48 L 902.184 1313.53 C 902.218 1297.13 903.243 1262.77 899.796 1248.73 z"/>
<path transform="translate(0,0)" fill="rgb(120,84,66)" d="M 913.849 1090.75 L 914.818 1090.64 L 915.029 1107.42 C 914.76 1122.92 912.896 1219.4 915.969 1228.11 L 918.842 1230.55 C 906.176 1233.51 910.149 1228 899.756 1238.34 C 903.328 1224.48 902.123 1197.56 902.113 1181.99 L 901.981 1109.61 C 901.896 1105.67 902.099 1101.46 902.205 1097.49 C 901.859 1094.25 902.515 1095.58 900.241 1093.33 C 905.666 1091.92 908.314 1091.49 913.849 1090.75 z"/>
<path transform="translate(0,0)" fill="rgb(101,67,54)" d="M 900.241 1093.33 C 905.666 1091.92 908.314 1091.49 913.849 1090.75 C 913.956 1096.28 914.01 1101.91 914.181 1107.42 C 910.735 1108.28 907.129 1109.74 904.083 1108.36 C 901.842 1104.93 902.74 1101.55 902.205 1097.49 C 901.859 1094.25 902.515 1095.58 900.241 1093.33 z"/>
<path transform="translate(0,0)" fill="rgb(166,127,98)" d="M 900.241 1093.33 C 902.515 1095.58 901.859 1094.25 902.205 1097.49 C 902.099 1101.46 901.896 1105.67 901.981 1109.61 C 886.01 1111.69 807.15 1130.24 798.673 1137.2 L 799.213 1121.09 C 835.448 1107.35 862.996 1101.11 900.241 1093.33 z"/>
<path transform="translate(0,0)" fill="rgb(166,127,98)" d="M 852.598 1261.96 C 851.952 1266.81 851.713 1267.25 849.759 1271.82 C 850.627 1274.57 852.319 1274.86 855.441 1276.7 C 853.202 1297.52 831.515 1318.28 816.474 1331.09 C 813.537 1323.42 811.202 1317.31 808.978 1309.44 C 830.453 1292.31 838.291 1285.24 852.598 1261.96 z"/>
<path transform="translate(0,0)" fill="rgb(188,153,119)" d="M 1135.19 1090.41 C 1140.2 1091.24 1145.95 1092.02 1150.8 1093.32 C 1191.43 1101.53 1212.35 1106.68 1251.8 1120.99 C 1251.95 1128.83 1252.81 1150.8 1251.05 1157.53 C 1221.55 1175.8 1187.4 1201.86 1192.2 1240.84 C 1198.19 1268.7 1218.11 1295.27 1242.59 1309.74 L 1235.23 1329.38 C 1212.64 1380.69 1189.88 1414.74 1148.29 1452.06 C 1145.36 1454.89 1138.58 1461.53 1135.28 1463.32 C 1136.7 1448.26 1134.87 1271.87 1133.72 1269.17 C 1133.28 1269.78 1146.93 1256.37 1148.12 1255.12 C 1151.63 1247.56 1152.27 1244.34 1148.92 1236.55 C 1143.61 1232.18 1141.76 1232.34 1135.01 1230.87 C 1135.82 1190.1 1135.09 1147.11 1135.15 1106.17 L 1135.81 1098.65 L 1135.19 1090.41 z"/>
<path transform="translate(0,0)" fill="rgb(120,84,66)" d="M 1148.12 1255.12 L 1148.04 1385 C 1148.05 1404.86 1147.17 1433.06 1148.29 1452.06 C 1145.36 1454.89 1138.58 1461.53 1135.28 1463.32 C 1136.7 1448.26 1134.87 1271.87 1133.72 1269.17 C 1133.28 1269.78 1146.93 1256.37 1148.12 1255.12 z"/>
<path transform="translate(0,0)" fill="rgb(120,84,66)" d="M 1135.19 1090.41 C 1140.2 1091.24 1145.95 1092.02 1150.8 1093.32 C 1146.59 1096.71 1147.95 1103.98 1148.05 1109.31 L 1148.16 1119.18 L 1147.78 1194.52 C 1147.75 1202.14 1147.24 1230.29 1148.92 1236.55 C 1143.61 1232.18 1141.76 1232.34 1135.01 1230.87 C 1135.82 1190.1 1135.09 1147.11 1135.15 1106.17 L 1135.81 1098.65 L 1135.19 1090.41 z"/>
<path transform="translate(0,0)" fill="rgb(101,67,54)" d="M 1135.19 1090.41 C 1140.2 1091.24 1145.95 1092.02 1150.8 1093.32 C 1146.59 1096.71 1147.95 1103.98 1148.05 1109.31 C 1144.25 1108.83 1141.29 1108.76 1137.84 1107.11 C 1135.57 1104.52 1135.96 1102.2 1135.81 1098.65 L 1135.19 1090.41 z"/>
<path transform="translate(0,0)" fill="rgb(166,127,98)" d="M 1150.8 1093.32 C 1191.43 1101.53 1212.35 1106.68 1251.8 1120.99 C 1251.95 1128.83 1252.81 1150.8 1251.05 1157.53 C 1250.59 1150.24 1250.82 1142.45 1250.9 1135.1 C 1229.9 1128.35 1171.29 1109.82 1150.15 1109.79 C 1148.5 1111.89 1148.54 1116.06 1148.16 1119.18 L 1148.05 1109.31 C 1147.95 1103.98 1146.59 1096.71 1150.8 1093.32 z"/>
<path transform="translate(0,0)" fill="rgb(166,127,98)" d="M 1192.2 1240.84 C 1198.19 1268.7 1218.11 1295.27 1242.59 1309.74 L 1235.23 1329.38 C 1209.9 1306.58 1183.86 1277.59 1192.2 1240.84 z"/>
<path transform="translate(0,0)" fill="rgb(188,153,119)" d="M 914.328 1267.3 C 925.328 1277.76 941.185 1294.65 952.057 1303.57 C 950.005 1317.41 937.136 1375.11 943.903 1384.59 C 945.776 1387.21 948.254 1388.77 951.479 1389.15 C 964.67 1390.7 1005.55 1367.09 1019.05 1360.19 C 1023.73 1357.79 1027.89 1356.91 1031.89 1361.4 C 1029.52 1366.4 1030.82 1510.66 1030.33 1530.59 C 1025.69 1532.93 1023.4 1531.8 1019.05 1529.72 C 986.075 1514.24 942.227 1487.86 915.158 1463.46 C 913.733 1430.74 915.013 1388.5 914.929 1354.83 L 914.659 1294.39 C 914.594 1285.65 913.965 1275.78 914.328 1267.3 z"/>
<path transform="translate(0,0)" fill="rgb(120,84,66)" d="M 1019.05 1360.19 C 1023.73 1357.79 1027.89 1356.91 1031.89 1361.4 C 1029.52 1366.4 1030.82 1510.66 1030.33 1530.59 C 1025.69 1532.93 1023.4 1531.8 1019.05 1529.72 C 1017.67 1474.06 1020.83 1415.64 1019.05 1360.19 z"/>
<path transform="translate(0,0)" fill="rgb(188,153,119)" d="M 1133.72 1269.17 C 1134.87 1271.87 1136.7 1448.26 1135.28 1463.32 C 1106.67 1488.91 1064.91 1514.16 1030.33 1530.59 C 1030.82 1510.66 1029.52 1366.4 1031.89 1361.4 C 1043.42 1366.83 1056.39 1372.89 1067.7 1378.65 C 1114.49 1402.49 1110.83 1384.69 1104.4 1345.13 C 1102.12 1331.77 1100.18 1318.35 1098.57 1304.89 C 1106.76 1295.18 1124.23 1278.77 1133.72 1269.17 z"/>
<path transform="translate(0,0)" fill="rgb(188,153,119)" d="M 1019.22 1081.68 C 1027.34 1081.34 1041.91 1080.37 1049.39 1081.86 C 1072.28 1082.52 1112.65 1086.04 1135.19 1090.41 L 1135.81 1098.65 L 1135.15 1106.17 C 1135.09 1147.11 1135.82 1190.1 1135.01 1230.87 C 1122.06 1226.87 1087.06 1222.75 1071.02 1219.44 C 1066.22 1209.85 1041.12 1161.53 1035.66 1156.91 C 1027.61 1151.39 1027.03 1150.4 1017.95 1154.66 C 1019.88 1145.78 1019.66 1106.81 1019.28 1096.9 L 1019.22 1081.68 z"/>
<path transform="translate(0,0)" fill="rgb(166,127,98)" d="M 1049.39 1081.86 C 1072.28 1082.52 1112.65 1086.04 1135.19 1090.41 L 1135.81 1098.65 L 1135.15 1106.17 C 1111.84 1101.28 1056.29 1097.79 1030.91 1096.89 L 1030.78 1082.08 C 1036.98 1082.07 1043.19 1081.99 1049.39 1081.86 z"/>
<path transform="translate(0,0)" fill="rgb(120,84,66)" d="M 1019.22 1081.68 C 1027.34 1081.34 1041.91 1080.37 1049.39 1081.86 C 1043.19 1081.99 1036.98 1082.07 1030.78 1082.08 L 1030.91 1096.89 C 1030.84 1112.97 1030.01 1134.87 1031.99 1150.98 C 1032.14 1152.22 1034.75 1155.7 1035.66 1156.91 C 1027.61 1151.39 1027.03 1150.4 1017.95 1154.66 C 1019.88 1145.78 1019.66 1106.81 1019.28 1096.9 L 1019.22 1081.68 z"/>
<path transform="translate(0,0)" fill="rgb(255,255,255)" d="M 1025.39 1165.72 C 1036.55 1177.39 1049.92 1216.61 1063.42 1231.11 C 1080.81 1236.74 1116.55 1240.34 1137.02 1244.96 C 1127.63 1260.27 1095.5 1284.19 1084.42 1301.3 C 1086.04 1323.31 1092.32 1352.35 1095.21 1376.12 C 1072.63 1367.1 1047.11 1351.63 1026.61 1344.15 C 1015.2 1344.98 972.384 1369.6 955.451 1375.36 C 956.414 1362 969.482 1304.35 963.536 1297.12 C 950.077 1280.75 928.151 1263.72 914.324 1246.31 L 913.306 1245.02 C 927.429 1240.09 960.872 1237.5 976.734 1234.85 C 981.411 1234.08 985.715 1231.82 989.012 1228.42 C 1000.47 1216.8 1013.41 1181.31 1025.39 1165.72 z"/>
<path transform="translate(0,0)" fill="rgb(255,255,255)" d="M 796.145 1318.44 C 797.244 1324.43 800.163 1331.38 802.348 1337.18 C 810.927 1356.27 817.147 1370.96 828.782 1388.94 C 875.272 1460.79 947.843 1515.09 1025.16 1549.58 C 1026.7 1549.06 1028.23 1548.51 1029.75 1547.92 C 1043.73 1542.57 1070.19 1527.92 1083.3 1519.7 C 1162.23 1470.17 1212.72 1420.04 1249.96 1335.23 L 1255.81 1319.35 L 1284.25 1333.6 L 1276.79 1352.76 C 1266.71 1377.02 1253.86 1400.03 1238.5 1421.34 C 1191.31 1486.95 1109.28 1550.05 1034.55 1580.53 C 1031.42 1581.8 1028.24 1582.94 1025.02 1583.93 C 942.506 1550.32 852.285 1483.4 803.608 1407.85 C 798.337 1399.66 789.053 1384.49 785.381 1376.08 C 778.122 1367.97 770.824 1343.83 767.235 1333.18 C 777.691 1328.36 786.063 1323.93 796.145 1318.44 z"/>
<path transform="translate(0,0)" fill="rgb(162,159,160)" d="M 796.145 1318.44 C 797.244 1324.43 800.163 1331.38 802.348 1337.18 C 797.083 1339.31 781.812 1346.97 776.139 1350.01 C 779.126 1357.58 784.457 1368.61 785.381 1376.08 C 778.122 1367.97 770.824 1343.83 767.235 1333.18 C 777.691 1328.36 786.063 1323.93 796.145 1318.44 z"/>
<path transform="translate(0,0)" fill="rgb(162,159,160)" d="M 1255.81 1319.35 L 1284.25 1333.6 L 1276.79 1352.76 C 1275.16 1349.29 1255.72 1339.09 1249.96 1335.23 L 1255.81 1319.35 z"/>
<path transform="translate(0,0)" fill="rgb(255,255,255)" d="M 1072.33 1029.8 C 1143.99 1034.7 1236.59 1057.82 1301.23 1088.46 C 1302.59 1101.43 1302.67 1120.2 1303.02 1133.37 C 1291.05 1137.34 1278.93 1143.64 1267.63 1149.3 C 1267.47 1138.94 1267.65 1120.58 1266 1111.1 C 1257.3 1106.07 1238.95 1100.27 1229.09 1097.19 C 1181.59 1082.05 1132.48 1072.51 1082.76 1068.76 C 1068.93 1067.84 1055.09 1067.18 1041.24 1066.79 C 965.486 1064.63 889.916 1075.4 817.785 1098.66 C 777.934 1111.12 783.093 1106.35 783.069 1148.3 C 771.447 1143.08 759.715 1138.11 747.88 1133.4 C 747.873 1117.83 748.447 1103.62 749.216 1088.05 C 829.432 1053.44 903.598 1035.24 990.66 1030.5 C 998.513 1030.41 1014.06 1050.71 1028.71 1052.03 C 1044.15 1053.42 1060.91 1039.16 1072.33 1029.8 z"/>
<path transform="translate(0,0)" fill="rgb(231,212,196)" d="M 1298.71 1339.02 C 1337.43 1349.5 1358.15 1352.43 1398.15 1343.24 C 1399.73 1349.49 1400.3 1370.41 1399.15 1376.71 L 1398.93 1378.2 L 1399.46 1379.35 C 1398.32 1390.16 1397.39 1399.03 1395.03 1409.73 C 1336.38 1457.57 1241.52 1500.03 1168.19 1516.94 C 1178.69 1506.81 1190.87 1497.51 1201.92 1486.89 C 1244.75 1445.74 1279.62 1395.63 1298.71 1339.02 z"/>
<path transform="translate(0,0)" fill="rgb(255,255,255)" d="M 1305.71 1375.64 C 1326.5 1380.54 1353.78 1379.47 1374.33 1373.69 C 1381.64 1371.63 1390.81 1367.44 1398.01 1366.74 C 1399.19 1368.87 1399.02 1373.94 1399.15 1376.71 L 1398.93 1378.2 C 1382.35 1394.21 1304.67 1423.06 1280.35 1430.85 C 1287.67 1412.68 1297.49 1396.98 1305.71 1375.64 z"/>
<path transform="translate(0,0)" fill="rgb(231,212,196)" d="M 693.006 1348.81 C 716.769 1348.51 730.021 1346.01 752.893 1338.65 C 783.707 1425.97 829.24 1472.37 899.359 1528.31 C 837.075 1516.98 751.421 1485.04 697.745 1451.18 C 688.972 1411.16 688.148 1389.76 693.006 1348.81 z"/>
<path transform="translate(0,0)" fill="rgb(255,255,255)" d="M 733.116 1371.32 L 744.582 1370.63 C 747.01 1375.19 749.218 1379.94 749.715 1385.1 L 748.717 1386.12 L 747.14 1384.96 C 743.222 1382.72 728.733 1376.02 728.367 1372.35 L 733.116 1371.32 z"/>
<path transform="translate(0,0)" fill="rgb(246,205,135)" d="M 882.523 1539.98 C 906.592 1544.88 920.033 1543.11 939.987 1557.07 C 939.785 1580.23 939.718 1603.39 939.786 1626.55 C 939.789 1636.41 940.268 1657.28 939.171 1666.51 C 939.671 1672.9 939.301 1685.26 939.32 1692.11 C 925.808 1706.81 859.878 1759.47 840.239 1751.24 C 826.233 1732.86 878.252 1712.46 875.922 1698.3 C 867.019 1686.56 854.758 1705.03 845.326 1708.92 C 830.611 1715 812.649 1717.27 796.947 1714.71 C 794.698 1714.34 794.067 1711.64 793.57 1710 C 798.176 1692.64 866.631 1669.81 883.904 1657.06 C 885.12 1636.96 884.153 1612.98 883.742 1592.61 C 882.811 1574.95 883.13 1557.57 882.523 1539.98 z"/>
<path transform="translate(0,0)" fill="rgb(229,168,95)" d="M 882.523 1539.98 C 906.592 1544.88 920.033 1543.11 939.987 1557.07 C 939.785 1580.23 939.718 1603.39 939.786 1626.55 C 939.789 1636.41 940.268 1657.28 939.171 1666.51 C 937.819 1652.54 938.709 1623.45 938.682 1608.42 C 925.421 1608.1 896.848 1597.35 883.742 1592.61 C 882.811 1574.95 883.13 1557.57 882.523 1539.98 z"/>
<path transform="translate(0,0)" fill="rgb(246,205,135)" d="M 1162.11 1595.83 C 1161.31 1613.15 1159.64 1640.42 1161.04 1657.24 C 1175.66 1665.79 1247.13 1697.29 1250.64 1709.31 C 1251.39 1711.9 1250.81 1712.37 1249.5 1714.51 C 1239.65 1718.7 1212.55 1713.19 1201.91 1709.68 C 1191.93 1706.39 1178.01 1685.56 1169.22 1697.7 C 1168.19 1703.62 1170.13 1705.31 1174.36 1709.4 C 1182.12 1716.9 1215.3 1738.48 1203.21 1751.18 C 1185.07 1757.33 1117.87 1707.87 1106.34 1691.7 C 1106.22 1667.3 1105.62 1638.11 1106.56 1614.08 C 1131.95 1608.67 1139.69 1603.02 1162.11 1595.83 z"/>
<path transform="translate(0,0)" fill="rgb(246,205,135)" d="M 956.624 395.655 C 950.865 375.04 951.806 346.442 958.189 325.913 C 960.376 318.88 966.133 299.263 977.621 307.993 C 1007.78 334.861 1011.06 388.414 1006.92 425.382 C 1006.44 441.218 1000.94 469.066 995.712 483.626 C 978.105 462.6 959.304 422.924 956.624 395.655 z"/>
<path transform="translate(0,0)" fill="rgb(229,168,95)" d="M 956.624 395.655 C 964.162 409.158 966.174 427.254 974.514 441.916 C 987.1 445.773 1001.05 451.425 1004.12 434.167 C 1004.58 431.568 1005.93 427.858 1006.92 425.382 C 1006.44 441.218 1000.94 469.066 995.712 483.626 C 978.105 462.6 959.304 422.924 956.624 395.655 z"/>
<path transform="translate(0,0)" fill="rgb(246,205,135)" d="M 1027.76 930.001 C 1044.3 928.165 1089.93 960.276 1102.38 971.702 C 1083.05 984.036 1057.38 995.794 1036.34 1006.19 C 1027.17 1008.03 973.598 982.936 963.06 977.819 C 974.403 964.377 1011.64 938.672 1027.76 930.001 z"/>
<path transform="translate(0,0)" fill="rgb(246,205,135)" d="M 1020.98 459.072 C 1033.47 435.609 1060.8 410.738 1086.7 402.938 C 1092.31 401.248 1094.98 401.145 1100.18 403.291 C 1112.07 417.122 1075.3 455.326 1063.81 463.32 C 1046.25 478.589 1031.32 487.639 1008.35 490.083 C 1011.71 476.773 1013.62 470.256 1020.98 459.072 z"/>
<path transform="translate(0,0)" fill="rgb(229,168,95)" d="M 1008.35 490.083 C 1011.71 476.773 1013.62 470.256 1020.98 459.072 C 1021.22 464.561 1020.36 463.39 1023.09 467.186 C 1034.7 473.429 1052.15 466.71 1063.81 463.32 C 1046.25 478.589 1031.32 487.639 1008.35 490.083 z"/>
<path transform="translate(0,0)" fill="rgb(229,168,95)" d="M 1106.58 1560.22 C 1134.44 1545.62 1126.81 1539.3 1164.06 1533.48 L 1162.11 1595.83 C 1139.69 1603.02 1131.95 1608.67 1106.56 1614.08 C 1106.81 1596.11 1106.21 1578.23 1106.58 1560.22 z"/>
<path transform="translate(0,0)" fill="rgb(246,205,135)" d="M 941.035 480.378 C 932.792 476.226 924.252 467.6 917.887 460.975 C 911.93 454.776 890.774 425.329 901.649 419.065 C 914.502 419.579 944.333 442.997 954.226 452.282 C 964.777 462.555 974.096 479.228 984.244 491.599 C 968.601 492.698 953.805 490.71 941.035 480.378 z"/>
<path transform="translate(0,0)" fill="rgb(229,168,95)" d="M 954.226 452.282 C 964.777 462.555 974.096 479.228 984.244 491.599 C 968.601 492.698 953.805 490.71 941.035 480.378 C 944.166 480.462 951.521 483.219 955.049 484.293 L 956.507 483.343 C 958.619 475.716 957.359 459.899 954.226 452.282 z"/>
<path transform="translate(0,0)" fill="rgb(229,168,95)" d="M 1074.37 1002.82 C 1075.69 1003.3 1075.04 1002.87 1076.04 1004.45 C 1070.15 1014.66 1044.61 1034.72 1032.17 1039.08 C 1021.38 1034.48 1009.45 1024.52 1000.32 1017.1 C 993.904 1012.04 991.601 1009.07 986.6 1002.84 C 1000.69 1009.17 1019.57 1018.14 1034.24 1021.99 C 1046.49 1018.1 1062.46 1009.03 1074.37 1002.82 z"/>
</svg>