<svg version="1.1" xmlns="http://www.w3.org/2000/svg" viewBox="176.60 275.24 1737.26 1466.04" width="1737" height="1466">
<defs>
	<linearGradient id="Gradient1" gradientUnits="userSpaceOnUse" x1="1228.33" y1="499.627" x2="1150.73" y2="481.148">
		<stop class="stop0" offset="0" stop-opacity="1" stop-color="rgb(232,192,126)"/>
		<stop class="stop1" offset="1" stop-opacity="1" stop-color="rgb(250,224,167)"/>
	</linearGradient>
</defs>
<path transform="translate(0,0)" fill="rgb(49,43,49)" d="M 1213.2 343.853 C 1249.75 339.582 1266.56 412.398 1263.3 439.458 C 1262.68 444.58 1263.3 459.712 1264.4 464.723 C 1268.25 465.95 1286.39 448.42 1291.32 445.427 C 1303.89 437.8 1320.8 426.732 1335.97 433.363 C 1343.03 436.453 1344.67 442.642 1346.97 449.166 C 1343.05 471.882 1328.23 492.762 1311.57 508.984 C 1306.94 513.502 1290.92 519.787 1288.41 526.037 C 1290.97 528.873 1308.31 528.539 1313.23 529.103 C 1460.7 546.023 1603.02 626.914 1686.77 750.55 C 1732.38 818.481 1756.93 898.364 1757.34 980.188 C 1757.44 1004.27 1757.92 1012.56 1753.37 1036.2 L 1755 1037.47 C 1790.44 1065.2 1837.17 1118.32 1842.77 1163.55 C 1849.52 1218 1797.01 1268.59 1754.67 1294.46 C 1744.84 1300.47 1734.89 1305.53 1727.73 1314.82 L 1726.74 1316.13 C 1786.83 1370.62 1673.03 1393.51 1607.8 1333.01 C 1548.81 1380.67 1486.66 1417.05 1413.57 1438.64 C 1409.03 1439.99 1391.85 1444.3 1389.56 1446.45 C 1388.33 1452.43 1391.61 1458.01 1390.92 1463.29 C 1387.77 1487.44 1390.62 1511.59 1387.84 1535.74 C 1387.22 1541.12 1387.14 1546.91 1387.01 1552.33 C 1408.76 1564.95 1436.76 1571.77 1456.39 1589.21 C 1464.73 1596.61 1469.03 1610.6 1460.14 1619.1 C 1451.88 1626.99 1433.16 1625.24 1422.28 1625.23 C 1429.51 1652.14 1418.07 1660.79 1391 1652.97 C 1368.66 1646.52 1319.7 1612.65 1308.99 1592.24 C 1308.62 1555.27 1308.01 1518.71 1310.81 1481.85 C 1311.32 1475.14 1310.95 1466.83 1310.97 1459.97 C 1267.3 1466.17 1212.71 1463.78 1169.03 1458.1 L 1169.42 1542.5 C 1169.48 1556.74 1169.64 1571.43 1169.15 1585.64 C 1167.32 1604.38 1148.93 1613.53 1134.36 1625.32 C 1121.47 1635.75 1057.02 1676.94 1050.6 1640.98 C 1050.12 1638.31 1053.14 1630.15 1051.98 1625.27 C 1048.86 1624.74 1041.98 1624.84 1038.59 1624.79 C 1009.15 1624.83 999.589 1600.63 1025.8 1584.03 C 1045.01 1571.87 1066.53 1561.56 1087.75 1553.44 L 1091.41 1551.87 C 1092.36 1548.48 1091.34 1534.68 1091.26 1530.3 C 1090.8 1513.71 1091.31 1496.86 1090.83 1480.3 C 1090.38 1464.44 1086.91 1458.05 1091.65 1442.39 C 1043.92 1428.6 996.901 1409.04 954.735 1382.64 C 947.783 1378.29 941.196 1372.99 933.588 1369.9 C 931.423 1384.1 930.184 1399.22 928.43 1413.6 L 913.464 1537.32 C 911.185 1555.25 909.281 1573.68 906.346 1591.49 C 905.243 1598.19 902.187 1608.48 898.766 1614.37 C 897.001 1617.41 892.548 1619.47 889.049 1619.73 C 866.958 1621.37 844.149 1621.13 822.046 1621.17 L 705.532 1621.27 L 489.294 1621.26 C 478.158 1621.24 366.224 1623.09 362.138 1617.16 C 351.167 1601.22 347.593 1548.03 345.134 1526.45 L 335.613 1447.35 C 332.611 1421.05 325.704 1378.6 324.811 1354.26 C 319.359 1358.36 313.853 1363.1 307.641 1366.01 C 298.909 1370.1 288.462 1370.58 279.487 1366.98 C 265.695 1361.43 249.683 1343.08 244.216 1329.39 C 241.381 1322.3 240.947 1312.47 244.281 1305.43 C 251.804 1289.54 342.763 1206.77 359.838 1190.19 L 525.493 1028.5 C 551.762 1002.87 577.341 976.509 603.478 950.76 C 607.854 946.45 619.157 936.515 625.147 934.887 C 629.239 933.775 638.496 936.443 642.235 939.099 C 662.47 953.471 680.05 976.006 698.993 992.084 C 705.595 987.241 722.364 978.763 730.501 974.398 C 730.028 940.333 745.329 866.407 757.304 835.482 C 763.274 820.067 787.072 775.107 795.977 760.765 C 860.39 657.021 969.647 581.542 1085.98 547.557 C 1105.97 541.717 1130.21 536.896 1150.84 533.382 C 1163.31 531.256 1175.43 530.491 1187.88 527.606 C 1187.22 526.575 1187.17 526.194 1186.25 525.565 C 1166.75 512.264 1139.04 485.586 1140.3 459.733 C 1141.99 425.061 1176.11 453.638 1191.53 454.6 C 1197.14 449.045 1168.99 368.901 1213.2 343.853 z"/>
<path transform="translate(0,0)" fill="rgb(149,201,185)" d="M 809.023 766.542 C 876.931 657.248 992.137 583.827 1116.25 554.826 C 1258.45 520.157 1408.61 544.314 1532.76 621.829 C 1633.9 684.678 1705.65 776.541 1733.54 893.341 C 1744.22 938.04 1744.51 980.77 1740.78 1026.3 C 1735.63 1022.45 1730.72 1017.66 1724.34 1018.01 C 1714.92 1025.12 1726.84 1032.61 1732.31 1036.65 C 1765.43 1061.06 1825.25 1119.47 1828.13 1161.72 C 1839.98 1226.87 1756.6 1280.27 1709.1 1306.34 C 1705.61 1308.26 1704.31 1310.59 1703.77 1314.41 C 1705.44 1319.78 1754.07 1345.21 1714.47 1355.45 C 1685.29 1362.99 1627.43 1343.31 1612.93 1316.41 C 1582.63 1259.92 1691.15 1185.05 1683.21 1163.4 C 1675.87 1161.03 1671.93 1164.55 1667.02 1169.18 C 1662.32 1161.57 1659.12 1154.94 1655.69 1146.71 C 1653.4 1141.23 1651.12 1135.69 1644.36 1135.65 C 1642.46 1136.69 1640.43 1137.37 1640.06 1140.02 C 1638.65 1150.08 1653.77 1172.85 1658.7 1181.39 C 1633.31 1216.13 1597.62 1247.99 1592.97 1292.82 C 1593.71 1305.17 1595.02 1311.36 1600.68 1322.61 C 1583.9 1335.49 1559.04 1355.29 1541.44 1365.9 C 1456.22 1421.86 1352.31 1448.62 1250.92 1449.23 C 1139.74 1449.91 1051.54 1423.61 956.226 1368.36 C 977.632 1370.03 986.529 1366.84 1001.11 1350.33 C 1009.64 1340.67 1015.15 1333.8 1017.93 1320.86 C 1018.25 1303.86 1012.92 1298.86 1001.82 1286.86 C 996.392 1282.43 986.424 1272.21 981.087 1267.06 C 967.858 1254.27 954.556 1241.55 941.184 1228.91 C 927.511 1217.2 910.312 1199.79 897.005 1187.06 C 872.335 1163.71 847.813 1140.2 823.443 1116.54 C 826.475 1112.15 832.39 1101.74 825.518 1098.24 C 823.6 1098.54 820.545 1099.13 819.239 1100.56 C 809.735 1111.01 802.528 1121.93 792.103 1131.85 C 766.097 1156.6 697.839 1178.76 669.621 1148.44 C 648.657 1122.69 657.856 1063.01 673.276 1038.17 C 700.17 994.848 746.086 980.369 793.882 976.888 C 795.851 976.744 797.1 973.605 797.765 972.032 C 797.566 968.547 797.668 968.775 795.502 966.043 C 791.651 963.928 790.521 964.216 785.951 964.034 C 771.073 965.524 759.345 967.858 744.734 970.771 C 746.604 949.021 749.351 921.45 753.741 900.161 C 762.689 856.76 784.246 803.532 809.023 766.542 z"/>
<path transform="translate(0,0)" fill="rgb(252,247,231)" d="M 945.04 1217.32 C 968.114 1153.89 1021.4 1106.49 1080.93 1077.63 C 1263.49 989.154 1552.82 1082.77 1549.04 1316.89 C 1547.81 1331.11 1546.2 1352.77 1541.44 1365.9 C 1456.22 1421.86 1352.31 1448.62 1250.92 1449.23 C 1139.74 1449.91 1051.54 1423.61 956.226 1368.36 C 977.632 1370.03 986.529 1366.84 1001.11 1350.33 C 1009.64 1340.67 1015.15 1333.8 1017.93 1320.86 C 1018.25 1303.86 1012.92 1298.86 1001.82 1286.86 C 996.392 1282.43 986.424 1272.21 981.087 1267.06 C 967.858 1254.27 954.556 1241.55 941.184 1228.91 L 942.862 1219.62 L 945.04 1217.32 z"/>
<path transform="translate(0,0)" fill="rgb(237,215,190)" d="M 1017.93 1320.86 C 1017.79 1322.7 1017.8 1324.16 1017.79 1326.01 C 1026.01 1337.68 1107.06 1361.95 1124.09 1366.22 C 1241.3 1395.22 1364.46 1388.99 1478.14 1348.32 C 1501.15 1340.08 1528.14 1329.36 1549.04 1316.89 C 1547.81 1331.11 1546.2 1352.77 1541.44 1365.9 C 1456.22 1421.86 1352.31 1448.62 1250.92 1449.23 C 1139.74 1449.91 1051.54 1423.61 956.226 1368.36 C 977.632 1370.03 986.529 1366.84 1001.11 1350.33 C 1009.64 1340.67 1015.15 1333.8 1017.93 1320.86 z"/>
<path transform="translate(0,0)" fill="rgb(237,215,190)" d="M 942.862 1219.62 L 945.04 1217.32 C 947.237 1230.38 973.479 1247.95 981.768 1260.02 C 985.884 1266.02 986.259 1271.12 990.167 1274 C 997.425 1279.36 999.655 1277.14 1001.82 1286.86 C 996.392 1282.43 986.424 1272.21 981.087 1267.06 C 967.858 1254.27 954.556 1241.55 941.184 1228.91 L 942.862 1219.62 z"/>
<path transform="translate(0,0)" fill="rgb(116,171,158)" d="M 1828.13 1161.72 C 1839.98 1226.87 1756.6 1280.27 1709.1 1306.34 C 1705.61 1308.26 1704.31 1310.59 1703.77 1314.41 C 1705.44 1319.78 1754.07 1345.21 1714.47 1355.45 C 1685.29 1362.99 1627.43 1343.31 1612.93 1316.41 C 1614.19 1316.49 1615.45 1316.52 1616.72 1316.51 C 1677.87 1315.99 1776.69 1262.33 1808.89 1208.71 C 1813.71 1200.68 1828.31 1171.3 1828.13 1161.72 z"/>
<path transform="translate(0,0)" fill="rgb(116,171,158)" d="M 809.023 766.542 C 811.358 779.119 798.284 818.357 795.103 834.241 C 786.49 877.26 784.109 920.309 785.951 964.034 C 771.073 965.524 759.345 967.858 744.734 970.771 C 746.604 949.021 749.351 921.45 753.741 900.161 C 762.689 856.76 784.246 803.532 809.023 766.542 z"/>
<path transform="translate(0,0)" fill="rgb(116,171,158)" d="M 669.621 1148.44 C 678.302 1147.97 688.131 1149.74 695.909 1149 C 738.525 1144.94 779.28 1128.83 812.296 1101.42 C 817.477 1097.12 832.477 1085.05 839.232 1092.65 C 850.543 1107.58 859.378 1124.6 871.179 1139.32 C 887.945 1161.31 905.69 1180.39 924.926 1200.19 C 931.077 1206.52 936.949 1213.89 942.862 1219.62 L 941.184 1228.91 C 927.511 1217.2 910.312 1199.79 897.005 1187.06 C 872.335 1163.71 847.813 1140.2 823.443 1116.54 C 826.475 1112.15 832.39 1101.74 825.518 1098.24 C 823.6 1098.54 820.545 1099.13 819.239 1100.56 C 809.735 1111.01 802.528 1121.93 792.103 1131.85 C 766.097 1156.6 697.839 1178.76 669.621 1148.44 z"/>
<path transform="translate(0,0)" fill="rgb(116,171,158)" d="M 1549.04 1316.89 C 1554.41 1315.25 1585.17 1296.89 1592.97 1292.82 C 1593.71 1305.17 1595.02 1311.36 1600.68 1322.61 C 1583.9 1335.49 1559.04 1355.29 1541.44 1365.9 C 1546.2 1352.77 1547.81 1331.11 1549.04 1316.89 z"/>
<path transform="translate(0,0)" fill="rgb(49,43,49)" d="M 1420.16 793.308 C 1439.56 790.919 1459.14 795.976 1474.96 807.461 C 1538.76 853.985 1527.82 975.166 1443.1 986.984 C 1325.86 998.917 1309.11 811.255 1420.16 793.308 z"/>
<path transform="translate(0,0)" fill="rgb(255,255,255)" d="M 1450.99 825.066 C 1484.36 822.644 1491.41 863.928 1465.92 877.503 C 1433.76 881.046 1424.93 837.913 1450.99 825.066 z"/>
<path transform="translate(0,0)" fill="rgb(255,255,255)" d="M 1462.8 894.687 C 1466.91 892.987 1471.62 893.66 1475.09 896.445 C 1478.56 899.229 1480.24 903.682 1479.47 908.065 C 1478.71 912.449 1475.61 916.066 1471.4 917.506 C 1465.17 919.638 1458.37 916.433 1456.04 910.268 C 1453.72 904.103 1456.71 897.205 1462.8 894.687 z"/>
<path transform="translate(0,0)" fill="rgb(49,43,49)" d="M 1037.7 775.412 C 1081.88 771.099 1118.93 810.245 1124.76 851.837 C 1132.67 908.25 1109.5 960.52 1049.25 969.982 C 1034.91 970.368 1023.63 970.052 1010.32 963.812 C 928.921 925.634 942.797 784.675 1037.7 775.412 z"/>
<path transform="translate(0,0)" fill="rgb(255,255,255)" d="M 1065 807.086 C 1097.93 805.118 1105.15 845.336 1078.62 859.535 C 1046.29 863.46 1039.23 818.742 1065 807.086 z"/>
<path transform="translate(0,0)" fill="rgb(255,255,255)" d="M 1074.04 877.642 C 1078.05 876.039 1082.62 876.728 1085.98 879.444 C 1089.34 882.16 1090.97 886.48 1090.25 890.74 C 1089.52 895.001 1086.56 898.539 1082.49 899.992 C 1076.35 902.181 1069.59 899.056 1067.29 892.964 C 1064.99 886.872 1067.99 880.058 1074.04 877.642 z"/>
<path transform="translate(0,0)" fill="rgb(49,43,49)" d="M 1161.35 941.143 C 1160.68 936.83 1159.72 933.95 1162.6 930.533 C 1176.44 915.406 1216.71 885.958 1235.63 882.384 C 1249.33 879.797 1293.77 913.765 1305.31 923.426 C 1311.41 928.54 1316.43 933.122 1314.42 941.528 C 1313.89 946.586 1303.17 970.691 1298.5 976.387 C 1287.96 990.041 1255.17 1021.46 1237.68 1022.71 C 1211.51 1024.58 1164.58 964.569 1161.35 941.143 z"/>
<path transform="translate(0,0)" fill="rgb(116,171,158)" d="M 1161.35 941.143 C 1180.19 963.211 1208.87 997.314 1236.85 1006.93 C 1243.19 1004.65 1244.68 1004.14 1250.44 1000.43 C 1258.8 995.719 1268.69 987.713 1275.76 981.267 C 1285.24 974.271 1306.87 950.968 1314.42 941.528 C 1313.89 946.586 1303.17 970.691 1298.5 976.387 C 1287.96 990.041 1255.17 1021.46 1237.68 1022.71 C 1211.51 1024.58 1164.58 964.569 1161.35 941.143 z"/>
<path transform="translate(0,0)" fill="rgb(67,66,70)" d="M 1250.44 1000.43 C 1253.91 986.367 1264.16 985.498 1275.76 981.267 C 1268.69 987.713 1258.8 995.719 1250.44 1000.43 z"/>
<path transform="translate(0,0)" fill="rgb(245,209,146)" d="M 1235.54 894.84 C 1247.12 894.923 1291.03 927.219 1299.73 937.027 C 1284.38 945.794 1254.82 958.119 1238.27 964.48 C 1233.1 965.519 1183.93 940.281 1176.05 935.587 C 1186.08 924.395 1221.33 901.216 1235.54 894.84 z"/>
<path transform="translate(0,0)" fill="rgb(212,157,108)" d="M 1194.5 960.686 C 1209.33 965.491 1222.77 974.044 1237.28 977.894 L 1249.29 973.669 L 1257.27 969.919 C 1263.81 966.838 1270.67 963.318 1277.59 961.398 C 1264.5 978.023 1254.76 983.433 1236.49 994.652 C 1222.54 988.012 1204.88 972.166 1194.5 960.686 z"/>
<path transform="translate(0,0)" fill="rgb(220,179,111)" d="M 1249.29 973.669 L 1257.27 969.919 L 1262 970.468 L 1262.65 971.711 C 1260.11 977.571 1243.1 985.198 1236.36 990.238 C 1231.79 989.132 1226.26 985.029 1222.97 981.767 C 1228.7 978.051 1242.66 984.073 1249.29 973.669 z"/>
<path transform="translate(0,0)" fill="rgb(255,255,255)" d="M 1437.63 618.145 C 1458.19 616.654 1473.81 620.82 1492.65 629.282 C 1508.28 636.3 1523.68 643.976 1536.76 655.238 C 1552.53 668.798 1598.63 716.559 1559.1 729.609 C 1520.42 732.662 1480.05 707.907 1452.19 682.998 C 1436.56 669.028 1399.51 629.63 1437.63 618.145 z"/>
<path transform="translate(0,0)" fill="rgb(243,202,192)" d="M 1535.63 967.246 C 1605.78 960.571 1635.75 1014.04 1559.27 1028.49 C 1539.81 1030.41 1520.91 1029.94 1503.83 1019.02 C 1492.61 1011.84 1485.86 999.058 1495.03 987.186 C 1504.45 974.999 1520.99 969.838 1535.63 967.246 z"/>
<path transform="translate(0,0)" fill="rgb(243,202,192)" d="M 939.816 950.423 C 1003.51 947.532 1027.1 1010.45 947.368 1013.23 C 876.746 1011.84 863.334 956.409 939.816 950.423 z"/>
<path transform="translate(0,0)" fill="rgb(252,247,231)" d="M 628.355 1065.32 C 633.734 1070.04 639.364 1075.48 644.656 1080.38 C 641.522 1105.58 642.293 1140.38 660.913 1160.31 C 674.773 1175.15 694.166 1176.24 713.173 1176.79 C 723.94 1175.98 732.986 1175.46 743.543 1172.68 C 752.107 1180.83 762.44 1191.42 771.111 1199 L 922.457 1341.07 C 920.419 1352.24 920.003 1363.53 918.172 1373.51 C 917.158 1385.63 915.368 1398.12 913.774 1410.21 C 907.123 1460.62 902.187 1511.36 895.657 1561.77 C 894.195 1573 892.75 1597.02 885.542 1604.78 C 874.904 1609.01 657.949 1607.12 630.905 1607.38 C 630.91 1593.5 630.43 1576.07 631.113 1562.48 C 630.28 1502.98 631.868 1443.22 630.395 1383.71 C 630.279 1379.01 628.879 1374.02 626.23 1370.11 C 619.488 1366.94 553.766 1368.29 540.714 1368.31 C 527.557 1368.32 472.045 1366.62 462.585 1369.88 C 456.318 1378.39 458.635 1437.3 458.672 1450.67 L 459.039 1583.09 L 459.047 1607.34 C 431.478 1607.04 400.111 1607.89 373.032 1606.42 C 367.975 1595.69 367.025 1584.08 365.345 1572.35 C 356.599 1504.85 348.846 1434.85 340.934 1367.07 C 339.977 1358.61 338.846 1350.17 337.544 1341.75 C 435.155 1250.32 532.095 1158.17 628.355 1065.32 z"/>
<path transform="translate(0,0)" fill="rgb(237,215,190)" d="M 628.355 1065.32 C 633.734 1070.04 639.364 1075.48 644.656 1080.38 C 641.522 1105.58 642.293 1140.38 660.913 1160.31 C 674.773 1175.15 694.166 1176.24 713.173 1176.79 C 723.94 1175.98 732.986 1175.46 743.543 1172.68 C 752.107 1180.83 762.44 1191.42 771.111 1199 C 760.893 1201.22 748.839 1204.14 738.551 1204.63 L 736.65 1204.12 C 673.751 1203.53 649.428 1176.61 642.18 1114.96 C 634.709 1111.88 626.68 1108.63 618.852 1113.2 C 603.177 1122.37 584.784 1141.21 571.207 1153.75 C 543.068 1179.75 515.102 1205.94 487.309 1232.31 L 384.446 1327.61 C 379.338 1332.35 344.314 1365.61 340.934 1367.07 C 339.977 1358.61 338.846 1350.17 337.544 1341.75 C 435.155 1250.32 532.095 1158.17 628.355 1065.32 z"/>
<path transform="translate(0,0)" fill="rgb(245,209,146)" d="M 743.543 1172.68 C 752.107 1180.83 762.44 1191.42 771.111 1199 C 760.893 1201.22 748.839 1204.14 738.551 1204.63 L 736.65 1204.12 C 731.589 1199.67 715.064 1182.79 713.173 1176.79 C 723.94 1175.98 732.986 1175.46 743.543 1172.68 z"/>
<path transform="translate(0,0)" fill="rgb(237,215,190)" d="M 632.419 1585.42 C 648.379 1584.69 667.153 1586.19 683.942 1585.8 C 742.59 1584.41 805.201 1584.31 862.806 1572.47 C 872.781 1570.42 885.85 1565.23 895.657 1561.77 C 894.195 1573 892.75 1597.02 885.542 1604.78 C 874.904 1609.01 657.949 1607.12 630.905 1607.38 C 630.91 1593.5 630.43 1576.07 631.113 1562.48 C 631.98 1567.2 632.198 1580.06 632.419 1585.42 z"/>
<path transform="translate(0,0)" fill="rgb(237,215,190)" d="M 738.551 1204.63 C 748.839 1204.14 760.893 1201.22 771.111 1199 L 922.457 1341.07 C 920.419 1352.24 920.003 1363.53 918.172 1373.51 C 918.175 1370.2 918.269 1369.51 917.601 1366.19 C 912.348 1362.4 906.714 1357.28 901.779 1352.98 C 846.76 1305.08 793.919 1251.9 738.551 1204.63 z"/>
<path transform="translate(0,0)" fill="rgb(237,215,190)" d="M 365.345 1572.35 C 378.098 1578.55 446.16 1586.83 459.039 1583.09 L 459.047 1607.34 C 431.478 1607.04 400.111 1607.89 373.032 1606.42 C 367.975 1595.69 367.025 1584.08 365.345 1572.35 z"/>
<path transform="translate(0,0)" fill="rgb(49,43,49)" d="M 758.244 1336.56 C 800.416 1330.43 839.606 1359.54 845.929 1401.69 C 852.251 1443.83 823.328 1483.16 781.216 1489.68 C 738.821 1496.24 699.17 1467.08 692.805 1424.66 C 686.44 1382.23 715.788 1342.72 758.244 1336.56 z"/>
<path transform="translate(0,0)" fill="rgb(122,193,177)" d="M 805.978 1472.12 C 779.878 1488.29 746.255 1485.37 723.334 1464.94 C 700.412 1444.52 693.649 1411.45 706.709 1383.67 C 719.769 1355.89 749.544 1340 779.896 1344.61 C 808.624 1348.98 831.58 1370.8 837.404 1399.27 C 843.227 1427.74 830.683 1456.82 805.978 1472.12 z"/>
<path transform="translate(0,0)" fill="rgb(49,43,49)" d="M 800.744 1462.6 C 778.877 1476.41 750.524 1474.19 731.081 1457.13 C 711.638 1440.07 705.745 1412.24 716.601 1388.77 C 727.457 1365.29 752.472 1351.76 778.063 1355.52 C 802.217 1359.07 821.608 1377.28 826.667 1401.17 C 831.726 1425.05 821.384 1449.56 800.744 1462.6 z"/>
<path transform="translate(0,0)" fill="rgb(122,193,177)" d="M 764.006 1362.93 C 767.763 1362.62 771.415 1361.91 774.184 1364.23 C 775.673 1373.27 775.407 1396.92 775.936 1407.88 C 788.079 1408.76 800.881 1407.97 813.054 1408.55 C 816.999 1408.74 817.638 1408.85 819.543 1411.11 C 819.648 1414.9 820.339 1415.73 818.713 1418.44 C 809.855 1420.24 787.866 1418.73 775.526 1419.86 C 774.629 1434.06 774.888 1450.01 774.843 1464.39 C 771.392 1464.55 767.604 1464.34 764.123 1464.24 C 763.967 1449.26 763.922 1434.28 763.16 1419.32 C 755.226 1419.28 723.852 1420.62 719.648 1417.75 C 719.293 1413.93 719.368 1413.57 719.821 1409.71 C 724.807 1407.15 755.669 1407.94 763.501 1407.89 C 763.953 1393.14 763.874 1377.73 764.006 1362.93 z"/>
<path transform="translate(0,0)" fill="rgb(255,255,255)" d="M 782.875 1365.17 C 802.863 1371.98 810.388 1382.47 818.218 1400.92 L 782.937 1400.66 L 782.875 1365.17 z"/>
<path transform="translate(0,0)" fill="rgb(255,255,255)" d="M 754.933 1365.13 C 757.057 1369.18 756.107 1394.57 756.058 1400.79 C 745.243 1400.86 734.098 1400.64 723.256 1400.55 L 722.062 1399.82 C 721.839 1398.13 721.862 1397.07 722.654 1395.48 C 730.056 1380.63 740.488 1371.5 754.933 1365.13 z"/>
<path transform="translate(0,0)" fill="rgb(255,255,255)" d="M 783.05 1427.36 C 794.609 1427.17 806.17 1427.18 817.728 1427.4 C 813.852 1436.83 810.798 1441.13 804.595 1449.04 C 797.919 1455.35 791.249 1458.39 783.029 1462.25 C 782.893 1450.71 783.028 1438.92 783.05 1427.36 z"/>
<path transform="translate(0,0)" fill="rgb(255,255,255)" d="M 721.705 1427.36 C 733.141 1427 744.62 1427.32 756.063 1427.51 L 756.025 1461.8 C 739.705 1454.48 726.961 1445.68 721.705 1427.36 z"/>
<path transform="translate(0,0)" fill="rgb(149,201,185)" d="M 720.65 1450.76 C 718.282 1449.75 743.015 1470.39 741.984 1469.21 L 741.714 1470.39 L 740.581 1469.8 C 735.231 1467.57 718.705 1456.9 716.25 1452.66 C 718.827 1452.23 718.548 1452.22 720.65 1450.76 z"/>
<path transform="translate(0,0)" fill="rgb(149,201,185)" d="M 790.114 1354.35 C 792.894 1352.63 792.845 1352.89 796.187 1352.93 C 806.581 1358.6 814.442 1363.94 822.661 1372.58 C 811.839 1368.57 802.435 1359.47 790.114 1354.35 z"/>
<path transform="translate(0,0)" fill="rgb(122,193,177)" d="M 629.598 947.824 L 630.41 948.316 C 642.448 955.507 675.763 989.536 687.625 1001.04 L 681.231 1006.55 C 669.733 1017.7 660.429 1030.9 653.804 1045.48 L 648.023 1063.55 C 631.828 1049.71 629.151 1045.38 612.42 1061.25 C 583.028 1089.13 554.087 1117.51 524.838 1145.53 L 363.086 1298.15 C 344.743 1315.25 325.511 1336.29 305.13 1350.96 C 293.402 1359.4 282.607 1353.95 273.582 1344.26 C 269.161 1339.21 264.767 1334.14 260.4 1329.04 C 254.773 1318.35 256.354 1310.08 265.201 1301.46 C 291.515 1275.81 317.917 1250.25 344.337 1224.71 L 496.328 1077.04 L 574.964 999.3 C 586.278 988 618.03 954.632 629.598 947.824 z"/>
<path transform="translate(0,0)" fill="rgb(116,171,158)" d="M 273.582 1344.26 C 292.594 1339.66 317.767 1315.31 332.704 1302.15 C 354.581 1283.08 376.007 1263.5 396.966 1243.43 L 535.354 1111.7 C 553.358 1094.45 604.029 1042.08 625.275 1036.2 C 636.969 1032.96 643.058 1039.92 652.553 1044.85 C 652.967 1045.07 653.387 1045.27 653.804 1045.48 L 648.023 1063.55 C 631.828 1049.71 629.151 1045.38 612.42 1061.25 C 583.028 1089.13 554.087 1117.51 524.838 1145.53 L 363.086 1298.15 C 344.743 1315.25 325.511 1336.29 305.13 1350.96 C 293.402 1359.4 282.607 1353.95 273.582 1344.26 z"/>
<path transform="translate(0,0)" fill="rgb(149,201,185)" d="M 629.598 947.824 L 630.41 948.316 C 642.448 955.507 675.763 989.536 687.625 1001.04 L 681.231 1006.55 C 679.926 1006.51 678.355 1006.46 676.519 1006.41 C 657.233 994.738 647.608 966.8 619.248 976.953 C 610.707 980.011 593.027 995.68 585.358 1002.91 C 479.382 1103.71 375.597 1206.8 274.074 1312.09 C 268.443 1318.04 263.925 1325.32 260.4 1329.04 C 254.773 1318.35 256.354 1310.08 265.201 1301.46 C 291.515 1275.81 317.917 1250.25 344.337 1224.71 L 496.328 1077.04 L 574.964 999.3 C 586.278 988 618.03 954.632 629.598 947.824 z"/>
<path transform="translate(0,0)" fill="rgb(186,126,82)" d="M 471.781 1381.57 C 493.623 1382.09 515.387 1381.47 537.275 1382.04 C 563.082 1381.15 591.189 1382.08 617.303 1381.95 C 617.294 1386.5 617.447 1392.11 617.251 1396.55 L 617.171 1585.38 C 617.208 1592.81 617.348 1600.46 617.272 1607.86 C 603.912 1607.76 589.948 1607.88 576.645 1607.55 C 561.685 1608.09 546.668 1607.89 531.694 1607.8 C 524.034 1608.17 513.929 1607.79 506.095 1607.71 L 472.473 1607.4 L 472.702 1583.38 L 471.996 1395.85 L 471.781 1381.57 z"/>
<path transform="translate(0,0)" fill="rgb(212,157,108)" d="M 546.004 1395.9 C 558.139 1396.13 570.57 1396.07 582.733 1396.15 C 583.162 1417.11 583.354 1438.08 583.309 1459.04 C 583.34 1467.67 584.902 1487.05 580.904 1493.81 C 585.699 1491.35 591.489 1491.95 595.681 1495.34 C 599.489 1498.41 601.36 1503.28 600.585 1508.11 C 599.809 1512.95 596.505 1516.99 591.927 1518.72 C 589.038 1519.81 585.866 1519.88 582.928 1518.93 C 581.492 1538.06 582.918 1567.12 582.899 1587.3 C 570.29 1587.94 558.574 1587.93 545.958 1587.91 L 546.004 1395.9 z"/>
<path transform="translate(0,0)" fill="rgb(49,43,49)" d="M 580.904 1493.81 C 585.699 1491.35 591.489 1491.95 595.681 1495.34 C 599.489 1498.41 601.36 1503.28 600.585 1508.11 C 599.809 1512.95 596.505 1516.99 591.927 1518.72 C 589.038 1519.81 585.866 1519.88 582.928 1518.93 C 577.676 1517.24 573.962 1512.55 573.519 1507.05 C 573.076 1501.55 575.991 1496.32 580.904 1493.81 z"/>
<path transform="translate(0,0)" fill="rgb(212,157,108)" d="M 591.168 1396.49 C 599.863 1396.41 608.558 1396.43 617.251 1396.55 L 617.171 1585.38 C 608.511 1585.97 599.845 1586.45 591.174 1586.84 C 590.981 1576.98 590.53 1525.52 591.927 1518.72 C 596.505 1516.99 599.809 1512.95 600.585 1508.11 C 601.36 1503.28 599.489 1498.41 595.681 1495.34 C 594.382 1492.56 593.4 1492.15 591.062 1489.95 C 590.074 1485.17 590.543 1468.63 590.56 1462.6 C 590.571 1440.56 590.774 1418.53 591.168 1396.49 z"/>
<path transform="translate(0,0)" fill="rgb(212,157,108)" d="M 471.996 1395.85 C 479.767 1395.89 487.537 1395.66 495.291 1395.14 L 495.268 1521.25 C 495.327 1537.71 494.749 1568.87 496.113 1584.27 C 491.995 1586.01 477.639 1583.92 472.702 1583.38 L 471.996 1395.85 z"/>
<path transform="translate(0,0)" fill="rgb(212,157,108)" d="M 502.729 1394.82 C 511.382 1394.95 520.037 1394.93 528.689 1394.75 C 531.796 1394.86 535.651 1394.46 537.827 1396.25 C 539.098 1405.88 538.511 1433.62 538.552 1444.67 L 538.652 1532.22 C 538.556 1550.28 537.7 1570.35 538.78 1588.04 C 531.481 1588.48 511.379 1586.94 503.718 1586.21 C 502.707 1563.42 503.146 1538.19 503.114 1515.27 L 502.729 1394.82 z"/>
<path transform="translate(0,0)" fill="rgb(122,193,177)" d="M 814.975 1128.41 C 821.118 1133.76 826.814 1139.48 832.618 1145.19 L 942.776 1250.42 C 961.319 1268.07 980.508 1285.28 998.072 1303.88 C 1005.54 1311.78 1004.69 1320.31 999.467 1329.2 C 993.922 1336.31 989.723 1341.04 983.531 1347.64 C 976.328 1353.54 962.265 1358.01 954.323 1351.54 C 936.454 1336.96 920.204 1319.8 903.285 1304.02 L 776.234 1184.98 L 758.751 1168.27 L 773.579 1161.25 C 792.647 1150.09 799.9 1144.09 814.975 1128.41 z"/>
<path transform="translate(0,0)" fill="rgb(116,171,158)" d="M 814.975 1128.41 C 821.118 1133.76 826.814 1139.48 832.618 1145.19 C 827.736 1147.28 826.897 1147.88 822.691 1151.16 C 813.055 1157.1 799.832 1169.89 788.389 1177.69 L 805.594 1194.91 C 820.518 1207.51 838.578 1227.21 852.318 1238.98 C 877.133 1260.24 956.116 1344.2 983.531 1347.64 C 976.328 1353.54 962.265 1358.01 954.323 1351.54 C 936.454 1336.96 920.204 1319.8 903.285 1304.02 L 776.234 1184.98 L 758.751 1168.27 L 773.579 1161.25 C 792.647 1150.09 799.9 1144.09 814.975 1128.41 z"/>
<path transform="translate(0,0)" fill="rgb(89,149,137)" d="M 758.751 1168.27 L 773.579 1161.25 C 775.605 1166.96 782.924 1169.26 787.095 1177.6 C 782.253 1179.92 780.331 1181.67 776.234 1184.98 L 758.751 1168.27 z"/>
<path transform="translate(0,0)" fill="rgb(149,201,185)" d="M 832.618 1145.19 L 942.776 1250.42 C 961.319 1268.07 980.508 1285.28 998.072 1303.88 C 1005.54 1311.78 1004.69 1320.31 999.467 1329.2 C 998.058 1328.61 997.518 1328.17 996.223 1327.36 C 991.647 1311.15 975.074 1300.61 963.119 1289.69 C 928.283 1257.89 893.999 1225.39 861.53 1191.15 C 849.186 1178.13 833.981 1164.88 822.691 1151.16 C 826.897 1147.88 827.736 1147.28 832.618 1145.19 z"/>
<path transform="translate(0,0)" fill="rgb(245,209,146)" d="M 1104 1445.3 C 1122.19 1450.09 1136.92 1452.9 1155.51 1455.95 C 1155.08 1475.5 1155.69 1505.85 1154.17 1524.43 C 1155.12 1541.64 1153.93 1572.4 1153.81 1590.59 C 1141.97 1604.62 1082.71 1650.73 1063.91 1641.7 C 1056.52 1627.97 1097.53 1608.28 1099.21 1595.3 C 1092.99 1583.22 1077.47 1602.65 1068.84 1605.6 C 1058.33 1609.2 1036.33 1614.37 1026.19 1609.53 C 1016.43 1594.8 1094.14 1567.21 1105.46 1559.72 C 1106.55 1540.98 1104.97 1508.6 1104.59 1489.06 C 1104.48 1474.58 1104.54 1459.74 1104 1445.3 z"/>
<path transform="translate(0,0)" fill="rgb(212,157,108)" d="M 1104 1445.3 C 1122.19 1450.09 1136.92 1452.9 1155.51 1455.95 C 1155.08 1475.5 1155.69 1505.85 1154.17 1524.43 C 1153.47 1518.13 1153.81 1505.91 1153.81 1499.16 C 1144.41 1497.58 1135.92 1496.89 1126.49 1494.75 C 1118.88 1493.03 1112.1 1490.72 1104.59 1489.06 C 1104.48 1474.58 1104.54 1459.74 1104 1445.3 z"/>
<path transform="translate(0,0)" fill="rgb(245,209,146)" d="M 1324.07 1458.26 C 1341.79 1455.81 1358.52 1452.25 1376.11 1449.19 C 1375.41 1462.88 1375.69 1478.75 1374.37 1492 C 1373.47 1512.37 1371.68 1538.33 1372.16 1558.22 C 1389.68 1575.03 1442.61 1587.75 1451.67 1607.17 C 1451.62 1610.8 1452.16 1609.13 1449.54 1612.18 C 1442.37 1614.92 1418.72 1610.82 1410.52 1607.39 C 1401.8 1603.74 1389.94 1589.28 1381.31 1592.29 C 1379.68 1594.44 1379.43 1595 1379.71 1597.86 C 1380.79 1608.78 1417.59 1626.73 1412.84 1642.36 C 1396.25 1653.12 1333.44 1604.41 1323.72 1589.7 L 1324.03 1498.11 L 1324.07 1458.26 z"/>
<path transform="translate(0,0)" fill="rgb(212,157,108)" d="M 1324.07 1458.26 C 1341.79 1455.81 1358.52 1452.25 1376.11 1449.19 C 1375.41 1462.88 1375.69 1478.75 1374.37 1492 C 1357.75 1493.22 1343.18 1499.86 1324.03 1498.11 L 1324.07 1458.26 z"/>
<path transform="translate(0,0)" fill="rgb(245,209,146)" d="M 1210.56 459.862 C 1201.33 430.212 1196.18 395.87 1209.14 365.62 C 1210.93 361.454 1213.38 359.336 1217.33 357.443 C 1221.53 357.606 1224.48 360.668 1227.15 363.676 C 1252.66 392.399 1252.61 441.973 1248.37 478.037 C 1246.23 491.553 1243.33 506.855 1239.94 520.028 C 1229.92 499.784 1215.64 481.496 1210.56 459.862 z"/>
<path transform="translate(0,0)" fill="rgb(220,179,111)" d="M 1210.56 459.862 C 1215.58 467.257 1218.31 475.441 1228.21 478.248 C 1233.67 479.795 1242.8 479.178 1248.37 478.037 C 1246.23 491.553 1243.33 506.855 1239.94 520.028 C 1229.92 499.784 1215.64 481.496 1210.56 459.862 z"/>
<path transform="translate(0,0)" fill="rgb(245,209,146)" d="M 1260.17 498.962 C 1272.06 475.795 1293.81 455.615 1318.27 446.734 C 1336.3 440.189 1334.49 453.711 1328.53 464.895 C 1322.25 476.69 1317.32 483.761 1307.59 492.95 C 1305.17 495.281 1302.58 497.423 1299.83 499.357 C 1291.98 506.278 1263.02 525.676 1252.46 525.173 C 1245.49 520.659 1256.97 504.477 1260.17 498.962 z"/>
<path transform="translate(0,0)" fill="rgb(220,179,111)" d="M 1260.17 498.962 C 1266.45 504.83 1291.56 501.249 1299.83 499.357 C 1291.98 506.278 1263.02 525.676 1252.46 525.173 C 1245.49 520.659 1256.97 504.477 1260.17 498.962 z"/>
<path transform="translate(0,0)" fill="url(#Gradient1)" d="M 1153.72 456.312 C 1187.32 463.03 1215.71 498.049 1230.9 526.777 C 1215.8 527.565 1194.99 514.595 1183.39 505.37 C 1166.97 492.306 1156.2 477.425 1153.72 456.312 z"/>
</svg>