<svg version="1.1" xmlns="http://www.w3.org/2000/svg" viewBox="168.25 207.43 1771.78 1511.14" width="1772" height="1511">
<defs>
	<linearGradient id="Gradient1" gradientUnits="userSpaceOnUse" x1="1613.51" y1="1523.38" x2="1653.35" y2="1630.05">
		<stop class="stop0" offset="0" stop-opacity="1" stop-color="rgb(238,147,139)"/>
		<stop class="stop1" offset="1" stop-opacity="1" stop-color="rgb(249,205,193)"/>
	</linearGradient>
	<linearGradient id="Gradient2" gradientUnits="userSpaceOnUse" x1="1563.73" y1="950.662" x2="1582.13" y2="974.447">
		<stop class="stop0" offset="0" stop-opacity="1" stop-color="rgb(192,138,66)"/>
		<stop class="stop1" offset="1" stop-opacity="1" stop-color="rgb(238,182,99)"/>
	</linearGradient>
</defs>
<path transform="translate(0,0)" fill="rgb(51,45,50)" d="M 729.265 277.815 C 769.313 273.051 791.731 364.636 792.492 394.875 C 798.439 388.707 804.213 382.349 810.26 376.282 C 821.655 364.849 840.03 349.384 857.02 349.82 C 861.42 349.932 866.093 350.611 869.101 354.151 C 872.773 358.474 873.653 365.214 873.668 370.666 C 873.775 408.182 828.094 441.944 827.577 449.422 C 834.127 451.9 847.964 447.371 853.744 447.714 C 870.676 448.718 891.379 449.866 907.971 451.994 C 996.096 463.296 1081.78 492.751 1153.25 546.555 C 1169.17 558.54 1178.77 564.709 1194.12 578.623 C 1259.51 637.877 1305.5 711.903 1328.88 796.988 C 1332.18 809.002 1339.72 836.239 1340.16 848.31 C 1408 843.073 1530.96 842.017 1537 935.159 C 1628.86 945.858 1645.38 1076.98 1578.26 1130.26 C 1534.62 1164.89 1469.63 1149.56 1437.45 1106.13 C 1433.07 1100.22 1431.37 1091.46 1426.29 1084.91 C 1422.74 1085.58 1403.02 1095.85 1398.87 1098.09 C 1370.31 1113.56 1342.85 1120.68 1311.39 1127.78 C 1250.12 1258.15 1144.61 1335.44 1012.63 1385.8 C 1015.51 1402.29 1013.97 1414.24 1015.09 1430.16 C 1016.44 1449.56 1017.57 1467.4 1017.98 1486.86 C 1037.61 1498.09 1126.03 1516.26 1092.74 1552.31 C 1085.66 1559.97 1068.2 1558.74 1058.72 1557.58 C 1061.13 1565.48 1065.17 1577.41 1059.45 1584.15 C 1041.5 1605.27 992.312 1573.34 977.534 1564.1 C 966.868 1556.46 955.369 1549.97 945.856 1540.75 C 935.445 1530.66 939.655 1513.37 938.629 1500.05 C 936.27 1469.43 934.91 1438.35 935.172 1407.63 C 916.114 1409.76 897.487 1414.66 879.732 1416.67 C 852.519 1419.75 819.125 1419.09 791.86 1418.95 C 794.583 1437.64 793.386 1447.26 794.179 1465.47 L 795.708 1510.51 C 796.099 1521.17 797.132 1529.15 797.03 1540.43 L 796.484 1541.46 C 784.254 1563.99 734.583 1601.01 709.507 1609.57 C 689.754 1616.31 668.784 1603.19 683.156 1580.36 C 664.629 1582.83 647.393 1585.94 635.691 1568.82 C 636.138 1565.34 636.695 1559.94 638.46 1556.71 C 650.324 1536.26 676.165 1526.97 695.358 1514.61 C 701.294 1510.78 714.586 1507.19 714.405 1499.13 C 713.75 1469.89 708.362 1440.12 708.467 1411.01 L 707.337 1410.58 C 695.164 1405.82 681.395 1404.49 668.625 1400.6 C 630.768 1389.06 594.525 1376.56 558.598 1359.64 C 543.336 1352.45 525.413 1340.59 510.299 1332.32 C 502.284 1328.69 474.559 1305.67 467.742 1305.44 C 438.773 1304.44 407.382 1316.15 376.846 1313.92 C 328.676 1310.38 277.803 1298.7 241.137 1265.72 C 233.869 1259.18 234.309 1248 234.901 1239.43 C 252.436 1220.87 259.547 1219.8 283.316 1213.11 C 272.119 1197.31 265.232 1187.36 267.201 1166.16 C 267.886 1158.79 272.512 1141.29 275.887 1135.05 C 287.137 1114.23 314.532 1073.01 332.538 1058.97 C 324.976 1038.34 316.205 991.431 314.834 969.495 C 300.522 740.45 468.971 546.608 679.294 478.661 C 692.303 474.458 701.941 468.546 716.134 464.808 C 688.647 451.875 653.879 434.683 659.02 397.956 C 660.846 384.912 682.633 387.544 691.273 390.071 C 702.562 393.373 711.633 400.288 723.43 402.355 C 713.188 369.299 689.866 300.475 729.265 277.815 z"/>
<path transform="translate(0,0)" fill="rgb(153,201,187)" d="M 343.053 1048.05 C 316.025 935.187 329.738 831.989 386.3 729.837 C 451.925 611.315 571.664 524.667 700.646 487.18 C 839.143 446.927 974.781 459.227 1101.13 529.687 C 1208.75 588.83 1286.94 690.047 1316.99 809.114 C 1324.68 839.347 1327.52 867.165 1329.94 898.06 C 1330.12 900.463 1332.2 901.397 1334.08 902.36 C 1341.98 902.03 1342.48 896.675 1342.28 890.385 C 1341.99 881.268 1341.38 872.288 1340.73 863.192 C 1395.93 859.683 1527.46 853.18 1522.26 940.583 C 1517.98 974.838 1465.07 1001.84 1433.88 999.004 C 1405.41 996.412 1440.7 961.209 1418.77 960.033 C 1409.61 964.312 1408.34 981.618 1409.89 990.372 C 1411.64 1000.3 1416.73 1005.66 1424.94 1010.99 C 1419.14 1031.22 1418.84 1049.04 1422.91 1069.5 C 1387.27 1090.53 1360.05 1104.04 1318.67 1111.86 C 1320.35 1107.15 1321.99 1102.42 1323.6 1097.69 C 1330.63 1076.87 1335.51 1054.64 1340.45 1033.24 C 1341.77 1027.56 1339.78 1019.63 1333.44 1017.92 C 1331.4 1018.86 1328.6 1020.82 1328.2 1023.21 C 1316.03 1096.54 1283.18 1171.66 1230.4 1226.55 C 1197.4 1261.47 1173.05 1284.11 1132.96 1310.51 C 1012.12 1393.12 857.664 1420.92 713.838 1396.04 C 683.727 1390.84 655.148 1382.07 626.115 1372.76 C 583.505 1358.83 514.972 1324.35 480.746 1294.49 C 503.718 1283.71 516.794 1274.55 534.697 1256.71 C 539.502 1250.02 545.495 1243.86 550.128 1236.83 C 569.351 1207.67 579.615 1171.1 581.135 1136.37 C 581.492 1128.2 583.207 1117.87 573.154 1116.38 C 570.799 1117.47 568.403 1118.86 568.171 1121.76 C 565.952 1149.55 565.816 1175.16 553.207 1201.23 L 552.661 1202.33 C 514.386 1300.64 383.556 1319.01 296.368 1283.41 C 282.054 1277.57 258.089 1265.97 250.289 1252.05 C 242.398 1229.68 288.873 1232.62 300.329 1221.79 C 301.98 1215.49 286.124 1195.39 283.703 1180.05 C 278.396 1130.97 327.454 1082.56 359.975 1050.9 C 367.434 1043.64 389.419 1033.62 387.412 1023.48 C 381.471 1017.08 373.748 1022.83 368.096 1027.16 C 359.597 1033.67 351.222 1041.1 343.053 1048.05 z"/>
<path transform="translate(0,0)" fill="rgb(252,251,240)" d="M 617.976 1313.66 C 617.863 1312.61 617.725 1311.52 617.737 1310.49 C 620.763 1056.63 986.183 916.616 1168.47 1082.48 C 1208.66 1119.05 1228.87 1173.1 1230.4 1226.55 C 1197.4 1261.47 1173.05 1284.11 1132.96 1310.51 C 1012.12 1393.12 857.664 1420.92 713.838 1396.04 C 683.727 1390.84 655.148 1382.07 626.115 1372.76 C 619.037 1351.94 618.029 1336.23 617.725 1314.78 L 617.976 1313.66 z"/>
<path transform="translate(0,0)" fill="rgb(247,206,191)" d="M 617.976 1313.66 C 649.083 1330.77 709.534 1348.54 744.969 1356.05 C 836.655 1374.74 931.429 1371.87 1021.82 1347.66 C 1048.29 1340.61 1073.8 1333.35 1098.88 1321.96 C 1110.7 1316.6 1119.89 1312.12 1132.96 1310.51 C 1012.12 1393.12 857.664 1420.92 713.838 1396.04 C 683.727 1390.84 655.148 1382.07 626.115 1372.76 C 619.037 1351.94 618.029 1336.23 617.725 1314.78 L 617.976 1313.66 z"/>
<path transform="translate(0,0)" fill="rgb(141,181,171)" d="M 480.746 1294.49 C 503.718 1283.71 516.794 1274.55 534.697 1256.71 C 534.153 1260.7 533.034 1262.83 535.146 1265.46 C 544.988 1277.74 612.991 1308.12 617.725 1314.78 C 618.029 1336.23 619.037 1351.94 626.115 1372.76 C 583.505 1358.83 514.972 1324.35 480.746 1294.49 z"/>
<path transform="translate(0,0)" fill="rgb(141,181,171)" d="M 552.661 1202.33 C 514.386 1300.64 383.556 1319.01 296.368 1283.41 C 282.054 1277.57 258.089 1265.97 250.289 1252.05 L 251.255 1252.18 C 257.951 1253.02 273.141 1259.68 280.291 1262.32 C 290.67 1266.11 301.355 1269 312.229 1270.96 C 383.722 1283.36 461.41 1272.62 520.553 1230.26 C 525.243 1226.86 530.961 1223.73 535.223 1219.86 C 541.233 1214.42 545.753 1206.71 552.661 1202.33 z"/>
<path transform="translate(0,0)" fill="rgb(51,45,50)" d="M 702.502 783.268 C 752.766 779.997 787.657 813.141 796.088 862 C 805.29 915.321 778.468 965.638 722.257 974.676 C 611.572 985.004 591.963 800.955 702.502 783.268 z"/>
<path transform="translate(0,0)" fill="rgb(255,255,255)" d="M 716.252 812.256 C 746.576 812.64 751.339 856.777 723.952 866.172 C 690.189 865.415 687.964 819.093 716.252 812.256 z"/>
<path transform="translate(0,0)" fill="rgb(255,255,255)" d="M 726.185 882.886 C 732.911 881.91 739.153 886.576 740.12 893.303 C 741.087 900.031 736.412 906.266 729.683 907.224 C 722.968 908.18 716.747 903.516 715.782 896.802 C 714.817 890.088 719.472 883.861 726.185 882.886 z"/>
<path transform="translate(0,0)" fill="rgb(51,45,50)" d="M 1095.1 714.274 C 1194.48 706.6 1222.92 876.022 1121.02 896.362 C 1019.47 907.666 992.702 731.363 1095.1 714.274 z"/>
<path transform="translate(0,0)" fill="rgb(255,255,255)" d="M 1107.79 742.194 C 1138.19 737.736 1152.57 777.598 1126.33 793.093 C 1094.63 799.203 1084.19 753.887 1107.79 742.194 z"/>
<path transform="translate(0,0)" fill="rgb(255,255,255)" d="M 1132.41 809.508 C 1138.87 808.959 1144.62 813.6 1145.45 820.035 C 1146.27 826.471 1141.88 832.414 1135.49 833.517 C 1131.1 834.273 1126.65 832.562 1123.9 829.06 C 1121.15 825.559 1120.55 820.831 1122.32 816.748 C 1124.1 812.665 1127.97 809.885 1132.41 809.508 z"/>
<path transform="translate(0,0)" fill="rgb(51,45,50)" d="M 855.511 922.906 C 854.984 922.171 854.464 921.432 853.951 920.688 C 852.375 918.392 848.924 913.36 850.626 910.765 C 865.59 887.953 899.689 858.384 922.995 844.093 C 928.429 841.568 940.622 844.827 945.342 847.353 C 960.458 855.442 1014.68 875.252 1005.53 897.013 C 1005.94 925.711 970.953 992.738 936.137 994.808 C 918.452 995.86 891.848 976.165 879.759 963.948 C 866.777 950.822 858.104 941.389 855.511 922.906 z"/>
<path transform="translate(0,0)" fill="rgb(141,181,171)" d="M 1005.53 897.013 C 1005.94 925.711 970.953 992.738 936.137 994.808 C 918.452 995.86 891.848 976.165 879.759 963.948 C 866.777 950.822 858.104 941.389 855.511 922.906 C 858.77 926.923 862.274 930.733 866.005 934.316 C 882.514 950.386 914.767 976.643 938.699 977.147 C 963.296 977.665 979.095 930.016 989.325 913.256 C 990.431 911.444 1002.31 900.457 1005.53 897.013 z"/>
<path transform="translate(0,0)" fill="rgb(246,212,153)" d="M 927.741 855.705 C 943.052 855.682 981.392 879.154 992.89 890.15 C 986.195 898.028 979.752 903.366 971.717 909.707 C 957.214 921.151 950.919 921.048 933.436 919.7 C 906.3 917.049 895.048 916.312 866.438 910.496 C 876.254 897.411 913.715 864.609 927.741 855.705 z"/>
<path transform="translate(0,0)" fill="rgb(231,174,104)" d="M 875.253 925.661 C 885.674 926.998 896.725 928.159 906.924 930.471 C 913.794 937.155 918.507 939.94 926.615 944.948 C 931.228 947.761 935.747 950.413 940.475 953.022 C 950.594 958.607 947.06 961.518 939.445 966.078 C 932.603 964.182 925.456 962.315 919.348 958.583 C 905.649 953.063 885.92 935.666 875.253 925.661 z"/>
<path transform="translate(0,0)" fill="rgb(230,184,114)" d="M 919.348 958.583 C 916.988 954.361 911.742 950.906 915.455 946.095 C 919.265 944.518 922.453 944.924 926.615 944.948 C 931.228 947.761 935.747 950.413 940.475 953.022 C 950.594 958.607 947.06 961.518 939.445 966.078 C 932.603 964.182 925.456 962.315 919.348 958.583 z"/>
<path transform="translate(0,0)" fill="rgb(246,212,153)" d="M 924.294 948.592 C 929.918 949.705 939.609 955.11 943.677 959.264 L 943.343 960.7 L 939.321 962.194 C 934.151 963.329 924.239 959.324 921.453 953.963 C 922.115 950.231 921.511 952.044 924.294 948.592 z"/>
<path transform="translate(0,0)" fill="rgb(201,68,60)" d="M 916.404 931.233 C 932.066 931.371 942.021 931.953 957.644 930.603 L 953.504 943.89 C 952.18 946.753 951.869 948.192 949.229 949.9 C 941.731 946.871 923.209 935.834 916.404 931.233 z"/>
<path transform="translate(0,0)" fill="rgb(255,255,255)" d="M 977.91 523.251 C 1024.51 520.09 1094.8 549.032 1112.26 597.536 C 1116.84 610.279 1103.21 618.317 1092.19 620.892 C 1060.85 621.94 1038.18 615.87 1010.34 600.546 C 990.05 588.363 964.069 572.039 956.776 548.091 C 952.186 533.019 964.939 525.573 977.91 523.251 z"/>
<path transform="translate(0,0)" fill="rgb(247,206,191)" d="M 613.813 964.443 C 634.35 964.849 684.047 972.951 661.802 1007.41 C 652.211 1022.27 625.543 1027.79 608.499 1029.88 C 528.418 1031.42 537.919 969.736 613.813 964.443 z"/>
<path transform="translate(0,0)" fill="rgb(247,206,191)" d="M 1211.59 873.363 C 1284.87 868.388 1283.81 925.061 1212.94 939.784 C 1133.18 947.942 1140.03 881.268 1211.59 873.363 z"/>
<path transform="translate(0,0)" fill="rgb(248,204,112)" d="M 1533.88 946.601 C 1568 959.015 1588.33 1000.45 1587.23 1035.32 C 1591.81 1062.54 1568.3 1111.21 1543.71 1123.84 C 1536.18 1131.79 1512.65 1136.08 1501.75 1135.36 C 1452.06 1132.04 1425.66 1080.1 1429.34 1034.78 C 1429.79 1029.32 1430.98 1016.58 1434.94 1013 C 1437.43 1012.45 1450.69 1011.83 1454.47 1011.5 C 1464.96 1007.38 1470.74 1007.38 1482.64 1001.25 C 1486 999.407 1487.37 998.777 1490.96 997.413 C 1497.72 992.381 1502.13 990.619 1509.79 984.222 L 1515.7 978.895 C 1520.27 973.954 1522.34 971.954 1525.77 966.145 L 1528.26 961.227 C 1531.05 955.256 1532.05 953.021 1533.88 946.601 z"/>
<path transform="translate(0,0)" fill="rgb(248,204,112)" d="M 1533.88 946.601 C 1568 959.015 1588.33 1000.45 1587.23 1035.32 C 1591.81 1062.54 1568.3 1111.21 1543.71 1123.84 L 1546.38 1119.99 C 1547.45 1113.32 1545.73 1110.99 1542.75 1104.83 L 1542.84 1104.22 L 1540.85 1099.88 L 1541.3 1098.84 C 1540.99 1089.25 1537.1 1076.4 1535.45 1066.61 C 1530.65 1038.01 1526.45 1009.07 1518.88 981.075 C 1518.44 979.456 1517.29 979.558 1515.7 978.895 C 1520.27 973.954 1522.34 971.954 1525.77 966.145 L 1528.26 961.227 C 1531.05 955.256 1532.05 953.021 1533.88 946.601 z"/>
<path transform="translate(0,0)" fill="rgb(248,204,112)" d="M 1533.88 946.601 C 1568 959.015 1588.33 1000.45 1587.23 1035.32 C 1591.81 1062.54 1568.3 1111.21 1543.71 1123.84 L 1546.38 1119.99 C 1547.45 1113.32 1545.73 1110.99 1542.75 1104.83 L 1542.84 1104.22 L 1540.85 1099.88 L 1541.3 1098.84 C 1559.32 1081.39 1568.52 1054.3 1566.13 1029.61 C 1564.73 1015.09 1563 1002.03 1551.39 991.735 L 1553.19 988.726 L 1554.57 985.201 C 1549.51 974.688 1537.69 967.518 1528.26 961.227 C 1531.05 955.256 1532.05 953.021 1533.88 946.601 z"/>
<path transform="translate(0,0)" fill="rgb(220,144,55)" d="M 1551.39 991.735 L 1553.19 988.726 C 1555.46 995.67 1558.64 995.631 1565.08 998.376 C 1566.1 1001.85 1567.17 1005.3 1568.31 1008.74 C 1577.01 1040.28 1570.46 1083.65 1542.84 1104.22 L 1540.85 1099.88 L 1541.3 1098.84 C 1559.32 1081.39 1568.52 1054.3 1566.13 1029.61 C 1564.73 1015.09 1563 1002.03 1551.39 991.735 z"/>
<path transform="translate(0,0)" fill="rgb(255,255,255)" d="M 1554.57 985.201 C 1557.45 981.845 1558.72 979.638 1562.67 978.073 C 1574.36 978.076 1576.13 994.854 1565.08 998.376 C 1558.64 995.631 1555.46 995.67 1553.19 988.726 L 1554.57 985.201 z"/>
<path transform="translate(0,0)" fill="rgb(220,144,55)" d="M 1528.26 961.227 C 1537.69 967.518 1549.51 974.688 1554.57 985.201 L 1553.19 988.726 L 1551.39 991.735 C 1547.56 977.568 1537.96 973.52 1525.77 966.145 L 1528.26 961.227 z"/>
<path transform="translate(0,0)" fill="rgb(248,204,112)" d="M 1515.7 978.895 C 1517.29 979.558 1518.44 979.456 1518.88 981.075 C 1526.45 1009.07 1530.65 1038.01 1535.45 1066.61 C 1537.1 1076.4 1540.99 1089.25 1541.3 1098.84 L 1540.85 1099.88 C 1535.47 1104.51 1534.37 1105.29 1527.77 1107.55 C 1523.96 1110 1518.27 1111.77 1513.85 1112.91 L 1503.77 1113.08 L 1503.19 1111.25 C 1500.9 1104.03 1481.3 1005.58 1482.64 1001.25 C 1486 999.407 1487.37 998.777 1490.96 997.413 C 1497.72 992.381 1502.13 990.619 1509.79 984.222 L 1515.7 978.895 z"/>
<path transform="translate(0,0)" fill="rgb(246,212,153)" d="M 1515.7 978.895 C 1517.29 979.558 1518.44 979.456 1518.88 981.075 C 1526.45 1009.07 1530.65 1038.01 1535.45 1066.61 C 1537.1 1076.4 1540.99 1089.25 1541.3 1098.84 L 1540.85 1099.88 C 1535.47 1104.51 1534.37 1105.29 1527.77 1107.55 C 1527.1 1105.3 1525.2 1094.1 1525.15 1091.85 C 1524.76 1072.55 1503.69 998.419 1509.79 984.222 L 1515.7 978.895 z"/>
<path transform="translate(0,0)" fill="rgb(246,212,153)" d="M 1490.96 997.413 C 1495.14 996.271 1496.29 995.189 1499.84 996.131 L 1500.95 998.724 C 1499.63 1001.53 1500.3 1000.51 1497.67 1002.56 C 1497.15 1008.41 1499 1014.76 1499.61 1020.64 C 1502.13 1044.57 1507.31 1068.07 1511.37 1091.75 C 1512.5 1098.39 1514.08 1106.25 1513.85 1112.91 L 1503.77 1113.08 L 1503.19 1111.25 C 1500.9 1104.03 1481.3 1005.58 1482.64 1001.25 C 1486 999.407 1487.37 998.777 1490.96 997.413 z"/>
<path transform="translate(0,0)" fill="rgb(248,204,112)" d="M 1454.47 1011.5 C 1464.96 1007.38 1470.74 1007.38 1482.64 1001.25 C 1481.3 1005.58 1500.9 1104.03 1503.19 1111.25 L 1503.77 1113.08 L 1498.4 1112.93 C 1468.38 1106.02 1453.35 1080.91 1449.98 1051.98 C 1448.13 1036.11 1450.44 1026.65 1454.47 1011.5 z"/>
<path transform="translate(0,0)" fill="rgb(220,144,55)" d="M 1434.94 1013 C 1437.43 1012.45 1450.69 1011.83 1454.47 1011.5 C 1450.44 1026.65 1448.13 1036.11 1449.98 1051.98 C 1453.35 1080.91 1468.38 1106.02 1498.4 1112.93 C 1502.14 1114.55 1502.29 1113.9 1504.24 1116.72 C 1501.8 1118.7 1501.74 1118.08 1498.01 1118.45 C 1453.53 1107.64 1438 1063.43 1445.03 1020.7 C 1445.39 1018.52 1448.4 1017.77 1447.36 1013.6 C 1443.22 1013.49 1439.07 1013.29 1434.94 1013 z"/>
<path transform="translate(0,0)" fill="rgb(246,212,153)" d="M 1542.75 1104.83 C 1545.73 1110.99 1547.45 1113.32 1546.38 1119.99 L 1543.71 1123.84 L 1537.9 1125.29 C 1531.3 1124.15 1529.57 1118.99 1529.39 1113.04 C 1534.4 1108.5 1536.81 1107.55 1542.75 1104.83 z"/>
<path transform="translate(0,0)" fill="rgb(231,174,104)" d="M 1527.77 1107.55 C 1534.37 1105.29 1535.47 1104.51 1540.85 1099.88 L 1542.84 1104.22 L 1542.75 1104.83 C 1536.81 1107.55 1534.4 1108.5 1529.39 1113.04 C 1521.81 1119.07 1507.37 1120.09 1498.01 1118.45 C 1501.74 1118.08 1501.8 1118.7 1504.24 1116.72 C 1502.29 1113.9 1502.14 1114.55 1498.4 1112.93 L 1503.77 1113.08 L 1513.85 1112.91 C 1518.27 1111.77 1523.96 1110 1527.77 1107.55 z"/>
<path transform="translate(0,0)" fill="rgb(246,212,153)" d="M 948.49 1404.15 C 967.887 1400.15 981.141 1396.07 999.983 1390.13 C 999.842 1406.6 1000.86 1423 1000.77 1439.58 L 1002.17 1494.32 C 1002.54 1494.56 1002.9 1494.79 1003.27 1495.02 C 1018.12 1504.12 1081.94 1524.36 1086.49 1537.67 C 1087.33 1540.14 1086.59 1540.95 1085.34 1542.92 C 1077.1 1547.72 1058.81 1544.19 1049.21 1542.97 C 1037.95 1541.54 1024.65 1523.32 1013.46 1528.47 C 1004.79 1541.57 1050.64 1553.64 1049.54 1575.77 C 1035.31 1591.74 964.756 1539.57 954.146 1527.08 C 953.284 1504.82 950.89 1474.57 950.872 1453.19 C 949.487 1445.81 948.848 1413.42 948.49 1404.15 z"/>
<path transform="translate(0,0)" fill="rgb(231,174,104)" d="M 948.49 1404.15 C 967.887 1400.15 981.141 1396.07 999.983 1390.13 C 999.842 1406.6 1000.86 1423 1000.77 1439.58 L 999.019 1429.06 C 996.013 1428.46 956.86 1438.97 950.991 1440.58 C 951.012 1444.67 951.164 1449.16 950.872 1453.19 C 949.487 1445.81 948.848 1413.42 948.49 1404.15 z"/>
<path transform="translate(0,0)" fill="rgb(246,212,153)" d="M 722.956 1411.55 C 741.805 1413.98 757.735 1415.6 776.518 1417.17 C 776.941 1430.05 777.459 1442.93 778.071 1455.8 C 778.393 1482.15 781.489 1512.54 782.316 1539.63 C 770.275 1553.92 714.457 1602.94 696.111 1598.94 C 679.293 1585.02 727.184 1561.01 725.892 1548.44 C 722.985 1545.14 724.704 1546.2 720.661 1544.94 C 713.134 1546.17 703.139 1555.61 696.683 1560.23 C 688.935 1565.78 661.973 1570.15 653.395 1568.29 C 650.436 1566.01 651.39 1567.42 650.295 1563.99 C 653.487 1548.17 714.892 1523.2 730.199 1512.34 C 730.009 1493.03 727.417 1468.48 725.798 1448.9 C 725.015 1436.44 724.068 1423.99 722.956 1411.55 z"/>
<path transform="translate(0,0)" fill="rgb(231,174,104)" d="M 722.956 1411.55 C 741.805 1413.98 757.735 1415.6 776.518 1417.17 C 776.941 1430.05 777.459 1442.93 778.071 1455.8 C 754.391 1453.45 750.799 1454.69 725.798 1448.9 C 725.015 1436.44 724.068 1423.99 722.956 1411.55 z"/>
<path transform="translate(0,0)" fill="rgb(246,212,153)" d="M 732.842 381.653 C 723.22 354.988 717.773 325.394 726.643 297.748 C 728.707 291.316 736.512 291.002 740.875 294.625 C 763.96 313.801 777.507 361.972 777.061 390.741 C 780.01 404.046 776.861 436.395 774.87 450.812 C 761.15 435.954 738.755 401.138 732.842 381.653 z"/>
<path transform="translate(0,0)" fill="rgb(230,184,114)" d="M 732.842 381.653 C 737.095 386.27 739.891 395.486 742.468 398.025 C 747.982 403.458 767.19 415.485 774.685 411.321 C 778.414 404.82 775.962 398.231 777.061 390.741 C 780.01 404.046 776.861 436.395 774.87 450.812 C 761.15 435.954 738.755 401.138 732.842 381.653 z"/>
<path transform="translate(0,0)" fill="rgb(246,212,153)" d="M 798.454 413.862 C 805.559 399.169 838.101 360.479 856.262 364.889 C 868.487 374.39 845.596 407.504 838.419 416.245 C 834.759 420.708 830.678 424.807 826.23 428.486 C 816.382 439.093 798.083 452.065 784.032 456.65 C 786.966 444.155 791.874 424.81 798.454 413.862 z"/>
<path transform="translate(0,0)" fill="rgb(230,184,114)" d="M 798.454 413.862 C 797.579 420.74 796.3 426.099 794.743 432.845 C 805.225 431.021 816.853 431.678 826.23 428.486 C 816.382 439.093 798.083 452.065 784.032 456.65 C 786.966 444.155 791.874 424.81 798.454 413.862 z"/>
<path transform="translate(0,0)" fill="rgb(246,212,153)" d="M 715.762 449.692 C 668.63 431.531 643.207 369.532 730.899 424.846 C 740.161 432.545 760.131 449.687 767.613 458.743 C 749.426 460.998 732.323 457.808 715.762 449.692 z"/>
<path transform="translate(0,0)" fill="rgb(230,184,114)" d="M 730.899 424.846 C 740.161 432.545 760.131 449.687 767.613 458.743 C 749.426 460.998 732.323 457.808 715.762 449.692 C 721.054 449.739 724.317 450.656 729.445 451.76 C 733.244 441.082 732.91 436.195 730.899 424.846 z"/>
<path transform="translate(0,0)" fill="rgb(248,204,112)" d="M 1594.53 1013.84 C 1600.36 1015.59 1601.41 1015.56 1607.54 1015.49 C 1610.74 1031.23 1611.68 1054.02 1606.91 1069.51 C 1603.61 1069.68 1596.37 1068.61 1591.85 1068.51 C 1597.17 1042.54 1595.88 1038.65 1594.53 1013.84 z"/>
<path transform="translate(0,0)" fill="rgb(231,174,104)" d="M 1591.85 1068.51 C 1596.37 1068.61 1603.61 1069.68 1606.91 1069.51 C 1602.76 1085.53 1599.11 1091.48 1590.14 1105.56 C 1584.87 1105.47 1580.05 1104.84 1574.87 1104.15 C 1580.88 1095.56 1583.9 1089.36 1587.72 1079.72 L 1591.2 1070.55 L 1591.85 1068.51 z"/>
<path transform="translate(0,0)" fill="rgb(230,184,114)" d="M 1591.2 1070.55 C 1595.83 1072.33 1599.2 1072.74 1601.58 1076.42 L 1600.89 1081.32 C 1599.14 1085.24 1600.11 1084.67 1597.04 1086.41 C 1593.69 1085.65 1593.08 1085.37 1590.02 1084.11 C 1588.62 1083.31 1588.47 1081.68 1587.72 1079.72 L 1591.2 1070.55 z"/>
<path transform="translate(0,0)" fill="rgb(248,204,112)" d="M 1590.02 1084.11 C 1590.04 1080.86 1589.74 1080.76 1591.37 1078.05 C 1595.01 1077.54 1597.04 1079.41 1600.89 1081.32 C 1599.14 1085.24 1600.11 1084.67 1597.04 1086.41 C 1593.69 1085.65 1593.08 1085.37 1590.02 1084.11 z"/>
<path transform="translate(0,0)" fill="rgb(231,174,104)" d="M 1574.87 1104.15 C 1580.05 1104.84 1584.87 1105.47 1590.14 1105.56 C 1588.6 1107.57 1585.62 1111.77 1583.88 1113.22 C 1567.38 1131.87 1555.6 1136.99 1531.47 1140.74 C 1548.83 1130.64 1555.5 1126.57 1569.26 1111.82 C 1570.97 1109.22 1572.99 1106.65 1574.87 1104.15 z"/>
<path transform="translate(0,0)" fill="rgb(230,184,114)" d="M 1574.87 1104.15 C 1580.05 1104.84 1584.87 1105.47 1590.14 1105.56 C 1588.6 1107.57 1585.62 1111.77 1583.88 1113.22 C 1578.68 1113.56 1573.43 1116.71 1569.26 1111.82 C 1570.97 1109.22 1572.99 1106.65 1574.87 1104.15 z"/>
<path transform="translate(0,0)" fill="rgb(230,184,114)" d="M 1586.57 971.112 C 1592.86 979.372 1596.43 983.668 1600.27 993.488 C 1604.48 1001.94 1605.32 1006.24 1607.54 1015.49 C 1601.41 1015.56 1600.36 1015.59 1594.53 1013.84 C 1594.13 1010.77 1589.36 997.675 1588.03 993.471 C 1586.32 987.321 1580.48 982.778 1578.47 974.417 C 1581.27 974.418 1581.68 975.198 1584.82 974.424 L 1586.57 971.112 z"/>
<path transform="translate(0,0)" fill="url(#Gradient2)" d="M 1554.07 947.685 C 1565.75 952.542 1579.02 960.808 1586.57 971.112 L 1584.82 974.424 C 1581.68 975.198 1581.27 974.418 1578.47 974.417 C 1569.25 965.026 1565.4 958.075 1554.07 947.685 z"/>
<path transform="translate(0,0)" fill="rgb(51,45,50)" d="M 1515.29 1162.51 C 1594.57 1160.47 1667.96 1176.85 1731.25 1227.2 C 1758.39 1248.79 1775.39 1271 1792.95 1300.45 C 1801.38 1286.26 1801.07 1282.79 1818.64 1278.88 C 1835.95 1283.17 1839.67 1286.39 1847.54 1302.68 C 1851.62 1297.71 1858.12 1291.63 1864.67 1295.22 C 1874.41 1300.54 1870.64 1313.16 1866.98 1320.42 C 1861.29 1331.71 1852.63 1330.94 1845.91 1336.62 C 1832.36 1348.07 1829.87 1355.89 1811.53 1361 C 1818.46 1440.41 1792.54 1491.26 1732.63 1543.18 C 1730.31 1551.75 1727.48 1568.49 1725.75 1577.86 C 1719.68 1610.93 1719.72 1628.62 1679.82 1629.06 C 1664.08 1629.24 1654.26 1631.75 1639.95 1620.77 C 1636.85 1612.11 1632.92 1605.99 1629.48 1597.67 C 1613.58 1611.97 1593.7 1613.03 1573.78 1608.24 C 1565.7 1606.08 1523.54 1607.5 1510.38 1607.05 C 1499.36 1643.48 1496.06 1652.95 1451.72 1648.02 C 1426.02 1645.16 1420.37 1638.45 1416.05 1613.21 C 1415.54 1610.18 1413.98 1604.77 1412.01 1602.14 C 1408.23 1605.09 1400.71 1611.21 1396.64 1612.43 C 1387.58 1615.14 1372.95 1612.77 1363.9 1611.44 C 1328.78 1606.29 1338.44 1573.52 1329.84 1549.68 C 1326.99 1541.78 1307.22 1528.72 1301.54 1521.5 C 1292.85 1511.54 1286.53 1501.81 1279.13 1490.87 C 1249.14 1482.88 1229.58 1458.02 1230.33 1426.76 C 1230.86 1404.97 1238.44 1395.56 1253.37 1381.15 C 1251.58 1346.47 1261.84 1322.93 1278.46 1294.42 C 1277.95 1293.33 1277.48 1292.22 1277.07 1291.09 C 1269.11 1269.13 1262.06 1211.75 1291.38 1204.36 C 1307.63 1200.26 1335.8 1207.07 1350.08 1214.89 C 1391.59 1189.84 1423.98 1176.17 1471.63 1167.82 C 1487.17 1165.1 1499.02 1162.11 1515.29 1162.51 z"/>
<path transform="translate(0,0)" fill="rgb(247,206,191)" d="M 1358.06 1222.28 C 1405.13 1188.77 1479.86 1172.35 1537.1 1172.32 C 1550.38 1172.31 1567.15 1174.43 1580.91 1175.23 C 1592.55 1174.48 1594.47 1176.55 1604.36 1179.3 C 1720.39 1207.65 1826.36 1294.31 1798.04 1427.98 C 1795.43 1440.33 1785.32 1466.02 1777.74 1476.04 C 1768.47 1493.68 1754.93 1508.88 1740.55 1522.56 C 1735.07 1527.76 1727.51 1533.57 1722.61 1538.93 L 1722.3 1540.04 C 1717.32 1558.81 1713.42 1592 1707.35 1609.86 C 1704.16 1619.25 1664.82 1619.59 1656.66 1616.98 C 1638.12 1612.89 1650.62 1592.47 1634.27 1582.79 C 1626.57 1583.16 1609.06 1588.82 1600.23 1590.51 C 1576.26 1595.1 1554.61 1597.18 1530.13 1597.19 C 1521.86 1597.19 1508.21 1592.98 1505.42 1596.34 C 1498.22 1605.04 1496.45 1625.59 1489.58 1633.99 C 1480.65 1639.25 1441.29 1638.27 1434.49 1631.85 C 1429.08 1626.74 1419.84 1587.86 1419.1 1579.51 C 1417.98 1575.72 1417.32 1572.59 1414.45 1569.92 C 1411.04 1569.12 1412.69 1569.01 1409.35 1570.36 C 1406.96 1573.95 1407.66 1572.6 1407.34 1577.33 C 1406.71 1577.43 1405.84 1577.63 1405.22 1577.37 C 1361.7 1559.12 1322.5 1534.13 1293.92 1495.76 C 1298.46 1496.48 1303.03 1496.97 1307.61 1497.24 C 1315.51 1497.73 1344.1 1497.09 1344.22 1486.31 C 1338.06 1482.23 1330.16 1486.57 1321.41 1487.45 C 1302.46 1489.34 1278.06 1484.41 1263.09 1472.4 C 1240.01 1461.76 1233.99 1422.35 1247.5 1402.02 C 1262.15 1379.98 1289.1 1379.49 1312.8 1383 C 1317.36 1383.68 1325.9 1387.13 1329.56 1386.25 C 1332.29 1381.86 1327.52 1376.74 1323.45 1375.66 C 1303.96 1370.5 1282.23 1372.69 1263.11 1377.51 C 1264.59 1356.4 1268.34 1339.76 1277.35 1320.43 C 1282.72 1308.92 1288.56 1302.19 1286.52 1289.64 C 1282.06 1274.95 1278.29 1232.25 1285.83 1218.37 C 1310.68 1198.77 1353.46 1234.63 1362.93 1233.61 C 1366.26 1229.69 1360.6 1224.62 1358.06 1222.28 z"/>
<path transform="translate(0,0)" fill="url(#Gradient1)" d="M 1484.32 1570.06 C 1508.88 1568.39 1533.62 1569.9 1559.06 1567.8 C 1617.57 1562.96 1681.86 1547.39 1731.89 1516 C 1743.96 1507.56 1755.05 1497.52 1766.04 1487.73 C 1770.55 1483.71 1772.61 1479.35 1777.74 1476.04 C 1768.47 1493.68 1754.93 1508.88 1740.55 1522.56 C 1735.07 1527.76 1727.51 1533.57 1722.61 1538.93 L 1722.3 1540.04 C 1717.32 1558.81 1713.42 1592 1707.35 1609.86 C 1704.16 1619.25 1664.82 1619.59 1656.66 1616.98 C 1638.12 1612.89 1650.62 1592.47 1634.27 1582.79 C 1626.57 1583.16 1609.06 1588.82 1600.23 1590.51 C 1576.26 1595.1 1554.61 1597.18 1530.13 1597.19 C 1521.86 1597.19 1508.21 1592.98 1505.42 1596.34 C 1498.22 1605.04 1496.45 1625.59 1489.58 1633.99 C 1489.27 1626 1491.63 1616.26 1490.56 1607.86 C 1488.87 1594.61 1485.37 1583.58 1484.32 1570.06 z"/>
<path transform="translate(0,0)" fill="rgb(241,169,160)" d="M 1327.53 1464.48 C 1333.49 1464 1340.59 1463.39 1346.35 1462.19 C 1387.2 1453.74 1360.57 1485.91 1345.88 1496.92 C 1338.45 1502.5 1331.71 1505.5 1322.7 1508.24 C 1342.58 1521.82 1358.54 1530.7 1380.62 1540.5 C 1391.42 1545.3 1405.71 1550.64 1415.89 1555.58 C 1415.63 1565.64 1420.31 1571.4 1419.1 1579.51 C 1417.98 1575.72 1417.32 1572.59 1414.45 1569.92 C 1411.04 1569.12 1412.69 1569.01 1409.35 1570.36 C 1406.96 1573.95 1407.66 1572.6 1407.34 1577.33 C 1406.71 1577.43 1405.84 1577.63 1405.22 1577.37 C 1361.7 1559.12 1322.5 1534.13 1293.92 1495.76 C 1298.46 1496.48 1303.03 1496.97 1307.61 1497.24 C 1315.51 1497.73 1344.1 1497.09 1344.22 1486.31 C 1338.06 1482.23 1330.16 1486.57 1321.41 1487.45 C 1302.46 1489.34 1278.06 1484.41 1263.09 1472.4 L 1265.03 1472.99 C 1273.73 1475.74 1280.67 1480.62 1290.51 1481.42 C 1305.92 1482.68 1316.73 1474.04 1327.53 1464.48 z"/>
<path transform="translate(0,0)" fill="rgb(51,45,50)" d="M 1580.91 1175.23 C 1592.55 1174.48 1594.47 1176.55 1604.36 1179.3 L 1600.76 1180.67 C 1606.21 1184.6 1620.8 1192.45 1616.77 1199.68 C 1610.88 1202 1588.02 1200.53 1579.28 1200.78 C 1555.6 1201.46 1499.68 1208.94 1479.2 1218.46 C 1464 1222.25 1461.13 1214 1448.19 1208.14 C 1444.27 1197.77 1461.58 1195 1469.03 1192.93 C 1500.97 1184.04 1536.25 1177.79 1569.5 1177.88 C 1573.49 1177.37 1577.52 1177.27 1580.91 1175.23 z"/>
<path transform="translate(0,0)" fill="rgb(113,96,93)" d="M 1580.91 1175.23 C 1592.55 1174.48 1594.47 1176.55 1604.36 1179.3 L 1600.76 1180.67 C 1593.3 1176.35 1579.57 1178.43 1569.5 1177.88 C 1573.49 1177.37 1577.52 1177.27 1580.91 1175.23 z"/>
<path transform="translate(0,0)" fill="rgb(208,132,126)" d="M 1494.86 1194.96 C 1520.48 1188.54 1566.53 1183.81 1592.65 1186 L 1603.13 1192.89 C 1573.02 1192.79 1546.81 1194.46 1517.01 1200.24 C 1505.6 1202.45 1480.21 1210.63 1470.05 1211.31 C 1466.65 1211.29 1462.66 1208.42 1460.71 1205.77 C 1464.99 1201.61 1488.16 1196.4 1494.86 1194.96 z"/>
<path transform="translate(0,0)" fill="rgb(241,169,160)" d="M 1470.05 1211.31 C 1466.65 1211.29 1462.66 1208.42 1460.71 1205.77 C 1464.99 1201.61 1488.16 1196.4 1494.86 1194.96 C 1502.39 1196.46 1509.16 1195.39 1516.86 1194.94 C 1502.26 1203.04 1481.99 1203.15 1470.05 1211.31 z"/>
<path transform="translate(0,0)" fill="rgb(241,169,160)" d="M 1286.52 1289.64 C 1282.06 1274.95 1278.29 1232.25 1285.83 1218.37 C 1287.92 1222.35 1286.42 1221.2 1289.77 1222.76 L 1289.42 1227.46 C 1294.61 1232.2 1302.42 1236.25 1306.92 1240.47 C 1313.52 1246.66 1320.45 1257.5 1326.2 1264.64 C 1315.72 1271.82 1305.72 1278.55 1295.71 1286.59 C 1291.38 1290.07 1288.78 1285.13 1286.52 1289.64 z"/>
<path transform="translate(0,0)" fill="rgb(51,45,50)" d="M 1289.77 1222.76 C 1296.26 1222.64 1298.74 1223.42 1303.9 1227.61 C 1312.15 1234.32 1330 1249.57 1330.49 1260.4 C 1328.8 1263.81 1329.94 1262.25 1326.2 1264.64 C 1320.45 1257.5 1313.52 1246.66 1306.92 1240.47 C 1302.42 1236.25 1294.61 1232.2 1289.42 1227.46 L 1289.77 1222.76 z"/>
<path transform="translate(0,0)" fill="rgb(241,169,160)" d="M 1432.76 1403.38 C 1446.27 1404.08 1456.82 1404.52 1468.32 1413.18 C 1479.77 1421.8 1486.03 1436.81 1475.2 1448.74 C 1465.48 1459.44 1453.06 1459.95 1439.64 1460.9 C 1425.77 1459.82 1415.96 1459.68 1403.46 1451.41 C 1392.86 1444.38 1384.81 1430.57 1394.75 1419.3 C 1404.11 1408.68 1418.98 1404.47 1432.76 1403.38 z"/>
<path transform="translate(0,0)" fill="rgb(255,255,255)" d="M 1661.42 1221.16 C 1680.44 1218.93 1698.33 1228.31 1710.09 1243.22 C 1716.03 1250.77 1713.87 1257.94 1706.4 1263.32 C 1688.39 1267 1641.23 1239.63 1661.42 1221.16 z"/>
<path transform="translate(0,0)" fill="rgb(51,45,50)" d="M 1444.58 1220.72 C 1454.59 1220.46 1457.76 1220.66 1467.77 1223.76 C 1490.25 1235.39 1500.86 1247.48 1512.9 1270.21 C 1516.51 1277.03 1519.82 1286.47 1517.28 1294.17 L 1515.5 1294.89 C 1508.23 1291.01 1492.7 1234.49 1457.29 1230.62 C 1421.08 1226.66 1418.82 1282 1404.22 1278.19 C 1402.85 1274.52 1404.45 1268.84 1406.15 1265.62 C 1415.19 1248.61 1426.06 1228.07 1444.58 1220.72 z"/>
<path transform="translate(0,0)" fill="rgb(51,45,50)" d="M 1381.12 1350.96 C 1402.63 1355.12 1400.91 1382.14 1382.05 1390.58 C 1359.74 1386.28 1364.03 1357.29 1381.12 1350.96 z"/>
<path transform="translate(0,0)" fill="rgb(51,45,50)" d="M 1298.08 1419.82 C 1316.9 1423.84 1316.76 1449.07 1303.95 1459.29 C 1284.99 1459.38 1283.95 1431.05 1298.08 1419.82 z"/>
<path transform="translate(0,0)" fill="rgb(241,169,160)" d="M 1300.01 1427.4 C 1307.16 1433.58 1305.16 1444.14 1301.44 1451.77 C 1294.19 1445.47 1294.07 1434.71 1300.01 1427.4 z"/>
<path transform="translate(0,0)" fill="rgb(51,45,50)" d="M 1444.19 1239.14 C 1451.42 1238.24 1454.53 1240.8 1457.85 1247.34 C 1466.51 1264.39 1475.71 1304.6 1470.96 1322.71 C 1469.3 1322.69 1467.44 1322.42 1465.77 1322.23 C 1462.37 1317.98 1463.09 1297.27 1462.06 1290.56 C 1460.17 1278.13 1456.89 1267.15 1452.16 1255.5 C 1449.91 1249.94 1444.57 1243.36 1444.19 1239.14 z"/>
<path transform="translate(0,0)" fill="rgb(51,45,50)" d="M 1257.95 1412.6 C 1276.43 1414.82 1274.57 1439.91 1264.29 1450.62 C 1246.07 1451.48 1247.91 1423.4 1257.95 1412.6 z"/>
<path transform="translate(0,0)" fill="rgb(208,132,126)" d="M 1260.44 1419.71 C 1266.84 1425.07 1264.59 1436.71 1261.2 1443.2 C 1255.72 1437.3 1256.17 1426.28 1260.44 1419.71 z"/>
<path transform="translate(0,0)" fill="rgb(51,45,50)" d="M 1286.95 1334.82 C 1303.6 1338.93 1299.78 1359.51 1288.3 1367.84 C 1270.25 1365.03 1274.26 1343.34 1286.95 1334.82 z"/>
<path transform="translate(0,0)" fill="rgb(255,255,255)" d="M 1721.71 1267.92 C 1732.41 1267.82 1740.16 1273.14 1732.26 1283.96 C 1720.67 1284.71 1715.38 1278.69 1721.71 1267.92 z"/>
<path transform="translate(0,0)" fill="rgb(241,169,160)" d="M 1813.94 1288.16 C 1844.06 1288.46 1836.67 1314 1842.56 1318.9 C 1848.67 1318.21 1855.65 1308.14 1859.49 1303.22 C 1861.99 1303.78 1860.83 1303.19 1862.61 1305.8 C 1863.13 1312.72 1854.13 1323.15 1848.58 1326.03 C 1840.71 1330.1 1838.78 1326.18 1833.31 1335.53 C 1829.92 1341.49 1818.67 1352.1 1811 1349.57 C 1798.19 1337.71 1821.02 1337.31 1824.61 1329.99 C 1822.41 1325.1 1797.22 1315.21 1802.95 1300.96 C 1805.28 1295.14 1808.66 1291.39 1813.94 1288.16 z"/>
<path transform="translate(0,0)" fill="rgb(51,45,50)" d="M 1816.1 1296.78 C 1828.09 1297.14 1835.55 1309.42 1829.33 1319.89 C 1817.26 1318.17 1804.58 1308.39 1816.1 1296.78 z"/>
<path transform="translate(0,0)" fill="rgb(241,169,160)" d="M 1343.8 1555.82 C 1364.87 1569.49 1381.72 1577.47 1404.15 1587.95 C 1402.81 1591.35 1400.8 1595.03 1399.12 1598.32 C 1398.35 1599.69 1396.56 1602.4 1394.86 1602.45 C 1342.55 1604.03 1350.79 1593.29 1343.8 1555.82 z"/>
<path transform="translate(0,0)" fill="rgb(51,45,50)" d="M 1681.74 1021.49 C 1689.58 1024.48 1690.79 1042.74 1695.46 1050.1 C 1700.65 1058.27 1710.3 1061.15 1717.45 1066.96 C 1712.7 1073.71 1699.04 1081.03 1693.64 1088.97 C 1688.16 1097.01 1690.25 1112.31 1683.64 1118.39 C 1676.95 1115.2 1674.81 1091.32 1667.78 1084.12 C 1661.61 1077.8 1652.7 1075.05 1647.49 1069.19 C 1646.98 1063.23 1661.78 1060.59 1667.23 1054.84 C 1676.76 1044.79 1675.81 1030.93 1681.74 1021.49 z"/>
<path transform="translate(0,0)" fill="rgb(255,255,255)" d="M 1682.58 1043.67 C 1683.83 1044.91 1683.34 1044.26 1684.19 1045.73 C 1690.77 1057.2 1692.74 1060.83 1703.64 1068.01 C 1691.08 1076.99 1689.42 1080.22 1683.01 1094.09 C 1681.76 1092.67 1680.21 1089.04 1679.15 1087.11 C 1673.59 1076.98 1671.84 1074.78 1662.66 1068.29 C 1674.34 1059.65 1676.73 1056.84 1682.58 1043.67 z"/>
</svg>