<svg xmlns="http://www.w3.org/2000/svg" height="1024" preserveAspectRatio="none" style="display: block;" version="1.1" viewBox="0 0 2048 2048" width="1024">
<path d="M 0 0 L 2048 0 L 2048 2048 L 0 2048 L 0 0 z" fill="rgb(14,5,60)" transform="translate(0,0)"></path>
<path d="M 495.865 100.446 C 496.909 100.381 497.954 100.336 498.999 100.311 C 527.257 99.49 557.911 100.017 586.315 100.01 L 743.976 99.9814 L 1222.13 99.9499 L 1450.61 100.043 C 1505.36 100.049 1563 96.8242 1616.74 106.687 C 1799.03 139.425 1944.37 305.749 1948.01 491.564 C 1949.55 569.913 1947.88 650.547 1947.97 729.3 L 1948.06 1236.9 L 1948.03 1452.24 C 1948.06 1507.77 1951.68 1570.35 1940.38 1624.12 C 1923.8 1699.39 1886.53 1768.53 1832.78 1823.77 C 1758.86 1900.97 1657.09 1945.33 1550.22 1946.93 L 799.095 1946.94 L 598.224 1947.02 C 541.475 1947.05 482.524 1950.01 427.12 1938.82 C 353.138 1923.62 284.625 1888.75 228.801 1837.87 C 154.078 1768.91 104.68 1664.68 100.905 1562.98 C 99.7778 1532.64 100.415 1499.27 100.415 1468.64 L 100.435 1304.61 L 100.406 833.903 L 100.45 602.232 C 100.454 541.767 96.2855 485.352 108.451 425.878 C 124.131 350.982 160.216 281.881 212.717 226.213 C 287.172 145.732 387.388 104.701 495.865 100.446 z" fill="rgb(14,5,60)" transform="translate(0,0)"></path>
<path d="M 680.473 243.615 C 682.596 249.807 684.777 274.267 685.794 282.625 C 690.341 317.347 694.347 352.139 697.81 386.986 C 725.168 395.666 750.654 402.322 778.656 408.945 C 797.734 413.457 815.437 418.352 834.853 421.837 C 824.716 428.908 801.16 440.407 789.766 446.166 C 762.966 459.793 736.013 473.115 708.911 486.131 C 709.937 534.323 714.881 583.994 716.228 633.28 C 700.335 619.297 680.834 597.74 665.403 582.286 C 649.663 566.521 626.472 544.16 613.495 527 C 605.611 529.688 597.047 533.315 589.242 536.425 C 552.004 550.058 515.38 564.054 477.849 577.248 C 481.427 566.58 492.999 548.711 498.791 538.282 C 515.014 509.074 533.954 480.131 549.67 450.804 C 546.107 445.494 541.997 440.317 538.219 435.14 C 513.981 401.924 488.618 369.227 465.393 335.297 C 485.794 339.53 507.932 345.408 528.467 350.181 C 551.375 355.505 579.476 360.893 601.635 367.642 C 617.668 340.998 634.149 314.625 651.07 288.535 C 660.218 274.194 670.552 257.024 680.473 243.615 z" fill="rgb(227,192,251)" transform="translate(0,0)"></path>
<path d="M 1665.31 1476.6 C 1669.61 1480.56 1681.08 1580.07 1682.96 1593.74 C 1719.29 1600.47 1759.08 1611.05 1796 1618.76 C 1788.06 1623.68 1772.55 1630.94 1763.77 1635.67 C 1740.57 1648.17 1716.9 1660.31 1692.84 1671.05 C 1698.75 1707.87 1701.3 1754.39 1705.26 1792.56 C 1676.65 1765.23 1648.31 1737.62 1620.26 1709.73 C 1616.75 1711.61 1612.32 1713.44 1608.62 1715.08 C 1581.31 1725.4 1541.81 1742.74 1515.41 1750.49 C 1519.61 1739.51 1529.02 1722.85 1534.87 1711.92 C 1546.39 1689.88 1558.44 1668.11 1571 1646.63 C 1542.92 1617.27 1519.13 1587.84 1493.56 1556.41 C 1516.61 1560.2 1539.58 1564.43 1562.46 1569.11 C 1576.66 1571.9 1593.66 1574.73 1607.18 1579.05 C 1620.33 1554.55 1635.69 1531 1648.78 1506.42 C 1654.12 1496.41 1659.59 1486.4 1665.31 1476.6 z" fill="rgb(227,192,251)" transform="translate(0,0)"></path>
<path d="M 353.439 1238.73 C 356.531 1242.05 366.25 1298.18 368.608 1307.61 C 391.081 1314.14 417.907 1320.23 440.862 1325.92 C 418.492 1339.26 397.546 1349.44 374.252 1361.07 C 378.332 1383.83 382.096 1416.19 383.708 1438.9 C 364.343 1421.12 346.163 1401.42 327.206 1383.79 C 323.421 1383.29 322.708 1384.36 318.57 1385.98 C 297.101 1395.8 275.438 1405.19 253.595 1414.15 C 263.665 1389.8 278.758 1365.14 290.272 1341.19 C 275.38 1323.62 259.61 1300.87 245.213 1282.14 C 267.866 1286.24 293.609 1292.5 316.582 1297.24 C 327.687 1281.83 342.447 1255.79 353.439 1238.73 z" fill="rgb(227,192,251)" transform="translate(0,0)"></path>
<path d="M 412.089 1353.76 C 416.677 1354.34 438.388 1363.18 443.799 1365.18 C 468.056 1374.16 492.39 1382.93 516.798 1391.5 L 781.325 1485.35 C 844.72 1507.82 911.216 1530.16 973.737 1553.85 C 972.813 1557.57 971.872 1564.23 969.369 1566.58 L 966.498 1566 C 954.136 1560.85 934.769 1554.52 921.704 1549.75 C 878.13 1534.04 834.454 1518.62 790.678 1503.49 L 568.284 1423.74 C 512.548 1403.91 455.904 1384.83 400.579 1363.96 C 404.729 1359.54 407.419 1357.46 412.089 1353.76 z" fill="rgb(227,192,251)" transform="translate(0,0)"></path>
<path d="M 604.929 542.18 L 607.518 541.948 L 608.88 543.171 C 609.529 553.865 571.011 662.424 564.877 680.599 L 494.285 892.372 C 483.233 925.995 472.118 958.703 460.407 992.108 C 453.505 1013.71 447.055 1035.59 439.296 1056.9 C 437.595 1061.57 433.699 1075.73 429.466 1076.97 C 425.96 1075.73 425.379 1075.56 422.215 1073.73 C 421.691 1069.86 584.021 579.021 597.275 545.112 C 599.266 542.834 601.812 542.807 604.929 542.18 z" fill="rgb(227,192,251)" transform="translate(0,0)"></path>
<path d="M 1270.35 907.657 C 1272.91 911.792 1276.77 944.183 1277.46 950.788 C 1291.9 955.719 1307.62 959.263 1322.46 963.758 C 1309.38 970.269 1295.04 976.725 1282.33 983.517 C 1283.42 996.912 1283 1014.79 1283.79 1029.35 C 1278.8 1024.65 1252.46 998.72 1248.65 998.313 C 1233.68 1003.72 1221.29 1008.17 1206.5 1014.28 C 1213.26 1000.63 1219.73 986.831 1225.92 972.906 C 1217.44 962.965 1208.7 949.902 1201.04 938.998 L 1245.11 943.251 C 1253.61 932.675 1261.45 919.058 1270.35 907.657 z" fill="rgb(227,192,251)" transform="translate(0,0)"></path>
<path d="M 1766.41 1244.62 C 1769.35 1247.5 1775.46 1280.04 1776.82 1286.22 C 1785.05 1289.73 1808.17 1295.7 1818.63 1299.02 C 1805.78 1306.87 1794.31 1314.18 1780.99 1321.27 C 1780.82 1335.49 1781.88 1350.01 1781.74 1364.69 C 1770.54 1355.66 1759.52 1346.4 1748.69 1336.93 C 1738.4 1341.57 1718.54 1347.98 1707.45 1351.93 C 1713.86 1337.64 1720.02 1324.08 1725.56 1309.45 C 1717.25 1298.08 1710.81 1285.89 1704.2 1273.51 C 1716.67 1276.48 1731.83 1278.45 1744.63 1280.41 L 1766.41 1244.62 z" fill="rgb(227,192,251)" transform="translate(0,0)"></path>
<path d="M 1040.84 1514.62 C 1044.68 1518.11 1046.52 1550.46 1047.09 1557.13 C 1061.14 1562.45 1075.44 1567.04 1089.95 1570.89 C 1076.81 1576.96 1061.82 1586.56 1049.16 1591.03 C 1049.15 1606.02 1048.87 1621.01 1048.33 1635.99 C 1038.82 1626.72 1029.2 1614.6 1018.55 1606.51 C 1016.28 1604.79 1015.7 1605.59 1012.72 1606.23 C 1001.34 1610.69 987.329 1614.59 975.1 1619.18 C 980.948 1605.45 989.81 1590.49 996.467 1576.42 C 988.062 1564.17 978.617 1553.1 971.115 1539.96 C 986.083 1543.04 1001.14 1545.67 1016.26 1547.87 C 1023.14 1536.63 1032.85 1525.55 1040.84 1514.62 z" fill="rgb(227,192,251)" transform="translate(0,0)"></path>
<path d="M 1070.36 1593.42 C 1084.08 1598.81 1102.29 1604.47 1116.62 1609.51 L 1231.46 1649.3 C 1283.83 1667.36 1334.02 1686.82 1385.86 1705.38 L 1381.4 1718.01 C 1350.84 1708.04 1315.73 1693.67 1284.76 1682.54 C 1212.03 1656.45 1139.04 1631.09 1065.81 1606.45 C 1067.27 1602.09 1068.79 1597.75 1070.36 1593.42 z" fill="rgb(227,192,251)" transform="translate(0,0)"></path>
<path d="M 952.039 651.162 C 972.407 649.292 990.415 664.332 992.204 684.707 C 993.993 705.082 978.881 723.03 958.499 724.738 C 938.232 726.436 920.407 711.427 918.628 691.167 C 916.849 670.907 931.786 653.022 952.039 651.162 z" fill="rgb(227,192,251)" transform="translate(0,0)"></path>
<path d="M 996.952 715.871 C 1013.88 726.202 1042.99 757.203 1059.71 771.397 C 1086.08 793.782 1113.8 822.371 1139.3 845.105 C 1148.84 853.618 1230.67 926.985 1232.13 931.884 L 1231.15 932.806 L 1227.76 932.553 L 1214.63 930.773 C 1203.75 922.282 1188.11 907.228 1177.62 897.617 L 1099.28 824.888 L 1025.73 758.312 C 1015.19 748.612 997.733 733.135 988.963 722.449 L 996.952 715.871 z" fill="rgb(227,192,251)" transform="translate(0,0)"></path>
<path d="M 1513.17 1065.67 C 1517.75 1068.5 1553.21 1101 1559.54 1106.66 C 1594.62 1137.53 1629.49 1168.64 1664.15 1199.99 C 1679.38 1213.48 1694.7 1226.87 1710.1 1240.16 C 1714.94 1244.34 1734 1258.78 1733.43 1264.02 L 1731.07 1265.06 C 1726.35 1265.07 1722.14 1264.61 1717.46 1264.18 C 1685.54 1239.63 1643.8 1199.49 1612.62 1171.95 C 1580.63 1143.69 1535.36 1105.72 1506.33 1076.28 C 1508.92 1072.92 1510.97 1069.3 1513.17 1065.67 z" fill="rgb(227,192,251)" transform="translate(0,0)"></path>
<path d="M 401.256 1084.04 C 419.922 1080.06 438.274 1091.98 442.23 1110.65 C 446.186 1129.32 434.243 1147.66 415.568 1151.59 C 396.925 1155.52 378.626 1143.6 374.677 1124.96 C 370.728 1106.32 382.623 1088.01 401.256 1084.04 z" fill="rgb(227,192,251)" transform="translate(0,0)"></path>
<path d="M 739.308 476.165 C 745.753 479.477 775.445 507.102 783.425 514.303 C 831.684 557.68 879.279 601.788 926.196 646.613 C 923.701 648.885 920.869 651.146 918.261 653.318 L 916.229 653.382 C 907.146 646.328 894.025 633.493 885.197 625.305 L 830.053 573.916 C 799.572 545.407 768.287 517.568 737.716 489.155 C 735.541 487.134 733.673 485.582 733.191 482.719 C 734.268 479.333 736.394 478.331 739.308 476.165 z" fill="rgb(227,192,251)" transform="translate(0,0)"></path>
<path d="M 1744.56 1352.78 C 1748.13 1354.49 1753.71 1358.19 1757.24 1360.39 L 1737.81 1438.12 C 1724.9 1485.91 1712.72 1533.89 1701.28 1582.05 C 1697.41 1581.95 1694.36 1580.71 1691.21 1578.63 C 1687.25 1570.15 1738.35 1381.62 1744.56 1352.78 z" fill="rgb(227,192,251)" transform="translate(0,0)"></path>
<path d="M 1471.46 1017.94 C 1487.29 1014.21 1503.13 1024.09 1506.75 1039.95 C 1510.37 1055.8 1500.38 1071.57 1484.5 1075.08 C 1468.78 1078.55 1453.2 1068.68 1449.62 1052.98 C 1446.04 1037.28 1455.79 1021.64 1471.46 1017.94 z" fill="rgb(227,192,251)" transform="translate(0,0)"></path>
<path d="M 1627.24 709.612 C 1631.59 714.441 1634.14 730.021 1637.74 734.719 C 1640.8 738.707 1660.74 739.471 1668.15 740.968 C 1661.92 747.223 1652.71 752.168 1645.2 759.112 C 1647.71 767.882 1649.82 777.753 1651.94 786.701 C 1645.34 783.175 1633.39 774.906 1627.44 772.734 C 1619.29 777.395 1609.84 784.085 1601.91 789.393 C 1604.43 779.278 1607.01 769.18 1609.66 759.098 C 1600.92 752.44 1594.57 748.348 1586.88 740.358 C 1596.62 739.385 1606.34 738.279 1616.05 737.04 C 1619.43 724.492 1620.73 720.842 1627.24 709.612 z" fill="rgb(254,254,254)" transform="translate(0,0)"></path>
<path d="M 1625.97 717.518 C 1628.5 720.277 1633.08 734.251 1636.18 740.079 C 1644.69 741.281 1653.21 742.324 1661.76 743.207 C 1654.35 748.003 1647.69 752.063 1641.03 757.914 C 1643.7 765.399 1646.13 772.97 1648.31 780.616 C 1642.19 777.47 1634.48 772.486 1628.44 768.816 C 1623.56 769.537 1612.75 778.108 1608.04 781.485 C 1609.77 773.508 1611.55 765.543 1613.39 757.591 C 1609.85 754.284 1598.76 746.578 1594.51 743.452 C 1603.14 742.087 1609.45 741.449 1618.19 740.825 C 1620.63 732.359 1622.9 725.799 1625.97 717.518 z" fill="rgb(14,5,60)" transform="translate(0,0)"></path>
<path d="M 657.015 1140.53 C 661.428 1146.05 666.116 1160.25 668.629 1167.37 C 675.115 1168.09 688.171 1167.77 693.24 1171.17 C 693.015 1175.55 679.019 1184.89 674.794 1189.51 C 677.839 1198.93 678.831 1207.03 680.403 1216.75 C 671.477 1212.24 665.456 1208.59 657.205 1203.02 C 650.372 1208.24 640.957 1213.48 633.419 1217.95 C 635.131 1207.4 636.424 1199.89 639.206 1189.44 C 632.174 1182.92 625.15 1177.05 618.071 1170.31 C 626.221 1169 636.821 1168.46 645.21 1167.8 C 649.055 1160.27 653.6 1148.57 657.015 1140.53 z" fill="rgb(254,254,254)" transform="translate(0,0)"></path>
<path d="M 657.325 1150.76 C 659.55 1153.65 662.803 1165.57 665.066 1170.81 C 671.068 1172.08 682.584 1173.39 688.637 1173.28 C 669.127 1186.53 669.855 1186.91 675.061 1209.41 C 669.775 1206.64 663.908 1202.34 658.88 1198.88 L 657.979 1198.51 C 654.736 1199.19 643.312 1207.72 639.235 1210.36 C 640.186 1203.69 642.496 1194.31 643.884 1187.38 C 638.823 1183.37 633.898 1179.2 629.117 1174.85 C 635.709 1173.01 642.337 1172.26 649.116 1171.31 L 657.325 1150.76 z" fill="rgb(14,5,60)" transform="translate(0,0)"></path>
<path d="M 1410.92 1698.24 C 1424.52 1695.14 1438.08 1703.6 1441.27 1717.19 C 1444.46 1730.77 1436.08 1744.38 1422.52 1747.66 C 1408.83 1750.96 1395.07 1742.49 1391.86 1728.78 C 1388.64 1715.08 1397.19 1701.37 1410.92 1698.24 z" fill="rgb(227,192,251)" transform="translate(0,0)"></path>
<path d="M 1300.58 985.633 C 1313.4 987.547 1338.95 997.662 1351.78 1002.17 C 1380.66 1012.32 1410.66 1024.83 1440.18 1032.56 C 1439.07 1037.59 1438.27 1040.43 1436.6 1045.3 C 1427.19 1042.76 1298.93 999.653 1295.15 996.643 C 1294.75 991.819 1297.44 989.598 1300.58 985.633 z" fill="rgb(227,192,251)" transform="translate(0,0)"></path>
<path d="M 393.313 1160.78 L 405.828 1162.42 C 394.437 1196.94 387.263 1228.18 373.657 1262.23 L 372.205 1264.88 L 370.884 1264.37 C 368.53 1260.25 367.279 1253.88 366.054 1249.11 C 373.547 1220.58 384.081 1188.82 393.313 1160.78 z" fill="rgb(227,192,251)" transform="translate(0,0)"></path>
<path d="M 984.541 1129.07 C 992.589 1129.56 999.892 1134.42 1002.76 1142.08 C 1004.59 1146.91 1004.29 1152.3 1001.93 1156.9 C 999.133 1162.37 995.113 1164.32 989.65 1166.23 C 963.199 1165.99 960.922 1137.06 984.541 1129.07 z" fill="rgb(254,254,254)" transform="translate(0,0)"></path>
<path d="M 982.159 1135.72 C 989.006 1133.51 996.355 1137.23 998.626 1144.06 C 1000.9 1150.88 997.24 1158.26 990.433 1160.59 C 983.542 1162.95 976.05 1159.24 973.752 1152.33 C 971.453 1145.42 975.229 1137.96 982.159 1135.72 z" fill="rgb(14,5,60)" transform="translate(0,0)"></path>
<path d="M 1142.01 593.553 C 1151.32 590.574 1161.27 595.737 1164.19 605.059 C 1167.12 614.382 1161.89 624.303 1152.55 627.171 C 1143.29 630.014 1133.47 624.845 1130.57 615.601 C 1127.68 606.357 1132.79 596.507 1142.01 593.553 z" fill="rgb(254,254,254)" transform="translate(0,0)"></path>
<path d="M 1143.55 597.693 C 1150.36 595.743 1157.49 599.573 1159.63 606.333 C 1161.77 613.093 1158.14 620.328 1151.44 622.655 C 1146.94 624.218 1141.95 623.213 1138.4 620.03 C 1134.85 616.847 1133.32 611.988 1134.39 607.344 C 1135.46 602.7 1138.96 599.004 1143.55 597.693 z" fill="rgb(14,5,60)" transform="translate(0,0)"></path>
<path d="M 1523.58 1704.46 L 1525.26 1704.54 C 1525.22 1708.09 1521.67 1713.95 1519.88 1717.57 C 1497.94 1721.37 1476.31 1724.1 1454.23 1726.96 L 1451.92 1726.91 L 1450.91 1725.61 C 1451.03 1720.74 1450.9 1720.31 1452.71 1715.92 C 1457.58 1712.36 1513.74 1705.54 1523.58 1704.46 z" fill="rgb(227,192,251)" transform="translate(0,0)"></path>
<path d="M 1436.34 1168.69 C 1445.17 1165.69 1454.77 1170.4 1457.82 1179.22 C 1460.87 1188.04 1456.23 1197.66 1447.43 1200.77 C 1438.55 1203.9 1428.82 1199.2 1425.75 1190.31 C 1422.67 1181.41 1427.42 1171.71 1436.34 1168.69 z" fill="rgb(254,254,254)" transform="translate(0,0)"></path>
<path d="M 1438.5 1172.6 C 1444.97 1170.75 1451.74 1174.34 1453.85 1180.72 C 1455.96 1187.11 1452.66 1194.02 1446.37 1196.4 C 1442.06 1198.03 1437.2 1197.17 1433.72 1194.15 C 1430.24 1191.13 1428.69 1186.45 1429.68 1181.95 C 1430.68 1177.45 1434.06 1173.86 1438.5 1172.6 z" fill="rgb(14,5,60)" transform="translate(0,0)"></path>
<metadata><recraft-signature>{"signed_by": "recraft", "signature_b64": "J0EHUlSYEW9EyOQYFIhBfehAt/UTAd9Od2HpOImZYNuqHjMsVxc5pkqiEwKqgcko+vSX+HDhRKs0aySrLv/8Dg==", "signing_algo": "Ed25519", "generation_timestamp": 1781331828, "identifier": "2495c6c2-e1e9-43dc-83e3-19f015e529db"}</recraft-signature></metadata></svg>