<svg xmlns="http://www.w3.org/2000/svg" width="1024" height="1024" viewBox="0 0 2048 2048"><defs><linearGradient id="b" x1="1248.11" x2="1208.47" y1="1353.94" y2="1368.95" gradientUnits="userSpaceOnUse"><stop class="stop0" offset="0" stop-color="#8f8c94"/><stop class="stop1" offset="1" stop-color="#aba9ad"/></linearGradient><linearGradient id="a" x1="748.57" x2="764.561" y1="668.889" y2="627.773" gradientUnits="userSpaceOnUse"><stop class="stop0" offset="0" stop-color="#5b595b"/><stop class="stop1" offset="1" stop-color="#767275"/></linearGradient></defs><path fill="#060606" d="M887.941 544.493c92.282-4.265 148.279 61.589 170.609 145.41 19.11 13.718 22.66 52.367 19.64 73.957 21.96 7.134 28.5 16.33 34.79 37.728 33.27 5.85 66.54 25.692 87.25 52.485 70.87 3.933 115.32 47.933 140.11 111.196 7.31 5.356 14.85 9.553 22.87 15.665 38.38 29.246 65.24 62.286 87.51 104.976 8.74 14.67 12.74 32.67 22.16 46.82 8.87 13.33 41.69 39.94 39.89 55.93-2.39 4.72-4.98 4.37-8.75 7.91.88 4.56 5.62 7.2 9.49 10 33.05-1.16 58.47 3.03 86.88 20.98 6.33 4 12.94 9.26 19.61 12.81 14.05 7.48 30.66 12.52 41.51 24.97 18.01 24.07 16.06 62.81 14.44 89.67-3.1 51.51-16.12 83.23-74.41 77.22-16.03-1.65-40.33.79-57.71-.87-12.7-1.22-30.75 5.97-41.89-7.67-2.86-3.42-4.08-10.46-3.04-14.8 3.45-14.39 20.02-16.53 31.12-24.17 7.34-12.15 5.81-21.62 4.81-35.29-24.9 1-52.25-.56-76.67-5.5-3.4 6.74-7.12 11.31-11.64 17.33 1.47 3.35 2.98 8.49 4.16 12.09-5.95 18.88-20.73 40.42-32.56 56.51-.07 15.54-6.14 17.5-5.41 33.27.7 15.08-13.39 36.43-29.44 37.88-9.77.89-19.76-.15-27.92-5.84-17.51 10.47-33.81 12.28-50.33-1.29-21.36 12.54-35.34 12.58-54.68-3.06-49.04 7.48-45.5-21.22-46.53-58.26-1.72-.31-3.06-.47-5.28-.93-15.85-3.32-48.75 5.93-44.84-22.01 1.67-11.96 25.01-17.22 34.18-23.76 11.15-7.96 13.64-19.13 16.61-32.31-9.33-2.92-20.81-5.14-30.63-7.97a354 354 0 0 1-56.47-21.65c-6.43-3.34-13.82-8.11-20.11-11.96-1.89-.02-3.77-.06-5.66-.11-78.85-2.04-158.244-15.36-215.374-75.3-61.715-6.72-105.52-37.68-133.104-93.52-28.621 35.99-53.413 55.38-96.004 72.22 10.575 36.22 7.34 70.8.07 107.35 1.04.88 2.054 1.79 3.04 2.72 8.971 8.64 10.593 43.05 10.917 55.83 27.135 12.68 31.134 26.25 29.436 55.04-2.04 34.59-1.091 60.96-46.059 54.52-18.282 13.49-33.96 15.52-53.466 2.49-16.87 11.23-34.469 13.08-51.219.62-28.152 13.45-49.348 4.83-57.437-25.78-4.886-18.49-8.764-37.42-2.047-55.72-8.425-19.73-24.51-35.93-14.253-57.27a243.76 243.76 0 0 1-37.183-127.97c-24.075.27-13.375-14.87-5.608-26.85-4.357-.7-7.742-.87-10.534-4.24-3.206-13.31 34.898-43.65 42.716-55.74 8.417-13.02 12.92-27.18 20.107-40.47 21.968-40.65 52.389-82.17 91.716-107.202 5.92-12.811 8.208-23.697 16.198-37.245 21.811-36.985 49.328-59.34 90.093-70.927 1.278-3.038 2.619-7.239 3.749-10.433-6.261-3.945-10.413-6.745-15.67-12.179-23.902-24.707-23.036-85.945 23.573-81.858 1.712-8.068 4.329-16.056 5.091-24.258.005-.054-2.65-4.579-2.777-5.092-3.265-13.159 5.391-38.547 9.252-50.13 5.15-15.446 9.994-21.794 23.37-28.104 5.733-16.802 15.733-26.074 30.642-34.694a142.6 142.6 0 0 1 21.944-33.426c30.172-34.917 69.014-56.215 115.152-59.739"/><path fill="#464446" d="M1113.76 811.847c16.4 3.616 35.29 11.009 48.85 21.027 9.17 7.126 16.55 13.138 24.56 21.686-6.3.611-23.42 2.248-27.04 7.463l.7 2.187c92.45-10.898 157.01 38.269 179.02 127.935l.92 2.027c4.02-1.565 2.8-11.19 2.71-15.225 42.97 27.423 75.63 67.203 99.71 111.853 7.33 13.59 12.95 29.97 20.39 43.06 3.68 6.46 16.5 19.93 21.92 26.14 6.93 8.08 13.35 16.58 19.24 25.45-5.18-.72-10.97-1.95-16-1.08-1.15 4.19 11.54 26.04 14.32 33.97-4.42-1.96-11.6-5.77-16.05-5.35-2.15 4.88-3.35 28.46-4.92 36.07-7.79 37.79-20.15 71.43-40.77 103.94-9.61-10.44-17.08-18.28-29.04-26.32-40.19-27.02-94.43-32.77-138.98-13.02-2.28-34.57-3.63-66.71 10.08-99.62 9.76-23.41 22.4-35.48 41.15-52.17-21.22 7.42-31.25 19.4-44.19 36.85-57.67-20.15-99.44-55.68-127.06-110.25-3.26-6.45-3.96-11.12-8.37-16.99l-1.36-.36c-3.47 5.12 5.56 25.16 8.28 30.77-5.91-2.02-15.87-7.14-20.43-7.05l-1.92 1.39.45-1.15.41-.07-.32 2.1c8.18 7.52 14.88 10.33 25.54 12.51 29.27 45.72 47.7 62.27 96.29 87.92 7.83 3.26 15.75 6.63 23.61 9.79-7.91 20.23-15.51 58.33-13.53 79.76.2 3.38.42 3.96-.4 7.31-3.32 3.08-36.09 4.73-42.99 5.16-76.81 4.76-187.39 13.16-258.74-18.87-30.811-10.9-48.878-24.76-72.923-45.23 4.213-.34 7.924-.22 10.834-3.09-3.201-3.56-29.581-4.79-37.082-6.07a109.4 109.4 0 0 1-17.536-4.54c-30.083-10.22-64.592-33.88-78.988-62.8-1.169-22.55-.715-39.29 17.079-56.06l.014-.5c9.754-7.72 16.273-10.65 27.94-14.19 16.476 4.51 29.14 5.31 46.276 5.95 5.709-2.42 24.422-3.75 31.772-5.03 103.178-18.06 237.844-88.79 175.144-213.681 32.69-9.109 51.29-28.682 51.43-63.602"/><path fill="#eae9e9" d="M910.069 1125.82c4.763-5.09 8.763-10.69 13.885-15.78 23.883-23.72 52.784-33.09 85.796-33.18l1.19-.05c47.39 1.26 88.35 14.83 121.74 49.38 19.63 20.3 31.95 45.58 17.61 72.51 7.37-2.36 22.2-20.28 32.02-25.63-3.52 7.69-7.35 12.3-12.45 18.97-4.63 11.83-28.25 31.09-39.94 36.32l-.05.41a627 627 0 0 1 74.1 33.76l1.97.77c17.37 7.73 38.2 16.99 55.99 23.79.2 3.38.42 3.96-.4 7.31-3.32 3.08-36.09 4.73-42.99 5.16-76.81 4.76-187.39 13.16-258.74-18.87-30.811-10.9-48.878-24.76-72.923-45.23 4.213-.34 7.924-.22 10.834-3.09-3.201-3.56-29.581-4.79-37.082-6.07a109.4 109.4 0 0 1-17.536-4.54c-30.083-10.22-64.592-33.88-78.988-62.8-1.169-22.55-.715-39.29 17.079-56.06l.014-.5c9.754-7.72 16.273-10.65 27.94-14.19 16.476 4.51 29.14 5.31 46.276 5.95 19.88 4.5 38.184 20.61 54.655 31.66"/><path fill="#a6a5ab" d="M910.069 1125.82c4.763-5.09 8.763-10.69 13.885-15.78 23.883-23.72 52.784-33.09 85.796-33.18-6.01 8.19-14.606 14.22-22.424 20.36-53.123 41.68-125.361 58.01-184.875 19.36-3.2-2.08-18.927-13.09-21.267-13.68l.014-.5c9.754-7.72 16.273-10.65 27.94-14.19 16.476 4.51 29.14 5.31 46.276 5.95 19.88 4.5 38.184 20.61 54.655 31.66M1203.97 1262.53l1.97.77c17.37 7.73 38.2 16.99 55.99 23.79.2 3.38.42 3.96-.4 7.31-3.32 3.08-36.09 4.73-42.99 5.16-76.81 4.76-187.39 13.16-258.74-18.87 6.497-.89 31.473 4.94 41.05 5.64 59.27 4.33 120.81 3.77 178.07-13.92 7.08-2.19 19.82-5.7 25.05-9.88"/><path fill="#060606" d="M1150.29 1198.7c7.37-2.36 22.2-20.28 32.02-25.63-3.52 7.69-7.35 12.3-12.45 18.97-4.63 11.83-28.25 31.09-39.94 36.32-6.08-1.64-8.73-2.82-14.47-5.33-44.32 10.77-72.06 13.55-117.634 4.44-6.341-1.53-8.279-2.58-13.97-5.35l-.305-1.56-1.486.38c4.17-1.84 17.139 1.07 22.145 1.99 47.93 8.78 104.13.79 146.09-24.23"/><path fill="#2b292c" d="M1115.45 1223.03c8.79-4.29 20.85-8.06 29.62-13.51 8.59-5.33 15.87-12.44 24.79-17.48-4.63 11.83-28.25 31.09-39.94 36.32-6.08-1.64-8.73-2.82-14.47-5.33"/><path fill="#a6a5ab" d="M1115.45 1223.03c5.74 2.51 8.39 3.69 14.47 5.33l-.05.41c-7.42 2.01-17.1 5.76-24.6 8.38-19.88 6.95-93.8 7.57-107.454-9.68 45.574 9.11 73.314 6.33 117.634-4.44"/><path fill="#060606" d="m912.497 1141.22 2.524 1.17c3.337 5.38 4.258 13.26 7.427 20.04 3.69 7.8 8.042 15.26 13.009 22.32 2.773 4.01 11.117 14.14 11.006 18.32-13.357-4.23-36.506-47.62-33.966-61.85"/><path fill="#2b292c" d="M1113.76 811.847c16.4 3.616 35.29 11.009 48.85 21.027-7.39 28.047-36.49 47.336-52.37 75.088-15.51 27.106-22.24 48.319-34.73 76.183-14.65 32.685-40.48 66.375-64.57 92.665l-1.19.05c-33.012.09-61.913 9.46-85.796 33.18-5.122 5.09-9.122 10.69-13.885 15.78-16.471-11.05-34.775-27.16-54.655-31.66 5.709-2.42 24.422-3.75 31.772-5.03 103.178-18.06 237.844-88.79 175.144-213.681 32.69-9.109 51.29-28.682 51.43-63.602M1251.85 1197.54c7.83 3.26 15.75 6.63 23.61 9.79-7.91 20.23-15.51 58.33-13.53 79.76-17.79-6.8-38.62-16.06-55.99-23.79 7.1-5.64 18.26-10.1 26.43-17.76 10.82-10.13 17.65-21.01 18.65-36.01z"/><path fill="#636062" d="M1160.83 864.21c92.45-10.898 157.01 38.269 179.02 127.935-.53 2.5.11 1.463-1.59 3.327-1.58-1.017-16.52-32.144-19.13-36.92a174.67 174.67 0 0 0-113.08-86.685c-13.73-3.192-33.53-3.866-45.22-7.657"/><path fill="#464446" d="M700.951 752.337c1.341-.661 2.824-1.424 4.219-1.955 114.041-43.465 247.379-30.651 357.99 13.515-9.77 3.765-20.33 9-26.2 19.243-7.57 13.195-5.45 47.247-2.48 62.054.98 4.882 12.09 17.92 14.91 22.837 9.94 17.289 15.82 31.324 20.85 50.374 17.29 110.405-147.683 168.975-234.573 164.685-26.958-1.33-67.52-16.57-91.083-29.21-20.715-11.11-58.748-40.42-67.036-62.953-3.082-6.008-8.435-17.148-10.127-23.487-9.763-36.579 12.346-80.451 30.349-111.427-5.756-43.457-9.416-60.477 3.181-103.676"/><path fill="#eae9e9" d="M728.98 767.534a75 75 0 0 1 5.713-3.716c31.568-18.257 58.317 8.704 83.88 11.445 47.5 5.094 65.465-40.828 119.842-26.338 30.401 13.013 42.679 35.604 43.464 67.95-4.247 34.68-16.596 58.291-51.957 68.73 35.57 17.485 62.051 40.912 52.046 84.666-3.086 26.399-15.652 45.699-33.769 64.439-29.74 25.01-57.736 34.45-96.694 35.87-41.932 1.53-69.834-8.89-102.564-33.75l-6.307-8.28c-16.22-17.61-26.344-41.165-25.227-65.279 1.49-32.152 18.559-51.572 40.956-72.036-33.206-14.172-45.576-37.968-48.525-73.158.098-20.775 4.492-35.514 19.142-50.543"/><path fill="#a6a5ab" d="M742.634 1028.55c3.461.96 7.352 4.14 10.601 6.03 65.616 38.18 169.739 27.66 214.248-38.58 5.829-8.676 9.392-17.042 14.485-25.729-3.086 26.399-15.652 45.699-33.769 64.439-29.74 25.01-57.736 34.45-96.694 35.87-41.932 1.53-69.834-8.89-102.564-33.75z"/><path fill="#060606" d="M835.896 801.08c5.307-2.229 13.139 3.587 19.016.711 27.435-13.43 62.733-42.077 92.155-13.102 3.429 3.359 4.442 3.988 6.495 8.177-.545 7.73-13.427 7.377-19.894 8.193q.45 1.119.859 2.253c16.916 47.267-33.651 83.586-54.569 33.695-5.664-13.508.899-33.943 8.143-46.647-5.769 2.202-9.008 4.222-14.268 7.291-11.592 6.118-29.356 15.226-37.937-.571"/><path fill="#a6a5ab" d="M913.271 785.857c15.818-1.22 26.967 3.533 33.796 2.832 3.429 3.359 4.442 3.988 6.495 8.177-.545 7.73-13.427 7.377-19.894 8.193-5.882-11.386-9.439-13.605-20.397-19.202"/><path fill="#fdfcfd" d="M893.263 797.839c5.886-1.917 12.219 1.259 14.205 7.123 1.985 5.864-1.117 12.233-6.957 14.287a11.301 11.301 0 1 1-7.248-21.41"/><path fill="#060606" d="M731.308 800.631c17.445-30.485 55.969-8.646 77.489 1.796 2.374 3.392 2.539 2.476 2.398 5.776-4.079 1.352-8.506-.772-12.636-2.293 2.445 5.749 3.405 8.094 4.976 14.218 2.208 15.24.855 22.471-6.236 36.616 8.871 3.476 13.362 5.797 20.567 12.164-17.965-5.59-43.882-14.331-51.916 8.87-2.401 6.933 3.199 17.928-.383 20.444-7.977-2.677-7.017-19.92-3.96-26.182 1.145-2.345 3.033-4.656 4.688-6.681-1.547-1.176-6.048-4.845-7.535-5.303.002 2.006 1.215 2.83 2.702 4.862l-.949.779c-4.016-2.267-9.532-3.871-12.471-7.235-11.082-12.683-9.775-30.562-8.981-46.16-2.239.014-4.923-.167-7.201-.257-3.601-2.142-2.521-.678-3.861-4.115.954-3.879 1.111-3.836 3.309-7.299"/><path fill="#fdfcfd" d="M739.061 812.302c4.544-6.152 7.728-10.332 15.587-11.127-9.084 20.854-9.527 39.338 4.112 58.881.002 2.006 1.215 2.83 2.702 4.862l-.949.779c-4.016-2.267-9.532-3.871-12.471-7.235-11.082-12.683-9.775-30.562-8.981-46.16"/><path fill="#a6a5ab" d="M731.308 800.631c6.898-3.065 21.351-9.12 28.793-7.241l.561 1.584c-2.247 2.915-3.339 3.804-6.014 6.201-7.859.795-11.043 4.975-15.587 11.127-2.239.014-4.923-.167-7.201-.257-3.601-2.142-2.521-.678-3.861-4.115.954-3.879 1.111-3.836 3.309-7.299"/><path fill="#fdfcfd" d="M762.106 802.003c5.763-2.296 12.296.522 14.581 6.29 2.285 5.769-.546 12.296-6.319 14.57-5.757 2.267-12.262-.555-14.541-6.307s.531-12.264 6.279-14.553"/><path fill="#060606" d="M933.213 923.341c9.218.109 31.846 6.16 26.355 18.969l-2.114.133c-2.989-3.834-5.362-6.583-8.656-10.163-2.307 15.892-4.278 26.914-14.66 40.137-14.452 18.408-39.832 18.104-59.126 8.179-2.178-1.121-9.183-4.582-11.251-4.744-31.704-2.493-62.126-4.907-93.915-1.58-7.723.987-25.404 3.528-31.072-2.529l.575-2.194 1.699-.807c19.44 4.286 36.355-3.3 54.508-2.439 62.995 2.989 98.018 9.698 147.563-36.94-4.02-.28-9.749-.191-12.904-2.313l.266-1.805z"/><path fill="#fdfcfd" d="M939.852 940.954c1.165 2.579.436 7.35-.501 9.942-10.473 28.946-31.956 34.819-57.617 26.657-2.657-1.151-6.229-2.111-7.484-4.16 29.846-7.021 42.487-11.461 65.602-32.439"/><path fill="#a6a5ab" d="M835.896 801.08c8.581 15.797 26.345 6.689 37.937.571-1.885 6.308-4.721 10.363-7.023 16.181-22.841 7.093-40.448 12.545-63.275 2.296-1.571-6.124-2.531-8.469-4.976-14.218 4.13 1.521 8.557 3.645 12.636 2.293.141-3.3-.024-2.384-2.398-5.776 7.389.743 20.548 1.951 27.099-1.347"/><path fill="#060606" d="m837.774 901.416-2.215.048-1.224-1.463c.261-7.199 15.906-19.275 22.266-22.357 10.711-5.191 14.438-2.98 18.209 7.413-.137 3.631-1.379 4.703-3.515 7.664-9.745 6.646-21.962 8.479-33.521 8.695"/><path fill="#a6a5ab" d="m864.984 885.269 6.311 7.452c-9.745 6.646-21.962 8.479-33.521 8.695 7.41-7.353 17.429-12.749 27.21-16.147"/><path fill="#060606" d="M858.007 851.188c38.167-2.73 49.722 42.832 26.781 46.509l-.832-.945c8.62-11.233 9.346-17.482 1.367-29.446-22.897-24.591-42.617-.803-65.076 6.703 9.501-10.844 23.529-19.828 37.76-22.821"/><path fill="#a6a5ab" d="M793.043 881.732c4.311 3.263 17.94 14.642 13.589 20.293l-1.263.379c-10.321-.457-16.643-1.743-25.738-6.823 2.434-4.215 2.721-4.457 6.305-7.853 1.77-2.184 4.809-4.243 7.107-5.996"/><path fill="#060606" d="M793.043 881.732c4.311 3.263 17.94 14.642 13.589 20.293l-1.263.379c-6.444-6.3-10.895-11.659-19.433-14.676 1.77-2.184 4.809-4.243 7.107-5.996"/><path fill="#060606" d="M779.631 895.581c-3.006-3.245-5.331-7.773-3.174-12.143a8.11 8.11 0 0 1 4.815-4.166c4.649-1.502 7.819.318 11.771 2.46-2.298 1.753-5.337 3.812-7.107 5.996-3.584 3.396-3.871 3.638-6.305 7.853"/><path fill="#2b292c" d="M948.199 1034.71c8.593-1.2 18.956-7.78 26.259-12.06 29.842-17.51 54.692-40.751 74.642-68.946 7.8-11.029 13.17-24.627 21.14-35.299 17.29 110.405-147.683 168.975-234.573 164.685-26.958-1.33-67.52-16.57-91.083-29.21-20.715-11.11-58.748-40.42-67.036-62.953 20.976 13.663 45.865 40.693 71.393 45.903 32.73 24.86 60.632 35.28 102.564 33.75 38.958-1.42 66.954-10.86 96.694-35.87"/><path fill="#060606" d="m938.415 748.925-1.699-2.574c3.486-1.328 9.53 1.351 12.973 2.949 23.166 10.756 44.56 49.037 34.055 73.889l-1.4.306c-.298-2.432-.356-4.195-.465-6.62-.785-32.346-13.063-54.937-43.464-67.95M709.838 818.077c-3.241-13.396.174-52.556 19.142-50.543-14.65 15.029-19.044 29.768-19.142 50.543"/><path fill="#464446" d="M571.352 1008.15c14.132-47.946 45.981-98.193 96.502-113.234-1.942 5.084-4.018 10.186-6.029 15.249-15.915 52.254 1.673 92.295 42.323 127.375 14.328 12.36 28.715 20.18 44.711 29.79 14.345 5.36 47.248 19.66 60.279 20.88-11.667 3.54-18.186 6.47-27.94 14.19l-.014.5c-17.794 16.77-18.248 33.51-17.079 56.06-11.256-10.01-24.812-46.06-28.803-61.36-1.457-5.58-4.914-19.58-7.071-24.1l-1.844-.11c-1.664 2.47-1.252 5.18-1.288 8.3 2.846 15.61 7.513 37.17 13.14 51.62-24.993 36.19-54.909 57.14-95.24 74.14-4.711-5.84-8.45-10.27-13.594-15.71-15.316-14.25-30.716-18.58-50.942-19.68 21.554 7.79 40.677 18.3 53.441 38.05 17.844 27.6 13.585 76.36 6.633 106.61-57.501-26.75-122.628-16.63-166.072 30.49-18.123-34.07-27.404-56.76-33.882-95.32-1.277-7.6.193-32.16-1.983-34.6-4.749-.97-8.427.02-13.256.76 2.935-6.8 13.89-20.78 12.017-26.71-2.916-1.62-6.749-.8-10.255-.5l-.899-.95c4.739-11.88 30.047-32.65 37.637-44.12 8.457-12.78 15.591-28.66 22.655-42.47 16.776-32.81 50.201-77.63 81.3-97.9-.04 6.45-.769 14.46-1.196 21.02 2.926-6.26 3.905-11.93 6.749-18.27"/><path fill="#2b292c" d="M725.099 1081.69c2.846 15.61 7.513 37.17 13.14 51.62-24.993 36.19-54.909 57.14-95.24 74.14-4.711-5.84-8.45-10.27-13.594-15.71 9.746-3.72 19.15-8.28 28.105-13.63 40.404-24.35 56.622-52 67.589-96.42"/><path fill="#636062" d="M571.352 1008.15c14.132-47.946 45.981-98.193 96.502-113.234-1.942 5.084-4.018 10.186-6.029 15.249-32.583 15.496-62.762 48.115-78.803 80.125-2.081 4.153-6.059 13.92-9.116 18.04z"/><path fill="#2b292c" d="M748.859 1067.33c14.345 5.36 47.248 19.66 60.279 20.88-11.667 3.54-18.186 6.47-27.94 14.19-9.478-8.85-26.398-24.3-32.339-35.07"/><path fill="#464446" d="M777.802 612.447c27.535-31.111 58.731-51.822 100.39-57.966a138.34 138.34 0 0 1 102.901 26.155c33.177 20.361 54.427 70.833 67.667 105.417a437.93 437.93 0 0 0-256.312-33.283c-9.919 1.749-31.643 5.589-40.515 8.568-7.308 2.556-12.835 4.241-20.321 6.224 10.383-16.76 28.077-27.636 45.352-36.271-.727-2.228-.219-1.167-2.962-2.852-2.69.911-4.31 1.776-7.093 1.289l-.528-1.696c1.744-4.571 8.009-11.454 11.421-15.585"/><path fill="#636062" d="M777.802 612.447c27.535-31.111 58.731-51.822 100.39-57.966a138.34 138.34 0 0 1 102.901 26.155c-4.658.2-31.015-12.212-38.554-14.337-55.677-15.699-119.093 8.971-158.613 48.854-.13-1.058.019-.335-.909-2.021z"/><path fill="url(#a)" d="m776.964 631.291 2.533 1.187c-.644 6.605-23.408 16.967-27.564 28.86-7.308 2.556-12.835 4.241-20.321 6.224 10.383-16.76 28.077-27.636 45.352-36.271"/><path fill="#757375" d="m777.802 612.447 5.215.685c.928 1.686.779.963.909 2.021-2.73 3.826-6.865 10.015-9.924 13.286-2.69.911-4.31 1.776-7.093 1.289l-.528-1.696c1.744-4.571 8.009-11.454 11.421-15.585"/><path fill="#eae9e9" d="M1213.19 1457.71c-.83-14.94-5.72-47.12 5.4-57.63 19.67-18.57 56.12-23.9 82.26-25.26 36.07-1.18 105.73 11.48 110.08 56.82.48 5.58-5.75 15.42-6.75 21.22-1.26 9.81 2.1 7.32-1.6 19.03-5.14 16.22-24.55 30.53-41.48 17.23-3.09-2.42 1.01-20.9 1.75-25.47.59-7.59 4.38-34.93-1.16-39.41-3.26 2.71-3.3 9.06-3.71 13.48-.95 10.84-1.95 21.67-3.01 32.5-.72 5.62-1.88 10.61-3.08 16.13-13.95 14.62-30.97 10.61-44.98-1.23-.89-9.33-1.19-17.89-.04-27.2.16-13.46 7.52-43.31-9.44-44.32l-1.43 1.13c1.02 3.93 2.19 4.02 5.93 7.11-1.3 13.63-2.66 31.78-2.83 45.42-.02 6.63.36 13.4.65 20.05-7.23 4.4-14.69 8.18-23.4 7.39-27.35-2.51-27.71-24.37-25.47-44.98.13-7.76.27-15.62.84-23.35.59-7.99 1.21-14.56-8.93-15.72l-1.96.91c-.25 4.04 2.44 5.2 5.51 7.71-1.82 11.89-3.01 26.63-3.43 38.69.01 11.41.19 15.86 2.5 26.99-22.86 1.13-31.77-4.47-32.22-27.24"/><path fill="#a6a5ab" d="M1299.75 1487.31c-7.23 4.4-14.69 8.18-23.4 7.39-27.35-2.51-27.71-24.37-25.47-44.98.28 5.8.42 10.53.33 16.34 16.36 9.21 31.3 12.27 47.89 1.2-.02 6.63.36 13.4.65 20.05M1306.87 1457.92c-.01 4.89-.75 8.31 3.01 11.96 12.12 11.77 31.67 6.13 45.09.34-.72 5.62-1.88 10.61-3.08 16.13-13.95 14.62-30.97 10.61-44.98-1.23-.89-9.33-1.19-17.89-.04-27.2M1402.58 1471.89c-5.14 16.22-24.55 30.53-41.48 17.23-3.09-2.42 1.01-20.9 1.75-25.47.1 3.79-.67 5.49 2.26 8.24 9.26 8.7 24.57 7.2 34.84 1.47l1.63-.89c.34-.2.67-.39 1-.58M1213.19 1457.71c4.11 10.61 21.45 13.14 28.82 5.28l.9-5.03c.01 11.41.19 15.86 2.5 26.99-22.86 1.13-31.77-4.47-32.22-27.24"/><path fill="#eae9e9" d="M493.12 1473.69c-3.789-8.92-8.83-33.22-8.231-42.51 3.025-46.95 79.56-58.38 114.799-56.25 24.76 1.51 59.176 9.24 76.313 26.66 11.251 11.43 6.031 41.64 4.872 56.75-1.307 22.79-11.156 25.49-32.235 25.8 3.088-11.38 2.595-17.92 2.509-29.71-.779-11.72-2.009-24.53-2.528-36.12 3.529-2.73 4.873-2.83 6.359-6.35-7.147-4.97-12.666 5.06-12.6 11.74.133 13.37 1.76 26.6 1.809 39.96.075 7.9-.036 12.8-5.268 19.29-8.75 10.86-29.337 14.61-40.411 5.72-5.387-4.32-3.506-22.42-3.379-29.22-.524-13.2-1.88-26.15-2.421-39.08l.97-.59c2.529-1.57 3.875-2.01 5.018-4.71l-.846-1.53c-3.892-.42-5.685.43-8.934 2.77-2.924 2.11-3 7.2-2.892 10.84.394 13.36 1.912 27.23 2.093 40.6.095 6.31 1.166 15.72-4.021 19.9-12.767 10.28-29.622 7.1-41.521-1.33-1.247-5.95-2.086-10.12-2.77-16.2-1.095-8.71-2.404-41.74-6.64-45.69l-1.552.65c-3.076 4.45.152 35.93.884 42.75.955 7.18 1.742 12.2 3.363 19.24-17.048 9.14-36.841 8.06-42.74-13.38"/><path fill="#a6a5ab" d="M595.129 1459.45c.844 4.84.277 6.81 4.543 9.71 14.3 9.73 32.224 4.06 44.515-5.5.075 7.9-.036 12.8-5.268 19.29-8.75 10.86-29.337 14.61-40.411 5.72-5.387-4.32-3.506-22.42-3.379-29.22M539.805 1470.12a60 60 0 0 0 10.243 4.16c15.423 4.53 25.039.49 38.069-6.53.095 6.31 1.166 15.72-4.021 19.9-12.767 10.28-29.622 7.1-41.521-1.33-1.247-5.95-2.086-10.12-2.77-16.2M532.497 1467.83c.955 7.18 1.742 12.2 3.363 19.24-17.048 9.14-36.841 8.06-42.74-13.38 11.345 6.26 34.572 8.76 39.377-5.86M651.147 1454.43c1.713 10.35 2.137 13.19 14.511 11.63 5.778-.73 11.443-3.04 15.215-7.72-1.307 22.79-11.156 25.49-32.235 25.8 3.088-11.38 2.595-17.92 2.509-29.71"/><path fill="#f78c83" d="M694.546 733.967c3.357-16.177 9.549-48.075 25.898-54.574 85.986-34.178 194.64-35.518 281.566-4.001 2.5 10.958 4.39 23.784-1.88 33.767-6.405 10.192-17.086 9.363-27.346 8.724-2.868 3.881-4.573 6.094-7.883 9.582-71.568-13.392-168.164-15.95-237.75 8.317-8.935 1.744-25.616 8.517-34.329 12.032.325-5.779.447-8.098 1.724-13.847"/><path fill="#f56862" d="M717.25 728.595c19.839-4.109 41.056-10.421 61.041-13.556 43.313-6.793 90.283-9.333 133.982-5.26 20.016 1.865 40.44 5.617 60.511 8.104-2.868 3.881-4.573 6.094-7.883 9.582-71.568-13.392-168.164-15.95-237.75 8.317a174 174 0 0 0-9.901-7.187"/><path fill="#ee5954" d="M694.546 733.967c4.906 1.385 17.32-3.537 22.704-5.372a174 174 0 0 1 9.901 7.187c-8.935 1.744-25.616 8.517-34.329 12.032.325-5.779.447-8.098 1.724-13.847"/><path fill="#464446" d="M1493.24 1223.49c4.75 1.57 7.77 2.98 12.35 1 3.9-3.72 1.69-5.64 4.51-9.77 18.36-2.06 47.76 1.73 64.6 9.77 17.93 8.56 35.18 19.73 53.03 28.84 3.98 24.08 6.33 37.6-9.54 59.28-2.32 3.18-9.81 11.77-11.15 13.84l-.91-.36-.57-2.73c-5.78 3.49-14.29 5.61-20.78 7.89-41.28 14.47-79.72 10.73-122.04 5.22 5.14-10.2 11.02-25.36 15.57-36.22 8-22.01 14.01-53.65 14.93-76.76"/><path fill="#2b292c" d="M1478.31 1300.25c5.53 7.44 53.81 16.43 64.48 18.39 18.79 3.46 44.96 1.37 62.77 4.72-5.78 3.49-14.29 5.61-20.78 7.89-41.28 14.47-79.72 10.73-122.04 5.22 5.14-10.2 11.02-25.36 15.57-36.22"/><path fill="#eae9e9" d="M1627.73 1253.33c16.93 8.18 29.24 13.33 35.7 32.75 9.11 27.36 7.62 81.22-2.66 107.1-3.13 10.69-8.7 21.75-18.91 26.84-11.22 5.6-38.5 11.17-36.79-9.06 2.3-5.95 12.86-16.43 12.09-19.79-8.68 2.5-15.31 11.67-18.07 19.89-.23 5.09 2.12 10.66 1.05 12.84-6.79.23-13.38.32-20.17.31-8.46-.02-8.76-6.18-7.83-13.1 3-6.51 14.74-17.16 14.23-20.86-8.12.26-18.32 13.46-20.34 21.04.3 5.69.44 7.56 1.79 13.06-12.79.24-25.87 3.85-26.88-12.31l-.54-.92-.41.7-1.67-.61-1.08-4.35-2.09 5.98c.55 4.14 1.35 7.7 2.23 11.75-11.69.71-30.69 2.92-31.38-13.59 9.06-18.52 32.7-7.45 37.55-39.99-.14-8.01-.4-13.53-1.28-21.47 24.03-5.14 43.38-9.42 63.86-23.45l.91.36c1.34-2.07 8.83-10.66 11.15-13.84 15.87-21.68 13.52-35.2 9.54-59.28"/><path fill="#a6a5ab" d="m1606.13 1326.09.91.36c-5.08 17-31.78 33.75-47.64 39.43-3.76 1.35-14.3 3.52-15.85 5.13-.14-8.01-.4-13.53-1.28-21.47 24.03-5.14 43.38-9.42 63.86-23.45M1660.77 1393.18c-3.13 10.69-8.7 21.75-18.91 26.84-11.22 5.6-38.5 11.17-36.79-9.06 3.64 1.51 7.1 1.39 11.03 1.56 20.39.91 30.69-6.48 44.67-19.34M1572.14 1411.11c8.98.26 17.97.24 26.95-.05-.23 5.09 2.12 10.66 1.05 12.84-6.79.23-13.38.32-20.17.31-8.46-.02-8.76-6.18-7.83-13.1M1537.38 1424.59c-11.69.71-30.69 2.92-31.38-13.59 4.72 3.91 22.13 2.1 29.15 1.84.55 4.14 1.35 7.7 2.23 11.75M1541.69 1411.84c6.68.5 17.7.29 24.34-.55.3 5.69.44 7.56 1.79 13.06-12.79.24-25.87 3.85-26.88-12.31z"/><path fill="#2b292c" d="M1537.24 1406.86c4.12-6.51 12.15-15.03 19.48-17.72l1.9.34.66 2.21c-7.27 7.99-13.85 9.95-17.59 20.15l-.75.2-.54-.92-.41.7-1.67-.61z"/><path fill="#f78c83" d="M1263.73 1328.86c16.3-15.09 49-20.82 70.58-19.76 34.14 1.67 71.79 15.02 95.16 40.85 8.26 9.12 19.68 22.21 10.3 34.37-4.93 9.91-15.46 25.79-22.02 34.82-3.5-6.43-6.38-11.95-10.57-17.97-7.36-6.2-9.3-9.18-18.47-14.31-44.26-24.73-90.3-24.06-137.48-12.71 1.08-5.41 2.56-10.65 3.98-15.97 2.95-9.75 5.79-19.52 8.52-29.32"/><path fill="#ee5954" d="m1255.21 1358.18 1.24 3c2.91 1.13 23.4-3.04 28.51-3.62 22.87-2.62 41.21-3.11 63.74 1.47 30.48 6.19 52.06 25.01 76.43 36.7 6.79.18 7.03-7.96 14.64-11.41-4.93 9.91-15.46 25.79-22.02 34.82-3.5-6.43-6.38-11.95-10.57-17.97-7.36-6.2-9.3-9.18-18.47-14.31-44.26-24.73-90.3-24.06-137.48-12.71 1.08-5.41 2.56-10.65 3.98-15.97"/><path fill="#f78c83" d="M468.17 1368.98c1.739-5.25 3.807-9.98 7.327-14.43 37.302-47.23 116.634-59.2 166.843-26.65 8.599 5.58 8.738 21.97 9.972 31.52.975 6.77 1.686 11.72 1.976 18.56-17.386-5.51-29.551-9.07-48.156-10.65-16.285-.85-25.609-.56-41.623.91-30.11 4.79-58.46 11.76-78.945 35.7-1.537-2.53-4.021-6.33-5.304-8.85-5.009-8.86-8.908-16.45-12.09-26.11"/><path fill="#ee5954" d="M557.186 1359.23c4.105 1.71 5.405 5.03 7.323 9.01-30.11 4.79-58.46 11.76-78.945 35.7-1.537-2.53-4.021-6.33-5.304-8.85 29.12-17.72 43.756-27.97 76.926-35.86"/><path fill="#f56862" d="M557.186 1359.23c18.816-2.5 41.832-4.11 60.802-1.87l-3.375 1.39c-2.082 7.27-.714 8.12-8.481 8.58-16.285-.85-25.609-.56-41.623.91-1.918-3.98-3.218-7.3-7.323-9.01"/><path fill="#ee5954" d="M617.988 1357.36c9.238 1.29 26.039 4.6 34.324 2.06.975 6.77 1.686 11.72 1.976 18.56-17.386-5.51-29.551-9.07-48.156-10.65 7.767-.46 6.399-1.31 8.481-8.58z"/><path fill="#eae9e9" d="M1039.3 834.017c-2.62-25.363-5.81-60.074 28.97-63.339 8.7-.856 17.36 2.02 23.82 7.913 20.67 18.524 18.3 56.164-1.03 74.517-10.73 10.185-18.77 12.802-32.65 15.455l-12.21-18.349c-4.82-5.809-5.73-8.777-6.9-16.197"/><path fill="#a6a5ab" d="m1062.62 817.556-1.57-5.537c11.31 3.321 13.59 4.182 17.2 15.597-.66 6.522-.97 10.636-8.31 12.585-6.37-.317-18.31 6.592-23.74 10.013-4.82-5.809-5.73-8.777-6.9-16.197 4.68-.746 5.36-.821 6.76-5.036l.68 2.671c6.69 3.316 4.38-10.521 15.88-14.096"/><path fill="#060606" d="m1062.62 817.556-1.57-5.537c11.31 3.321 13.59 4.182 17.2 15.597-.66 6.522-.97 10.636-8.31 12.585 3.21-12.371 4.47-15.768-7.32-22.645"/><path fill="#a6a5ab" d="M1061.05 812.019c10.33-14.591 12.7-17.571 29.82-14.291 3.72 12.648 3.54 26.949-12.62 29.888-3.61-11.415-5.89-12.276-17.2-15.597"/><path fill="#060606" d="M1046.06 828.981c5.39-15.274 26.37-55.448 44.81-31.253-17.12-3.28-19.49-.3-29.82 14.291l1.57 5.537c-11.5 3.575-9.19 17.412-15.88 14.096z"/><path fill="#ee5954" d="M1002.01 675.392c15.14 4.883 46.82 16.909 59.83 25.573 7.95 15.087 11.44 42.558 10.29 59.282-31.86-12.22-73.276-27.063-107.229-32.782 3.31-3.488 5.015-5.701 7.883-9.582 10.26.639 20.941 1.468 27.346-8.724 6.27-9.983 4.38-22.809 1.88-33.767"/><path fill="#2b292c" d="M1259.14 1305.49c2.01-.17.98-.37 3 .98 4.13 11.55-6.02 22.86-10.03 39.73-48.68.01-62.36-.87-108.86-20.72-10.39-3.88-20.37-7.11-29.98-12.66 6.22.11 12.45.17 18.67.26 42.38.65 84.86-5.63 127.2-7.59"/><path fill="#eae9e9" d="M1211.92 1354.93c17.43.02 22.92-.58 39.09-6.91-3.19 10.11-6.14 17.45-6.43 28.19-12.2 4.66-20.52 9.43-31.82 15.89-8.94-8.06-26.1 10.72-29.83 20.01.1 5.45 2.73 6.5 1.87 10.32-8.05 4.66-24.39 1.71-23.73-10.5 9.91-17.67 27.63-7 46.1-36.94 3.27-8.22 3.41-11.22 4.75-20.06"/><path fill="url(#b)" d="M1211.92 1354.93c17.43.02 22.92-.58 39.09-6.91-3.19 10.11-6.14 17.45-6.43 28.19-.36-2.41-.73-4.46-1.2-6.83-16.24 5.25-18.95 5.85-36.21 5.61 3.27-8.22 3.41-11.22 4.75-20.06"/><path fill="#a6a5ab" d="M1182.93 1412.11c.1 5.45 2.73 6.5 1.87 10.32-8.05 4.66-24.39 1.71-23.73-10.5 4.81 1.66 15.99.17 21.86.18"/><path fill="#eae9e9" d="M680.189 867.611c-26.521-15.401-41.949-62.541-7.447-80.465 2.465-1.281 8.604-1.762 11.289-.353.676 3.107.015 24.617.034 29.473-5.066-7.737-13.102-17.801-20.871-6.348 1.877.431 2.146.602 4.133.11 6.436-1.593 9.53 5.616 11.928 9.728-7.614 5.145-8.577 7.282-9.799 16.368l3.255 5.93c.505-6.226-.002-9.77 4.812-13.897 9.074-.932 11.633 16.358 11.409 22.907-2.969 5.234-5.926 11.171-8.743 16.547"/><path fill="#a6a5ab" d="M672.711 842.054c.505-6.226-.002-9.77 4.812-13.897 9.074-.932 11.633 16.358 11.409 22.907-6.943-2.596-11.3-3.485-16.221-9.01M669.456 836.124c-2.185-11.486-10.159-14.822-6.262-26.206 1.877.431 2.146.602 4.133.11 6.436-1.593 9.53 5.616 11.928 9.728-7.614 5.145-8.577 7.282-9.799 16.368"/><path fill="#eae9e9" d="M1188.98 1411.66c5.54-10.75 11.22-12.71 21.95-17.34-3.7 6.53-5.58 9.95-7.38 17.51.06 3.81.51 6.53-1.15 9.9-8.22 5.99-13.96-1.32-13.42-10.07"/><path fill="#a6a5ab" d="M1203.55 1411.83c.06 3.81.51 6.53-1.15 9.9-8.22 5.99-13.96-1.32-13.42-10.07 5.46.31 9.03.5 14.57.17"/></svg>