<svg version="1.1" xmlns="http://www.w3.org/2000/svg" viewBox="80.05 -8.35 1884.67 2052.60" width="235.05" height="256">
<path transform="translate(0,0)" fill="rgb(61,59,63)" d="M 788.132 208.54 C 819.732 188.35 852.565 164.32 883.079 143.198 C 937.883 105.264 982.745 67.6689 1054.02 84.9225 C 1092.74 94.295 1119.46 116.499 1151.41 139.011 C 1172.35 153.774 1193.42 168.366 1214.6 182.784 L 1456.85 347.769 L 1693 508.846 L 1755.94 550.515 C 1769.81 559.509 1786.25 569.459 1799.31 579.145 C 1811.36 587.994 1821.69 598.962 1829.82 611.513 C 1845.49 636.311 1850.55 666.359 1843.88 694.924 C 1837.65 721.694 1821.18 744.961 1798.01 759.741 C 1787.27 766.466 1777.35 769.136 1765.65 773.006 C 1763.92 820.416 1747.49 838.241 1712.52 867.538 C 1714.79 907.589 1713.82 959.358 1714.01 1000.34 L 1714.77 1239.71 L 1714.95 1322.68 C 1714.99 1337.87 1714.54 1359.46 1716.1 1374.22 C 1754.67 1403.75 1763.23 1423.36 1762.78 1470.88 C 1790.95 1488.22 1810.21 1507.11 1811.06 1541.94 C 1811.21 1548.09 1810.53 1556.06 1814.59 1560.9 C 1820.43 1563.03 1827.11 1564.59 1832.35 1566.69 C 1851.83 1574.35 1867.68 1589.13 1876.69 1608.02 C 1888.19 1632.38 1883.35 1650.04 1885.31 1673.4 C 1888.7 1713.83 1877.21 1760.39 1834.93 1776.53 C 1797.01 1791 1724.82 1784.95 1682.07 1784.99 C 1616.37 1785.05 1550.13 1786.16 1484.83 1785.1 C 1485.7 1797.62 1485.79 1810.21 1485.89 1822.75 C 1486.11 1847.78 1487.07 1872.62 1469.78 1892.72 C 1438.31 1929.29 1360.17 1936.07 1314.09 1939.1 C 1285.55 1940.98 1256.34 1941.93 1227.76 1940.39 C 1212.86 1939.59 1196.73 1935.52 1182.03 1936.53 C 1172.76 1937.17 1163.03 1941.35 1154.04 1943.83 C 1139.79 1947.77 1125.07 1951.19 1110.45 1953.37 C 1037.51 1964.22 866.371 1968.22 808.932 1917.78 C 794.109 1904.76 787.359 1889.63 786.278 1870.11 C 785.45 1855.18 786.09 1839.93 786.089 1824.96 C 786.088 1811.66 785.378 1797.89 786.46 1784.64 C 757.467 1785.97 718.572 1784.67 688.782 1784.6 L 489.245 1784.54 C 433.247 1785.01 377.247 1785.14 321.248 1784.91 C 292.942 1784.9 262.327 1786.15 234.669 1783.64 C 188.79 1779.17 157.951 1742.1 159.286 1696.52 C 159.952 1673.77 156.071 1641.12 162.254 1619.89 C 171.992 1586.45 200.792 1565.92 233.121 1560.96 C 233.84 1517.46 241.858 1488.69 285.387 1471.19 C 285.821 1420.58 290.333 1405 329.175 1371.47 C 330.169 1354.86 329.781 1335.66 329.789 1318.8 L 329.81 1235.88 L 329.808 994.036 C 329.806 952.587 328.809 906.472 330.084 865.465 C 299.777 842.146 286.129 821.812 280.876 783.375 C 280.382 779.76 281.941 777.832 280.168 774.494 C 273.286 769.92 263.007 767.662 255.363 763.543 C 197.995 732.631 182.586 651.458 223.805 601.314 C 244.273 576.413 277.266 557.989 304.164 540.302 C 326.936 525.07 349.561 509.62 372.037 493.954 L 700.089 269.139 L 761.596 227.326 C 765.944 224.369 784.71 211.843 787.621 208.888 L 788.132 208.54 z"/>
<path transform="translate(0,0)" fill="rgb(252,239,211)" d="M 1011.61 144.313 C 1050.96 140.791 1076.5 163.361 1107 183.976 C 1135.85 203.41 1164.54 223.072 1193.07 242.958 L 1429.1 403.655 L 1647.52 552.145 C 1672.84 568.852 1698.07 585.694 1723.21 602.671 C 1737.57 612.257 1752.67 621.388 1765.86 632.554 C 1795.86 658.072 1782.73 709.813 1741.41 711.862 C 1716.41 713.102 1691.07 712.192 1666 712.094 L 1523.1 712.047 L 1037.5 712.063 L 553.565 712.028 L 388.611 712.029 C 362.006 712.033 335.082 712.894 308.553 712.094 C 299.831 711.831 292.261 709.667 285.019 704.552 C 275.247 697.554 268.632 686.981 266.611 675.132 C 260.684 639.133 292.75 624.138 317.101 606.47 C 322.263 602.724 327.691 599.206 332.97 595.611 L 399.506 550.421 L 631.857 391.165 L 861.849 233.734 L 929.841 186.815 C 957.376 167.673 977.512 149.427 1011.61 144.313 z"/>
<path transform="translate(0,0)" fill="rgb(61,59,63)" d="M 1015.18 209.162 C 1022.36 208.054 1026.57 208.669 1032.77 212.686 C 1059.86 230.248 1086.94 248.938 1113.73 266.949 L 1294.94 389.537 L 1524.63 544.239 C 1556.45 565.687 1588.56 586.64 1620.42 608.056 C 1631.08 615.226 1637.37 624.161 1625.81 634.439 C 1623.36 636.62 1615.16 636.353 1611.77 636.766 C 1589.26 637.108 1566.7 636.934 1544.18 636.901 L 1417.02 636.803 L 1029.75 636.697 L 642.539 636.795 C 570.072 636.887 495.414 637.906 423.133 636.771 C 406.823 625.246 414.239 615.2 428.305 605.767 C 449.399 591.621 470.912 578.033 491.902 563.722 L 820.02 340.859 L 952.962 249.939 C 967.732 239.935 1001.43 215.878 1015.18 209.162 z"/>
<path transform="translate(0,0)" fill="rgb(244,200,135)" d="M 1020.24 232.857 C 1022.4 233.625 1042.59 247.23 1045.6 249.229 L 1135.2 309.879 L 1587 614.27 C 1525.72 612.447 1455.98 613.875 1394.25 613.862 L 1026.75 613.846 L 653.147 613.944 L 531.248 613.968 C 509.514 613.969 481.163 613.22 459.791 614.615 C 509.33 578.185 566.624 541.401 617.91 506.501 L 899.251 315.245 C 939.741 288.021 980.07 260.557 1020.24 232.857 z"/>
<path transform="translate(0,0)" fill="rgb(252,239,211)" d="M 1014.62 293.374 C 1015.75 293.291 1016.87 293.22 1018 293.161 C 1049.69 291.422 1074.75 310.463 1100 326.975 L 1150.59 360.067 C 1214.24 401.666 1277.51 443.838 1340.41 486.576 C 1361.89 500.974 1383.47 515.242 1405.13 529.379 C 1417.88 537.771 1429.58 545.06 1442.11 555.058 C 1456.75 566.752 1457.67 587.619 1435.64 589.827 C 1420.71 591.322 1403.37 590.424 1387.88 590.351 L 1307 590.207 L 1032.52 590.067 L 770.171 590.015 L 677.275 590.184 C 658.588 590.217 639.64 590.312 620.968 589.797 C 615.772 589.278 604.09 588.838 599.993 585.778 C 592.043 579.58 591.002 569.023 597.348 561.297 C 603.331 554.013 610.611 547.452 618.306 542.131 C 644.189 524.234 670.923 507.215 697.256 490.035 L 813.946 413.095 L 917.364 344.98 C 944.462 327.075 982.835 296.955 1014.62 293.374 z"/>
<path transform="translate(0,0)" fill="rgb(150,198,200)" d="M 1195.09 734.01 C 1253.39 734.654 1311.7 734.898 1370.01 734.745 L 1369.68 735.981 C 1357.68 782.607 1360.54 824.396 1415.2 837.984 C 1414.44 856.706 1414.99 879.509 1415.02 898.447 L 1414.99 1003 L 1414.81 1393.31 L 1414.91 1396.41 C 1412.85 1398.47 1405.17 1401.39 1402.13 1402.46 C 1380 1410.3 1370.72 1424.22 1363.42 1445.77 C 1360.43 1464.94 1363.8 1482.99 1370.09 1501.04 L 1195.66 1501.1 C 1210.94 1454.48 1204.09 1411.84 1151.16 1397.9 C 1151.81 1370.72 1151.15 1341.93 1151.22 1314.54 C 1151.74 1261.04 1151.86 1207.54 1151.6 1154.04 L 1150.83 836.527 C 1152.39 836.157 1153.93 835.759 1155.47 835.332 C 1172.27 830.711 1186.77 820.547 1195.44 805.205 C 1207.83 783.265 1201.44 756.776 1195.09 734.01 z"/>
<path transform="translate(0,0)" fill="rgb(129,173,175)" d="M 1195.09 734.01 C 1253.39 734.654 1311.7 734.898 1370.01 734.745 L 1369.68 735.981 C 1357.68 782.607 1360.54 824.396 1415.2 837.984 C 1414.44 856.706 1414.99 879.509 1415.02 898.447 L 1414.99 1003 L 1414.81 1393.31 C 1413.22 1382.82 1413.78 1368.98 1413.87 1358.25 L 1414.2 1306.82 L 1413.86 1085.88 C 1413.91 1045.17 1413.61 1004.48 1414.35 963.775 C 1414.61 949.457 1413.94 952.703 1407.31 942.763 C 1400.62 932.746 1395.44 924.643 1385.01 917.404 C 1359.91 898.19 1332.91 895.441 1302.44 895.961 C 1264.94 896.601 1230.42 897.231 1206.25 930.316 C 1184.41 960.23 1187.9 993.144 1187.98 1027.9 L 1188.15 1109.75 L 1187.93 1384.36 C 1235.22 1394.4 1221.99 1423.61 1255.1 1439.62 C 1271.68 1447.64 1320.01 1445.36 1339.01 1445.27 C 1344.38 1445.25 1358.39 1444.62 1363.42 1445.77 C 1360.43 1464.94 1363.8 1482.99 1370.09 1501.04 L 1195.66 1501.1 C 1210.94 1454.48 1204.09 1411.84 1151.16 1397.9 C 1151.81 1370.72 1151.15 1341.93 1151.22 1314.54 C 1151.74 1261.04 1151.86 1207.54 1151.6 1154.04 L 1150.83 836.527 C 1152.39 836.157 1153.93 835.759 1155.47 835.332 C 1172.27 830.711 1186.77 820.547 1195.44 805.205 C 1207.83 783.265 1201.44 756.776 1195.09 734.01 z"/>
<path transform="translate(0,0)" fill="rgb(150,198,200)" d="M 672.127 734.102 C 729.559 735.033 789.104 734.718 846.557 734.818 C 833.552 785.826 836.441 820.002 891.947 838.382 C 891.299 855.222 891.882 874.211 891.97 891.196 C 892.055 917.99 891.976 944.784 891.732 971.578 C 892.761 1073.51 891.304 1176.97 891.628 1279.08 C 891.773 1303.47 891.773 1327.86 891.625 1352.25 C 891.563 1363.97 890.879 1387.07 892.135 1398.04 C 873.773 1402.22 859.586 1410 849.219 1426.28 C 845.462 1432.05 842.62 1438.37 840.794 1445.01 C 836.857 1466.81 840.501 1481.06 846.902 1501.79 C 828.825 1500.6 802.373 1501.25 783.869 1501.25 L 672.541 1501.41 C 682.303 1475.49 686.722 1448.18 669.542 1424.12 C 659.904 1410.52 645.276 1401.28 628.852 1398.43 C 630.77 1286.05 629.426 1169.41 629.154 1056.81 L 628.965 927.197 C 628.997 897.77 629.508 866.102 628.425 836.817 C 679.782 822.919 691.237 780.201 672.127 734.102 z"/>
<path transform="translate(0,0)" fill="rgb(129,173,175)" d="M 672.127 734.102 C 729.559 735.033 789.104 734.718 846.557 734.818 C 833.552 785.826 836.441 820.002 891.947 838.382 C 891.299 855.222 891.882 874.211 891.97 891.196 C 892.055 917.99 891.976 944.784 891.732 971.578 C 890.102 964.751 891.904 955.62 889.934 950.643 C 883.965 947.31 885.131 946.484 881.382 940.983 C 877.13 934.638 872.124 928.831 866.474 923.69 C 835.938 895.677 806.117 895.83 766.606 896.422 C 727.889 897.003 698.824 905.247 678.865 940.996 C 663.685 968.187 666.518 997.543 666.202 1027.59 C 665.929 1058.42 667.348 1089.46 667.038 1120.36 L 666.547 1291.48 C 666.505 1321.86 664.836 1354.85 666.919 1384.72 C 713.296 1393.14 700.396 1435.38 744.724 1442.35 C 776.433 1447.34 809.012 1443.37 840.794 1445.01 C 836.857 1466.81 840.501 1481.06 846.902 1501.79 C 828.825 1500.6 802.373 1501.25 783.869 1501.25 L 672.541 1501.41 C 682.303 1475.49 686.722 1448.18 669.542 1424.12 C 659.904 1410.52 645.276 1401.28 628.852 1398.43 C 630.77 1286.05 629.426 1169.41 629.154 1056.81 L 628.965 927.197 C 628.997 897.77 629.508 866.102 628.425 836.817 C 679.782 822.919 691.237 780.201 672.127 734.102 z"/>
<path transform="translate(0,0)" fill="rgb(150,198,200)" d="M 915.07 838.043 C 969.885 836.685 1025 837.78 1079.84 837.28 C 1095.35 837.138 1111.11 837.046 1126.59 837.957 C 1126.94 876.764 1128.2 924.359 1126.82 962.799 L 1127.82 1222.67 C 1127.7 1280.15 1126.32 1340.45 1127.05 1397.67 C 1056.75 1398.24 986.449 1398.23 916.149 1397.63 L 915.323 1153.76 C 914.639 1144.54 915.18 1127.27 915.207 1117.42 L 915.395 1046.31 L 915.07 838.043 z"/>
<path transform="translate(0,0)" fill="rgb(129,173,175)" d="M 915.07 838.043 C 969.885 836.685 1025 837.78 1079.84 837.28 C 1095.35 837.138 1111.11 837.046 1126.59 837.957 C 1126.94 876.764 1128.2 924.359 1126.82 962.799 C 1125.72 958.55 1126.02 938.595 1126 932.634 L 1125.74 872.945 C 1058.81 873.2 982.546 874.594 915.972 872.684 C 916.097 895.66 917.305 1150.22 915.323 1153.76 C 914.639 1144.54 915.18 1127.27 915.207 1117.42 L 915.395 1046.31 L 915.07 838.043 z"/>
<path transform="translate(0,0)" fill="rgb(217,233,233)" d="M 1072.3 1246.96 C 1108.2 1244.56 1113.45 1326.02 1080.92 1341.61 C 1045.9 1345.67 1047.53 1280.98 1059.08 1261.12 C 1063.74 1253.1 1064.24 1251.78 1072.3 1246.96 z"/>
<path transform="translate(0,0)" fill="rgb(217,233,233)" d="M 1073.73 1133.89 C 1100.31 1135.15 1110.16 1201.54 1079.93 1215.64 C 1045.88 1216.12 1050.91 1149.87 1073.73 1133.89 z"/>
<path transform="translate(0,0)" fill="rgb(150,198,200)" d="M 1439.1 837.938 C 1509.64 837.249 1580.18 837.226 1650.72 837.87 L 1650.2 873.999 L 1650.25 1397.95 C 1582.19 1397.95 1507.17 1399.46 1439.65 1397.19 L 1439.1 881.52 C 1438.76 867.448 1439.09 852.11 1439.1 837.938 z"/>
<path transform="translate(0,0)" fill="rgb(129,173,175)" d="M 1439.1 837.938 C 1509.64 837.249 1580.18 837.226 1650.72 837.87 L 1650.2 873.999 C 1625.93 873.486 1446.59 871.17 1440.54 874.257 C 1439.49 877.629 1439.48 878.143 1439.1 881.52 C 1438.76 867.448 1439.09 852.11 1439.1 837.938 z"/>
<path transform="translate(0,0)" fill="rgb(217,233,233)" d="M 1596.13 1246.89 C 1631.54 1244.89 1636.51 1323.21 1603.95 1342.02 C 1569.86 1342.83 1571.68 1293.21 1577.99 1270.76 C 1581.14 1259.54 1586.13 1252.48 1596.13 1246.89 z"/>
<path transform="translate(0,0)" fill="rgb(217,233,233)" d="M 1596.02 1133.8 C 1617.19 1134.74 1620.04 1158.43 1621.13 1175.37 C 1622.06 1189.78 1618.84 1208.78 1604.02 1215.14 C 1579.45 1215.82 1577.02 1189.28 1578.97 1170.52 C 1580.51 1155.67 1584.03 1143.74 1596.02 1133.8 z"/>
<path transform="translate(0,0)" fill="rgb(150,198,200)" d="M 395.639 837.326 L 528.267 837.165 C 549.823 837.125 584.052 836.134 604.611 837.957 C 604.776 853.497 605.352 871.145 604.872 886.519 C 606.203 938.522 604.876 994.933 604.901 1047.54 L 604.631 1398.11 L 396.075 1397.82 C 397.929 1327.38 396.144 1248.83 395.846 1178 L 395.912 873.232 L 395.639 837.326 z"/>
<path transform="translate(0,0)" fill="rgb(129,173,175)" d="M 395.639 837.326 L 528.267 837.165 C 549.823 837.125 584.052 836.134 604.611 837.957 C 604.776 853.497 605.352 871.145 604.872 886.519 C 604.297 882.679 604.023 877.341 603.694 873.356 C 534.434 872.803 465.172 872.762 395.912 873.232 L 395.639 837.326 z"/>
<path transform="translate(0,0)" fill="rgb(217,233,233)" d="M 552.304 1246.06 C 575.539 1250.19 578.427 1277.18 579.004 1296.72 C 579.534 1314.6 573.914 1335.29 555.512 1342.18 C 517.461 1339.83 521.999 1255.23 552.304 1246.06 z"/>
<path transform="translate(0,0)" fill="rgb(217,233,233)" d="M 551.928 1132.97 C 569.112 1136.1 574.23 1156.2 575.082 1171.25 C 576.178 1190.6 575.048 1207.25 555.387 1215.9 C 521.707 1211.18 529.199 1146.08 551.928 1132.97 z"/>
<path transform="translate(0,0)" fill="rgb(252,239,211)" d="M 350.163 1524.5 L 1272.14 1523.97 L 1563.61 1524.06 L 1661.15 1524.01 C 1747.93 1523.98 1746.56 1514.15 1745.09 1603.51 C 1706.17 1603.85 1667.25 1603.85 1628.34 1603.52 L 1436.26 1603.87 C 1436.53 1587.86 1435.96 1583.03 1422.25 1573.12 C 1363.7 1530.8 1128.2 1528.5 1089.31 1584.95 C 1088.24 1591.33 1088.32 1596.52 1088.23 1602.96 L 296.807 1603.26 C 296.325 1593.22 296.664 1581.92 296.152 1572.11 C 293.7 1525.13 308.814 1524.64 350.163 1524.5 z"/>
<path transform="translate(0,0)" fill="rgb(252,239,211)" d="M 224.205 1675.47 C 224.01 1662.13 221.794 1640.44 231.735 1630.95 C 236.42 1626.47 238.775 1626.64 244.937 1626.44 C 261.58 1625.87 278.442 1626.06 295.1 1626.06 L 383.153 1626.07 L 647.02 1626.11 L 932.79 1626.08 C 980.065 1626.05 1038.12 1624.42 1084.87 1626.34 C 1085.65 1626.37 1086.43 1626.41 1087.21 1626.45 C 1087.51 1642.14 1087.48 1657.84 1087.11 1673.53 C 1020.79 1663.6 916.783 1666.41 855.341 1694.44 C 842.785 1702.77 838.715 1706.53 837.999 1721.82 C 836.511 1721.86 835.022 1721.88 833.533 1721.89 L 452.019 1721.88 L 321.385 1721.94 C 298.553 1721.95 275.771 1722.19 252.944 1721.54 C 221.432 1720.64 223.777 1699.7 224.205 1675.47 z"/>
<path transform="translate(0,0)" fill="rgb(244,200,135)" d="M 224.205 1675.47 C 225.164 1682.27 225.135 1686.98 225.193 1693.84 C 238.105 1692.59 273.172 1693.88 288.295 1693.88 L 426.414 1693.81 L 841.339 1692.87 C 846.821 1692.88 850.129 1692.67 855.341 1694.44 C 842.785 1702.77 838.715 1706.53 837.999 1721.82 C 836.511 1721.86 835.022 1721.88 833.533 1721.89 L 452.019 1721.88 L 321.385 1721.94 C 298.553 1721.95 275.771 1722.19 252.944 1721.54 C 221.432 1720.64 223.777 1699.7 224.205 1675.47 z"/>
<path transform="translate(0,0)" fill="rgb(252,239,211)" d="M 1436.88 1626.82 C 1462.4 1625.52 1492.39 1626.13 1518.16 1626.11 L 1650.29 1626.07 L 1749.05 1626.09 C 1766.04 1626.12 1791.11 1625.56 1807.38 1627.2 C 1821.43 1636.99 1820.52 1646.31 1820.44 1662.34 C 1820.39 1672.15 1820.15 1682.08 1819.97 1691.9 C 1819.33 1707.04 1816.49 1719.84 1798.36 1721.25 C 1783.94 1722.36 1769.21 1721.87 1754.73 1721.88 L 1678.02 1721.93 L 1437.14 1722.06 L 1437.07 1693.08 L 1436.88 1626.82 z"/>
<path transform="translate(0,0)" fill="rgb(244,200,135)" d="M 1437.07 1693.08 C 1438.71 1693.96 1499 1693.72 1507.1 1693.73 L 1737.85 1693.95 C 1761.38 1693.98 1793.6 1694.25 1817.97 1693.35 C 1818.64 1692.87 1819.31 1692.38 1819.97 1691.9 C 1819.33 1707.04 1816.49 1719.84 1798.36 1721.25 C 1783.94 1722.36 1769.21 1721.87 1754.73 1721.88 L 1678.02 1721.93 L 1437.14 1722.06 L 1437.07 1693.08 z"/>
<path transform="translate(0,0)" fill="rgb(252,239,211)" d="M 864.505 1475.84 C 856.269 1413.05 903.703 1420.93 946.544 1420.96 L 1030.9 1421.09 L 1101.81 1421.1 C 1146.61 1420.99 1182.85 1414.82 1177.65 1475 C 1174.94 1486.63 1172.9 1490.97 1167.32 1501.63 C 1136.43 1499.99 1094.5 1501.29 1063.04 1501.36 L 873.154 1501.88 C 868.832 1492.03 866.87 1486.26 864.505 1475.84 z"/>
<path transform="translate(0,0)" fill="rgb(244,200,135)" d="M 864.505 1475.84 C 883.869 1474.4 908.629 1475.05 928.635 1475.05 L 1031.03 1475.01 L 1128.9 1475.08 C 1142.27 1475.07 1165.11 1474.25 1177.65 1475 C 1174.94 1486.63 1172.9 1490.97 1167.32 1501.63 C 1136.43 1499.99 1094.5 1501.29 1063.04 1501.36 L 873.154 1501.88 C 868.832 1492.03 866.87 1486.26 864.505 1475.84 z"/>
<path transform="translate(0,0)" fill="rgb(252,239,211)" d="M 870.953 734.158 C 894.698 735.041 919.22 735.076 942.998 734.847 C 1018.43 734.123 1094.38 736.202 1169.77 734.725 C 1173.71 746.42 1175.7 753.011 1177.21 765.214 C 1181.09 821.191 1142.09 814.607 1101.31 814.703 L 1032.44 814.811 L 947.663 814.914 C 905.088 814.953 859.638 824.482 864.463 763.831 C 866.195 752.781 868.179 744.934 870.953 734.158 z"/>
<path transform="translate(0,0)" fill="rgb(244,200,135)" d="M 870.953 734.158 C 894.698 735.041 919.22 735.076 942.998 734.847 C 1018.43 734.123 1094.38 736.202 1169.77 734.725 C 1173.71 746.42 1175.7 753.011 1177.21 765.214 C 1115.49 764.361 1053.76 763.984 992.028 764.083 C 950.326 764.028 905.84 764.887 864.463 763.831 C 866.195 752.781 868.179 744.934 870.953 734.158 z"/>
<path transform="translate(0,0)" fill="rgb(252,239,211)" d="M 1394.65 734.167 C 1493.15 734.975 1591.65 735.282 1690.15 735.087 C 1693.6 745.504 1695.63 753.185 1697.18 764.147 C 1697.33 767.795 1697.42 771.446 1697.46 775.097 C 1697.53 794.953 1685.9 812.003 1665.62 813.768 C 1639.89 816.008 1612.75 814.796 1586.85 814.779 L 1434.44 814.904 C 1398.38 814.717 1385.86 800.056 1387.7 763.952 C 1389.32 753.873 1391.64 743.92 1394.65 734.167 z"/>
<path transform="translate(0,0)" fill="rgb(244,200,135)" d="M 1394.65 734.167 C 1493.15 734.975 1591.65 735.282 1690.15 735.087 C 1693.6 745.504 1695.63 753.185 1697.18 764.147 C 1691.38 765.211 1672.84 764.707 1666.42 764.641 L 1607.61 764.102 L 1387.7 763.952 C 1389.32 753.873 1391.64 743.92 1394.65 734.167 z"/>
<path transform="translate(0,0)" fill="rgb(252,239,211)" d="M 1387.41 1475.73 C 1385.51 1457.58 1387.69 1435.79 1404.45 1426.12 C 1417.59 1418.52 1454.91 1420.96 1470.14 1420.97 L 1554.84 1421.03 L 1619.54 1420.96 C 1634.13 1420.95 1666.84 1418.95 1679.41 1426.79 C 1694.9 1436.44 1697.36 1458.26 1694.3 1475.75 C 1691.84 1487.04 1689.86 1491.33 1684.85 1501.72 C 1665.96 1500.55 1636.9 1501.53 1616.98 1501.55 L 1474.88 1501.53 C 1449.83 1501.53 1420.41 1502.44 1395.91 1501.1 C 1391.69 1491.7 1390.02 1485.67 1387.41 1475.73 z"/>
<path transform="translate(0,0)" fill="rgb(244,200,135)" d="M 1387.41 1475.73 C 1411.84 1474.28 1438.97 1474.95 1463.65 1474.98 L 1579.95 1475.03 L 1650.11 1475.07 C 1662.96 1475.01 1682.22 1474.27 1694.3 1475.75 C 1691.84 1487.04 1689.86 1491.33 1684.85 1501.72 C 1665.96 1500.55 1636.9 1501.53 1616.98 1501.55 L 1474.88 1501.53 C 1449.83 1501.53 1420.41 1502.44 1395.91 1501.1 C 1391.69 1491.7 1390.02 1485.67 1387.41 1475.73 z"/>
<path transform="translate(0,0)" fill="rgb(252,239,211)" d="M 354.636 734.402 L 647.507 734.367 C 651.681 746.133 654.196 753.082 655.877 765.32 C 656.71 797.972 646.15 814.263 611.631 814.455 C 564.491 814.716 517.324 814.673 470.181 814.77 L 416.653 814.858 C 374.595 814.906 347.386 818.484 347.978 765.148 C 349.054 753.999 351.603 745.193 354.636 734.402 z"/>
<path transform="translate(0,0)" fill="rgb(244,200,135)" d="M 354.636 734.402 L 647.507 734.367 C 651.681 746.133 654.196 753.082 655.877 765.32 C 648.362 762.71 370.012 763.374 347.978 765.148 C 349.054 753.999 351.603 745.193 354.636 734.402 z"/>
<path transform="translate(0,0)" fill="rgb(252,239,211)" d="M 351.391 1475.09 C 344.934 1414.14 382.993 1420.88 427.125 1420.94 L 505.424 1421.09 L 577.62 1421.18 C 593.71 1421.19 608.562 1421.12 624.625 1422.34 C 648.721 1424.17 662.412 1453.24 656.039 1474.58 C 653.604 1485.57 651.09 1491.53 646.598 1501.86 C 552.59 1500.54 455.254 1501.57 361.025 1501.83 C 355.399 1491.78 353.609 1486.28 351.391 1475.09 z"/>
<path transform="translate(0,0)" fill="rgb(244,200,135)" d="M 351.391 1475.09 C 377.784 1474.09 404.539 1475.42 430.873 1475.01 C 505.384 1473.82 581.751 1476.38 656.039 1474.58 C 653.604 1485.57 651.09 1491.53 646.598 1501.86 C 552.59 1500.54 455.254 1501.57 361.025 1501.83 C 355.399 1491.78 353.609 1486.28 351.391 1475.09 z"/>
<path transform="translate(0,0)" fill="rgb(244,200,135)" d="M 1112.2 1590.79 C 1153.48 1559.83 1289.53 1559.75 1340.21 1568.58 C 1357.72 1571.63 1400.25 1578.6 1411.82 1591.45 C 1412.72 1595.51 1412 1595.53 1408.02 1597.55 C 1407.27 1597.91 1406.51 1598.26 1405.76 1598.61 C 1344.84 1626.55 1188.19 1626.44 1124.63 1600.85 C 1120.76 1599.3 1112.83 1596.42 1111.05 1592.52 L 1112.2 1590.79 z"/>
<path transform="translate(0,0)" fill="rgb(252,239,211)" d="M 1112.2 1590.79 C 1153.48 1559.83 1289.53 1559.75 1340.21 1568.58 C 1357.72 1571.63 1400.25 1578.6 1411.82 1591.45 C 1412.72 1595.51 1412 1595.53 1408.02 1597.55 C 1327.09 1561.46 1207.17 1571.41 1123.17 1591.84 C 1119.37 1592.77 1115.68 1592.55 1112.2 1590.79 z"/>
<path transform="translate(0,0)" fill="rgb(244,200,135)" d="M 863.34 1721.27 L 861.233 1718.35 C 861.905 1715.63 862.543 1715.02 864.904 1713.51 C 914.351 1681.88 1065.46 1686.12 1121.84 1700.66 C 1133.28 1703.61 1151.16 1707.95 1159.82 1716.48 C 1161.02 1721.12 1158.88 1721.79 1155.28 1724.62 C 1093.18 1751.07 922.667 1753.85 863.34 1721.27 z"/>
<path transform="translate(0,0)" fill="rgb(252,239,211)" d="M 863.34 1721.27 L 861.233 1718.35 C 861.905 1715.63 862.543 1715.02 864.904 1713.51 C 914.351 1681.88 1065.46 1686.12 1121.84 1700.66 C 1133.28 1703.61 1151.16 1707.95 1159.82 1716.48 C 1161.02 1721.12 1158.88 1721.79 1155.28 1724.62 C 1151.67 1722.2 1148.01 1719.64 1144.17 1717.61 C 1100.49 1694.54 966.66 1698.63 915.517 1707.16 C 897.44 1710.18 880.746 1715.84 863.34 1721.27 z"/>
<path transform="translate(0,0)" fill="rgb(244,200,135)" d="M 855.106 1837.25 C 861.718 1839.71 868.347 1842.12 874.993 1844.48 C 941.618 1867.75 1100.02 1867.69 1163.32 1837.06 C 1162.81 1848.53 1163.97 1859.77 1162.99 1871.55 C 1146.93 1881.49 1108.74 1888.48 1088.93 1890.67 C 1017.4 1898.62 923.389 1900.93 855.872 1872.74 C 854.941 1862.93 855.158 1847.48 855.106 1837.25 z"/>
<path transform="translate(0,0)" fill="rgb(244,200,135)" d="M 1108.73 1617.04 C 1174.05 1649.08 1351.82 1649.46 1416.09 1617.32 C 1415.9 1627.03 1416.45 1642.05 1415.29 1651.23 C 1347.24 1683.45 1176.47 1685.97 1108.66 1651 C 1107.85 1641.4 1109.08 1627.73 1108.73 1617.04 z"/>
<path transform="translate(0,0)" fill="rgb(244,200,135)" d="M 857.255 1741.47 C 860.259 1742.96 863.306 1744.36 866.394 1745.67 C 936.846 1775.7 1091.19 1772.5 1163.27 1743.34 C 1163.12 1750.46 1164.23 1772.02 1162.5 1777.24 C 1159.5 1778.76 1156.43 1780.14 1153.31 1781.38 C 1080.11 1810.21 929.616 1807.58 857.092 1775.74 C 856.777 1764.56 857.118 1752.7 857.255 1741.47 z"/>
<path transform="translate(0,0)" fill="rgb(244,200,135)" d="M 1415.54 1818.23 L 1416.21 1818.24 C 1417.59 1820.82 1417.15 1847.97 1417.18 1852.95 C 1355.81 1877.93 1252.16 1880.9 1187.05 1870.61 L 1186.15 1870.54 C 1183.75 1867.2 1184.74 1842.49 1184.78 1836.72 C 1203 1837.46 1222.63 1840.23 1240.94 1840.82 C 1295.97 1842.61 1364.99 1840.86 1415.54 1818.23 z"/>
<path transform="translate(0,0)" fill="rgb(244,200,135)" d="M 1415.07 1718.04 C 1415.68 1718.16 1416.14 1718.66 1416.66 1719.01 C 1417.46 1727.81 1416.96 1741.33 1416.89 1750.5 C 1358.64 1777.72 1248.78 1780.88 1186.26 1770.47 L 1184.59 1770.19 C 1181.76 1766.35 1182.87 1743.78 1182.92 1737.55 C 1197.91 1738.34 1214.7 1741.05 1229.6 1741.45 C 1284.55 1742.96 1364.75 1741.93 1415.07 1718.04 z"/>
<path transform="translate(0,0)" fill="rgb(244,200,135)" d="M 1165.76 1689.42 C 1186.32 1692.76 1209.13 1695.55 1229.87 1696.79 C 1275.62 1699.53 1377.65 1695.6 1416.14 1672.73 L 1416.04 1695.26 C 1352.93 1725.06 1251.88 1724.05 1183.29 1716.94 C 1179.3 1705.47 1173.62 1699.74 1162.52 1694.54 L 1165.76 1689.42 z"/>
<path transform="translate(0,0)" fill="rgb(244,200,135)" d="M 1415.41 1773.07 L 1416.62 1773.99 C 1417.26 1779.74 1416.86 1787.27 1416.73 1793.23 C 1415.41 1794.34 1414.04 1795.38 1412.62 1796.36 C 1372.84 1823.74 1233.62 1823.82 1185.32 1815.42 C 1182.38 1812.22 1183.79 1796.92 1183.94 1791.45 C 1248.94 1799.71 1355.43 1800.66 1415.41 1773.07 z"/>
<path transform="translate(0,0)" fill="rgb(244,200,135)" d="M 855.329 1797.41 C 857.492 1798.34 859.67 1799.25 861.862 1800.12 C 937.143 1829.92 1089.68 1830.55 1163.67 1798.51 C 1163.19 1804.64 1163.49 1808.34 1162.33 1814.75 C 1101.38 1847.66 914.824 1848.95 855.569 1813.25 C 855.775 1808 855.499 1802.67 855.329 1797.41 z"/>
<path transform="translate(0,0)" fill="rgb(187,149,91)" d="M 1137.42 1684.05 C 1146.84 1685.58 1156.58 1686.94 1165.76 1689.42 L 1162.52 1694.54 C 1155.09 1690.9 1145.24 1687.21 1137.42 1684.05 z"/>
<path transform="translate(0,0)" fill="rgb(187,149,91)" d="M 1108.08 1672.91 C 1113.86 1672.74 1121.89 1677.33 1126.32 1680.9 C 1118.79 1681.38 1110.27 1681.09 1108.08 1672.91 z"/>
<path transform="translate(0,0)" fill="rgb(3,1,3)" fill-opacity="0.0117647" d="M 787.621 208.888 C 785.834 207.748 783.911 207.27 781.863 206.56 C 787.144 202.911 786.827 199.732 792.462 198.868 L 793.18 200.006 C 790.864 202.426 789.53 203.926 787.467 206.561 L 788.132 208.54 L 787.621 208.888 z"/>
</svg>