<svg version="1.1" xmlns="http://www.w3.org/2000/svg" viewBox="-7.61 -23.87 2087.31 2085.24" width="256" height="255.75">
<path transform="translate(0,0)" fill="rgb(71,70,72)" d="M 304.378 416.28 C 324.441 395.58 340.594 374.773 362.681 353.004 C 509.723 205.353 702.108 111.387 908.959 86.189 C 1193.01 53.4414 1478.94 148.852 1680.43 353.956 C 1686.7 360.334 1692.89 366.787 1699.16 373.165 C 1722.51 398.334 1740.9 419.552 1762.18 447.013 C 1873.82 598.77 1932.18 743.984 1952.9 931.714 C 1977.65 1175 1906.32 1418.32 1754.15 1609.75 C 1598.32 1804.71 1371.22 1929.54 1123.11 1956.6 C 876.017 1982.93 628.503 1910.86 434.175 1755.99 C 239.901 1600.72 116.264 1373.82 91.113 1126.4 C 69.7001 922.782 113.549 717.631 216.328 540.562 C 241.932 497.321 270.42 459.212 301.84 420.218 C 303.478 418.69 303.278 418.43 304.378 416.28 z"/>
<path transform="translate(0,0)" fill="rgb(233,247,251)" d="M 417.212 1663.77 C 172.323 1433.33 79.8847 1083.63 178.915 762.279 C 277.945 440.927 551.187 203.917 883.309 151.29 C 1215.43 98.6635 1548.56 239.59 1742.08 514.585 C 2002.39 884.468 1940.48 1391.34 1598.81 1687.71 C 1257.14 1984.07 746.601 1973.73 417.212 1663.77 z"/>
<path transform="translate(0,0)" fill="rgb(180,219,227)" d="M 1742.08 514.585 C 2002.39 884.468 1940.48 1391.34 1598.81 1687.71 C 1257.14 1984.07 746.601 1973.73 417.212 1663.77 C 417.934 1663.63 422.547 1662.73 422.663 1662.79 C 432.394 1667.88 444.997 1674.89 454.517 1679.89 C 500.018 1703.26 547.133 1723.35 595.501 1740 C 681.326 1769.27 770.898 1786.11 861.493 1790 C 1091.59 1799.18 1329.09 1723.55 1499.61 1566.24 C 1478.47 1567.74 1464.34 1557.22 1466.78 1534.53 C 1467.58 1526.8 1471.61 1519.77 1477.86 1515.16 C 1484.14 1510.62 1491.97 1508.77 1499.62 1510.03 C 1512.4 1512.15 1520.66 1522.51 1521.35 1535.27 C 1521.61 1540.17 1519.93 1546.62 1518.89 1551.5 C 1572.85 1500.91 1620.54 1444.03 1660.95 1382.07 C 1668.08 1370.93 1674.41 1359.03 1681.11 1347.58 C 1689.03 1334.05 1697.83 1320.41 1705.19 1306.63 C 1781.81 1160.9 1817.88 997.272 1809.63 832.84 C 1807.28 791.735 1802.39 750.814 1794.99 710.313 C 1787.42 667.619 1776.97 625.486 1763.71 584.203 C 1759.18 570.308 1740.87 527.334 1742.08 514.585 z"/>
<path transform="translate(0,0)" fill="rgb(233,247,251)" d="M 1142.56 1766.96 C 1152.44 1764.29 1162.62 1770.1 1165.34 1779.97 C 1168.06 1789.83 1162.31 1800.04 1152.46 1802.82 C 1144.93 1804.94 1136.88 1802.13 1132.31 1795.79 C 1128.74 1790.83 1127.83 1784.44 1129.88 1778.68 C 1131.92 1772.93 1136.66 1768.55 1142.56 1766.96 z"/>
<path transform="translate(0,0)" fill="rgb(233,247,251)" d="M 1613.42 1483.96 C 1621.15 1482.8 1628.41 1488.01 1629.77 1495.71 C 1631.13 1503.41 1626.11 1510.79 1618.45 1512.35 C 1613.31 1513.4 1608.01 1511.57 1604.61 1507.59 C 1601.2 1503.61 1600.23 1498.09 1602.06 1493.18 C 1603.89 1488.27 1608.24 1484.74 1613.42 1483.96 z"/>
<path transform="translate(0,0)" fill="rgb(254,255,254)" d="M 1477.98 1659.56 C 1481.75 1658.37 1485.87 1659.35 1488.7 1662.1 C 1491.53 1664.86 1492.62 1668.94 1491.54 1672.74 C 1490.46 1676.54 1487.37 1679.44 1483.51 1680.29 C 1477.9 1681.52 1472.32 1678.12 1470.84 1672.57 C 1469.36 1667.02 1472.51 1661.29 1477.98 1659.56 z"/>
<path transform="translate(0,0)" fill="rgb(254,255,254)" d="M 608.96 372.405 C 638.158 372.842 661.858 388.379 661.507 419.569 C 660.945 469.438 616.936 526.212 583.587 561.068 C 543.561 602.904 484.869 660.76 424.434 662.227 C 411.83 661.898 397.732 658.402 388.518 649.883 C 342.064 606.931 403.076 521.353 433.323 488.103 C 474.031 443.356 547.847 376.541 608.96 372.405 z"/>
<path transform="translate(0,0)" fill="rgb(254,255,254)" d="M 329.658 698.1 C 353.001 695.217 374.23 711.883 376.972 735.243 C 379.714 758.602 362.92 779.731 339.544 782.331 C 316.367 784.909 295.458 768.289 292.74 745.129 C 290.022 721.968 306.514 700.959 329.658 698.1 z"/>
<path transform="translate(0,0)" fill="rgb(180,219,227)" d="M 976.357 470.602 C 984.086 469.352 991.889 472.372 996.763 478.5 C 1001.64 484.628 1002.82 492.909 999.866 500.159 C 996.908 507.409 990.267 512.498 982.498 513.468 C 970.781 514.931 960.052 506.739 958.378 495.05 C 956.703 483.362 964.701 472.487 976.357 470.602 z"/>
<path transform="translate(0,0)" fill="rgb(180,219,227)" d="M 459.789 1402.31 C 471.511 1399.81 483.029 1407.32 485.472 1419.06 C 487.916 1430.79 480.352 1442.27 468.608 1444.66 C 456.94 1447.04 445.549 1439.53 443.122 1427.88 C 440.695 1416.22 448.145 1404.79 459.789 1402.31 z"/>
<path transform="translate(0,0)" fill="rgb(180,219,227)" d="M 1321.7 1435.56 C 1332.95 1431.9 1345.05 1437.98 1348.82 1449.19 C 1352.6 1460.4 1346.64 1472.56 1335.47 1476.45 C 1330.96 1478.01 1326.06 1478.04 1321.53 1476.53 C 1312.71 1473.57 1306.77 1465.29 1306.81 1455.99 C 1306.85 1446.68 1312.85 1438.45 1321.7 1435.56 z"/>
<path transform="translate(0,0)" fill="rgb(180,219,227)" d="M 1355.9 1115.9 C 1366.68 1113.09 1377.82 1118.96 1381.59 1129.44 C 1383.66 1135.19 1383.19 1141.55 1380.3 1146.92 C 1377.4 1152.3 1372.36 1156.2 1366.42 1157.64 C 1354.94 1160.43 1343.36 1153.44 1340.47 1141.99 C 1337.59 1130.53 1344.47 1118.89 1355.9 1115.9 z"/>
<path transform="translate(0,0)" fill="rgb(180,219,227)" d="M 1381.95 859.826 C 1393.29 856.422 1405.25 862.833 1408.7 874.164 C 1412.15 885.495 1405.78 897.48 1394.46 900.969 C 1383.08 904.476 1371.02 898.069 1367.56 886.678 C 1364.09 875.286 1370.55 863.248 1381.95 859.826 z"/>
<path transform="translate(0,0)" fill="rgb(180,219,227)" d="M 1588.35 816.721 C 1596.03 813.781 1604.65 817.548 1607.71 825.182 C 1610.77 832.816 1607.15 841.495 1599.56 844.679 C 1594.55 846.784 1588.79 846.022 1584.49 842.685 C 1580.2 839.349 1578.03 833.955 1578.83 828.575 C 1579.63 823.195 1583.27 818.664 1588.35 816.721 z"/>
<path transform="translate(0,0)" fill="rgb(180,219,227)" d="M 742.085 1714.61 C 748.415 1712.57 755.225 1715.9 757.497 1722.16 C 759.769 1728.41 756.689 1735.34 750.526 1737.84 C 746.331 1739.54 741.542 1738.81 738.041 1735.95 C 734.539 1733.08 732.884 1728.52 733.727 1724.08 C 734.57 1719.63 737.776 1716 742.085 1714.61 z"/>
<path transform="translate(0,0)" fill="rgb(180,219,227)" d="M 1320.63 286.609 C 1324.98 285.146 1329.79 286.253 1333.06 289.473 C 1336.33 292.693 1337.52 297.48 1336.13 301.856 C 1334.74 306.232 1331.01 309.456 1326.48 310.196 C 1320.21 311.22 1314.21 307.262 1312.68 301.099 C 1311.15 294.935 1314.61 288.632 1320.63 286.609 z"/>
<path transform="translate(0,0)" fill="rgb(180,219,227)" d="M 1125.88 1622.64 C 1130.02 1621.38 1134.51 1622.45 1137.64 1625.45 C 1140.76 1628.44 1142.02 1632.88 1140.94 1637.07 C 1139.86 1641.26 1136.6 1644.54 1132.42 1645.64 C 1126.12 1647.3 1119.65 1643.61 1117.86 1637.35 C 1116.08 1631.08 1119.65 1624.54 1125.88 1622.64 z"/>
<path transform="translate(0,0)" fill="rgb(180,219,227)" d="M 809.115 810.67 C 815.115 808.081 822.078 810.852 824.658 816.856 C 827.238 822.861 824.456 829.819 818.447 832.389 C 812.452 834.953 805.513 832.179 802.939 826.188 C 800.365 820.198 803.129 813.254 809.115 810.67 z"/>
<path transform="translate(0,0)" fill="rgb(180,219,227)" d="M 1474.68 584.97 C 1480.92 584.033 1486.75 588.275 1487.78 594.497 C 1488.82 600.719 1484.67 606.619 1478.46 607.747 C 1474.36 608.493 1470.18 606.971 1467.51 603.765 C 1464.85 600.56 1464.12 596.168 1465.61 592.274 C 1467.09 588.38 1470.56 585.589 1474.68 584.97 z"/>
<path transform="translate(0,0)" fill="rgb(180,219,227)" d="M 1597.49 1230.44 C 1601.47 1229.32 1605.74 1230.43 1608.67 1233.34 C 1611.6 1236.24 1612.74 1240.5 1611.65 1244.49 C 1610.57 1248.47 1607.42 1251.56 1603.42 1252.58 C 1597.34 1254.12 1591.16 1250.49 1589.54 1244.43 C 1587.91 1238.38 1591.46 1232.14 1597.49 1230.44 z"/>
<path transform="translate(0,0)" fill="rgb(180,219,227)" d="M 901.245 244.965 C 907.343 243.385 913.567 247.049 915.146 253.148 C 916.724 259.246 913.059 265.47 906.96 267.047 C 900.863 268.624 894.642 264.96 893.064 258.863 C 891.486 252.766 895.148 246.544 901.245 244.965 z"/>
<path transform="translate(0,0)" fill="rgb(180,219,227)" d="M 714.323 1282.89 C 720.122 1280.63 726.654 1283.51 728.901 1289.32 C 731.149 1295.12 728.258 1301.64 722.449 1303.88 C 716.658 1306.11 710.157 1303.23 707.916 1297.44 C 705.676 1291.66 708.542 1285.15 714.323 1282.89 z"/>
<path transform="translate(0,0)" fill="rgb(180,219,227)" d="M 238.795 953.557 C 243.932 952.128 249.29 954.965 250.994 960.018 C 252.698 965.07 250.153 970.573 245.2 972.547 C 241.749 973.921 237.822 973.278 234.991 970.874 C 232.159 968.47 230.888 964.699 231.685 961.071 C 232.481 957.444 235.217 954.553 238.795 953.557 z"/>
<path transform="translate(0,0)" fill="rgb(180,219,227)" d="M 376.326 1161.71 C 381.446 1160 386.999 1162.69 388.826 1167.77 C 390.654 1172.85 388.086 1178.46 383.046 1180.4 C 379.686 1181.69 375.89 1181.06 373.125 1178.76 C 370.36 1176.45 369.058 1172.83 369.722 1169.3 C 370.386 1165.76 372.913 1162.86 376.326 1161.71 z"/>
<path transform="translate(0,0)" fill="rgb(153,154,156)" fill-opacity="0.0117647" d="M 1699.16 373.165 C 1703.66 374.253 1722.53 385.141 1720.66 385.645 C 1727.01 383.936 1727.44 385.914 1730.75 392.113 L 1732.36 392.988 L 1734.71 392.236 C 1740.76 398.686 1735.89 417.495 1750.37 413.397 C 1753.26 414.353 1754.88 415.348 1755.64 418.607 C 1753.03 419.615 1754.08 419.316 1751.02 419.036 C 1751.71 421.075 1751.19 420.126 1752.61 421.86 C 1751.03 426.062 1750.77 424.963 1751.45 428.815 C 1759.93 435.466 1767.34 425.332 1774.17 440.681 L 1773.78 441.949 C 1771.13 441.809 1771.32 441.547 1768.89 442.474 L 1765.62 440.413 C 1762.83 441.9 1762.68 443.908 1762.18 447.013 C 1740.9 419.552 1722.51 398.334 1699.16 373.165 z"/>
<path transform="translate(0,0)" fill="rgb(3,0,3)" fill-opacity="0.0156863" d="M 301.84 420.218 C 299.678 419.313 299.235 419.53 296.972 420.057 L 295.844 419.146 L 296.315 417.844 L 296.727 417.748 L 295.473 415.506 C 307.367 410.748 302.267 402.81 310.356 398.283 L 311.173 399.633 L 312.732 398.103 L 314.169 398.205 L 314.368 399.623 C 309.546 403.383 303.563 409.738 304.378 416.28 C 303.278 418.43 303.478 418.69 301.84 420.218 z"/>
<path transform="translate(0,0)" fill="rgb(3,0,3)" fill-opacity="0.133333" d="M 607.635 167.989 L 609.259 168.053 L 609.697 169.161 C 605.648 172.942 586.854 181.86 580.483 185.043 L 579.849 185.023 L 579.397 184.201 C 585.086 179.574 599.738 173.864 607.635 167.989 z"/>
<path transform="translate(0,0)" fill="rgb(112,115,113)" fill-opacity="0.0117647" d="M 1807.85 1542.56 L 1808.98 1543.6 C 1808.99 1550.39 1811.52 1547.24 1808.54 1554.07 C 1807.84 1554.45 1808.31 1554.31 1807.06 1554 C 1803.19 1547.71 1804.08 1548.31 1807.85 1542.56 z"/>
<path transform="translate(0,0)" fill="rgb(3,0,3)" fill-opacity="0.164706" d="M 564.091 191.383 L 566.01 192.601 C 564.516 195.203 555.735 199.463 552.507 201.281 L 551.213 200.824 C 552.352 198.76 561.174 193.455 564.091 191.383 z"/>
<path transform="translate(0,0)" fill="rgb(3,0,3)" fill-opacity="0.0117647" d="M 629.348 1883.99 L 630.485 1883.4 C 634.205 1884.46 636.804 1884.83 639.781 1887.28 L 639.498 1888.77 C 637.42 1888.88 630.707 1885.73 629.348 1883.99 z"/>
<path transform="translate(0,0)" fill="rgb(3,0,3)" fill-opacity="0.0196078" d="M 1331.35 126.349 C 1336.93 127.061 1342.38 127.351 1345.87 131.674 C 1338.82 130.598 1337.54 129.619 1331.35 126.349 z"/>
<path transform="translate(0,0)" fill="rgb(3,0,3)" fill-opacity="0.0117647" d="M 1474.8 1849.95 L 1475.18 1852.5 C 1472.96 1854.39 1471.58 1854.57 1468.81 1855.41 L 1467.7 1854.51 C 1469.39 1852.13 1471.9 1851.42 1474.8 1849.95 z"/>
</svg>