<svg height="256" width="250.38" version="1.1" xmlns="http://www.w3.org/2000/svg" viewBox="31.39 7.85 1984.27 2028.76">
<path transform="translate(0,0)" fill="rgb(61,59,62)" d="M 313.229 85.4051 C 313.949 85.2652 314.781 85.0848 315.488 85.0592 C 338.678 84.2189 362.661 84.6149 385.842 84.6591 L 526.606 84.822 L 996.275 84.7535 L 1501.39 84.6631 L 1652.43 84.6925 C 1679.57 84.6972 1715.72 82.9908 1742.05 86.5915 C 1842.66 100.352 1930.36 187.792 1938.42 289.969 C 1940.52 316.52 1939.32 348.052 1939.37 375.067 L 1939.42 538.168 L 1938.78 1056.15 L 1939.09 1533.5 L 1939.15 1676.77 C 1939.16 1703.55 1940.12 1737.31 1937.21 1763.47 C 1932.78 1803.13 1912.7 1846.72 1887.08 1877.3 C 1848.01 1924.43 1791.83 1954.11 1730.88 1959.82 C 1627.69 1961.47 1520.6 1960.24 1417.11 1960.4 L 772.051 1960.58 L 466.466 1960.65 L 375.675 1960.65 C 353.951 1960.65 332.408 1961.21 310.497 1958.8 C 208.888 1947.62 121.81 1864.64 109.54 1762.56 C 106.533 1737.54 108.241 1703.17 108.228 1677.3 L 108.216 1524.67 L 108.094 1025.31 L 107.921 518.114 L 107.959 367.788 C 107.971 346.97 107.639 325.973 108.18 305.173 C 111.125 191.952 202.557 98.0266 313.229 85.4051 z"/>
<path transform="translate(0,0)" fill="rgb(254,241,213)" d="M 202.699 1835.52 C 182.886 1811.03 167.753 1773.08 166.31 1741.67 C 164.723 1707.11 165.278 1670.9 165.223 1636.19 L 165.093 1446.69 L 164.992 875.564 L 165.023 490.681 L 164.959 373.433 C 164.953 350.535 164.086 319.839 166.633 297.677 C 170.742 261.96 185.848 228.401 209.862 201.643 C 274.941 127.739 354.132 140.542 442.501 140.612 L 631.414 140.699 L 1174.27 140.581 L 1543.81 140.591 L 1654.62 140.583 C 1678.07 140.586 1707.01 139.799 1729.77 142.514 C 1764.15 146.799 1796.42 161.451 1822.28 184.522 C 1856.82 214.263 1878.34 256.334 1882.26 301.74 C 1884.34 327.739 1883.11 370.391 1883.12 398.029 L 1883.2 570.328 L 1883.14 1106.8 L 1883.02 1541.23 L 1883.07 1669.95 C 1883.14 1695.85 1884.6 1725.38 1881.75 1750.84 C 1872.82 1830.92 1802.26 1899.03 1721.39 1902.74 C 1688.57 1904.24 1655.54 1903.72 1622.66 1903.74 L 1447.17 1903.7 L 896.365 1903.9 L 511.524 1903.86 L 395.061 1903.99 C 369.237 1904.02 342.602 1904.45 316.928 1902.04 C 278.011 1898.4 223.755 1869.06 202.699 1835.52 z"/>
<path transform="translate(0,0)" fill="rgb(242,205,137)" d="M 1822.28 184.522 C 1856.82 214.263 1878.34 256.334 1882.26 301.74 C 1884.34 327.739 1883.11 370.391 1883.12 398.029 L 1883.2 570.328 L 1883.14 1106.8 L 1883.02 1541.23 L 1883.07 1669.95 C 1883.14 1695.85 1884.6 1725.38 1881.75 1750.84 C 1872.82 1830.92 1802.26 1899.03 1721.39 1902.74 C 1688.57 1904.24 1655.54 1903.72 1622.66 1903.74 L 1447.17 1903.7 L 896.365 1903.9 L 511.524 1903.86 L 395.061 1903.99 C 369.237 1904.02 342.602 1904.45 316.928 1902.04 C 278.011 1898.4 223.755 1869.06 202.699 1835.52 L 203.529 1833.22 C 205.834 1831.43 207.386 1830.89 210.432 1831.65 C 275.773 1847.95 337.202 1846.29 404.319 1846.04 L 600.316 1844.16 L 1121.61 1841.61 L 1475.78 1840.13 L 1571.02 1840.02 C 1596.37 1840.05 1620.07 1840.6 1645.25 1837.7 C 1731.21 1827.79 1804.11 1759.71 1818.58 1674.11 C 1826.32 1628.33 1824.19 1579.68 1824.42 1532.92 L 1825.03 1316.31 L 1825.86 460.717 C 1826.39 396.154 1826.39 331.587 1825.83 267.024 C 1825.41 243.712 1820.81 206.93 1822.18 185.928 L 1822.28 184.522 z"/>
<g transform="matrix(0.99660,0,0,0.99660,-2.999,-23.311)">
<path transform="translate(0,0)" fill="rgb(61,59,62)" d="M 1558.74 407.36 C 1589.41 406.035 1622.27 427.623 1629.51 458.401 C 1633.15 473.888 1634.08 492.993 1635.62 509.002 L 1644.29 599.557 L 1656.12 717.351 C 1658.12 737.883 1660.97 760.003 1660.93 780.536 C 1660.88 804.506 1639.05 827.466 1616.34 832.372 C 1607.99 834.226 1599.32 833.962 1591.1 831.604 C 1577.66 827.811 1519.06 793.313 1504.98 784.406 C 1498.75 796.516 1474.22 831.533 1465.52 844.621 L 1383.38 968.179 L 1257.05 1159.79 C 1238.7 1187.45 1220.36 1215.63 1201.65 1242.92 C 1186.61 1264.55 1166.96 1277.25 1141.03 1281.41 C 1110.06 1286.38 1092.34 1274.16 1066.74 1259.45 L 1002.03 1221.53 L 933.104 1181.69 C 916.518 1172.25 894.8 1160.67 879.835 1149.56 C 866.339 1170.36 840.977 1201.84 825.591 1221.74 L 729.787 1345.23 L 603.118 1509.91 C 587.66 1529.81 572.369 1549.92 556.816 1569.75 C 533.829 1599.05 502.549 1608.55 466.704 1600.48 C 457.889 1597.82 449.708 1594.29 441.995 1589.23 C 423.062 1576.69 409.891 1557.13 405.384 1534.87 C 400.715 1511.2 405.538 1486.34 419.585 1466.87 C 450.343 1424.23 482.129 1381.8 513.748 1339.83 L 658.025 1147.59 C 688.422 1106.76 719.132 1066.17 750.151 1025.82 C 762.801 1009.13 782.118 980.433 795.817 966.718 C 807.298 955.206 822.054 947.52 838.068 944.711 C 870.389 938.904 887.597 950.743 914.395 965.85 L 959.186 990.895 L 1044.67 1038.8 C 1061.56 1048.33 1082.92 1059.69 1098.46 1070.63 C 1103.8 1060.36 1118.16 1038.82 1124.84 1028.01 L 1188.05 926.917 C 1236.91 848.761 1286.34 765.539 1336.89 688.95 C 1310.89 674.814 1280.96 662.137 1256.86 645.747 C 1232.56 630.363 1231.07 584.922 1250.19 565.326 C 1261.65 553.577 1296.07 537.799 1311.35 529.816 L 1398.78 484.039 C 1428 468.48 1457.33 453.139 1486.77 438.018 C 1506.76 427.707 1537.09 409.457 1558.74 407.36 z"/>
<path transform="translate(0,0)" fill="rgb(145,188,172)" d="M 1558.86 446.1 C 1569.52 445.526 1578.31 448.057 1585.98 456.085 C 1589.44 459.877 1591.66 464.127 1592.23 469.266 C 1598.23 522.904 1602.19 576.998 1607.3 630.706 L 1617.52 736.851 C 1618.65 749.757 1621.5 772.371 1620.94 784.311 C 1618.89 786.63 1613.17 792.245 1610.39 793.353 C 1597.78 798.169 1581.7 785.586 1570.88 779.456 C 1555.66 770.526 1539.59 760.702 1524.53 751.718 C 1518.28 747.991 1498.25 734.674 1492 739.488 C 1486.82 743.474 1476.89 758.509 1472.91 764.387 L 1275.73 1061.24 C 1250.9 1099.52 1225.7 1137.56 1200.15 1175.36 C 1189.6 1191.17 1179.74 1207.07 1168.82 1222.81 C 1157.72 1238.81 1134.96 1248.37 1116.04 1242.11 C 1098.96 1236.45 1080.71 1223.63 1064.87 1214.38 L 934.577 1138.59 C 916.964 1128.36 899.485 1116.86 881.396 1107.75 C 865.407 1099.69 846.722 1132.03 837.93 1143.45 C 821.593 1164.34 805.441 1185.38 789.477 1206.55 L 603.947 1446.15 C 588.018 1466.54 572.343 1487.13 556.928 1507.92 C 532.805 1540.26 514.119 1579.72 466.986 1559.85 C 437.317 1542.64 436.741 1510.03 454.871 1484.04 C 473.209 1457.75 492.004 1432.49 511.251 1406.86 C 544.467 1361.88 577.994 1317.13 611.828 1272.62 L 741.817 1099.76 C 757.561 1078.5 773.482 1057.36 789.579 1036.37 C 808.128 1011.87 827.955 974.335 865.026 983.68 C 879.098 987.227 897.305 1000.52 910.595 1007.76 C 950.653 1029.69 990.496 1052.01 1030.12 1074.72 C 1051.88 1087.2 1074.86 1100.15 1097.01 1111.99 C 1108.94 1118.36 1118.1 1112.66 1124.9 1101.84 C 1141.24 1075.86 1157.36 1049.41 1173.74 1023.3 L 1289.69 837.568 L 1349.39 741.128 C 1359.01 725.649 1376.7 699.65 1383.21 683.848 C 1382.52 666.567 1364.11 660.842 1350.97 653.874 C 1330.75 643.146 1310.17 632.961 1290.19 621.77 C 1281.74 617.039 1271.63 607.754 1276.99 597.176 C 1279.39 592.423 1283.57 589.264 1288.05 586.593 C 1312.15 572.212 1337.39 559.88 1362.3 546.991 L 1461.93 494.738 L 1515.65 466.392 C 1528.66 459.535 1545.03 450.504 1558.86 446.1 z"/>
<path transform="translate(0,0)" fill="rgb(255,255,255)" d="M 1475.5 514.227 C 1502.29 512.734 1517.6 530.115 1499.33 553.903 C 1486.59 570.495 1454.45 588.378 1433.42 590.65 C 1410.2 591.709 1392.65 572.273 1406.93 551.842 C 1419.72 533.532 1453.82 517.925 1475.5 514.227 z"/>
<path transform="translate(0,0)" fill="rgb(255,255,255)" d="M 1367.15 582.072 C 1392.45 579.537 1398.73 604.35 1376.37 617.781 C 1350.2 621.371 1346.43 595.206 1367.15 582.072 z"/>
</g>
<path transform="translate(0,0)" fill="rgb(253,252,244)" d="M 349.309 231.241 C 374.583 228.975 393.042 241.412 397.706 266.734 C 406.253 313.143 384.613 363.759 360.419 402.42 C 345.345 426.508 322.721 450.687 294.161 456.821 C 264.486 461.778 248.657 438.774 243.634 413.017 C 231.441 350.479 283.385 243.297 349.309 231.241 z"/>
<path transform="translate(0,0)" fill="rgb(253,252,244)" d="M 265.493 502.288 C 270.746 502.27 276.122 502.387 280.671 504.972 C 305.135 518.875 300.366 563.658 276.887 576.317 C 272.719 578.564 269.106 579.389 264.641 580.403 C 226.534 585.3 217.815 512.517 265.493 502.288 z"/>
</svg>
