<svg version="1.1" xmlns="http://www.w3.org/2000/svg" viewBox="5.46 195.64 2033.22 1655.68" width="256" height="208.53">
<path transform="translate(0,0)" fill="rgb(71,70,72)" d="M 921.161 467.771 C 920.862 439.481 919.498 390.85 921.798 363.945 C 923.93 337.862 936.359 313.701 956.339 296.8 C 977.636 279.255 1005.06 270.94 1032.51 273.703 C 1059.03 276.384 1083.34 289.686 1099.89 310.58 C 1108.6 321.348 1114.83 333.908 1118.12 347.36 C 1122.85 366.341 1124.25 446.681 1121.91 468.114 C 1136.24 464.88 1169.67 466.738 1185.98 466.803 L 1307.88 466.867 L 1559.34 466.923 L 1636.04 466.929 C 1651 466.928 1668.01 466.211 1682.8 467.671 C 1748.24 474.134 1781.14 548.198 1739.67 601.218 C 1726.12 618.256 1706.38 629.249 1684.76 631.802 C 1681.4 632.191 1679.2 631.814 1675.09 632.339 L 1674.1 633.64 C 1676.12 641.03 1691.24 668.938 1695.33 676.807 C 1708.5 701.839 1721.37 727.024 1733.95 752.357 L 1859.06 999.705 L 1896.53 1072.64 C 1903.73 1086.94 1913.67 1108.49 1921.75 1121.73 C 1927.1 1125.14 1947.39 1123.8 1956.38 1125 L 1957.76 1125.2 C 1959.48 1127.14 1961.71 1130.13 1963.37 1132.22 C 1962.32 1190.01 1928.76 1251 1888.75 1291.56 C 1824.47 1356.71 1737.17 1393.02 1646.19 1395.05 C 1552.17 1397.15 1458.95 1364.38 1391.28 1298.57 C 1354.78 1261.99 1325.62 1216.77 1314.28 1165.86 C 1304.37 1121.4 1311.6 1122.04 1350.94 1123.54 C 1369.45 1085.87 1388.52 1050.33 1407.46 1013.1 L 1491.44 845.994 L 1551.65 727.305 C 1567.11 696.551 1583.89 661.817 1600.57 631.823 C 1568.47 633.005 1530.26 631.889 1497.62 631.832 L 1310.78 631.852 L 1190.32 631.959 C 1174.24 631.971 1140.95 632.796 1125.99 631.11 C 1126.35 702.199 1127.41 773.283 1129.15 844.352 L 1133.87 1213.07 C 1134.62 1275.84 1135.76 1338.6 1137.05 1401.35 C 1137.31 1413.92 1137.96 1427.28 1137.26 1439.74 C 1148.84 1438.19 1173.55 1438.86 1186.12 1439 C 1209.19 1439.24 1232.81 1438.71 1255.77 1439.08 C 1286.63 1439.39 1316.06 1452.12 1337.41 1474.39 C 1369.57 1507.95 1368.8 1547.7 1367.72 1591.03 C 1369.27 1590.85 1370.83 1590.7 1372.39 1590.59 C 1411.94 1588.05 1444.37 1590.67 1475.15 1617.68 C 1483.71 1625.39 1491.15 1634.25 1497.26 1644.02 C 1517.01 1683.31 1510.91 1721.86 1511.44 1765.35 C 1508.78 1769.58 1506.99 1773.57 1501.87 1774.04 C 1480.44 1776.01 1454.76 1775.01 1433.12 1775.07 L 1257.21 1775.09 L 563.442 1775.43 C 556.896 1775.45 541.631 1775.6 536.028 1771.25 C 534.054 1769.72 532.715 1760.8 532.521 1757.9 C 531.726 1745.94 532.384 1733.01 532.07 1721.11 C 531.096 1684.3 533.439 1656.64 558.534 1627.33 C 579.182 1603.21 609.102 1592.29 640.322 1590.6 C 652.475 1589.94 664.493 1590.98 677.115 1590.03 C 675.815 1580.51 675.82 1559.27 676.119 1549.25 C 676.772 1518.84 689.567 1489.94 711.651 1469.01 C 748.354 1434.87 791.155 1438.57 837.248 1438.96 C 860.157 1439.15 883.922 1438.51 906.758 1439.49 C 906.365 1393.88 907.912 1346.38 908.672 1300.62 L 912.173 1064.07 L 916.885 743.427 C 917.604 707.194 916.816 667.029 918.309 631.143 C 800.029 630.709 681.747 630.97 563.469 631.924 C 524.212 631.934 482.616 632.623 443.507 631.632 C 449.764 643.594 455.882 658.308 462.293 670.966 L 525.134 794.196 L 691.992 1123.77 C 703.52 1123.37 714.899 1123.86 726.423 1124.21 C 739.251 1133.58 732.735 1154.47 729.316 1167.82 C 693.671 1307.08 552.877 1393 414.499 1395.26 C 319.603 1396.81 227.132 1363.2 159.252 1295.92 C 114.684 1252.08 81.7326 1193.75 80.7616 1130.39 C 83.0896 1128.4 86.0115 1126.42 88.5395 1124.61 C 100.648 1123.5 108.915 1123.43 120.924 1123.53 C 137.68 1089.1 155.946 1056.41 173.191 1022.31 L 293.163 784.581 L 338.811 694.716 C 349.073 674.729 361.376 652.436 370.208 632.092 C 341.789 629.714 322.886 624.752 304.397 601.328 C 275.473 564.682 279.277 514.214 317.004 485.351 C 343.135 465.359 362.891 467.009 393.982 466.974 L 453.29 466.965 L 643.9 466.962 L 828.685 466.878 L 882.945 466.76 C 894.282 466.735 910.158 466.377 921.161 467.771 z M 420.381 1124.19 C 456.114 1121.97 504.075 1123.17 540.934 1123.18 C 576.203 1123.19 623.68 1121.72 657.947 1123.71 L 659.842 1123.28 C 660.395 1120.09 656.378 1112.85 654.804 1109.73 C 603.362 1007.73 551.53 905.933 500.043 803.947 L 451.092 707.693 C 446.851 699.304 425.501 654.207 420.12 651.513 L 420.517 970.416 L 420.687 1069.21 C 420.694 1086.76 421.214 1106.87 420.381 1124.19 z M 163.012 1123.27 L 312.072 1123.19 C 331.487 1123.21 374.184 1122.11 391.888 1123.97 L 393.373 1122.94 C 394.116 1110.41 393.331 1093.73 393.24 1080.74 L 393.157 1010.29 L 393.246 759.944 L 393.408 692.153 C 393.407 680.481 392.811 664.287 393.917 653.086 L 392.485 651.557 C 387.014 660.109 380.664 673.027 375.813 682.196 C 363.178 706.051 350.898 730.092 338.977 754.312 L 248.632 933.028 L 182.887 1062.06 C 176.197 1075.29 157.639 1110.21 153.473 1122.53 L 153.975 1123.54 C 158.128 1123.94 158.814 1123.82 163.012 1123.27 z M 1649.94 1124.5 C 1665.66 1121.88 1715.09 1123.05 1733.49 1123.18 C 1784.39 1123.53 1836.49 1122.53 1887.25 1123.59 L 1889.71 1123.3 C 1890.54 1119.83 1886.47 1112.63 1884.74 1109.25 C 1867.5 1075.61 1850.48 1041.86 1833.42 1008.13 L 1726.45 797.856 L 1680.32 707.304 C 1676.14 698.959 1654.83 654.196 1649.69 650.528 C 1650.87 690.199 1650.26 732.191 1650.3 772.039 L 1650.54 947.166 L 1650.5 1059.36 C 1650.51 1078.47 1651.22 1106.01 1649.94 1124.5 z M 1384.85 1124.2 C 1398.92 1122.54 1417.65 1123.11 1432.19 1123.12 L 1506.38 1123.19 L 1578.18 1123.12 C 1591.54 1123.12 1610.77 1122.6 1623.54 1124.07 C 1621.92 1092.58 1622.88 1053.85 1622.85 1021.94 L 1622.81 841.313 L 1622.94 716.406 C 1622.97 698.347 1622.04 666.942 1623.61 650.475 L 1622.69 648.867 C 1617.19 656.631 1604.72 682.584 1599.79 692.422 L 1559.8 772.141 L 1424.03 1039.72 C 1418.69 1050.28 1383.11 1118.69 1383.21 1123.42 L 1384.85 1124.2 z"/>
<path transform="translate(0,0)" fill="rgb(247,226,190)" d="M 315.633 567.593 C 314.755 563.348 313.754 559.599 313.286 555.285 C 310.789 532.215 322.788 510.57 343.444 500.258 C 352.559 495.708 363.413 494.628 373.561 494.549 C 437.168 494.055 500.825 494.285 564.432 494.175 L 1017.71 494.315 L 1437.44 494.182 L 1576.95 494.183 C 1598.41 494.197 1678.95 491.361 1695.83 497.884 C 1711.58 503.966 1721.47 516.592 1728.03 531.541 C 1736.61 564.351 1722.66 594.886 1687.34 603.896 C 1676.3 606.713 1651.59 605.615 1639.63 605.568 L 1570.38 605.275 L 1317.8 605.171 L 695.253 605.16 L 478.57 605.093 C 441.992 605.094 405.425 605.58 368.857 605.111 C 343.646 604.788 324.97 590.771 315.633 567.593 z"/>
<path transform="translate(0,0)" fill="rgb(235,190,125)" d="M 1728.03 531.541 C 1736.61 564.351 1722.66 594.886 1687.34 603.896 C 1676.3 606.713 1651.59 605.615 1639.63 605.568 L 1570.38 605.275 L 1317.8 605.171 L 695.253 605.16 L 478.57 605.093 C 441.992 605.094 405.425 605.58 368.857 605.111 C 343.646 604.788 324.97 590.771 315.633 567.593 C 321.007 566.836 336.513 574.706 344.991 576.85 C 353.152 578.86 361.52 579.912 369.924 579.986 L 752.862 579.249 C 778.999 579.225 977.865 581.094 986.682 577.471 C 995.138 588.056 1007.88 594.307 1021.43 594.515 C 1034.97 594.722 1047.9 588.865 1056.68 578.545 C 1061.82 580.596 1131.17 579.392 1141.09 579.418 L 1365.11 579.513 L 1543.95 579.367 C 1578.59 579.399 1613.49 579.859 1647.89 579.068 C 1678.72 578.359 1710.13 569.335 1723.57 538.975 C 1724.94 535.884 1726.02 534.249 1728.03 531.541 z"/>
<path transform="translate(0,0)" fill="rgb(71,70,72)" d="M 986.682 577.471 C 971.748 558.777 973.901 531.698 991.601 515.599 C 1009.3 499.5 1036.46 499.916 1053.66 516.551 C 1070.86 533.185 1072.18 560.317 1056.68 578.545 C 1047.9 588.865 1034.97 594.722 1021.43 594.515 C 1007.88 594.307 995.138 588.056 986.682 577.471 z"/>
<path transform="translate(0,0)" fill="rgb(247,226,190)" d="M 1019.14 531.108 C 1044.87 531.557 1049.77 559.707 1024.75 566.863 C 1001.71 567.395 992.81 542.208 1019.14 531.108 z"/>
<path transform="translate(0,0)" fill="rgb(254,254,254)" d="M 405.534 503.423 C 427.983 502.566 452.371 503.444 475.045 502.97 C 492.37 503.142 508.356 502.214 525.675 503.777 C 538.401 504.926 546.147 515.153 537.211 526.035 C 531.018 533.578 514.235 532.334 504.641 532.434 C 485.848 532.212 384.054 534.656 374.964 529.504 C 371.64 527.648 369.276 524.449 368.48 520.725 C 364.269 501.738 393.885 503.892 405.534 503.423 z"/>
<path transform="translate(0,0)" fill="rgb(254,254,254)" d="M 598.882 504.397 C 644.307 498.265 647.913 529.344 618.249 532.064 C 610.815 532.616 567.677 535.916 578.749 512.523 C 581.321 507.088 592.621 504.981 598.882 504.397 z"/>
<path transform="translate(0,0)" fill="rgb(132,183,172)" d="M 970.11 632.165 C 1012.8 631.834 1055.49 631.803 1098.18 632.071 L 1099 673.605 L 1105.92 1141.27 C 1106.29 1221.91 1107.45 1302.55 1109.41 1383.17 C 1110.69 1397.78 1109.79 1423.37 1109.92 1438.91 L 958.16 1439.02 L 933.846 1439.06 C 933.892 1416.13 932.948 1379.86 934.854 1357.81 C 934.341 1347.81 934.977 1333.08 935.135 1322.76 L 936.284 1257.56 L 938.539 1099.13 L 941.632 893.011 C 942.368 819.536 942.454 742.865 944.933 669.534 L 945.374 632.042 L 970.11 632.165 z"/>
<path transform="translate(0,0)" fill="rgb(179,212,204)" d="M 944.933 669.534 C 951.344 669.2 963.296 666.865 968.484 670.36 C 970.597 671.783 970.196 677.034 970.206 679.524 L 963.362 1138.91 C 961.837 1227.81 962.362 1319.09 958.613 1407.63 C 958.373 1417.9 957.931 1428.8 958.16 1439.02 L 933.846 1439.06 C 933.892 1416.13 932.948 1379.86 934.854 1357.81 C 934.341 1347.81 934.977 1333.08 935.135 1322.76 L 936.284 1257.56 L 938.539 1099.13 L 941.632 893.011 C 942.368 819.536 942.454 742.865 944.933 669.534 z"/>
<path transform="translate(0,0)" fill="rgb(155,184,181)" d="M 934.854 1357.81 C 936.068 1372.63 934.916 1392.45 935.076 1407.79 C 942.035 1407.27 951.644 1407.13 958.613 1407.63 C 958.373 1417.9 957.931 1428.8 958.16 1439.02 L 933.846 1439.06 C 933.892 1416.13 932.948 1379.86 934.854 1357.81 z"/>
<path transform="translate(0,0)" fill="rgb(113,156,148)" d="M 970.11 632.165 C 1012.8 631.834 1055.49 631.803 1098.18 632.071 L 1099 673.605 L 1097.7 671.114 C 1089.58 667.893 987.37 668.942 970.761 668.894 C 970.724 672.379 970.833 676.137 970.206 679.524 C 970.196 677.034 970.597 671.783 968.484 670.36 C 963.296 666.865 951.344 669.2 944.933 669.534 L 945.374 632.042 L 970.11 632.165 z"/>
<path transform="translate(0,0)" fill="rgb(155,184,181)" d="M 945.374 632.042 L 970.11 632.165 C 971.492 636.241 970.845 662.796 970.761 668.894 C 970.724 672.379 970.833 676.137 970.206 679.524 C 970.196 677.034 970.597 671.783 968.484 670.36 C 963.296 666.865 951.344 669.2 944.933 669.534 L 945.374 632.042 z"/>
<path transform="translate(0,0)" fill="rgb(113,156,148)" d="M 1109.41 1383.17 C 1110.69 1397.78 1109.79 1423.37 1109.92 1438.91 L 958.16 1439.02 C 957.931 1428.8 958.373 1417.9 958.613 1407.63 C 964.519 1408.13 974.031 1408.15 980.024 1407.93 C 1012.29 1406.74 1046.28 1412.19 1077.33 1401.77 C 1088.05 1398.17 1100.31 1384.45 1109.41 1383.17 z"/>
<path transform="translate(0,0)" fill="rgb(132,183,172)" d="M 656.242 1617.86 C 706.176 1616.45 762.071 1617.78 812.635 1617.73 L 1140.08 1617.67 L 1322.9 1617.74 C 1339.51 1617.75 1356.21 1617.65 1372.82 1617.65 C 1403.35 1617.65 1428.43 1615.25 1453.84 1635.55 C 1488.96 1662.06 1486.99 1708.41 1484.4 1748.19 C 1457.08 1749.21 1429.41 1748.82 1402.04 1748.84 L 1275.16 1748.9 L 878.152 1748.86 L 680.314 1748.77 L 630.013 1748.95 C 623.939 1748.98 605.637 1749.22 600.249 1748.34 C 586.452 1748.06 572.65 1748.17 558.86 1748.68 C 558.738 1736.74 558.162 1703.55 559.882 1692.52 C 559.678 1658.93 588.33 1628.72 619.593 1620.62 C 632.038 1617.39 643.548 1617.81 656.242 1617.86 z"/>
<path transform="translate(0,0)" fill="rgb(113,156,148)" d="M 1453.84 1635.55 C 1488.96 1662.06 1486.99 1708.41 1484.4 1748.19 C 1457.08 1749.21 1429.41 1748.82 1402.04 1748.84 L 1275.16 1748.9 L 878.152 1748.86 L 680.314 1748.77 L 630.013 1748.95 C 623.939 1748.98 605.637 1749.22 600.249 1748.34 C 601.357 1745.21 600.833 1727.61 600.977 1722.32 L 1121.61 1722.05 L 1254.92 1722.01 C 1288.21 1722.05 1360.39 1725.86 1389.72 1715.95 C 1417.43 1706.59 1438.37 1685.77 1447.97 1658.09 C 1450.22 1651.58 1449.71 1643.03 1452.9 1637.17 C 1453.2 1636.62 1453.53 1636.09 1453.84 1635.55 z"/>
<path transform="translate(0,0)" fill="rgb(179,212,204)" d="M 559.882 1692.52 C 559.678 1658.93 588.33 1628.72 619.593 1620.62 C 632.038 1617.39 643.548 1617.81 656.242 1617.86 L 655.595 1618.45 C 649.289 1624.09 641.601 1629.46 634.823 1634.92 C 610.194 1654.78 598.793 1687.18 601.075 1718.7 L 600.977 1722.32 C 600.833 1727.61 601.357 1745.21 600.249 1748.34 C 586.452 1748.06 572.65 1748.17 558.86 1748.68 C 558.738 1736.74 558.162 1703.55 559.882 1692.52 z"/>
<path transform="translate(0,0)" fill="rgb(155,184,181)" d="M 558.86 1748.68 C 558.738 1736.74 558.162 1703.55 559.882 1692.52 C 560.412 1702.08 559.92 1712.31 559.663 1721.93 C 568.262 1722.06 591.998 1722.84 599.302 1721.53 C 600.616 1719.97 600.493 1720.5 601.075 1718.7 L 600.977 1722.32 C 600.833 1727.61 601.357 1745.21 600.249 1748.34 C 586.452 1748.06 572.65 1748.17 558.86 1748.68 z"/>
<path transform="translate(0,0)" fill="rgb(248,207,121)" d="M 560.234 1150.36 L 705.579 1150.22 C 702.635 1163.24 699.85 1175.81 694.941 1188.3 C 673.766 1242.14 632.978 1287.32 584.522 1318 C 532.412 1350.48 472.45 1368.18 411.054 1369.2 C 404.974 1369.28 382.049 1369.3 377.351 1367.34 C 329.821 1364.06 275.27 1346.71 234.657 1321.36 C 167.948 1279.73 126.656 1228.05 108.184 1150.92 C 125.607 1150.4 143.039 1150.25 160.468 1150.49 C 198.443 1151.09 238.903 1150.32 277.094 1150.34 L 560.234 1150.36 z"/>
<path transform="translate(0,0)" fill="rgb(235,190,125)" d="M 560.234 1150.36 L 705.579 1150.22 C 702.635 1163.24 699.85 1175.81 694.941 1188.3 C 673.766 1242.14 632.978 1287.32 584.522 1318 C 532.412 1350.48 472.45 1368.18 411.054 1369.2 C 404.974 1369.28 382.049 1369.3 377.351 1367.34 L 378.527 1366.67 L 378.049 1365.02 C 373.597 1361.97 365.457 1359.28 360.147 1357.28 C 363.694 1355.38 398.566 1350.65 406.189 1349.13 C 446.643 1341.14 485.241 1325.64 519.985 1303.43 C 573.169 1268.18 610.503 1213.56 624.049 1151.21 C 615.974 1151.26 563.657 1152.16 560.234 1150.36 z"/>
<path transform="translate(0,0)" fill="rgb(247,226,190)" d="M 108.184 1150.92 C 125.607 1150.4 143.039 1150.25 160.468 1150.49 C 160.992 1157.37 166.413 1171.49 169.212 1178.43 C 187.347 1223.3 215.952 1263.18 252.639 1294.74 C 278.42 1316.91 311.459 1339.11 343.002 1350.94 C 348.067 1352.85 354.731 1356.52 360.147 1357.28 C 365.457 1359.28 373.597 1361.97 378.049 1365.02 L 378.527 1366.67 L 377.351 1367.34 C 329.821 1364.06 275.27 1346.71 234.657 1321.36 C 167.948 1279.73 126.656 1228.05 108.184 1150.92 z"/>
<path transform="translate(0,0)" fill="rgb(248,207,121)" d="M 1835.23 1150.37 L 1902.76 1150.18 C 1911.83 1150.18 1926.65 1150.82 1935.09 1150.2 C 1920.25 1222.23 1877.92 1274.95 1817.32 1314.95 C 1768.63 1347.05 1712.27 1365.59 1654.04 1368.67 C 1645.36 1369.19 1625.26 1370.18 1617.22 1368.43 C 1565.34 1365.24 1514.88 1350.21 1469.7 1324.51 C 1419.28 1295.32 1375.76 1250.78 1352.88 1196.76 C 1346.29 1181.2 1342.55 1166.61 1338.19 1150.39 C 1353.39 1150.93 1372.55 1150.26 1388.05 1150.16 L 1835.23 1150.37 z"/>
<path transform="translate(0,0)" fill="rgb(235,190,125)" d="M 1835.23 1150.37 L 1902.76 1150.18 C 1911.83 1150.18 1926.65 1150.82 1935.09 1150.2 C 1920.25 1222.23 1877.92 1274.95 1817.32 1314.95 C 1768.63 1347.05 1712.27 1365.59 1654.04 1368.67 C 1645.36 1369.19 1625.26 1370.18 1617.22 1368.43 C 1618.96 1367.83 1618.35 1368.36 1619.22 1367.05 C 1615.65 1363.82 1599.35 1359.2 1594.19 1357.57 C 1595.85 1356.53 1624.75 1352.09 1628.97 1351.32 C 1664.99 1344.76 1699.56 1332.9 1731.6 1315.01 C 1782.65 1286.6 1822.78 1241.98 1845.63 1188.21 C 1850.87 1175.56 1853.83 1164.28 1857.56 1151.19 C 1853.12 1151.22 1838.19 1151.88 1835.23 1150.37 z"/>
<path transform="translate(0,0)" fill="rgb(247,226,190)" d="M 1338.19 1150.39 C 1353.39 1150.93 1372.55 1150.26 1388.05 1150.16 C 1389.73 1150.79 1391.5 1150.89 1391.94 1152.46 C 1396.62 1169.18 1401.88 1184.91 1409.74 1200.55 C 1444.74 1269.01 1503.33 1322.5 1574.69 1351.13 C 1580.88 1353.57 1587.7 1356.15 1594.19 1357.57 C 1599.35 1359.2 1615.65 1363.82 1619.22 1367.05 C 1618.35 1368.36 1618.96 1367.83 1617.22 1368.43 C 1565.34 1365.24 1514.88 1350.21 1469.7 1324.51 C 1419.28 1295.32 1375.76 1250.78 1352.88 1196.76 C 1346.29 1181.2 1342.55 1166.61 1338.19 1150.39 z"/>
<path transform="translate(0,0)" fill="rgb(132,183,172)" d="M 800.241 1466.07 L 1124.88 1466.18 L 1214.42 1466.05 C 1252.11 1466 1279.1 1461.5 1309.99 1486.79 C 1347.6 1516.07 1339.47 1549.15 1340.62 1590.31 L 893.099 1590.82 L 766.345 1590.88 C 751.53 1590.89 715.937 1591.7 702.903 1590.24 L 702.978 1564.55 L 702.974 1563.65 C 702.921 1535.08 706.582 1512.99 728.062 1491.86 C 749.511 1470.76 771.444 1465.88 800.241 1466.07 z"/>
<path transform="translate(0,0)" fill="rgb(113,156,148)" d="M 1309.99 1486.79 C 1347.6 1516.07 1339.47 1549.15 1340.62 1590.31 L 893.099 1590.82 L 766.345 1590.88 C 751.53 1590.89 715.937 1591.7 702.903 1590.24 L 702.978 1564.55 C 713.376 1565.09 731.658 1565.8 741.816 1565.22 L 742.136 1565.66 C 748.145 1563.93 817.541 1565.01 828.252 1565 L 1084.84 1564.93 L 1164.93 1564.95 C 1216.84 1564.95 1286.85 1571.55 1305.1 1506.45 C 1306.84 1500.22 1307.39 1492.34 1309.99 1486.79 z"/>
<path transform="translate(0,0)" fill="rgb(155,184,181)" d="M 702.978 1564.55 C 713.376 1565.09 731.658 1565.8 741.816 1565.22 L 742.136 1565.66 L 742.154 1589.86 C 731.099 1589.8 713.52 1589.18 702.903 1590.24 L 702.978 1564.55 z"/>
<path transform="translate(0,0)" fill="rgb(179,212,204)" d="M 702.978 1564.55 L 702.974 1563.65 C 702.921 1535.08 706.582 1512.99 728.062 1491.86 C 749.511 1470.76 771.444 1465.88 800.241 1466.07 C 798.454 1470.8 790.174 1473.81 784.753 1478 C 755.781 1500.36 741.732 1529.11 741.816 1565.22 C 731.658 1565.8 713.376 1565.09 702.978 1564.55 z"/>
<path transform="translate(0,0)" fill="rgb(0,0,0)" fill-opacity="0.0117647" d="M 1604.09 1117.43 C 1609.61 1116.25 1616.67 1115.45 1620.4 1120.05 C 1614.76 1118.32 1612.27 1119.09 1606.22 1119.56 L 1604.09 1117.43 z"/>
<path transform="translate(0,0)" fill="rgb(132,183,172)" d="M 1019.29 300.872 C 1041.11 301.294 1057.37 305.601 1073.15 321.808 C 1098.67 348.021 1094.83 375.707 1095.08 409.403 C 1095.24 428.626 1095.56 447.848 1096.03 467.067 L 973.517 466.932 L 947.088 467.146 C 947.65 448.805 947.926 430.457 947.918 412.107 C 947.998 378.593 944.371 350.794 968.275 324.157 C 982.607 308.186 998.24 302.323 1019.29 300.872 z"/>
<path transform="translate(0,0)" fill="rgb(179,212,204)" d="M 947.088 467.146 C 947.65 448.805 947.926 430.457 947.918 412.107 C 947.998 378.593 944.371 350.794 968.275 324.157 C 982.607 308.186 998.24 302.323 1019.29 300.872 C 1011.31 311.418 998.102 317.683 989.839 331.107 C 971.687 360.598 974.928 394.669 973.594 427.837 C 973.231 437.872 972.711 457.787 973.517 466.932 L 947.088 467.146 z"/>
<path transform="translate(0,0)" fill="rgb(88,87,92)" fill-opacity="0.0196078" d="M 1475.15 1617.68 C 1479.3 1618.61 1477.95 1619.16 1480.68 1617.79 C 1478.06 1613.36 1475.05 1612.77 1473.42 1609.02 C 1476.31 1606.85 1474.61 1607.51 1479.03 1607.97 C 1482.49 1610.54 1482.75 1613.98 1483.65 1618.26 C 1490.21 1624.35 1498.75 1625.15 1499.32 1627.54 L 1498.25 1628.34 L 1498.76 1631.55 L 1497.13 1633.19 C 1498.4 1638.97 1501.24 1637.94 1500.04 1641.55 C 1497.58 1642.76 1498.34 1641.81 1497.26 1644.02 C 1491.15 1634.25 1483.71 1625.39 1475.15 1617.68 z"/>
<path transform="translate(0,0)" fill="rgb(71,70,72)" fill-opacity="0.0156863" d="M 1732.99 478.989 C 1736.45 482.912 1742.2 487.266 1744.69 490.9 L 1745.04 490.786 L 1745.99 491.407 L 1742.34 493.197 L 1742.37 495.223 C 1739.93 494.501 1738.81 493.21 1736.98 490.922 C 1732.08 484.765 1732.6 485.685 1732.99 478.989 z"/>
<path transform="translate(0,0)" fill="rgb(0,0,0)" fill-opacity="0.0392157" d="M 1090.12 294.506 C 1096.21 296.043 1099.08 301.606 1103.31 306.497 C 1097.42 303.611 1093.92 299.833 1090.12 294.506 z"/>
</svg>