<svg version="1.1" xmlns="http://www.w3.org/2000/svg" viewBox="20.20 -6.00 2008.01 2066.45" width="248.81" height="256">
<path transform="translate(0,0)" fill="rgb(42,33,42)" d="M 995.077 276.566 L 993.534 276.004 C 967.173 266.174 945.79 247.109 934.456 221.169 C 923.631 196.151 923.443 167.808 933.933 142.649 C 954.283 92.5787 1015.49 70.5307 1063.77 89.8526 C 1114.12 110.002 1136.59 173.93 1115.34 222.62 C 1102.98 250.945 1079.86 266.212 1052.53 277.197 C 1051.93 289.155 1053.12 306.773 1053.53 319.235 C 1054.26 340.452 1054.51 361.682 1054.3 382.91 C 1055.84 420.873 1057.09 476.576 1055.93 514.7 C 1081.65 515.52 1106.27 516.273 1131.91 519.005 C 1323.98 540.168 1504.94 619.736 1650.38 746.973 C 1708.44 797.669 1759.07 855.195 1802.94 918.176 C 1808.74 926.49 1814.87 937.314 1821.31 944.864 C 1899.54 972.949 1909.1 1012.91 1927.18 1088.64 C 1948.92 1179.64 1951.68 1270.34 1948.09 1363.51 C 1946.71 1398.33 1946.07 1442.45 1934.78 1475.88 C 1932.31 1483.22 1920.57 1506.31 1914.82 1510.16 C 1906.9 1523.99 1897.21 1528.21 1889.86 1538.27 C 1875.23 1605.42 1844.11 1680.5 1799.4 1733.72 C 1767.31 1771.91 1721.38 1794.06 1677.27 1816.33 C 1510.27 1898.99 1328.33 1947.16 1142.31 1957.96 C 1104.64 1960.2 1067.62 1960.66 1029.87 1960.52 C 985.059 1960.36 939.806 1960.97 895.04 1957.21 C 720.134 1942.52 544.473 1901.48 386.495 1823.72 C 351.701 1806.59 299.673 1782.74 271.843 1757.85 C 222.625 1712.98 192.334 1647.09 170.72 1585.28 C 158.919 1551.53 168.172 1541.97 139.724 1515.78 C 115.941 1493.89 105.539 1453.42 104.711 1422.52 C 104.26 1405.65 100.474 1385.86 100.651 1368.61 C 96.7363 1268.14 100.766 1169.54 126.416 1071.74 C 137.47 1029.59 138.739 1002.56 174.783 972.615 C 182.544 966.216 191.016 960.733 200.033 956.274 C 204.787 953.939 221.478 947.112 224.021 944.149 C 250.844 912.898 273.326 875.903 300.96 845.301 C 308.531 835.759 316.122 827.619 324.445 818.842 C 476.914 647.292 715.472 533.131 942.986 516.775 C 951.324 516.176 990.398 516.042 993.927 513.016 L 993.646 509.302 C 992.269 494.709 993.195 478.802 993.009 464.044 C 992.22 401.399 993.521 339.131 995.077 276.566 z"/>
<path transform="translate(0,0)" fill="rgb(134,110,79)" d="M 995.077 276.566 L 993.534 276.004 C 967.173 266.174 945.79 247.109 934.456 221.169 C 923.631 196.151 923.443 167.808 933.933 142.649 C 954.283 92.5787 1015.49 70.5307 1063.77 89.8526 C 1114.12 110.002 1136.59 173.93 1115.34 222.62 C 1102.98 250.945 1079.86 266.212 1052.53 277.197 C 1051.93 289.155 1053.12 306.773 1053.53 319.235 C 1054.26 340.452 1054.51 361.682 1054.3 382.91 C 1053.84 388.139 1054.7 387.852 1052.03 391.348 C 1043.83 394.069 1040.56 387.377 1036.75 392.183 C 1035.34 393.957 1034.69 403.988 1034.05 407.174 C 1033.97 443.25 1033.74 478.4 1034.94 514.464 L 1014.27 514.167 C 1014.7 500.163 1014.9 486.154 1014.89 472.143 C 1014 461.457 1014.64 398.237 1012.18 392.87 C 1005.93 390.251 1003.8 388.668 997 387.278 L 996.371 384.69 L 995.885 389.925 L 995.226 390.391 C 995.15 387.613 995.738 387.618 994.501 386.426 L 994.203 461.294 C 994.19 476.71 994.636 494.156 993.646 509.302 C 992.269 494.709 993.195 478.802 993.009 464.044 C 992.22 401.399 993.521 339.131 995.077 276.566 z"/>
<path transform="translate(0,0)" fill="rgb(191,215,215)" d="M 1014.12 281.034 L 1033.28 281.211 C 1032.91 320.258 1032.82 368.281 1034.05 407.174 C 1033.97 443.25 1033.74 478.4 1034.94 514.464 L 1014.27 514.167 C 1014.7 500.163 1014.9 486.154 1014.89 472.143 C 1016.28 454.432 1014.92 417.72 1014.7 398.572 L 1014.12 281.034 z"/>
<path transform="translate(0,0)" fill="rgb(246,222,156)" d="M 1011.65 105.449 C 1054.23 98.1789 1094.58 127.021 1101.47 169.667 C 1108.37 212.313 1079.18 252.403 1036.47 258.929 C 994.294 265.375 954.802 236.617 947.988 194.495 C 941.174 152.372 969.586 112.631 1011.65 105.449 z"/>
<path transform="translate(0,0)" fill="rgb(254,254,253)" d="M 1037.88 118.125 C 1070.19 116.383 1084.77 157.861 1056.21 163.672 C 1029.34 160.226 1005.95 133.06 1037.88 118.125 z"/>
<path transform="translate(0,0)" fill="rgb(254,254,253)" d="M 1066.84 173.99 C 1082.56 172.716 1086.88 183.305 1077.39 195.214 C 1064.25 195.271 1054.31 184.804 1066.84 173.99 z"/>
<path transform="translate(0,0)" fill="rgb(51,40,53)" d="M 1889.86 1538.27 C 1887.43 1527.42 1906.84 1514.67 1914.82 1510.16 C 1906.9 1523.99 1897.21 1528.21 1889.86 1538.27 z"/>
<path transform="translate(0,0)" fill="rgb(220,244,246)" d="M 229.743 965.199 C 239.137 961.805 254.878 955.928 264.964 957.129 C 285.183 959.535 306.255 964.837 326.4 968.668 C 361.192 974.949 396.066 980.765 431.013 986.113 C 535.955 1000.77 641.476 1010.93 747.288 1016.55 C 972.016 1028.51 1197.29 1025.7 1421.65 1008.15 C 1506.68 1001.24 1591.39 990.85 1675.58 977.018 C 1712.75 971.051 1752.25 962.103 1789.52 956.568 C 1797.16 955.434 1824.79 967.414 1832.48 970.433 C 1888.12 993.937 1899.3 1051.55 1910.56 1105.14 C 1929.34 1198.15 1934.99 1293.32 1927.35 1387.89 C 1925.2 1417.87 1923.98 1451.44 1910.9 1478.69 C 1904.4 1492.47 1895.07 1504.73 1883.52 1514.65 C 1871.31 1525.1 1854.43 1533.91 1840.2 1541.66 C 1791.2 1568.59 1739.89 1591.08 1686.88 1608.88 C 1377.99 1715.32 879.417 1720.04 557.344 1659.01 C 518.542 1651.76 480.028 1643.05 441.882 1632.9 C 429.578 1629.68 406.063 1623.87 394.65 1619.01 C 359.167 1609.64 308.208 1589.61 274.043 1574.39 C 236.605 1556.12 189.535 1536.39 158.852 1508.17 C 127.037 1478.91 125.071 1431.17 121.959 1391.69 C 114.339 1295.03 118.861 1198.33 139.461 1103.44 C 153.807 1037.36 159.759 990.978 229.743 965.199 z"/>
<path transform="translate(0,0)" fill="rgb(191,215,215)" d="M 394.65 1619.01 C 359.167 1609.64 308.208 1589.61 274.043 1574.39 C 236.605 1556.12 189.535 1536.39 158.852 1508.17 C 127.037 1478.91 125.071 1431.17 121.959 1391.69 C 114.339 1295.03 118.861 1198.33 139.461 1103.44 C 153.807 1037.36 159.759 990.978 229.743 965.199 C 230.614 979.172 226.331 1002.63 224.429 1017.05 C 221.522 1038.49 219.44 1060.03 218.188 1081.63 C 210.387 1227.85 230.925 1360.36 302.628 1489.81 C 319.608 1520.08 338.894 1548.99 360.317 1576.3 C 366.694 1584.47 391.66 1613.35 394.65 1619.01 z"/>
<path transform="translate(0,0)" fill="rgb(254,254,253)" d="M 1795.64 1005.4 C 1829.27 1001.05 1841.97 1052.23 1849 1076.11 C 1870.91 1150.43 1880.34 1227.18 1876.68 1304.58 C 1869.19 1314.63 1858.53 1318.01 1846.37 1314.92 C 1830.09 1310.93 1832.28 1290.9 1832.09 1277.58 C 1831.09 1205.81 1822.35 1141.04 1795.98 1074.21 C 1761.35 1083.97 1726.41 1092.62 1691.23 1100.17 C 1608.55 1114.74 1515.41 1130.84 1430.52 1128.85 C 1407.11 1127.98 1388.1 1102.47 1404.6 1082.64 C 1421.34 1062.54 1472.22 1064.2 1498.11 1061.35 C 1543.26 1056.46 1588.26 1050.27 1633.05 1042.79 C 1665.7 1037.13 1698.13 1030.21 1730.24 1022.03 C 1748.06 1017.39 1778.58 1007.4 1795.64 1005.4 z"/>
<path transform="translate(0,0)" fill="rgb(122,153,156)" d="M 1349.21 1253.52 C 1391.39 1248 1430.08 1277.69 1435.66 1319.87 C 1441.24 1362.05 1411.61 1400.78 1369.44 1406.42 C 1327.18 1412.08 1288.35 1382.37 1282.76 1340.1 C 1277.16 1297.83 1306.93 1259.05 1349.21 1253.52 z"/>
<path transform="translate(0,0)" fill="rgb(122,153,156)" d="M 646.728 1254.26 C 688.581 1246.72 728.592 1274.62 735.971 1316.51 C 743.35 1358.39 715.286 1398.29 673.376 1405.5 C 631.697 1412.68 592.062 1384.8 584.723 1343.15 C 577.385 1301.5 605.107 1261.76 646.728 1254.26 z"/>
<path transform="translate(0,0)" fill="rgb(126,173,162)" d="M 182.525 1550.49 C 187.344 1551.95 200.286 1559.44 205.252 1562.14 C 216.131 1568.11 227.151 1573.82 238.303 1579.27 C 275.489 1597.67 313.904 1613.48 353.272 1626.59 C 437.458 1654.68 523.908 1675.47 611.663 1688.73 C 749.242 1709.51 888.261 1719.28 1027.4 1717.95 C 1225.22 1717.86 1426.78 1702.43 1618.33 1650.88 C 1689.01 1631.86 1759.17 1605.43 1824.38 1572.36 C 1838.45 1565.23 1852.21 1557.66 1866.34 1550.6 C 1846.65 1611.43 1832.65 1649.24 1796.46 1703.53 C 1767.54 1743.51 1750.25 1752.9 1707.61 1776.75 C 1636.17 1816.68 1560.69 1848.91 1482.44 1872.91 C 1126.68 1983.91 695.078 1963.67 361.976 1788.9 C 343.382 1779.15 301.459 1756.9 286.711 1743.52 C 232.876 1694.66 203.396 1617.45 182.525 1550.49 z"/>
<path transform="translate(0,0)" fill="rgb(141,197,182)" d="M 996.214 534.444 C 1115.06 530.49 1233.56 549.205 1345.4 589.589 C 1334.11 612.082 1323.45 636.893 1312.95 659.921 L 1273.79 745.072 C 1264.13 766.599 1248.81 804.032 1237.62 823.708 C 1236.62 825.468 1189.1 853.729 1183.24 856.962 C 1165.01 867.02 1139.34 885.238 1121.07 894.805 L 1121.93 1002.5 C 1096.85 1003.31 1070.73 1003.36 1045.56 1003.75 C 1004.41 1004.16 963.252 1003.89 922.109 1002.94 L 921.963 897.085 C 886.178 873.648 833.211 844.7 795.327 823.605 C 783.249 800.242 771.264 769.858 760.221 745.257 L 692.586 594.246 C 701.367 591.518 710.337 587.87 719.06 584.746 C 808.612 552.683 901.424 538.05 996.214 534.444 z"/>
<path transform="translate(0,0)" fill="rgb(141,197,182)" d="M 1353.58 593.315 C 1365.95 595.897 1418.36 620.531 1430.97 626.686 C 1575.79 696.224 1699.61 802.86 1789.86 935.757 C 1776.33 937.018 1756.43 941.714 1742.75 944.549 C 1726.1 947.888 1709.4 950.999 1692.66 953.881 C 1640.31 963.217 1592.86 969.186 1540.23 975.911 C 1404.73 991.386 1268.55 1000.09 1132.18 1001.98 C 1131.79 973.135 1133.31 928.314 1131.25 901.758 C 1150.26 887.839 1239.64 839.483 1246.93 827.324 C 1247.21 826.854 1247.46 826.368 1247.74 825.894 C 1253.86 815.331 1258.12 803.693 1263.08 792.553 L 1281.63 751.947 C 1305.32 699.424 1329.21 645.425 1353.58 593.315 z"/>
<path transform="translate(0,0)" fill="rgb(141,197,182)" d="M 681.951 598.051 C 685.269 599.046 697.425 627.715 700.082 633.517 C 722.072 682.179 743.722 730.994 765.031 779.958 C 771.266 794.082 778.788 815.993 787.369 827.966 C 795.761 839.674 889.826 887.184 910.594 901.719 L 911.81 902.58 C 910.962 930 911.124 974.749 911.887 1002.81 C 785.85 1000.49 640.773 992.7 516.235 977.188 C 455.534 971.373 389.796 959.865 329.838 949.306 C 305.731 945.061 283.053 939.402 258.622 935.533 C 273.775 911.328 302.766 874.95 321.423 853.406 C 404.351 758.523 505.478 681.248 618.814 626.158 C 639.334 616.065 660.889 607.056 681.951 598.051 z"/>
<path transform="translate(0,0)" fill="rgb(122,153,156)" fill-opacity="0.0117647" d="M 300.96 845.301 L 298.368 843.776 C 294.15 846.269 293.976 846.386 289.216 847.19 L 287.725 845.963 C 287.134 839.012 294.991 836.831 296.94 834.392 C 297.76 836.832 297.75 836.467 299.193 838.706 L 300.251 837.887 C 301.777 834.143 301.319 833.149 300.809 828.892 L 300.634 827.526 C 302.935 824.009 321.956 804.802 324.874 803.101 C 326.549 807.559 322.758 812.395 324.445 818.842 C 316.122 827.619 308.531 835.759 300.96 845.301 z"/>
<path transform="translate(0,0)" fill="rgb(141,133,129)" fill-opacity="0.0156863" d="M 984.206 275.762 C 987.447 277.908 989.92 278.741 990.677 281.712 C 989.251 283.803 989.427 283.715 988.902 286.172 C 985.236 284.432 983.311 284.322 981.441 281.468 C 982.576 279.755 982.813 279.272 983.554 277.417 L 984.206 275.762 z"/>
<path transform="translate(0,0)" fill="rgb(2,2,2)" fill-opacity="0.0117647" d="M 1430.86 597.056 L 1432.48 596.495 C 1437.96 598.169 1441.83 600.03 1446.11 603.902 L 1444.59 604.871 C 1440.88 603.13 1433.24 599.981 1430.86 597.056 z"/>
<path transform="translate(0,0)" fill="rgb(2,2,2)" fill-opacity="0.0117647" d="M 403.021 1838.09 C 409.587 1839.38 411.919 1840.64 416.687 1845.33 C 411.665 1843.94 406.023 1842.47 403.021 1838.09 z"/>
<path transform="translate(0,0)" fill="rgb(2,2,2)" fill-opacity="0.0117647" d="M 1866.38 1629.7 L 1867.36 1632 C 1866.38 1635.04 1865.98 1636.42 1864.5 1639.34 C 1862.79 1638.54 1863.57 1639.12 1862.24 1637.48 C 1863.55 1634.21 1864.58 1632.65 1866.38 1629.7 z"/>
<path transform="translate(0,0)" fill="rgb(2,2,2)" fill-opacity="0.0235294" d="M 1928.02 1066.62 L 1928.89 1066.33 L 1929.97 1066.89 L 1930.84 1072.47 L 1930.04 1072.72 L 1928.99 1072.13 L 1928.02 1066.62 z"/>
</svg>