<svg version="1.1" xmlns="http://www.w3.org/2000/svg" viewBox="5.98 69.12 2031.88 1905.31" width="256" height="240">
<path transform="translate(0,0)" fill="rgb(75,74,77)" d="M 1473.5 147.504 L 1542 147.236 C 1657.57 147.356 1758.38 193.356 1839.51 274.746 C 1893.27 328.137 1930.89 395.595 1948.07 469.386 C 1962.61 532.041 1959.71 594.668 1959.77 658.67 L 1959.78 847.43 L 1959.75 1459.56 C 1959.7 1480.18 1959.57 1502 1957.27 1522.49 C 1946.92 1616.91 1904.61 1704.96 1837.37 1772.05 C 1748.84 1859.88 1639.87 1899.17 1517.08 1896.7 C 1491.12 1896.17 1464.2 1896.8 1438.13 1896.82 L 1243.4 1896.88 L 569.75 1896.45 C 535.878 1896.34 494.767 1897.3 461.834 1893.87 C 366.944 1883.77 278.231 1841.97 210.037 1775.23 C 126.785 1693.86 84.2938 1592.91 83.9575 1476.83 C 83.7458 1403.75 83.8396 1330.61 83.8704 1257.53 L 84.027 844.761 L 84.0718 653.064 C 84.0998 596.352 81.2393 531.827 93.3701 476.936 C 110.961 399.507 149.853 328.54 205.654 272.052 C 264.989 212.715 340.447 172.115 422.658 155.292 C 473.871 144.373 528.675 147.696 581.306 147.697 L 778.389 147.907 L 1473.5 147.504 z"/>
<path transform="translate(0,0)" fill="rgb(237,190,109)" d="M 1001.91 198.738 C 1038.29 197.499 1078.96 198.119 1115.5 198.085 L 1346.68 198.678 L 1480.5 198.743 C 1523.63 198.716 1569.14 196.667 1611.3 206.063 C 1677.69 220.528 1739.02 252.447 1788.97 298.527 C 1840.79 346.928 1873.74 402.212 1893.27 470.243 C 1910.02 526.97 1907.05 581.424 1907.05 639.797 L 1907.02 773.007 L 1907.13 1122.19 L 1907.26 1373.43 L 1907.26 1454.02 C 1907.19 1475.2 1907.41 1495.91 1905.13 1517.01 C 1899.79 1563.97 1885.55 1609.48 1863.16 1651.1 C 1814.16 1739.48 1731.93 1804.66 1634.71 1832.18 C 1610.7 1839.06 1586 1843.23 1561.06 1844.6 C 1537.21 1845.89 1508.04 1845.28 1483.81 1845.36 L 1346.32 1845.57 L 924.265 1845.3 L 629.789 1845.15 L 539.981 1844.99 C 515.698 1844.92 491.61 1845.26 467.429 1842.66 C 416.267 1836.72 366.81 1820.61 321.975 1795.26 C 313.972 1790.83 289.742 1776.47 284.608 1770.68 C 266.012 1757.62 248.94 1742.51 233.712 1725.64 C 179.4 1666.91 145.747 1592.05 137.868 1512.44 C 135.097 1483.81 135.932 1452.81 135.91 1423.92 L 135.705 1319.37 L 135.575 1184.66 C 135.495 1155.58 134.834 1123.47 136.055 1094.54 C 134.626 1026.22 135.973 953.442 135.901 884.762 L 135.386 582.152 C 135.555 555.808 136.387 529.408 141.254 503.467 C 155.172 429.286 192.257 359.298 245.954 306.47 C 294.354 258.941 354.597 225.236 420.425 208.858 C 468.828 196.865 508.123 198.749 557.529 198.537 L 677.882 198.409 L 1001.91 198.738 z"/>
<path transform="translate(0,0)" fill="rgb(219,161,74)" d="M 1893.27 470.243 C 1910.02 526.97 1907.05 581.424 1907.05 639.797 L 1907.02 773.007 L 1907.13 1122.19 L 1907.26 1373.43 L 1907.26 1454.02 C 1907.19 1475.2 1907.41 1495.91 1905.13 1517.01 C 1899.79 1563.97 1885.55 1609.48 1863.16 1651.1 C 1814.16 1739.48 1731.93 1804.66 1634.71 1832.18 C 1610.7 1839.06 1586 1843.23 1561.06 1844.6 C 1537.21 1845.89 1508.04 1845.28 1483.81 1845.36 L 1346.32 1845.57 L 924.265 1845.3 L 629.789 1845.15 L 539.981 1844.99 C 515.698 1844.92 491.61 1845.26 467.429 1842.66 C 416.267 1836.72 366.81 1820.61 321.975 1795.26 C 313.972 1790.83 289.742 1776.47 284.608 1770.68 L 285.29 1769.13 C 292.159 1765.4 318.664 1777.16 327.281 1779.79 C 391.296 1799.29 457.656 1811.61 524.809 1808.64 C 544.764 1807.75 565.692 1807.81 585.927 1807.36 C 639.13 1806.35 692.323 1804.86 745.499 1802.88 L 1135.53 1791.49 L 1369.21 1784.29 C 1414.55 1782.66 1460.88 1783.13 1505.55 1775.71 C 1565.01 1766.32 1621.67 1743.96 1671.53 1710.23 C 1748.43 1658.75 1805.95 1583.08 1834.97 1495.21 C 1862.29 1414.94 1860.23 1345.04 1863.2 1262 L 1869.67 1097.29 C 1876.42 946.784 1882.18 796.234 1886.95 645.652 L 1891.5 525.993 C 1891.94 511.352 1890.47 483.216 1893.27 470.243 z"/>
<path transform="translate(0,0)" fill="rgb(238,208,161)" d="M 136.055 1094.54 C 134.626 1026.22 135.973 953.442 135.901 884.762 L 135.386 582.152 C 135.555 555.808 136.387 529.408 141.254 503.467 C 155.172 429.286 192.257 359.298 245.954 306.47 C 294.354 258.941 354.597 225.236 420.425 208.858 C 468.828 196.865 508.123 198.749 557.529 198.537 L 677.882 198.409 L 1001.91 198.738 C 1022.74 199.776 1133.43 196.233 1143.73 200.432 C 1137.82 205.155 1082.31 206.429 1071.01 207.23 C 939.57 216.992 808.015 225.089 676.374 231.516 C 641.511 233.458 606.634 235.116 571.744 236.49 C 500.73 239.627 458.825 241.172 392.672 269.941 L 391.485 269.701 C 414.086 255.667 465.614 243.459 492.641 240.098 C 511.612 237.739 540.919 236.418 560.322 235.582 L 658.023 231.123 L 771.134 224.855 C 783.103 224.204 811.51 221.65 822.033 222 L 821.968 221.471 C 819.102 221.526 816.615 221.15 814.302 219.405 C 810.085 216.224 809.291 220.531 807.463 217.458 L 805.473 217.918 C 791.067 211.63 773.698 221.063 756.486 217.077 C 738.057 212.809 715.863 218.639 697.759 206.643 C 697.598 204.033 697.345 205.315 699.292 202.898 C 688.405 201.565 675.251 202.813 663.909 202.218 C 610.317 199.408 556.194 198.825 502.582 201.446 C 491.459 201.99 480.111 200.664 468.975 202.081 C 400.324 209.095 333.159 237.561 278.994 279.934 C 213.555 331.207 167.227 402.967 147.437 483.71 C 141.133 509.852 137.779 535.076 137.198 562.08 C 136.336 602.163 137.284 642.427 137.484 682.503 L 137.223 874.792 C 137.34 923.074 140.649 971.752 137.504 1020.1 C 136.114 1041.46 141.764 1067.75 137.589 1089.45 C 137.382 1090.93 137.314 1092.11 137.211 1093.58 L 136.055 1094.54 z"/>
<path transform="translate(0,0)" fill="rgb(75,74,77)" d="M 1133.31 363.5 L 1375.1 363.694 L 1451.23 363.63 C 1484.8 363.612 1514.08 362.329 1547.23 370.183 C 1593.87 381.268 1636.6 404.833 1670.87 438.353 C 1721.44 488.348 1749.83 556.543 1749.68 627.652 L 1749.67 1182.95 L 1749.67 1348 C 1749.67 1385.03 1751.74 1432.17 1745.14 1467.51 C 1735.43 1519.53 1711.46 1568.44 1673.93 1606.13 C 1639.45 1641.32 1595.75 1666.07 1547.83 1677.55 C 1511.62 1685.86 1471.06 1683.94 1433.81 1683.9 L 1319 1683.74 L 917.25 1683.76 L 667.018 1683.69 L 592.898 1683.78 C 560.054 1683.82 528.567 1684.94 496.313 1677.28 C 448.968 1665.59 405.65 1641.35 370.915 1607.12 C 334.591 1571.17 309.064 1522.11 298.653 1472.1 C 291.881 1439.57 293.913 1399.23 293.896 1365.49 L 293.801 1228.95 L 293.439 716.633 L 293.388 648.464 C 293.391 633.398 293.103 613.491 294.617 598.747 C 300.625 540.245 330.179 480.418 371.695 439.026 C 406.958 403.997 451.549 379.843 500.155 369.445 C 534.733 362.069 571.915 363.615 607.361 363.595 L 724.106 363.757 L 1133.31 363.5 z"/>
<path transform="translate(0,0)" fill="rgb(253,240,213)" d="M 426.196 1586.05 C 395.53 1561.73 372.263 1529.33 359.017 1492.5 C 352.424 1473.84 348.436 1454.37 347.167 1434.62 C 344.565 1392.32 346.63 1332.26 346.53 1288.35 L 346.182 990.677 L 346.084 745.722 L 346.119 665.317 C 346.159 647.269 345.825 627.503 347.249 609.644 C 349.245 583.354 356.126 557.666 367.539 533.898 C 390.927 485.646 436.101 444.673 487.011 427.477 C 505.458 421.175 524.671 417.393 544.129 416.233 C 563.684 415.149 588.716 415.864 608.814 415.891 L 720.04 415.952 L 1063.89 415.857 L 1352.44 415.81 L 1445.5 415.81 C 1463.69 415.828 1485.75 415.339 1503.67 416.7 C 1530.96 418.868 1557.57 426.3 1582.04 438.584 C 1630.15 463.13 1666.82 505.448 1684.26 556.567 C 1697.86 591.911 1697.09 628.525 1697.17 665.643 C 1697.24 696.072 1697.05 726.487 1697.05 756.913 L 1697.19 1027.13 L 1697.09 1294.06 L 1696.99 1382.28 C 1696.92 1426.89 1698.37 1462.96 1679.27 1505 C 1655.77 1556.74 1614.94 1597.94 1561.53 1618.1 C 1543.16 1625.2 1523.82 1629.46 1504.17 1630.75 C 1482.46 1632.17 1457.42 1631.8 1435.53 1631.85 L 1331.48 1631.99 L 1003.18 1632.03 L 696.636 1631.98 L 603.377 1631.95 C 582.918 1631.95 560.162 1632.43 539.94 1630.83 C 514.869 1628.88 490.345 1622.47 467.519 1611.92 C 452.684 1605.12 438.793 1596.43 426.196 1586.05 z"/>
<path transform="translate(0,0)" fill="rgb(238,208,161)" d="M 1684.26 556.567 C 1697.86 591.911 1697.09 628.525 1697.17 665.643 C 1697.24 696.072 1697.05 726.487 1697.05 756.913 L 1697.19 1027.13 L 1697.09 1294.06 L 1696.99 1382.28 C 1696.92 1426.89 1698.37 1462.96 1679.27 1505 C 1655.77 1556.74 1614.94 1597.94 1561.53 1618.1 C 1543.16 1625.2 1523.82 1629.46 1504.17 1630.75 C 1482.46 1632.17 1457.42 1631.8 1435.53 1631.85 L 1331.48 1631.99 L 1003.18 1632.03 L 696.636 1631.98 L 603.377 1631.95 C 582.918 1631.95 560.162 1632.43 539.94 1630.83 C 514.869 1628.88 490.345 1622.47 467.519 1611.92 C 452.684 1605.12 438.793 1596.43 426.196 1586.05 C 431.551 1582.97 436.519 1584.75 442.376 1585.85 C 492.164 1595.19 542.231 1593.58 592.832 1591.91 L 691.983 1588.73 L 1007.1 1579.31 L 1281.6 1572.96 C 1323.63 1572.11 1395.42 1573.46 1434.15 1567.66 C 1476.89 1561.04 1517.39 1544.2 1552.22 1518.56 C 1598.15 1484.12 1636.07 1427.94 1651.34 1372.92 C 1664.25 1326.41 1663.17 1301.64 1664.33 1254.9 L 1666.53 1171.81 L 1678.57 768.556 L 1681.63 629.828 C 1681.98 613.088 1681.79 572.475 1684.02 558.041 L 1684.26 556.567 z"/>
<path transform="translate(0,0)" fill="rgb(118,169,158)" d="M 1406.56 685.376 C 1415.2 685.24 1423.62 688.128 1430.36 693.541 C 1438.73 700.245 1442.19 707.592 1442.83 717.927 C 1444.05 737.717 1444.17 757.94 1444.76 777.768 C 1445.53 802.113 1445.99 826.467 1446.15 850.824 C 1446.31 867.681 1449.62 888.141 1438.61 901.34 C 1421.36 922.022 1383.95 914.111 1380.58 886.86 C 1377.49 861.963 1377.57 835.078 1376.87 809.954 C 1362.13 831.47 1339.35 857.335 1322.65 877.884 C 1289.22 919.644 1255.35 961.047 1221.05 1002.09 L 1135.27 1106.92 C 1120.61 1124.9 1105.94 1143.99 1090.73 1160.93 C 1059.01 1195.76 1032.83 1166.64 1007.7 1143.94 C 969.307 1109.28 929.646 1076.16 891.868 1041.09 C 869.695 1067.41 843.897 1095.4 820.746 1121.15 L 700.383 1254.02 C 684.144 1271.68 668.041 1289.46 652.076 1307.37 C 641.708 1319.03 630.675 1332.42 619.114 1342.76 C 609.84 1351.06 600.496 1351.48 588.629 1350.32 C 565.214 1341.73 556.585 1318.1 571.945 1297.58 C 580.617 1286 592.093 1275.13 601.97 1264.38 L 662.359 1198.09 L 789.459 1058.08 C 812.557 1032.46 835.281 1006.27 858.485 980.75 C 888.441 947.798 911.959 971.624 936.427 993.175 C 949.413 1004.44 962.325 1015.79 975.163 1027.23 C 999.639 1049.02 1032.6 1076.53 1055.35 1098.79 C 1066.4 1086.02 1078.1 1070.74 1089.35 1057.4 L 1271.15 838.113 C 1290.54 814.59 1309.17 790.441 1328.9 767.028 C 1312.21 772.175 1286.71 775.065 1269.29 778.956 C 1255.58 781.644 1243.18 782.455 1231.27 773.863 C 1212.85 760.563 1216.91 725.619 1238.74 718.216 C 1249.93 714.423 1263.79 712.351 1275.75 710.102 L 1332.06 699.514 C 1352.53 695.638 1387.85 687.214 1406.56 685.376 z"/>
<path transform="translate(0,0)" fill="rgb(75,74,77)" d="M 1405.17 1277.87 C 1460.62 1273.14 1509.44 1314.17 1514.32 1369.61 C 1519.21 1425.04 1478.31 1473.97 1422.89 1479.01 C 1367.25 1484.06 1318.09 1442.97 1313.19 1387.32 C 1308.28 1331.67 1349.51 1282.62 1405.17 1277.87 z"/>
<path transform="translate(0,0)" fill="rgb(237,190,109)" d="M 1368.9 1422.29 C 1351.6 1405.31 1345.5 1379.96 1353.18 1356.97 C 1360.85 1333.98 1380.97 1317.38 1405 1314.21 C 1429.02 1311.03 1452.76 1321.83 1466.15 1342.04 C 1484.07 1369.08 1478.67 1405.29 1453.65 1425.94 C 1428.63 1446.59 1392.06 1445.02 1368.9 1422.29 z"/>
<path transform="translate(0,0)" fill="rgb(219,161,74)" d="M 1466.15 1342.04 C 1484.07 1369.08 1478.67 1405.29 1453.65 1425.94 C 1428.63 1446.59 1392.06 1445.02 1368.9 1422.29 C 1380.08 1420.74 1384.02 1425 1394.51 1425.85 C 1410.42 1427.14 1426.21 1422.02 1438.52 1411.78 C 1460.52 1393.48 1463.71 1368.84 1466.15 1342.04 z"/>
<path transform="translate(0,0)" fill="rgb(253,240,213)" d="M 350.596 305.322 C 357.573 305.109 368.714 306.028 374.361 309.97 C 418.12 340.22 368.893 393.967 346.463 420.981 C 323.784 448.297 300.092 478.533 264.961 488.944 C 242.52 494.348 224.454 481.134 223.219 457.853 C 221.607 427.45 233.434 397.659 252.407 374.223 C 278.581 341.89 306.404 310.175 350.596 305.322 z"/>
<path transform="translate(0,0)" fill="rgb(253,240,213)" d="M 217.516 538.338 C 257.531 538.203 256.288 599.115 214.15 607.451 C 170.235 607.72 174.919 544.309 217.516 538.338 z"/>
<path transform="translate(0,0)" fill="rgb(0,0,0)" fill-opacity="0.0196078" d="M 1676.29 163.915 C 1679.97 164.178 1695.6 169.499 1698.05 172.032 C 1693.41 173.202 1679.7 167.531 1676.29 163.915 z"/>
<path transform="translate(0,0)" fill="rgb(0,0,0)" fill-opacity="0.0117647" d="M 193.778 1766.13 L 194.842 1765.88 C 199.051 1768.59 201.717 1769.97 202.107 1775.02 C 198.325 1771.88 194.371 1769.95 193.778 1766.13 z"/>
</svg>