<svg version="1.1" xmlns="http://www.w3.org/2000/svg" viewBox="3.90 360.03 2033.93 1326.07" width="256" height="166.89">
<path transform="translate(0,0)" fill="rgb(73,73,73)" d="M 228.103 436.472 C 266.508 435.364 310.44 436.377 349.112 436.478 L 563.516 436.713 L 1262.78 437.123 L 1669.25 437.535 L 1777.22 437.927 C 1794.67 437.968 1820.93 437.488 1837.64 438.961 C 1860.08 440.939 1898.92 459.857 1915.4 475.586 C 1941.99 500.971 1961.46 537.39 1961.91 574.856 C 1962.17 595.954 1962.1 617.031 1962.12 638.064 L 1962.26 759.084 L 1962.23 1188.94 L 1962.13 1389.16 L 1962.19 1447.49 C 1962.2 1457.79 1962.5 1474.57 1961.26 1484.36 C 1957.94 1510.49 1942.59 1540.73 1924.45 1559.91 C 1896.51 1589.75 1857.69 1607.02 1816.82 1607.8 L 698.817 1608.13 L 366.551 1607.97 L 268.985 1608.07 C 211.386 1608.18 170.506 1610.77 125.178 1567.77 C 97.2791 1541.57 81.2339 1505.16 80.7286 1466.89 C 79.2339 1397.16 80.6079 1322.14 80.6406 1252.09 L 80.638 845.435 L 80.5979 652.405 L 80.6017 598.564 C 80.6071 586.245 79.711 570.624 82.0703 558.737 C 96.659 485.227 152.877 437.524 228.103 436.472 z"/>
<path transform="translate(0,0)" fill="rgb(126,179,167)" d="M 114.032 1348.31 C 113.28 1291.77 114.068 1233.43 114.101 1176.75 L 114.005 862.102 L 113.994 674.34 C 113.994 641.448 113.569 608.264 114.435 575.444 C 115.874 520.881 166.605 470.541 221.258 469.889 C 252.098 469.522 282.915 469.649 313.738 469.661 L 489.863 469.699 L 1021.23 469.716 L 1547.71 469.828 L 1725.53 469.861 C 1757.6 469.884 1789.91 469.703 1821.96 470.3 C 1834.51 470.534 1847.66 473.552 1859.29 478.266 C 1897.53 495.225 1927.73 532.17 1928.03 574.897 C 1928.27 608.551 1927.49 642.257 1927.93 675.842 C 1929.3 805.731 1929.62 935.628 1928.91 1065.52 L 1929.23 1313.35 C 1929.52 1347.54 1929.55 1381.74 1929.31 1415.93 C 1929.19 1445.72 1932.11 1481.68 1919.44 1508.97 C 1903.92 1542.39 1865.64 1572.53 1827.92 1573.75 C 1793.13 1574.87 1757.79 1574.39 1722.91 1574.41 L 1525.14 1574.51 L 975.946 1574.37 L 442.811 1574.32 L 291.722 1574.34 C 257.103 1574.21 211.1 1578.29 179.55 1564.01 C 153.431 1552.19 130.22 1527.62 120.8 1500.25 C 117.706 1491.17 115.715 1481.74 114.871 1472.17 C 112.888 1451.51 114.384 1423.16 113.724 1401.72 C 113.41 1391.52 112.618 1357.21 114.032 1348.31 z"/>
<path transform="translate(0,0)" fill="rgb(191,215,208)" d="M 114.032 1348.31 C 113.28 1291.77 114.068 1233.43 114.101 1176.75 L 114.005 862.102 L 113.994 674.34 C 113.994 641.448 113.569 608.264 114.435 575.444 C 115.874 520.881 166.605 470.541 221.258 469.889 C 252.098 469.522 282.915 469.649 313.738 469.661 L 489.863 469.699 L 1021.23 469.716 L 1547.71 469.828 L 1725.53 469.861 C 1757.6 469.884 1789.91 469.703 1821.96 470.3 C 1834.51 470.534 1847.66 473.552 1859.29 478.266 C 1858.39 478.947 1857.48 479.629 1856.58 480.311 C 1815.22 480.269 1773.9 480.653 1732.54 481.617 L 614.571 508.969 L 397.123 513.511 C 368.602 514.243 322.712 513.732 295.179 517.216 C 281.198 518.919 267.477 522.322 254.321 527.35 C 214.812 542.288 186.909 569.2 169.69 607.792 C 151.62 648.293 153.331 690.056 151.159 733.498 L 144.745 844.994 L 126.34 1185.53 L 121.42 1283.48 C 120.785 1297.89 120.325 1327.63 118.288 1340.47 C 117.867 1317.69 120.164 1285.8 121.254 1262.54 L 128.098 1119.78 L 127.786 1119.72 C 127.376 1121.75 126.428 1127.1 125.765 1128.74 C 124.085 1127.66 124.526 1128.39 124.165 1126.73 L 125.932 1128.24 C 120.803 1124.03 127.661 1125.93 120.938 1124.55 C 121.355 1117.92 120.933 1116.72 118.171 1110.81 C 118.521 1117.11 119.072 1120.34 117.084 1126.43 C 115.129 1132.42 115.822 1142.53 115.926 1149.14 C 116.939 1213.49 114.008 1277.69 115.402 1342.05 C 115.456 1344.54 114.974 1346.07 114.032 1348.31 z"/>
<path transform="translate(0,0)" fill="rgb(73,73,73)" d="M 1601.23 1123 C 1608.51 1122.85 1611.41 1123.34 1617.18 1128.49 C 1627.86 1138.03 1638.48 1149.04 1648.7 1159.16 C 1671.2 1181.28 1693.42 1203.69 1715.33 1226.39 C 1725.43 1236.76 1753.46 1261.49 1759.46 1271.63 C 1784.84 1314.53 1712.91 1305.35 1692.93 1305.2 C 1693.61 1334.42 1693.84 1363.65 1693.63 1392.88 C 1693.6 1409.41 1694.07 1429.88 1692.82 1446.03 C 1688.51 1451.73 1687.88 1452.51 1682.01 1456.76 C 1662.89 1458.66 1633.13 1457.72 1613.25 1457.66 L 1561.39 1457.51 C 1546.48 1457.42 1517.63 1461.13 1516.52 1440.58 C 1515.71 1425.51 1515.84 1410.44 1515.85 1395.34 L 1516.25 1305.85 C 1505.32 1305.47 1491.81 1305.53 1480.29 1305.85 C 1460.74 1306.39 1440.69 1301.66 1447.34 1276.86 C 1448.25 1273.48 1454.05 1266.97 1456.81 1264.17 C 1482.53 1238.11 1508.4 1212.13 1534.26 1186.19 C 1548.15 1172.99 1587.38 1129.22 1601.23 1123 z"/>
<path transform="translate(0,0)" fill="rgb(242,196,110)" d="M 1581.62 1185.39 C 1584.1 1181.93 1600.84 1166.07 1605.06 1162 C 1609.82 1166.43 1614.53 1170.91 1619.19 1175.45 C 1635.92 1191.6 1652.13 1208.51 1668.47 1225.09 C 1684.41 1241.24 1701.03 1257.36 1716.36 1274.05 C 1704.8 1273.91 1672.32 1271.29 1664.5 1278.35 C 1658.9 1283.4 1659.55 1293.44 1659.58 1300.5 C 1659.73 1313.19 1659.63 1325.88 1659.26 1338.56 C 1661.39 1359.15 1660.59 1403.04 1660.25 1424.6 L 1549.14 1424.93 L 1549.31 1326.42 C 1547.79 1280.43 1561.23 1272.01 1508.48 1273.42 C 1503.66 1272.98 1498.88 1273.61 1494.03 1274.03 C 1501.86 1265.76 1509.58 1257.35 1517.94 1249.63 C 1535.6 1231.21 1562.66 1202.49 1581.24 1185.77 L 1581.62 1185.39 z"/>
<path transform="translate(0,0)" fill="rgb(228,174,88)" d="M 1549.31 1326.42 C 1551.12 1334.76 1550.25 1346.25 1550.44 1354.92 C 1550.93 1377 1549.04 1399.86 1550.71 1421.87 C 1551.7 1419.63 1551.46 1420.36 1551.82 1417.97 C 1567.42 1413.2 1575.97 1413.02 1590.47 1409.72 C 1611.75 1404.87 1636.86 1389.15 1647.15 1369.34 C 1652.73 1358.58 1652.47 1347.73 1659.26 1338.56 C 1661.39 1359.15 1660.59 1403.04 1660.25 1424.6 L 1549.14 1424.93 L 1549.31 1326.42 z"/>
<path transform="translate(0,0)" fill="rgb(244,220,168)" d="M 1581.24 1185.77 C 1577.74 1195.73 1576.1 1196 1580.32 1206.06 C 1573.39 1209.31 1547.76 1236.76 1537.89 1245.23 C 1535.32 1243.7 1535.34 1242.97 1532.72 1243.75 C 1527.98 1245.15 1522.34 1247.47 1517.94 1249.63 C 1535.6 1231.21 1562.66 1202.49 1581.24 1185.77 z"/>
<path transform="translate(0,0)" fill="rgb(246,230,193)" d="M 1581.62 1185.39 C 1584.1 1181.93 1600.84 1166.07 1605.06 1162 C 1609.82 1166.43 1614.53 1170.91 1619.19 1175.45 C 1611.84 1180.4 1604.31 1177.16 1600.23 1182.19 C 1602.73 1187.34 1603.28 1189.4 1601.14 1195.03 C 1599.39 1199.65 1595.86 1203.37 1591.34 1205.35 C 1587.47 1207.06 1584.28 1207.06 1580.32 1206.06 C 1576.1 1196 1577.74 1195.73 1581.24 1185.77 L 1581.62 1185.39 z"/>
<path transform="translate(0,0)" fill="rgb(244,220,168)" d="M 1581.62 1185.39 C 1584.1 1181.93 1600.84 1166.07 1605.06 1162 C 1609.82 1166.43 1614.53 1170.91 1619.19 1175.45 C 1611.84 1180.4 1604.31 1177.16 1600.23 1182.19 C 1594.41 1178.44 1588.7 1184.17 1581.62 1185.39 z"/>
<path transform="translate(0,0)" fill="rgb(246,230,193)" d="M 1517.94 1249.63 C 1522.34 1247.47 1527.98 1245.15 1532.72 1243.75 C 1535.34 1242.97 1535.32 1243.7 1537.89 1245.23 C 1533.22 1250.16 1509.8 1270.8 1508.48 1273.42 C 1503.66 1272.98 1498.88 1273.61 1494.03 1274.03 C 1501.86 1265.76 1509.58 1257.35 1517.94 1249.63 z"/>
<path transform="translate(0,0)" fill="rgb(73,73,73)" d="M 597.557 551.424 C 605.216 550.514 622.301 550.26 629.86 551.31 C 637.874 552.422 641.275 555.637 645.723 561.888 C 647.179 577.392 647.25 592.995 645.936 608.512 C 637.391 707.76 565.492 778.07 463.887 773.601 C 455.642 773.239 447.393 772.499 439.17 771.787 C 435.179 802.006 439.124 813.263 450.128 840.025 C 447.979 845.671 445.744 850.337 441.124 854.371 C 431.178 864.254 406.01 871.567 396.762 856.725 C 384.048 836.321 387.242 803.118 390.428 780.835 L 389.681 779.016 C 365.144 784.161 332.602 778.628 312.194 763.862 C 286.303 745.129 269.437 713.82 262.511 682.935 C 257.808 661.965 288.013 662.301 301.137 660.246 C 336.296 656.651 369.654 663.355 397.477 686.025 C 422.194 591.33 507.873 557.073 597.557 551.424 z"/>
<path transform="translate(0,0)" fill="rgb(171,190,119)" d="M 428.568 678.69 C 437.641 644.45 472.043 613.196 502.903 598.283 C 538.658 581.004 582.517 576.142 622.011 575.781 L 621.19 587.765 C 620.539 599.812 618.926 610.571 616.437 622.367 C 611.221 662.99 592.826 695.081 560.426 720.384 C 534.441 740.677 502.885 749.123 470.226 747.916 C 460.147 747.543 450.519 746.142 440.614 745.441 L 445.654 737.196 C 459.079 714.322 479.179 691.626 498.807 673.881 C 510.538 663.275 522.252 654.067 533.578 642.721 C 486.032 650.06 451.854 683.744 424.954 721.007 C 422.833 705.64 422.962 693.576 428.568 678.69 z"/>
<path transform="translate(0,0)" fill="rgb(198,210,148)" d="M 428.568 678.69 C 437.641 644.45 472.043 613.196 502.903 598.283 C 538.658 581.004 582.517 576.142 622.011 575.781 L 621.19 587.765 C 592.182 581.866 508.708 610.21 484.367 628.664 C 463.837 644.23 447.315 661.398 432.242 682.159 L 432.697 678.041 C 429.203 677.278 431.778 680.163 428.568 678.69 z"/>
<path transform="translate(0,0)" fill="rgb(150,171,104)" d="M 445.654 737.196 C 449.386 738.951 464.263 738.596 468.931 738.328 C 522.225 735.925 567.364 706.994 594.539 661.439 C 601.99 648.949 606.726 633.044 616.437 622.367 C 611.221 662.99 592.826 695.081 560.426 720.384 C 534.441 740.677 502.885 749.123 470.226 747.916 C 460.147 747.543 450.519 746.142 440.614 745.441 L 445.654 737.196 z"/>
<path transform="translate(0,0)" fill="rgb(171,190,119)" d="M 289.017 684.414 C 339.095 679.197 378.728 686.399 401.298 735.467 C 392.063 728.509 359.964 707.594 349.33 711.343 L 348.296 713.043 C 350.572 715.809 355.701 718.061 358.858 720.344 C 366.635 725.97 387.873 741.893 390.335 751.016 L 389.498 752.934 L 386.202 754.052 C 374.838 756.927 362.907 756.665 351.68 753.294 C 332.709 747.753 314.822 736.779 305.14 719.096 C 296.298 704.812 294.893 699.637 289.017 684.414 z"/>
<path transform="translate(0,0)" fill="rgb(150,171,104)" d="M 305.14 719.096 C 314.227 719.454 353.71 752.465 386.202 754.052 C 374.838 756.927 362.907 756.665 351.68 753.294 C 332.709 747.753 314.822 736.779 305.14 719.096 z"/>
<path transform="translate(0,0)" fill="rgb(150,171,104)" d="M 413.306 787.729 C 414.138 790.665 415.755 801.096 415.932 804.313 C 416.375 812.415 423.222 833.36 420.926 839.788 C 417.235 838.515 416.611 838.287 414.735 834.87 C 409.981 826.211 410.367 796.688 413.306 787.729 z"/>
<path transform="translate(0,0)" fill="rgb(191,215,208)" d="M 202.971 767.688 C 210.911 766.319 218.934 769.61 223.627 776.159 C 227.898 782.121 228.753 789.879 225.881 796.628 C 223.009 803.377 216.827 808.14 209.569 809.197 C 199.99 810.591 190.698 805.261 187.064 796.29 C 183.429 787.318 186.393 777.024 194.242 771.358 C 196.835 769.487 199.82 768.232 202.971 767.688 z"/>
</svg>