<svg version="1.1" xmlns="http://www.w3.org/2000/svg" viewBox="-6.12 26.77 2047.10 1993.90" width="256" height="249.37">
<path transform="translate(0,0)" fill="rgb(56,52,57)" d="M 244.39 843.38 L 249.65 883.87 L 255.28 902.21 L 263.36 916.09 L 278.74 932.3 L 300.44 960.88 L 301.0 1476.92 L 290.36 1510.73 L 266.91 1532.0 L 257.06 1546.6 L 251.62 1562.35 L 247.85 1588.78 L 231.32 1620.41 L 209.3 1636.91 L 201.3 1648.2 L 196.33 1663.13 L 192.57 1698.85 L 161.64 1721.42 L 140.09 1730.95 L 125.69 1744.47 L 117.08 1758.05 L 112.59 1772.49 L 110.77 1790.54 L 112.88 1860.18 L 118.52 1876.01 L 129.76 1890.9 L 142.48 1900.4 L 157.17 1905.94 L 175.66 1908.74 L 198.18 1909.42 L 1851.59 1909.06 L 1873.9 1908.64 L 1890.96 1905.18 L 1906.33 1896.92 L 1918.88 1885.08 L 1926.98 1871.53 L 1931.7 1855.18 L 1933.19 1834.31 L 1932.34 1787.11 L 1929.57 1767.85 L 1922.95 1752.1 L 1911.85 1737.91 L 1899.25 1728.73 L 1869.73 1717.08 L 1851.58 1683.02 L 1846.22 1658.46 L 1840.02 1645.54 L 1829.72 1633.88 L 1799.4 1611.97 L 1790.8 1556.34 L 1783.87 1542.41 L 1769.73 1526.17 L 1744.15 1501.87 L 1742.66 1464.67 L 1742.07 986.4 L 1744.58 948.84 L 1770.57 925.57 L 1782.86 910.38 L 1790.76 894.41 L 1796.52 870.59 L 1811.77 838.49 L 1842.21 824.28 L 1857.58 812.56 L 1869.39 798.55 L 1877.88 782.55 L 1883.05 765.01 L 1884.8 746.54 L 1883.06 727.87 L 1877.84 709.72 L 1869.19 692.77 L 1857.11 677.56 L 1840.38 663.54 L 1178.15 215.07 L 1116.78 171.92 L 1077.7 149.72 L 1059.09 142.86 L 1039.48 139.12 L 1018.17 138.27 L 996.63 140.38 L 976.5 145.3 L 958.29 153.04 L 919.29 177.08 L 196.01 667.6 L 182.02 681.43 L 170.96 697.35 L 163.13 714.82 L 159.18 732.83 L 158.7 752.86 L 161.78 772.47 L 168.09 789.3 L 178.5 805.02 L 191.63 817.88 L 207.45 828.08 z"/>
<path transform="translate(0,0)" fill="rgb(252,238,210)" d="M 1014.49 181.425 C 1055.71 180.428 1076.99 196.626 1109.68 219.56 C 1121.12 227.589 1133.2 235.71 1144.77 243.64 L 1264.63 325.434 L 1568.98 531.954 L 1739.58 647.178 L 1790.48 681.421 C 1802.37 689.385 1815.79 697.563 1826.35 707.041 C 1857.68 735.322 1842.62 792.065 1798.22 794.861 C 1770.93 796.579 1742.96 795.694 1715.54 795.733 L 1553.03 795.871 L 1027.5 795.768 L 511.646 795.439 L 334.411 795.271 C 305.666 795.244 275.961 797.222 247.321 795.011 C 236.805 794.2 228.858 791.951 220.32 785.329 C 209.631 777.038 203.176 764.728 201.668 751.365 C 200.022 736.784 203.655 722.249 213.141 710.887 C 226.301 695.124 299.914 649.727 322.162 634.695 L 594.122 451.024 L 835.384 286.961 L 919.041 229.722 C 948.227 209.83 978.431 184.124 1014.49 181.425 z"/>
<path transform="translate(0,0)" fill="rgb(56,52,57)" d="M 421.75 685.15 L 1441.29 685.21 L 1622.1 685.56 L 1044.84 296.57 L 1027.27 284.99 L 1020.32 282.72 z"/>
<path transform="translate(0,0)" fill="rgb(242,204,158)" d="M 1021.44 275.747 C 1036 286.491 1053.55 297.205 1068.78 307.517 L 1187.18 387.594 L 1635.47 690.031 C 1571.17 688.56 1502.28 689.946 1437.51 689.88 L 1023.5 689.674 L 584.729 689.678 L 475.685 689.725 C 454.51 689.648 429.911 688.898 409.215 689.93 C 431.03 673.05 471.032 647.448 494.282 632.073 L 598.828 561.776 L 872.006 376.663 L 963.87 314.723 C 980.201 303.867 1006.95 287.581 1021.44 275.747 z"/>
<path transform="translate(0,0)" fill="rgb(252,238,210)" d="M 1010 341.316 C 1045.99 336.177 1071.69 356.285 1100 374.848 L 1155.44 411.416 C 1208.35 445.993 1261 480.95 1313.41 516.286 L 1416.79 585.22 C 1431.04 594.576 1445.41 603.916 1459.59 613.372 C 1469.18 619.77 1488.81 631.71 1489.14 644.467 C 1489.26 649.815 1487.23 654.988 1483.49 658.815 C 1480.1 662.224 1475.82 663.922 1471.1 664.245 C 1454.5 665.382 1437.15 664.977 1420.51 664.943 L 1331.63 664.754 L 1036.25 664.935 L 754.961 664.882 C 698.322 664.894 641.565 665.437 584.94 664.068 C 580.365 663.676 567.665 663.159 563.953 660.687 C 533.806 640.615 577.033 616.062 591.589 605.871 C 607.966 594.405 623.135 585.594 638.752 575.282 L 814.323 460.561 L 915.478 393.196 C 940.948 376.223 980.701 345.708 1010 341.316 z"/>
<path transform="translate(0,0)" fill="rgb(147,199,202)" d="M 1208.42 819.958 C 1228.33 821.162 1254.78 820.631 1275.22 820.721 L 1397.07 821.037 C 1380.22 872.936 1389.95 915.596 1446.36 932.449 C 1444.68 975.405 1447.53 1020.53 1445.95 1063.47 C 1447.98 1214.76 1444.22 1368.06 1446.11 1519.24 C 1417.97 1524.51 1398.78 1542.85 1390.22 1569.86 C 1385.28 1594.87 1392.9 1610.21 1390.7 1625.66 C 1384.98 1631.09 1329.25 1629.41 1319 1629.43 L 1209.3 1629.78 C 1212.08 1621.4 1214.51 1613.36 1216.19 1604.68 C 1224.23 1563.09 1203.74 1527.51 1161.2 1519.78 C 1162.91 1490.65 1161.77 1451.87 1161.66 1422.25 L 1161.36 1263.35 L 1161.35 1046.55 C 1161.37 1008.68 1162.28 969.08 1161.14 931.364 C 1163.11 930.949 1165.06 930.467 1166.99 929.919 C 1184.02 924.972 1200.44 912.924 1208.83 897.143 C 1222.14 872.089 1216.23 845.476 1208.42 819.958 z"/>
<path transform="translate(0,0)" fill="rgb(125,172,175)" d="M 1208.42 819.958 C 1228.33 821.162 1254.78 820.631 1275.22 820.721 L 1397.07 821.037 C 1380.22 872.936 1389.95 915.596 1446.36 932.449 C 1444.68 975.405 1447.53 1020.53 1445.95 1063.47 C 1444.74 1055.92 1434.17 1039.46 1429.13 1032.87 C 1394.14 987.094 1335.14 994.769 1284.51 996.219 C 1259.58 996.932 1233.17 1010.48 1219.2 1030.66 C 1194.65 1064.96 1199.82 1109.24 1200.16 1150.03 C 1200.72 1189.02 1200.97 1228.01 1200.91 1267.01 L 1200.94 1422.75 C 1200.93 1440.85 1199.88 1488.08 1202.21 1504.61 C 1259.38 1515.48 1234.35 1556.87 1285.86 1566.76 C 1319.16 1573.15 1357.74 1565.5 1390.22 1569.86 C 1385.28 1594.87 1392.9 1610.21 1390.7 1625.66 C 1384.98 1631.09 1329.25 1629.41 1319 1629.43 L 1209.3 1629.78 C 1212.08 1621.4 1214.51 1613.36 1216.19 1604.68 C 1224.23 1563.09 1203.74 1527.51 1161.2 1519.78 C 1162.91 1490.65 1161.77 1451.87 1161.66 1422.25 L 1161.36 1263.35 L 1161.35 1046.55 C 1161.37 1008.68 1162.28 969.08 1161.14 931.364 C 1163.11 930.949 1165.06 930.467 1166.99 929.919 C 1184.02 924.972 1200.44 912.924 1208.83 897.143 C 1222.14 872.089 1216.23 845.476 1208.42 819.958 z"/>
<path transform="translate(0,0)" fill="rgb(147,199,202)" d="M 644.777 819.979 C 664.714 821.418 693.335 820.794 713.712 820.833 L 831.86 821.066 C 825.574 849.225 819.034 879.814 837.816 904.812 C 848.337 918.817 864.134 928.945 881.495 931.657 L 881.664 1080.76 L 881.779 1389.6 C 881.864 1432.23 881.201 1476.15 881.996 1518.61 C 864.068 1521.05 847.88 1530.61 837.086 1545.14 C 831.4 1552.71 828.394 1559.49 825.38 1568.39 C 821.676 1591.92 824.878 1607.74 832.669 1630.02 C 792.692 1629.63 752.713 1629.46 712.735 1629.52 C 693.395 1629.5 664.531 1628.6 645.799 1629.85 C 655.99 1601.1 660.469 1571.49 641.121 1545.13 C 630.924 1531.23 614.267 1521.2 597.228 1518.65 C 598.669 1463.27 597.343 1403.89 597.433 1348.16 L 596.944 931.534 C 651.06 918.045 665.336 868.178 644.777 819.979 z"/>
<path transform="translate(0,0)" fill="rgb(125,172,175)" d="M 644.777 819.979 C 664.714 821.418 693.335 820.794 713.712 820.833 L 831.86 821.066 C 825.574 849.225 819.034 879.814 837.816 904.812 C 848.337 918.817 864.134 928.945 881.495 931.657 L 881.664 1080.76 C 879.204 1076.51 881.872 1062.43 880.425 1059.61 C 868.447 1036.23 851.094 1016.76 827.565 1005.1 C 819.709 1001.18 811.357 998.332 802.738 996.648 C 776.86 991.705 724.522 992.294 699.493 999.938 C 667.061 1009.84 641.644 1045.05 638.249 1078.09 C 636.275 1098.84 636.892 1122.35 636.923 1143.83 L 637.105 1242.61 L 637.841 1375.37 C 637.925 1408.07 637.647 1441.19 638.281 1473.89 C 638.462 1483.23 640.755 1494.15 641.719 1503.49 C 688.357 1515.17 674.91 1552 714.087 1564.21 C 727.785 1568.48 758.64 1569.18 774.067 1568.65 C 782.113 1568.37 820.517 1569.4 825.38 1568.39 C 821.676 1591.92 824.878 1607.74 832.669 1630.02 C 792.692 1629.63 752.713 1629.46 712.735 1629.52 C 693.395 1629.5 664.531 1628.6 645.799 1629.85 C 655.99 1601.1 660.469 1571.49 641.121 1545.13 C 630.924 1531.23 614.267 1521.2 597.228 1518.65 C 598.669 1463.27 597.343 1403.89 597.433 1348.16 L 596.944 931.534 C 651.06 918.045 665.336 868.178 644.777 819.979 z"/>
<path transform="translate(0,0)" fill="rgb(147,199,202)" d="M 342.128 931.994 L 481.738 932.157 C 509.919 932.236 542.325 933.181 570.182 932.273 L 570.157 970.104 L 570.869 1376.25 C 570.499 1423.54 570.472 1470.82 570.789 1518.11 L 343.021 1517.85 L 342.291 1062.75 C 341.396 1051.95 342.107 1030.19 342.134 1018.38 L 342.128 931.994 z"/>
<path transform="translate(0,0)" fill="rgb(125,172,175)" d="M 342.128 931.994 L 481.738 932.157 C 509.919 932.236 542.325 933.181 570.182 932.273 L 570.157 970.104 L 343.341 970.089 C 343.335 980.478 343.927 1059.83 342.291 1062.75 C 341.396 1051.95 342.107 1030.19 342.134 1018.38 L 342.128 931.994 z"/>
<path transform="translate(0,0)" fill="rgb(213,234,235)" d="M 512.063 1358.02 C 524.29 1357.1 532.296 1362.91 536.82 1374.45 C 546.148 1398.25 547.359 1445.93 519.725 1458.03 C 492.341 1458.84 488.943 1427.32 489.412 1406.38 C 489.827 1387.85 493.862 1367.05 512.063 1358.02 z"/>
<path transform="translate(0,0)" fill="rgb(213,234,235)" d="M 511.076 1237.98 C 533.908 1235.6 537.571 1264.93 538.213 1281.94 C 538.834 1298.39 537.18 1316.31 520.364 1323.96 C 480.745 1326.96 489.769 1251.29 511.076 1237.98 z"/>
<path transform="translate(0,0)" fill="rgb(147,199,202)" d="M 1472.93 932.416 C 1498.72 933.132 1527.5 932.35 1553.7 932.447 L 1700.74 932.906 C 1700.88 958.617 1701.59 987.023 1700.84 1012.52 C 1701.6 1030.79 1701 1053.53 1701.01 1072.05 L 1700.86 1196.49 C 1701.28 1303.75 1701.1 1411.01 1700.31 1518.27 C 1624.55 1518.66 1548.79 1518.59 1473.03 1518.07 C 1473.88 1336.05 1470.99 1152.93 1472.81 971.023 L 1472.93 932.416 z"/>
<path transform="translate(0,0)" fill="rgb(125,172,175)" d="M 1472.93 932.416 C 1498.72 933.132 1527.5 932.35 1553.7 932.447 L 1700.74 932.906 C 1700.88 958.617 1701.59 987.023 1700.84 1012.52 C 1699.66 1003.59 1699.92 980.99 1699.81 970.878 L 1472.81 971.023 L 1472.93 932.416 z"/>
<path transform="translate(0,0)" fill="rgb(213,234,235)" d="M 1644.61 1357.19 C 1649.96 1357.59 1651.57 1358.13 1656.75 1359.7 C 1680.08 1380.62 1681.42 1445.91 1649.63 1457.93 C 1618.92 1459.35 1617.91 1417.62 1620.42 1396.06 C 1622.22 1380.59 1626.94 1360.57 1644.61 1357.19 z"/>
<path transform="translate(0,0)" fill="rgb(213,234,235)" d="M 1642.03 1237.97 C 1663.95 1237.83 1667.25 1263.48 1668.49 1280.55 C 1669.66 1296.69 1666.85 1316.75 1649.87 1323.51 C 1624.77 1326.38 1622.47 1296.37 1624.16 1278.45 C 1625.66 1262.52 1627 1247.05 1642.03 1237.97 z"/>
<path transform="translate(0,0)" fill="rgb(147,199,202)" d="M 907.92 932.035 L 1061.17 932.013 C 1083.17 932.044 1113.55 933.099 1134.91 932.089 C 1134.92 959.978 1136.22 998.396 1134.85 1025.45 C 1135.68 1039.16 1134.93 1062.97 1134.92 1077.32 L 1134.93 1180.24 L 1134.91 1518.41 C 1111.26 1517.77 1085.53 1518.25 1061.67 1518.22 C 1010.52 1518.32 959.371 1518.16 908.222 1517.74 L 907.926 970.042 L 907.92 932.035 z"/>
<path transform="translate(0,0)" fill="rgb(125,172,175)" d="M 907.92 932.035 L 1061.17 932.013 C 1083.17 932.044 1113.55 933.099 1134.91 932.089 C 1134.92 959.978 1136.22 998.396 1134.85 1025.45 C 1133.48 1010.94 1133.95 985.624 1133.77 970.398 L 907.926 970.042 L 907.92 932.035 z"/>
<path transform="translate(0,0)" fill="rgb(213,234,235)" d="M 1075.01 1358.11 C 1093.29 1357.57 1100.98 1367.54 1104.62 1385.13 C 1109.57 1409.09 1109.89 1443.45 1086.06 1457.79 C 1052.4 1460.06 1051.47 1415.85 1055.34 1392.36 C 1057.72 1377.86 1062.73 1366.71 1075.01 1358.11 z"/>
<path transform="translate(0,0)" fill="rgb(213,234,235)" d="M 1074.93 1237.91 C 1107.84 1234.91 1113 1311.35 1086.88 1323.59 C 1047.38 1331.85 1051.85 1253.14 1074.93 1237.91 z"/>
<path transform="translate(0,0)" fill="rgb(252,238,210)" d="M 168.019 1763.2 C 272.15 1761.93 379.598 1763.18 483.965 1763.31 L 1002.85 1763.64 L 1239.72 1763.5 L 1320.28 1763.69 C 1333.98 1763.73 1353.02 1764.28 1366.28 1763.39 C 1374.79 1792.38 1383.15 1809.21 1402.17 1832.65 C 1415.84 1847.2 1428.05 1857.18 1444.59 1868.21 C 1406.82 1865.93 1355.77 1867.61 1317.08 1867.7 L 1087.21 1867.77 L 426.872 1867.45 C 346.731 1867.33 266.493 1867.05 186.356 1867.46 C 177.221 1867.5 167.813 1865.67 161.214 1858.77 C 151.969 1849.11 154.084 1832.07 154.387 1819.26 C 154.12 1803.9 150.954 1779.8 161.462 1768.96 C 163.477 1766.85 165.671 1764.93 168.019 1763.2 z"/>
<path transform="translate(0,0)" fill="rgb(242,204,158)" d="M 154.387 1819.26 C 156.052 1822.01 155.519 1832.04 155.518 1835.93 C 201.487 1836.79 247.465 1837.06 293.441 1836.73 L 524.444 1836.72 L 1068.26 1837 L 1302.36 1836.93 C 1332.97 1836.97 1363.56 1836.69 1394.16 1836.08 C 1398.62 1835.99 1399.21 1837.92 1402.17 1832.65 C 1415.84 1847.2 1428.05 1857.18 1444.59 1868.21 C 1406.82 1865.93 1355.77 1867.61 1317.08 1867.7 L 1087.21 1867.77 L 426.872 1867.45 C 346.731 1867.33 266.493 1867.05 186.356 1867.46 C 177.221 1867.5 167.813 1865.67 161.214 1858.77 C 151.969 1849.11 154.084 1832.07 154.387 1819.26 z"/>
<path transform="translate(0,0)" fill="rgb(252,238,210)" d="M 1349.87 1654.48 C 1358.07 1654.56 1366.85 1654.85 1374.97 1654.11 C 1362.78 1682 1360.09 1708.07 1361.44 1738.06 L 265.549 1738.47 L 235.211 1738.32 C 236.094 1706 223.083 1654.96 267.933 1655.1 C 300.258 1655.21 332.745 1654.77 365.09 1654.69 L 587.668 1654.97 L 1349.87 1654.48 z"/>
<path transform="translate(0,0)" fill="rgb(242,204,158)" d="M 1527.38 1565.71 C 1612.09 1560.17 1685.25 1624.33 1690.81 1709.03 C 1696.37 1793.73 1632.22 1866.91 1547.52 1872.48 C 1462.8 1878.06 1389.6 1813.89 1384.03 1729.17 C 1378.47 1644.44 1442.66 1571.25 1527.38 1565.71 z"/>
<path transform="translate(0,0)" fill="rgb(56,52,57)" d="M 1524.83 1620.74 L 1505.21 1625.21 L 1487.51 1633.22 L 1471.96 1644.34 L 1458.89 1658.16 L 1448.69 1674.21 L 1441.71 1692.01 L 1438.28 1711.13 L 1438.75 1731.26 L 1443.22 1750.87 L 1451.22 1768.56 L 1462.34 1784.11 L 1476.16 1797.18 L 1492.21 1807.38 L 1510.01 1814.36 L 1529.14 1817.79 L 1549.28 1817.32 L 1568.89 1812.85 L 1586.57 1804.85 L 1602.12 1793.73 L 1615.18 1779.91 L 1625.39 1763.87 L 1632.37 1746.06 L 1635.79 1726.94 L 1635.33 1706.81 L 1630.86 1687.19 L 1622.86 1669.5 L 1611.74 1653.95 L 1597.92 1640.89 L 1581.87 1630.68 L 1564.07 1623.7 L 1544.95 1620.28 z"/>
<path transform="translate(0,0)" fill="rgb(242,204,158)" d="M 1506.1 1825.66 C 1504.87 1825.26 1503.63 1824.84 1502.41 1824.4 C 1472.36 1813.68 1450.59 1795.78 1436.86 1766.54 C 1424.28 1739.23 1422.93 1708.07 1433.09 1679.77 C 1454.37 1621.37 1518.59 1592.85 1576.74 1614.3 C 1602.98 1624.09 1624.32 1643.79 1636.16 1669.16 C 1680.93 1753.1 1594.65 1855.22 1506.1 1825.66 z"/>
<path transform="translate(0,0)" fill="rgb(237,159,77)" d="M 1636.16 1669.16 C 1680.93 1753.1 1594.65 1855.22 1506.1 1825.66 C 1513.69 1822.54 1526.19 1823.68 1534.84 1823.16 C 1557.39 1821.78 1583.23 1805.5 1599.5 1790.86 C 1623.18 1769.53 1635.68 1735.33 1636.82 1704.01 C 1637.26 1691.78 1635.61 1681.24 1636.16 1669.16 z"/>
<path transform="translate(0,0)" fill="rgb(252,238,210)" d="M 1514.25 1624.33 C 1522.9 1623.79 1530.76 1624.48 1536.89 1631.36 C 1539.56 1634.3 1540.91 1638.21 1540.63 1642.17 C 1539.31 1660.5 1517.66 1661.73 1506.42 1669.97 C 1495.26 1678.14 1487.34 1690.16 1476.88 1699.45 C 1472.36 1701.91 1462.35 1704.21 1458.43 1700.18 C 1446.27 1687.71 1459.36 1665.03 1468.12 1654.07 C 1481.18 1637.73 1492.97 1627.12 1514.25 1624.33 z"/>
<path transform="translate(0,0)" fill="rgb(252,238,210)" d="M 1455.94 1712.99 C 1475.34 1713.56 1478.37 1732.31 1463.3 1741.44 C 1442.87 1743.56 1441.31 1722.06 1455.94 1712.99 z"/>
<path transform="translate(0,0)" fill="rgb(252,238,210)" d="M 851.38 1597.82 C 847.879 1572.86 858.232 1546.7 886.683 1544.26 C 904.657 1542.72 923.738 1543.65 941.893 1543.74 L 1035.07 1543.92 L 1115.33 1543.87 C 1134.38 1543.85 1160.86 1540.42 1176.03 1553.33 C 1191.65 1566.62 1191.97 1583.79 1189.55 1602.42 C 1186.47 1614.09 1183.99 1619.23 1178.5 1630.06 C 1155.44 1629.4 1131.78 1629.63 1108.69 1629.83 C 1026.97 1630.52 945.087 1629.06 863.397 1630.06 C 856.824 1619.4 853.062 1610.26 851.38 1597.82 z"/>
<path transform="translate(0,0)" fill="rgb(242,204,158)" d="M 851.38 1597.82 C 854.849 1600.07 857.87 1602.03 862.041 1602.14 C 887.432 1602.82 913.206 1602.97 938.574 1602.97 L 1070.33 1602.93 L 1152.73 1602.86 C 1158.96 1602.84 1184.5 1603.17 1189.55 1602.42 C 1186.47 1614.09 1183.99 1619.23 1178.5 1630.06 C 1155.44 1629.4 1131.78 1629.63 1108.69 1629.83 C 1026.97 1630.52 945.087 1629.06 863.397 1630.06 C 856.824 1619.4 853.062 1610.26 851.38 1597.82 z"/>
<path transform="translate(0,0)" fill="rgb(252,238,210)" d="M 299.264 820.022 L 504.065 820.221 C 539.897 820.219 581.836 819.117 617.127 820.628 C 621.888 833.264 624.007 839.98 626.377 853.21 C 628.638 875.735 621.123 900.414 595.129 905.388 C 582.894 907.728 565.417 906.566 552.583 906.577 L 481.299 906.609 L 383.768 906.606 C 365.934 906.566 347.862 906.937 330.076 905.846 C 298.636 903.918 288.967 881.129 291.833 852.838 C 293.071 841.598 296.036 830.822 299.264 820.022 z"/>
<path transform="translate(0,0)" fill="rgb(242,204,158)" d="M 299.264 820.022 L 504.065 820.221 C 539.897 820.219 581.836 819.117 617.127 820.628 C 621.888 833.264 624.007 839.98 626.377 853.21 C 603.108 852.525 577.337 852.944 553.911 852.851 L 370.95 852.771 C 344.616 852.769 318.134 853.316 291.833 852.838 C 293.071 841.598 296.036 830.822 299.264 820.022 z"/>
<path transform="translate(0,0)" fill="rgb(252,238,210)" d="M 859.436 820.783 L 1181.06 821.052 C 1184.92 832.535 1187.84 841.527 1190.06 853.41 C 1190.95 870.472 1189.96 884.874 1175.8 896.987 C 1160.71 909.888 1139.06 906.56 1120.12 906.532 L 1053.27 906.606 L 947.457 906.661 C 929.935 906.659 912.341 906.577 894.818 906.402 C 862.592 906.08 848.407 884.289 852.04 853.3 C 853.653 840.672 855.752 833.029 859.436 820.783 z"/>
<path transform="translate(0,0)" fill="rgb(242,204,158)" d="M 859.436 820.783 L 1181.06 821.052 C 1184.92 832.535 1187.84 841.527 1190.06 853.41 C 1186.42 852.722 1167.1 853.009 1162.29 853.005 L 1099.64 852.911 L 941.59 852.791 C 917.448 852.701 875.193 850.976 852.04 853.3 C 853.653 840.672 855.752 833.029 859.436 820.783 z"/>
<path transform="translate(0,0)" fill="rgb(252,238,210)" d="M 1424 820.827 C 1463.27 819.637 1507.75 820.687 1547.38 820.676 C 1612.54 820.302 1677.69 820.409 1742.84 820.999 C 1746.71 832.204 1749.66 840.813 1751.23 852.55 C 1754.48 883.848 1742.27 905.061 1709.06 906.032 C 1690.99 906.56 1672.93 906.393 1654.85 906.407 L 1555.78 906.458 L 1491.77 906.578 C 1477.93 906.62 1462.72 907.356 1449.1 905.536 C 1423.64 902.135 1413.89 878.022 1416.62 855.236 C 1417.7 843.994 1421.09 831.8 1424 820.827 z"/>
<path transform="translate(0,0)" fill="rgb(242,204,158)" d="M 1424 820.827 C 1463.27 819.637 1507.75 820.687 1547.38 820.676 C 1612.54 820.302 1677.69 820.409 1742.84 820.999 C 1746.71 832.204 1749.66 840.813 1751.23 852.55 L 1517.38 852.731 C 1502.12 852.791 1426.75 851.809 1416.62 855.236 C 1417.7 843.994 1421.09 831.8 1424 820.827 z"/>
<path transform="translate(0,0)" fill="rgb(252,238,210)" d="M 294.014 1601.16 C 290.463 1575.06 296.262 1547.81 327.762 1544.39 C 342.857 1542.76 359.416 1543.71 374.727 1543.74 L 459.812 1543.79 L 546.618 1543.74 C 565.436 1543.72 596.425 1540.48 611.691 1552.05 C 627.699 1564.19 628.924 1583.69 626.632 1602.03 C 623.843 1613.06 620.836 1619.52 616.14 1629.92 C 582.528 1628.98 546.236 1629.79 512.292 1629.75 L 305.164 1629.93 C 298.973 1619.68 296.754 1612.64 294.014 1601.16 z"/>
<path transform="translate(0,0)" fill="rgb(242,204,158)" d="M 294.014 1601.16 C 302.639 1602.44 316.767 1602.06 325.795 1602.09 L 377.984 1602.19 L 553.815 1602.36 C 575.25 1602.4 606.549 1601.06 626.632 1602.03 C 623.843 1613.06 620.836 1619.52 616.14 1629.92 C 582.528 1628.98 546.236 1629.79 512.292 1629.75 L 305.164 1629.93 C 298.973 1619.68 296.754 1612.64 294.014 1601.16 z"/>
<path transform="translate(0,0)" fill="rgb(252,238,210)" d="M 1707.57 1764.02 C 1747.88 1763.58 1788.19 1763.44 1828.51 1763.61 C 1840.31 1763.69 1852.12 1763.76 1863.93 1763.69 C 1871.1 1763.65 1876.79 1764.02 1882.47 1768.99 C 1887.46 1773.35 1889.5 1777.09 1890.12 1783.59 C 1891.26 1792.1 1890.54 1803.69 1890.89 1810.8 C 1893.83 1870.59 1883.77 1868.21 1829.53 1867.32 C 1823.67 1867.23 1812.03 1867.33 1805.14 1867.33 C 1766.44 1867.67 1727.73 1867.66 1689.02 1867.29 C 1673.86 1867.16 1644.71 1866.23 1630.8 1867.94 C 1639.35 1861.94 1646.31 1856.62 1654.32 1849.82 C 1658.81 1846.01 1665.99 1837.72 1670.04 1834.79 C 1688.62 1811.49 1699.7 1793.36 1707.57 1764.02 z"/>
<path transform="translate(0,0)" fill="rgb(242,204,158)" d="M 1890.12 1783.59 C 1891.26 1792.1 1890.54 1803.69 1890.89 1810.8 C 1893.83 1870.59 1883.77 1868.21 1829.53 1867.32 C 1823.67 1867.23 1812.03 1867.33 1805.14 1867.33 C 1766.44 1867.67 1727.73 1867.66 1689.02 1867.29 C 1673.86 1867.16 1644.71 1866.23 1630.8 1867.94 C 1639.35 1861.94 1646.31 1856.62 1654.32 1849.82 C 1658.81 1846.01 1665.99 1837.72 1670.04 1834.79 C 1672.86 1837.23 1675.2 1837.17 1678.78 1837.13 C 1740.61 1836.59 1802.43 1836.94 1864.25 1836.84 C 1872.78 1836.83 1881.19 1835.61 1889.52 1833.9 C 1889.66 1818.76 1888.91 1797.91 1890.12 1783.59 z"/>
<path transform="translate(0,0)" fill="rgb(252,238,210)" d="M 1553.12 1543.73 C 1570.56 1542.1 1595.89 1543.61 1614.34 1543.51 C 1635.91 1543.35 1657.48 1543.32 1679.06 1543.43 C 1691.15 1543.47 1705.95 1542.33 1717.51 1544.65 C 1749.11 1550.99 1754 1574.74 1749.56 1601.42 C 1746.86 1613.24 1744.7 1618.97 1739.23 1629.8 C 1722.21 1629.85 1705.18 1629.8 1688.16 1629.66 C 1682.33 1620.59 1676.91 1613.38 1670.13 1604.96 C 1636.14 1567.54 1602.72 1552.05 1553.12 1543.73 z"/>
<path transform="translate(0,0)" fill="rgb(242,204,158)" d="M 1670.13 1604.96 C 1685.39 1600.8 1731.38 1603.25 1749.56 1601.42 C 1746.86 1613.24 1744.7 1618.97 1739.23 1629.8 C 1722.21 1629.85 1705.18 1629.8 1688.16 1629.66 C 1682.33 1620.59 1676.91 1613.38 1670.13 1604.96 z"/>
<path transform="translate(0,0)" fill="rgb(252,238,210)" d="M 1700.97 1655 C 1728.9 1655.36 1758.5 1653.61 1785.86 1655.91 C 1809.59 1657.91 1807.61 1690.55 1807.1 1706.95 C 1806.78 1717.45 1806.94 1728.08 1806.8 1738.56 L 1713.02 1738.32 C 1713.79 1714.12 1712.14 1676.99 1700.97 1655 z"/>
<path transform="translate(0,0)" fill="rgb(252,238,210)" d="M 1414.44 1594.94 C 1419.09 1531.47 1463.44 1544.27 1509.67 1542.91 L 1510.28 1546.34 C 1469.63 1553.89 1444.97 1567.58 1414.44 1594.94 z"/>
<path transform="translate(0,0)" fill="rgb(170,167,166)" d="M 1509.67 1542.91 C 1517.8 1542.72 1522.12 1542.95 1530.23 1543.74 C 1524.04 1544.55 1516.38 1545.78 1510.28 1546.34 L 1509.67 1542.91 z"/>
<path transform="translate(0,0)" fill="rgb(108,112,109)" fill-opacity="0.0117647" d="M 123.174 1705.66 C 122.173 1702.88 123.004 1704.12 119.847 1702.43 C 121.43 1701.01 122.909 1699.84 124.567 1698.52 L 122.191 1698.05 L 121.854 1696.93 C 124.835 1693.77 123.331 1694.12 126.459 1693.74 L 128.393 1696.1 C 127.562 1701.85 125.505 1697.43 123.706 1705.27 L 123.174 1705.66 z"/>
<path transform="translate(0,0)" fill="rgb(2,0,3)" fill-opacity="0.0235294" d="M 663.658 306.463 L 664.979 307.833 C 663.745 311.025 660.416 312.74 657.494 314.242 C 657.1 314.271 656.706 314.299 656.313 314.327 L 656.254 313.312 C 659.761 310.679 660.635 309.719 663.658 306.463 z"/>
</svg>