<svg version="1.1" xmlns="http://www.w3.org/2000/svg" viewBox="-0.51 121.74 2069.30 1800.20" width="256" height="222.72">
<defs>
	<linearGradient id="Gradient1" gradientUnits="userSpaceOnUse" x1="1022" y1="1786.14" x2="1021.95" y2="1653.99">
		<stop class="stop0" offset="0" stop-opacity="1" stop-color="rgb(194,143,103)"/>
		<stop class="stop1" offset="1" stop-opacity="1" stop-color="rgb(214,172,129)"/>
	</linearGradient>
	<linearGradient id="Gradient2" gradientUnits="userSpaceOnUse" x1="1531.78" y1="852.142" x2="1455.45" y2="604.107">
		<stop class="stop0" offset="0" stop-opacity="1" stop-color="rgb(135,163,87)"/>
		<stop class="stop1" offset="1" stop-opacity="1" stop-color="rgb(174,198,120)"/>
	</linearGradient>
	<linearGradient id="Gradient3" gradientUnits="userSpaceOnUse" x1="1508.79" y1="733.481" x2="1414.51" y2="310.061">
		<stop class="stop0" offset="0" stop-opacity="1" stop-color="rgb(153,180,98)"/>
		<stop class="stop1" offset="1" stop-opacity="1" stop-color="rgb(187,208,140)"/>
	</linearGradient>
	<linearGradient id="Gradient4" gradientUnits="userSpaceOnUse" x1="537.419" y1="690.267" x2="640.531" y2="320.08">
		<stop class="stop0" offset="0" stop-opacity="1" stop-color="rgb(139,170,82)"/>
		<stop class="stop1" offset="1" stop-opacity="1" stop-color="rgb(197,215,151)"/>
	</linearGradient>
</defs>
<path transform="translate(0,0)" fill="rgb(68,67,69)" d="M 196.835 671.798 C 126.257 576.818 76.1314 443.43 86.4225 323.991 C 96.1914 210.611 234.911 203.842 320.991 204.243 C 552.947 205.323 795.247 311.299 934.723 500.735 C 961.005 536.551 984.431 574.379 1004.78 613.868 C 1010.08 623.969 1018.14 638.469 1022.42 648.709 C 1026.91 634.959 1038.2 615.194 1044.94 601.968 C 1174.34 348.115 1458.56 198.378 1739.43 205.062 C 1786.22 206.175 1825.64 208.303 1871.63 221.58 C 1992.15 256.37 1961.19 414.778 1931.88 505.613 C 1879.63 667.5 1752.99 802.865 1601.12 878.401 C 1509.47 923.283 1409.77 949.385 1307.89 955.173 C 1283.49 955.262 1260.94 956.386 1236.3 955.334 C 1205.2 954.711 1174.22 951.251 1143.75 944.996 C 1134.66 943.183 1118.22 937.572 1111.36 936.734 C 1109.81 940.517 1140.33 1100.85 1140.37 1124.55 C 1140.41 1143.36 1148.38 1194.22 1149.82 1214.99 C 1159.06 1347.79 1155.17 1478.61 1146.39 1611.19 C 1149.16 1614.26 1166.44 1616.54 1171.3 1617.67 C 1202.3 1624.89 1226.66 1632.1 1256.54 1642.51 C 1321.94 1665.29 1392.2 1706.44 1439.27 1757.75 C 1453.58 1773.35 1470.45 1793.38 1468.65 1816.16 C 1467.96 1824.94 1464.25 1830.43 1457.37 1835.84 C 1448.61 1842.73 1415 1841.19 1402.89 1841.51 C 1343.67 1843.06 1284.08 1841.8 1224.83 1841.87 L 874.77 1841.96 C 856.927 1841.95 839.042 1841.8 821.205 1841.91 C 781.557 1842.15 742.392 1839.94 702.717 1839.91 L 637.693 1840.13 C 612.778 1840.25 594.349 1845.3 577.507 1823.67 C 577.356 1822.45 577.215 1821.23 577.085 1820.01 C 574.906 1799.42 586.772 1780.13 599.729 1764.81 C 660.239 1693.26 765.069 1641.87 855.285 1620.26 C 865.796 1617.75 884.898 1612.97 894.511 1611.97 C 911.447 1522.88 931.984 1434.58 938.372 1343.87 C 939.372 1329.67 943.356 1314.87 944.109 1300.41 C 945.028 1282.79 945.303 1265.17 946.428 1247.56 C 947.665 1227.82 951.586 1208.66 951.963 1188.85 C 953.023 1134.4 952.449 1079.94 950.243 1025.52 C 949.427 1007.53 948.362 989.558 947.047 971.6 C 946.214 960.204 944.479 946.485 945.23 935.219 C 914.086 938.905 881.653 949.112 850.514 952.665 C 819.512 956.202 780.558 956.945 749.021 955.752 C 601.385 950.17 452.126 900.467 333.896 811.238 C 295.594 782.332 268.314 755.324 235.804 720.837 C 222.453 705.015 208.788 688.682 196.835 671.798 z"/>
<path transform="translate(0,0)" fill="rgb(161,188,111)" d="M 151.437 449.933 C 141.638 416.137 132.329 334.806 149.492 303.23 C 173.18 259.647 258.204 258.67 304.152 257.836 C 440.102 254.757 574.28 289.13 692.005 357.193 C 831.597 438.048 949.867 569.31 990.975 727.506 C 992.741 734.304 998.099 755.372 997.773 761.442 C 1000.36 776.914 1001.85 805.095 999.5 820.535 L 998.091 821.822 C 984.901 808.876 974.6 794.957 962.715 780.88 C 946.695 762.232 930.308 743.903 913.564 725.904 C 832.593 639.792 746.849 574.414 635.438 531.663 C 614.117 523.481 594.532 515.61 572.162 510.924 C 708.715 595.962 830.632 702.502 933.203 826.426 C 944.337 840.066 954.879 854.179 964.8 868.726 C 963.871 869.162 962.932 869.578 961.985 869.973 C 823.866 928.583 647.448 907.532 511.625 851.977 C 367.411 792.991 238.018 675.587 177.926 530.185 C 176.335 524.441 171.743 514.109 169.624 508.011 C 163.335 489.917 155.057 468.695 151.437 449.933 z"/>
<path transform="translate(0,0)" fill="url(#Gradient4)" d="M 151.437 449.933 C 141.638 416.137 132.329 334.806 149.492 303.23 C 173.18 259.647 258.204 258.67 304.152 257.836 C 440.102 254.757 574.28 289.13 692.005 357.193 C 831.597 438.048 949.867 569.31 990.975 727.506 C 992.741 734.304 998.099 755.372 997.773 761.442 C 995.58 769.327 999.762 789.667 999.199 798.117 C 998.565 807.637 998.29 808.307 998.932 818.208 L 997.247 818.285 C 991.804 814.167 988.931 808.154 984.579 803.485 C 975.668 793.923 968.046 783.626 959.392 773.623 C 947.921 760.54 936.337 747.557 924.641 734.675 C 913.573 722.51 905.871 715.577 896.426 701.126 L 895.42 699.571 C 893.644 700.742 894.541 700.393 892.8 700.786 C 883.992 684.888 858.463 666.751 854.422 659.044 C 858.25 657.769 857.861 658.517 860.184 655.904 C 860.466 650.132 851.447 633.683 851.502 626.12 C 851.538 621.122 849.931 620.598 846.873 618.073 C 844.542 611.79 852.645 601.565 845.394 595.809 C 842.644 597.963 845.27 601.541 842.255 604.664 C 837.339 601.418 834.893 586.738 832.368 583.925 C 825.181 575.919 801.483 577.249 793.605 569.611 C 787.037 563.243 780.407 564.312 773.063 559.739 C 770.049 557.862 773.356 557.665 770.268 555.011 C 766.645 556.355 765.124 557.34 761.356 556.555 C 754.016 550.5 742.625 545.245 734.209 539.034 C 734.168 536.76 734.024 534.982 733.836 532.729 C 732.202 533.836 730.818 534.637 729.106 535.624 C 725.108 535.135 726.373 535.31 722.763 532.331 C 721.299 533.147 721.898 532.749 720.474 533.827 L 719.442 534.622 L 718.578 533.957 C 719.238 530.389 719.908 528.025 719.539 524.386 L 718.05 523.866 C 716.191 526.744 716.269 530.001 715.818 533.626 L 714.167 533.538 C 713.165 530.629 713.826 531.557 711.734 529.457 C 703.844 536.551 703.048 531.266 696.35 531.39 C 692.971 529.006 686.822 526.853 685.75 524.342 C 689.894 523.114 689.592 523.939 691.618 521.17 L 691.137 518.9 C 688.405 518.095 689.15 518.754 687.431 516.93 L 690.38 514.469 C 690.628 509.959 685.685 507.44 683.369 501.574 C 685.056 499.183 685.532 498.72 686.644 495.96 C 683.088 491.295 681.287 492.533 676.023 492.658 C 672.589 492.739 671.433 486.959 669.623 483.959 L 658.571 485.699 C 656.637 483.035 654.672 480.395 652.674 477.779 C 649.037 478.069 648.227 478.094 644.605 477.81 C 643.01 475.272 641.347 472.86 639.659 470.386 C 636.116 468.824 632.222 471.051 630.497 470.685 C 627.264 469.999 622.914 462.426 619.349 462.336 C 617.084 464.422 616.431 465.093 613.808 466.826 C 611.143 466.09 607.428 461.719 605.274 459.553 C 599.172 458.569 590.68 456.455 584.46 454.945 C 582.825 454.548 582.411 452.477 581.647 450.69 C 569.821 453.673 574.035 452.085 562.773 448.196 C 561.96 447.915 552.589 450.389 551.214 449.259 C 548.641 447.145 547.475 445.513 544.453 444.707 C 537.61 449.578 537.299 447.433 529.506 444.808 L 527.648 447.592 C 511.441 445.856 493.894 446.536 478.791 452.535 C 474.489 454.244 466.614 457.411 462.356 457.917 C 459.135 458.299 460.02 458.499 456.741 461.651 C 443.665 461.746 434.253 469.353 420.953 469.205 C 420.872 471.147 421.034 470.224 420.507 471.981 L 419.526 469.849 C 416.347 473.063 412.445 470.745 404.501 472.516 L 403.535 473.833 L 401.658 471.482 C 399.808 472.512 397.497 473.798 394.725 475.34 C 384.09 474.598 371.41 474.141 361.02 474.39 C 353.062 468.02 355.02 473.358 348.029 472.385 C 343.981 471.821 335.19 468.309 330.994 466.826 C 321.784 469.736 327.493 467.474 320.605 467.541 C 308.777 467.656 299.978 460.654 290.605 458.676 C 274.01 455.173 237.52 418.965 223.921 418.836 L 222.468 421.245 C 214.578 418.33 210.963 418.876 202.82 422.705 C 187.004 430.269 174.944 443.938 169.409 460.573 C 167.911 465.215 168.265 466.275 165.135 470.258 L 163.875 470.257 C 160.861 466.825 161.041 462.363 158.785 457.237 C 158.206 457.624 157.627 458.011 157.048 458.398 L 155.385 459.584 C 154.254 455.138 153.999 453.677 151.437 449.933 z"/>
<path transform="translate(0,0)" fill="rgb(228,236,206)" d="M 341.858 327.424 C 356.877 326.858 371.916 327.716 386.773 329.985 C 414.821 334.184 443.215 342.647 460.579 366.243 C 461.723 374.416 461.859 376.305 461.445 384.462 C 444.48 408.257 414.904 411.542 387.75 412.294 C 382.342 412.439 376.931 412.468 371.521 412.383 C 341.926 411.722 299.391 406.425 276.963 383.671 C 268.521 375.105 268.747 366.622 269.171 355.78 L 269.853 354.978 C 288.84 333.018 314.286 329.292 341.858 327.424 z"/>
<path transform="translate(0,0)" fill="rgb(134,161,86)" d="M 177.926 530.185 C 186.107 531.554 188.292 536.592 193.529 543.853 C 205.741 560.786 218.115 578.621 231.356 594.787 C 311.799 692.315 417.889 765.43 537.665 805.888 C 573.982 818.513 608.63 829.08 649.705 836.114 C 740.87 851.727 840.882 849.659 931.174 828.163 C 931.77 828.021 932.739 826.915 933.203 826.426 C 944.337 840.066 954.879 854.179 964.8 868.726 C 963.871 869.162 962.932 869.578 961.985 869.973 C 823.866 928.583 647.448 907.532 511.625 851.977 C 367.411 792.991 238.018 675.587 177.926 530.185 z"/>
<path transform="translate(0,0)" fill="url(#Gradient3)" d="M 1044.71 822.649 C 1044.33 787.016 1047.02 749.19 1056.58 714.817 C 1096.63 570.843 1212.37 441.477 1337.61 365.942 C 1455.36 295.474 1590.01 258.247 1727.24 258.222 C 1738.51 258.304 1779.92 258.505 1788.7 260.675 C 1835.62 263.605 1894.23 272.148 1902.7 328.169 C 1909.28 389.528 1895.47 459.833 1870.58 516.078 C 1860.72 546.868 1844.52 575.587 1827.79 603.853 C 1689.39 837.686 1370.6 956.075 1111.53 882.06 C 1099.71 878.683 1088.18 873.089 1076.72 868.623 C 1102.56 834.9 1130.02 802.441 1158.99 771.361 C 1168.87 760.751 1184.14 744.21 1194.71 734.801 C 1197.24 730.872 1220.19 708.993 1224.91 704.439 C 1280.57 650.752 1340.57 601.223 1403.81 556.705 C 1430.03 538.252 1459.48 516.497 1486.9 500.242 C 1468.78 507.267 1450.58 514.059 1432.29 520.614 L 1430.78 521.368 C 1418.48 527.416 1398.49 534.45 1384.97 540.455 C 1353.54 554.639 1323.06 570.864 1293.74 589.025 C 1273.76 601.599 1254.37 615.091 1235.63 629.457 C 1230.3 633.52 1213.9 647.649 1209.69 650.184 C 1198.7 660.915 1184.93 672.143 1173.33 683.17 C 1151.82 703.762 1131.08 725.133 1111.13 747.24 C 1098.89 760.346 1086.95 773.726 1075.3 787.369 C 1067.24 796.988 1053.51 814.85 1044.71 822.649 z"/>
<path transform="translate(0,0)" fill="url(#Gradient2)" d="M 1194.71 734.801 L 1196.35 735.794 C 1196.99 739.473 1193.52 746.394 1191.88 750.137 C 1186.68 751.338 1183.89 751.804 1182.08 757.141 C 1183.96 760.16 1182.71 758.974 1186.16 760.577 C 1187.07 759.985 1187.99 759.393 1188.9 758.802 L 1189.22 761.946 C 1194.47 766.187 1199.89 760.024 1210.45 761.729 C 1221.22 763.467 1234.58 764.704 1245.61 766.271 C 1249.16 766.776 1254.45 766.199 1257.84 766.589 C 1259.42 766.77 1266.71 771.85 1267.93 772.549 C 1269.17 772.498 1278.09 771.02 1278.13 771.044 C 1289.76 778.322 1298.43 773.83 1311.07 772.514 C 1319.86 771.599 1328.44 769.82 1337.49 769.81 L 1339.37 766.375 C 1347.65 765.548 1352.9 764.993 1361.01 762.648 C 1364.19 761.73 1374.96 758.875 1377.77 759.017 C 1387.63 759.52 1388.9 751.802 1398.63 754.742 C 1405.11 756.61 1412.85 749.679 1419.53 749.782 C 1433.8 749.104 1448.91 743.867 1462.73 741.521 C 1486.93 737.416 1509.45 734.622 1531.29 722.445 C 1541.64 716.679 1553.13 716.057 1561.7 706.207 C 1562.17 705.668 1572 703.697 1573.25 702.58 C 1580.65 698.7 1587.49 693.756 1594.71 689.567 C 1600.44 686.247 1600.67 686.101 1606.59 688.028 C 1611 686.43 1612.7 680.361 1616.37 679.472 C 1625.35 677.183 1633.27 677.044 1642.21 673.911 C 1654.84 669.487 1663.75 654.988 1672.08 645.039 C 1675.36 641.128 1677.12 635.919 1681.02 632.366 L 1684.67 633.094 L 1686.45 631.151 L 1686.03 628.04 C 1689.75 622.703 1696.72 618.332 1700.41 613.933 C 1702.07 611.953 1702.3 607.109 1705.95 602.381 C 1709.16 600.805 1709.69 600.818 1712.07 598.087 C 1712.38 581.696 1729.94 575.469 1730.46 561.323 C 1732.53 558.002 1739 555.349 1742.92 553.366 L 1743.26 549.593 C 1748.13 545.294 1753.11 541.338 1758 537.323 C 1765.28 531.34 1774.96 534.967 1780.27 525.398 C 1781.04 524.008 1784.05 520.083 1785.02 518.477 C 1785.2 518.181 1792.96 516.686 1792.93 516.716 C 1802.61 507.685 1812.92 499.419 1823.27 491.184 C 1823.33 491.142 1829.72 491.232 1830.51 491.049 C 1840.49 488.714 1852.01 491.567 1861.78 488.058 C 1862.15 487.925 1862.53 487.791 1862.9 487.657 C 1871.2 490.281 1867.65 494.889 1870.17 497.186 L 1872.42 495.189 L 1874.61 496.15 C 1876.97 494.25 1873.35 492.391 1875.55 489.149 C 1879.46 497.557 1870 505.695 1870.58 516.078 C 1860.72 546.868 1844.52 575.587 1827.79 603.853 C 1689.39 837.686 1370.6 956.075 1111.53 882.06 C 1099.71 878.683 1088.18 873.089 1076.72 868.623 C 1102.56 834.9 1130.02 802.441 1158.99 771.361 C 1168.87 760.751 1184.14 744.21 1194.71 734.801 z"/>
<path transform="translate(0,0)" fill="rgb(161,188,111)" d="M 1209.69 650.184 L 1209.54 648.254 C 1220.47 635.079 1237.77 623.406 1250.74 611.918 C 1253.37 609.592 1258.21 606.969 1260.43 604.968 C 1261.79 603.75 1262.86 600.528 1265.49 597.579 C 1267.83 598.26 1267.67 598.18 1270.04 597.511 C 1272.35 594.671 1272.28 594.048 1273.01 590.536 L 1273.22 589.506 L 1274.21 589.401 L 1275.53 592.517 C 1276.63 591.397 1276.82 590.934 1277.5 589.547 C 1278.14 589.514 1284.11 589.214 1284.11 589.214 C 1294.65 582.792 1305.2 575.275 1316.3 570.058 C 1353.8 552.422 1391.46 533.916 1430.47 519.618 L 1432.29 520.614 L 1430.78 521.368 C 1418.48 527.416 1398.49 534.45 1384.97 540.455 C 1353.54 554.639 1323.06 570.864 1293.74 589.025 C 1273.76 601.599 1254.37 615.091 1235.63 629.457 C 1230.3 633.52 1213.9 647.649 1209.69 650.184 z"/>
<path transform="translate(0,0)" fill="rgb(161,188,111)" d="M 1902.7 328.169 C 1901.78 329.38 1900.99 330.001 1899.88 331.052 C 1896.99 331.513 1878.92 326.112 1873.56 325.015 C 1861.13 322.406 1848.6 320.341 1835.99 318.828 C 1826.59 317.761 1815.47 317.176 1806.38 315.356 L 1806.81 314.855 C 1821.8 314.9 1880.91 322.747 1893.35 328.896 L 1895.07 327.82 C 1896.14 321.682 1891.07 314.386 1891.55 309.771 C 1893.61 310.544 1892.93 310.24 1894.71 311.07 L 1895.84 311.609 C 1890.28 305.252 1886.31 293.223 1880.89 288.739 C 1860.1 271.538 1832.36 268.188 1806.68 264.549 C 1795.35 262.942 1794.32 261.736 1782.73 261.457 C 1785.51 260.3 1785.62 260.55 1788.7 260.675 C 1835.62 263.605 1894.23 272.148 1902.7 328.169 z"/>
<path transform="translate(0,0)" fill="rgb(228,236,206)" d="M 1681.63 328.438 C 1707.15 327.491 1738.76 328.912 1760.73 343.821 C 1774.78 353.354 1777.29 369.924 1765.74 382.561 C 1744.54 405.743 1704.58 410.335 1675.25 412.888 C 1647.7 413.806 1615.39 413.972 1591.96 397.233 C 1577.4 386.836 1576.04 370.522 1588.42 357.704 C 1611.18 334.152 1650.85 330.113 1681.63 328.438 z"/>
<path transform="translate(0,0)" fill="url(#Gradient1)" d="M 1003.64 1652.45 C 1125.73 1644.32 1311.04 1697.14 1395.53 1789.44 C 1382.9 1787.39 1366.23 1787.78 1353.22 1787.64 L 1287.11 1787.17 L 1046.5 1787.14 L 789.063 1787.08 C 744.602 1787.19 694.494 1785.94 650.532 1788.54 C 651.508 1787.39 652.51 1786.25 653.537 1785.14 C 661.186 1776.78 673.49 1766.71 682.766 1759.55 C 752.537 1705.73 840.485 1674.32 926.597 1659.31 C 951.17 1655.03 978.974 1653.65 1003.64 1652.45 z"/>
<path transform="translate(0,0)" fill="rgb(161,188,111)" d="M 995.984 910.608 C 998.202 909.649 1004.34 906.941 1005.4 906.043 C 1023.24 891.048 1020.45 891.733 1038.81 905.359 C 1040.19 906.385 1046.35 908.507 1048.95 910.272 C 1055.58 929.186 1060.98 971.35 1064.7 992.023 C 1089.91 1125.41 1102.12 1260.92 1101.17 1396.67 C 1101.15 1427.32 1100.21 1457.97 1098.34 1488.57 C 1097.57 1503.09 1096.95 1522.58 1095.02 1536.82 C 1095.2 1553.73 1092.69 1586.69 1090.96 1603.79 C 1042.84 1598.72 1001.45 1599.79 953.498 1601.22 C 954.37 1587.65 963.24 1548.11 966.65 1533.41 C 972.853 1498.3 979.34 1465.66 984.271 1430.16 C 1002.03 1298.09 1008.51 1164.75 1003.63 1031.58 C 1002.29 995.508 1001.14 945.909 995.984 910.608 z"/>
<path transform="translate(0,0)" fill="rgb(134,161,86)" d="M 966.65 1533.41 C 992.907 1554.1 1012.35 1566.83 1047.04 1561.9 C 1063.38 1559.57 1091.24 1555.92 1095.02 1536.82 C 1095.2 1553.73 1092.69 1586.69 1090.96 1603.79 C 1042.84 1598.72 1001.45 1599.79 953.498 1601.22 C 954.37 1587.65 963.24 1548.11 966.65 1533.41 z"/>
<path transform="translate(0,0)" fill="rgb(5,0,6)" fill-opacity="0.0392157" d="M 1499.47 925.857 C 1501.31 925.859 1500.72 925.86 1502.54 926.577 C 1500.21 928.593 1492.49 930.214 1488.74 931.667 L 1485 930.885 L 1485.95 929.744 C 1491.49 928.724 1494.2 928.145 1499.47 925.857 z"/>
<path transform="translate(0,0)" fill="rgb(5,0,6)" fill-opacity="0.0235294" d="M 1516.26 921.358 C 1517.18 921.422 1516.68 921.267 1517.6 922.178 C 1514.99 924.114 1512.51 924.276 1509.29 924.932 L 1507.55 924.946 L 1507.28 924.004 C 1510.84 922.032 1512.13 922.063 1516.26 921.358 z"/>
</svg>