<svg version="1.1" xmlns="http://www.w3.org/2000/svg" viewBox="30.09 -6.92 1998.53 2101.95" width="243.46" height="256">
<path transform="translate(0,0)" fill="rgb(63,61,65)" d="M 778.459 305.952 C 819.16 264.987 861.541 224.839 902.554 183.633 C 922.635 163.231 942.926 143.038 963.424 123.056 C 973.268 113.471 983.741 102.063 994.636 93.915 C 1025.36 70.9329 1045.66 84.1298 1069.63 104.98 C 1074.37 109.737 1097.13 132.099 1101.84 135.281 C 1115.08 148.63 1133.4 166.46 1147.57 178.858 C 1154.71 186.728 1163.16 195.056 1170.83 202.438 C 1199.51 230.017 1227.42 259.724 1256.9 286.357 L 1275.15 303.851 C 1302.39 328.609 1328.36 356.447 1355.21 381.79 C 1359.36 385.703 1381.18 408.243 1384.14 410.191 C 1388.92 415.265 1419.85 445.372 1424.13 448.313 L 1497.11 520.093 C 1509.37 532.108 1525.22 548.464 1538.01 559.249 C 1546.52 568.005 1555.11 575.551 1563.32 583.886 C 1596.01 613.134 1627.9 649.216 1660.4 679.192 C 1665.76 684.137 1683.8 703.122 1688.24 706.273 C 1707.02 724.463 1729.73 745.254 1747.66 763.744 C 1771.43 787.094 1801.74 818.501 1826.1 840.209 C 1831.91 845.202 1847.24 861.154 1852.3 864.231 C 1868.53 879.902 1884.85 895.154 1900.03 911.842 C 1950.77 976.049 1909.57 1024.87 1857.81 1070.18 C 1841.37 1084.56 1815.84 1091.02 1794.52 1087.52 C 1768.53 1083.02 1753.12 1071.4 1736.37 1051.52 C 1727.41 1133.85 1717.44 1216.06 1706.48 1298.15 C 1700.95 1339.72 1694.58 1382.01 1689.39 1423.49 L 1675.43 1544.17 C 1671.93 1574.13 1668.75 1604.55 1661.46 1633.87 C 1657.82 1648.53 1652.44 1658.51 1642.15 1669.41 C 1630.4 1673.07 1547.95 1674.69 1533.65 1673.65 C 1557.81 1713.74 1562.88 1769.88 1551.45 1814.91 C 1509.26 1981.04 1279.58 2017.18 1189.77 1869.48 C 1183.54 1859.23 1177.49 1846.29 1173.88 1834.89 L 999.807 1834.04 C 1000.64 1858.29 1002.09 1875 984.421 1893.96 C 959.973 1920.2 925.18 1915.41 907.162 1884.71 C 885.343 1910.75 865.49 1922.44 834.469 1898.27 C 814.49 1882.7 816.182 1857.65 817.148 1835.25 C 774.727 1828.72 750.791 1802.61 756.367 1757.57 C 759.653 1731.03 786.312 1707.89 812.467 1706.29 C 846.93 1704.02 881.512 1705.98 915.937 1706.07 L 1076.68 1706.12 C 1107.14 1706.12 1140.73 1706.8 1170.97 1705.87 C 1175.13 1692.13 1176.84 1686.69 1184.4 1674.74 C 1132.77 1676.42 1072.97 1674.91 1020.77 1674.95 C 903.379 1675.48 785.986 1675.28 668.597 1674.35 L 493.087 1672.49 C 471.259 1672.22 428.353 1674.14 409.245 1670.3 C 396.958 1660.81 390.191 1652.61 387.513 1636.89 C 375.879 1568.58 369.41 1497.82 361.207 1428.99 C 354.831 1378.77 348.729 1328.51 342.903 1278.22 C 335.342 1208.53 325.924 1139.06 317.82 1069.43 C 317.171 1063.85 316.663 1057.31 315.634 1051.88 C 306.717 1058.52 298.65 1065.25 290.143 1072.38 C 280.432 1077.83 275.613 1080.08 265.843 1084.57 C 228.916 1091.83 205.02 1086.77 176.312 1059.45 C 140.965 1025.83 107.937 976.45 138.278 927.685 C 151.908 905.778 188.056 877.458 207.764 858.059 C 239.575 826.747 273.448 796.37 305.23 764.389 C 309.585 761.426 323.96 747.01 328.171 742.885 C 343.566 727.519 359.189 712.384 375.035 697.484 L 404.516 669.665 C 431.131 643.407 457.902 617.309 484.829 591.373 C 500.422 575.688 518.054 559.877 534.08 544.277 L 674.811 407.93 C 708.181 374.897 744.338 337.79 778.459 305.952 z"/>
<path transform="translate(0,0)" fill="rgb(251,243,224)" d="M 1022.73 382.77 C 1046.57 401.716 1069.85 425.617 1092.47 446.603 L 1238 582.727 L 1708.62 1024.14 C 1707.64 1041.21 1704.4 1074.76 1701.13 1091.4 C 1688.51 1215.12 1667.97 1339.15 1654.73 1462.94 C 1651.96 1488.89 1649.01 1515.06 1645.68 1540.94 C 1641.49 1574.63 1638.35 1612.06 1624.16 1642.89 C 1588.24 1643.84 1551.31 1643.56 1515.64 1644.99 C 1496.33 1617.91 1473.5 1602.17 1444.76 1586.74 C 1378.67 1558.56 1321.38 1560.97 1258.39 1595.35 C 1237.05 1609.7 1217.71 1624.1 1203.26 1645.8 L 1024.93 1645.69 C 1024.89 1604.83 1023.82 1549.12 1025.81 1508.92 C 1025.21 1500.17 1025.7 1486.84 1025.72 1477.55 L 1025.84 1417.48 L 1025.85 1225.28 C 1025.84 1190.89 1026.2 1156.2 1025.38 1122.08 C 1024.86 1100.74 1019.51 1093.64 998.215 1093.04 C 979.912 1092.53 960.998 1092.87 942.769 1092.89 L 833.763 1092.78 C 792.133 1092.19 750.499 1091.95 708.865 1092.05 C 687.748 1092.11 665.621 1092.01 644.531 1093.28 C 634.953 1093.86 632.829 1095.89 627.023 1103 C 624.2 1114.78 624.871 1139.55 624.89 1152.51 L 625.011 1215.57 C 625.214 1306.71 627.045 1403.68 625.186 1494.51 C 626.194 1512.86 625.702 1535.6 625.763 1554.3 L 626.09 1645.27 C 582.708 1645.15 539.327 1644.64 495.955 1643.72 C 474.016 1643.34 445.824 1643.56 424.572 1641.87 C 412.607 1622.75 407.204 1578.03 405.558 1554.86 C 388.06 1399.04 369.676 1243.33 350.407 1087.72 C 349.08 1080.38 342.381 1032.59 342.934 1027.3 C 352.23 1015.86 372.179 999.091 383.887 988.396 L 451.361 925.706 L 692.503 698.497 L 928.526 473.544 C 947.224 455.614 965.816 437.572 984.299 419.421 C 996.838 407.06 1009.09 393.965 1022.73 382.77 z"/>
<path transform="translate(0,0)" fill="rgb(242,216,181)" d="M 1022.73 382.77 C 1046.57 401.716 1069.85 425.617 1092.47 446.603 L 1238 582.727 L 1708.62 1024.14 C 1707.64 1041.21 1704.4 1074.76 1701.13 1091.4 C 1701.12 1087.98 1701.07 1086.79 1700.61 1083.41 C 1687.37 1078.15 1610.89 1009.09 1594.64 994.523 C 1477.85 888.583 1361.85 781.762 1246.67 674.07 L 1143.55 578.782 C 1112.69 550.249 1076.05 510.731 1036.78 495.28 C 1024.28 490.359 1004.41 493.098 992.922 500.434 C 962.902 519.605 937.265 546.243 911.391 570.568 C 878.293 601.309 845.377 632.246 812.647 663.377 L 456.505 993.594 L 390.347 1053.71 C 381.04 1062.18 360.38 1082.77 350.407 1087.72 C 349.08 1080.38 342.381 1032.59 342.934 1027.3 C 352.23 1015.86 372.179 999.091 383.887 988.396 L 451.361 925.706 L 692.503 698.497 L 928.526 473.544 C 947.224 455.614 965.816 437.572 984.299 419.421 C 996.838 407.06 1009.09 393.965 1022.73 382.77 z"/>
<path transform="translate(0,0)" fill="rgb(242,216,181)" d="M 625.186 1494.51 C 626.194 1512.86 625.702 1535.6 625.763 1554.3 L 626.09 1645.27 C 582.708 1645.15 539.327 1644.64 495.955 1643.72 C 474.016 1643.34 445.824 1643.56 424.572 1641.87 C 412.607 1622.75 407.204 1578.03 405.558 1554.86 C 456.77 1587.3 564.384 1588.94 624.968 1592.32 C 624.591 1573.49 624.721 1554 624.663 1535.14 C 624.625 1522.79 624.257 1506.48 625.186 1494.51 z"/>
<path transform="translate(0,0)" fill="rgb(242,216,181)" d="M 1444.76 1586.74 C 1446.94 1585.03 1448.16 1584.47 1450.99 1584.07 C 1491.08 1578.52 1536.07 1576.14 1575.02 1565.32 C 1585.24 1562.5 1595.34 1559.26 1605.28 1555.61 C 1614.89 1552.04 1637.4 1541.15 1645.68 1540.94 C 1641.49 1574.63 1638.35 1612.06 1624.16 1642.89 C 1588.24 1643.84 1551.31 1643.56 1515.64 1644.99 C 1496.33 1617.91 1473.5 1602.17 1444.76 1586.74 z"/>
<path transform="translate(0,0)" fill="rgb(242,216,181)" d="M 1025.81 1508.92 C 1027.56 1529.94 1026.26 1571.78 1026.16 1594.08 L 1129.53 1594.91 C 1145.98 1594.89 1248.57 1591.51 1258.39 1595.35 C 1237.05 1609.7 1217.71 1624.1 1203.26 1645.8 L 1024.93 1645.69 C 1024.89 1604.83 1023.82 1549.12 1025.81 1508.92 z"/>
<path transform="translate(0,0)" fill="rgb(63,61,65)" d="M 1346.15 1017.72 C 1445.52 1014.48 1528.67 1092.46 1531.81 1191.84 C 1534.95 1291.21 1456.87 1374.28 1357.5 1377.32 C 1258.27 1380.34 1175.34 1302.41 1172.21 1203.19 C 1169.08 1103.96 1246.93 1020.96 1346.15 1017.72 z"/>
<path transform="translate(0,0)" fill="rgb(143,200,187)" d="M 1341.22 1036.13 C 1430.38 1030.01 1507.62 1097.3 1513.77 1186.45 C 1519.92 1275.61 1452.64 1352.87 1363.49 1359.04 C 1274.31 1365.21 1197.02 1297.91 1190.87 1208.72 C 1184.72 1119.54 1252.04 1042.26 1341.22 1036.13 z"/>
<path transform="translate(0,0)" fill="rgb(63,61,65)" d="M 1344.66 1063.04 C 1418.87 1058.64 1482.66 1115.1 1487.29 1189.3 C 1491.92 1263.5 1435.65 1327.45 1361.47 1332.31 C 1286.97 1337.19 1222.67 1280.63 1218.02 1206.11 C 1213.36 1131.59 1270.13 1067.47 1344.66 1063.04 z"/>
<path transform="translate(0,0)" fill="rgb(143,200,187)" d="M 1339.08 1079.1 C 1347.74 1078.88 1356.27 1079.09 1364.93 1079.25 C 1364.72 1105.49 1363.6 1159.98 1367.1 1184.9 C 1397.98 1188.33 1437.69 1186.35 1469.04 1186.28 C 1469.47 1195.53 1469.24 1203.49 1468.98 1212.7 C 1434.56 1211.64 1401.09 1212.55 1366.73 1213.18 C 1364.31 1243.15 1365.36 1276.45 1364.9 1306.57 C 1364.84 1310.62 1365.36 1314.15 1362.97 1316.47 C 1355.25 1316.61 1346.89 1316.29 1339.12 1316.14 C 1338.84 1302.9 1339.49 1288.72 1339.46 1275.3 C 1339.31 1254.89 1338.77 1234.48 1337.83 1214.08 C 1302.68 1213.32 1270.62 1213.64 1235.6 1213.93 C 1234.98 1205.02 1235.03 1196.72 1235.02 1187.8 C 1268.36 1185.93 1304.02 1187.61 1338.51 1185.79 C 1340.04 1150.24 1340.23 1114.66 1339.08 1079.1 z"/>
<path transform="translate(0,0)" fill="rgb(209,230,234)" d="M 1382.11 1084.3 C 1390.33 1086.52 1398.27 1089.69 1405.75 1093.76 C 1436.17 1110.22 1454.36 1136.27 1464.1 1169.03 L 1382.34 1169.74 C 1381.76 1141.76 1382.11 1112.39 1382.11 1084.3 z"/>
<path transform="translate(0,0)" fill="rgb(209,230,234)" d="M 1320.28 1085.14 L 1321.49 1086.2 C 1322.21 1090.88 1322 1095.64 1321.98 1100.37 C 1321.86 1123.54 1322.36 1146.81 1321.12 1169.96 C 1295.12 1170.27 1269.11 1170.21 1243.11 1169.78 L 1241.79 1169.16 C 1240.79 1165.09 1245.83 1153.42 1247.86 1149.34 C 1264.55 1115.92 1285.99 1097.7 1320.28 1085.14 z"/>
<path transform="translate(0,0)" fill="rgb(209,230,234)" d="M 1382.4 1229.86 C 1408.68 1229.15 1437.77 1229.85 1464.18 1230.01 C 1457.46 1250.56 1448.23 1265.96 1433.25 1281.51 C 1418.26 1295.49 1402.16 1304.29 1382.86 1310.8 C 1382.07 1285.4 1381.8 1255.2 1382.4 1229.86 z"/>
<path transform="translate(0,0)" fill="rgb(209,230,234)" d="M 1240.5 1230.46 C 1267.61 1230.75 1294.72 1230.81 1321.83 1230.66 C 1322.1 1256.69 1321.3 1284.31 1320.95 1310.41 C 1312.08 1311.23 1289.44 1295.79 1282.17 1290.76 C 1266.86 1280.16 1242.87 1248.7 1240.5 1230.46 z"/>
<path transform="translate(0,0)" fill="rgb(221,127,106)" d="M 167.635 1001.09 C 158.81 986.994 153.573 974.781 157.44 957.328 C 157.996 954.818 160.421 947.774 161.771 946.131 C 174.379 930.792 190.831 916.065 205.187 902.483 L 293.991 818.66 C 435.275 683.58 575.808 547.716 715.582 411.073 L 905.567 224.213 C 928.226 201.71 951.005 179.329 973.904 157.071 C 987.497 143.676 1005.54 122.805 1021.45 112.271 C 1023.99 110.592 1032.77 112.788 1035.29 114.781 C 1056.03 131.213 1078.93 154.678 1097.87 172.92 L 1262.49 332.695 L 1695.49 755.511 L 1811.98 868.593 C 1832.04 887.843 1852.75 906.807 1872.51 926.33 C 1898.9 952.411 1899.09 978.724 1876.33 1006.87 C 1867.99 1018.12 1851.17 1035.07 1841.35 1043.96 C 1829.2 1054.96 1799.28 1062.78 1786.55 1054.22 C 1757.87 1034.94 1722.33 997.397 1697.42 973.31 L 1617.15 896.755 C 1490.92 776.815 1363.9 657.716 1236.08 539.466 L 1121.32 431.686 C 1095.88 407.681 1070.8 383.459 1044.11 360.802 C 1031.76 350.318 1017.27 349.799 1004.8 360.436 C 982.82 379.193 962.316 399.845 941.402 419.797 L 826.263 529.469 L 444.323 890.038 L 350.366 977.499 C 328.282 998.347 306.939 1019.92 283.638 1039.43 C 231.563 1083.05 198.669 1041.15 167.635 1001.09 z"/>
<path transform="translate(0,0)" fill="rgb(236,173,159)" d="M 167.635 1001.09 C 158.81 986.994 153.573 974.781 157.44 957.328 C 157.996 954.818 160.421 947.774 161.771 946.131 C 174.379 930.792 190.831 916.065 205.187 902.483 L 293.991 818.66 C 435.275 683.58 575.808 547.716 715.582 411.073 L 905.567 224.213 C 928.226 201.71 951.005 179.329 973.904 157.071 C 987.497 143.676 1005.54 122.805 1021.45 112.271 C 1023.99 110.592 1032.77 112.788 1035.29 114.781 C 1056.03 131.213 1078.93 154.678 1097.87 172.92 L 1262.49 332.695 L 1695.49 755.511 L 1811.98 868.593 C 1832.04 887.843 1852.75 906.807 1872.51 926.33 C 1898.9 952.411 1899.09 978.724 1876.33 1006.87 C 1871.87 1002.25 1872.1 993.457 1869.97 986.363 C 1865.58 971.733 1850.75 956.62 1840.41 945.672 C 1813.88 917.57 1784.31 891.371 1755.95 865.078 C 1726.21 837.67 1697.24 809.457 1669.04 780.469 C 1561.74 668.63 1453.45 557.748 1344.17 447.837 C 1301.7 405.902 1258.8 364.396 1215.49 323.325 C 1186.04 294.56 1156.22 266.184 1126.03 238.204 C 1096.69 210.943 1052.44 162.888 1009.34 177.506 C 964.203 192.818 912.213 249.583 877.65 282.472 C 832.498 324.855 787.921 367.848 743.933 411.437 C 630.947 522.247 518.827 633.936 407.583 746.493 C 361.724 793.574 315.351 840.152 268.472 886.218 L 212.382 941.132 C 201.751 951.668 191.031 961.912 181.314 973.315 C 174.057 981.831 173.228 992.08 167.635 1001.09 z"/>
<path transform="translate(0,0)" fill="rgb(189,132,89)" d="M 655.213 1122.89 C 700.269 1121.21 747.393 1122.19 792.554 1122.56 C 860.332 1123.15 928.114 1123.29 995.894 1122.99 C 995.997 1131.7 996.496 1151.23 995.398 1158.98 L 994.131 1593.72 C 994.06 1610.96 994.48 1628.66 994.694 1645.94 C 960.575 1644.18 915.865 1645.36 881.076 1645.26 L 657.103 1644.95 C 657.638 1627.9 657.091 1608.54 656.994 1591.32 C 655.648 1574.78 656.144 1552.98 656.104 1536.03 L 655.924 1445.29 C 655.769 1358.48 654.895 1269.93 655.829 1183.2 C 654.429 1164.74 654.983 1141.45 655.213 1122.89 z"/>
<path transform="translate(0,0)" fill="rgb(210,159,116)" d="M 829.188 1155 C 857.78 1155.68 886.369 1156.52 914.953 1157.51 C 914.318 1185.62 912.859 1371.15 915.974 1380.19 C 921.117 1378.64 926.577 1378.48 931.804 1379.71 C 931.81 1305.75 934.051 1232.49 933.013 1158.04 C 946.191 1158.42 985.177 1156.83 995.398 1158.98 L 994.131 1593.72 C 978.913 1593.75 956.013 1596.7 939.813 1597.57 C 903.046 1599.7 866.215 1600.49 829.391 1599.95 C 828.694 1559.88 829.292 1518.63 829.266 1478.47 L 829.112 1275.42 C 829.2 1235.3 829.964 1195.11 829.188 1155 z"/>
<path transform="translate(0,0)" fill="rgb(63,61,65)" d="M 915.974 1380.19 C 921.117 1378.64 926.577 1378.48 931.804 1379.71 C 946.731 1383.23 956.738 1397.26 955.199 1412.52 C 953.661 1427.78 941.053 1439.54 925.724 1440 C 910.395 1440.47 897.093 1429.51 894.626 1414.37 C 892.158 1399.24 901.29 1384.62 915.974 1380.19 z"/>
<path transform="translate(0,0)" fill="rgb(210,159,116)" d="M 656.103 1154.85 L 709.879 1155.15 L 710.548 1470.81 L 710.718 1552.47 C 710.684 1562.34 709.868 1585.23 710.721 1594.07 C 697.411 1593.51 668.884 1590.98 656.994 1591.32 C 655.648 1574.78 656.144 1552.98 656.104 1536.03 L 655.924 1445.29 C 655.769 1358.48 654.895 1269.93 655.829 1183.2 C 656.572 1173.9 656.232 1164.21 656.103 1154.85 z"/>
<path transform="translate(0,0)" fill="rgb(210,159,116)" d="M 748.265 1153.45 C 768.092 1152.97 791.161 1153.92 811.284 1154.12 C 810.974 1199.71 810.913 1245.3 811.099 1290.89 L 810.887 1597.78 L 790.75 1597.87 C 771.659 1598.14 749.279 1596.79 729.974 1595.98 L 729.011 1153.82 C 735.276 1153.84 741.964 1153.58 748.265 1153.45 z"/>
<path transform="translate(0,0)" fill="rgb(248,192,91)" d="M 1190.39 1736.28 C 1198.85 1727.67 1201.42 1713.14 1206.04 1702.02 C 1239.78 1620.79 1331.92 1579.36 1414.35 1608.23 C 1456.72 1622.9 1491.41 1654 1510.61 1694.52 C 1529.89 1735.24 1531.97 1782.01 1516.39 1824.29 C 1500.81 1865.53 1469.49 1898.89 1429.32 1917.04 C 1388 1935.75 1340.92 1937.25 1298.49 1921.21 C 1262.5 1907.53 1228.67 1879.76 1212.13 1844.3 C 1208.15 1835.75 1200.98 1812.06 1194.93 1807.17 C 1180.71 1804.26 986.901 1803.21 974.403 1806.57 C 970.38 1810.26 968.687 1813.09 968.525 1819.71 C 968.013 1840.56 976.871 1875.66 947.965 1881.21 C 944.858 1881.8 939.197 1877.79 937.177 1875.61 C 925.944 1864.06 943.988 1843.04 918.568 1840.97 C 912.396 1840.47 889.776 1840.35 885.189 1845 C 882.588 1847.63 881.995 1848.92 881.818 1852.39 C 882.105 1862 882.591 1868.76 875.752 1876.46 C 870.11 1882.81 861.838 1880.77 856.046 1876.26 C 854.128 1874.2 852.133 1871.69 850.312 1869.5 C 847.928 1857.01 851.036 1813.98 847.817 1809.91 C 836.734 1795.91 803.876 1819.04 788.265 1779.24 C 781.806 1732.26 823.314 1736.25 854.639 1736.43 L 909.124 1736.6 L 1092.55 1736.64 C 1121.63 1736.68 1162.9 1738.1 1190.39 1736.28 z"/>
<path transform="translate(0,0)" fill="rgb(242,216,181)" d="M 1190.39 1736.28 C 1198.85 1727.67 1201.42 1713.14 1206.04 1702.02 C 1239.78 1620.79 1331.92 1579.36 1414.35 1608.23 C 1407.99 1611.31 1401.42 1609.7 1394.45 1608.95 C 1321.35 1601.08 1240.9 1651.91 1213.03 1718.99 C 1195.43 1761.35 1198.11 1754.6 1153.14 1754.16 C 1134.67 1753.95 1116.2 1753.87 1097.73 1753.93 L 896.991 1753.96 C 872.234 1753.95 838.963 1752.6 814.841 1756.22 C 803.371 1757.95 795.281 1771.99 788.265 1779.24 C 781.806 1732.26 823.314 1736.25 854.639 1736.43 L 909.124 1736.6 L 1092.55 1736.64 C 1121.63 1736.68 1162.9 1738.1 1190.39 1736.28 z"/>
<path transform="translate(0,0)" fill="rgb(210,159,116)" d="M 856.046 1876.26 C 865.171 1869.14 879.817 1864.78 881.818 1852.39 C 882.105 1862 882.591 1868.76 875.752 1876.46 C 870.11 1882.81 861.838 1880.77 856.046 1876.26 z"/>
<path transform="translate(0,0)" fill="rgb(63,61,65)" d="M 1420.48 1698.43 C 1457.4 1691.48 1492.97 1715.8 1499.89 1752.73 C 1506.8 1789.67 1482.45 1825.21 1445.51 1832.09 C 1408.62 1838.97 1373.14 1814.65 1366.23 1777.77 C 1359.32 1740.88 1383.6 1705.38 1420.48 1698.43 z"/>
<path transform="translate(0,0)" fill="rgb(251,243,224)" d="M 1424.29 1730.4 C 1443.58 1725.54 1463.14 1737.29 1467.92 1756.6 C 1472.69 1775.9 1460.86 1795.42 1441.54 1800.11 C 1422.32 1804.77 1402.96 1793.03 1398.21 1773.84 C 1393.46 1754.65 1405.12 1735.23 1424.29 1730.4 z"/>
<path transform="translate(0,0)" fill="rgb(242,216,181)" d="M 1312.79 1641.09 C 1326.27 1639.43 1341.25 1643.2 1333.29 1659.94 C 1324.15 1679.18 1308.15 1689.16 1289.09 1696.46 C 1243.22 1705.97 1277.9 1651.93 1312.79 1641.09 z"/>
<path transform="translate(0,0)" fill="rgb(242,216,181)" d="M 1252.5 1701.92 C 1271.81 1701.61 1269.3 1717.45 1254.04 1725.59 C 1248.94 1725.87 1246.36 1725.85 1242.68 1721.94 C 1239.07 1713.13 1245.57 1706.31 1252.5 1701.92 z"/>
<path transform="translate(0,0)" fill="rgb(159,160,161)" fill-opacity="0.0117647" d="M 674.811 407.93 C 673.97 404.41 674.089 402.637 675.522 399.465 C 677.318 397.942 678.107 397.406 679.542 395.562 C 670.883 396.113 667.965 411.165 656.553 411.789 C 658.258 405.475 742.582 326.925 752.167 315.143 C 757.26 308.883 777.978 292.371 785.256 286.002 L 786.411 286.309 C 784.003 294.549 764.145 307.323 758.74 314.11 C 756.222 317.272 753.882 317.697 752.636 320.295 L 753.577 321.124 C 764.908 314.261 763.694 302.595 778.459 305.952 C 744.338 337.79 708.181 374.897 674.811 407.93 z"/>
<path transform="translate(0,0)" fill="rgb(159,160,161)" fill-opacity="0.0156863" d="M 1147.57 178.858 L 1147.09 177.617 C 1146.44 175.975 1145.88 174.82 1145.11 173.246 L 1145.79 174.792 L 1146.39 173.704 C 1158.33 183.969 1180.2 208.6 1189.72 215.255 C 1189.34 213.237 1189.26 213.392 1189.87 211.341 C 1174.25 196.991 1147.66 168.731 1131.4 152.897 C 1131.14 151.754 1130.89 150.611 1130.64 149.469 L 1131.76 149.106 C 1136.06 151.966 1140.46 157.123 1143.61 161.271 L 1146.52 159.829 C 1148.91 162.075 1145.76 161.773 1150.88 166.545 C 1156.59 171.867 1163.47 176.432 1168.72 182.044 C 1171.48 184.993 1172.49 191.424 1176.06 193.127 L 1177.4 192.12 C 1179.25 194.202 1184.02 200.711 1185.48 202.072 C 1198.03 213.771 1210.9 225.642 1223.22 237.551 C 1222.85 239.84 1223.25 238.761 1221.5 240.597 C 1226.98 243.567 1223.34 238.827 1229.32 243.042 C 1233.85 246.24 1246.42 266.494 1249.27 266.743 L 1249.89 265.052 L 1253.69 269.063 L 1251.56 273.048 C 1254.36 277.538 1258.35 278.922 1260.11 283.291 C 1258.24 284.581 1258.14 284.459 1256.9 286.357 C 1227.42 259.724 1199.51 230.017 1170.83 202.438 C 1163.16 195.056 1154.71 186.728 1147.57 178.858 z"/>
<path transform="translate(0,0)" fill="rgb(129,130,130)" fill-opacity="0.0235294" d="M 1275.15 303.851 C 1289.57 304.861 1299.64 327.938 1304.32 324.115 C 1302.61 315.167 1275.49 299.084 1277.56 290.737 C 1287.36 293.065 1280.85 298.899 1292.76 301.624 C 1295.54 304.275 1295.23 302.967 1295.8 305.843 L 1294.95 307.811 C 1297.38 310.975 1305.89 315.634 1306.09 316.176 C 1310.01 327.133 1312.92 326.359 1321.67 331.627 C 1326.07 334.276 1318.08 333.415 1328.13 339.183 C 1336.79 344.158 1343.69 358.769 1354.32 365.072 L 1353.3 365.608 C 1351.74 366.449 1352.33 366.117 1350.67 367.179 C 1351.32 369.744 1350.71 368.655 1352.89 370.28 C 1356.64 369.954 1357.11 369.165 1359.5 371.427 C 1365.17 376.792 1370.63 382.843 1375.46 388.937 L 1378.32 388.549 C 1379.97 390.756 1380.64 390.998 1380.63 393.61 L 1379.21 395.625 C 1381.65 400.561 1383.76 401.181 1388.74 402.965 L 1390.44 402.706 L 1391.39 403.414 C 1395.7 406.235 1397.31 408.664 1400.68 412.554 L 1400 413.162 C 1397.82 415.139 1397.85 414.66 1396.8 417.199 C 1392.17 414.267 1389.36 409.358 1385.68 408.002 L 1384.14 410.191 C 1381.18 408.243 1359.36 385.703 1355.21 381.79 C 1328.36 356.447 1302.39 328.609 1275.15 303.851 z"/>
<path transform="translate(0,0)" fill="rgb(159,160,161)" fill-opacity="0.027451" d="M 1563.32 583.886 C 1576.3 584.623 1591.63 609.504 1596.55 609.462 C 1596.75 601.515 1568.52 582.345 1566.89 573.856 L 1567.69 573.092 C 1572.99 577.849 1569.3 576.4 1576 580.97 C 1587.72 588.97 1597.81 605.937 1611.81 612.795 C 1615.97 620.229 1627.15 634.134 1634.51 638.995 C 1638.37 641.546 1639.98 642.119 1643.18 645.672 L 1643.16 647.288 L 1640.82 648.534 L 1641.83 649.391 L 1645.23 648.247 C 1651.42 653.259 1647.62 656.867 1650.45 659.72 C 1657.61 666.942 1664.56 674.716 1672.06 681.611 C 1674.52 683.852 1675.32 679.208 1679.45 681.618 C 1679.5 683.644 1679.76 682.685 1678.56 684.463 C 1682.78 688.243 1687.06 691.955 1691.4 695.598 L 1687.6 696.014 L 1687.16 696.928 L 1691.48 702.548 C 1689.37 706.709 1690.36 701.396 1688.24 706.273 C 1683.8 703.122 1665.76 684.137 1660.4 679.192 C 1627.9 649.216 1596.01 613.134 1563.32 583.886 z"/>
<path transform="translate(0,0)" fill="rgb(129,130,130)" fill-opacity="0.027451" d="M 1424.13 448.313 C 1436.37 449.251 1446.63 468.42 1450.48 467.427 C 1447.32 457.317 1420.79 437.065 1421.62 433.417 C 1428.67 432.388 1428.09 438.826 1432.52 441.936 C 1438.34 446.017 1442.43 445.207 1444.89 453.198 C 1446.53 458.556 1451.83 457.111 1456.08 461.361 L 1458.23 468.926 C 1468.12 471.929 1474.53 481.767 1482.95 489.684 C 1480.9 490.533 1481.69 490.071 1480.44 491.002 C 1482.8 500.564 1513.67 526.083 1522.24 535.02 C 1524.08 536.938 1531.68 538.519 1534.85 542.85 L 1534.48 545.83 L 1536.6 547.509 L 1538 545.342 L 1539.93 546.234 C 1538.19 547.987 1537.46 548.55 1535.48 550.049 C 1536.93 552.945 1536.41 551.972 1538.97 554.308 L 1540.94 554.665 L 1541.57 551.998 L 1544.78 555.471 C 1539.05 559.364 1539.86 553.278 1538.01 559.249 C 1525.22 548.464 1509.37 532.108 1497.11 520.093 L 1424.13 448.313 z"/>
<path transform="translate(0,0)" fill="rgb(129,130,130)" fill-opacity="0.0117647" d="M 404.516 669.665 L 401.38 665.95 C 402.287 663.313 402.34 662.363 404.089 660.138 C 401.267 660.319 402.223 660.63 399.864 659.612 C 400.156 658.694 472.162 586.159 474.187 585.504 L 475.585 586.795 C 480.038 582.807 485.836 575.983 490.392 573.381 L 491.085 574.463 C 488.905 580.066 478.799 584.02 478.691 589.255 C 481.171 591.017 481.926 590.966 484.829 591.373 C 457.902 617.309 431.131 643.407 404.516 669.665 z"/>
<path transform="translate(0,0)" fill="rgb(159,160,161)" fill-opacity="0.0235294" d="M 1747.66 763.744 C 1750.68 761.153 1749.76 762.388 1750.25 757.26 C 1747.44 749.225 1733.38 741.703 1733.44 737.567 C 1740.13 735.22 1742.78 747.689 1748.89 748.467 L 1750.02 748.011 C 1752.68 752.603 1756.46 758.176 1756.31 763.214 C 1756.26 764.732 1757.38 766.252 1758.21 767.528 C 1762.46 770.657 1764.92 770.056 1769.72 769.022 C 1774.77 772.654 1793.4 792.23 1795.92 796.801 L 1795.59 801.424 C 1799.82 805.697 1805.29 810.545 1809.14 814.863 C 1809.23 814.865 1814.91 814.324 1813.94 813.397 C 1817.14 816.464 1826.85 823.389 1826.8 827.755 L 1827.16 826.709 L 1827.06 827.653 L 1824.75 827.484 L 1824.02 828.51 C 1825.25 831.935 1825.37 831.956 1827.36 834.799 C 1827.27 837.468 1826.41 838.15 1826.1 840.209 C 1801.74 818.501 1771.43 787.094 1747.66 763.744 z"/>
<path transform="translate(0,0)" fill="rgb(129,130,130)" fill-opacity="0.0117647" d="M 305.23 764.389 C 302.793 762.692 304.193 763.209 300.623 763.703 L 300.001 763.169 C 303.291 758.799 305.084 755.213 309.863 753.694 C 311.02 749.256 313.714 749.271 314.113 744.927 C 312.46 743.882 313.19 744.488 311.904 743.132 C 314.764 739.005 323.444 731.52 327.416 727.605 C 340.661 714.553 353.52 699.558 369.445 689.725 L 371.287 691.051 C 373.591 697.331 370.447 690.757 369.596 697.481 C 371.965 697.997 372.473 697.702 375.035 697.484 C 359.189 712.384 343.566 727.519 328.171 742.885 C 323.96 747.01 309.585 761.426 305.23 764.389 z"/>
<path transform="translate(0,0)" fill="rgb(159,160,161)" fill-opacity="0.0196078" d="M 1852.3 864.231 C 1859.62 864.194 1859.66 869.245 1864.32 869.252 C 1865.28 865.319 1841.22 842.236 1841.61 842.312 L 1842.78 840.916 C 1846.62 842.214 1859.56 858.27 1863.57 862.099 C 1864.67 861.773 1865.76 861.448 1866.86 861.122 C 1875.08 869.772 1882.84 877.23 1890.5 886.376 C 1889.26 886.591 1888.03 886.806 1886.79 887.021 C 1887 890.739 1891.43 893.951 1895.18 894.242 L 1897.54 891.814 C 1900.58 893.672 1901.36 897.691 1903.58 900.795 L 1907.07 900.623 L 1908.21 902.492 C 1906.8 905.866 1905.78 906.378 1903.22 908.868 L 1902 910.064 C 1901.34 910.657 1900.68 911.249 1900.03 911.842 C 1884.85 895.154 1868.53 879.902 1852.3 864.231 z"/>
<path transform="translate(0,0)" fill="rgb(129,130,130)" fill-opacity="0.0313725" d="M 1069.63 104.98 C 1068.58 101.527 1067.11 100.328 1064.75 97.7554 C 1065.97 98.0237 1067.18 98.2919 1068.39 98.5601 L 1067.62 95.3711 C 1068.8 93.7801 1068.41 94.0943 1069.94 92.8725 L 1072.74 92.8317 C 1073.43 95.6281 1073.32 95.7288 1074.48 98.3423 C 1076.92 97.7491 1075.76 98.2655 1077.66 96.0756 C 1083.67 99.9669 1084.66 106.629 1088 108.925 C 1090.89 110.913 1095.65 112.509 1097.46 117.293 C 1095.45 120.959 1095.16 120.203 1095.25 123.8 C 1099.52 127.654 1103.45 128.072 1105.65 131.432 L 1105.2 133.652 L 1101.84 135.281 C 1097.13 132.099 1074.37 109.737 1069.63 104.98 z"/>
<path transform="translate(0,0)" fill="rgb(209,230,234)" fill-opacity="0.0117647" d="M 290.143 1072.38 L 289.836 1073.46 C 289.117 1076.04 288.451 1077.4 288.994 1079.99 L 285.832 1083.65 L 286.919 1084.09 L 289.68 1082.21 L 291.362 1084.76 L 290.034 1088.09 L 287.555 1088.97 L 286.123 1087.13 C 281.297 1087.65 268.356 1099.57 262.824 1091.48 L 263.766 1090.41 L 269.591 1090.32 C 270.199 1088.22 270.248 1088 270.412 1085.83 C 267.931 1086.13 268.405 1086.14 266.002 1087.09 L 264.472 1086.36 L 266.253 1085.58 L 265.843 1084.57 C 275.613 1080.08 280.432 1077.83 290.143 1072.38 z"/>
<path transform="translate(0,0)" fill="rgb(5,0,6)" fill-opacity="0.027451" d="M 197.973 1084.02 C 199.8 1083.42 204.032 1084.77 206.316 1085.29 L 207.104 1086.9 L 205.666 1087.55 C 202.561 1086.43 200.69 1085.96 197.973 1084.02 z"/>
</svg>