<svg height="256" width="250.38" version="1.1" xmlns="http://www.w3.org/2000/svg" viewBox="31.39 7.85 1984.27 2028.76">
<path transform="translate(0,0)" fill="rgb(61,59,62)" d="M 313.229 85.4051 C 313.949 85.2652 314.781 85.0848 315.488 85.0592 C 338.678 84.2189 362.661 84.6149 385.842 84.6591 L 526.606 84.822 L 996.275 84.7535 L 1501.39 84.6631 L 1652.43 84.6925 C 1679.57 84.6972 1715.72 82.9908 1742.05 86.5915 C 1842.66 100.352 1930.36 187.792 1938.42 289.969 C 1940.52 316.52 1939.32 348.052 1939.37 375.067 L 1939.42 538.168 L 1938.78 1056.15 L 1939.09 1533.5 L 1939.15 1676.77 C 1939.16 1703.55 1940.12 1737.31 1937.21 1763.47 C 1932.78 1803.13 1912.7 1846.72 1887.08 1877.3 C 1848.01 1924.43 1791.83 1954.11 1730.88 1959.82 C 1627.69 1961.47 1520.6 1960.24 1417.11 1960.4 L 772.051 1960.58 L 466.466 1960.65 L 375.675 1960.65 C 353.951 1960.65 332.408 1961.21 310.497 1958.8 C 208.888 1947.62 121.81 1864.64 109.54 1762.56 C 106.533 1737.54 108.241 1703.17 108.228 1677.3 L 108.216 1524.67 L 108.094 1025.31 L 107.921 518.114 L 107.959 367.788 C 107.971 346.97 107.639 325.973 108.18 305.173 C 111.125 191.952 202.557 98.0266 313.229 85.4051 z"/>
<path transform="translate(0,0)" fill="rgb(254,241,213)" d="M 202.699 1835.52 C 182.886 1811.03 167.753 1773.08 166.31 1741.67 C 164.723 1707.11 165.278 1670.9 165.223 1636.19 L 165.093 1446.69 L 164.992 875.564 L 165.023 490.681 L 164.959 373.433 C 164.953 350.535 164.086 319.839 166.633 297.677 C 170.742 261.96 185.848 228.401 209.862 201.643 C 274.941 127.739 354.132 140.542 442.501 140.612 L 631.414 140.699 L 1174.27 140.581 L 1543.81 140.591 L 1654.62 140.583 C 1678.07 140.586 1707.01 139.799 1729.77 142.514 C 1764.15 146.799 1796.42 161.451 1822.28 184.522 C 1856.82 214.263 1878.34 256.334 1882.26 301.74 C 1884.34 327.739 1883.11 370.391 1883.12 398.029 L 1883.2 570.328 L 1883.14 1106.8 L 1883.02 1541.23 L 1883.07 1669.95 C 1883.14 1695.85 1884.6 1725.38 1881.75 1750.84 C 1872.82 1830.92 1802.26 1899.03 1721.39 1902.74 C 1688.57 1904.24 1655.54 1903.72 1622.66 1903.74 L 1447.17 1903.7 L 896.365 1903.9 L 511.524 1903.86 L 395.061 1903.99 C 369.237 1904.02 342.602 1904.45 316.928 1902.04 C 278.011 1898.4 223.755 1869.06 202.699 1835.52 z"/>
<path transform="translate(0,0)" fill="rgb(242,205,137)" d="M 1822.28 184.522 C 1856.82 214.263 1878.34 256.334 1882.26 301.74 C 1884.34 327.739 1883.11 370.391 1883.12 398.029 L 1883.2 570.328 L 1883.14 1106.8 L 1883.02 1541.23 L 1883.07 1669.95 C 1883.14 1695.85 1884.6 1725.38 1881.75 1750.84 C 1872.82 1830.92 1802.26 1899.03 1721.39 1902.74 C 1688.57 1904.24 1655.54 1903.72 1622.66 1903.74 L 1447.17 1903.7 L 896.365 1903.9 L 511.524 1903.86 L 395.061 1903.99 C 369.237 1904.02 342.602 1904.45 316.928 1902.04 C 278.011 1898.4 223.755 1869.06 202.699 1835.52 L 203.529 1833.22 C 205.834 1831.43 207.386 1830.89 210.432 1831.65 C 275.773 1847.95 337.202 1846.29 404.319 1846.04 L 600.316 1844.16 L 1121.61 1841.61 L 1475.78 1840.13 L 1571.02 1840.02 C 1596.37 1840.05 1620.07 1840.6 1645.25 1837.7 C 1731.21 1827.79 1804.11 1759.71 1818.58 1674.11 C 1826.32 1628.33 1824.19 1579.68 1824.42 1532.92 L 1825.03 1316.31 L 1825.86 460.717 C 1826.39 396.154 1826.39 331.587 1825.83 267.024 C 1825.41 243.712 1820.81 206.93 1822.18 185.928 L 1822.28 184.522 z"/>
<g transform="matrix(0.94822,0,0,0.94822,73.393,14.924)">
<path transform="translate(0,0)" fill="rgb(61,59,62)" d="M 378.171 619.112 C 406.686 616.475 417.881 635.985 435.701 655.016 C 455.187 675.902 474.544 696.909 493.77 718.035 L 571.457 802.964 C 593.15 826.279 620.239 854.237 640.685 878.335 C 681.279 849.457 729.497 825.341 771.404 797.972 C 789.407 786.216 803.913 780.968 825.542 783.002 C 853.734 785.654 867.168 804.127 884.565 823.502 L 922.814 866.304 L 994.32 947.302 C 1007.68 962.441 1023.6 979.563 1036.16 995.084 C 1051.59 979.839 1085.07 955.53 1102.89 940.851 C 1133.97 915.35 1163.79 892.196 1195.08 866.556 C 1217.22 848.41 1255.47 845.195 1278.24 864.146 C 1292.43 875.947 1310.86 899.032 1323.49 913.506 L 1406.69 1010.05 L 1491.72 1108.57 C 1504.49 1123.32 1526.74 1147.59 1537.74 1162.48 C 1549.13 1151.71 1563.93 1141.86 1575.93 1131.63 C 1585.54 1123.87 1596.8 1116.94 1609.59 1118.52 C 1639.24 1122.19 1637.59 1161.1 1640.25 1184.45 L 1648.3 1256.12 C 1651.11 1280.15 1654.06 1304.16 1657.14 1328.15 C 1659.84 1348.83 1665.16 1374.78 1662.43 1394.97 C 1660.39 1410.13 1637.3 1420.26 1622.79 1417.23 C 1592.06 1409.59 1546.6 1392.88 1515.26 1382.91 L 1437.42 1357.8 C 1427.23 1354.52 1397.5 1346.53 1390.27 1342.23 C 1337.9 1311.01 1406.45 1269.56 1429.07 1251.54 C 1409.88 1230.59 1389.43 1205.72 1370.72 1184.07 L 1230.47 1021.78 C 1199.11 1048.82 1162.43 1075.46 1129.91 1102.11 C 1106.21 1118.28 1080.11 1146.3 1054.73 1159.01 C 1024.81 1174.01 989.822 1157.73 970.794 1133.3 C 959.103 1118.28 943.706 1102.6 931.424 1088.72 L 805.244 945.112 C 774.304 965.157 740.528 984.041 709.213 1003.43 C 688.479 1016.27 661.659 1033.82 640.05 1042.42 C 617.234 1051.5 580.692 1038.68 568.531 1017.56 C 552.296 992.757 537.15 968.37 521.582 943.641 L 431.901 801.113 L 382.434 722.6 C 371.492 705.287 354.74 682.355 348.065 663.579 C 340.599 642.578 359.183 624.153 378.171 619.112 z"/>
<path transform="translate(0,0)" fill="rgb(242,128,104)" d="M 1422.2 1300.63 C 1425.54 1297.76 1429.87 1293.9 1433.28 1291.25 C 1485.16 1250.94 1477.56 1256.19 1440.44 1212.87 L 1377.29 1139.52 L 1287.52 1035.66 C 1274.52 1020.81 1261.3 1005.91 1248.37 991.202 C 1239.58 981.202 1231.19 977.284 1219.75 986.158 C 1206.34 996.557 1193.28 1007.88 1180 1018.51 L 1082.13 1096.93 C 1057.8 1116.42 1030.57 1148.61 1001.7 1116.85 C 986.921 1100.58 972.692 1083.91 958.127 1067.47 L 863.901 960.711 C 850.013 944.902 836.348 928.706 821.95 913.254 C 813.441 904.121 807.823 904.369 796.942 909.94 C 782.337 918.095 768.275 927.556 753.947 936.293 L 672.186 985.579 C 659.427 993.359 643.926 1004.27 630.088 1009.13 C 623.54 1011.43 607.28 1009.72 602.368 1004.58 C 591.355 993.062 581.21 974.19 572.61 960.414 L 533.427 898.121 L 431.315 736.227 C 423.547 723.9 381.654 661.238 380.977 652.482 C 382.635 651.636 382.336 651.316 383.852 651.868 C 390.71 654.366 553.934 834.073 572.469 854.602 L 603.352 888.306 C 611.345 897.17 619.902 909.627 630.064 915.975 C 633.829 918.328 638.877 916.9 642.769 915.462 C 659.326 909.345 675.995 896.419 691.154 887.08 C 716.425 871.509 742.014 856.532 767.17 840.759 C 779.06 833.304 792.278 823.108 805.531 818.564 C 813.297 815.901 824.017 816.109 831.532 819.546 C 846.217 826.264 975.855 978.208 997.747 1002.37 C 1006.54 1012.08 1014.45 1024.69 1025 1032.48 C 1028.43 1035.01 1033.2 1035.79 1037.28 1034.5 C 1049.46 1030.62 1166.93 933.211 1183.39 919.682 C 1194.17 910.825 1211.43 893.849 1223.53 888.339 C 1231.41 884.751 1242.82 884.061 1250.91 887.359 C 1265.69 893.378 1288.12 925.409 1299.7 938.627 L 1450.62 1113.28 C 1465.61 1130.8 1480.7 1148.23 1495.9 1165.57 C 1503.68 1174.58 1527.77 1207.8 1538.24 1202.27 C 1558 1191.81 1584.94 1168.28 1602.47 1154.26 C 1604.17 1174 1607.11 1195.12 1609.31 1214.99 C 1613.95 1257.72 1619.04 1300.4 1624.61 1343.01 C 1626.71 1356.5 1628.3 1370.05 1629.39 1383.65 C 1560.21 1363.09 1491.79 1339.24 1422.98 1317.39 C 1417.7 1315.71 1412.49 1314.25 1407.1 1312.93 C 1411.2 1309.13 1417.7 1304.22 1422.2 1300.63 z"/>
<path transform="translate(0,0)" fill="rgb(230,105,82)" d="M 1422.2 1300.63 C 1433.61 1315.17 1596.7 1344.1 1624.61 1343.01 C 1626.71 1356.5 1628.3 1370.05 1629.39 1383.65 C 1560.21 1363.09 1491.79 1339.24 1422.98 1317.39 C 1417.7 1315.71 1412.49 1314.25 1407.1 1312.93 C 1411.2 1309.13 1417.7 1304.22 1422.2 1300.63 z"/>
</g>
<path transform="translate(0,0)" fill="rgb(253,252,244)" d="M 349.309 231.241 C 374.583 228.975 393.042 241.412 397.706 266.734 C 406.253 313.143 384.613 363.759 360.419 402.42 C 345.345 426.508 322.721 450.687 294.161 456.821 C 264.486 461.778 248.657 438.774 243.634 413.017 C 231.441 350.479 283.385 243.297 349.309 231.241 z"/>
<path transform="translate(0,0)" fill="rgb(253,252,244)" d="M 265.493 502.288 C 270.746 502.27 276.122 502.387 280.671 504.972 C 305.135 518.875 300.366 563.658 276.887 576.317 C 272.719 578.564 269.106 579.389 264.641 580.403 C 226.534 585.3 217.815 512.517 265.493 502.288 z"/>
</svg>
