<svg version="1.1" xmlns="http://www.w3.org/2000/svg" viewBox="4.76 229.93 2034.73 1592.12" width="256" height="200.27">
<path transform="translate(0,0)" fill="rgb(74,74,74)" d="M 430.022 582.561 C 428.607 530.99 418.884 489.875 387.658 448.111 C 377.655 434.732 363.419 422.435 366.785 403.894 C 376.396 350.942 458.955 371.894 494.08 380.774 C 504.354 383.372 514.981 389.963 525.914 391.726 L 526.891 390.637 C 521.939 374.517 512.503 359.764 511.338 342.547 C 509.583 317.86 529.046 305.293 551.728 306.119 C 645.304 309.525 716.829 346.378 782.196 410.618 C 808.742 405.93 835.425 398.894 862.01 394.549 C 1098.27 355.94 1344.53 383.296 1552.69 507.007 C 1615.48 543.596 1672.22 589.683 1720.9 643.63 C 1723.52 646.657 1725.71 649.346 1728.72 652.035 C 1731.33 656.461 1743.75 670.623 1748.05 676.219 C 1761.09 692.938 1773.27 710.312 1784.54 728.273 C 1795.12 744.948 1804.71 762.233 1813.26 780.036 C 1818.23 790.314 1822.35 802.211 1828.35 811.832 C 1829.11 813.046 1829.54 814.32 1831.11 814.446 C 1835.87 814.828 1844.16 810.613 1848.53 808.369 C 1896.77 783.63 1887.84 734.049 1903.65 721.586 C 1909.01 717.357 1916.84 717.418 1923.27 718.539 C 1933.36 720.299 1940.44 726.68 1945.96 734.987 C 1963.46 761.318 1964.13 799.497 1958 829.378 C 1947.84 878.999 1910.88 920.997 1869.56 948.029 C 1873.28 986.737 1875.33 1007.19 1873.14 1046.74 C 1866.04 1175.08 1807.73 1292.32 1721.98 1386.38 C 1712.46 1396.82 1700.83 1407.08 1691.03 1416.92 C 1684.83 1423.14 1662.21 1440.43 1659.47 1446.84 C 1654.14 1459.3 1648.31 1474.64 1643.08 1487.4 L 1589.65 1614.11 C 1583.91 1627.72 1578.2 1641.42 1572.3 1654.95 C 1562.43 1677.61 1554.92 1700.04 1536.53 1717.56 C 1505.96 1746.69 1459.93 1733.63 1421.99 1736.52 C 1414.48 1737.1 1406.46 1736.18 1398.9 1736.65 C 1362.55 1736.4 1327.1 1742.79 1301.27 1711.17 C 1285.36 1691.7 1285.05 1674.83 1283.51 1650.6 C 1282.97 1642.1 1282.08 1634.01 1282.74 1625.77 C 1268.51 1629.75 1245.13 1633.32 1230.31 1635.64 C 1131.86 1650.36 1031.93 1652.57 932.923 1642.21 C 910.139 1639.93 872.944 1635.36 850.42 1630.31 C 851.77 1661.18 845.942 1702.2 818.74 1722.05 C 787.458 1744.87 745.985 1734.55 708.549 1736.33 C 685.348 1737.43 653.436 1736.94 630.012 1735.32 C 587.121 1732.36 573.173 1692.29 558.954 1658.25 L 516.833 1559.4 C 510.053 1543.21 504.464 1526.22 496.318 1510.73 C 493.896 1507.13 488.323 1503.89 484.665 1501.63 C 459.561 1486.07 436.75 1468.78 414.066 1449.81 C 377.38 1419.15 343.84 1384.9 313.944 1347.58 C 305.506 1336.86 298.167 1324.51 289.707 1313.83 L 289.018 1312.97 C 257.623 1302.53 227.156 1290.77 196.069 1279.33 C 176.156 1271.23 154.269 1265.85 135.398 1255.54 C 96.3454 1234.2 99.9102 1192.28 97.0846 1155.15 C 94.1352 1120.8 91.5744 1086.41 89.4026 1051.99 C 87.8108 1029 80.1241 966.279 83.4653 946.521 C 90.0901 907.346 124.821 901.03 156.08 894.77 L 201.6 885.418 C 212.478 883.143 223.783 881.415 233.032 875.005 C 236.827 866.303 239.519 856.42 242.912 847.442 C 247.719 834.72 253.097 822.365 258.732 809.991 C 298.359 722.477 356.853 644.812 430.022 582.561 z"/>
<path transform="translate(0,0)" fill="rgb(236,189,96)" d="M 543.472 356.119 C 540.606 351.153 533.328 337.082 544.378 335.513 C 576.709 330.921 622.85 343.241 652.774 354.662 C 709.741 376.404 776.78 432.738 803.953 488.792 C 813.788 492.327 827.414 491.566 829.661 478.464 C 831.259 469.144 816.114 453.008 810.056 445.453 L 803.069 435.653 C 828.376 431.316 858.008 421.876 884.937 418.873 C 886.555 421.297 886.151 424.399 886.325 427.727 C 886.64 436.305 886.741 444.857 886.992 453.42 C 887.438 468.64 885.395 489.084 906.677 487.138 C 938.063 484.268 969.319 480.251 1000.76 478.251 C 1087.62 472.845 1174.82 479.175 1259.99 497.069 C 1280.39 501.512 1304.81 508.816 1325.12 510.216 C 1341.37 511.337 1337.37 465.867 1338.75 454.868 C 1338.85 451.472 1338.56 447.378 1340.16 444.582 C 1347.39 445.415 1399.52 463.517 1408.25 467.188 C 1422.65 471.539 1442.79 481.529 1456.74 487.818 C 1551.89 530.722 1651.04 599.736 1716.47 681.901 C 1745.43 716.733 1770.05 754.954 1789.79 795.724 C 1796.85 810.533 1804.34 831.855 1811 844.664 C 1822.97 844.262 1832.5 843.917 1844.18 840.81 C 1884.86 829.998 1914.91 788.768 1921.21 748.39 C 1929.47 767.407 1934.93 782.471 1933.54 803.678 C 1929.5 865.407 1888.24 905.216 1838.13 934.368 C 1860.62 1070.82 1828.07 1197.76 1747.66 1309.85 C 1729.05 1336.31 1708.08 1361.02 1685.01 1383.7 C 1670.99 1397.58 1655.83 1411.03 1641.62 1424.55 C 1634.34 1431.47 1626.95 1452.44 1622.72 1462.83 L 1602.63 1511.8 C 1586.45 1551 1569.22 1590.13 1552.48 1628.87 C 1539.57 1658.76 1530.56 1703.31 1493.03 1707.88 C 1481.22 1709.32 1469.32 1709.05 1457.48 1709.04 L 1406.73 1708.98 C 1389.02 1708.95 1369.38 1710.02 1351.92 1708.55 C 1311.16 1705.13 1313.12 1665.63 1310.52 1636.6 C 1309.08 1622.07 1307.34 1607.57 1305.3 1593.11 C 1281.36 1598.07 1256.75 1603.62 1232.55 1607.33 C 1119.68 1624.64 1004.36 1626.82 891.39 1609.28 C 881.789 1607.79 841.573 1601.18 835.022 1598.11 C 834.552 1598.05 833.378 1597.86 832.949 1597.96 C 823.593 1600.12 822.689 1679.12 809.952 1693.58 C 802.006 1702.6 791.073 1707.54 779.173 1708.41 C 753.424 1710.29 726.585 1708.93 700.725 1708.98 C 678.924 1709.01 654.716 1711.06 633.183 1707.95 C 626.691 1707.01 620.89 1704.66 615.449 1700.98 C 609.934 1697.26 605.942 1692.66 602.587 1686.95 C 593.411 1671.33 587.228 1652.98 580.065 1636.29 L 535.347 1531.89 C 530.675 1521.07 522.604 1499.75 515.303 1490.9 C 512.589 1487.61 497.308 1477.75 492.833 1474.72 C 482.448 1467.62 472.178 1460.35 462.028 1452.92 C 430.927 1429.9 406.866 1407.85 379.841 1380.43 C 367.493 1367.71 355.735 1354.43 344.606 1340.63 C 335.544 1329.39 315.185 1296.66 305.644 1290.49 C 295.967 1284.22 281.474 1280.98 270.563 1277.19 C 245.522 1268.47 155.96 1239.13 139.768 1224.63 C 133.342 1218.87 130.956 1209.47 129.404 1201.25 C 124.758 1176.61 124.907 1148.93 122.94 1123.67 L 110.925 967.384 C 108.137 930.972 127.053 930.33 156.948 923.022 C 185.369 916.074 239.667 912.846 257.491 887.748 C 260.106 884.066 267.015 865.539 268.535 861.241 C 317.763 722 418.448 612.258 541.942 534.088 C 539.716 543.197 536 553.326 540.1 561.596 C 548.542 567.501 552.332 569.446 562.041 564.735 C 563.247 562.536 564.425 560.289 565.058 557.847 C 580.486 498.249 574.57 414.341 545.79 360.568 L 543.472 356.119 z"/>
<path transform="translate(0,0)" fill="rgb(225,170,76)" d="M 1716.47 681.901 C 1745.43 716.733 1770.05 754.954 1789.79 795.724 C 1796.85 810.533 1804.34 831.855 1811 844.664 C 1822.97 844.262 1832.5 843.917 1844.18 840.81 C 1884.86 829.998 1914.91 788.768 1921.21 748.39 C 1929.47 767.407 1934.93 782.471 1933.54 803.678 C 1929.5 865.407 1888.24 905.216 1838.13 934.368 C 1860.62 1070.82 1828.07 1197.76 1747.66 1309.85 C 1729.05 1336.31 1708.08 1361.02 1685.01 1383.7 C 1670.99 1397.58 1655.83 1411.03 1641.62 1424.55 C 1634.34 1431.47 1626.95 1452.44 1622.72 1462.83 L 1602.63 1511.8 C 1586.45 1551 1569.22 1590.13 1552.48 1628.87 C 1539.57 1658.76 1530.56 1703.31 1493.03 1707.88 C 1481.22 1709.32 1469.32 1709.05 1457.48 1709.04 L 1406.73 1708.98 C 1389.02 1708.95 1369.38 1710.02 1351.92 1708.55 C 1311.16 1705.13 1313.12 1665.63 1310.52 1636.6 C 1309.08 1622.07 1307.34 1607.57 1305.3 1593.11 C 1281.36 1598.07 1256.75 1603.62 1232.55 1607.33 C 1119.68 1624.64 1004.36 1626.82 891.39 1609.28 C 881.789 1607.79 841.573 1601.18 835.022 1598.11 C 845.523 1588.33 868.308 1558.23 881.106 1555.82 C 904.336 1551.44 932.58 1551.65 956.531 1550.56 C 1153.81 1540.91 1341.39 1499.3 1502.64 1380.77 C 1719.22 1221.55 1819.56 960.026 1720.47 703.502 C 1717.72 696.384 1715.13 689.565 1716.47 681.901 z"/>
<path transform="translate(0,0)" fill="rgb(225,170,76)" d="M 545.79 360.568 C 559.053 365.925 567.881 376.853 577.672 387.236 C 606.362 417.662 629.699 451.866 646.107 490.438 C 655.576 512.697 677.495 573.032 670.183 594.614 C 662.015 597.762 597.287 572.423 583.258 570.35 C 579.938 569.86 565.499 565.862 562.041 564.735 C 563.247 562.536 564.425 560.289 565.058 557.847 C 580.486 498.249 574.57 414.341 545.79 360.568 z"/>
<path transform="translate(0,0)" fill="rgb(250,226,183)" d="M 110.925 967.384 C 108.137 930.972 127.053 930.33 156.948 923.022 C 185.369 916.074 239.667 912.846 257.491 887.748 C 260.106 884.066 267.015 865.539 268.535 861.241 C 317.763 722 418.448 612.258 541.942 534.088 C 539.716 543.197 536 553.326 540.1 561.596 C 539.761 561.877 539.437 562.176 539.085 562.441 C 537.727 563.461 536.748 563.938 535.263 564.633 C 514.653 574.281 491.911 593.697 474.468 608.344 C 398.801 671.884 341.091 741.609 298.472 831.033 C 290.117 848.563 272.497 903.753 262.086 912.892 C 242.99 929.654 161.195 942.988 131.426 954.61 C 123.757 957.604 118.033 963.443 110.925 967.384 z"/>
<path transform="translate(0,0)" fill="rgb(250,226,183)" d="M 543.472 356.119 C 540.606 351.153 533.328 337.082 544.378 335.513 C 576.709 330.921 622.85 343.241 652.774 354.662 C 709.741 376.404 776.78 432.738 803.953 488.792 C 805.075 494.197 808.508 499.931 806.556 504.764 C 803.592 504.789 799.852 501.602 797.871 499.606 C 780.99 482.608 768.3 466.426 750.183 450.21 C 703.535 408.457 654.028 381.141 593.551 364.741 C 577.138 360.29 559.9 360.584 544.874 356.51 L 543.472 356.119 z"/>
<path transform="translate(0,0)" fill="rgb(241,235,224)" d="M 803.069 435.653 C 828.376 431.316 858.008 421.876 884.937 418.873 C 886.555 421.297 886.151 424.399 886.325 427.727 C 865.88 430.266 831.521 440.658 810.056 445.453 L 803.069 435.653 z"/>
<path transform="translate(0,0)" fill="rgb(250,226,183)" d="M 1338.75 454.868 C 1338.85 451.472 1338.56 447.378 1340.16 444.582 C 1347.39 445.415 1399.52 463.517 1408.25 467.188 C 1399.87 468.01 1392.63 466.354 1384.63 464.114 C 1369.32 459.825 1354.48 457.08 1338.75 454.868 z"/>
<path transform="translate(0,0)" fill="rgb(74,74,74)" d="M 1322.55 727.412 C 1370.47 721.786 1421 744.781 1453 779.844 C 1494.68 825.514 1496.18 874.685 1493.6 933.11 C 1571.78 950.145 1559.91 1029.45 1559.99 1090 L 1559.96 1149.48 C 1559.89 1185.99 1563.55 1214.95 1535.46 1242.99 C 1503.31 1275.1 1464.91 1268.92 1422.91 1268.77 L 1346.13 1268.61 L 1245.79 1268.29 C 1228.4 1268.41 1194.33 1269.79 1178.57 1267.33 C 1167.45 1265.51 1156.76 1261.63 1147.06 1255.9 C 1128.28 1244.4 1114.79 1225.95 1109.55 1204.56 C 1106.44 1191.72 1106.63 1178.51 1106.69 1165.39 C 1106.83 1137.59 1106.81 1109.8 1106.76 1082 L 1106.71 1033.14 C 1106.7 1009.61 1105.71 992.394 1119.11 971.447 C 1132.06 951.198 1150.37 938.292 1173.85 933.055 C 1172.76 874.304 1169.09 831.808 1210.34 782.749 C 1239.86 747.642 1277.34 731.205 1322.55 727.412 z"/>
<path transform="translate(0,0)" fill="rgb(130,180,168)" d="M 1184.91 957.9 C 1193.48 956.324 1215.75 956.908 1225.57 956.911 L 1303.17 956.948 L 1424.94 957.047 C 1444.25 957.115 1466.28 956.28 1485.02 957.963 C 1508.02 960.028 1527.56 983.305 1531.45 1004.99 C 1535.2 1035.44 1532.25 1068.23 1533.14 1099 C 1532.38 1130.57 1534.67 1162.68 1531.41 1194.09 C 1530.48 1203.11 1526.72 1210.53 1521.81 1217.95 C 1501.56 1248.52 1461.27 1242 1429.01 1241.98 L 1321.48 1241.93 C 1292.58 1241.77 1263.68 1241.81 1234.78 1242.05 C 1213.43 1242.21 1170.56 1246.47 1155.75 1229.83 C 1132.81 1212.21 1133.3 1190.97 1133.21 1164.92 L 1133.12 1114.85 L 1132.91 1046.54 C 1132.92 1034.21 1132.73 1021.99 1133.5 1009.68 C 1135.32 980.644 1157.98 963.415 1184.91 957.9 z"/>
<path transform="translate(0,0)" fill="rgb(193,198,196)" d="M 1155.75 1229.83 C 1132.81 1212.21 1133.3 1190.97 1133.21 1164.92 L 1133.12 1114.85 L 1132.91 1046.54 C 1132.92 1034.21 1132.73 1021.99 1133.5 1009.68 C 1135.32 980.644 1157.98 963.415 1184.91 957.9 C 1184.24 961.25 1171.31 972.401 1168.04 976.243 C 1161.35 984.169 1156.19 993.267 1152.81 1003.08 C 1145.27 1025.15 1148.88 1063.55 1148.02 1087.32 C 1146.75 1122.43 1147.02 1158.86 1148.7 1193.97 C 1149.17 1203.82 1151.98 1216.09 1155.58 1225.25 C 1156.72 1228.17 1156.62 1226.84 1155.75 1229.83 z"/>
<path transform="translate(0,0)" fill="rgb(74,74,74)" d="M 1325.77 1025.29 C 1381.14 1021.1 1404.67 1079.59 1365.14 1117.15 C 1368.42 1130.34 1380.77 1171.17 1373.57 1181.45 C 1367.55 1185.63 1348.29 1184.17 1339.75 1184.11 C 1328.3 1184.05 1310.83 1186.91 1300.24 1184.7 C 1296.69 1183.95 1293.91 1182.25 1292.14 1178.99 C 1288.52 1172.3 1299.32 1127.16 1302.05 1118.05 C 1266.39 1087.57 1278.35 1034.13 1325.77 1025.29 z"/>
<path transform="translate(0,0)" fill="rgb(193,198,196)" d="M 1192 991.289 C 1220.22 997.098 1200.57 1040.98 1179.09 1046.82 C 1154.23 1041.87 1163.64 997.365 1192 991.289 z"/>
<path transform="translate(0,0)" fill="rgb(193,198,196)" d="M 1170.79 1060.62 C 1175.29 1059.41 1180.1 1060.76 1183.31 1064.14 C 1186.53 1067.51 1187.64 1072.38 1186.2 1076.82 C 1184.76 1081.26 1181.01 1084.55 1176.43 1085.41 C 1169.71 1086.66 1163.21 1082.38 1161.7 1075.72 C 1160.18 1069.06 1164.2 1062.4 1170.79 1060.62 z"/>
<path transform="translate(0,0)" fill="rgb(236,189,96)" d="M 1322.43 814.268 C 1325.61 813.987 1328.8 813.838 1332 813.82 C 1354.22 813.695 1372.15 820.472 1388.28 836.086 C 1415.22 862.17 1410.09 895.596 1409.87 930.784 C 1388.84 930.275 1365.92 930.676 1344.75 930.609 L 1257.1 930.738 C 1257.04 916.876 1257.04 902.954 1257.17 889.113 C 1257.53 847.917 1282.53 821.143 1322.43 814.268 z"/>
<path transform="translate(0,0)" fill="rgb(193,198,196)" d="M 1217.65 817.527 C 1233.58 788.562 1264.91 765.942 1296.37 757.115 C 1368.08 736.995 1444.07 779.631 1463.3 851.763 C 1469.76 875.995 1467.59 905.729 1467.15 930.787 L 1436.93 930.649 C 1436.51 887.915 1439.47 849.875 1406.61 817.515 C 1386.96 798.167 1359.64 786.492 1332 786.818 C 1303.54 787.386 1276.49 799.303 1256.87 819.918 C 1225.25 852.933 1230.02 886.972 1229.98 930.343 C 1220.01 930.356 1209.05 930.156 1199.16 930.435 C 1199.15 919.151 1198.42 881.739 1199.58 873.169 C 1202.19 850.598 1206.38 837.142 1217.65 817.527 z"/>
<path transform="translate(0,0)" fill="rgb(241,235,224)" d="M 1217.65 817.527 C 1219.33 823.18 1199.93 849.443 1206.93 854.842 C 1210.81 852.158 1211.57 841.62 1215.8 839.281 C 1214.77 842.854 1211.11 850.296 1209.62 854.85 C 1208.16 859.307 1203.7 878.022 1202.23 880.112 C 1200.15 878.876 1199.97 875.627 1199.58 873.169 C 1202.19 850.598 1206.38 837.142 1217.65 817.527 z"/>
<path transform="translate(0,0)" fill="rgb(250,226,183)" d="M 1436.74 549.359 C 1470.24 547.214 1504.1 564.702 1532.04 584.812 C 1551.45 598.788 1588.9 637.82 1569.21 665.635 C 1563.73 673.371 1551.97 675.278 1542.63 675.817 C 1513.88 673.241 1490.4 654.93 1464.99 639.718 C 1444.9 627.686 1383.64 594.544 1407.19 562.188 C 1413.77 553.152 1425.94 550.621 1436.74 549.359 z"/>
<path transform="translate(0,0)" fill="rgb(74,74,74)" d="M 466.683 799.382 C 499.385 793.65 530.5 815.646 536.004 848.387 C 541.509 881.128 519.298 912.089 486.519 917.366 C 454.061 922.592 423.468 900.645 418.018 868.223 C 412.567 835.802 434.301 805.058 466.683 799.382 z"/>
<path transform="translate(0,0)" fill="rgb(250,226,183)" d="M 1607.08 698.177 C 1641.98 694.102 1663.76 734.518 1631.05 749.566 C 1598.93 754.894 1574.79 714.845 1607.08 698.177 z"/>
<path transform="translate(0,0)" fill="rgb(225,170,76)" d="M 1047.43 405.487 C 1130.23 404.408 1232.47 415.367 1312.22 437.678 C 1310.77 449.585 1310.55 467.57 1310.07 480.004 C 1274.81 470.57 1229.35 462.149 1193.19 457.283 C 1122.17 448.094 1050.38 446.274 978.989 451.852 C 956.514 453.529 936.405 455.081 914.279 458.926 C 914.045 444.133 913.621 429.344 913.008 414.563 C 927.108 413.646 942.812 411.317 957.275 410.07 C 987.246 407.22 1017.33 405.691 1047.43 405.487 z"/>
<path transform="translate(0,0)" fill="rgb(236,189,96)" d="M 407.144 398.27 C 453.834 396.574 500.158 405.556 539.727 431.613 C 544.813 448.077 545.244 481.128 545.431 498.887 C 530.665 507.53 514.873 518.282 500.424 527.7 C 485.036 537.754 471.894 547.464 457.316 558.618 C 454.727 507.416 435.754 466.46 406.179 426.521 C 402.297 421.278 394.528 412.051 395.179 405.71 C 398.04 400.933 402.024 399.699 407.144 398.27 z"/>
<path transform="translate(0,0)" fill="rgb(108,111,113)" fill-opacity="0.0196078" d="M 1720.9 643.63 L 1722.75 641.253 C 1720.98 635.463 1715.05 634.829 1715.26 631.047 C 1719.05 631.279 1729.21 644.865 1730.82 648.659 C 1730.23 651.475 1731.02 650.444 1728.72 652.035 C 1725.71 649.346 1723.52 646.657 1720.9 643.63 z"/>
<path transform="translate(0,0)" fill="rgb(3,3,3)" fill-opacity="0.0117647" d="M 321.369 691.415 L 322.562 692.164 L 321.98 695.017 C 318.8 698.837 318.306 698.976 313.95 701.612 C 316.006 697.896 318.071 694.115 321.369 691.415 z"/>
</svg>