<?xml version="1.0" encoding="UTF-8"?>
<!-- Generator: visioncortex VTracer 0.6.12 -->
<svg version="1.1" xmlns="http://www.w3.org/2000/svg" width="256" height="256">
<path d="M0 0 C11.465 8.776 18.293 19.009 22 33 C22.033 34.666 22.038 36.334 22 38 C22.675 37.984 23.349 37.969 24.044 37.952 C27.155 37.889 30.264 37.851 33.375 37.812 C33.905 37.8 33.905 37.8 36.59 37.736 C44.683 37.662 52.829 38.223 59.438 43.375 C64.935 49.007 65.995 53.603 66.312 61.25 C66.653 66.247 67.348 69.812 70.062 74.023 C72.618 79.411 72.137 85.926 72.098 91.777 C72.097 92.183 72.097 92.183 72.093 94.236 C72.088 96.803 72.075 99.37 72.062 101.938 C72.057 103.688 72.053 105.439 72.049 107.189 C72.038 111.46 72.021 115.73 72 120 C72.614 120.281 73.228 120.562 73.861 120.852 C77.055 122.567 78.715 124.682 80 128 C80.551 132.012 80.513 135.957 80.438 140 C80.445 141.067 80.452 142.135 80.459 143.234 C80.414 148.822 80.355 153.301 77 158 C76.146 158.526 75.292 159.052 74.412 159.593 C71.784 162.216 71.64 162.574 71.48 166.059 C71.501 167.709 71.548 169.359 71.617 171.008 C71.631 171.888 71.646 172.769 71.66 173.676 C71.708 176.494 71.789 179.309 71.875 182.125 C72.621 209.599 72.621 209.599 64.812 219.242 C58.647 225.222 51.792 227.117 43.436 227.147 C42.778 227.151 42.12 227.155 41.442 227.158 C39.239 227.169 37.037 227.173 34.833 227.177 C33.253 227.183 31.673 227.19 30.092 227.197 C24.903 227.218 19.713 227.228 14.523 227.238 C12.734 227.242 10.945 227.246 9.156 227.251 C0.749 227.27 -7.658 227.284 -16.066 227.292 C-25.758 227.302 -35.449 227.328 -45.141 227.369 C-52.64 227.399 -60.139 227.414 -67.638 227.417 C-72.113 227.419 -76.588 227.428 -81.063 227.453 C-85.277 227.477 -89.491 227.481 -93.705 227.471 C-95.246 227.47 -96.786 227.476 -98.327 227.49 C-108.189 227.574 -116.841 227.127 -124.812 220.75 C-130.278 213.879 -133.112 208.758 -133.147 199.885 C-133.154 198.63 -133.161 197.376 -133.169 196.083 C-133.172 194.695 -133.174 193.307 -133.177 191.919 C-133.183 190.455 -133.19 188.992 -133.197 187.528 C-133.218 182.723 -133.228 177.918 -133.238 173.113 C-133.242 171.457 -133.246 169.8 -133.251 168.144 C-133.27 160.359 -133.284 152.575 -133.292 144.791 C-133.302 135.817 -133.328 126.844 -133.369 117.87 C-133.399 110.926 -133.414 103.983 -133.417 97.039 C-133.419 92.895 -133.428 88.752 -133.453 84.609 C-133.477 80.707 -133.481 76.806 -133.471 72.905 C-133.47 71.478 -133.477 70.052 -133.49 68.625 C-133.57 59.913 -133.487 51.814 -127.259 45.132 C-120.524 38.9 -113.26 37.861 -104.289 37.902 C-103.045 37.906 -101.801 37.909 -100.52 37.912 C-99.234 37.92 -97.949 37.929 -96.625 37.938 C-95.317 37.942 -94.008 37.947 -92.66 37.951 C-89.44 37.963 -86.22 37.979 -83 38 C-82.814 37.128 -82.628 36.255 -82.436 35.356 C-82.181 34.201 -81.927 33.046 -81.664 31.855 C-81.416 30.715 -81.168 29.574 -80.913 28.399 C-77.252 14.766 -66.906 4.11 -55.145 -3.145 C-37.687 -12.755 -16.297 -10.944 0 0 Z " fill="#78B3A7" transform="translate(154,19)"/>
<path d="M0 0 C11.465 8.776 18.293 19.009 22 33 C22.033 34.666 22.038 36.334 22 38 C22.675 37.984 23.349 37.969 24.044 37.952 C27.155 37.889 30.264 37.851 33.375 37.812 C33.905 37.8 33.905 37.8 36.59 37.736 C44.683 37.662 52.829 38.223 59.438 43.375 C64.935 49.007 65.995 53.603 66.312 61.25 C66.653 66.247 67.348 69.812 70.062 74.023 C72.618 79.411 72.137 85.926 72.098 91.777 C72.097 92.183 72.097 92.183 72.093 94.236 C72.088 96.803 72.075 99.37 72.062 101.938 C72.057 103.688 72.053 105.439 72.049 107.189 C72.038 111.46 72.021 115.73 72 120 C72.614 120.281 73.228 120.562 73.861 120.852 C77.055 122.567 78.715 124.682 80 128 C80.551 132.012 80.513 135.957 80.438 140 C80.445 141.067 80.452 142.135 80.459 143.234 C80.414 148.822 80.355 153.301 77 158 C76.146 158.526 75.292 159.052 74.412 159.593 C71.784 162.216 71.64 162.574 71.48 166.059 C71.501 167.709 71.548 169.359 71.617 171.008 C71.631 171.888 71.646 172.769 71.66 173.676 C71.708 176.494 71.789 179.309 71.875 182.125 C72.621 209.599 72.621 209.599 64.812 219.242 C58.647 225.222 51.792 227.117 43.436 227.147 C42.778 227.151 42.12 227.155 41.442 227.158 C39.239 227.169 37.037 227.173 34.833 227.177 C33.253 227.183 31.673 227.19 30.092 227.197 C24.903 227.218 19.713 227.228 14.523 227.238 C12.734 227.242 10.945 227.246 9.156 227.251 C0.749 227.27 -7.658 227.284 -16.066 227.292 C-25.758 227.302 -35.449 227.328 -45.141 227.369 C-52.64 227.399 -60.139 227.414 -67.638 227.417 C-72.113 227.419 -76.588 227.428 -81.063 227.453 C-85.277 227.477 -89.491 227.481 -93.705 227.471 C-95.246 227.47 -96.786 227.476 -98.327 227.49 C-108.189 227.574 -116.841 227.127 -124.812 220.75 C-130.278 213.879 -133.112 208.758 -133.147 199.885 C-133.154 198.63 -133.161 197.376 -133.169 196.083 C-133.172 194.695 -133.174 193.307 -133.177 191.919 C-133.183 190.455 -133.19 188.992 -133.197 187.528 C-133.218 182.723 -133.228 177.918 -133.238 173.113 C-133.242 171.457 -133.246 169.8 -133.251 168.144 C-133.27 160.359 -133.284 152.575 -133.292 144.791 C-133.302 135.817 -133.328 126.844 -133.369 117.87 C-133.399 110.926 -133.414 103.983 -133.417 97.039 C-133.419 92.895 -133.428 88.752 -133.453 84.609 C-133.477 80.707 -133.481 76.806 -133.471 72.905 C-133.47 71.478 -133.477 70.052 -133.49 68.625 C-133.57 59.913 -133.487 51.814 -127.259 45.132 C-120.524 38.9 -113.26 37.861 -104.289 37.902 C-103.045 37.906 -101.801 37.909 -100.52 37.912 C-99.234 37.92 -97.949 37.929 -96.625 37.938 C-95.317 37.942 -94.008 37.947 -92.66 37.951 C-89.44 37.963 -86.22 37.979 -83 38 C-82.814 37.128 -82.628 36.255 -82.436 35.356 C-82.181 34.201 -81.927 33.046 -81.664 31.855 C-81.416 30.715 -81.168 29.574 -80.913 28.399 C-77.252 14.766 -66.906 4.11 -55.145 -3.145 C-37.687 -12.755 -16.297 -10.944 0 0 Z M-125.666 49.725 C-129.541 55.39 -128.688 62.229 -128.631 68.82 C-128.636 70.327 -128.644 71.834 -128.653 73.341 C-128.671 77.42 -128.658 81.498 -128.639 85.576 C-128.622 89.852 -128.631 94.127 -128.636 98.403 C-128.641 105.582 -128.625 112.761 -128.597 119.939 C-128.565 128.23 -128.565 136.52 -128.582 144.811 C-128.598 152.798 -128.591 160.785 -128.574 168.772 C-128.567 172.166 -128.568 175.56 -128.576 178.954 C-128.583 182.953 -128.571 186.951 -128.544 190.95 C-128.537 192.415 -128.537 193.879 -128.544 195.344 C-128.582 204.093 -128.514 210.069 -122.438 216.707 C-117.101 220.811 -114.096 222.249 -107.302 222.261 C-106.63 222.265 -105.958 222.268 -105.265 222.272 C-103.013 222.283 -100.762 222.279 -98.51 222.275 C-96.896 222.279 -95.281 222.284 -93.666 222.29 C-89.28 222.304 -84.893 222.304 -80.507 222.302 C-76.844 222.301 -73.181 222.305 -69.518 222.31 C-60.874 222.321 -52.231 222.322 -43.587 222.316 C-34.675 222.31 -25.762 222.322 -16.85 222.343 C-9.195 222.361 -1.541 222.367 6.114 222.364 C10.684 222.362 15.254 222.364 19.825 222.378 C24.125 222.391 28.425 222.389 32.725 222.376 C34.301 222.374 35.877 222.376 37.452 222.385 C39.609 222.395 41.765 222.387 43.921 222.374 C45.126 222.374 46.331 222.375 47.573 222.375 C53.372 221.741 57.988 219.729 61.812 215.188 C62.376 214.542 62.939 213.896 63.52 213.23 C67.313 207.515 67.272 201.833 67.195 195.227 C67.192 194.303 67.19 193.379 67.187 192.427 C67.176 189.493 67.15 186.559 67.125 183.625 C67.115 181.629 67.106 179.633 67.098 177.637 C67.076 172.758 67.041 167.879 67 163 C66.403 162.995 66.403 162.995 63.379 162.972 C58.911 162.932 54.445 162.866 49.977 162.792 C48.05 162.764 46.123 162.743 44.196 162.729 C41.413 162.707 38.631 162.661 35.848 162.609 C35.422 162.609 35.422 162.609 33.271 162.606 C27.238 162.461 22.179 161.198 17 158 C12.421 152.39 11.798 147.72 11.75 140.688 C11.74 140.314 11.74 140.314 11.688 138.424 C11.648 132.822 12.588 128.644 16.5 124.355 C20.49 121.248 23.272 119.898 28.288 119.795 C28.718 119.785 28.718 119.785 30.896 119.734 C31.821 119.718 32.746 119.701 33.699 119.684 C34.174 119.673 34.174 119.673 36.579 119.621 C39.615 119.555 42.651 119.496 45.688 119.438 C47.745 119.394 49.803 119.351 51.861 119.307 C56.907 119.2 61.954 119.098 67 119 C67.099 113.308 67.172 107.616 67.22 101.922 C67.24 99.988 67.267 98.054 67.302 96.121 C67.351 93.33 67.373 90.541 67.391 87.75 C67.411 86.894 67.432 86.039 67.453 85.157 C67.456 78.368 65.725 73.158 61.254 67.977 C60.696 67.531 60.138 67.085 59.562 66.625 C59.007 66.164 58.451 65.702 57.879 65.227 C53.374 62.286 49.501 61.749 44.168 61.742 C43.831 61.74 43.831 61.74 42.124 61.731 C39.871 61.721 37.618 61.725 35.365 61.729 C33.747 61.724 32.129 61.719 30.511 61.713 C27.029 61.701 23.548 61.696 20.067 61.695 C14.562 61.693 9.058 61.675 3.553 61.654 C-10.118 61.605 -23.789 61.574 -37.46 61.553 C-48.088 61.536 -58.715 61.514 -69.342 61.47 C-74.815 61.448 -80.287 61.44 -85.759 61.442 C-89.163 61.441 -92.566 61.427 -95.97 61.409 C-97.548 61.404 -99.126 61.403 -100.704 61.408 C-102.859 61.414 -105.013 61.402 -107.168 61.385 C-108.374 61.383 -109.58 61.381 -110.822 61.379 C-114.278 60.967 -116.189 60.001 -119 58 C-119.375 55.75 -119.375 55.75 -119 53 C-114.625 49.377 -111.471 48.487 -105.852 48.391 C-105.194 48.374 -104.537 48.358 -103.859 48.341 C-101.781 48.292 -99.704 48.271 -97.625 48.25 C-96.207 48.222 -94.789 48.192 -93.371 48.16 C-89.914 48.087 -86.457 48.037 -83 48 C-83 46.35 -83 44.7 -83 43 C-87.411 42.9 -91.821 42.828 -96.232 42.78 C-97.73 42.76 -99.227 42.733 -100.725 42.698 C-118.4 42.298 -118.4 42.298 -125.666 49.725 Z " fill="#4E4F4E" transform="translate(154,19)"/>
<path d="M0 0 C8.561 6.418 15.097 14.919 16.75 25.75 C17.267 32.228 16.452 38.487 14.75 44.75 C13.75 45.75 13.75 45.75 10.972 45.87 C9.731 45.868 8.49 45.866 7.211 45.864 C6.528 45.864 5.845 45.864 5.141 45.864 C2.874 45.863 0.607 45.855 -1.66 45.848 C-3.228 45.846 -4.796 45.844 -6.364 45.843 C-10.499 45.84 -14.633 45.83 -18.768 45.819 C-22.984 45.808 -27.2 45.804 -31.416 45.799 C-39.694 45.788 -47.972 45.771 -56.25 45.75 C-56.746 44.482 -57.237 43.212 -57.725 41.941 C-57.999 41.234 -58.273 40.527 -58.555 39.798 C-61.164 32.109 -59.411 23.018 -56.25 15.75 C-51.049 5.765 -42.941 -1.632 -32.25 -5.25 C-21.221 -8.666 -9.406 -6.238 0 0 Z " fill="#EDC06E" transform="translate(145.25,31.25)"/>
<path d="M0 0 C0.884 -0.016 1.769 -0.032 2.68 -0.048 C3.628 -0.054 4.576 -0.059 5.553 -0.065 C6.534 -0.074 7.516 -0.083 8.527 -0.092 C10.6 -0.107 12.674 -0.115 14.748 -0.119 C17.917 -0.131 21.085 -0.18 24.254 -0.231 C26.27 -0.24 28.287 -0.247 30.303 -0.252 C31.249 -0.272 32.195 -0.291 33.17 -0.311 C37.645 -0.281 39.846 -0.149 43.59 2.48 C45.737 5.666 46.137 7.281 46.158 11.088 C46.162 11.632 46.162 11.632 46.178 14.388 C46.159 15.516 46.139 16.644 46.119 17.806 C46.139 18.934 46.158 20.062 46.178 21.224 C46.172 22.314 46.165 23.403 46.158 24.525 C46.156 25.02 46.156 25.02 46.141 27.523 C45.206 31.546 43.866 32.926 40.494 35.306 C37.172 35.994 33.939 35.937 30.557 35.865 C29.599 35.863 28.641 35.86 27.655 35.858 C25.634 35.848 23.613 35.826 21.593 35.793 C18.505 35.744 15.419 35.732 12.33 35.726 C10.364 35.712 8.398 35.696 6.432 35.677 C5.971 35.675 5.971 35.675 3.641 35.661 C-2.066 35.556 -6.277 35.225 -10.756 31.369 C-14.252 27.248 -13.79 22.624 -13.881 17.494 C-13.918 16.699 -13.955 15.904 -13.994 15.086 C-14.056 10.948 -13.856 8.167 -11.232 4.857 C-7.561 1.423 -5.023 0.069 0 0 Z " fill="#7CB3A8" transform="translate(183.505615234375,141.693603515625)"/>
<path d="M0 0 C1.505 0.02 3.01 0.038 4.516 0.055 C8.178 0.098 11.839 0.167 15.5 0.25 C15.5 1.9 15.5 3.55 15.5 5.25 C15.061 5.255 15.061 5.255 12.841 5.278 C9.564 5.323 6.289 5.384 3.012 5.458 C1.598 5.486 0.184 5.507 -1.23 5.521 C-3.271 5.543 -5.311 5.589 -7.352 5.641 C-7.964 5.651 -7.964 5.651 -11.065 5.704 C-15.123 6.349 -17.352 7.643 -20.5 10.25 C-20.875 13 -20.875 13 -20.5 15.25 C-16.443 18.138 -13.632 18.624 -8.689 18.622 C-8.352 18.624 -8.352 18.624 -6.651 18.633 C-4.405 18.643 -2.159 18.631 0.087 18.619 C1.701 18.621 3.314 18.625 4.927 18.63 C8.399 18.639 11.87 18.638 15.341 18.63 C20.834 18.619 26.327 18.631 31.82 18.647 C45.465 18.683 59.11 18.689 72.754 18.687 C83.356 18.685 93.958 18.692 104.56 18.727 C110.017 18.743 115.473 18.742 120.929 18.726 C124.329 18.72 127.73 18.731 131.13 18.746 C132.702 18.75 134.275 18.747 135.847 18.736 C145.073 18.679 152.171 18.821 159.559 24.961 C162.618 28.653 164.257 31.278 164.5 36.25 C164.076 35.852 163.652 35.453 163.215 35.043 C162.628 34.513 162.042 33.983 161.438 33.438 C161.153 33.176 161.153 33.176 159.715 31.855 C154.543 28.107 149.913 26.875 143.589 26.878 C142.93 26.874 142.271 26.871 141.592 26.867 C139.402 26.857 137.214 26.869 135.025 26.881 C133.447 26.879 131.869 26.875 130.292 26.87 C126.903 26.861 123.514 26.862 120.125 26.87 C114.757 26.881 109.389 26.869 104.021 26.853 C90.685 26.817 77.349 26.811 64.013 26.813 C53.651 26.815 43.289 26.808 32.928 26.773 C27.601 26.757 22.275 26.758 16.949 26.774 C13.621 26.78 10.294 26.769 6.966 26.754 C5.435 26.75 3.903 26.753 2.371 26.764 C-8.155 26.832 -17.39 25.724 -26.688 20.438 C-29.297 17.288 -29.638 15.329 -29.5 11.25 C-27.422 6.309 -24.056 3.355 -19.209 1.042 C-13.047 -0.759 -6.364 -0.148 0 0 Z " fill="#B5D5CB" transform="translate(55.5,61.75)"/>
<path d="M0 0 C0.401 0.387 0.802 0.773 1.215 1.172 C1.783 1.693 2.352 2.213 2.938 2.75 C3.21 3.005 3.21 3.005 4.59 4.297 C13.185 10.37 21.529 10.577 31.734 10.518 C33.315 10.523 34.896 10.53 36.478 10.539 C40.75 10.557 45.023 10.55 49.296 10.537 C53.781 10.527 58.266 10.537 62.751 10.543 C70.282 10.55 77.813 10.541 85.344 10.521 C94.032 10.5 102.72 10.507 111.408 10.529 C118.886 10.547 126.364 10.549 133.842 10.539 C138.3 10.533 142.758 10.532 147.216 10.545 C151.41 10.557 155.603 10.549 159.797 10.526 C161.329 10.52 162.862 10.522 164.394 10.531 C176.107 10.592 185.271 9.269 194 1 C193.864 6.44 191.562 9.216 188.18 13.168 C183.228 17.33 178.286 18.375 171.948 18.394 C171.611 18.397 171.611 18.397 169.905 18.413 C167.665 18.429 165.426 18.425 163.186 18.42 C161.572 18.427 159.958 18.436 158.345 18.446 C153.975 18.468 149.605 18.471 145.235 18.469 C141.582 18.469 137.929 18.477 134.276 18.486 C125.656 18.505 117.036 18.508 108.416 18.501 C99.533 18.494 90.651 18.517 81.769 18.554 C74.132 18.585 66.495 18.596 58.858 18.592 C54.302 18.59 49.746 18.596 45.189 18.62 C40.904 18.643 36.619 18.641 32.333 18.62 C30.764 18.617 29.195 18.622 27.626 18.636 C12.293 18.767 12.293 18.767 6 13 C5.492 12.536 4.984 12.071 4.461 11.593 C1.053 8.016 0.29 4.838 0 0 Z " fill="#66978B" transform="translate(26,223)"/>
<path d="M0 0 C0.82 0.329 1.64 0.657 2.484 0.996 C14.987 6.607 23.212 16.538 28.875 28.812 C30.958 34.715 31.182 40.436 31.188 46.625 C31.2 47.375 31.212 48.125 31.225 48.898 C31.235 52.748 31.181 55.742 29 59 C27.02 59 25.04 59 23 59 C23.165 58.134 23.33 57.267 23.5 56.375 C25.347 42.755 23.782 31.349 15.68 20.062 C8.96 11.812 0.945 8.315 -9 5 C-22.282 4.163 -33.144 5.862 -44 14 C-50.984 20.385 -56.644 28.468 -58 38 C-58.093 40.457 -58.13 42.916 -58.125 45.375 C-58.126 46.008 -58.126 46.008 -58.133 49.211 C-58.003 52.91 -57.593 56.354 -57 60 C-59.31 60 -61.62 60 -64 60 C-67.354 46.665 -65.806 32.095 -58.812 20.375 C-45.844 1.139 -22.422 -9.169 0 0 Z " fill="#EABD6D" transform="translate(141,17)"/>
<path d="M0 0 C3.471 2.068 5.777 4.109 7 8 C7.455 13.007 7.111 16 4 20 C0.718 23.282 -2.431 23.76 -7 24 C-11.014 23.14 -13.53 21.102 -16.043 17.84 C-17.888 14.293 -17.872 10.847 -17 7 C-13.19 0.046 -7.353 -0.943 0 0 Z " fill="#4C4C4A" transform="translate(194,148)"/>
<path d="M0 0 C0 0.33 0 0.66 0 1 C-0.675 1.086 -1.351 1.173 -2.047 1.262 C-6.244 1.923 -9.24 2.403 -12.625 5.062 C-14.54 9.153 -14.906 12.566 -14 17 C-12.171 20.539 -9.783 22.617 -6.188 24.375 C-5.827 24.478 -5.827 24.478 -4 25 C-4 25.66 -4 26.32 -4 27 C0.875 26.931 5.75 26.843 10.624 26.738 C12.281 26.704 13.937 26.676 15.594 26.654 C17.982 26.62 20.37 26.568 22.758 26.512 C23.125 26.509 23.125 26.509 24.984 26.492 C29.698 26.359 32.947 25.395 37 23 C35.75 26.653 35.329 27.781 32 30 C30.002 30.254 30.002 30.254 27.7 30.259 C26.835 30.265 25.971 30.271 25.08 30.278 C24.614 30.276 24.614 30.276 22.258 30.266 C21.297 30.268 20.337 30.269 19.347 30.271 C17.315 30.273 15.282 30.269 13.25 30.261 C10.144 30.25 7.039 30.261 3.934 30.273 C1.958 30.272 -0.017 30.27 -1.992 30.266 C-2.919 30.27 -3.847 30.274 -4.802 30.278 C-10.552 30.236 -14.736 29.95 -19.25 26.062 C-21.806 23.05 -22.125 20.58 -22.098 16.77 C-22.096 16.368 -22.096 16.368 -22.088 14.338 C-22.08 13.505 -22.071 12.671 -22.062 11.812 C-22.058 10.968 -22.053 10.123 -22.049 9.252 C-22.037 7.168 -22.019 5.084 -22 3 C-21.688 2.847 -21.688 2.847 -20.109 2.07 C-18 1 -18 1 -16.25 -0.125 C-11.13 -2.116 -5.255 -1.051 0 0 Z " fill="#78B1A6" transform="translate(192,147)"/>
<path d="M0 0 C0.353 0.001 0.353 0.001 2.139 0.004 C4.391 0.01 6.643 0.022 8.895 0.035 C10.423 0.04 11.951 0.045 13.479 0.049 C17.221 0.06 20.964 0.077 24.707 0.098 C24.707 1.748 24.707 3.398 24.707 5.098 C24.268 5.102 24.268 5.102 22.048 5.126 C18.771 5.17 15.496 5.232 12.219 5.305 C10.805 5.333 9.391 5.355 7.977 5.369 C5.936 5.39 3.896 5.437 1.855 5.488 C1.243 5.499 1.243 5.499 -1.858 5.552 C-5.928 6.199 -8.152 7.459 -11.293 10.098 C-11.668 13.348 -11.668 13.348 -11.293 16.098 C-14.668 14.912 -16.94 13.822 -19.293 11.098 C-18.101 6.464 -15.826 4.693 -12.047 2.113 C-8.112 -0.165 -4.395 -0.033 0 0 Z " fill="#7BB0A6" transform="translate(46.29296875,61.90234375)"/>
<path d="M0 0 C0.489 -0.003 0.489 -0.003 2.965 -0.019 C5.027 -0.026 7.088 -0.023 9.15 -0.01 C12.302 0.004 15.452 -0.03 18.604 -0.068 C20.611 -0.069 22.618 -0.067 24.625 -0.062 C25.565 -0.076 26.504 -0.089 27.473 -0.103 C34.748 0.001 34.748 0.001 37.879 3.106 C38.495 3.918 39.111 4.73 39.746 5.566 C39.416 6.556 39.086 7.546 38.746 8.566 C38.18 8.08 37.614 7.593 37.031 7.092 C34.455 5.372 33.234 5.183 30.18 5.162 C29.282 5.15 28.384 5.137 27.459 5.124 C26.495 5.127 25.532 5.13 24.539 5.133 C23.54 5.128 22.542 5.122 21.513 5.117 C19.4 5.111 17.288 5.112 15.176 5.12 C11.956 5.129 8.737 5.1 5.518 5.068 C3.462 5.067 1.407 5.067 -0.648 5.07 C-1.606 5.059 -2.563 5.048 -3.55 5.036 C-9.644 5.099 -13.228 6.079 -18.254 9.566 C-17.162 5.637 -15.635 3.583 -12.174 1.398 C-8.291 -0.284 -4.168 -0.022 0 0 Z " fill="#B3D0C8" transform="translate(189.25390625,141.43359375)"/>
<path d="M0 0 C3.979 -0.117 7.957 -0.188 11.938 -0.25 C13.054 -0.284 14.171 -0.317 15.322 -0.352 C22.255 -0.433 28.118 0.044 34 4 C37.16 7.551 38.208 10.698 38.25 15.438 C38.167 16.613 38.085 17.789 38 19 C36.125 18.438 36.125 18.438 34 17 C33.322 14.67 32.656 12.336 32 10 C28.18 6.304 24.388 5.867 19.238 5.684 C18.679 5.663 18.679 5.663 15.85 5.557 C14.682 5.517 13.515 5.478 12.312 5.438 C11.723 5.416 11.723 5.416 8.74 5.307 C5.827 5.2 2.914 5.098 0 5 C0 3.35 0 1.7 0 0 Z " fill="#80B5AA" transform="translate(177,62)"/>
<path d="M0 0 C2.062 1.625 2.062 1.625 3 4 C2.881 7.397 2.581 9.94 0.938 12.938 C-2.279 14.701 -5.494 14.739 -9 14 C-11.562 11.938 -11.562 11.938 -13 9 C-13 5.231 -12.779 2.997 -10.438 0 C-6.799 -1.493 -3.726 -1.145 0 0 Z " fill="#E6B963" transform="translate(194,153)"/>
<path d="M0 0 C1.25 0.003 2.501 0.006 3.789 0.01 C4.44 0.014 4.44 0.014 7.734 0.035 C8.393 0.037 8.393 0.037 11.727 0.049 C14.979 0.061 18.232 0.077 21.484 0.098 C21.649 1.088 21.649 1.088 22.484 6.098 C18.446 6.147 14.408 6.183 10.369 6.208 C8.996 6.218 7.624 6.231 6.252 6.249 C4.273 6.273 2.295 6.283 0.316 6.293 C-0.872 6.303 -2.061 6.314 -3.286 6.325 C-6.463 6.101 -8.659 5.459 -11.516 4.098 C-11.186 3.108 -10.856 2.118 -10.516 1.098 C-7.154 -0.286 -3.585 -0.016 0 0 Z " fill="#57847C" transform="translate(50.515625,70.90234375)"/>
<path d="M0 0 C0.615 0.349 1.23 0.699 1.863 1.059 C2.672 1.514 3.48 1.969 4.312 2.438 C4.713 2.664 4.713 2.664 6.738 3.809 C9.94 5.495 12.537 6.128 16.104 6.205 C16.515 6.215 16.515 6.215 18.591 6.266 C19.032 6.274 19.032 6.274 21.262 6.316 C22.168 6.337 23.073 6.358 24.007 6.379 C26.9 6.445 29.794 6.504 32.688 6.562 C34.649 6.606 36.611 6.649 38.572 6.693 C43.381 6.8 48.191 6.902 53 7 C53 8.32 53 9.64 53 11 C41.479 11.103 29.954 11.12 18.438 10.75 C17.577 10.736 16.716 10.722 15.829 10.707 C10.445 10.493 7.29 9.541 3 6 C0 2.6 0 2.6 0 0 Z " fill="#6B9B90" transform="translate(168,175)"/>
<path d="M0 0 C1.11 0.65 2.219 1.3 3.363 1.969 C8.337 4.444 12.717 4.564 18.195 4.496 C18.671 4.497 18.671 4.497 21.077 4.501 C23.076 4.499 25.074 4.487 27.073 4.467 C30.123 4.438 33.172 4.446 36.223 4.459 C38.172 4.453 40.121 4.444 42.07 4.434 C42.977 4.437 43.883 4.439 44.817 4.442 C49.972 4.366 53.493 3.79 58 1 C56.75 4.653 56.329 5.781 53 8 C51.002 8.254 51.002 8.254 48.7 8.259 C48.267 8.262 48.267 8.262 46.08 8.278 C45.149 8.274 44.217 8.27 43.258 8.266 C42.297 8.268 41.337 8.269 40.347 8.271 C38.315 8.273 36.282 8.269 34.25 8.261 C31.144 8.25 28.039 8.261 24.934 8.273 C22.958 8.272 20.983 8.27 19.008 8.266 C18.081 8.27 17.153 8.274 16.198 8.278 C10.395 8.236 6.233 7.931 1.688 4 C0 2 0 2 0 0 Z " fill="#6B9A8F" transform="translate(171,169)"/>
<path d="M0 0 C3.896 -0.058 7.791 -0.094 11.688 -0.125 C12.79 -0.142 13.893 -0.159 15.029 -0.176 C16.096 -0.182 17.163 -0.189 18.262 -0.195 C18.751 -0.201 18.751 -0.201 21.229 -0.227 C24.257 0.021 26.348 0.51 29 2 C29.33 3.32 29.66 4.64 30 6 C19.77 6 9.54 6 -1 6 C-0.67 4.02 -0.34 2.04 0 0 Z " fill="#568078" transform="translate(176,71)"/>
<path d="M0 0 C0 0.33 0 0.66 0 1 C-1.016 0.977 -2.032 0.954 -3.078 0.93 C-17.11 0.7 -30.806 1.227 -42.098 10.773 C-43.247 11.93 -44.371 13.111 -45.465 14.32 C-47.759 16.831 -50.354 18.87 -53 21 C-50.138 12.743 -43.2 7.481 -35.754 3.32 C-24.417 -2.115 -12.045 -4.542 0 0 Z " fill="#DDC593" transform="translate(137,16)"/>
<path d="M0 0 C0 1.32 0 2.64 0 4 C-1.574 5.273 -1.574 5.273 -3.688 6.375 C-7.812 8.727 -10.177 11.207 -13 15 C-13.99 14.67 -14.98 14.34 -16 14 C-15.926 10.873 -15.638 8.716 -13.516 6.336 C-9.15 2.549 -5.937 0 0 0 Z " fill="#F9EBCF" transform="translate(112,33)"/>
<path d="M0 0 C-1.309 2.619 -2.363 2.664 -5.062 3.688 C-11.502 6.431 -16.01 10.968 -20.875 15.875 C-23 18 -23 18 -25 19 C-22.034 10.442 -14.888 5.583 -7.395 1.031 C-4.739 -0.112 -2.861 -0.203 0 0 Z " fill="#EED29C" transform="translate(109,18)"/>
<path d="M0 0 C2.31 0.33 4.62 0.66 7 1 C8.283 4.85 8.066 7.947 8 12 C6.125 11.438 6.125 11.438 4 10 C2.875 6.562 2.875 6.562 2 3 C1.34 2.01 0.68 1.02 0 0 Z " fill="#5E8B80" transform="translate(207,69)"/>
</svg>
