<svg version="1.1" xmlns="http://www.w3.org/2000/svg" viewBox="207.55 7.98 1625.49 2028.56" width="205.03" height="256">
<defs>
	<linearGradient id="Gradient1" gradientUnits="userSpaceOnUse" x1="1091.52" y1="1904.01" x2="904.996" y2="156.511">
		<stop class="stop0" offset="0" stop-opacity="1" stop-color="rgb(227,131,78)"/>
		<stop class="stop1" offset="1" stop-opacity="1" stop-color="rgb(238,161,107)"/>
	</linearGradient>
</defs>
<path transform="translate(0,0)" fill="rgb(52,48,54)" d="M 929.339 83.2923 C 931.527 83.162 933.718 83.1111 935.91 83.1398 C 948.309 83.3881 969.657 92.4537 981.271 97.7392 C 1068.75 137.272 1144.75 195.27 1212.51 262.604 C 1321.82 371.231 1401.08 519.944 1398.91 677.501 C 1425.24 649.657 1444.25 618.439 1461.38 584.386 C 1470.21 566.838 1471.48 540.975 1496.55 539.316 C 1503.14 538.88 1513.41 540.726 1518.09 545.975 C 1543.4 574.354 1560.98 611.151 1579.7 644.149 C 1666.89 811.848 1743.14 1001.1 1755.52 1191.43 C 1757.6 1239.87 1757.91 1289.28 1753.18 1337.58 C 1751.03 1359.63 1746.55 1382.58 1742.15 1404.14 C 1718.06 1522.12 1659.21 1632.93 1577.65 1721.49 C 1445.27 1865.23 1260.93 1950.25 1065.87 1960.05 C 1023.86 1960.36 983.205 1961.41 941.348 1956.58 C 610.585 1918.38 312.976 1641.56 287.368 1304.7 C 282.679 1249.23 285.791 1193.37 296.614 1138.76 C 339.098 926.898 509.413 754.524 528.864 535.042 C 530.618 515.247 528.108 494.744 530.399 474.399 C 534.113 469.789 538.565 463.19 544.146 461.448 C 563.676 455.35 587.356 465.1 604.587 472.571 C 655.454 494.629 702.863 537.452 729.81 585.955 C 740.229 604.708 746.297 621.124 753.813 641.234 C 770.618 618.805 784.776 591.958 799.326 567.824 C 861.497 464.698 905.162 351.155 911.734 230.002 C 913.855 190.911 910.958 151.957 907.754 113.078 C 906.434 97.0601 914.741 87.8487 929.339 83.2923 z"/>
<path transform="translate(0,0)" fill="url(#Gradient1)" d="M 962.85 146.391 C 972.097 150.169 1002.77 166.798 1012.37 172.303 C 1125.96 237.428 1241.4 349.925 1298.14 468.647 C 1317.23 509.586 1331.01 552.802 1339.13 597.241 C 1347.33 640.478 1350.2 684.078 1349.99 727.914 C 1349.98 729.563 1351.5 740.387 1352.26 741.54 C 1369.31 767.421 1395.53 747.307 1413.2 734.069 C 1455.03 702.359 1481.62 659.575 1502.92 613.936 C 1527.14 657.09 1551.49 699.936 1572.71 744.837 C 1645.84 899.56 1709.34 1090.7 1705.95 1263.17 C 1703.48 1433.69 1633.35 1596.25 1511 1715.06 C 1375.5 1844.61 1193.76 1914.47 1006.38 1909.05 C 1004.93 1909.03 1003.48 1909.01 1002.02 1908.96 C 815.343 1903.55 640.875 1816.79 513.475 1682.08 C 440.35 1605.28 387.217 1511.69 358.749 1409.54 C 341.623 1347.36 335.038 1282.74 339.267 1218.38 C 341.932 1180.93 348.319 1143.84 358.334 1107.65 C 387.936 1003.2 446.709 908.964 493.755 811.865 C 538.871 718.75 578.497 623.341 581.319 518.237 C 654.612 555.382 690.416 603.25 712.005 682.813 C 715.267 694.835 718.615 713.627 727.153 722.484 C 738.199 733.944 756.311 730.623 765.002 717.993 C 816.744 644.79 868.433 561.441 904.587 479.423 C 949.476 377.591 971.435 257.342 962.85 146.391 z"/>
<path transform="translate(0,0)" fill="rgb(52,48,54)" d="M 976.831 742.152 C 1013.7 747.263 1099.13 807.904 1128.16 833.926 C 1207.96 905.468 1247.62 982.6 1253.65 1090.25 C 1276.19 1070.6 1284.75 1047.32 1296.03 1020.73 C 1312.41 982.125 1333.51 1023.15 1342.92 1038.83 C 1455.03 1225.54 1537.01 1480.8 1380.49 1668.41 C 1299.15 1765.9 1183 1818.55 1057.75 1829.32 C 894.092 1843.8 716.897 1747.92 636.779 1605.06 C 614.615 1564.62 600.203 1520.39 594.287 1474.65 C 588.893 1433.47 590.564 1390.07 600.13 1349.42 C 623.281 1251.8 685.966 1168.96 718.461 1074.79 C 731.743 1036.29 733.893 1007.64 733.217 967.608 C 732.99 954.225 751.278 956.146 760.745 959.546 C 795.162 971.905 826.818 996.173 847.05 1026.79 C 855.049 1038.82 861.329 1052.63 867.676 1065.93 C 919.332 986.546 961.409 916.808 964.964 818.81 C 965.697 798.615 963.662 772.106 964.805 752.094 C 965.007 748.551 973.042 743.872 976.831 742.152 z"/>
<path transform="translate(0,0)" fill="rgb(237,188,104)" d="M 991.633 775.111 C 1007.46 780.659 1044.83 803.887 1059.23 813.873 C 1123.97 858.79 1180.52 918.944 1208.63 993.62 C 1219.88 1023.5 1224.78 1057.88 1225.79 1089.64 C 1226.02 1096.69 1224.91 1118.52 1226.81 1124.13 C 1233.23 1143.11 1254.02 1128.82 1262.9 1120.27 C 1287.88 1099.18 1302.17 1076.02 1315.64 1047.4 C 1361.36 1122.02 1400.13 1206.56 1423.51 1290.99 C 1434.33 1330.07 1440.25 1376.8 1440.99 1417.34 C 1443.35 1514.46 1406.15 1608.37 1337.92 1677.54 C 1259.53 1758.58 1140.43 1803.29 1028.79 1805.32 C 913.448 1804.33 803.194 1757.71 722.137 1675.64 C 677.602 1631.14 645.602 1575.67 629.369 1514.84 C 622.024 1487.06 618.397 1458.43 618.584 1429.7 C 618.08 1259.55 759.861 1150.76 761.09 989.48 C 848.229 1027.83 837.36 1101.02 855.184 1112.8 C 857.663 1114.44 860.196 1114.68 863.067 1114.24 C 869.546 1113.25 873.675 1107.3 877.381 1102.37 C 890.687 1084.7 902.136 1065.39 913.843 1046.64 C 958.741 974.712 989.144 906.41 992.414 820.617 C 992.99 805.495 993.711 790.143 991.633 775.111 z"/>
<path transform="translate(0,0)" fill="rgb(245,218,154)" d="M 1005.98 1116.05 C 1016.92 1118.18 1029.45 1124.69 1038.79 1130.18 C 1100.18 1166.29 1155.16 1225.73 1161.39 1299.59 C 1161.92 1305.93 1162.18 1315.9 1163.76 1321.82 C 1175.12 1324.35 1191.1 1276.08 1202.87 1279.26 C 1215.74 1294.23 1223.63 1313.48 1232.73 1330.83 C 1285.92 1432.36 1327.34 1565.42 1240.18 1662.13 C 1221.57 1683.55 1203.99 1698.79 1179.09 1712.37 C 1131.87 1738.13 1094.57 1748.97 1040.52 1752.65 C 970.229 1754.43 912.236 1736.65 854.921 1695.54 C 813.3 1665.69 779.301 1606.83 772.5 1556.31 C 760.378 1469.71 819.762 1399.82 848.408 1323.24 C 851.885 1313.95 862.484 1259.01 863.05 1258.25 C 876.492 1253.41 892.135 1267.29 900.8 1276.33 C 912.169 1288.18 918.846 1304.2 925.898 1318.85 C 965.799 1277.1 998.514 1210.3 998.704 1152.52 C 998.746 1139.78 993.778 1122.35 1005.98 1116.05 z"/>
<path transform="translate(0,0)" fill="rgb(249,243,226)" d="M 1293.64 1166.17 C 1297.3 1166.2 1301.44 1166.41 1304.96 1167.44 C 1344.2 1179.01 1394.34 1280.63 1347.54 1304.73 C 1298.3 1309.71 1248.34 1185.33 1293.64 1166.17 z"/>
<path transform="translate(0,0)" fill="rgb(249,243,226)" d="M 1469.41 817.127 C 1479.39 816.341 1488.22 816.503 1497.48 821.443 C 1537.06 843.346 1562.34 889.032 1577.38 929.879 C 1589.72 963.414 1607.14 1046.66 1560.22 1061.89 C 1471.98 1072.53 1393.42 842.046 1469.41 817.127 z"/>
</svg>