<svg version="1.1" xmlns="http://www.w3.org/2000/svg" viewBox="5.51 11.90 2041.43 2020.23" width="256" height="253.37">
<path transform="translate(0,0)" fill="rgb(69,68,71)" d="M 976.75 89.3414 C 994.539 87.5095 1011.77 89.1142 1025.14 102.377 C 1046.57 123.639 1043.8 151.722 1044.12 179.547 C 1119.72 199.701 1187.44 240.601 1253.06 281.827 C 1328.67 329.326 1400.73 386.003 1462.57 450.29 C 1650.2 645.348 1773.59 924.515 1744.53 1198.21 C 1741.15 1230.03 1729.79 1253.67 1698.46 1264.9 C 1507.23 1333.41 1299.75 1320.78 1102.64 1288.2 C 1082.94 1284.95 1063.99 1280.07 1044.01 1277.13 C 1043.56 1299.24 1046.01 1337.41 1047.03 1360.78 C 1107.06 1361.96 1169.36 1361.13 1229.59 1361.12 L 1569.31 1361.13 L 1706.37 1361.22 C 1731.33 1361.23 1757.15 1360.72 1782.1 1362.05 C 1792.03 1361.98 1798.76 1366.11 1806.55 1371.45 C 1850.3 1401.47 1826.79 1465.48 1813.06 1506.32 C 1802.76 1536.96 1790.65 1569.67 1774.11 1598.52 C 1742.08 1654.37 1699.73 1703.69 1647.45 1741.73 C 1643.18 1744.83 1613.62 1765.47 1612.41 1767.11 L 1612.76 1768.5 C 1620.19 1767.16 1633.32 1759.31 1640.03 1755.39 C 1678.36 1732.99 1703.41 1711.41 1749.98 1709.94 C 1770.19 1709.45 1790.31 1712.67 1809.35 1719.46 C 1828 1726.26 1852.65 1746.56 1871.49 1757.15 C 1893.9 1769.87 1917.61 1771.89 1937.08 1789.7 C 1966.4 1816.52 1971.33 1868.84 1943.11 1898.04 C 1929.9 1911.71 1917.7 1917.73 1899.3 1922.29 C 1849.78 1939.38 1785.7 1869.42 1744.52 1880.3 C 1683.63 1896.4 1660.31 1937.61 1587.36 1938.63 C 1508.5 1937.24 1485.1 1890.03 1422.52 1882.17 C 1369.09 1875.45 1292.5 1955.32 1228.28 1949.84 C 1186.74 1946.29 1159.87 1939.59 1123.09 1917.01 C 1097.56 1901.84 1072.3 1888.11 1041.62 1887.86 C 965.524 1889.96 932.723 1950.19 851.389 1951.91 C 770.123 1953.63 736.403 1896.45 663.73 1890.13 C 611.064 1885.55 548.07 1947.42 493.561 1950.48 C 435.564 1956.52 403.471 1941.55 353.94 1913.89 C 340.035 1906.12 316.305 1891.51 300.048 1892.16 C 253.179 1894.67 217.939 1931.59 170.26 1932.77 C 123.325 1935.04 83.2055 1909.31 82.3444 1859.57 C 81.1207 1788.87 137.832 1788.67 185.709 1760.9 C 232.767 1733.6 269.231 1708.22 327.638 1720.1 C 370.795 1728.87 419.69 1782.5 462.995 1781.53 L 463.068 1780.06 C 457.143 1771.99 439.34 1766.44 430.783 1760.7 C 409.72 1746.58 385.544 1731.3 366.568 1714.48 C 300.738 1656.3 255.187 1577.15 232.547 1492.64 C 223.766 1459.87 206.752 1409.61 232.603 1381.15 C 253.317 1358.35 286.371 1363.39 314.158 1363.07 C 342.906 1362.75 371.674 1363.48 400.393 1362.94 C 525.354 1361.31 650.328 1360.79 775.298 1361.38 C 821.377 1361.2 878.549 1362.97 923.661 1360.75 C 926.044 1341.78 924.872 1303.19 924.875 1282.52 L 924.285 1118.5 C 926.207 905.049 926.764 691.587 925.955 478.129 L 925.622 257.008 C 925.632 221.709 925.12 186.374 926.099 151.094 C 927.076 115.888 940.118 94.3688 976.75 89.3414 z M 1044.86 1045.82 C 1042.47 1061.27 1043.73 1105.79 1043.85 1123.56 C 1053.52 1102.31 1065.39 1043.9 1071.17 1017.92 C 1082.86 972.726 1087.47 926.836 1092.61 880.692 C 1111.39 711.978 1093.38 542.429 1054.27 377.84 C 1052.84 371.795 1049.22 357.156 1045.94 352.646 L 1045.14 352.947 C 1043.27 359.527 1043.98 428.38 1043.94 440.286 L 1044.99 765.88 L 1044.03 959.372 C 1044.05 980.014 1042.87 1027.33 1044.86 1045.82 z"/>
<path transform="translate(0,0)" fill="rgb(150,192,175)" d="M 270.909 1399.34 C 310.598 1397.19 355.097 1397.87 394.989 1397.95 L 553.971 1397.73 L 1115.73 1397.03 L 1554.09 1396.99 L 1690.15 1397 C 1718.45 1397.01 1746.75 1397.1 1775.04 1398.18 C 1780.2 1398.38 1786.52 1401.26 1790.24 1404.78 C 1796.6 1410.79 1794.59 1422.17 1793.87 1430.01 C 1775.93 1536.98 1716.89 1646.76 1627.54 1711.08 C 1600.41 1730.61 1573.17 1741.36 1544.94 1757.18 C 1527.41 1747.68 1511.16 1736.32 1494.04 1726.12 C 1455.42 1703.12 1407.36 1696.44 1365.03 1713.58 C 1351.21 1720.12 1337.24 1726.98 1324.49 1735.27 C 1286.95 1759.66 1245.83 1790.74 1198.37 1773.39 C 1175.25 1764.94 1143.19 1742.48 1120.37 1728.87 C 1057.19 1697.47 1017.4 1699.64 955.332 1731.25 C 931.295 1747.51 895.219 1771.44 868.178 1777.64 C 830.081 1786.38 801.947 1769.22 771.275 1749.42 C 760.348 1742.37 747.183 1735.74 735.655 1728.54 C 694.448 1708.22 660.21 1703.96 614.844 1714.84 C 604.355 1719.37 591.542 1725.01 581.871 1730.97 C 561.875 1743.3 546.414 1754.52 525.131 1764.7 C 509.61 1757.02 490.252 1750.18 474.05 1742.5 C 432.924 1722.99 401.123 1699.46 370.172 1666.49 C 360.364 1655.98 352.417 1647.97 343.362 1636.39 C 300.043 1580.97 262.111 1492.88 255.98 1422.62 C 256.284 1409.73 260 1406.02 270.909 1399.34 z"/>
<path transform="translate(0,0)" fill="rgb(202,221,209)" d="M 270.909 1399.34 C 310.598 1397.19 355.097 1397.87 394.989 1397.95 L 553.971 1397.73 L 1115.73 1397.03 L 1554.09 1396.99 L 1690.15 1397 C 1718.45 1397.01 1746.75 1397.1 1775.04 1398.18 C 1780.2 1398.38 1786.52 1401.26 1790.24 1404.78 C 1796.6 1410.79 1794.59 1422.17 1793.87 1430.01 C 1776.1 1427.3 1759.97 1429.36 1742.43 1428.87 C 1708.04 1427.93 1674.34 1428.32 1640 1428.66 L 1344.17 1431.77 C 1064.35 1434.85 784.5 1434.63 504.685 1431.11 L 356.165 1430.19 C 327.275 1430.11 297.566 1430.69 268.709 1428.77 C 262.808 1428.38 258.874 1427.68 255.98 1422.62 C 256.284 1409.73 260 1406.02 270.909 1399.34 z"/>
<path transform="translate(0,0)" fill="rgb(125,163,148)" d="M 370.172 1666.49 C 374.728 1663.31 375.617 1664.47 382.413 1665.76 C 402.495 1669.57 422.361 1676.67 442.145 1682.13 C 467.079 1688.93 492.325 1694.53 517.796 1698.91 C 537.842 1702.4 557.921 1705.71 578.031 1708.82 C 591.52 1710.85 601.573 1711.88 614.844 1714.84 C 604.355 1719.37 591.542 1725.01 581.871 1730.97 C 561.875 1743.3 546.414 1754.52 525.131 1764.7 C 509.61 1757.02 490.252 1750.18 474.05 1742.5 C 432.924 1722.99 401.123 1699.46 370.172 1666.49 z"/>
<path transform="translate(0,0)" fill="rgb(125,163,148)" d="M 1120.37 1728.87 C 1127.26 1726.44 1172.25 1725.94 1182.25 1725.8 C 1224.44 1725.39 1266.06 1720.13 1307.98 1716.45 C 1319.65 1715.43 1355.95 1709.85 1365.03 1713.58 C 1351.21 1720.12 1337.24 1726.98 1324.49 1735.27 C 1286.95 1759.66 1245.83 1790.74 1198.37 1773.39 C 1175.25 1764.94 1143.19 1742.48 1120.37 1728.87 z"/>
<path transform="translate(0,0)" fill="rgb(125,163,148)" d="M 735.655 1728.54 C 740.604 1725.35 767.211 1727.73 774.608 1727.96 C 799.783 1728.69 824.962 1729.27 850.144 1729.71 L 920.488 1729.99 C 929.722 1730.01 946.929 1729.18 955.332 1731.25 C 931.295 1747.51 895.219 1771.44 868.178 1777.64 C 830.081 1786.38 801.947 1769.22 771.275 1749.42 C 760.348 1742.37 747.183 1735.74 735.655 1728.54 z"/>
<path transform="translate(0,0)" fill="rgb(252,238,209)" d="M 1067.16 1178.18 C 1083.35 1131.8 1093.31 1093.55 1103.89 1046.09 C 1149.04 838.928 1148.58 624.424 1102.52 417.463 C 1089 355.386 1069.51 294.892 1051.24 234.106 C 1050.07 230.184 1047.58 222.601 1051.6 220.352 C 1059.99 221.594 1091.61 236.136 1101.01 240.382 C 1226.11 296.911 1351.92 387.569 1445.77 487.358 C 1576.82 626.683 1674.41 818.198 1704.26 1007.75 C 1710.24 1045.74 1711.96 1104.79 1710.86 1142.93 C 1709.74 1169.75 1707.18 1197.22 1701.09 1223.4 C 1641.73 1251.85 1568.63 1263.92 1503.73 1271.6 C 1387.4 1285.38 1269.77 1278.15 1154.26 1260.72 C 1131.56 1257.46 1108.95 1253.63 1086.45 1249.23 C 1076.95 1247.39 1064.88 1245.64 1056.01 1242.31 C 1052.07 1237.08 1051.44 1235.99 1048.75 1230.16 C 1052.01 1214.38 1064.78 1189.59 1067.16 1178.18 z"/>
<path transform="translate(0,0)" fill="rgb(236,202,147)" d="M 1067.16 1178.18 C 1069.02 1185.75 1089.95 1188.1 1097.08 1190.07 C 1111.44 1194.05 1126.18 1197.48 1140.71 1200.71 C 1265.74 1227.7 1394.93 1229.25 1520.57 1205.27 C 1551.21 1199.36 1581.26 1190.9 1611.38 1182.85 C 1645.29 1173.78 1677.23 1160.04 1709.22 1145.81 C 1709.77 1144.85 1710.31 1143.89 1710.86 1142.93 C 1709.74 1169.75 1707.18 1197.22 1701.09 1223.4 C 1641.73 1251.85 1568.63 1263.92 1503.73 1271.6 C 1387.4 1285.38 1269.77 1278.15 1154.26 1260.72 C 1131.56 1257.46 1108.95 1253.63 1086.45 1249.23 C 1076.95 1247.39 1064.88 1245.64 1056.01 1242.31 C 1052.07 1237.08 1051.44 1235.99 1048.75 1230.16 C 1052.01 1214.38 1064.78 1189.59 1067.16 1178.18 z"/>
<path transform="translate(0,0)" fill="rgb(253,253,254)" d="M 1635.07 998.294 C 1690.82 1003.77 1684.65 1123.82 1637.71 1139.89 C 1615.93 1144.87 1601.99 1122.7 1598.97 1104.22 C 1593.74 1072.12 1593.57 1006.49 1635.07 998.294 z"/>
<path transform="translate(0,0)" fill="rgb(253,253,254)" d="M 1607 916.183 C 1618.23 915.229 1627.24 918.605 1632.98 928.896 C 1636.48 935.145 1637.34 942.529 1635.37 949.413 C 1633.16 957.092 1628.48 962.49 1621.55 966.261 C 1601.57 966.898 1586.8 957.318 1590.84 934.027 C 1592.22 926.033 1600.04 919.922 1607 916.183 z"/>
<path transform="translate(0,0)" fill="rgb(150,192,175)" d="M 121.209 1841.21 C 129.895 1822.14 150.909 1816.78 169.322 1810.26 C 204.856 1797.68 237.435 1766.45 273.67 1757.33 C 357.918 1736.13 397.181 1833.94 490.279 1817.84 C 563.787 1805.13 600.121 1738.43 675.212 1746.36 C 740.408 1756.64 779.998 1823.21 857.641 1817.84 C 935.177 1812.49 978.076 1735.93 1052.99 1743.93 C 1116.48 1750.71 1156.53 1819.15 1231.72 1816.47 C 1306.59 1813.8 1355.02 1737.85 1424.73 1741.47 C 1491.17 1744.91 1518.78 1811.59 1596.15 1808.05 C 1670.17 1804.66 1698.94 1732.51 1774.58 1747.34 C 1807.39 1755.51 1833.26 1779.15 1862.69 1794.86 C 1881.87 1805.09 1908.11 1807.68 1919.96 1825.79 C 1924.88 1838.33 1926.25 1851.74 1920.85 1864.3 C 1907.37 1895.69 1869.74 1891.86 1844.88 1878.01 C 1801.83 1854.01 1769.4 1832.36 1718.13 1849.51 C 1671.98 1864.96 1635.98 1905.38 1584.97 1902.87 C 1565.34 1902.08 1550.34 1899.2 1533.16 1889.99 C 1479.29 1861.11 1436.75 1829.59 1372.42 1852.71 C 1298.36 1879.32 1252.62 1941.75 1167.26 1897.37 C 1111.21 1868.23 1056.08 1834.39 990.783 1858.42 C 921.713 1883.84 873.591 1941.89 793.333 1901.61 C 727.971 1868.81 681.462 1835.78 605.332 1863.16 C 578.538 1872.8 562.674 1884.55 538.032 1897.83 C 497.868 1919.49 450.619 1923.25 409.043 1902.21 C 355.621 1874.08 317.319 1841.54 254.018 1864.87 C 219.974 1877.42 177.748 1907.39 140.989 1892.89 C 121.24 1885.1 113.82 1860.59 121.209 1841.21 z"/>
<path transform="translate(0,0)" fill="rgb(202,221,209)" d="M 121.209 1841.21 C 129.895 1822.14 150.909 1816.78 169.322 1810.26 C 204.856 1797.68 237.435 1766.45 273.67 1757.33 C 357.918 1736.13 397.181 1833.94 490.279 1817.84 C 563.787 1805.13 600.121 1738.43 675.212 1746.36 C 740.408 1756.64 779.998 1823.21 857.641 1817.84 C 935.177 1812.49 978.076 1735.93 1052.99 1743.93 C 1116.48 1750.71 1156.53 1819.15 1231.72 1816.47 C 1306.59 1813.8 1355.02 1737.85 1424.73 1741.47 C 1491.17 1744.91 1518.78 1811.59 1596.15 1808.05 C 1670.17 1804.66 1698.94 1732.51 1774.58 1747.34 C 1807.39 1755.51 1833.26 1779.15 1862.69 1794.86 C 1881.87 1805.09 1908.11 1807.68 1919.96 1825.79 C 1913.32 1829.07 1908.17 1826.55 1900.95 1824.03 C 1820.37 1795.85 1776.23 1747.68 1688.41 1790.25 C 1642.69 1812.41 1600.6 1841.9 1549.27 1821.4 C 1527.91 1813.4 1507.96 1800.13 1488.47 1788.55 C 1449.58 1765.46 1390.47 1765.04 1351 1785.84 C 1297 1814.72 1242.74 1852.33 1179.49 1825.31 C 1158.82 1816.48 1138.07 1805.64 1118.79 1796.46 C 1053.07 1765.17 993.456 1778.59 934.094 1814.13 C 895.795 1837.06 842.267 1846.13 801.17 1827.72 C 777.375 1818.49 756.594 1807.12 734.012 1797.38 C 690.793 1778.96 640.067 1774.91 596.948 1796.03 C 546.383 1820.81 492.253 1859.75 433.794 1836.82 C 399.503 1823.36 366.45 1802.16 332.806 1790.19 C 284.525 1773.02 237.142 1792.68 193.704 1812.75 C 183.376 1817.35 130.443 1844.16 123.363 1843.29 L 121.209 1841.21 z"/>
<path transform="translate(0,0)" fill="rgb(236,202,147)" d="M 986.017 123.68 C 995.711 125.082 998.668 127.473 1005.29 134.802 C 1007.64 151.705 1007.28 171.684 1007.44 188.909 C 1007.74 216.649 1007.8 244.391 1007.63 272.132 L 1007.74 502.73 L 1007.87 1360.85 L 973.713 1361.03 L 961.03 1361.12 L 961.591 568.995 C 961.207 495.561 961.203 422.126 961.578 348.691 C 961.154 278.962 961.299 209.23 962.015 139.503 C 969.278 127.11 971.779 124.205 986.017 123.68 z"/>
<path transform="translate(0,0)" fill="rgb(218,175,108)" d="M 986.017 123.68 C 995.711 125.082 998.668 127.473 1005.29 134.802 C 1007.64 151.705 1007.28 171.684 1007.44 188.909 C 1007.74 216.649 1007.8 244.391 1007.63 272.132 L 1007.74 502.73 L 1007.87 1360.85 L 973.713 1361.03 C 976.479 1359.9 986.527 1359.08 986.725 1355.79 C 989.976 1301.69 988.75 1246.49 988.827 1192.18 C 989.373 1100.98 989.435 1009.77 989.014 918.572 L 989.56 328.217 C 989.457 300.298 992.62 141.714 986.017 123.68 z"/>
<path transform="translate(0,0)" fill="rgb(69,68,71)" d="M 819.269 440.151 C 847.019 438.832 862.78 445.109 870.818 473.664 C 876.13 492.537 879.978 511.451 883.988 530.637 C 919.256 705.8 927.55 885.323 908.584 1062.99 C 904.175 1112.23 897.402 1161.23 888.287 1209.82 C 885.097 1227.01 882.625 1245.83 876.162 1262.11 C 872.867 1270.41 868.104 1277.84 861.026 1283.43 C 815.117 1319.64 596.452 1317.39 533.676 1313.92 C 508.632 1312.54 483.689 1308.52 458.768 1305.72 C 438.732 1306.48 401.127 1296.57 380.048 1293.41 C 367.85 1291.58 352.879 1279.51 350.192 1266.76 C 344.533 1239.92 362.334 1219 374.406 1197.21 C 381.963 1183.57 389.733 1170.09 397.425 1156.49 L 501.788 972.1 L 703.869 614.331 C 732.45 564.464 759.458 514.028 789.804 465.067 C 798.151 451.6 803.406 443.921 819.269 440.151 z"/>
<path transform="translate(0,0)" fill="rgb(252,238,209)" d="M 430.526 1266.03 C 422.9 1265.84 387.109 1260.34 384.438 1254.39 C 387.013 1247.91 394.326 1236.56 398.143 1230.06 L 424.367 1185.21 C 450.627 1139.98 476.403 1094.48 501.69 1048.71 L 739.061 628.591 C 758.345 595.18 777.351 561.609 796.078 527.883 C 804.651 512.673 813.963 495.318 823.622 480.696 C 825.399 478.007 826.768 478.039 829.283 477.674 C 830.514 478.36 830.717 478.391 831.877 479.488 C 840.607 487.75 855.661 568.675 857.037 585.592 C 862.451 610.099 866.493 645.839 869.628 671.446 C 888.243 836.034 884.585 1002.38 858.753 1165.99 C 855.4 1187.92 851.293 1209.24 847.175 1231.18 C 842.881 1254.06 836.213 1259.23 813.257 1264.08 C 788.741 1268.91 764.286 1271.83 739.553 1274.39 C 658.514 1283.02 576.791 1283.09 495.738 1274.59 C 472.672 1272.31 453.229 1270.75 430.526 1266.03 z"/>
<path transform="translate(0,0)" fill="rgb(236,202,147)" d="M 857.037 585.592 C 862.451 610.099 866.493 645.839 869.628 671.446 C 888.243 836.034 884.585 1002.38 858.753 1165.99 C 855.4 1187.92 851.293 1209.24 847.175 1231.18 C 842.881 1254.06 836.213 1259.23 813.257 1264.08 C 788.741 1268.91 764.286 1271.83 739.553 1274.39 C 658.514 1283.02 576.791 1283.09 495.738 1274.59 C 472.672 1272.31 453.229 1270.75 430.526 1266.03 C 438.026 1265.89 458.635 1264.94 465.215 1263.1 C 503.585 1252.35 543.916 1249.61 582.05 1238.45 C 635.34 1222.85 689.548 1192.65 728.09 1152.57 C 806.984 1070.53 824.168 956.577 836.328 848.179 C 842.132 797.159 848.032 746.831 851.003 695.502 C 853.1 659.289 857.625 621.957 857.037 585.592 z"/>
<path transform="translate(0,0)" fill="rgb(0,3,0)" fill-opacity="0.0196078" d="M 1687.33 784.743 C 1688.67 783.889 1687.97 784.024 1689.36 784.155 C 1690.71 785.744 1692.36 788.541 1693.54 790.375 L 1692.1 790.716 C 1689.14 789.166 1689.34 788.157 1687.33 784.743 z"/>
<path transform="translate(0,0)" fill="rgb(0,3,0)" fill-opacity="0.0196078" d="M 656.159 680.658 C 657.254 684.059 655.284 687.691 653.968 691.165 C 652.247 686.41 653.907 685.105 656.159 680.658 z"/>
</svg>