<svg version="1.1" xmlns="http://www.w3.org/2000/svg" viewBox="98.98 7.40 1840.25 2032.01" width="231.81" height="256">
<path transform="translate(0,0)" fill="rgb(73,73,73)" d="M 1010.24 358.504 C 1050.37 358.345 1091.41 361.014 1130.85 368.783 C 1272.25 397.507 1396.78 480.483 1477.74 599.927 C 1561.28 724.848 1591.33 868.475 1562.04 1016 C 1543.18 1107 1502.85 1192.18 1444.39 1264.44 C 1394.29 1325.99 1335.84 1387.86 1311.1 1465.81 C 1296.26 1512.57 1296.61 1539.15 1251.89 1569.08 C 1279.41 1603.6 1278.47 1630.51 1258.16 1667.96 C 1279.44 1700.48 1276.87 1734.66 1251.02 1763.63 C 1251.37 1821.13 1207.31 1857.15 1154.54 1869.44 C 1150.37 1870.41 1146.19 1871.31 1142.01 1872.21 C 1128.4 1926.75 1097.21 1953.82 1042.07 1962.93 C 1006.41 1963.82 977.723 1964.15 947.038 1942.16 C 923.301 1925.14 909.777 1901.14 905.069 1872.57 C 867.45 1864.15 838.804 1854.39 814.047 1823.03 C 798.731 1803.64 796.356 1788.79 794.903 1764.88 C 785.112 1752.65 779.651 1744.52 776.187 1728.81 C 771.515 1708.12 775.186 1686.42 786.406 1668.41 C 766.958 1632.54 767.41 1600.05 795.288 1569.1 C 748.398 1540.04 749.674 1508.37 733.003 1461.52 C 717.872 1419.01 690.26 1375.27 663.551 1339.07 C 641.351 1308.98 614.746 1280.94 591.255 1251.57 C 517.037 1157.23 475.51 1041.32 472.939 921.311 C 469.224 774.265 524.627 631.869 626.746 526 C 727.337 421.564 865.266 361.322 1010.24 358.504 z"/>
<path transform="translate(0,0)" fill="rgb(245,200,111)" d="M 786.311 1500.18 C 766.847 1421.52 726.149 1353.32 675.145 1290.98 C 653.685 1264.76 630.638 1240.29 610.877 1212.62 C 583.413 1173.92 561.11 1131.8 544.533 1087.34 C 496.516 959.265 501.978 817.266 559.692 693.257 C 617.166 569.542 721.602 473.854 849.861 427.397 C 975.242 381.767 1113.58 387.553 1234.71 443.493 C 1325.82 485.35 1402.7 552.938 1455.88 637.934 C 1466.67 655.276 1481.51 682.577 1488.62 701.76 C 1499.33 722.544 1509.66 752.977 1515.85 775.502 C 1542.73 873.314 1538.23 972.584 1507.37 1068.86 C 1489.95 1121.98 1464.3 1172.04 1431.36 1217.21 C 1411.33 1244.13 1389.83 1267.14 1368.97 1292.78 C 1343.42 1324.17 1320.75 1357.81 1301.24 1393.27 C 1290.32 1413.61 1280.82 1434.67 1272.82 1456.32 C 1261.78 1486.16 1261.84 1520.18 1229.63 1536.49 C 1207 1547.95 1147.6 1543.78 1120.22 1543.97 L 1085.09 1544 L 959.783 1544.01 L 925.027 1544.01 C 898.827 1543.74 842.491 1548.17 820.562 1538.28 C 803.506 1530.59 792.777 1517.42 786.311 1500.18 z"/>
<path transform="translate(0,0)" fill="rgb(245,200,111)" d="M 1022.37 1074.47 C 1068.83 1107.37 1107.57 1111.58 1161.83 1103.58 C 1101.92 1243.39 1081.39 1336.62 1081.88 1489.39 C 1082.38 1505.99 1085.18 1528.97 1085.09 1544 L 959.783 1544.01 C 959.389 1529.58 962.952 1510.93 961.911 1497.41 L 962.668 1491.77 C 964.124 1480.23 963.452 1441.78 963.012 1429.82 C 958.225 1316.81 931.296 1205.84 883.751 1103.21 C 938.348 1112.35 976.981 1106.49 1022.37 1074.47 z"/>
<path transform="translate(0,0)" fill="rgb(237,178,83)" d="M 962.668 1491.77 C 962.93 1493.76 963.246 1495.13 963.694 1497.09 C 975.673 1501.85 1065.12 1491.03 1081.88 1489.39 C 1082.38 1505.99 1085.18 1528.97 1085.09 1544 L 959.783 1544.01 C 959.389 1529.58 962.952 1510.93 961.911 1497.41 L 962.668 1491.77 z"/>
<path transform="translate(0,0)" fill="rgb(234,173,64)" d="M 998.223 1050.22 C 983.406 1032.91 976.236 1018.58 971.001 994.977 C 959.816 944.548 1005.21 894.366 1055.06 928.066 C 1067.17 936.248 1074.43 955.654 1075.9 970.819 C 1078.78 1000.66 1065.95 1027.76 1047.22 1050.54 C 1056.18 1056.33 1065.78 1061.06 1075.83 1064.63 C 1105.21 1074.95 1137.4 1075.42 1166.51 1063.88 C 1183.15 1057.29 1188.91 1049.63 1196.18 1033.88 C 1200.6 1025.52 1204.19 1016.53 1208.92 1008.35 C 1221.17 987.199 1239.52 987.91 1247.68 1010.92 C 1243.95 1021.51 1231.93 1042.22 1226.06 1053.25 C 1216.07 1072.38 1206.56 1091.76 1197.52 1111.35 C 1139.69 1239.29 1116.72 1339.48 1118.03 1480.17 C 1120.03 1495.24 1120.19 1528.12 1120.22 1543.97 L 1085.09 1544 C 1085.18 1528.97 1082.38 1505.99 1081.88 1489.39 C 1081.39 1336.62 1101.92 1243.39 1161.83 1103.58 C 1107.57 1111.58 1068.83 1107.37 1022.37 1074.47 C 976.981 1106.49 938.348 1112.35 883.751 1103.21 C 931.296 1205.84 958.225 1316.81 963.012 1429.82 C 963.452 1441.78 964.124 1480.23 962.668 1491.77 L 961.911 1497.41 C 962.952 1510.93 959.389 1529.58 959.783 1544.01 L 925.027 1544.01 C 925.01 1526.82 927.2 1505.87 926.908 1490.5 L 927.109 1485.66 C 926.481 1479.49 927.722 1465.28 927.582 1458.01 C 927.175 1436.96 927.176 1416.18 925.328 1395.17 C 915.822 1286.59 885.053 1180.94 834.771 1084.24 C 831.548 1078.18 823.532 1072.43 820.314 1066.11 C 817.573 1060.73 819.175 1054.13 816.184 1048.44 C 810 1036.69 801.626 1024.83 797.819 1012.14 L 797.394 1010.7 C 801.866 1000.56 808.713 991.645 821.005 995.264 C 839.38 1000.67 846.385 1033.87 856.733 1048.1 C 866.836 1062 883.684 1066.95 899.014 1069.92 C 933.388 1076.82 969.092 1069.73 998.223 1050.22 z"/>
<path transform="translate(0,0)" fill="rgb(245,200,111)" d="M 1018.96 952.982 C 1028.88 952.856 1037.03 957.194 1039.24 967.666 C 1043.68 988.746 1035.28 1008.05 1024.29 1025.62 C 1022.98 1026.34 1023.83 1026.05 1021.61 1025.87 C 1007.31 1008.22 992.39 966.109 1018.96 952.982 z"/>
<path transform="translate(0,0)" fill="rgb(237,178,83)" d="M 1488.62 701.76 C 1499.33 722.544 1509.66 752.977 1515.85 775.502 C 1542.73 873.314 1538.23 972.584 1507.37 1068.86 C 1489.95 1121.98 1464.3 1172.04 1431.36 1217.21 C 1411.33 1244.13 1389.83 1267.14 1368.97 1292.78 C 1343.42 1324.17 1320.75 1357.81 1301.24 1393.27 C 1290.32 1413.61 1280.82 1434.67 1272.82 1456.32 C 1261.78 1486.16 1261.84 1520.18 1229.63 1536.49 C 1207 1547.95 1147.6 1543.78 1120.22 1543.97 C 1120.19 1528.12 1120.03 1495.24 1118.03 1480.17 C 1121.3 1483.6 1133.58 1477.03 1137.55 1475.56 C 1202.92 1451.27 1226.84 1391.84 1255.08 1334.11 C 1262.53 1318.89 1278.01 1297.52 1288.28 1282.98 C 1315.63 1244.27 1351.28 1211.33 1380.67 1174.26 C 1457.42 1077.41 1499.45 957.603 1500.04 834.026 C 1500.52 794.38 1497.86 757.553 1490.78 718.649 C 1489.78 713.172 1488.25 707.257 1488.62 701.76 z"/>
<path transform="translate(0,0)" fill="rgb(237,178,83)" d="M 786.311 1500.18 C 808.513 1503.55 840.123 1502 863.178 1501.41 C 881.718 1500.94 906.124 1500.99 924.311 1499.47 C 926.046 1497.63 926.329 1493.45 926.908 1490.5 C 927.2 1505.87 925.01 1526.82 925.027 1544.01 C 898.827 1543.74 842.491 1548.17 820.562 1538.28 C 803.506 1530.59 792.777 1517.42 786.311 1500.18 z"/>
<path transform="translate(0,0)" fill="rgb(253,245,228)" d="M 810.265 527.161 C 824.377 525.839 837.369 527.161 849.751 534.786 C 861.591 542.107 869.931 553.942 872.842 567.554 C 876.029 582.114 872.655 597.339 863.614 609.189 C 851.011 626.039 832.752 631.595 815.992 643.295 C 802.461 652.741 787.631 664.894 776.092 676.68 C 755.369 697.756 738.712 722.475 726.961 749.596 C 714.652 777.664 710.278 801.802 675.224 808.884 C 662.471 809.993 650.171 809.253 638.749 802.65 C 584.233 771.132 625.47 705.61 647.696 666.986 C 676.676 616.623 753.382 541.257 810.265 527.161 z"/>
<path transform="translate(0,0)" fill="rgb(168,167,167)" d="M 831.25 1581.67 C 860.676 1583.22 893.541 1581.72 923.351 1582.07 C 994.907 1582.91 1068.03 1580.67 1139.45 1582.15 C 1164.23 1581.92 1189.12 1582.29 1213.83 1581.97 C 1224.97 1598.11 1234.9 1605.7 1232.69 1627.88 C 1231.3 1641.87 1214.84 1655.92 1215.3 1665.61 C 1216.53 1691.21 1244.07 1694.85 1227.21 1729.38 C 1222.83 1738.35 1217.45 1742.39 1212.23 1749.76 C 1212.04 1773.86 1211.88 1787.87 1193.87 1806.73 C 1182.7 1818.42 1155.31 1830.65 1139.8 1832.15 C 1116.34 1834.43 1083.11 1833.72 1059 1833.42 C 1013.2 1832.85 966.483 1834.33 920.915 1833.55 C 897.634 1833.06 875.167 1824.9 856.993 1810.34 C 835.165 1791.19 835.764 1777.21 834.372 1750.61 C 827.732 1739.97 818.337 1733.83 814.729 1720.27 C 809.911 1702.15 819.292 1693.06 827.46 1678.69 C 838.752 1659.16 817.722 1648.09 813.383 1630.87 C 807.826 1608.81 821.964 1598.51 831.25 1581.67 z"/>
<path transform="translate(0,0)" fill="rgb(154,153,153)" d="M 1139.45 1582.15 C 1164.23 1581.92 1189.12 1582.29 1213.83 1581.97 C 1224.97 1598.11 1234.9 1605.7 1232.69 1627.88 C 1231.3 1641.87 1214.84 1655.92 1215.3 1665.61 C 1216.53 1691.21 1244.07 1694.85 1227.21 1729.38 C 1222.83 1738.35 1217.45 1742.39 1212.23 1749.76 C 1212.04 1773.86 1211.88 1787.87 1193.87 1806.73 C 1182.7 1818.42 1155.31 1830.65 1139.8 1832.15 C 1116.34 1834.43 1083.11 1833.72 1059 1833.42 C 1013.2 1832.85 966.483 1834.33 920.915 1833.55 C 897.634 1833.06 875.167 1824.9 856.993 1810.34 C 867.313 1805.06 900.001 1807.58 912.124 1806.9 C 955.88 1804.48 1001.04 1806.64 1044.67 1803.36 C 1092.99 1798.62 1148.33 1785.42 1162.76 1732.09 C 1170.33 1704.13 1165.82 1685.77 1164.5 1657.94 C 1164.12 1649.87 1170.17 1637.87 1170.78 1629.27 C 1171.87 1613.91 1167.92 1598.45 1166.47 1583.17 C 1158.55 1583.25 1146.93 1583.53 1139.45 1582.15 z"/>
<path transform="translate(0,0)" fill="rgb(154,153,153)" d="M 1018.42 1872.53 C 1044.8 1871.64 1074.17 1872.56 1101.19 1872.19 C 1088.27 1907.24 1066.45 1922.6 1029.08 1925 C 984.562 1925.7 962.444 1914.85 944.954 1872.67 C 968.302 1873.53 994.979 1872.86 1018.42 1872.53 z"/>
<path transform="translate(0,0)" fill="rgb(245,200,111)" d="M 490.079 277.201 C 497.029 276.237 504.258 279.038 509.02 284.173 C 539.642 317.189 570.277 350.187 601.442 382.708 C 608.766 392.071 623.476 403.212 628.587 413.88 C 634.939 427.135 623.934 439.249 612.883 443.289 C 605.843 443.156 600.685 443.051 595.253 438.158 C 587.079 430.794 579.766 422.616 572.268 414.579 L 536.641 376.601 C 516.87 355.654 495.813 334.893 476.972 313.212 C 469.831 304.995 470.917 300.428 472.141 290.263 C 478.173 281.181 479.716 279.461 490.079 277.201 z"/>
<path transform="translate(0,0)" fill="rgb(245,200,111)" d="M 1547.14 278.058 C 1557.6 277.818 1567.16 279.204 1572.67 288.879 C 1579.18 300.302 1571.8 310.83 1564.2 318.799 C 1540.11 344.053 1516.24 369.489 1492.45 394.998 C 1478.91 409.522 1465.67 423.744 1451.96 438.037 C 1449.59 440.516 1445.94 442.095 1442.76 443.347 C 1419.15 448.539 1406.96 422.715 1423.2 405.889 C 1447.66 380.533 1471.28 353.422 1496.22 328.604 C 1510.75 314.153 1530.27 287.571 1547.14 278.058 z"/>
<path transform="translate(0,0)" fill="rgb(245,200,111)" d="M 1667.62 865.186 C 1674.16 864.469 1685.99 864.854 1693.06 864.877 L 1737.74 864.887 C 1766.13 864.842 1794.51 864.797 1822.91 864.748 C 1831.08 864.734 1846.54 864.52 1853.73 868.257 C 1862.72 872.928 1863.97 890.934 1858.54 898.569 C 1855.23 903.236 1850.43 905.323 1844.91 906.196 C 1833.75 907.158 1820.75 906.764 1809.43 906.715 C 1761.94 906.483 1714.06 907.239 1666.62 906.673 C 1647.03 906.44 1636.38 872.265 1667.62 865.186 z"/>
<path transform="translate(0,0)" fill="rgb(245,200,111)" d="M 1015 84.1716 C 1035.09 82.6604 1043.64 85.2153 1043.74 107.557 C 1043.95 157.582 1042.8 207.632 1043.44 257.658 C 1043.54 265.658 1043.48 273.919 1041.98 281.797 C 1041.07 286.537 1036.03 290.397 1032.22 292.822 C 1011.73 297.15 1001.94 287.2 1002.03 267.004 C 1002.28 210.382 999.476 152.976 1002.45 96.5452 C 1002.75 90.927 1010.84 86.4202 1015 84.1716 z"/>
<path transform="translate(0,0)" fill="rgb(245,200,111)" d="M 199.43 865.112 C 203.106 864.697 208.389 864.82 212.205 864.83 C 265.852 864.983 319.516 864.689 373.159 864.842 C 375.905 864.85 383.726 865.374 385.602 866.665 C 403.933 879.275 401.223 899.888 381.326 905.901 C 322.544 907.468 262.688 904.844 203.839 904.856 C 177.256 904.861 174.24 871.409 199.43 865.112 z"/>
</svg>