<svg version="1.1" xmlns="http://www.w3.org/2000/svg" viewBox="-1.29 47.24 2039.99 1967.58" width="256" height="246.97">
<path transform="translate(0,0)" fill="rgb(56,50,56)" d="M 1924.51 1102.03 C 1921.62 1114.31 1919.75 1139.21 1917.74 1153.31 C 1913.63 1182.41 1907.95 1211.27 1900.73 1239.76 C 1856.03 1418.97 1757.28 1580.09 1617.87 1701.25 C 1429.8 1864.85 1200.34 1939.27 952.174 1921.75 C 586.841 1894.63 273.91 1649.9 159.54 1301.87 C 147.108 1263.52 134.906 1211.73 128.188 1171.89 C 125.858 1158.38 123.865 1144.82 122.213 1131.21 C 118.496 1100.68 124.742 1109.89 105.418 1087.63 C 76.0764 1053.83 74.2668 985.647 101.352 949.979 C 107.126 942.374 118.585 932.778 121.242 923.08 C 126.121 881.756 133.673 842.546 144.414 802.249 C 192.514 618.391 297.181 454.299 443.62 333.166 C 600.513 201.637 797.798 127.943 1002.5 124.401 C 1089.55 122.8 1171 131.595 1255.56 153.583 C 1381.51 187.623 1498.56 248.603 1598.63 332.307 C 1630.66 358.931 1668.83 393.577 1695.21 425.235 C 1712.21 443.89 1728.39 466.898 1743.47 483.089 C 1747.38 489.6 1756.23 501.159 1761.09 507.961 C 1771.8 522.771 1781.96 537.981 1791.52 553.561 C 1865.92 676.702 1904.87 786.825 1922.4 929.861 C 1925.36 932.749 1928.26 935.698 1931.09 938.706 C 1953.47 962.532 1963.15 992.174 1961.41 1024.52 C 1959.46 1060.88 1950.28 1078.21 1924.51 1102.03 z"/>
<path transform="translate(0,0)" fill="rgb(151,204,204)" d="M 174.291 1103.89 C 242.156 1110.45 311.778 1115.32 379.859 1121.41 C 340.774 1200.55 367.85 1266.22 430.063 1324.84 C 451.493 1345.03 498.154 1376.56 507.806 1402.58 C 517.681 1429.21 512.478 1482.97 513.177 1514.53 C 513.532 1541.19 516.445 1567.75 521.877 1593.86 C 533.468 1648.54 557.712 1694.07 605.343 1726.28 C 619.67 1735.97 643.389 1744.7 660.283 1740.03 C 701.366 1728.69 704.198 1673.45 713.487 1639.01 C 730.832 1576.21 794.77 1534.97 841.113 1490.57 C 938.816 1396.95 1039.41 1235.92 852.996 1169.27 C 834.051 1162.5 806.22 1153.56 788.442 1143.28 C 824.6 1145.5 861.113 1145.37 897.344 1146.15 C 1004.02 1148.17 1110.73 1147.77 1217.38 1144.94 C 1277.99 1143.28 1340.05 1139.62 1400.36 1138.61 C 1412.86 1185.47 1401.68 1213.15 1398.38 1259.76 C 1396.74 1282.9 1399.71 1313.53 1405.96 1336.81 C 1416.45 1375.83 1437 1453.35 1473.93 1473.93 C 1563.51 1523.87 1652.15 1397.13 1689.86 1335.09 C 1716.49 1291.97 1740.68 1235.48 1740.72 1184.22 C 1740.74 1162.98 1736.28 1137.1 1734.8 1115.15 C 1766.62 1112.3 1798.6 1110.36 1830.45 1107.53 C 1843.32 1106.39 1856.38 1105.3 1869.3 1104.86 C 1867.37 1132.1 1861.15 1168.4 1855.5 1194.99 C 1827.59 1325.68 1769.56 1448.04 1686.01 1552.34 C 1545.28 1727.38 1341.08 1839.71 1117.9 1864.87 C 894.222 1890.61 669.49 1826.31 493.272 1686.16 C 308.572 1537.41 199.5 1339.87 174.291 1103.89 z"/>
<path transform="translate(0,0)" fill="rgb(151,204,204)" d="M 986.631 178.431 C 1147.84 171.202 1307.66 211.018 1446.64 293.029 C 1384.66 309.018 1327.15 321.174 1280.82 371.182 C 1253.84 402.392 1225.65 453.494 1259.95 489.972 C 1282.6 514.057 1352.06 484.407 1354.29 518.133 C 1355.99 543.805 1295.37 550.782 1274.42 554.442 C 1216.78 564.512 1157 585.849 1113.27 626.601 C 1002.31 727.18 965.777 853.845 1076.32 974.807 C 1007.82 975.593 939.311 975.024 870.834 973.101 C 762.302 971.884 649.991 964.543 541.471 959.012 C 500.349 956.916 458.092 952.421 417.211 950.771 C 418.516 943.557 420.982 929.742 419.737 922.306 C 416.145 900.853 402.85 873.385 392.893 853.797 C 389.196 847.826 384.204 842.423 378.618 838.338 C 362.606 826.63 331.1 837.389 342.456 806.482 C 350.619 784.262 367.25 767.067 380.33 747.649 C 390.371 732.743 399.362 716.517 411.06 702.755 C 445.399 662.473 503.313 661.94 548.05 639.68 C 585.53 621.031 609.348 594.44 621.173 554.14 C 625.811 538.335 627.536 527.708 626.594 511.053 C 625.791 496.854 618.433 481.865 618.014 469.275 C 617.858 464.615 629.863 446.795 632.023 438.909 C 635.565 425.98 634.374 413.044 627.498 401.333 C 609.341 370.404 567.833 343.006 534.381 332.972 C 669.941 236.364 821.229 187.397 986.631 178.431 z"/>
<path transform="translate(0,0)" fill="rgb(151,204,204)" d="M 1117.42 974.232 C 1091.56 958.428 1078.24 944.956 1062.74 918.975 C 1039.81 880.551 1026.05 824.065 1038.81 779.998 C 1056.71 718.194 1110.89 651.247 1165.98 617.919 C 1195 600.366 1214.4 594.6 1246.02 585.651 C 1280.54 575.882 1322.58 575.717 1353.49 560.099 C 1364.38 554.595 1374.37 541.364 1376.73 529.789 C 1378.84 519.435 1378.06 505.178 1371.79 496.633 C 1350.54 467.719 1313.26 481.361 1284.59 476.513 C 1279.45 475.644 1273.39 471.144 1271.07 466.268 C 1266.17 455.943 1269.58 439.151 1273.37 428.684 C 1296.86 363.918 1366.57 338.066 1427.76 321.829 C 1442.88 317.814 1460.5 316.42 1474.83 310.712 C 1475.11 310.569 1475.38 310.427 1475.66 310.284 C 1500.04 324.021 1535.61 351.248 1557.29 369.043 C 1665.92 456.891 1751.14 570.232 1805.38 698.979 C 1821.83 734.91 1846.05 801.239 1851.87 840.651 C 1843.79 849.067 1834.55 857.209 1823.67 861.85 C 1778.4 884.457 1768.64 895.152 1746.15 940.738 C 1595.39 954.282 1444.31 963.963 1293.05 969.774 C 1236 971.936 1174.28 975.003 1117.42 974.232 z"/>
<path transform="translate(0,0)" fill="rgb(135,181,178)" d="M 1805.38 698.979 C 1821.83 734.91 1846.05 801.239 1851.87 840.651 C 1843.79 849.067 1834.55 857.209 1823.67 861.85 C 1821.71 855.691 1821.87 841.112 1821.35 833.75 C 1820.65 824.569 1819.69 815.411 1818.47 806.284 C 1814.62 775.476 1809.11 746.137 1804.81 715.538 C 1803.91 709.149 1803.77 705.349 1805.38 698.979 z"/>
<path transform="translate(0,0)" fill="rgb(248,246,234)" d="M 153.445 952.831 C 199.161 956.222 247.915 962.129 294.015 966.248 C 380.129 973.728 466.321 980.275 552.576 985.888 C 776.643 1000.4 1001.27 1004.41 1225.71 997.893 C 1372.31 993.764 1518.78 985.69 1664.95 973.68 C 1727.69 968.6 1790.37 961.685 1853.1 956.227 C 1865.49 955.149 1877.63 953.647 1890.08 953.315 C 1895.56 956.45 1897.8 958.138 1902.73 961.968 C 1917.93 977.814 1924.27 996.334 1924.22 1018.44 C 1924.18 1036.55 1914.28 1071.35 1893.61 1075.46 C 1880.61 1078.05 1862.1 1078.8 1848.5 1079.93 L 1760.99 1087.35 C 1338.06 1126.04 912.739 1131.33 488.977 1103.18 C 399.404 1096.92 309.902 1089.68 220.489 1081.44 C 196.556 1079.27 170.309 1077.8 146.752 1075.3 C 139 1070.03 133.082 1062.98 128.789 1054.66 C 109.446 1021.1 118.381 972.6 153.445 952.831 z"/>
<path transform="translate(0,0)" fill="rgb(233,216,199)" d="M 1902.73 961.968 C 1917.93 977.814 1924.27 996.334 1924.22 1018.44 C 1924.18 1036.55 1914.28 1071.35 1893.61 1075.46 C 1880.61 1078.05 1862.1 1078.8 1848.5 1079.93 L 1760.99 1087.35 C 1338.06 1126.04 912.739 1131.33 488.977 1103.18 C 399.404 1096.92 309.902 1089.68 220.489 1081.44 C 196.556 1079.27 170.309 1077.8 146.752 1075.3 C 139 1070.03 133.082 1062.98 128.789 1054.66 C 135.056 1051.07 156.824 1055.26 165.207 1056.07 L 242.674 1063.21 C 386.775 1075.61 531.063 1085.72 675.485 1093.53 C 859.123 1101.59 1043.02 1101.65 1226.67 1093.69 C 1374.19 1085.77 1521.49 1074.25 1668.45 1059.15 C 1708.8 1055.23 1749.12 1051.06 1789.42 1046.65 C 1810.34 1044.33 1837.19 1042.11 1856.92 1036.5 C 1877.06 1030.77 1891.5 1001.84 1896.67 983.25 C 1898.57 976.411 1899.16 968.572 1902.73 961.968 z"/>
<path transform="translate(0,0)" fill="rgb(151,204,204)" d="M 405.81 1122.91 C 441.194 1127.09 486.808 1128.86 523.146 1131.22 C 598.788 1136.34 674.52 1140.04 750.301 1142.33 C 792.169 1190.45 865.212 1182.66 909.052 1230.28 C 967.391 1293.65 904.531 1383.38 859.88 1436.28 C 826.738 1475.54 781.853 1510.59 743.641 1547.52 C 709.509 1582.04 694.158 1606.05 684.758 1654.51 C 682.273 1667.33 679.267 1684.24 674.33 1696.15 C 671.859 1702.54 663.832 1714.42 656.292 1715.86 C 621.86 1722.42 584.93 1680.89 571.085 1656.9 C 538.812 1601 537.304 1541.72 537.989 1479.64 C 538.332 1448.58 542.065 1415.74 527.088 1387.76 C 514.418 1364.57 494.607 1347.59 474.259 1331.29 C 438.988 1303.04 405.255 1270.23 390.975 1226.07 C 379.424 1190.35 388.697 1155.29 405.81 1122.91 z"/>
<path transform="translate(0,0)" fill="rgb(151,204,204)" d="M 509.154 350.738 C 519.021 351.018 545.458 360.771 554.079 366.526 C 578.5 382.827 602.756 396.424 610.666 425.78 C 606.051 441.215 596.905 452.491 594.298 468.203 C 591.546 484.787 602.529 500.161 602.376 515.907 C 601.845 570.627 564.169 613.775 512.165 628.015 C 487.686 634.717 463.001 641.298 439.937 651.871 C 399.142 669.388 379.13 703.457 355.75 738.694 C 329.302 776.631 275.281 844.397 358.959 855.78 C 366.044 856.744 371.937 864.811 374.681 870.929 C 381.343 888.876 393.244 906.235 397.115 924.818 C 398.307 931.056 394.757 940.895 392.818 946.583 C 386.694 948.933 366.802 946.895 361.21 944.068 C 341.454 934.079 323.43 916.576 304.847 904.28 C 293.683 896.892 279.016 889.712 267.079 884.095 C 224.081 863.861 219.388 840.533 202.825 799.761 C 207.115 781.611 214.627 759.284 220.817 741.588 C 273.945 589.714 381.048 447.612 509.154 350.738 z"/>
<path transform="translate(0,0)" fill="rgb(248,246,234)" d="M 552.208 390.441 C 596.838 392.915 589.589 431.745 572.823 458.549 C 546.193 501.123 480.325 571.846 431.254 581.992 C 328.823 590.548 464.557 396.165 552.208 390.441 z"/>
<path transform="translate(0,0)" fill="rgb(248,246,234)" d="M 361.655 616.134 C 399.153 613.982 393.324 670.91 354.218 679.741 C 349.902 680.026 345.583 679.239 341.645 677.45 C 316.169 666.021 333.676 623.88 361.655 616.134 z"/>
<path transform="translate(0,0)" fill="rgb(151,204,204)" d="M 1701.51 1118.4 C 1704.74 1117.98 1706.41 1117.37 1709.22 1118.93 C 1711.84 1122.99 1715.77 1184.91 1715.57 1193.34 C 1715.37 1202.68 1714.35 1211.99 1712.53 1221.15 C 1698.76 1289 1626.23 1404.42 1567.13 1443.26 C 1548.98 1455.2 1524.73 1465.54 1502.46 1460.63 C 1484.89 1456.77 1473.92 1444.05 1464.98 1429.58 C 1445.22 1396.29 1430.74 1340.56 1424.3 1302.06 C 1415.31 1248.3 1443.08 1189.49 1425.31 1136.56 C 1517.46 1131.91 1609.54 1125.86 1701.51 1118.4 z"/>
<path transform="translate(0,0)" fill="rgb(151,204,204)" d="M 191.05 843.397 C 193.695 844.95 203.109 862.415 207.162 867.16 C 213.257 874.294 217.836 880.534 225.509 886.663 C 243.312 900.885 264.386 907.521 284.113 917.615 C 293.811 922.578 309.932 936.399 318.77 943.59 L 303.227 941.5 C 297.206 940.692 291.042 940.025 284.98 939.639 C 248.485 937.313 212.027 932.265 175.616 929.546 C 177.065 903.179 185.093 869.09 191.05 843.397 z"/>
<path transform="translate(0,0)" fill="rgb(135,181,178)" d="M 1823.18 888.267 L 1824.77 887.393 C 1841.33 878.45 1841.84 880.656 1859.42 867.579 C 1862.55 888.066 1864.89 909.404 1868.14 929.506 C 1855.7 930.483 1836.6 932.792 1824.85 933.083 C 1810.37 935 1789.96 936.347 1775.38 937.158 C 1789.8 914.537 1797.58 899.138 1823.18 888.267 z"/>
<path transform="translate(0,0)" fill="rgb(151,204,204)" d="M 1775.38 937.158 C 1789.8 914.537 1797.58 899.138 1823.18 888.267 C 1827.95 893.783 1824.47 923.822 1824.85 933.083 C 1810.37 935 1789.96 936.347 1775.38 937.158 z"/>
<path transform="translate(0,0)" fill="rgb(139,141,143)" fill-opacity="0.0156863" d="M 1695.21 425.235 C 1702.82 424.308 1699.32 420.994 1703.21 424.331 C 1706.28 426.965 1705.81 429.371 1709.82 430.562 L 1714.07 428.358 C 1717.26 430.347 1718.01 433.92 1719.36 437.58 C 1723.92 437.853 1722.25 436.937 1725.06 439.385 C 1725.08 441.561 1725.36 440.787 1724.87 441.849 C 1722.22 442.79 1722.29 442.787 1719.48 442.935 C 1719.91 445.622 1719.91 445.427 1721.63 447.568 C 1723.83 447.774 1723.69 447.78 1725.81 447.179 C 1727.86 449.189 1737.65 457.972 1738.69 460.488 C 1739.04 461.329 1738.07 464.554 1737.77 465.656 C 1740.49 471.656 1744.79 471.65 1746.53 477.113 C 1745.73 478.613 1745.62 478.678 1745.49 480.423 L 1747.08 482.891 L 1746.66 484.369 L 1745.31 483.089 C 1743.82 482.89 1744.42 482.78 1743.47 483.089 C 1728.39 466.898 1712.21 443.89 1695.21 425.235 z"/>
<path transform="translate(0,0)" fill="rgb(3,0,3)" fill-opacity="0.184314" d="M 624.366 207.735 L 625.753 208.534 C 623.467 211.847 609 218.54 604.294 220.694 L 603.436 220.628 C 605.142 216.369 617.879 213.04 624.366 207.735 z"/>
<path transform="translate(0,0)" fill="rgb(3,0,3)" fill-opacity="0.0235294" d="M 585.996 227.331 L 587.813 228.581 C 588.13 233.146 582.924 234.842 579.078 234.993 L 578.077 236.395 L 577.657 235.407 C 580.138 230.848 581.531 230.391 585.996 227.331 z"/>
<path transform="translate(0,0)" fill="rgb(3,0,3)" fill-opacity="0.0156863" d="M 590.049 1822.89 C 593.477 1823.89 594.007 1824.16 597.235 1825.78 L 597.766 1827.85 L 596.697 1828.3 L 590.049 1822.89 z"/>
</svg>