<svg version="1.1" xmlns="http://www.w3.org/2000/svg" viewBox="320.64 -2.59 1403.29 2043.82" width="175.72" height="256">
<defs>
	<linearGradient id="Gradient1" gradientUnits="userSpaceOnUse" x1="941.304" y1="1406.4" x2="939.297" y2="1405.4">
		<stop class="stop0" offset="0" stop-opacity="0" stop-color="rgb(1,0,1)"/>
		<stop class="stop1" offset="1" stop-opacity="0.0313725" stop-color="rgb(0,3,0)"/>
	</linearGradient>
</defs>
<path transform="translate(0,0)" fill="rgb(72,71,72)" d="M 963.032 1374.9 C 946.032 1373.31 921.965 1368.73 905.204 1365.08 C 808.09 1344.07 717.698 1299.31 642.112 1234.82 C 479.391 1094.69 396.34 882.248 416.407 668.931 C 428.507 529.165 484.203 396.73 575.632 290.327 C 678.958 168.825 826.829 94.013 985.926 82.7482 C 1139.33 73.1115 1290.31 124.512 1405.97 225.743 C 1563.37 362.515 1648.24 573.367 1631.85 781.053 C 1620.98 924.484 1564.5 1060.67 1470.67 1169.7 C 1389.01 1264.06 1280.27 1330.97 1159.23 1361.34 C 1139.81 1366.1 1105.85 1372.97 1086.06 1374.23 C 1093.76 1388.29 1127.41 1456.16 1128.65 1467.4 C 1129.07 1471.19 1127.88 1474.65 1125.35 1477.47 C 1111.19 1493.22 1049.95 1496.48 1028.36 1497.67 C 1026.65 1505.24 1025.09 1512.85 1023.7 1520.5 C 1017.21 1558.23 1026.03 1587.11 1047.65 1618.11 C 1049.76 1622.13 1052.48 1625.65 1055.13 1629.35 C 1065.2 1644.38 1074.07 1655.44 1083.31 1671.56 C 1113.88 1724.9 1109.72 1778.03 1080.55 1830.71 C 1069.64 1850.41 1054.59 1872.65 1050.36 1895 C 1047.87 1908.16 1048.88 1927.91 1049.1 1942.06 C 1039.99 1959.29 1022.38 1965.54 1003.95 1962.31 C 982.442 1958.55 982.18 1937.82 981.718 1921.14 C 980.637 1882.08 995.642 1846.99 1015.16 1814.06 C 1024.05 1799.06 1032.09 1783.07 1036.23 1766.15 C 1048.25 1716.9 1005.6 1676 981.936 1637.28 C 951.63 1587.67 949.722 1543.98 963.465 1488.54 C 951.016 1487.07 936.777 1482.69 925.763 1476.51 C 913.09 1469.75 922.099 1451.75 927.185 1442.48 C 939.097 1420.79 949.575 1395.59 963.032 1374.9 z"/>
<path transform="translate(0,0)" fill="rgb(238,192,111)" d="M 515.445 452.025 C 520.497 439.837 531.951 419.922 538.675 408.426 C 565.845 361.976 599.479 317.2 638.026 279.471 C 742.139 175.617 883.465 117.717 1030.52 118.671 C 1175.83 121.566 1314.15 181.593 1415.52 285.749 C 1433.11 300.981 1452.65 325.746 1466.66 344.427 C 1646.95 584.827 1637.85 918.612 1441.15 1145.57 C 1344.83 1258.44 1207.36 1328.1 1059.38 1339.02 C 915.017 1348.45 772.866 1299.82 664.526 1203.94 C 540.013 1094.9 464.056 940.755 453.446 775.586 C 446.507 679.162 461.442 582.417 497.136 492.574 C 499.761 485.986 511.64 456.607 515.445 452.025 z"/>
<path transform="translate(0,0)" fill="rgb(249,218,162)" d="M 515.445 452.025 C 520.497 439.837 531.951 419.922 538.675 408.426 C 565.845 361.976 599.479 317.2 638.026 279.471 C 742.139 175.617 883.465 117.717 1030.52 118.671 C 1175.83 121.566 1314.15 181.593 1415.52 285.749 L 1413.49 286.274 L 1411.48 284.511 C 1409.97 285.701 1410.64 284.988 1410.14 287.539 C 1401.98 282.745 1386.92 269.003 1378.03 262.853 C 1357.27 248.494 1334.5 233.304 1312.53 220.945 C 1183.57 149.016 1032.01 129.01 888.796 165.009 C 736.447 205.351 606.388 304.61 527.276 440.916 C 525.6 443.766 522.051 451.24 519.756 452.44 L 518.164 451.171 L 516.859 452.599 L 515.445 452.025 z"/>
<path transform="translate(0,0)" fill="rgb(250,239,217)" d="M 1193.39 254.261 C 1216.32 252.584 1240.55 266.909 1260.76 277.934 C 1320.99 311.086 1372.34 358.268 1410.46 415.484 C 1419.64 429.108 1430.15 445.35 1434.73 461.043 C 1441.76 485.165 1429.04 504.458 1405.82 511.055 C 1366.68 516.472 1360.28 482.987 1342.07 456.433 C 1332.97 443.391 1323.02 430.952 1312.31 419.192 C 1275.13 378.536 1232.8 349.021 1181.88 327.855 C 1173.96 324.563 1165.67 314.267 1162.81 306.256 C 1159.29 296.304 1160.05 285.339 1164.92 275.971 C 1171.29 263.617 1180.85 258.221 1193.39 254.261 z"/>
<path transform="translate(0,0)" fill="rgb(250,239,217)" d="M 1445.42 544.244 C 1468.08 541.932 1481.31 554.379 1488.8 574.543 C 1497.86 598.935 1494.07 621.663 1466.85 630.765 C 1444.86 634.651 1431.97 624.757 1424.59 604.394 C 1415.63 579.68 1416.83 553.971 1445.42 544.244 z"/>
<path transform="translate(0,0)" fill="rgb(171,204,206)" d="M 982.996 1493.82 C 991.422 1495.76 999.986 1497.03 1008.61 1497.64 C 1005.63 1507.77 1003.67 1519.89 1002.12 1530.4 C 1001.69 1542.86 1001.73 1555.2 1004.08 1567.5 C 1016.46 1632.2 1079.67 1671.16 1084.86 1738.42 C 1090.22 1807.76 1043.89 1834.68 1030.64 1890.61 C 1027.92 1902.11 1028.79 1914.06 1028.79 1925.75 C 1028.79 1931.46 1028.43 1937.6 1023.93 1941.72 C 1021.12 1944.28 1017.35 1945.19 1013.62 1944.93 C 1010.01 1944.69 1007.25 1943.1 1005.04 1940.24 C 1000.74 1934.68 1001.13 1924.64 1001.18 1917.93 C 1001.7 1841.99 1058.01 1812.5 1057.94 1748.34 C 1057.85 1662.58 958.151 1636.35 977.598 1513.65 C 979.291 1506.52 980.83 1500.82 982.996 1493.82 z"/>
<path transform="translate(0,0)" fill="rgb(138,181,186)" d="M 982.996 1493.82 C 991.422 1495.76 999.986 1497.03 1008.61 1497.64 C 1005.63 1507.77 1003.67 1519.89 1002.12 1530.4 L 1002.02 1524.35 C 999.133 1519.5 985.818 1517.2 978.882 1514.22 L 977.598 1513.65 C 979.291 1506.52 980.83 1500.82 982.996 1493.82 z"/>
<path transform="translate(0,0)" fill="rgb(238,192,111)" d="M 1020.69 1378.22 C 1030.56 1378.07 1040.72 1378.04 1050.56 1377.76 C 1063.21 1404.07 1075.15 1431.02 1087.99 1457.14 C 1037.1 1467.13 1010.92 1468.9 960.611 1453.87 C 962.409 1450.21 964.245 1446.58 966.119 1442.97 L 987.361 1399.96 C 990.701 1393 994.609 1382.41 1001.15 1378.87 C 1003.13 1378.98 1005.23 1379.04 1006.14 1381.22 C 1012.19 1395.63 1015.88 1406.83 1023.99 1420.52 C 1020.23 1402.9 1018.99 1396.18 1020.69 1378.22 z"/>
<path transform="translate(0,0)" fill="rgb(249,218,162)" d="M 987.361 1399.96 C 990.341 1402 992.528 1403.8 992.869 1407.69 C 994.356 1424.61 988.979 1434.23 992.606 1451.86 C 985.04 1449.97 972.265 1447.2 966.119 1442.97 L 987.361 1399.96 z"/>
<path transform="translate(0,0)" fill="rgb(123,120,128)" fill-opacity="0.0156863" d="M 1047.65 1618.11 L 1048.96 1615.37 C 1046.5 1610.79 1044.01 1606.36 1041.97 1601.58 L 1042.47 1600.11 C 1048.07 1599.53 1053.13 1604.71 1055.19 1609.54 L 1054.84 1610.5 L 1052.41 1610.76 L 1052.41 1612.08 C 1055.56 1613.36 1056.26 1613.34 1059.56 1613.86 L 1060.84 1615.57 C 1060.16 1618.55 1059.63 1619.05 1058.05 1621.64 C 1058.16 1625.79 1060.75 1625.06 1061.64 1629.29 C 1058.88 1629.14 1059.82 1629.47 1057.52 1627.96 L 1055.13 1629.35 C 1052.48 1625.65 1049.76 1622.13 1047.65 1618.11 z"/>
<path transform="translate(0,0)" fill="rgb(1,1,1)" fill-opacity="0.0156863" d="M 560.496 298.469 C 561.757 299.565 561.143 298.821 561.972 300.956 C 560.567 304.453 542.074 326.443 538.458 331.077 L 537.485 330.966 C 537.572 325.012 556.447 305.079 560.496 298.469 z"/>
<path transform="translate(0,0)" fill="rgb(123,120,128)" fill-opacity="0.0156863" d="M 1101 1393.55 C 1104.57 1396.59 1109.36 1402.32 1113.77 1404.98 C 1116.89 1406.87 1116.77 1406.93 1119.42 1409.6 C 1114.43 1409.56 1110.17 1410.35 1106.33 1406.48 C 1103.55 1403.68 1101.16 1397.31 1101 1393.55 z"/>
<path transform="translate(0,0)" fill="url(#Gradient1)" d="M 943.989 1395.63 C 944.608 1396.08 945.005 1396.78 945.485 1397.38 C 944.874 1401.38 939.526 1411.41 937.506 1415.58 L 936.266 1415.68 C 936.076 1412.26 941.745 1401.87 943.604 1396.72 L 943.989 1395.63 z"/>
<path transform="translate(0,0)" fill="rgb(1,1,1)" fill-opacity="0.0313725" d="M 1368.7 190.263 C 1373.8 187.847 1376.56 193.487 1378 197.146 L 1377.94 197.331 L 1376.56 197.462 C 1373.77 195.045 1371.23 192.948 1368.7 190.263 z"/>
<path transform="translate(0,0)" fill="rgb(1,1,1)" fill-opacity="0.0196078" d="M 1014.74 1804.44 C 1016.17 1808.92 1012.02 1813.02 1009.07 1815.63 C 1008.9 1809.95 1010.88 1808.71 1014.74 1804.44 z"/>
<path transform="translate(0,0)" fill="rgb(1,1,1)" fill-opacity="0.0352941" d="M 496.025 391.478 L 497.437 394.005 C 495.888 398.102 495.068 399.219 492.677 402.983 L 491.477 400.936 C 493.465 397.342 494.483 395.28 496.025 391.478 z"/>
<path transform="translate(0,0)" fill="rgb(1,1,1)" fill-opacity="0.0980392" d="M 1418.01 229.185 L 1419.06 228.957 C 1421.18 230.975 1421.48 230.873 1422.29 233.599 L 1420.76 233.936 C 1418.07 231.044 1418.8 232.654 1418.01 229.185 z"/>
<path transform="translate(0,0)" fill="rgb(1,1,1)" fill-opacity="0.0627451" d="M 1468.1 279.94 C 1473.38 281.043 1472.81 282.069 1475.46 286.47 C 1470.92 285.264 1470.72 284.046 1468.1 279.94 z"/>
</svg>