<svg version="1.1" xmlns="http://www.w3.org/2000/svg" viewBox="-25.11 -14.38 2083.37 2066.44" width="256" height="253.91">
<defs>
	<linearGradient id="Gradient1" gradientUnits="userSpaceOnUse" x1="1663.03" y1="532.658" x2="1719.09" y2="315.211">
		<stop class="stop0" offset="0" stop-opacity="1" stop-color="rgb(226,131,106)"/>
		<stop class="stop1" offset="1" stop-opacity="1" stop-color="rgb(238,164,138)"/>
	</linearGradient>
</defs>
<path transform="translate(0,0)" fill="rgb(67,65,68)" d="M 1848.17 586.241 C 1854.38 599.483 1861.18 612.478 1867.5 625.677 C 1968.96 837.535 1981.1 1121.8 1902.79 1343 C 1818.27 1577.25 1644.45 1768.52 1419.33 1875.01 C 1345.16 1909.84 1266.7 1934.68 1186 1948.9 C 1026.26 1974.9 862.561 1960.91 709.547 1908.19 C 476.721 1823.47 286.458 1650.74 179.705 1427.16 C 52.055 1158.24 67.1114 813.622 216.772 556.033 C 221.385 548.094 226.319 540.158 231.146 532.344 C 304.139 412.445 403.007 310.376 520.52 233.6 C 551.642 213.005 589.691 190.441 623.532 174.47 C 685.007 144.806 749.516 121.89 815.929 106.123 C 1003.1 62.784 1199.14 79.2482 1376.46 153.197 C 1414.07 168.97 1450.57 187.259 1485.72 207.939 C 1499.67 216.332 1513.24 225.428 1526.89 234.246 C 1531.14 236.996 1546.09 247.962 1549.77 249.282 C 1552.62 248.316 1553.31 246.733 1555.15 244.237 L 1555.91 243.202 C 1557.9 241.719 1571.02 227.65 1573.74 224.984 C 1588.46 210.548 1602.97 194.506 1618.2 180.682 C 1634.58 165.811 1645.4 159.986 1667.61 161.111 C 1675.98 162.98 1681.04 166.252 1685.79 173.493 C 1696.71 190.153 1703.13 257.949 1704.35 279.2 C 1714.92 271.812 1732.52 261.738 1741 255.163 C 1743.96 254.124 1746.91 252.938 1749.85 251.8 C 1759.81 254.525 1761.15 261.178 1757.95 270.333 C 1753.94 281.822 1746.26 297.298 1738.62 306.707 C 1755.79 306.852 1836.62 316.793 1845.7 326.695 C 1853.62 335.333 1856.42 345.286 1855.34 356.858 C 1854.7 363.742 1852.68 369.632 1849.2 375.577 C 1837.72 395.236 1787.78 447.637 1770.06 462.609 C 1776.31 472.346 1783.74 481.862 1790.29 491.582 C 1804.3 512.403 1817.78 533.575 1830.72 555.078 C 1834.32 561.934 1844.04 580.687 1848.17 586.241 z"/>
<path transform="translate(0,0)" fill="rgb(253,240,214)" d="M 389.934 1633.24 C 275.205 1514.14 197.193 1364.52 165.221 1202.27 C 129.924 1023.83 149.6 838.89 221.651 671.879 C 241.262 625.29 265.05 580.571 292.725 538.272 C 422.65 340.39 626.052 202.417 857.949 154.865 C 1014.42 124.273 1176.3 137.491 1325.74 193.061 C 1391.47 218.257 1454.07 250.953 1512.3 290.503 C 1498.5 312.948 1497.21 364.059 1494.36 391.836 C 1491.37 420.896 1486.95 453.548 1485.63 482.485 C 1482.09 485.313 1479.48 488.203 1476.36 491.452 C 1465.02 480.334 1443.57 464.638 1430.56 455.062 C 1282.38 346.795 1097.29 301.775 915.94 329.889 C 734.966 358.866 572.519 457.519 463.354 604.741 C 349.708 757.505 302.235 949.537 331.61 1137.66 C 360.376 1321.31 461.477 1485.79 612.343 1594.4 C 762.537 1703.33 949.814 1748.23 1133.08 1719.24 C 1317.64 1689.31 1482.72 1587.19 1591.89 1435.39 C 1705.28 1279.75 1742.19 1095.57 1712.44 906.776 C 1711.19 903.116 1710.31 895.206 1709.52 891.121 C 1701.91 852.155 1691.52 812.758 1676.91 775.765 C 1674.83 769.145 1668.8 755.464 1666.02 748.868 C 1639.99 687.226 1605.1 629.713 1562.46 578.147 C 1552.24 565.724 1540.68 551.729 1528.79 541.002 C 1532.64 537.403 1535.19 534.1 1538.51 530.054 C 1572.88 527.717 1607.22 525.061 1641.54 522.087 C 1667.34 520.045 1709.7 520.545 1730.26 504.7 C 1761.55 545.598 1791.91 597.819 1813.23 644.616 C 1828.45 673.71 1844.42 716.641 1854.53 747.395 C 1912.66 925.804 1913.83 1117.88 1857.88 1296.98 C 1786.85 1517.85 1631.53 1701.76 1425.67 1808.75 C 1220.55 1914.64 981.908 1935.2 761.707 1865.95 C 619.995 1821.29 492.031 1741.19 389.934 1633.24 z"/>
<path transform="translate(0,0)" fill="rgb(242,212,163)" d="M 1538.51 530.054 C 1572.88 527.717 1607.22 525.061 1641.54 522.087 C 1667.34 520.045 1709.7 520.545 1730.26 504.7 C 1761.55 545.598 1791.91 597.819 1813.23 644.616 C 1828.45 673.71 1844.42 716.641 1854.53 747.395 C 1912.66 925.804 1913.83 1117.88 1857.88 1296.98 C 1786.85 1517.85 1631.53 1701.76 1425.67 1808.75 C 1220.55 1914.64 981.908 1935.2 761.707 1865.95 C 619.995 1821.29 492.031 1741.19 389.934 1633.24 C 390.743 1633.04 394.962 1632.19 395.414 1632.5 C 444.486 1665.34 493.821 1697.14 546.777 1723.61 C 648.131 1775.34 758.283 1807.63 871.528 1818.79 C 1101.63 1839.96 1330.84 1769.8 1509.65 1623.44 C 1675.09 1489.2 1787.78 1300.83 1827.84 1091.58 C 1834 1058.12 1838.52 1024.38 1841.36 990.472 C 1842.76 973.197 1843.05 955.956 1844.71 938.742 C 1833.65 947.18 1834.56 945.663 1820.83 948.123 C 1802.04 951.492 1721.68 903.928 1712.44 906.776 C 1711.19 903.116 1710.31 895.206 1709.52 891.121 C 1701.91 852.155 1691.52 812.758 1676.91 775.765 C 1674.83 769.145 1668.8 755.464 1666.02 748.868 C 1639.99 687.226 1605.1 629.713 1562.46 578.147 C 1552.24 565.724 1540.68 551.729 1528.79 541.002 C 1532.64 537.403 1535.19 534.1 1538.51 530.054 z"/>
<path transform="translate(0,0)" fill="rgb(253,240,214)" d="M 1538.51 530.054 C 1572.88 527.717 1607.22 525.061 1641.54 522.087 C 1667.34 520.045 1709.7 520.545 1730.26 504.7 C 1761.55 545.598 1791.91 597.819 1813.23 644.616 C 1810.62 653.318 1817.15 679.395 1819.81 688.263 C 1765.05 682.09 1733.05 718.746 1697.57 754.042 C 1691.06 760.52 1683.61 769.971 1676.91 775.765 C 1674.83 769.145 1668.8 755.464 1666.02 748.868 C 1639.99 687.226 1605.1 629.713 1562.46 578.147 C 1552.24 565.724 1540.68 551.729 1528.79 541.002 C 1532.64 537.403 1535.19 534.1 1538.51 530.054 z"/>
<path transform="translate(0,0)" fill="rgb(252,251,243)" d="M 443.791 439.225 C 495.053 433.7 471.934 503.518 458.34 526.988 C 437.63 562.744 412.469 597.922 371.359 609.578 C 297.952 617.123 358.735 459.598 443.791 439.225 z"/>
<path transform="translate(0,0)" fill="rgb(252,251,243)" d="M 311.928 660.158 C 349.268 658.846 345.698 713.956 307.076 726.974 C 267.071 727.361 272.892 669.655 311.928 660.158 z"/>
<path transform="translate(0,0)" fill="rgb(237,151,129)" d="M 1684.78 895.481 C 1720.25 1077.47 1686.02 1250.45 1582.71 1405.07 C 1486.4 1549.21 1326.73 1656.79 1156.29 1690 C 978.593 1725.86 793.948 1688.47 644.194 1586.33 C 496.124 1486.23 393.898 1331.39 360.016 1155.9 C 325.809 975.572 365.197 789.052 469.394 637.949 C 567.818 492.524 727.97 390.633 900.02 357.545 C 1072.41 325.327 1250.55 362.349 1395.83 460.586 C 1418.8 476.171 1435.6 489.365 1457.05 506.801 C 1412.31 542.793 1368.92 583.395 1324.94 620.539 C 1302.3 604.619 1278.48 588.732 1253.89 575.939 C 1156.67 525.523 1045.71 508.033 937.7 526.1 C 804.91 549.545 686.928 624.921 609.843 735.56 C 532.855 844.793 502.177 980.034 524.499 1111.79 C 548.982 1248.98 620.501 1361.99 734.986 1441.58 C 844.447 1518.06 979.73 1548.1 1111.27 1525.14 C 1240.09 1501.68 1363.18 1424.75 1437.63 1316.69 C 1515.91 1204.58 1545.43 1065.54 1519.46 931.287 C 1519.11 929.444 1518.75 927.605 1518.36 925.77 C 1516.53 910.214 1506.88 879.785 1501.92 864.867 C 1517.88 851.079 1587.88 836.309 1610.81 827.998 C 1618.54 825.196 1630.77 822.943 1638.54 818.668 C 1645.76 814.69 1654.37 801.07 1656.66 793.363 C 1666.94 820.35 1679.86 866.611 1684.78 895.481 z"/>
<path transform="translate(0,0)" fill="rgb(225,128,105)" d="M 1656.66 793.363 C 1666.94 820.35 1679.86 866.611 1684.78 895.481 C 1677.35 894.633 1660.39 879.526 1653.23 873.867 C 1642.54 876.978 1523.28 921.135 1519.58 924.032 C 1519.02 924.467 1518.77 925.191 1518.36 925.77 C 1516.53 910.214 1506.88 879.785 1501.92 864.867 C 1517.88 851.079 1587.88 836.309 1610.81 827.998 C 1618.54 825.196 1630.77 822.943 1638.54 818.668 C 1645.76 814.69 1654.37 801.07 1656.66 793.363 z"/>
<path transform="translate(0,0)" fill="rgb(162,198,180)" d="M 1494.91 935.54 C 1519.22 1060.52 1492.99 1190.04 1421.98 1295.72 C 1349.88 1401.45 1239.18 1474.68 1113.67 1499.7 C 987.81 1523.78 857.548 1496.38 752.05 1423.64 C 646.617 1352.17 573.966 1241.67 550.134 1116.55 C 526.967 990.943 554.128 861.264 625.753 755.512 C 697.736 649.166 809.065 575.821 935.188 551.653 C 1069.04 526.642 1192.24 558.64 1303.2 635.041 C 1304.13 635.686 1305.06 636.335 1305.99 636.99 C 1263.63 673.859 1216.36 713.897 1176.33 752.929 C 1108.25 712.819 1020.74 701.876 944.508 721.679 C 862.22 743.103 791.871 796.457 749.05 869.921 C 707.119 942.666 695.857 1029.11 717.747 1110.17 C 739.699 1191.21 793.11 1260.14 866.112 1301.63 C 938.518 1343.83 1024.88 1355.06 1105.67 1332.78 C 1186.72 1310.52 1255.73 1257.22 1297.76 1184.43 C 1328.71 1130.23 1344.35 1062.73 1337.73 1000.4 C 1332.11 966.843 1334.6 953.786 1319.8 918.181 C 1312.98 898.107 1296.55 864.599 1282.48 848.113 C 1291.8 838.57 1303.22 824.02 1312.03 813.61 C 1338.8 781.987 1364.11 748.781 1389.92 716.293 C 1429.45 760.418 1456.04 813.252 1476.85 868.171 C 1482.53 883.19 1486.05 897.358 1489.66 912.884 C 1490.84 917.989 1493.4 931.18 1494.91 935.54 z"/>
<path transform="translate(0,0)" fill="rgb(162,198,180)" d="M 1389.92 716.293 C 1429.45 760.418 1456.04 813.252 1476.85 868.171 C 1471.1 870.956 1453.86 874.749 1446.52 877.071 L 1361.72 904.465 C 1354.93 906.635 1324.74 915.763 1319.8 918.181 C 1312.98 898.107 1296.55 864.599 1282.48 848.113 C 1291.8 838.57 1303.22 824.02 1312.03 813.61 C 1338.8 781.987 1364.11 748.781 1389.92 716.293 z"/>
<path transform="translate(0,0)" fill="rgb(134,167,142)" d="M 1476.85 868.171 C 1482.53 883.19 1486.05 897.358 1489.66 912.884 C 1490.84 917.989 1493.4 931.18 1494.91 935.54 C 1479 939.843 1460.59 946.969 1445.12 953.104 C 1410.12 966.981 1373.66 978.781 1338.85 992.831 C 1337.51 995.85 1337.75 997.14 1337.73 1000.4 C 1332.11 966.843 1334.6 953.786 1319.8 918.181 C 1324.74 915.763 1354.93 906.635 1361.72 904.465 L 1446.52 877.071 C 1453.86 874.749 1471.1 870.956 1476.85 868.171 z"/>
<path transform="translate(0,0)" fill="rgb(237,151,129)" d="M 1313.65 1002.9 C 1314.63 1023.57 1314.9 1045.19 1312.21 1065.69 C 1293.93 1205.06 1175.63 1312.84 1035.59 1319.34 C 958.02 1322.52 882.407 1294.52 825.627 1241.57 C 769.181 1190.54 735.528 1119.02 732.183 1042.99 C 728.266 964.152 756.407 887.078 810.204 829.309 C 863.687 771.821 938.086 738.321 1016.58 736.383 C 1070.01 734.793 1110.55 747.62 1157.79 770.176 C 1134.1 793.348 1107.87 813.55 1107.57 849.533 C 1107.45 863.93 1111.54 879.153 1120.77 890.418 C 1113.02 898.714 1104.81 907.254 1097.35 915.752 C 1061.16 895.432 1027.65 886.732 985.976 898.395 C 951.696 908.314 922.68 931.295 905.176 962.393 C 887.715 993.759 884.524 1033.29 894.528 1067.57 C 904.32 1101.17 927.24 1129.41 958.111 1145.91 C 990.453 1162.93 1028.19 1166.58 1063.19 1156.05 C 1097.3 1145.45 1125.12 1123.49 1141.7 1091.65 C 1152.05 1071.74 1157.68 1049.72 1158.16 1027.29 C 1157.74 992.745 1145.45 960.822 1121.13 936.048 C 1129.97 928.123 1136.21 921.101 1144.17 912.319 C 1156.74 922.616 1172.1 925.233 1187.95 924.436 C 1223.59 922.644 1244.31 892.92 1266.6 867.531 C 1294.99 907.881 1307.59 954.687 1313.65 1002.9 z"/>
<path transform="translate(0,0)" fill="rgb(225,128,105)" d="M 1266.6 867.531 C 1294.99 907.881 1307.59 954.687 1313.65 1002.9 L 1312.14 1003.69 C 1299.03 1010.58 1291.87 1019.55 1279.82 1028.15 C 1250.76 1048.91 1219.42 1057 1184.33 1048.24 C 1176.33 1046.24 1166.29 1034.95 1161.28 1028.36 L 1158.16 1027.29 C 1157.74 992.745 1145.45 960.822 1121.13 936.048 C 1129.97 928.123 1136.21 921.101 1144.17 912.319 C 1156.74 922.616 1172.1 925.233 1187.95 924.436 C 1223.59 922.644 1244.31 892.92 1266.6 867.531 z"/>
<path transform="translate(0,0)" fill="rgb(237,151,129)" d="M 1514.01 560.679 C 1574.51 622.534 1627.64 712.158 1656.66 793.363 C 1654.37 801.07 1645.76 814.69 1638.54 818.668 C 1630.77 822.943 1618.54 825.196 1610.81 827.998 C 1587.88 836.309 1517.88 851.079 1501.92 864.867 C 1484.4 813.667 1444.01 734.579 1404.91 696.72 C 1415.62 685.644 1429.61 665.949 1439.91 653.402 C 1464.87 623.002 1489.05 590.987 1514.01 560.679 z"/>
<path transform="translate(0,0)" fill="rgb(242,212,163)" d="M 974.952 1126.61 C 948.176 1113.09 929.145 1092.41 919.742 1063.71 C 910.025 1034.9 912.474 1003.39 926.524 976.43 C 945.63 939.31 986.874 915.335 1028.59 918.333 C 1049.24 919.817 1063.24 925.063 1081.39 934.332 C 1057.08 960.384 1034.01 991.646 1014.43 1021.57 C 1012.68 1024.24 1013 1026.25 1013.91 1029.07 C 1016.9 1031.6 1016.74 1031.46 1020.64 1032.18 C 1028.24 1026.51 1036.05 1018.82 1043.59 1012.61 C 1065.24 993.47 1084.73 976.801 1104.43 955.566 C 1108.72 960.726 1111.72 964.576 1115.56 970.066 C 1131.86 994.176 1135.77 1022.24 1130.33 1050.58 C 1125 1078.17 1108.92 1102.52 1085.64 1118.27 C 1060.63 1135.13 1029.92 1141.31 1000.34 1135.43 C 991.532 1133.59 983.001 1130.62 974.952 1126.61 z"/>
<path transform="translate(0,0)" fill="rgb(231,173,86)" d="M 1104.43 955.566 C 1108.72 960.726 1111.72 964.576 1115.56 970.066 C 1131.86 994.176 1135.77 1022.24 1130.33 1050.58 C 1125 1078.17 1108.92 1102.52 1085.64 1118.27 C 1060.63 1135.13 1029.92 1141.31 1000.34 1135.43 C 991.532 1133.59 983.001 1130.62 974.952 1126.61 C 979.864 1124.57 988.852 1124.42 994.297 1124.66 C 1039.75 1126.71 1082.01 1100.58 1104.75 1061.92 C 1111.33 1050.74 1114.33 1039.42 1117.61 1026.78 C 1100.47 1027.48 1029.67 1035.82 1020.64 1032.18 C 1028.24 1026.51 1036.05 1018.82 1043.59 1012.61 C 1065.24 993.47 1084.73 976.801 1104.43 955.566 z"/>
<path transform="translate(0,0)" fill="rgb(242,212,163)" d="M 1104.43 955.566 C 1108.72 960.726 1111.72 964.576 1115.56 970.066 C 1115.49 980.253 1116.94 988.902 1117.01 998.513 C 1107.36 999.188 1099.37 1001.91 1090.66 1003.46 C 1081.58 1005.08 1050.03 1015.75 1043.59 1012.61 C 1065.24 993.47 1084.73 976.801 1104.43 955.566 z"/>
<path transform="translate(0,0)" fill="rgb(253,240,214)" d="M 977.037 938.262 C 1009.94 935.458 998.082 962.462 975.856 973.325 C 943.232 977.652 954.902 947.235 977.037 938.262 z"/>
<path transform="translate(0,0)" fill="rgb(253,240,214)" d="M 943.842 981.794 C 960.045 980.473 962.567 995.769 949.322 1004.64 C 933.843 1008.3 931.312 991.356 943.842 981.794 z"/>
<path transform="translate(0,0)" fill="url(#Gradient1)" d="M 1724.24 325.868 C 1742.84 329.658 1820.52 337.711 1831.01 343.502 C 1832.65 345.729 1833.61 347.39 1833.92 350.192 C 1834.91 359.359 1829.81 365.62 1824.34 372.172 C 1808.61 391.049 1722.52 485.914 1708.68 491.927 C 1694.78 497.969 1664.2 498.193 1648.24 499.636 C 1612.68 502.408 1577.41 505.287 1541.74 506.095 C 1570.02 483.297 1592.19 460.541 1618.21 435.599 C 1655.76 399.602 1689.74 364.763 1724.24 325.868 z"/>
<path transform="translate(0,0)" fill="rgb(237,151,129)" d="M 1517.95 384.826 C 1517.97 366.002 1522.24 341.881 1524.54 323.08 C 1526.62 306.07 1541.38 290.835 1552.89 279.014 C 1583.65 247.531 1614.04 214.54 1647.68 186.15 C 1654.49 180.399 1665.85 181.722 1670.38 190.545 C 1669.48 198.222 1684 285.026 1686.66 295.587 C 1675.11 304.807 1661.66 318.614 1650.97 329.192 C 1628.33 351.579 1606.13 374.419 1584.4 397.698 C 1568.39 414.504 1552.62 431.536 1537.09 448.788 C 1528.88 457.777 1515.79 471.404 1508.89 480.899 C 1509.73 456.988 1511.64 433.126 1514.61 409.385 C 1515.16 404.665 1516.84 388.89 1517.95 384.826 z"/>
<path transform="translate(0,0)" fill="rgb(246,202,193)" d="M 1517.95 384.826 C 1517.97 366.002 1522.24 341.881 1524.54 323.08 C 1526.62 306.07 1541.38 290.835 1552.89 279.014 C 1583.65 247.531 1614.04 214.54 1647.68 186.15 C 1654.49 180.399 1665.85 181.722 1670.38 190.545 C 1662.49 194.885 1651.27 197.329 1644.25 203.441 C 1616.89 227.234 1593 255.27 1568.56 282.002 C 1555.54 296.234 1541.69 311.232 1534.75 329.581 C 1528.52 347.73 1528.51 369.106 1521.94 387.03 C 1521.18 389.148 1521.55 399.17 1521.52 402.311 L 1520.36 402.821 L 1517.78 404.019 C 1518.92 395.334 1521.98 391.739 1517.95 384.826 z"/>
<path transform="translate(0,0)" fill="rgb(253,240,214)" d="M 1500.54 498.851 C 1501.78 510.275 1501.78 516.297 1515.06 517.72 L 1518.6 517.878 L 1519.47 519.366 C 1517.79 523.257 1492.29 554.388 1488.03 559.666 L 1429.76 632.478 L 1355.74 726.173 C 1343.7 741.455 1329.48 760.585 1317.08 774.844 C 1310.62 771.718 1301.43 767.581 1295.55 763.892 C 1272.89 749.236 1262.74 736.461 1251.25 712.843 C 1266.79 700.191 1282.89 685.456 1298.25 672.282 C 1365.59 614.489 1431.34 554.468 1500.54 498.851 z"/>
<path transform="translate(0,0)" fill="rgb(242,212,163)" d="M 1515.06 517.72 L 1518.6 517.878 L 1519.47 519.366 C 1517.79 523.257 1492.29 554.388 1488.03 559.666 L 1429.76 632.478 L 1355.74 726.173 C 1343.7 741.455 1329.48 760.585 1317.08 774.844 C 1310.62 771.718 1301.43 767.581 1295.55 763.892 C 1303.23 756.608 1315.36 741.284 1322.14 732.893 C 1334.17 717.954 1346.29 703.082 1358.48 688.276 C 1393.19 646.509 1428.61 605.345 1464.73 564.804 C 1481.7 545.62 1491.9 529.506 1515.06 517.72 z"/>
<path transform="translate(0,0)" fill="rgb(242,212,163)" d="M 1173.01 785.674 C 1173.22 785.771 1189.66 810.32 1191.92 813.117 C 1207.43 832.277 1227.62 844.912 1249.18 856.061 C 1236.02 870.907 1220.11 890.683 1202.92 899.825 C 1167.98 914.333 1126.88 885.593 1128.81 847.474 C 1130.16 820.72 1154.69 802.98 1173.01 785.674 z"/>
<path transform="translate(0,0)" fill="rgb(237,151,129)" d="M 1727.23 285.976 L 1728.13 286.796 C 1725.34 305.157 1551.28 475.979 1526.95 494.665 L 1525.6 493.846 C 1527.43 487.877 1562.65 450.931 1569.53 443.342 C 1604.49 404.728 1640.6 366.946 1677.8 330.464 C 1690.75 317.758 1712.57 295.913 1727.23 285.976 z"/>
<path transform="translate(0,0)" fill="rgb(242,212,163)" d="M 1234.64 727.663 C 1236.67 728.556 1246.25 744.386 1248.75 747.664 C 1262.9 766.224 1282.98 781.711 1304.61 790.366 C 1299.96 796.452 1294.55 802.886 1289.7 808.893 C 1255.22 794.419 1235.34 775.135 1217.91 742.386 C 1224.42 737.229 1228.63 733.432 1234.64 727.663 z"/>
<path transform="translate(0,0)" fill="rgb(242,212,163)" d="M 1203.76 756.873 C 1203.96 757.11 1204.15 757.346 1204.34 757.582 C 1217.45 783.553 1248.46 814.098 1276.53 824.071 C 1271.39 829.39 1267.2 834.695 1262.54 840.445 C 1227.55 825.636 1205.75 804.55 1188.32 771.362 C 1193.44 766.502 1198.59 761.672 1203.76 756.873 z"/>
<path transform="translate(0,0)" fill="rgb(85,92,92)" fill-opacity="0.0156863" d="M 1555.91 243.202 L 1554.54 240.604 L 1556.22 238.557 C 1554.72 237.451 1555.18 238.165 1554.72 236.486 C 1558.37 232.853 1561.96 229.161 1565.48 225.412 L 1564.22 223.714 C 1561.46 223.884 1561.89 224.298 1559.76 223.299 L 1591.69 191.691 C 1598.97 184.344 1607.65 174.848 1615.32 168.191 C 1616.4 168.704 1620.78 170.524 1621.48 170.097 C 1626.62 166.963 1641.32 156.647 1646.9 156.326 L 1647.92 158.982 C 1654.27 161.012 1657.74 155.421 1667.62 158.614 L 1667.38 159.13 L 1667.61 161.111 C 1645.4 159.986 1634.58 165.811 1618.2 180.682 C 1602.97 194.506 1588.46 210.548 1573.74 224.984 C 1571.02 227.65 1557.9 241.719 1555.91 243.202 z"/>
<path transform="translate(0,0)" fill="rgb(150,150,154)" fill-opacity="0.0117647" d="M 1820.67 527.249 C 1824.77 525.046 1822.8 525.192 1826.67 525.843 L 1827.97 527.409 C 1826.7 528.903 1827.34 528.219 1826.08 529.476 C 1827.03 531.79 1829.79 537.283 1829.09 539.028 C 1828.62 540.186 1829.18 541.177 1829.72 542.518 C 1832.13 540.107 1832.78 537.381 1835.21 535.781 C 1835.81 536.707 1839.49 548.237 1840.79 551.437 L 1840.85 551.084 C 1842.65 554.839 1846.16 563.315 1848.86 565.612 L 1850.07 563.537 L 1851.19 564.432 L 1850.34 565.718 C 1852.05 571.138 1851.24 576.95 1852.89 583.627 L 1851 584.369 C 1849.09 585.138 1849.54 584.813 1848.17 586.241 C 1844.04 580.687 1834.32 561.934 1830.72 555.078 L 1833.05 553.639 C 1833.07 547.878 1826.52 538.738 1822.84 534.413 C 1823.32 530.264 1823.24 531.649 1820.67 527.249 z"/>
<path transform="translate(0,0)" fill="rgb(190,194,193)" fill-opacity="0.0235294" d="M 1741 255.163 C 1735.93 251.899 1739.16 255.908 1734.34 252.921 L 1735.24 250.99 C 1734.22 248.703 1734.26 248.633 1733.86 246.134 C 1735.91 240.81 1745.66 237.017 1750.55 238.729 L 1748.78 240.845 L 1748.86 242.61 C 1746.34 243.443 1744.72 244.072 1742.32 245.077 C 1742.32 249.603 1742.52 243.225 1747.45 249.389 C 1750.19 250.032 1750.96 249.495 1753.91 248.923 L 1754.14 249.813 C 1752.94 251.173 1752.08 251.025 1749.85 251.8 C 1746.91 252.938 1743.96 254.124 1741 255.163 z"/>
<path transform="translate(0,0)" fill="rgb(1,1,2)" fill-opacity="0.0156863" d="M 224.943 531.33 C 226.42 527.945 241.876 503.813 244.333 500.922 L 245.265 501.927 C 243.184 508.871 228.197 528.372 225.473 534.433 L 224.943 531.33 z"/>
<path transform="translate(0,0)" fill="rgb(1,1,2)" fill-opacity="0.0117647" d="M 1438.81 1870.28 C 1438.51 1875.33 1432.74 1876.32 1428.38 1878.28 L 1426.37 1878.2 L 1426.13 1876.88 C 1430.05 1873.88 1434.29 1872.3 1438.81 1870.28 z"/>
<path transform="translate(0,0)" fill="rgb(1,1,2)" fill-opacity="0.0117647" d="M 318.987 403.135 L 319.523 405.346 C 317.108 408.885 313.45 412.133 310.341 415.175 L 309.549 412.993 C 312.663 408.037 314.559 406.855 318.987 403.135 z"/>
<path transform="translate(0,0)" fill="rgb(1,1,2)" fill-opacity="0.0117647" d="M 1466.35 1855.88 L 1466.59 1857.88 C 1463.44 1861.15 1459.41 1862.62 1455.24 1864.62 L 1455.26 1862.13 C 1457.62 1860.16 1463.4 1857.41 1466.35 1855.88 z"/>
<path transform="translate(0,0)" fill="rgb(1,1,2)" fill-opacity="0.160784" d="M 1728.71 256.21 L 1728.7 257.061 C 1725.99 260.359 1719.6 263.359 1715.59 265.572 L 1715.6 263.835 C 1718.3 260.863 1724.84 258.123 1728.71 256.21 z"/>
<path transform="translate(0,0)" fill="rgb(1,1,2)" fill-opacity="0.133333" d="M 1887.76 639.683 C 1891.02 641.734 1893.73 647.787 1893.74 651.626 L 1892.73 651.443 C 1890.23 647.557 1889.28 644.04 1887.76 639.683 z"/>
<path transform="translate(0,0)" fill="rgb(1,1,2)" fill-opacity="0.14902" d="M 1896.05 658.783 C 1898.94 661.271 1901.84 667.772 1901.55 671.597 C 1897.9 667.307 1897.18 664.172 1896.05 658.783 z"/>
<path transform="translate(0,0)" fill="rgb(1,1,2)" fill-opacity="0.109804" d="M 1822.84 534.413 C 1820.17 530.794 1818.71 528.536 1818.45 524.169 L 1819.51 524.225 L 1820.67 527.249 C 1823.24 531.649 1823.32 530.264 1822.84 534.413 z"/>
<path transform="translate(0,0)" fill="rgb(1,1,2)" fill-opacity="0.0156863" d="M 1898.36 1369.58 L 1899.45 1369.83 C 1900.01 1372.29 1898.63 1373.97 1897.16 1376.61 L 1896.18 1374.91 C 1896.88 1372.18 1896.66 1371.6 1898.36 1369.58 z"/>
<path transform="translate(0,0)" fill="rgb(1,1,2)" fill-opacity="0.0431373" d="M 1379.46 1897.67 L 1381.12 1898.54 C 1379.44 1900.71 1376.14 1901.57 1373.42 1902.65 C 1372.67 1902.72 1373.18 1902.74 1372.01 1902.06 C 1374.4 1899.47 1376.07 1899.22 1379.46 1897.67 z"/>
<path transform="translate(0,0)" fill="rgb(1,1,2)" fill-opacity="0.0392157" d="M 224.943 531.33 L 225.473 534.433 C 224.179 537.64 225.16 536.374 222.547 538.464 L 221.751 537.481 C 222.565 534.048 222.84 534.037 224.943 531.33 z"/>
<path transform="translate(0,0)" fill="rgb(1,1,2)" fill-opacity="0.0235294" d="M 1892.73 669.639 C 1895.53 672.513 1895.79 673.806 1895.86 677.593 L 1894.67 677.338 C 1893.47 674.747 1893.24 672.443 1892.73 669.639 z"/>
</svg>