<svg version="1.1" xmlns="http://www.w3.org/2000/svg" viewBox="314.40 3.88 1404.15 2034.26" width="176.71" height="256">
<path transform="translate(0,0)" fill="rgb(82,81,82)" d="M 1006.07 81.3732 C 1022.84 79.2235 1041.74 81.0686 1057.31 87.8653 C 1078.19 96.9724 1094.54 114.08 1102.69 135.351 C 1113.88 164.41 1108.81 184.956 1096.91 211.749 C 1187.76 250.815 1116.95 374.34 1039.84 342.146 C 1034.92 349.372 1020.52 374.22 1024.85 382.312 C 1029.9 383.264 1055.51 383.403 1062.4 383.612 C 1095.73 384.789 1129.07 385.655 1162.41 386.208 C 1215.9 387.501 1276.09 394.275 1329.12 401.064 C 1364.76 405.949 1405.27 411.232 1439.59 420.555 C 1489.14 434.009 1500.79 441.997 1512.62 491.92 C 1516.34 507.646 1528.69 533.701 1534.94 549.402 C 1535.14 549.732 1535.34 550.061 1535.54 550.391 C 1559.66 559.818 1594.26 567.841 1606.77 593.504 C 1614.26 608.866 1606.96 628.902 1611.34 645.768 C 1618.15 671.995 1632 695.453 1639.29 721.527 C 1642.55 733.367 1643.21 741.102 1638.81 752.738 C 1625.78 765.535 1585.74 773.144 1566.57 777.757 C 1564.28 807.237 1557.72 845.321 1554.19 875.368 C 1551.8 895.712 1547.09 937.287 1542.58 955.474 C 1552.12 966.604 1560.2 976.124 1559.72 991.788 C 1558.8 1022.11 1553.46 1054.65 1549.33 1084.71 L 1531.03 1223.25 C 1520.4 1307.32 1509.33 1391.34 1497.84 1475.3 C 1493.53 1506.55 1490.43 1537.99 1485.43 1569.2 C 1482.18 1589.46 1458.21 1595.49 1456.55 1608.96 C 1454.26 1627.58 1451.64 1647.89 1449.24 1666.6 C 1443.92 1709.62 1438.01 1752.56 1431.52 1795.41 C 1429.43 1808.87 1425.72 1843.57 1421.18 1853.53 C 1374.48 1955.75 1165.34 1959.69 1077.25 1960.96 C 959.514 1962.8 828.457 1961.93 714.828 1927.44 C 686.338 1918.8 636.707 1884.66 625.552 1855.42 C 615.726 1829.66 615.512 1789.81 610.518 1762.09 C 602.684 1709.52 595.866 1656.19 589.865 1603.36 C 575.289 1593.08 563.816 1584.76 560.969 1565.91 C 556.235 1534.56 552.318 1502.85 548.092 1471.43 L 519.742 1252.72 L 499.787 1100.75 C 494.865 1065.36 488.399 1026.49 487.305 990.9 C 486.851 976.137 494.703 968.092 504.509 958.524 C 498.135 918.264 493.127 877.634 487.893 837.206 C 485.653 819.905 485.075 800.619 480.858 783.831 C 480.183 781.146 479.607 779.861 477.217 778.429 C 472.84 775.806 466.222 775.05 461.284 773.942 C 446.144 770.548 423.5 766.66 411.724 756.031 C 389.743 736.19 429.506 670.5 435.686 646.46 C 438.507 635.488 436.93 624.144 436.815 612.968 C 436.276 560.728 505.969 560.018 514.754 545.533 C 518.238 539.79 520.004 532.272 522.118 525.897 C 527.531 509.573 541.605 456.864 551.477 447.096 C 599.562 399.52 860.772 385.603 933.518 385.89 C 925.922 363.44 925.881 347.795 932.836 325.303 C 926.932 323.799 922.185 322.716 916.725 319.803 C 902.568 312.313 892.051 299.405 887.575 284.027 C 882.386 266.656 884.66 246.91 893.331 231.012 C 901.991 215.241 916.654 203.637 933.993 198.833 C 952.241 193.803 966.455 196.758 982.552 206.058 C 985.681 203.115 989.844 197.904 992.74 194.497 C 988.109 192.07 983.734 189.856 979.479 186.873 C 941.208 160.045 941.072 99.7716 990.573 84.4465 C 996.093 82.7376 1000.36 82.1084 1006.07 81.3732 z"/>
<path transform="translate(0,0)" fill="rgb(194,158,117)" d="M 513.476 995.172 C 546.254 1019.06 611.965 1034.4 652.107 1041.9 C 830.933 1075.31 1017.29 1080.33 1198.53 1068.26 C 1222.14 1066.68 1245.89 1063.1 1269.54 1061.85 C 1334.56 1053.65 1482.8 1034.07 1534.57 996.218 C 1524.97 1052.55 1516.88 1117.56 1509.4 1174.28 L 1478.11 1410.91 C 1473.78 1442.89 1469.67 1474.9 1465.75 1506.94 C 1463.58 1524.59 1462.64 1544.41 1458.09 1561.54 C 1456.26 1568.46 1451.76 1572.98 1446.01 1576.99 C 1409.35 1602.55 1276.1 1626.3 1228.94 1630.35 C 1225.79 1631.33 1208.88 1633.68 1204.81 1634.12 C 1032.79 1652.84 855.677 1646.24 686.827 1607.04 C 659.507 1600.7 621.022 1590.8 597.373 1574.99 C 593.839 1572.62 590.203 1568.37 589.308 1564.06 C 586.808 1552.03 585.758 1539.73 584.214 1527.52 L 576.644 1468.81 L 552.823 1285.3 C 548.221 1247.78 541.316 1209.52 537.428 1172.1 C 531.288 1113 519.458 1054.03 513.476 995.172 z"/>
<path transform="translate(0,0)" fill="rgb(179,139,96)" d="M 1269.54 1061.85 C 1334.56 1053.65 1482.8 1034.07 1534.57 996.218 C 1524.97 1052.55 1516.88 1117.56 1509.4 1174.28 L 1478.11 1410.91 C 1473.78 1442.89 1469.67 1474.9 1465.75 1506.94 C 1463.58 1524.59 1462.64 1544.41 1458.09 1561.54 C 1456.26 1568.46 1451.76 1572.98 1446.01 1576.99 C 1409.35 1602.55 1276.1 1626.3 1228.94 1630.35 C 1230.37 1627.9 1235.21 1621.96 1237.17 1619.53 C 1261.77 1589.17 1266.45 1553.1 1271.31 1515.56 C 1275.31 1484.73 1278.46 1453.21 1282.01 1422.01 C 1289.33 1359.69 1295.55 1297.24 1300.68 1234.69 C 1304.28 1194.39 1309.87 1144.99 1305.99 1104.89 C 1303.31 1089.51 1295.47 1074.09 1282.42 1065.09 C 1276.71 1061.15 1276.43 1061.48 1269.54 1061.85 z"/>
<path transform="translate(0,0)" fill="rgb(220,207,193)" d="M 1385.45 1446.21 C 1413.1 1444.07 1411.93 1477.27 1406.71 1495.46 C 1398.8 1523.07 1388.28 1554.52 1357.56 1562.31 C 1304.16 1556.94 1346.25 1459.36 1385.45 1446.21 z"/>
<path transform="translate(0,0)" fill="rgb(220,207,193)" d="M 599.064 1251.07 C 603.042 1250.52 606.877 1250.35 610.78 1251.5 C 615.775 1252.97 619.78 1256.23 622.166 1260.88 C 628.629 1273.49 650.437 1463.8 651.756 1490.19 C 651.951 1494.08 651.921 1497.48 650.769 1501.25 C 648.493 1508.69 643.379 1512.32 636.785 1515.91 C 634.009 1516.21 631.205 1516.54 628.423 1516.13 C 623.431 1515.38 619.325 1512.62 616.595 1508.39 C 612.371 1501.84 610.663 1491.93 609.183 1484.37 C 603.888 1457.32 580.652 1287.33 584.717 1268.6 C 586.667 1259.62 591.612 1255.65 599.064 1251.07 z"/>
<path transform="translate(0,0)" fill="rgb(179,139,96)" d="M 928.71 1145.45 C 937.872 1149.06 939.658 1179.31 940.42 1188.44 C 943.611 1226.61 945.037 1264.93 946.434 1303.19 L 950.413 1426.88 C 951.056 1453.2 951.296 1479.53 951.133 1505.86 C 951.053 1517.39 951.705 1555.21 944.901 1563.36 C 921.973 1538.65 914.389 1175.22 928.71 1145.45 z"/>
<path transform="translate(0,0)" fill="rgb(179,139,96)" d="M 716.086 1124.29 C 729.671 1128.7 734.802 1205.37 736.5 1220.95 C 740.715 1258.33 744.556 1295.74 748.023 1333.19 C 753.756 1393.13 760.871 1454.64 759.051 1514.88 C 758.978 1517.29 757.874 1517.42 756.165 1518.5 C 733.939 1493.9 700.443 1151.2 716.086 1124.29 z"/>
<path transform="translate(0,0)" fill="rgb(220,207,193)" d="M 583.455 1076.21 C 587.083 1076.02 593.356 1075.83 596.68 1077.44 C 619.788 1088.65 622.426 1135.2 624.475 1156.44 C 626.83 1180.86 626.326 1210.38 602.071 1220.55 C 569.756 1223.64 562.175 1176.47 560.788 1153.08 C 559.359 1128.98 553.71 1085.34 583.455 1076.21 z"/>
<path transform="translate(0,0)" fill="rgb(179,139,96)" d="M 1200.25 1138.6 C 1218.5 1150.11 1208.9 1359.42 1206.24 1389.75 C 1202.87 1428.21 1200.64 1485 1190.14 1521.81 C 1188.14 1523.11 1189.22 1522.81 1186.73 1522.32 C 1178.18 1511.43 1181.73 1441.89 1182.25 1424.68 C 1184.05 1366.89 1186.73 1309.12 1190.3 1251.41 C 1192.15 1218.44 1193.13 1184.79 1195.83 1151.94 C 1196.26 1146.71 1197.27 1142.96 1200.25 1138.6 z"/>
<path transform="translate(0,0)" fill="rgb(237,235,229)" d="M 509.943 784.721 C 688.65 821.555 870.882 838.503 1053.32 835.258 C 1220.09 833.72 1374.27 820.473 1537.09 783.989 C 1530.49 832.173 1525.58 880.915 1518.16 928.944 C 1516.08 942.42 1513.61 967.475 1510.72 979.967 C 1467.83 1003.79 1365.83 1021.87 1316.83 1028.23 C 1251.51 1038.75 1177.86 1044.19 1111.67 1046.69 C 954.64 1052.61 791.802 1043.29 637.797 1011.29 C 614.289 1006.4 556.392 992.815 536.555 980.099 C 530.14 929.239 521.71 879.044 515.558 827.895 C 513.906 814.048 512.354 798.292 509.943 784.721 z"/>
<path transform="translate(0,0)" fill="rgb(220,207,193)" d="M 509.943 784.721 C 688.65 821.555 870.882 838.503 1053.32 835.258 C 1220.09 833.72 1374.27 820.473 1537.09 783.989 C 1530.49 832.173 1525.58 880.915 1518.16 928.944 C 1516.08 942.42 1513.61 967.475 1510.72 979.967 C 1467.83 1003.79 1365.83 1021.87 1316.83 1028.23 C 1314.64 1018.63 1317.85 990.937 1318.42 979.965 C 1320.36 942.814 1326.62 902.119 1323.29 865.195 C 1305.2 864.673 1284.33 867.35 1266.1 868.658 C 1240.08 870.28 1214.05 871.662 1188 872.805 C 1103.75 875.947 1019.4 875.929 935.145 872.751 C 839.366 869.342 743.841 860.764 648.987 847.054 C 618.321 842.22 587.776 836.641 557.381 830.323 C 548.623 828.538 523.316 822.255 516.59 821.5 L 515.558 827.895 C 513.906 814.048 512.354 798.292 509.943 784.721 z"/>
<path transform="translate(0,0)" fill="rgb(237,235,229)" d="M 1242.21 1656.48 C 1258.71 1652.99 1277.34 1651.52 1293.9 1648.41 C 1335.83 1640.53 1388.23 1631.45 1427.33 1614.74 C 1417.79 1668.93 1413.54 1725.33 1404.53 1779.76 C 1396.88 1825.9 1404.47 1849.7 1361.91 1879.4 C 1346.03 1890.31 1328.64 1898.83 1310.3 1904.71 C 1271.02 1917.47 1219.74 1923.01 1178.5 1927.05 C 1162.2 1928.65 1141.43 1930.92 1125.26 1931.08 C 1120.32 1931.66 1115.38 1932.12 1110.43 1932.45 C 1038.23 1937.57 958.443 1935.58 886.685 1928.58 C 815.382 1921.62 729.576 1917.18 672.459 1869.81 C 645.652 1847.57 647.877 1823.87 643.546 1792.03 L 632.377 1708.34 C 628.694 1678.71 622.734 1644.52 620.625 1615.07 C 662.865 1631.76 722.807 1643.67 767.41 1650.69 C 877.452 1667.73 988.908 1673.87 1100.16 1669.02 C 1149.75 1666.66 1193.22 1662.07 1242.21 1656.48 z"/>
<path transform="translate(0,0)" fill="rgb(220,207,193)" d="M 1242.21 1656.48 C 1258.71 1652.99 1277.34 1651.52 1293.9 1648.41 C 1335.83 1640.53 1388.23 1631.45 1427.33 1614.74 C 1417.79 1668.93 1413.54 1725.33 1404.53 1779.76 C 1396.88 1825.9 1404.47 1849.7 1361.91 1879.4 C 1346.03 1890.31 1328.64 1898.83 1310.3 1904.71 C 1271.02 1917.47 1219.74 1923.01 1178.5 1927.05 C 1162.2 1928.65 1141.43 1930.92 1125.26 1931.08 C 1128.37 1930.14 1127.03 1930.77 1129.16 1929.01 C 1136.05 1923.33 1144.47 1917.45 1151.8 1912.35 C 1173.97 1896.91 1195.6 1878.49 1209.58 1855.09 C 1214.54 1846.8 1219.84 1826.99 1222.02 1818.5 C 1226.73 1800.1 1247.57 1668.61 1244.77 1657.7 L 1242.21 1656.48 z"/>
<path transform="translate(0,0)" fill="rgb(254,254,254)" d="M 665.095 1662.15 C 668.217 1661.96 671.281 1661.84 674.354 1662.57 C 678.826 1663.63 682.991 1666.37 685.376 1670.36 C 693.023 1683.14 712.356 1788.44 708.574 1802.07 C 706.695 1808.84 701.294 1813.94 695.456 1817.43 C 692.126 1817.93 689.247 1818.11 685.941 1817.29 C 679.93 1815.79 674.813 1810.86 671.91 1805.52 C 663.419 1789.91 646.765 1690.99 651.885 1675.16 C 654.069 1668.41 659.181 1665.4 665.095 1662.15 z"/>
<path transform="translate(0,0)" fill="rgb(237,235,229)" d="M 462.954 647.125 C 478.449 658.758 501.006 667.364 519.574 672.231 C 528.088 674.463 566.926 685.005 573.477 681.209 C 571.276 669.441 444.338 650.934 465.077 604.017 C 470.319 592.159 493.704 583.34 504.108 578.583 C 489.633 609.335 513.494 617.424 537.038 629.952 C 552.354 636.809 569.779 641.501 586.018 645.575 C 666.919 665.866 752.766 676.01 835.42 682.482 C 1002.81 696.225 1171.21 691.595 1337.59 668.676 C 1387.89 661.701 1443.19 652.83 1491.76 637.487 C 1506.62 632.792 1540.49 618.658 1546.98 603.404 C 1550.81 594.389 1548.94 589.078 1545.89 580.661 C 1564.35 587.971 1592.5 597.425 1581.92 623.247 C 1578.87 630.707 1573.22 636.134 1566.65 640.581 C 1538.61 659.57 1503.35 666.143 1473.01 680.031 L 1471.98 680.512 C 1478.64 684.653 1504.87 678.378 1513.53 676.393 C 1537.75 670.845 1562.3 661.227 1583.2 647.686 C 1590.88 679.278 1605.84 703.45 1613.57 735.592 C 1570.81 748.496 1530.24 756.876 1486.62 765.422 C 1430.78 776.361 1375.87 785.74 1319.2 791.363 C 1307.53 792.521 1270.96 797.555 1260.27 796.972 C 1204.72 803.124 1140 805.812 1084.35 807.002 C 906.148 811.419 727.971 797.141 552.744 764.401 C 522.438 758.483 462.131 746.577 433.346 735.54 C 439.159 709.268 459.684 673.509 462.954 647.125 z"/>
<path transform="translate(0,0)" fill="rgb(220,207,193)" d="M 1471.98 680.512 C 1478.64 684.653 1504.87 678.378 1513.53 676.393 C 1537.75 670.845 1562.3 661.227 1583.2 647.686 C 1590.88 679.278 1605.84 703.45 1613.57 735.592 C 1570.81 748.496 1530.24 756.876 1486.62 765.422 C 1430.78 776.361 1375.87 785.74 1319.2 791.363 C 1307.53 792.521 1270.96 797.555 1260.27 796.972 C 1260.35 789.168 1283.58 759.611 1275.2 740.876 C 1272.71 735.305 1265.53 722.102 1260.17 719.489 C 1274.93 716.307 1349.39 710.19 1354.15 700.866 C 1369.47 701.466 1453.83 686.008 1471.98 680.512 z"/>
<path transform="translate(0,0)" fill="rgb(82,81,82)" d="M 1260.17 719.489 C 1103.79 735.42 946.182 735.132 789.864 718.628 C 776.162 717.15 700.03 709.058 695.387 703.295 L 696.267 702.393 C 705.545 700.291 737.726 704.006 749.617 704.925 L 832.369 711.137 C 877.11 714.209 921.902 716.482 966.724 717.955 C 1051.67 719.16 1136.62 716.817 1221.37 710.932 C 1247.2 709.078 1273.01 706.927 1298.79 704.478 C 1317.03 702.832 1335.88 700.632 1354.15 700.866 C 1349.39 710.19 1274.93 716.307 1260.17 719.489 z"/>
<path transform="translate(0,0)" fill="rgb(237,235,229)" d="M 519.657 598.664 C 534.634 576.24 558.358 515.17 564.807 488.568 C 601.51 505.894 667.584 514.104 708.875 518.934 C 824.321 531.771 940.426 537.771 1056.58 536.901 C 1111.05 536.17 1165.5 534.13 1219.88 530.78 C 1223.05 537.55 1233.03 543.006 1236.96 550.147 C 1249.39 572.704 1254.54 604.576 1248.92 629.832 C 1246.87 637.877 1239.18 650.056 1236.84 657.685 C 1051.28 673.891 864.469 668.873 680.042 642.73 C 634.312 636.173 557.532 625.255 519.657 598.664 z"/>
<path transform="translate(0,0)" fill="rgb(237,235,229)" d="M 1028.82 411.823 C 1112.04 412.928 1423.51 420.556 1477.39 466.877 C 1448.79 488.893 1366.57 495.567 1329.14 499.765 C 1311.26 501.771 1287.33 504.941 1269.5 506.364 C 1143.82 515.193 1017.75 517.044 891.861 511.911 C 820.782 509.6 749.842 504.106 679.255 495.443 C 649.326 491.528 593.22 484.399 569.089 467.329 C 590.396 448.296 643.471 441.388 672.108 436.864 C 713.058 430.321 754.226 425.23 795.536 421.599 C 847.775 417.287 898.176 415.608 950.131 412.659 C 953.088 416.911 955.184 420.062 958.734 423.914 C 943.467 423.041 926.674 424.347 911.254 424.624 C 875.344 425.268 840.288 427.879 804.488 430.704 C 775.288 432.768 746.15 435.628 717.107 439.282 C 703.213 441.069 688.418 442.671 674.844 446.117 C 668.843 447.641 662.332 449.885 657.617 454.013 C 655.57 455.805 653.326 458.485 653.413 461.35 C 653.51 464.545 655.677 467.003 658.086 468.842 C 689.002 492.433 915.982 500.185 964.818 500.887 C 1020.05 501.543 1075.29 500.87 1130.49 498.868 C 1142.83 498.474 1167.02 498.63 1178.31 497.147 C 1172.44 496.537 1159.92 496.951 1153.4 496.996 C 1160.82 495.493 1178.7 495.237 1187.37 494.914 L 1186.55 494.12 C 1179.33 492.732 1164.37 492.968 1156.96 493.214 C 1164.9 491.788 1172.54 492.521 1180.54 491.133 C 1162.77 490.953 1144.92 491.373 1127.11 491.415 C 1049.64 491.599 971.795 489.576 894.445 485.446 C 821.3 481.54 745.886 477.589 674.036 462.777 L 673.015 461.157 C 710.901 446.524 929.588 434.834 975.558 437.618 L 982.569 442.404 C 997.918 449.799 1029.13 461.617 1038.02 439.278 C 1038.3 438.57 1038.56 437.855 1038.8 437.135 C 1100.4 436.771 1161.99 438.481 1223.47 442.262 C 1260.16 444.39 1305.05 447.053 1341.16 453.165 L 1340.26 456.115 C 1334.54 457.531 1332.56 456.515 1327.6 457.963 C 1313.5 458.942 1258.78 458.693 1259.52 479.069 C 1272.36 502.377 1363.29 491.053 1381.3 479.399 C 1418.29 455.452 1370.61 445.408 1352.69 442.659 C 1246.82 426.414 1140.91 424.123 1034.19 422.414 L 1028.82 411.823 z"/>
<path transform="translate(0,0)" fill="rgb(220,207,193)" d="M 673.015 461.157 C 710.901 446.524 929.588 434.834 975.558 437.618 L 982.569 442.404 C 974.964 444.666 955.849 444.686 947.303 445.047 C 879.789 447.902 812.278 451.942 745.468 462.546 C 738.16 463.706 729.567 464.765 722.22 465.059 L 720.749 464.208 C 723.443 462.348 828.125 451.207 840.636 449.641 C 850.01 448.468 876.384 450.774 880.739 443.219 L 879.954 441.659 C 829.819 443.713 779.76 447.342 729.852 452.54 C 719.197 453.649 678.003 461.803 673.015 461.157 z"/>
<path transform="translate(0,0)" fill="rgb(41,38,37)" d="M 1180.54 491.133 C 1190.43 490.842 1243.59 488.561 1247.69 491.317 C 1243.69 494.378 1187.15 497.224 1178.31 497.147 C 1172.44 496.537 1159.92 496.951 1153.4 496.996 C 1160.82 495.493 1178.7 495.237 1187.37 494.914 L 1186.55 494.12 C 1179.33 492.732 1164.37 492.968 1156.96 493.214 C 1164.9 491.788 1172.54 492.521 1180.54 491.133 z"/>
<path transform="translate(0,0)" fill="rgb(220,207,193)" d="M 1219.88 530.78 C 1235.71 528.674 1254.21 528.51 1269.84 526.887 C 1325.98 521.058 1433.21 512.71 1481.82 489.305 C 1488.42 515.176 1512.93 575.772 1526.93 598.28 C 1486.77 629.359 1378.97 641.188 1328.25 647.928 C 1301.68 651.459 1263.87 655.868 1236.84 657.685 C 1239.18 650.056 1246.87 637.877 1248.92 629.832 C 1254.54 604.576 1249.39 572.704 1236.96 550.147 C 1233.03 543.006 1223.05 537.55 1219.88 530.78 z"/>
<path transform="translate(0,0)" fill="rgb(237,235,229)" d="M 1010.85 105.405 C 1023.99 104.322 1035.71 105.39 1048.02 110.365 C 1080.49 123.485 1093.72 162.645 1079.38 193.777 C 1075.88 201.213 1071.53 208.521 1068.41 216.101 C 1063.06 228.796 1082.61 232.717 1090.83 235.66 C 1113.63 243.823 1120.86 262.061 1112.29 284.425 C 1103.4 307.657 1086.7 326.073 1059.44 323.128 C 1053.6 323.272 1037.93 316.117 1033.2 319.544 C 998.47 344.695 991.065 391.804 1011.6 428.27 C 1003.53 424.461 997.667 421.396 989.943 416.931 C 983.647 412.713 977.912 407.713 972.876 402.05 C 956.655 383.968 948.446 362.261 954.968 337.507 C 956.802 330.548 961.717 325.255 962.162 316.533 C 960.185 310.495 953.114 307.578 947.511 306.918 C 883.874 299.609 909.26 203.73 963.2 222.521 C 994.308 238.139 988.232 237.02 1009.57 210.589 C 1044.16 167.746 978.663 182.612 977.042 140.707 C 976.063 115.411 987.898 107.924 1010.85 105.405 z"/>
<path transform="translate(0,0)" fill="rgb(220,207,193)" d="M 1341.16 453.165 C 1349.68 454.231 1356.15 455.323 1364.51 457.486 C 1351.85 458.115 1340.27 458.048 1327.6 457.963 C 1332.56 456.515 1334.54 457.531 1340.26 456.115 L 1341.16 453.165 z"/>
<path transform="translate(0,0)" fill="rgb(41,38,37)" fill-opacity="0.0117647" d="M 1072.07 86.2711 L 1074.59 87.4989 L 1073.74 89.0777 C 1074.04 92.8818 1081.29 92.8242 1086.09 100.791 C 1081.8 100.064 1072.19 93.5507 1070.49 89.4239 L 1072.07 86.2711 z"/>
<path transform="translate(0,0)" fill="rgb(41,38,37)" fill-opacity="0.0117647" d="M 448.921 572.842 L 450.246 573.837 C 449.813 577.074 448.213 577.411 445.089 580.306 L 443.513 578.946 C 444.327 575.803 445.883 575.452 448.921 572.842 z"/>
</svg>