<?xml version="1.0" encoding="UTF-8"?>
<!-- Generator: visioncortex VTracer 0.6.12 -->
<svg viewBox="0 0 512 512" version="1.1" xmlns="http://www.w3.org/2000/svg" width="256" height="256">
<path d="M0 0 C1.016 -0.016 2.032 -0.032 3.078 -0.049 C13.959 -0.056 22.75 2.184 30.688 9.938 C34.591 14.873 36 21.137 36 27.312 C36.536 27.376 37.072 27.439 37.625 27.504 C54.408 30.126 68.678 38.921 79 52.312 C80.996 55.534 81.357 58.304 81.625 62.062 C81.662 62.555 81.662 62.555 81.852 65.047 C81.901 65.795 81.95 66.542 82 67.312 C83.016 67.653 84.032 67.993 85.078 68.344 C99.324 73.288 111.93 80.72 121.781 92.43 C124.846 95.03 128.186 95.737 132 96.688 C144.046 99.979 156.782 104.733 163.5 116 C167.068 124.267 165.334 133.184 162.352 141.348 C160.461 145.495 158.086 149.2 155.488 152.938 C154.04 155.249 153.361 156.639 153 159.312 C153.738 161.301 153.738 161.301 154.957 163.41 C155.405 164.202 155.853 164.993 156.315 165.809 C156.809 166.656 157.303 167.503 157.812 168.375 C158.837 170.185 159.861 171.997 160.883 173.809 C161.144 174.268 161.144 174.268 162.466 176.593 C181.138 209.689 195.218 244.65 195.25 283.125 C195.251 283.861 195.251 284.597 195.252 285.355 C195.197 322.84 182.237 355.208 156.312 382.438 C127.744 409.881 89.467 422.708 51 428.312 C50.632 428.368 50.632 428.368 48.768 428.651 C4.822 435.252 -43.814 433.345 -87 423.312 C-87.014 424.398 -87.028 425.483 -87.043 426.602 C-87.09 428.047 -87.138 429.492 -87.188 430.938 C-87.19 431.294 -87.19 431.294 -87.205 433.098 C-87.433 438.622 -88.883 441.38 -93 445.312 C-104.265 452.72 -117.475 455.406 -130.777 455.551 C-131.506 455.559 -132.235 455.567 -132.986 455.575 C-134.525 455.589 -136.064 455.6 -137.603 455.608 C-139.143 455.619 -140.684 455.639 -142.224 455.669 C-156.599 455.946 -171.703 454.594 -184 446.312 C-188.9 441.174 -189.135 437.571 -189.062 430.688 C-189.058 429.886 -189.053 429.084 -189.049 428.258 C-189.037 426.276 -189.019 424.294 -189 422.312 C-190.232 422.662 -191.465 423.011 -192.734 423.371 C-201.829 425.895 -210.508 428.127 -220 428.312 C-221.008 428.351 -222.016 428.39 -223.055 428.43 C-239.462 428.791 -259.426 427.373 -271.84 415.625 C-274.643 411.326 -274.716 408.326 -274.562 403.312 C-274.573 402.531 -274.584 401.75 -274.596 400.945 C-274.529 395.625 -273.512 392.513 -270 388.312 C-257.741 376.885 -236.044 375.896 -220.375 375.938 C-219.67 375.937 -218.964 375.937 -218.237 375.937 C-207.386 375.964 -197.312 376.638 -187 380.312 C-186.151 380.613 -185.301 380.913 -184.426 381.223 C-179.446 383.349 -175.154 386.291 -173 391.312 C-172.008 397.256 -172.013 403.302 -172 409.312 C-171.515 409.174 -171.515 409.174 -169.062 408.473 C-160.414 406.102 -152.293 404.801 -143.328 404.488 C-140.683 404.349 -138.51 404.092 -136 403.312 C-136.739 402.912 -137.477 402.511 -138.238 402.098 C-145.841 397.837 -152.398 392.979 -159 387.312 C-160.082 386.457 -161.165 385.602 -162.25 384.75 C-165.208 382.128 -167.735 379.339 -170.289 376.328 C-171.323 375.11 -172.376 373.907 -173.461 372.734 C-198.508 345.334 -205.433 307.721 -203.896 271.888 C-202.314 244.62 -192.986 217.522 -180.187 193.55 C-178.771 190.88 -177.389 188.192 -176.008 185.504 C-174.943 183.44 -173.878 181.376 -172.812 179.312 C-172.563 178.828 -172.563 178.828 -171.3 176.379 C-169.065 172.091 -166.815 167.985 -164.074 164 C-162.341 161.277 -162.001 160.49 -161.98 157.129 C-163.08 154.092 -164.424 151.867 -166.312 149.25 C-171.671 141.146 -175.59 131.182 -174 121.312 C-171.319 112.986 -166.705 108.14 -159.289 103.895 C-151.104 99.958 -142.338 96.86 -133.617 94.332 C-130.702 93.196 -129.712 92.234 -127.875 89.75 C-122.02 82.677 -114.759 77.405 -106.366 73.752 C-98.622 70.37 -98.622 70.37 -96.473 66.715 C-95.869 64.831 -95.315 62.93 -94.812 61.016 C-91.963 51.534 -82.081 46.813 -74 42.312 C-73.229 41.983 -72.458 41.653 -71.664 41.312 C-70 40.312 -70 40.312 -69.062 36.688 C-68.913 35.975 -68.763 35.262 -68.609 34.527 C-65.836 24.446 -57.318 17.754 -48.688 12.75 C-33.627 4.353 -17.214 -0.055 0 0 Z " fill="#80B4A9" transform="translate(295,27.6875)"/>
<path d="M0 0 C1.016 -0.016 2.032 -0.032 3.078 -0.049 C13.959 -0.056 22.75 2.184 30.688 9.938 C34.591 14.873 36 21.137 36 27.312 C36.536 27.376 37.072 27.439 37.625 27.504 C54.408 30.126 68.678 38.921 79 52.312 C80.996 55.534 81.357 58.304 81.625 62.062 C81.662 62.555 81.662 62.555 81.852 65.047 C81.901 65.795 81.95 66.542 82 67.312 C83.016 67.653 84.032 67.993 85.078 68.344 C99.324 73.288 111.93 80.72 121.781 92.43 C124.846 95.03 128.186 95.737 132 96.688 C144.046 99.979 156.782 104.733 163.5 116 C167.068 124.267 165.334 133.184 162.352 141.348 C160.461 145.495 158.086 149.2 155.488 152.938 C154.04 155.249 153.361 156.639 153 159.312 C153.738 161.301 153.738 161.301 154.957 163.41 C155.405 164.202 155.853 164.993 156.315 165.809 C156.809 166.656 157.303 167.503 157.812 168.375 C158.837 170.185 159.861 171.997 160.883 173.809 C161.144 174.268 161.144 174.268 162.466 176.593 C181.138 209.689 195.218 244.65 195.25 283.125 C195.251 283.861 195.251 284.597 195.252 285.355 C195.197 322.84 182.237 355.208 156.312 382.438 C127.744 409.881 89.467 422.708 51 428.312 C50.632 428.368 50.632 428.368 48.768 428.651 C4.822 435.252 -43.814 433.345 -87 423.312 C-87.014 424.398 -87.028 425.483 -87.043 426.602 C-87.09 428.047 -87.138 429.492 -87.188 430.938 C-87.19 431.294 -87.19 431.294 -87.205 433.098 C-87.433 438.622 -88.883 441.38 -93 445.312 C-104.265 452.72 -117.475 455.406 -130.777 455.551 C-131.506 455.559 -132.235 455.567 -132.986 455.575 C-134.525 455.589 -136.064 455.6 -137.603 455.608 C-139.143 455.619 -140.684 455.639 -142.224 455.669 C-156.599 455.946 -171.703 454.594 -184 446.312 C-188.9 441.174 -189.135 437.571 -189.062 430.688 C-189.058 429.886 -189.053 429.084 -189.049 428.258 C-189.037 426.276 -189.019 424.294 -189 422.312 C-190.232 422.662 -191.465 423.011 -192.734 423.371 C-201.829 425.895 -210.508 428.127 -220 428.312 C-221.008 428.351 -222.016 428.39 -223.055 428.43 C-239.462 428.791 -259.426 427.373 -271.84 415.625 C-274.643 411.326 -274.716 408.326 -274.562 403.312 C-274.573 402.531 -274.584 401.75 -274.596 400.945 C-274.529 395.625 -273.512 392.513 -270 388.312 C-257.741 376.885 -236.044 375.896 -220.375 375.938 C-219.67 375.937 -218.964 375.937 -218.237 375.937 C-207.386 375.964 -197.312 376.638 -187 380.312 C-186.151 380.613 -185.301 380.913 -184.426 381.223 C-179.446 383.349 -175.154 386.291 -173 391.312 C-172.008 397.256 -172.013 403.302 -172 409.312 C-171.515 409.174 -171.515 409.174 -169.062 408.473 C-160.414 406.102 -152.293 404.801 -143.328 404.488 C-140.683 404.349 -138.51 404.092 -136 403.312 C-136.739 402.912 -137.477 402.511 -138.238 402.098 C-145.841 397.837 -152.398 392.979 -159 387.312 C-160.082 386.457 -161.165 385.602 -162.25 384.75 C-165.208 382.128 -167.735 379.339 -170.289 376.328 C-171.323 375.11 -172.376 373.907 -173.461 372.734 C-198.508 345.334 -205.433 307.721 -203.896 271.888 C-202.314 244.62 -192.986 217.522 -180.187 193.55 C-178.771 190.88 -177.389 188.192 -176.008 185.504 C-174.943 183.44 -173.878 181.376 -172.812 179.312 C-172.563 178.828 -172.563 178.828 -171.3 176.379 C-169.065 172.091 -166.815 167.985 -164.074 164 C-162.341 161.277 -162.001 160.49 -161.98 157.129 C-163.08 154.092 -164.424 151.867 -166.312 149.25 C-171.671 141.146 -175.59 131.182 -174 121.312 C-171.319 112.986 -166.705 108.14 -159.289 103.895 C-151.104 99.958 -142.338 96.86 -133.617 94.332 C-130.702 93.196 -129.712 92.234 -127.875 89.75 C-122.02 82.677 -114.759 77.405 -106.366 73.752 C-98.622 70.37 -98.622 70.37 -96.473 66.715 C-95.869 64.831 -95.315 62.93 -94.812 61.016 C-91.963 51.534 -82.081 46.813 -74 42.312 C-73.229 41.983 -72.458 41.653 -71.664 41.312 C-70 40.312 -70 40.312 -69.062 36.688 C-68.913 35.975 -68.763 35.262 -68.609 34.527 C-65.836 24.446 -57.318 17.754 -48.688 12.75 C-33.627 4.353 -17.214 -0.055 0 0 Z M-153 161.312 C-159.369 172.237 -165.582 183.228 -171.438 194.438 C-171.921 195.359 -172.404 196.281 -172.901 197.231 C-177.697 206.482 -182.063 215.844 -185.5 225.688 C-185.794 226.527 -186.088 227.367 -186.391 228.233 C-191.197 242.373 -195.102 257.252 -195.238 272.234 C-195.246 273.093 -195.254 273.952 -195.263 274.837 C-195.277 276.656 -195.287 278.475 -195.295 280.293 C-195.307 282.118 -195.327 283.943 -195.357 285.767 C-195.565 298.539 -194.297 309.972 -191 322.312 C-190.766 323.276 -190.533 324.24 -190.292 325.232 C-185.665 344.064 -171.575 365.614 -157 378.312 C-156.34 378.312 -155.68 378.312 -155 378.312 C-154.67 379.303 -154.34 380.293 -154 381.312 C-151.849 383.132 -149.718 384.796 -147.438 386.438 C-146.769 386.922 -146.101 387.406 -145.413 387.905 C-138.267 392.982 -130.772 397.277 -123 401.312 C-122.484 401.584 -122.484 401.584 -119.875 402.957 C-84.821 420.256 -45.281 422.809 -6.93 422.87 C-4.663 422.875 -2.397 422.887 -0.13 422.901 C54.267 423.171 108.394 413.664 150 376.312 C150.652 375.744 151.305 375.176 151.977 374.59 C174.723 353.515 184.943 321.963 186.887 291.852 C187.17 283.004 186.889 274.473 185.75 265.688 C185.614 264.639 185.479 263.591 185.339 262.511 C180.445 226.419 164.118 191.49 144 161.312 C142.824 161.704 141.649 162.096 140.438 162.5 C139.603 162.775 138.769 163.049 137.91 163.332 C135.889 164.013 133.876 164.721 131.871 165.449 C68.18 188.008 -10.648 185.586 -77 178.312 C-77.665 178.24 -78.331 178.167 -79.016 178.092 C-101.615 175.582 -124.553 171.718 -145.84 163.512 C-148.253 162.596 -150.502 161.901 -153 161.312 Z " fill="#4B4A4C" transform="translate(295,27.6875)"/>
<path d="M0 0 C-0.681 0.639 -1.361 1.279 -2.062 1.938 C-4.407 5.643 -4.504 7.551 -3.793 11.789 C-1.879 17.124 3.06 19.703 7.938 22.062 C9.613 22.739 11.303 23.381 13 24 C13.548 24.2 13.548 24.2 16.324 25.215 C27.039 28.919 38.001 30.796 49.177 32.547 C51.048 32.847 52.915 33.165 54.78 33.5 C109.916 43.335 217.303 52.131 267 19 C270.795 15.817 272.76 13.367 273.625 8.438 C272.902 4.462 271.469 2.163 269 -1 C279.076 1.184 288.241 4.933 295 13 C297.654 20.961 295.614 27.703 292 35 C291.657 35.776 291.314 36.552 290.961 37.352 C285.565 47.481 273.131 51.175 262.8 54.436 C195.527 74.273 117.925 71.609 49 63 C48.093 62.891 47.186 62.782 46.251 62.669 C-6.309 56.212 -6.309 56.212 -18.758 41.992 C-23.845 34.114 -28.774 25.693 -27 16 C-22.958 7.038 -13.057 3.357 -4.504 -0.215 C-2 -1 -2 -1 0 0 Z " fill="#83B5AA" transform="translate(156,134)"/>
<path d="M0 0 C2 2 2 2 2 5 C1.072 5.433 0.144 5.866 -0.812 6.312 C-3.472 7.72 -5.081 8.761 -7 11 C-6.299 10.711 -5.597 10.422 -4.875 10.125 C-1.945 8.979 1.009 7.974 4 7 C4.412 7.398 4.825 7.797 5.25 8.207 C5.827 8.737 6.405 9.267 7 9.812 C7.557 10.335 8.114 10.857 8.688 11.395 C15.972 16.452 23.411 16.515 32 16.688 C33.156 16.722 34.313 16.756 35.504 16.791 C38.336 16.873 41.167 16.942 44 17 C39.886 22.106 36.257 26.337 29.469 27.395 C27.759 27.543 26.046 27.656 24.332 27.727 C21.812 28.022 20.222 28.822 18 30 C18.639 29.971 18.639 29.971 21.875 29.824 C23.583 29.777 25.292 29.732 27 29.688 C27.839 29.646 28.678 29.604 29.543 29.561 C35.959 29.436 40.025 30.932 45 35 C51.375 41.878 51.365 47.493 51.375 56.562 C51.399 57.692 51.424 58.822 51.449 59.986 C51.488 71.089 48.501 80.164 41.949 89.16 C39.683 91.3 38.638 91.62 35.562 91.625 C34.387 91.419 33.211 91.213 32 91 C33.459 87.829 35.276 85.22 37.375 82.438 C44.075 72.856 46.35 63.686 45 52 C43.712 46.906 42.051 43.876 38 40.5 C32.072 37.536 26.54 36.969 20.129 38.836 C7.186 43.749 -0.658 52.416 -6.32 64.914 C-9.119 72.331 -9.457 79.132 -9 87 C-11.31 87 -13.62 87 -16 87 C-16.103 79.573 -15.999 72.365 -15 65 C-15.66 65 -16.32 65 -17 65 C-17.246 65.568 -17.492 66.137 -17.746 66.723 C-21.219 73.031 -27.946 79.12 -34.355 82.387 C-43.317 84.465 -53.927 79.742 -62 76 C-61.595 65.065 -55.406 57.669 -47.711 50.332 C-40.709 44.308 -34.183 40.355 -25 39 C-25 38.34 -25 37.68 -25 37 C-37.713 38.724 -47.746 46.519 -56 56 C-56.257 56.287 -56.257 56.287 -57.555 57.738 C-61.438 62.552 -62.676 68.046 -64 74 C-66.169 73.494 -68 73 -70 72 C-69.522 61.007 -61.598 52.319 -54 45 C-43.666 36.135 -33.171 31.133 -20 28 C-21.65 27.67 -23.3 27.34 -25 27 C-25.631 21.951 -24.371 19.068 -21.598 15.012 C-15.766 7.669 -8.429 3.835 0 0 Z " fill="#534D4B" transform="translate(230,74)"/>
<path d="M0 0 C3.733 3.08 3.733 3.08 4.5 6.062 C4.5 12.589 1.792 16.459 -2.5 21.062 C-11.932 29.991 -25.155 34.859 -37.5 38.062 C-38.293 38.288 -39.086 38.514 -39.902 38.746 C-51.711 41.673 -66.459 41.849 -77.359 36.078 C-80.163 34.342 -81.652 32.834 -83.5 30.062 C-83.947 26.111 -83.819 23.715 -82.062 20.125 C-71.55 7.562 -57.209 0.954 -41.5 -2.938 C-40.625 -3.162 -39.749 -3.386 -38.848 -3.617 C-26.242 -6.385 -11.344 -6.85 0 0 Z " fill="#EFC05F" transform="translate(317.5,39.9375)"/>
<path d="M0 0 C2.31 0.66 4.62 1.32 7 2 C5.696 6.135 4.15 9.994 2.277 13.902 C1.743 15.029 1.209 16.155 0.658 17.315 C0.378 17.905 0.097 18.496 -0.193 19.104 C-6.398 32.184 -12.022 45.398 -17 59 C-17.29 59.78 -17.579 60.559 -17.877 61.362 C-25.098 80.988 -28.856 101.146 -30 122 C-30.061 123.102 -30.121 124.204 -30.184 125.34 C-30.929 156.617 -21.622 190.346 -2 215 C-2 215.66 -2 216.32 -2 217 C-15.814 211.291 -27.077 188.803 -33 176 C-39.567 159.509 -42.695 142.931 -42.521 125.224 C-42.5 122.633 -42.521 120.044 -42.547 117.453 C-42.575 101.485 -39.941 86.062 -34.562 71 C-34.257 70.118 -33.951 69.236 -33.636 68.328 C-31.335 61.768 -28.9 55.32 -26 49 C-25.645 48.22 -25.29 47.441 -24.924 46.637 C-17.606 30.665 -9.763 14.644 0 0 Z " fill="#BCD8CF" transform="translate(142,189)"/>
<path d="M0 0 C12.14 5.534 18.97 14.345 24.52 26.148 C26.118 30.809 26.793 34.854 26.77 39.773 C26.772 40.316 26.772 40.316 26.785 43.062 C26.52 46.146 25.825 48.361 24.52 51.148 C0.443 54.496 0.443 54.496 -7.414 50.75 C-9.578 48.683 -10.985 46.738 -12.48 44.148 C-13.035 43.269 -13.589 42.39 -14.16 41.484 C-15.764 38.76 -17.154 36.017 -18.48 33.148 C-18.822 32.419 -19.164 31.689 -19.516 30.938 C-22.457 23.577 -23.169 14.275 -20.152 6.902 C-15.46 -0.826 -8.457 -2.903 0 0 Z " fill="#EFC15F" transform="translate(321.48046875,111.8515625)"/>
<path d="M0 0 C4.362 2.685 6.573 5.133 8.25 10 C9.917 22.165 6.709 31.968 -0.09 41.93 C-0.364 42.271 -0.364 42.271 -1.75 44 C-2.467 44.901 -3.183 45.802 -3.922 46.73 C-7.609 49.69 -10.543 49.642 -15.062 49.438 C-15.453 49.429 -15.453 49.429 -17.431 49.385 C-25.267 49.139 -33.007 48.181 -40.75 47 C-43.548 38.607 -41.877 30.645 -38.23 22.82 C-30.527 8.146 -17.674 -4.713 0 0 Z " fill="#EFC160" transform="translate(264.75,115)"/>
<path d="M0 0 C1.375 2.062 1.375 2.062 1.625 4.438 C-1.248 10.471 -7.262 13.154 -13.312 15.312 C-32.982 21.148 -61.302 23.453 -80 13.5 C-82.198 12.138 -83.786 10.901 -85.625 9.062 C-85.688 6.25 -85.688 6.25 -84.625 3.062 C-66.616 -14.517 -19.459 -14.363 0 0 Z " fill="#E9BC63" transform="translate(113.625,419.9375)"/>
<path d="M0 0 C1.264 -0.016 2.528 -0.032 3.83 -0.049 C16.604 -0.055 30.252 1.455 40.812 9.25 C42.188 11.312 42.188 11.312 42.25 13.812 C40.133 18.794 35.354 20.935 30.562 22.938 C29.621 23.342 28.68 23.747 27.711 24.164 C18.181 27.27 8.837 27.625 -1.125 27.562 C-1.733 27.566 -1.733 27.566 -4.811 27.586 C-33.043 27.526 -33.043 27.526 -43 18.875 C-44.812 16.312 -44.812 16.312 -44.938 13.75 C-42.578 8.639 -37.725 6.606 -32.688 4.688 C-31.654 4.283 -30.62 3.878 -29.555 3.461 C-19.736 0.448 -10.229 -0.026 0 0 Z " fill="#E6BB63" transform="translate(157.8125,439.6875)"/>
<path d="M0 0 C11.787 4.416 23.177 13.872 29.043 25.113 C30.473 29.216 30.277 33.221 29.875 37.5 C27.98 38.15 26.084 38.795 24.188 39.438 C23.66 39.617 23.66 39.617 20.988 40.527 C13.365 42.909 7.521 43.526 0.125 40.062 C-11.432 33.907 -21.948 25.262 -26.125 12.5 C-26.602 9.102 -26.89 6.762 -25.07 3.762 C-18.786 -4.029 -8.944 -2.657 0 0 Z " fill="#EFC05F" transform="translate(381.125,113.5)"/>
<path d="M0 0 C2.844 2.477 3.877 4.116 4.273 7.887 C3.875 12.395 2.616 15.519 0.562 19.5 C0.206 20.198 -0.151 20.896 -0.518 21.615 C-4.002 28.101 -8.325 33.051 -14.062 37.688 C-14.759 38.288 -15.455 38.889 -16.172 39.508 C-19.787 42.104 -22.127 42.749 -26.609 42.453 C-34.098 41.1 -41.161 38.887 -48.062 35.688 C-47.657 24.748 -41.465 17.375 -33.785 10.02 C-24.532 2.094 -12.349 -5.293 0 0 Z " fill="#EFC160" transform="translate(216.0625,114.3125)"/>
<path d="M0 0 C11.24 3.052 24.041 7.237 31.621 16.586 C33.173 20.293 32.861 22.44 31.746 26.273 C27.456 30.942 21.836 32.274 15.652 32.609 C-0.083 32.937 -13.514 29.923 -26.254 20.273 C-26.914 19.283 -27.574 18.293 -28.254 17.273 C-27.745 17.007 -27.237 16.741 -26.713 16.467 C-24.365 15.228 -22.028 13.97 -19.691 12.711 C-18.892 12.293 -18.092 11.874 -17.268 11.443 C-13.049 9.153 -9.797 6.978 -6.574 3.395 C-3.658 0.307 -3.658 0.307 0 0 Z " fill="#EBBB5B" transform="translate(325.25390625,67.7265625)"/>
<path d="M0 0 C3.733 3.08 3.733 3.08 4.5 6.062 C4.5 12.589 1.792 16.459 -2.5 21.062 C-11.932 29.991 -25.155 34.859 -37.5 38.062 C-38.293 38.288 -39.086 38.514 -39.902 38.746 C-51.711 41.673 -66.459 41.849 -77.359 36.078 C-80.163 34.342 -81.652 32.834 -83.5 30.062 C-83.947 26.111 -83.819 23.715 -82.062 20.125 C-71.55 7.562 -57.209 0.954 -41.5 -2.938 C-40.625 -3.162 -39.749 -3.386 -38.848 -3.617 C-26.242 -6.385 -11.344 -6.85 0 0 Z M-72.062 16.5 C-74.695 19.908 -75.744 22.67 -75.5 27.062 C-72.303 31.558 -68.75 33.048 -63.5 34.062 C-44.625 36.042 -26.2 32.298 -11 20.5 C-7.364 16.955 -5.749 14.614 -4.938 9.562 C-5.555 5.721 -6.548 4.473 -9.602 2.105 C-27.189 -7.557 -59.047 2.645 -72.062 16.5 Z " fill="#EABB5D" transform="translate(317.5,39.9375)"/>
<path d="M0 0 C4.938 2.909 8.872 6.589 12.852 10.68 C13.488 11.296 14.125 11.912 14.781 12.547 C25.894 24.055 29.194 37.959 29.02 53.363 C28.852 56.68 28.852 56.68 27.852 57.68 C25.519 57.721 23.185 57.722 20.852 57.68 C21.011 56.962 21.171 56.244 21.336 55.504 C23.709 42.507 19.787 31.589 12.852 20.68 C7.816 13.533 1.191 8.459 -7.148 5.68 C-12.948 5.207 -18.296 4.9 -23.711 7.18 C-29.032 12.638 -30.419 17.205 -30.711 24.867 C-30.349 36.988 -25.51 46.295 -18.148 55.68 C-17.344 56.711 -16.54 57.742 -15.711 58.805 C-15.195 59.423 -14.68 60.042 -14.148 60.68 C-17.274 61.18 -20.033 61.309 -23.148 60.68 C-25.969 58.511 -27.466 55.778 -29.148 52.68 C-29.674 51.712 -30.2 50.744 -30.742 49.746 C-37.03 37.154 -40.416 23.668 -36.309 9.855 C-33.876 4.065 -30.587 0.585 -25.016 -2.316 C-16.418 -5.327 -8.084 -3.776 0 0 Z " fill="#EDBE5F" transform="translate(328.1484375,104.3203125)"/>
<path d="M0 0 C4.199 3.176 7.342 6.941 9.375 11.812 C9.83 15.988 9.745 20.177 9.75 24.375 C9.774 25.505 9.799 26.635 9.824 27.799 C9.863 38.902 6.876 47.977 0.324 56.973 C-1.942 59.112 -2.987 59.432 -6.062 59.438 C-7.238 59.231 -8.414 59.025 -9.625 58.812 C-8.166 55.641 -6.349 53.032 -4.25 50.25 C2.45 40.669 4.725 31.498 3.375 19.812 C2.087 14.719 0.426 11.688 -3.625 8.312 C-9.553 5.348 -15.085 4.782 -21.496 6.648 C-34.439 11.562 -42.283 20.228 -47.945 32.727 C-50.744 40.143 -51.082 46.944 -50.625 54.812 C-52.935 54.812 -55.245 54.812 -57.625 54.812 C-58.552 39.071 -54.047 25.203 -43.875 13.062 C-33.67 2.153 -14.822 -8.904 0 0 Z " fill="#ECBF5F" transform="translate(271.625,106.1875)"/>
<path d="M0 0 C2.303 1.867 3.678 3.356 5 6 C5.788 15.925 2.949 24.486 -3.367 32.215 C-7.942 37.217 -11.999 41.093 -19 42 C-21.443 40.885 -23.114 39.886 -25 38 C-26.149 27.414 -24.284 18.686 -17.84 10.133 C-8.008 -1.193 -8.008 -1.193 0 0 Z " fill="#CFE5DC" transform="translate(157,238)"/>
<path d="M0 0 C1.871 1.238 1.871 1.238 4.121 3.176 C11.446 8.67 19.031 8.749 27.871 8.926 C29.027 8.96 30.184 8.994 31.375 9.029 C34.207 9.111 37.039 9.181 39.871 9.238 C35.906 14.159 32.257 18.675 25.621 19.527 C23.948 19.629 22.275 19.728 20.602 19.824 C17.39 20.311 14.934 21.426 11.996 22.801 C5.912 25.501 0.473 26.357 -6.129 25.238 C-9.004 23.363 -9.004 23.363 -11.129 21.238 C-14.441 19.988 -14.441 19.988 -17.129 19.238 C-17.972 16.539 -18.405 14.996 -18.129 12.238 C-15.17 7.028 -6.583 -2.356 0 0 Z " fill="#E9B85A" transform="translate(234.12890625,81.76171875)"/>
<path d="M0 0 C0.547 0.46 1.093 0.92 1.656 1.395 C1.535 3.227 1.535 3.227 0.656 5.395 C-2.004 6.844 -2.004 6.844 -5.406 8.082 C-6.511 8.498 -7.616 8.915 -8.754 9.344 C-16.94 11.74 -25.187 11.607 -33.656 11.645 C-34.816 11.665 -35.975 11.686 -37.17 11.707 C-45.683 11.745 -54.089 11.231 -61.344 6.395 C-59.7 2.573 -57.877 1.084 -54.039 -0.656 C-39.445 -5.796 -13.594 -9.312 0 0 Z " fill="#EABD64" transform="translate(101.34375,420.60546875)"/>
<path d="M0 0 C2.182 0.009 4.36 -0.02 6.542 -0.052 C14.568 -0.094 22.713 0.089 29.751 4.446 C31.038 6.585 31.038 6.585 31.751 8.446 C22.602 16.555 9.806 15.946 -1.812 15.884 C-3.131 15.904 -4.45 15.924 -5.81 15.944 C-13.96 15.94 -21.96 15.448 -29.249 11.446 C-30.572 9.307 -30.572 9.307 -31.249 7.446 C-21.238 1.135 -11.64 -0.069 0 0 Z " fill="#EDC063" transform="translate(156.249267578125,444.553955078125)"/>
<path d="M0 0 C10.774 7.54 20.835 17.198 25 30 C24.648 32.855 24.648 32.855 24 35 C22.02 35.66 20.04 36.32 18 37 C17.963 36.697 17.963 36.697 17.773 35.164 C16.011 23.934 9.973 14.926 1 8 C-10.094 1.138 -20.876 -4.564 -34.305 -1.469 C-37.878 -0.058 -40.317 1.541 -42 5 C-42.52 7.681 -42.772 10.27 -43 13 C-43.66 13 -44.32 13 -45 13 C-48.175 9.394 -49.943 6.125 -50.188 1.312 C-48.402 -3.669 -45.552 -5.787 -40.953 -7.973 C-26.692 -13.409 -12.261 -7.894 0 0 Z " fill="#E9BC5F" transform="translate(396,112)"/>
<path d="M0 0 C2.329 1.799 3.532 3.458 4.562 6.207 C4.562 9.545 3.321 10.466 1 12.957 C0.196 13.7 -0.609 14.442 -1.438 15.207 C-1.752 14.653 -2.067 14.098 -2.391 13.527 C-2.819 12.803 -3.247 12.078 -3.688 11.332 C-4.105 10.613 -4.523 9.893 -4.953 9.152 C-7.195 6.215 -9.226 5.376 -12.848 4.871 C-26.642 4.668 -37.017 10.802 -46.75 20.207 C-47.998 21.523 -49.229 22.855 -50.438 24.207 C-50.685 24.484 -50.685 24.484 -51.938 25.883 C-55.835 30.742 -57.103 36.205 -58.438 42.207 C-60.606 41.701 -62.437 41.207 -64.438 40.207 C-63.96 29.214 -56.036 20.526 -48.438 13.207 C-41.365 7.14 -34.15 2.519 -25.438 -0.793 C-24.303 -1.226 -23.169 -1.659 -22 -2.105 C-14.384 -3.575 -6.867 -4.049 0 0 Z " fill="#F2DBA9" transform="translate(224.4375,105.79296875)"/>
<path d="M0 0 C0.66 0 1.32 0 2 0 C2.511 5.366 1.389 7.849 -2 12 C-14.406 24.883 -33.991 32.879 -51.859 33.238 C-54.156 33.269 -56.453 33.293 -58.75 33.312 C-59.321 33.327 -59.321 33.327 -62.211 33.4 C-70.969 33.466 -76.836 31.804 -84.062 26.938 C-84.702 26.298 -85.341 25.659 -86 25 C-86 24.01 -86 23.02 -86 22 C-85.649 22.144 -85.649 22.144 -83.875 22.875 C-66.8 29.556 -44.901 27.934 -28 21 C-27.36 20.738 -26.721 20.475 -26.062 20.205 C-15.607 15.746 -5.94 9.9 0 0 Z " fill="#E0AB51" transform="translate(322,55)"/>
<path d="M0 0 C0.375 2.188 0.375 2.188 0 5 C-8.703 14.671 -23.621 16.958 -36 18 C-52.672 18.813 -70.382 19.215 -85 10 C-86 9 -86 9 -86.062 6.438 C-86.042 5.633 -86.021 4.829 -86 4 C-85.564 4.169 -85.564 4.169 -83.359 5.023 C-60.951 13.414 -31.307 15.172 -8.953 5.051 C-6.566 3.766 -2.528 0 0 0 Z " fill="#EABC63" transform="translate(115,430)"/>
<path d="M0 0 C-0.062 2.188 -0.062 2.188 -1 5 C-6.079 9.25 -10.69 11.166 -17.062 12.75 C-17.451 12.854 -17.451 12.854 -19.416 13.379 C-38.893 18.491 -62.333 18.559 -80.875 9.938 C-85.186 7.265 -85.186 7.265 -87 5 C-87 3.68 -87 2.36 -87 1 C-84.298 2.064 -81.673 3.16 -79.062 4.438 C-68.585 8.888 -57.169 9.554 -45.938 9.5 C-45.27 9.499 -44.603 9.498 -43.915 9.498 C-28.765 9.435 -13.218 0 0 0 Z " fill="#E8BC63" transform="translate(200,460)"/>
<path d="M0 0 C2.219 3.329 2.099 5.32 1.5 9.25 C-2.655 18.438 -12.628 22.708 -21.496 26.148 C-22.487 26.512 -23.479 26.875 -24.5 27.25 C-25.316 27.572 -26.132 27.895 -26.973 28.227 C-33.341 30.386 -39.59 30.527 -46.25 30.562 C-46.7 30.565 -46.7 30.565 -48.976 30.579 C-55.585 30.508 -61.014 30.062 -66.5 26.062 C-68.5 23.25 -68.5 23.25 -68.75 19.938 C-65.815 11.278 -59.399 7.083 -51.557 2.984 C-44.797 -0.326 -37.846 -2.183 -30.5 -3.75 C-29.684 -3.942 -28.868 -4.134 -28.027 -4.332 C-18.252 -5.949 -8.289 -5.802 0 0 Z M-64.5 16.25 C-65.688 19.5 -65.688 19.5 -65.5 22.25 C-63.56 25.267 -60.839 26.193 -57.5 27.25 C-42.336 28.789 -28.012 26.918 -14.438 19.938 C-13.722 19.571 -13.007 19.204 -12.271 18.826 C-7.591 16.261 -4.581 13.627 -1.5 9.25 C-0.875 6.125 -0.875 6.125 -1.5 3.25 C-4.855 -0.401 -7.633 -1.396 -12.5 -1.75 C-13.263 -1.825 -14.026 -1.9 -14.812 -1.977 C-31.857 -2.897 -53.134 2.864 -64.5 16.25 Z " fill="#544F4B" transform="translate(310.5,43.75)"/>
<path d="M0 0 C15.433 1.678 29.456 8.479 40 20 C42.116 23.051 43.42 25.258 43.375 29 C43.379 29.32 43.379 29.32 43.398 30.938 C42.831 33.874 41.862 35.656 40 38 C37.293 38.785 37.293 38.785 34.188 39.062 C27.768 39.878 24.584 41.416 20 46 C15.463 46.78 11.34 46.624 7.438 44.062 C6.633 43.382 5.829 42.701 5 42 C5 41.67 5 41.34 5 41 C5.883 40.974 6.766 40.948 7.676 40.922 C26.146 40.049 26.146 40.049 31.773 34.137 C33.866 30.491 33.598 27.075 33 23 C30.236 16.419 24.19 13.027 18 10 C11.779 7.651 5.395 5.809 -1 4 C-0.67 2.68 -0.34 1.36 0 0 Z " fill="#E9BC5F" transform="translate(326,62)"/>
<path d="M0 0 C1.812 1.688 1.812 1.688 3 3 C2.764 6.181 1.8 7.21 -0.438 9.562 C-9.672 16.777 -23.111 16.201 -34.188 16.25 C-35.343 16.271 -36.499 16.291 -37.689 16.312 C-47.153 16.355 -57.08 15.714 -65 10 C-65.812 6.812 -65.812 6.812 -66 4 C-49.864 -8.591 -17.549 -11.441 0 0 Z M-47.375 -1.25 C-48.153 -1.093 -48.931 -0.936 -49.732 -0.775 C-54.514 0.318 -58.121 1.854 -62 5 C-62.33 5.99 -62.66 6.98 -63 8 C-53.975 12.964 -45.845 13.317 -35.75 13.25 C-35.174 13.254 -35.174 13.254 -32.262 13.273 C-22.794 13.252 -12.708 13.102 -4.25 8.375 C-3.43 7.929 -2.61 7.483 -1.766 7.023 C-1.183 6.686 -0.6 6.348 0 6 C-0.348 4.102 -0.348 4.102 -1 2 C-13.562 -6.375 -33.371 -4.122 -47.375 -1.25 Z " fill="#57514B" transform="translate(103,419)"/>
<path d="M0 0 C1.272 -0.02 2.543 -0.04 3.854 -0.061 C13.834 -0.055 24.519 1.019 31.938 8.438 C31.663 11.735 31.21 13.157 28.875 15.562 C19.008 21.861 8.553 21.619 -2.812 21.625 C-4.024 21.637 -5.236 21.649 -6.484 21.662 C-17.003 21.679 -27.168 21.331 -36 15.062 C-37.062 13.438 -37.062 13.438 -37.25 11.062 C-35.321 6.798 -32.214 5.347 -28.062 3.438 C-18.759 0.514 -9.694 -0.054 0 0 Z M-34.062 10.438 C-33.059 13.197 -32.396 14.255 -29.781 15.686 C-21.351 18.521 -13.607 19.06 -4.75 18.938 C-4.069 18.933 -3.388 18.928 -2.687 18.924 C21.052 18.738 21.052 18.738 27.797 12.801 C28.173 12.351 28.55 11.901 28.938 11.438 C27.955 8.872 27.283 7.65 24.914 6.189 C17.168 3.268 9.836 2.82 1.668 2.916 C-0.494 2.937 -2.653 2.916 -4.814 2.891 C-15.6 2.868 -24.813 4.619 -34.062 10.438 Z " fill="#56514C" transform="translate(159.0625,441.5625)"/>
<path d="M0 0 C2.262 2.109 2.262 2.109 4 4 C2.125 4.055 0.25 4.093 -1.625 4.125 C-2.147 4.137 -2.147 4.137 -4.789 4.195 C-8.195 3.988 -10.778 3.08 -14 2 C-31.659 0.205 -50.617 5.65 -65 16 C-66.919 17.895 -68.376 19.82 -70 22 C-73.103 25.336 -75.991 27.824 -80 30 C-79.878 24.14 -78.159 21.208 -74.145 16.98 C-57.686 1.781 -21.803 -11.525 0 0 Z " fill="#F2DCAE" transform="translate(314,38)"/>
<path d="M0 0 C8.324 1.365 16.776 9.623 22 16 C31.364 29.27 31.364 29.27 30.625 34.812 C30.419 35.534 30.212 36.256 30 37 C28.02 37.66 26.04 38.32 24 39 C23.925 38.394 23.85 37.788 23.773 37.164 C21.977 25.717 15.83 17.329 7 10 C4.091 8.113 1.136 6.476 -2 5 C-2 3 -2 3 0 1 C0 0.67 0 0.34 0 0 Z " fill="#EECD8A" transform="translate(390,110)"/>
<path d="M0 0 C3.211 1.893 5.099 3.744 6.438 7.312 C6.438 10.651 5.196 11.571 2.875 14.062 C2.473 14.434 2.473 14.434 0.438 16.312 C0.123 15.758 -0.192 15.204 -0.516 14.633 C-0.944 13.908 -1.372 13.184 -1.812 12.438 C-2.23 11.718 -2.648 10.999 -3.078 10.258 C-4.786 8.019 -5.921 7.251 -8.562 6.312 C-16.276 5.35 -23.257 6.939 -30.562 9.312 C-30.398 9.013 -30.398 9.013 -29.562 7.5 C-28.562 5.312 -28.562 5.312 -28.562 2.312 C-19.275 -1.376 -9.596 -4.298 0 0 Z " fill="#ECBF60" transform="translate(222.5625,104.6875)"/>
<path d="M0 0 C0.33 0.66 0.66 1.32 1 2 C0.67 2.66 0.34 3.32 0 4 C-1.201 20.32 3.456 32.748 11 47 C11.671 48.331 12.34 49.663 13 51 C10.375 51.562 10.375 51.562 7 51 C-0.946 44.032 -4.151 29.263 -5.516 19.195 C-5.74 12.373 -4.545 6.866 -1 1 C-0.67 0.67 -0.34 0.34 0 0 Z " fill="#D4A04B" transform="translate(288,114)"/>
<path d="M0 0 C2 2 2 2 2 5 C0.845 5.516 -0.31 6.031 -1.5 6.562 C-7.122 9.383 -12.34 13.095 -15.5 18.625 C-16.033 21.155 -16.147 23.422 -16 26 C-18.97 26.33 -21.94 26.66 -25 27 C-25.631 21.951 -24.371 19.068 -21.598 15.012 C-15.766 7.669 -8.429 3.835 0 0 Z " fill="#F4DEAF" transform="translate(230,74)"/>
<path d="M0 0 C-3.851 4.952 -7.199 8.743 -12.812 11.625 C-17.925 14.555 -20.574 18.05 -23.625 23.023 C-24.079 23.676 -24.532 24.328 -25 25 C-25.66 25 -26.32 25 -27 25 C-27.361 20.49 -27.447 16.992 -25.562 12.812 C-20.914 7.71 -6.939 -3.469 0 0 Z " fill="#B5D2C8" transform="translate(156,134)"/>
<path d="M0 0 C13.808 1.501 27.093 7.093 37 17 C37 17.66 37 18.32 37 19 C32.005 18.891 29.419 17.784 25.438 14.75 C17.61 8.921 8.276 6.605 -1 4 C-0.67 2.68 -0.34 1.36 0 0 Z " fill="#EFD08C" transform="translate(326,62)"/>
<path d="M0 0 C2.812 0.938 2.812 0.938 4.812 3.938 C4.727 7.892 4.002 9.683 1.625 12.875 C-1.188 14.938 -1.188 14.938 -4.375 14.938 C-7.188 13.938 -7.188 13.938 -9.188 10.938 C-9.111 6.735 -8.795 4.632 -6 1.438 C-3.188 -0.062 -3.188 -0.062 0 0 Z " fill="#CEE6DD" transform="translate(137.1875,287.0625)"/>
<path d="M0 0 C0.619 0.66 1.238 1.32 1.875 2 C9.064 9.128 16.972 14.469 26 19 C26 19.33 26 19.66 26 20 C20.607 21.454 16.664 21.932 11.668 19.133 C1.281 11.615 1.281 11.615 0.586 7.617 C0.516 6.712 0.447 5.807 0.375 4.875 C0.338 4.42 0.338 4.42 0.148 2.117 C0.099 1.419 0.05 0.72 0 0 Z " fill="#EBBD5F" transform="translate(358,138)"/>
<path d="M0 0 C2.262 2.109 2.262 2.109 4 4 C2.125 4.055 0.25 4.093 -1.625 4.125 C-2.147 4.137 -2.147 4.137 -4.789 4.195 C-8 4 -8 4 -10.812 3 C-15.065 1.666 -18.952 1.783 -23.375 1.875 C-23.791 1.88 -23.791 1.88 -25.895 1.902 C-27.93 1.926 -29.965 1.962 -32 2 C-31.67 0.68 -31.34 -0.64 -31 -2 C-22.216 -4.851 -8.203 -4.336 0 0 Z " fill="#EED59E" transform="translate(314,38)"/>
<path d="M0 0 C0.33 0.66 0.66 1.32 1 2 C-2.967 7.99 -7.477 13.693 -14 17 C-16.918 16.984 -18.319 16.312 -21 15 C-20.299 14.319 -19.598 13.639 -18.875 12.938 C-17.33 11.427 -15.968 9.957 -14.684 8.215 C-10.652 2.806 -6.516 1.352 0 0 Z " fill="#EAB85B" transform="translate(288,87)"/>
<path d="M0 0 C1.32 0.66 2.64 1.32 4 2 C3.538 7.664 2.415 11.385 -1 16 C-4.25 16.938 -4.25 16.938 -7 17 C-8.207 12.976 -8.081 10.535 -6.312 6.812 C-4.646 3.776 -3.068 1.753 0 0 Z " fill="#F8E4B7" transform="translate(236,129)"/>
<path d="M0 0 C0 2.188 0 2.188 -1 5 C-4.524 8.181 -8.185 10.312 -13 10.312 C-13.99 10.209 -14.98 10.106 -16 10 C-16.33 8.68 -16.66 7.36 -17 6 C-15.901 5.015 -14.795 4.037 -13.688 3.062 C-13.073 2.517 -12.458 1.972 -11.824 1.41 C-7.86 -1.655 -4.686 -0.796 0 0 Z " fill="#FAE4B6" transform="translate(272,50)"/>
<path d="M0 0 C5.568 0.227 8.581 1.572 12.688 5.367 C14 7 14 7 14.438 9.875 C14.293 10.576 14.149 11.278 14 12 C12 12.875 12 12.875 9 13 C4.919 10.815 1.732 8.288 -0.562 4.25 C-1 2 -1 2 0 0 Z " fill="#F7E4B4" transform="translate(321,118)"/>
<path d="M0 0 C-0.435 5.436 -1.61 8.713 -5 13 C-8 15 -8 15 -10.188 14.625 C-10.786 14.419 -11.384 14.213 -12 14 C-12.599 8.013 -12.599 8.013 -10.957 5.234 C-7.369 0.899 -5.492 -0.145 0 0 Z " fill="#F9E3B3" transform="translate(188,129)"/>
<path d="M0 0 C0 0.33 0 0.66 0 1 C-1.207 1.231 -2.413 1.461 -3.656 1.699 C-13.317 3.636 -20.362 5.49 -28.188 11.75 C-30.409 13.282 -32.351 13.632 -35 14 C-35 11.812 -35 11.812 -34 9 C-24.536 0.719 -11.951 -0.191 0 0 Z " fill="#F1DDB0" transform="translate(149,441)"/>
<path d="M0 0 C6.702 0.596 14.506 2.171 19.828 6.48 C21 8 21 8 21 10.438 C19.712 13.739 17.873 15.011 15 17 C14.835 16.67 14.835 16.67 14 15 C14.516 14.402 15.031 13.804 15.562 13.188 C16.037 12.466 16.511 11.744 17 11 C16 8 16 8 13.96 6.858 C6.497 4.095 -0.264 3.352 -8.188 3.25 C-9.33 3.22 -10.473 3.191 -11.65 3.16 C-14.434 3.09 -17.216 3.037 -20 3 C-20 2.67 -20 2.34 -20 2 C-13.4 2 -6.8 2 0 2 C0 1.34 0 0.68 0 0 Z " fill="#5C564D" transform="translate(170,442)"/>
<path d="M0 0 C5.183 -0.311 8.666 0.007 13 3 C13.938 5.625 13.938 5.625 14 8 C13 9 13 9 9.812 9.312 C5.337 8.946 3.32 7.996 0 5 C-0.375 2.25 -0.375 2.25 0 0 Z " fill="#F6E3B6" transform="translate(371,117)"/>
<path d="M0 0 C0.33 0 0.66 0 1 0 C1.11 6.775 -0.512 10.43 -5.113 15.371 C-6.991 16.992 -8.738 18.006 -11 19 C-11.99 18.34 -12.98 17.68 -14 17 C-12.871 13.612 -11.966 12.935 -9.25 10.75 C-5.397 7.506 -2.803 4.162 0 0 Z " fill="#E3AF55" transform="translate(291,90)"/>
<path d="M0 0 C-2.328 2.328 -3.948 2.751 -7.062 3.75 C-11.954 5.449 -15.801 7.63 -19.93 10.73 C-22.282 12.173 -24.286 12.608 -27 13 C-25.917 9.101 -24.458 7.073 -20.965 4.98 C-14.028 1.519 -7.775 -0.587 0 0 Z " fill="#F2DAA6" transform="translate(55,414)"/>
<path d="M0 0 C1.504 1.297 1.504 1.297 3 3 C2.89 8.703 0.964 12.315 -2 17 C-3.98 17 -5.96 17 -8 17 C-7.734 16.479 -7.469 15.958 -7.195 15.422 C-5.699 12.39 -4.288 9.322 -2.875 6.25 C-2.336 5.08 -1.797 3.909 -1.242 2.703 C-0.832 1.811 -0.422 0.919 0 0 Z " fill="#D9A44C" transform="translate(282,148)"/>
<path d="M0 0 C1.751 1.102 3.501 2.207 5.25 3.312 C6.225 3.927 7.199 4.542 8.203 5.176 C10.547 6.705 12.788 8.288 15 10 C10.278 11.553 7.19 12.459 2.438 10.625 C-0.186 7.799 -0.356 7.369 -0.375 3.75 C-0.251 2.513 -0.127 1.275 0 0 Z " fill="#E7B558" transform="translate(295,88)"/>
<path d="M0 0 C3.15 3.423 3.562 6.443 4 11 C-0.75 14 -0.75 14 -3 14 C-3.66 10.04 -4.32 6.08 -5 2 C-3.35 1.34 -1.7 0.68 0 0 Z " fill="#E9BD61" transform="translate(417,135)"/>
<path d="M0 0 C0.96 -0.001 1.92 -0.001 2.909 -0.002 C6.912 0.029 10.506 0.077 14.375 1.188 C14.375 1.848 14.375 2.507 14.375 3.188 C14.007 3.185 14.007 3.185 12.147 3.172 C8.765 3.151 5.382 3.138 2 3.125 C1.422 3.121 1.422 3.121 -1.504 3.1 C-7.601 3.082 -13.492 3.248 -19.526 4.166 C-22.054 4.192 -23.474 3.463 -25.625 2.188 C-17.035 0.546 -8.727 -0.006 0 0 Z " fill="#D5AF66" transform="translate(76.625,410.8125)"/>
<path d="M0 0 C0.33 0.99 0.66 1.98 1 3 C-3.185 7.923 -3.185 7.923 -7.312 8.312 C-7.756 8.261 -7.756 8.261 -10 8 C-10.33 6.68 -10.66 5.36 -11 4 C-6.995 -0.138 -5.705 -1.351 0 0 Z " fill="#F9E3B4" transform="translate(233,86)"/>
<path d="M0 0 C0.611 8.097 0.611 8.097 -1.438 11.125 C-5.37 12.468 -8.969 11.715 -13 11 C-2.44 0 -2.44 0 0 0 Z " fill="#E9BD60" transform="translate(211,147)"/>
<path d="M0 0 C0.33 0.66 0.66 1.32 1 2 C-1.855 7.472 -1.855 7.472 -4.906 8.879 C-8.661 9.881 -11.238 10.15 -15 9 C-10.972 2.958 -6.983 1.546 0 0 Z " fill="#DDA851" transform="translate(288,87)"/>
<path d="M0 0 C1.167 0.003 2.333 0.006 3.535 0.01 C4.147 0.014 4.147 0.014 7.242 0.035 C8.473 0.04 9.704 0.044 10.973 0.049 C14.021 0.061 17.069 0.077 20.117 0.098 C20.117 0.758 20.117 1.418 20.117 2.098 C19.558 2.123 19 2.148 18.424 2.174 C15.842 2.291 13.261 2.413 10.68 2.535 C9.801 2.574 8.923 2.614 8.018 2.654 C2.348 2.926 -3.247 3.415 -8.883 4.098 C-8.553 3.108 -8.223 2.118 -7.883 1.098 C-5.169 -0.259 -3.034 -0.015 0 0 Z " fill="#484749" transform="translate(149.8828125,441.90234375)"/>
<path d="M0 0 C0.99 0.165 0.99 0.165 6 1 C5.34 4.3 4.68 7.6 4 11 C0 10 0 10 -2 9 C-1.125 2.25 -1.125 2.25 0 0 Z " fill="#E8BC5F" transform="translate(162,137)"/>
<path d="M0 0 C0.66 1.32 1.32 2.64 2 4 C-2.308 7.077 -2.308 7.077 -5.812 6.688 C-6.534 6.461 -7.256 6.234 -8 6 C-8 4.68 -8 3.36 -8 2 C-4.772 -0.152 -3.716 -0.201 0 0 Z " fill="#FCE9BC" transform="translate(141,448)"/>
<path d="M0 0 C0 1.32 0 2.64 0 4 C-3.102 5.838 -5.394 6.474 -9 6 C-9.66 5.01 -10.32 4.02 -11 3 C-7.466 -0.87 -5.022 -1.222 0 0 Z " fill="#F9E2AC" transform="translate(57,421)"/>
<path d="M0 0 C0.33 0.66 0.66 1.32 1 2 C0.67 2.66 0.34 3.32 0 4 C-0.233 6.879 -0.42 9.741 -0.562 12.625 C-0.606 13.427 -0.649 14.229 -0.693 15.055 C-0.8 17.036 -0.9 19.018 -1 21 C-1.99 21.33 -2.98 21.66 -4 22 C-4.557 7.119 -4.557 7.119 -1 1 C-0.67 0.67 -0.34 0.34 0 0 Z " fill="#E8BB5C" transform="translate(288,114)"/>
<path d="M0 0 C0.976 2.928 1.082 4.956 1 8 C-0.485 8.165 -0.485 8.165 -8 9 C-8 7.02 -8 5.04 -8 3 C-7.67 3.66 -7.34 4.32 -7 5 C-4.69 3.35 -2.38 1.7 0 0 Z " fill="#EDC063" transform="translate(213,92)"/>
<path d="M0 0 C2.64 0 5.28 0 8 0 C3.013 3.955 -0.988 4.133 -7.188 4.062 C-7.937 4.058 -8.687 4.053 -9.459 4.049 C-11.306 4.037 -13.153 4.019 -15 4 C-11.473 1.649 -9.971 1.786 -5.812 1.875 C-4.726 1.893 -3.639 1.911 -2.52 1.93 C-2.104 1.941 -2.104 1.941 0 2 C0 1.34 0 0.68 0 0 Z " fill="#76A69A" transform="translate(322,209)"/>
<path d="M0 0 C0 0.33 0 0.66 0 1 C-2.64 1 -5.28 1 -8 1 C-8.66 2.32 -9.32 3.64 -10 5 C-11.32 5 -12.64 5 -14 5 C-14 4.34 -14 3.68 -14 3 C-15.65 3 -17.3 3 -19 3 C-19.33 2.34 -19.66 1.68 -20 1 C-13.304 0.202 -6.742 -0.129 0 0 Z " fill="#77A69B" transform="translate(246,208)"/>
<path d="M0 0 C1.485 0.99 1.485 0.99 9 6 C4.821 8.09 4.196 8.166 0 7 C0 4.69 0 2.38 0 0 Z " fill="#E7BA5E" transform="translate(360,153)"/>
</svg>
