<svg version="1.1" xmlns="http://www.w3.org/2000/svg" viewBox="-20.56 27.05 2060.72 2021.82" width="256" height="251.16">
<path transform="translate(0,0)" fill="rgb(61,59,63)" d="M 1559.29 286.307 C 1542.79 270.243 1526.13 254.195 1509.54 238.415 C 1497.48 226.948 1481.74 215.595 1471.99 202.545 C 1464.99 193.167 1466.81 170.972 1476.14 163.172 C 1482.27 158.054 1485.96 155.654 1494.17 154.721 C 1512.66 152.088 1531.6 150.805 1550.19 148.745 C 1591.48 144.253 1632.74 139.424 1673.95 134.259 C 1731.18 126.685 1788.48 119.645 1845.84 113.14 C 1873.93 109.714 1903.25 105.154 1931.53 103.824 C 1941.04 103.377 1950.05 108.056 1956.12 115.058 C 1963.84 122.586 1961.7 143.178 1961.1 153.952 C 1955.84 252.881 1949.76 351.764 1942.84 450.591 L 1937.74 530.508 C 1936.74 546.941 1936.25 565.202 1933.48 581.222 C 1929.5 601.222 1904.18 614.799 1886.98 600.953 C 1873.28 589.914 1860.37 576.561 1848.04 563.854 C 1833.28 548.643 1816.19 533.212 1802.59 517.074 C 1787.11 533.334 1768.8 551.779 1754.12 568.426 C 1769.42 588.885 1796.98 644.385 1807.47 667.558 C 1879.82 824.892 1905.06 999.812 1880.13 1171.18 C 1845.65 1409.62 1717.99 1624.65 1525.15 1769.08 C 1339.61 1907.66 1091.44 1972.55 861.982 1939.09 C 620.784 1905.21 403.14 1776.31 257.49 1581.09 C 115.573 1389.15 55.7674 1148.67 91.2443 912.613 C 100.141 852.846 114.869 794.094 135.219 737.199 C 140.167 723.575 145.526 710.105 151.288 696.805 C 153.897 690.839 161.491 674.556 163.026 668.771 C 165.015 666.017 166.114 663.153 167.545 660.056 C 173.215 650.589 179.726 636.113 184.843 625.913 C 191.862 612.097 199.373 598.537 207.359 585.257 C 260.504 496.786 341.531 402.41 423.232 339.436 C 426.681 336.143 431.249 332.64 435.014 329.589 L 435.718 329.148 C 449.311 320.503 461.458 309.41 474.708 300.368 C 540.973 255.148 609.995 219.753 685.812 193.346 C 844.008 137.89 1014.48 127.361 1178.3 162.928 C 1274.64 184.465 1366.68 222.068 1450.54 274.162 C 1464.04 282.455 1476.83 290.851 1489.85 299.839 C 1499.69 306.623 1513.67 318.36 1523.55 323.896 C 1535.87 311.855 1546.84 297.783 1559.29 286.307 z"/>
<path transform="translate(0,0)" fill="rgb(248,202,113)" d="M 411.132 1383.88 C 378.056 1334.71 350.215 1259.26 336.1 1201.96 C 295.005 1029.72 324.107 848.218 416.988 697.468 C 505.992 550.456 659.808 440.641 826.281 399.72 C 972.653 363.467 1127.04 378.605 1263.58 442.601 C 1285.65 453.057 1308.34 465.291 1329.29 477.881 C 1340.31 484.503 1350.68 492.332 1361.71 499.003 C 1357.31 503.34 1352.98 507.738 1348.71 512.196 C 1334.09 528.092 1312.26 549.515 1300.61 567.082 C 1283.39 593.039 1314.59 615.971 1331.85 632.658 L 1376.35 676.192 L 1456.73 754.5 C 1470.47 767.895 1484.21 782.341 1498.31 794.811 C 1522.64 816.331 1545.81 793.549 1561.55 774.828 C 1568.29 766.82 1576.47 758.938 1583.47 751.257 C 1588.78 762.393 1593.54 772.548 1598.3 783.938 C 1667.23 945.563 1668.35 1128.11 1601.39 1290.56 C 1534.39 1454.95 1404.9 1586.04 1241.36 1655.06 C 1080.82 1723.06 899.933 1724.94 738.023 1660.28 C 685.325 1639.33 635.572 1611.62 590.011 1577.85 C 519.234 1529.05 455.497 1457.07 411.132 1383.88 z"/>
<path transform="translate(0,0)" fill="rgb(238,178,88)" d="M 411.132 1383.88 C 378.056 1334.71 350.215 1259.26 336.1 1201.96 C 295.005 1029.72 324.107 848.218 416.988 697.468 C 505.992 550.456 659.808 440.641 826.281 399.72 C 972.653 363.467 1127.04 378.605 1263.58 442.601 C 1285.65 453.057 1308.34 465.291 1329.29 477.881 C 1340.31 484.503 1350.68 492.332 1361.71 499.003 C 1357.31 503.34 1352.98 507.738 1348.71 512.196 C 1345 504.891 1302.92 491.802 1293.27 488.453 C 931.56 362.902 526.051 554.209 405.02 920.239 C 365.566 1039.56 357.946 1163.49 383.464 1287.06 C 386.785 1302.97 392.201 1318.59 396.538 1334.12 C 401.083 1350.4 411.288 1368.03 411.132 1383.88 z"/>
<path transform="translate(0,0)" fill="rgb(238,178,88)" d="M 1598.3 783.938 C 1667.23 945.563 1668.35 1128.11 1601.39 1290.56 C 1534.39 1454.95 1404.9 1586.04 1241.36 1655.06 C 1080.82 1723.06 899.933 1724.94 738.023 1660.28 C 685.325 1639.33 635.572 1611.62 590.011 1577.85 C 592.369 1577.32 595.292 1576.64 597.553 1577.56 C 607.861 1581.79 618.756 1587.46 628.762 1592.33 C 645.204 1600.5 662.075 1607.78 679.303 1614.14 C 707.923 1624.68 750.689 1636.21 780.277 1642.05 C 961.451 1677.54 1149.29 1639.27 1302.15 1535.74 C 1497.48 1404.99 1614.52 1185.24 1614 950.186 C 1613.98 925.054 1612.55 899.943 1609.71 874.972 C 1608.57 864.543 1607.15 854.147 1605.45 843.794 C 1603.07 829.674 1595.28 796.966 1598.3 783.938 z"/>
<path transform="translate(0,0)" fill="rgb(248,202,113)" d="M 446.671 1689.86 C 289.747 1559.46 185.74 1376.32 154.124 1174.75 C 119.397 953.258 175.237 727.11 309.067 547.238 C 441.04 368.032 638.506 248.263 858.417 214.043 C 1078.41 180.016 1302.83 236.11 1480.94 369.643 C 1455.9 397.006 1428.65 423.061 1404.24 451.464 C 1392.96 442.046 1376.84 431.995 1364.22 424.259 C 1308.57 390.231 1248.59 363.833 1185.91 345.773 C 1003.63 293.16 807.993 313.985 640.872 403.792 C 467.031 496.666 337.994 655.726 282.959 844.98 C 229.122 1028.96 250.876 1226.82 343.402 1394.7 C 436.087 1563.47 599.902 1688.97 784.168 1742.49 C 968.632 1794.54 1166.14 1772.29 1334.4 1680.49 C 1506.47 1585.74 1633.5 1426.1 1687.18 1237.14 C 1729.45 1089.17 1723.13 931.542 1669.15 787.431 C 1659.7 761.958 1643.93 724.715 1630.79 700.975 C 1646.11 685.407 1661.25 668.454 1676.2 652.427 C 1686.65 641.228 1699.39 628.22 1708.97 616.562 C 1757.06 697.937 1783.02 765.503 1805.3 857.391 C 1814.78 894.991 1820.35 937.221 1823.43 975.817 C 1837.3 1153.44 1794.95 1330.92 1702.37 1483.14 C 1586.88 1673.05 1400.72 1809.34 1184.78 1862.04 C 969.513 1914.9 742.06 1880.03 552.516 1765.1 C 515.308 1742.85 479.916 1717.69 446.671 1689.86 z"/>
<path transform="translate(0,0)" fill="rgb(238,178,88)" d="M 1805.3 857.391 C 1814.78 894.991 1820.35 937.221 1823.43 975.817 C 1837.3 1153.44 1794.95 1330.92 1702.37 1483.14 C 1586.88 1673.05 1400.72 1809.34 1184.78 1862.04 C 969.513 1914.9 742.06 1880.03 552.516 1765.1 C 515.308 1742.85 479.916 1717.69 446.671 1689.86 C 457.665 1687.83 479.588 1705.28 488.787 1711.38 C 502.184 1720.08 515.833 1728.38 529.718 1736.27 C 570.499 1759.01 651.743 1789.16 696.813 1801.7 C 727.346 1810.2 785.406 1821.9 816.307 1825.97 C 1007.78 1851.48 1202.29 1812.13 1368.78 1714.19 C 1596.4 1580.73 1765.62 1323.42 1799.45 1062.33 C 1803.65 1029.91 1806.76 1000.62 1807 967.873 C 1807 946.175 1806.67 924.478 1805.98 902.791 C 1805.5 888.894 1801.7 870.26 1805.3 857.391 z"/>
<path transform="translate(0,0)" fill="rgb(255,255,255)" d="M 499.369 397.312 C 530.845 391.338 554.196 429.339 530.329 450.417 C 515.592 463.432 498.739 475.05 483.684 488.341 C 437.398 528.92 397.55 577.325 365.14 629.602 C 357.698 641.605 351.652 651.279 338.221 657.098 C 309.889 663.432 289.561 637.428 300.652 614.028 C 329.994 552.122 377.829 497.598 427.791 451.412 C 446.408 434.201 476.582 407.557 499.369 397.312 z"/>
<path transform="translate(0,0)" fill="rgb(255,255,255)" d="M 268.359 697.232 C 275.834 696.242 282.157 696.389 289.112 699.608 C 296.428 703.034 302.024 709.304 304.598 716.961 C 311.3 736.51 296.32 768.678 275.968 774.898 C 224.378 782.587 225.636 712.111 268.359 697.232 z"/>
<path transform="translate(0,0)" fill="rgb(255,255,255)" d="M 599.291 334.126 C 613.985 333.178 628.668 338.174 633.925 353.266 C 636.497 360.434 636.06 368.337 632.712 375.176 C 626.854 386.892 614.98 392.362 603.426 396.469 C 582.419 399.585 571 387.479 566.758 367.848 C 571.008 348.217 581.598 340.984 599.291 334.126 z"/>
<path transform="translate(0,0)" fill="rgb(241,126,100)" d="M 1876.01 173.668 C 1883.3 172.868 1890.58 171.972 1897.85 170.977 L 1883.64 383.434 C 1881.45 419.432 1879.92 468.604 1875.85 503.995 C 1865.75 494.276 1854.77 483.265 1845.21 473.047 C 1817.1 443.018 1799.62 425.251 1765.88 462.503 C 1685.18 551.959 1602.55 639.649 1518.03 725.513 C 1503.98 710.609 1486 694.376 1471.07 679.844 C 1437.69 647.833 1404.9 615.221 1372.7 582.024 C 1379.23 574.802 1386.68 566.906 1392.84 559.476 C 1418.47 533.066 1442.36 505.951 1467.13 478.794 L 1545.42 394.407 C 1562.36 376.323 1579.44 358.374 1596.66 340.56 C 1617.56 318.738 1654.38 290.369 1623.41 260.068 C 1615.56 252.38 1607 245.275 1598.82 237.915 C 1589.03 228.943 1579.38 219.822 1569.88 210.556 C 1591.54 209.544 1634.63 203.287 1657.39 200.54 C 1730.55 191.71 1802.69 181.895 1876.01 173.668 z"/>
<path transform="translate(0,0)" fill="rgb(223,107,85)" d="M 1876.01 173.668 C 1883.3 172.868 1890.58 171.972 1897.85 170.977 L 1883.64 383.434 C 1881.45 419.432 1879.92 468.604 1875.85 503.995 C 1865.75 494.276 1854.77 483.265 1845.21 473.047 C 1817.1 443.018 1799.62 425.251 1765.88 462.503 C 1685.18 551.959 1602.55 639.649 1518.03 725.513 C 1503.98 710.609 1486 694.376 1471.07 679.844 C 1437.69 647.833 1404.9 615.221 1372.7 582.024 C 1379.23 574.802 1386.68 566.906 1392.84 559.476 C 1393.05 562.038 1393.34 564.456 1395.09 566.453 C 1405.47 577.554 1416.59 588.706 1428.47 598.423 C 1454.98 619.791 1475.08 653.674 1512.92 653.407 C 1542.02 653.201 1555.59 638.849 1574.6 619.157 C 1583.95 609.468 1593.86 599.555 1603.33 589.842 C 1638.99 553.48 1674.26 516.741 1709.14 479.631 C 1725.41 462.075 1740.59 443.497 1756.96 426.121 C 1789.91 391.148 1826.08 411.026 1854.21 438.407 C 1860.51 409.195 1860.76 379.5 1863.16 349.757 L 1876.01 173.668 z"/>
<path transform="translate(0,0)" fill="rgb(251,185,168)" d="M 1615.81 330.84 C 1619.41 331.526 1623 333.419 1625.3 336.322 C 1627.1 338.576 1627.87 341.492 1627.41 344.344 C 1626.45 350.088 1593.13 382.366 1586.78 388.945 C 1563.93 412.743 1541.2 436.666 1518.6 460.713 C 1488.8 492.405 1459.82 524.864 1429.04 555.616 C 1425.48 559.17 1421.62 562.354 1417.49 565.215 C 1410.3 565.005 1408.95 562.596 1403.96 557.495 C 1412.85 541.967 1436.62 519.845 1449.61 505.63 L 1542.64 405.354 C 1555.49 391.734 1602.46 338.888 1615.81 330.84 z"/>
<path transform="translate(0,0)" fill="rgb(251,185,168)" d="M 1832.55 191.388 C 1850.71 186.393 1864.97 210.262 1844.9 213.678 C 1826.55 216.801 1806.42 218.613 1787.78 220.997 C 1743.05 226.974 1698.27 232.588 1653.45 237.838 C 1644.47 238.231 1632.97 239.719 1630.97 228.401 C 1628.18 212.706 1657.59 212.837 1666.66 211.81 L 1709.27 206.792 C 1750.2 201.869 1791.7 195.807 1832.55 191.388 z"/>
<path transform="translate(0,0)" fill="rgb(161,168,168)" fill-opacity="0.0117647" d="M 163.026 668.771 L 162.435 668.608 C 159.959 670.655 160.481 670.876 159.142 674.263 L 157.829 673.929 C 154.629 668.791 151.923 655.115 160.634 655.967 C 161.395 659.194 161.495 660.381 161.81 663.606 C 164.932 662.209 163.782 659.722 167.301 655.827 L 166.864 656.61 L 167.922 657.689 L 167.545 660.056 C 166.114 663.153 165.015 666.017 163.026 668.771 z"/>
<path transform="translate(0,0)" fill="rgb(132,132,135)" fill-opacity="0.0196078" d="M 423.232 339.436 C 422.16 338.531 421.151 337.638 420.101 336.709 C 421.525 331.612 423.154 326.631 429.405 326.807 L 429.584 329.525 L 435.014 329.589 C 431.249 332.64 426.681 336.143 423.232 339.436 z"/>
<path transform="translate(0,0)" fill="rgb(132,132,135)" fill-opacity="0.0235294" d="M 1819.84 672.591 C 1821.72 673.034 1821.59 673.073 1823.36 673.889 C 1822.19 677.811 1822.24 678.118 1824.69 681.009 C 1825.09 678.924 1824.7 679.583 1825.87 677.999 C 1830.13 682.557 1830.72 686.215 1831.92 692.333 L 1829.01 687.858 L 1827.38 690.035 C 1824.38 685.564 1817.48 677.275 1819.84 672.591 z"/>
<path transform="translate(0,0)" fill="rgb(2,1,3)" fill-opacity="0.0352941" d="M 1784.86 612.494 C 1789.86 615.554 1790.91 617.122 1793.18 622.685 L 1793.66 623.872 C 1794.48 625.866 1795.04 627.186 1795.7 629.24 L 1794.22 629.692 C 1791.76 623.621 1788.22 618.106 1784.86 612.494 z"/>
<path transform="translate(0,0)" fill="rgb(2,1,3)" fill-opacity="0.0156863" d="M 246.049 513.343 C 248.4 513.605 247.281 513.26 249.401 514.399 C 248.33 517.301 243.165 523.144 240.905 526.23 C 240.356 522.266 243.903 516.629 246.049 513.343 z"/>
<path transform="translate(0,0)" fill="rgb(2,1,3)" fill-opacity="0.12549" d="M 576.378 231.935 L 576.758 233.365 C 575.082 235.4 566.991 239.395 563.519 241.705 L 563.532 239.652 C 565.115 237.101 572.724 234.033 576.378 231.935 z"/>
<path transform="translate(0,0)" fill="rgb(2,1,3)" fill-opacity="0.0627451" d="M 1286.99 1900.05 L 1286.64 1902.01 C 1284 1904.17 1279.78 1905.54 1276.52 1906.84 L 1276.32 1905.89 C 1278.13 1903.31 1283.79 1901.43 1286.99 1900.05 z"/>
</svg>