<svg version="1.1" xmlns="http://www.w3.org/2000/svg" viewBox="-9.86 -11.64 2047.94 2056.57" width="254.88" height="256">
<path transform="translate(0,0)" fill="rgb(51,45,52)" d="M 760.476 122.825 C 788.085 114.284 828.988 105.889 857.566 100.875 C 1062.51 64.527 1273.72 96.8961 1458.37 192.951 C 1647.63 294.215 1797.57 455.875 1884.33 652.199 C 1936.24 770.798 1961.91 896.524 1960.22 1025.82 C 1959.84 1055.05 1959.92 1082.71 1957.58 1111.98 C 1947.29 1233.6 1912.74 1351.92 1855.99 1459.98 C 1736.33 1685.18 1531.21 1852.87 1286.71 1925.36 C 1169.18 1961.21 1035.65 1968.76 913.59 1956.5 C 803.409 1945.43 683.076 1909.31 585.164 1857 C 426.791 1773.16 295.186 1646.48 205.379 1491.42 C 171.516 1433.88 144.355 1372.66 124.426 1308.95 C 66.306 1119.42 68.288 916.54 130.1 728.181 C 145.046 681.813 164.018 636.841 186.798 593.777 C 247.639 480.266 307.267 405.996 402.27 320.084 C 405.953 316.953 409.316 313.838 412.85 310.56 C 430.309 296.182 447.969 282.048 465.823 268.163 C 489.995 250.396 512.751 235.933 538.066 219.998 C 586.911 192.498 633.99 165.723 687.274 147.153 C 695.851 144.164 704.519 140.772 712.98 137.455 C 725.897 134.416 744.527 126.817 760.476 122.825 z M 1040.49 1197.7 C 1141.34 1187.26 1214.66 1097.08 1204.31 996.218 C 1193.96 895.357 1103.86 821.948 1002.99 832.196 C 901.975 842.459 828.441 932.716 838.804 1033.72 C 849.167 1134.72 939.497 1208.17 1040.49 1197.7 z"/>
<path transform="translate(0,0)" fill="rgb(148,199,183)" d="M 978.192 134.569 C 984.243 134.065 991.918 134.088 998.119 133.95 C 996.498 226.692 997.834 323.21 997.908 416.075 L 998.057 785.918 C 936.806 794.155 883.872 820.535 843.7 868.335 C 804.128 915.301 785.193 976.254 791.186 1037.38 C 797.702 1109.01 832.794 1156.38 885.73 1200.66 L 660.291 1540.99 C 611.272 1613.35 563.483 1686.53 516.945 1760.5 C 463.631 1723.54 414.262 1681.18 369.62 1634.1 C 233.193 1490.24 145.014 1292.13 132.832 1093.62 C 130.78 1060.18 129.075 1023.1 130.462 989.765 C 139.318 780.576 221.162 581.095 361.782 425.967 C 520.687 251.216 742.294 146.454 978.192 134.569 z"/>
<path transform="translate(0,0)" fill="rgb(248,248,246)" d="M 364.343 563.363 C 443.034 565.556 386.433 771.992 304.386 790.368 C 294.48 790.247 289.926 790.435 281.263 783.811 C 270.82 775.825 265.512 758.66 264.296 745.645 C 259.398 693.256 280.92 636.182 313.104 595.458 C 326.407 578.625 342.818 565.636 364.343 563.363 z"/>
<path transform="translate(0,0)" fill="rgb(248,248,246)" d="M 282.915 816.066 C 316.972 813.56 324.069 877.262 280.605 887.147 C 241.467 886.991 242.27 826.856 282.915 816.066 z"/>
<path transform="translate(0,0)" fill="rgb(141,202,226)" d="M 1253.91 1015.76 L 1913.87 1013.93 C 1912.99 1051.35 1912.56 1086.56 1908.29 1123.85 C 1905.26 1150.3 1900.74 1174.13 1895.8 1200.27 C 1888.95 1245.84 1873.07 1297.44 1856.71 1340.27 C 1795.1 1502.05 1687.9 1642.48 1548.09 1744.56 C 1357.4 1884.53 1118.74 1942.6 885.066 1905.89 C 775.249 1889.45 669.535 1852.38 573.503 1796.64 C 587.901 1777.35 600.951 1752.99 614.351 1732.68 C 617.962 1727.21 623.619 1716.94 627.147 1712.25 C 658.167 1659.35 694.091 1602.75 726.437 1550.02 C 792.633 1441.27 859.515 1332.93 927.08 1225.02 C 948.568 1236.42 986.14 1243.17 1010.11 1244.72 C 1122.78 1252.01 1227.33 1170.05 1249.42 1059.73 C 1252.35 1045.12 1253.05 1030.74 1253.91 1015.76 z"/>
<path transform="translate(0,0)" fill="rgb(116,171,199)" d="M 627.147 1712.25 C 641.712 1720.67 666.437 1730.3 682.769 1736.9 C 821.859 1793.15 979.109 1811.52 1127.89 1798.87 C 1244.74 1788.93 1351.89 1755.11 1455.69 1701.33 C 1491.37 1682.84 1520.59 1666.62 1554.18 1643.87 C 1647.51 1579.73 1726.77 1497.22 1787.11 1401.4 C 1807.16 1369.71 1829.71 1332.47 1846.63 1299.04 C 1853.24 1285.99 1859.57 1272.81 1865.6 1259.49 C 1874.19 1240.23 1882.79 1215.92 1895.8 1200.27 C 1888.95 1245.84 1873.07 1297.44 1856.71 1340.27 C 1795.1 1502.05 1687.9 1642.48 1548.09 1744.56 C 1357.4 1884.53 1118.74 1942.6 885.066 1905.89 C 775.249 1889.45 669.535 1852.38 573.503 1796.64 C 587.901 1777.35 600.951 1752.99 614.351 1732.68 C 617.962 1727.21 623.619 1716.94 627.147 1712.25 z"/>
<path transform="translate(0,0)" fill="rgb(237,198,124)" d="M 1046.03 133.985 C 1085.11 133.886 1127.09 138.465 1165.57 144.81 C 1317.48 169.874 1460.34 233.789 1580.27 330.35 C 1762.94 477.722 1880.42 690.932 1907.44 924.074 C 1908.73 937.081 1909.18 952.646 1910.8 964.985 L 1489.12 966.759 L 1339.33 966.932 C 1310.05 966.964 1277.68 966.355 1248.63 967.834 C 1245.6 956.521 1242.82 946.512 1239.18 935.355 C 1231.81 912.677 1214.81 885.854 1199.66 867.68 C 1161.32 821.232 1106.02 792.025 1046.04 786.552 L 1046.03 133.985 z"/>
<path transform="translate(0,0)" fill="rgb(218,162,96)" d="M 1239.18 935.355 C 1242.81 934.672 1276.22 936.963 1284.13 936.853 C 1322.33 936.321 1360.87 936.325 1399.05 935.72 L 1726.04 928.907 C 1786.69 927.449 1846.86 927.037 1907.44 924.074 C 1908.73 937.081 1909.18 952.646 1910.8 964.985 L 1489.12 966.759 L 1339.33 966.932 C 1310.05 966.964 1277.68 966.355 1248.63 967.834 C 1245.6 956.521 1242.82 946.512 1239.18 935.355 z"/>
<path transform="translate(0,0)" fill="rgb(139,139,142)" fill-opacity="0.0117647" d="M 465.823 268.163 C 463.006 259.427 479.43 250.808 485.888 246.343 C 484.426 242.112 484.078 243.048 484.777 239.196 C 489.123 234.836 508.53 232.207 516.17 229.952 L 516.108 226.855 C 517.648 225.586 518.44 224.901 519.825 223.471 L 518.005 221.798 L 518.797 220.362 C 517.644 218.382 518.042 219.455 517.634 217.131 C 520.636 214.665 520.647 214.685 524.208 213.093 L 525.637 213.858 L 525.771 218.637 C 530.139 220.534 528.281 216.273 538.066 219.998 C 512.751 235.933 489.995 250.396 465.823 268.163 z"/>
<path transform="translate(0,0)" fill="rgb(139,139,142)" fill-opacity="0.0117647" d="M 712.98 137.455 L 713.536 135.293 C 716.755 134.269 716.808 133.943 719.292 131.774 L 718.811 131.61 C 722.618 128.113 742.159 118.265 747.177 120.956 L 748.113 122.438 C 751.678 122.555 751.438 122.645 754.559 120.94 L 754.542 119.585 L 751.115 119.705 C 752.673 118.553 754.87 119.145 757.368 119.227 C 756.175 119.775 756.561 119.339 756.113 120.444 L 760.476 122.825 C 744.527 126.817 725.897 134.416 712.98 137.455 z"/>
<path transform="translate(0,0)" fill="rgb(139,139,142)" fill-opacity="0.0196078" d="M 402.27 320.084 C 400.05 315.247 403.744 308.43 407.899 305.889 C 412.483 306.296 406.519 305.96 412.85 310.56 C 409.316 313.838 405.953 316.953 402.27 320.084 z"/>
<path transform="translate(0,0)" fill="rgb(0,0,0)" fill-opacity="0.0117647" d="M 1560.39 1797.72 C 1561.34 1798.37 1560.83 1797.9 1561.69 1799.35 C 1559.29 1802.39 1550.49 1807.57 1546.49 1810.6 L 1545.53 1808.81 C 1550.08 1803.99 1554.27 1802.56 1559.63 1798.33 L 1560.39 1797.72 z"/>
<path transform="translate(0,0)" fill="rgb(0,0,0)" fill-opacity="0.0117647" d="M 704.583 132.149 C 705.688 132.982 706.761 133.737 707.933 134.462 L 706.939 135.797 C 702.943 137.309 700.721 138.437 696.9 140.409 C 695.138 139.529 695.677 139.81 694.229 138.365 L 695.491 136.93 C 699.986 135.518 701.288 135.454 704.583 132.149 z"/>
<path transform="translate(0,0)" fill="rgb(0,0,0)" fill-opacity="0.113725" d="M 629.437 163.833 C 630.262 164.429 629.825 163.99 630.408 165.415 C 627.176 168.369 620.881 170.795 616.688 172.713 L 616.102 171.537 C 618.031 169 626.125 165.488 629.437 163.833 z"/>
<path transform="translate(0,0)" fill="rgb(0,0,0)" fill-opacity="0.152941" d="M 551.732 203.481 C 553.408 203.977 552.766 203.485 553.687 204.921 C 551.707 207.524 547.226 209.23 544.12 210.749 L 542.791 210.798 L 542.892 209.615 C 546.533 207.586 547.715 206.815 550.943 204.142 L 551.732 203.481 z"/>
</svg>