<svg version="1.1" xmlns="http://www.w3.org/2000/svg" viewBox="-105.69 -114.06 2253.91 2242.42" width="256" height="254.63">
<path transform="translate(0,0)" fill="rgb(61,60,64)" d="M 574.173 196.578 C 991.718 -30.5785 1513.13 89.73 1788.93 476.867 C 2064.74 864.004 2008.12 1396.11 1657.03 1716.55 C 1305.94 2036.98 770.89 2044.89 410.491 1734.96 C 50.0916 1425.03 -22.212 894.823 242.041 499.711 C 243.586 497.401 245.141 495.098 246.706 492.802 C 323.99 379.436 425.154 284.363 543.096 214.259 C 553.342 208.169 563.703 202.274 574.173 196.578 z M 1040.54 1293.16 C 1189.81 1283.8 1303.33 1155.37 1294.3 1006.08 C 1285.26 856.793 1157.09 742.987 1007.78 751.684 C 858.001 760.408 743.755 889.075 752.815 1038.84 C 761.874 1188.6 890.796 1302.56 1040.54 1293.16 z"/>
<path transform="translate(0,0)" fill="rgb(235,202,149)" d="M 517.22 1744.81 C 391.159 1656.68 290.457 1536.99 225.194 1397.71 C 126.163 1184.8 115.366 941.366 195.158 720.527 C 264.133 528.607 398.048 366.848 573.716 263.257 C 607.424 243.264 642.784 226.975 678.226 210.532 C 695.104 257.072 716.674 308.962 735.468 354.919 L 801.777 517.718 L 856.828 652.978 C 866.664 677.191 875.821 701.936 886.85 725.622 C 833.852 746.473 779.908 794.827 748.66 842.228 C 700.661 913.819 683.376 1001.67 700.674 1086.11 C 718.882 1173.35 767.507 1247.33 842.479 1296.14 C 916.427 1344.47 1006.59 1361.33 1093.01 1342.98 C 1184.14 1323.54 1256.17 1269.66 1306.49 1192.21 C 1350.87 1215.27 1400.92 1238.08 1446.37 1260.08 L 1748.21 1406.57 C 1764.73 1414.61 1787.66 1426.22 1804.56 1433.23 C 1785.09 1472.3 1757.52 1514.98 1731.45 1549.86 C 1624.74 1693.05 1477.08 1800.47 1307.99 1857.92 C 1085.33 1933.99 841.483 1917.74 630.895 1812.78 C 593.897 1794.27 550.64 1769.59 517.22 1744.81 z"/>
<path transform="translate(0,0)" fill="rgb(218,174,113)" d="M 1748.21 1406.57 C 1764.73 1414.61 1787.66 1426.22 1804.56 1433.23 C 1785.09 1472.3 1757.52 1514.98 1731.45 1549.86 C 1624.74 1693.05 1477.08 1800.47 1307.99 1857.92 C 1085.33 1933.99 841.483 1917.74 630.895 1812.78 C 593.897 1794.27 550.64 1769.59 517.22 1744.81 C 519.876 1744.19 522.322 1743.44 524.892 1744.53 C 536.562 1749.5 548.369 1756.01 559.68 1761.78 C 575.822 1769.88 592.283 1777.33 609.025 1784.1 C 651.879 1800.87 695.663 1815.15 740.161 1826.88 C 962.67 1883.42 1198.28 1854.71 1400.7 1746.37 C 1428.85 1731.22 1456.11 1714.47 1482.35 1696.19 C 1498 1685.33 1514.56 1672.01 1530.7 1662.44 C 1543.71 1658.95 1552.77 1659.42 1566.1 1651.8 C 1594.44 1635.61 1625.26 1606.4 1640.54 1577.39 C 1644.12 1570.6 1647.3 1555.97 1649.66 1548.15 C 1654.32 1543.99 1685.29 1502.3 1687.9 1495.14 C 1690.72 1491.35 1691.81 1489.83 1693.92 1485.63 C 1707.52 1477.63 1738.88 1422.62 1748.21 1406.57 z"/>
<path transform="translate(0,0)" fill="rgb(247,233,211)" d="M 1530.7 1662.44 C 1467.67 1643.21 1529.08 1576.81 1555.18 1554.2 C 1579.74 1532.93 1636.99 1492.37 1649.66 1548.15 C 1647.3 1555.97 1644.12 1570.6 1640.54 1577.39 C 1625.26 1606.4 1594.44 1635.61 1566.1 1651.8 C 1552.77 1659.42 1543.71 1658.95 1530.7 1662.44 z"/>
<path transform="translate(0,0)" fill="rgb(247,233,211)" d="M 1687.9 1495.14 C 1668.17 1502.45 1644.77 1503.23 1644.01 1475.77 C 1643.73 1467.3 1647.1 1459.11 1653.27 1453.29 C 1664.91 1442.12 1678.2 1445.04 1689.11 1455.81 C 1696.72 1463.31 1694.18 1475.9 1693.92 1485.63 C 1691.81 1489.83 1690.72 1491.35 1687.9 1495.14 z"/>
<path transform="translate(0,0)" fill="rgb(247,233,211)" d="M 542.311 357.267 C 583.676 352.084 588.516 385.269 571.731 414.146 C 552.996 446.379 518.035 472.662 482.073 482.723 C 436.989 486.463 435.098 451.843 455.318 421.37 C 475.437 391.05 505.981 365.08 542.311 357.267 z"/>
<path transform="translate(0,0)" fill="rgb(247,233,211)" d="M 619.856 307.196 C 625.416 307.377 630.332 308.126 635.136 311.071 C 640.41 314.282 644.104 319.55 645.324 325.602 C 648.662 341.725 637.405 354.744 621.99 358.002 C 609.213 358.402 598.838 353.877 595.723 340.337 C 594.17 333.396 595.436 326.122 599.245 320.115 C 604.363 312.021 610.889 309.033 619.856 307.196 z"/>
<path transform="translate(0,0)" fill="rgb(146,188,169)" d="M 1052.11 142.008 C 1150.54 143.095 1254.35 165.834 1345.94 201.241 C 1558.72 284.426 1730.59 447.441 1824.91 655.529 C 1923.5 878.822 1932.93 1115.29 1844.33 1343.92 C 1839.85 1356.27 1834.9 1369.15 1828.9 1380.84 C 1816.97 1373.47 1798.7 1365.19 1785.97 1359.15 C 1764.43 1348.97 1742.96 1338.66 1721.56 1328.22 C 1625.51 1281.14 1529.2 1234.63 1432.61 1188.68 C 1399.62 1172.75 1364.71 1157.73 1332.33 1140.82 C 1373.84 1025.16 1354.14 901.94 1272.91 808.349 C 1218.01 745.091 1137.36 701.647 1053.03 696.693 L 1052.33 300.776 C 1052.16 247.69 1052.99 195.126 1052.11 142.008 z"/>
<path transform="translate(0,0)" fill="rgb(205,219,209)" d="M 1803.41 1094.18 C 1819.03 1093.13 1830.62 1098.96 1835.91 1114.42 C 1850.24 1156.26 1835.16 1232.66 1789.58 1249.85 C 1782.77 1251.34 1780.02 1251.08 1773.22 1250.88 C 1738.93 1232.4 1752.77 1175.8 1761.99 1146.19 C 1768.7 1124.63 1781.08 1102.45 1803.41 1094.18 z"/>
<path transform="translate(0,0)" fill="rgb(205,219,209)" d="M 1809.03 1011.12 C 1818.71 1010.52 1827.3 1013.92 1832.48 1022.48 C 1836.38 1028.89 1837.43 1036.64 1835.37 1043.86 C 1832.76 1052.7 1826.96 1057.44 1819.16 1061.55 L 1806.12 1060.79 C 1783.74 1046.06 1783.7 1022.42 1809.03 1011.12 z"/>
<path transform="translate(0,0)" fill="rgb(2,2,3)" fill-opacity="0.0117647" d="M 1278.05 1093.53 C 1280.08 1099.55 1273.55 1112.12 1270.68 1118.35 C 1270.16 1117.25 1269.65 1116.14 1269.14 1115.03 C 1272.49 1109.4 1276.26 1098.95 1278.05 1093.53 z"/>
<path transform="translate(0,0)" fill="rgb(2,2,3)" fill-opacity="0.0196078" d="M 1192.01 1227.54 L 1192.79 1227.82 C 1192.39 1229.96 1189.49 1231.9 1187.47 1233.79 C 1187.26 1231.13 1187.07 1231.2 1188.21 1228.84 L 1192.01 1227.54 z"/>
<path transform="translate(0,0)" fill="rgb(154,201,210)" d="M 982.773 142.438 L 994.737 141.975 C 993.634 166.155 994.273 192.561 994.37 216.841 L 994.312 316.367 L 994.022 696.547 C 974.268 698.14 960.411 700.404 941.141 705.336 C 925.241 660.811 903.703 612.23 886.012 567.613 L 799.166 354.958 C 783.978 316.084 768.451 277.343 752.587 238.74 C 746.37 223.325 740.02 204.537 733.201 189.775 C 825.497 158.569 887.413 148.451 982.773 142.438 z"/>
<path transform="translate(0,0)" fill="rgb(144,147,146)" fill-opacity="0.0352941" d="M 543.096 214.259 C 541.164 212.665 540.916 212.759 538.548 211.832 C 539.566 207.777 543.561 211.031 547.897 203.877 C 547.705 200.499 548.211 202.034 545.258 199.235 L 545.261 199.625 C 547.899 193.94 554.276 194.252 559.652 194.25 L 559.5 194.296 C 568.275 195.442 566.166 192.131 574.173 196.578 C 563.703 202.274 553.342 208.169 543.096 214.259 z"/>
<path transform="translate(0,0)" fill="rgb(61,60,64)" fill-opacity="0.0117647" d="M 242.041 499.711 C 238.433 500.732 238.294 501.485 235.571 500.366 C 239.4 496.719 243.258 491.117 245.185 486.036 C 246.373 482.904 245.526 482.561 243.839 480.065 L 244.794 478.487 C 255.903 478.504 251.54 467.09 260.88 462.297 L 262.707 463.139 C 259.343 472.095 243.879 482.803 246.706 492.802 C 245.141 495.098 243.586 497.401 242.041 499.711 z"/>
<path transform="translate(0,0)" fill="rgb(2,2,3)" fill-opacity="0.0117647" d="M 1392.75 1890.82 C 1394.19 1893.02 1393.8 1891.78 1393.24 1894.81 C 1388.8 1896.1 1385.73 1897.42 1381.48 1899.14 L 1380.5 1899.46 L 1379.79 1897.86 C 1384.39 1895.14 1387.86 1893.15 1392.75 1890.82 z"/>
<path transform="translate(0,0)" fill="rgb(2,2,3)" fill-opacity="0.172549" d="M 620.219 164.314 C 621.164 164.288 620.549 164.231 621.965 164.937 C 619.398 167.507 615.755 169.053 612.461 170.736 L 610.638 170.846 L 610.58 169.664 C 613.806 167.904 617.019 166.12 620.219 164.314 z"/>
</svg>