<svg version="1.1" xmlns="http://www.w3.org/2000/svg" viewBox="3.64 73.61 2034.56 1894.69" width="256" height="238.39">
<defs>
	<linearGradient id="Gradient1" gradientUnits="userSpaceOnUse" x1="574.436" y1="282.116" x2="572.071" y2="279.297">
		<stop class="stop0" offset="0" stop-opacity="0" stop-color="rgb(2,0,1)"/>
		<stop class="stop1" offset="1" stop-opacity="0.0313725" stop-color="rgb(0,2,0)"/>
	</linearGradient>
	<linearGradient id="Gradient2" gradientUnits="userSpaceOnUse" x1="590.803" y1="429.715" x2="588.197" y2="428.285">
		<stop class="stop0" offset="0" stop-opacity="0" stop-color="rgb(2,0,5)"/>
		<stop class="stop1" offset="1" stop-opacity="0.0235294" stop-color="rgb(0,5,0)"/>
	</linearGradient>
	<linearGradient id="Gradient3" gradientUnits="userSpaceOnUse" x1="1481.24" y1="344.408" x2="1479.19" y2="345.388">
		<stop class="stop0" offset="0" stop-opacity="0" stop-color="rgb(4,6,5)"/>
		<stop class="stop1" offset="1" stop-opacity="0.054902" stop-color="rgb(1,0,0)"/>
	</linearGradient>
</defs>
<path transform="translate(0,0)" fill="rgb(58,54,59)" d="M 1314.53 150.419 C 1316.59 150.228 1319.39 150.226 1321.48 150.199 C 1384.82 149.38 1442.32 170.519 1487.85 214.555 C 1512.87 238.788 1533.77 266.942 1549.72 297.905 C 1576.89 350.448 1596.99 438.238 1598 497.361 C 1642.31 501.339 1686.52 506.256 1730.61 512.109 C 1753.41 514.918 1783.29 516.901 1804.84 523.289 C 1812.61 525.592 1820.19 529.958 1825.82 535.825 C 1843.24 553.98 1853.13 627.502 1858.35 654.372 C 1899.25 864.979 1924.01 1079.33 1943.16 1292.9 C 1949.41 1362.69 1955.81 1432.39 1959.28 1502.4 C 1960.67 1530.27 1962.84 1558.09 1962.18 1586.02 C 1961.55 1612.31 1954.6 1636.45 1935.06 1654.93 C 1921.71 1667.55 1905.64 1672.22 1889.52 1680.15 C 1857.11 1696.08 1824.38 1710.51 1791.23 1724.83 C 1755.32 1740.35 1719.1 1755.64 1681.8 1767.54 C 1660.52 1774.34 1638.85 1778.87 1616.75 1782 C 1586.27 1786.32 1555.24 1787.63 1524.49 1788.37 C 1509.44 1788.73 1491.6 1786.87 1476.87 1789.88 C 1461.11 1793.1 1426.65 1810.14 1409.91 1816.93 C 1357.57 1838.18 1303.25 1859.88 1248.26 1873.18 C 1174.72 1890.97 1099.04 1892.54 1023.75 1892.63 C 951.559 1892.95 879.367 1891.38 807.254 1887.91 C 765.311 1885.96 719.26 1882.08 678.243 1880.83 C 665.256 1879.15 648.964 1878.33 635.706 1877.25 C 608.303 1875.02 580.914 1872.61 553.54 1870.05 C 479.869 1862.59 406.618 1851.45 334.059 1836.68 C 230.534 1815.81 89.6497 1789.95 82.2583 1659.94 C 78.9894 1602.44 84.9097 1548.96 89.5638 1491.86 C 97.4504 1395.11 112.499 1300.24 127.814 1204.52 C 156.12 1029.49 191.588 855.683 234.129 683.55 C 241.417 654.902 256.954 576.611 273.542 557.727 C 279.76 550.649 288.579 546.261 297.432 543.396 C 318.436 536.598 342.736 534.756 364.635 532.422 C 402.781 528.355 440.948 525.743 479.174 522.636 C 495.606 424.605 532.838 324.953 604.292 253.479 C 649.215 208.758 709.029 182.138 772.324 178.698 C 790.41 177.594 804.159 178.091 822.124 178.995 C 830.772 178.364 839.95 177.048 848.507 176.082 C 917.536 168.29 999.982 186.579 1050.53 237.345 C 1109.62 172.738 1184.18 148.966 1270.04 155.977 C 1276.65 156.517 1304.13 151.047 1314.53 150.419 z M 678.126 513.943 C 699.251 513.721 721.749 514.159 742.86 513.208 C 749.521 512.908 760.437 507.333 767.045 506.022 C 777.014 503.485 791.554 500.461 801.763 499.495 C 839.665 494.595 877.263 490.723 915.387 487.963 C 922.449 487.451 930.263 486.985 937.245 485.998 C 938.661 458.221 946.754 430.956 955.839 404.767 C 942.095 357.942 925.24 314.104 879.896 287.062 C 866.942 279.336 832.855 266.881 817.401 268.132 C 730.49 287.743 691.946 394.467 682.029 473.111 C 680.316 486.693 679.931 500.61 678.126 513.943 z M 1051.13 371.666 C 1048.59 375.065 1037.31 396.979 1037.46 401.264 C 1038.33 425.67 1043.56 453.127 1045.03 477.979 C 1045.23 481.295 1047.02 481.828 1049.46 483.698 C 1051.5 482.43 1053.78 481.816 1053.96 479.016 C 1055.67 452.748 1060.55 425.354 1062.65 399.338 C 1063 394.999 1053.86 374.694 1051.13 371.666 z M 1481.96 488.418 C 1493.73 487.935 1516.26 491.38 1524.63 490.597 C 1518.84 432.682 1506.36 379.078 1478.14 327.734 C 1470.63 314.084 1457.22 290.368 1443.49 281.846 C 1448.38 295.167 1454.84 307.875 1459.45 322.092 C 1476.46 374.469 1480.71 433.459 1481.96 488.418 z M 642.123 330.686 C 603.896 376.065 580.881 427.653 564.799 484.542 C 562.524 492.589 558.225 507.599 557.435 515.521 C 558.454 517.325 557.816 516.925 558.711 517.384 C 570.6 516.963 590.458 516.047 601.914 516.768 C 600.288 466.325 619.351 377.072 643.085 332.628 L 642.956 331.256 L 642.123 330.686 z M 1290.79 478.191 L 1364.91 481.075 C 1375.26 481.493 1396.29 482.903 1405.74 481.904 C 1407.07 478.26 1405.46 461.012 1405.28 456.107 C 1402.43 379.504 1382.48 278.574 1301 248.991 C 1290.59 245.21 1276.62 241.969 1265.58 241.443 C 1204.65 247.688 1151.59 334.335 1144.19 391.357 C 1143.6 395.889 1150.98 412.37 1151.82 417.804 C 1155.66 435.639 1161.53 461.207 1162.71 479.019 C 1180.7 476.313 1210.81 477.123 1229.07 477.515 C 1249.64 477.905 1270.21 478.13 1290.79 478.191 z"/>
<path transform="translate(0,0)" fill="rgb(229,180,92)" d="M 550.252 557.059 C 636.15 551.808 725.456 551.596 811.65 551.936 C 863.229 552.139 915.7 555.791 967.121 557.356 C 966.899 567.08 966.826 577.221 966.139 586.889 C 965.258 606.918 964.066 626.931 962.562 646.923 C 956.052 654.43 950.283 661.334 946.542 670.668 C 937.857 692.336 945.206 718.416 963.098 733.188 C 974.744 742.653 989.626 747.194 1004.57 745.844 C 1051.41 741.486 1071.51 686.892 1038.83 650.266 C 1041.21 635.059 1041.56 601.433 1043.76 591.568 C 1044.23 581.594 1044.87 571.178 1045.14 561.236 C 1106.15 563.889 1167.88 571.277 1228.73 576.769 C 1235.21 577.353 1242.56 578.235 1248.94 579.352 L 1260.27 1647.97 L 1260.11 1666.21 C 1260.29 1667.67 1260.45 1669.09 1260.52 1670.55 C 1262.99 1723.35 1255.61 1776.35 1219.14 1817.21 C 1190.26 1849.57 1163.36 1849.77 1122.55 1851.94 C 1043.08 1856.18 962.601 1855.7 883.08 1853.43 C 737.368 1849.28 255.705 1824.1 156.489 1733.85 C 133.266 1712.73 122.031 1686.41 120.556 1655.36 C 118.615 1623.01 121.914 1576.61 124.544 1543.7 C 128.419 1493.74 133.545 1443.89 139.919 1394.18 C 163.326 1214.02 194.967 1035.02 234.742 857.744 C 245.348 808.193 256.654 758.794 268.657 709.562 C 276.288 677.534 284.206 642.939 293.537 611.402 C 296.606 603.179 297.283 592.454 303.183 585.654 C 315.165 571.843 444.793 564.194 473.355 561.84 C 472.011 571.549 471.044 581.851 469.966 591.634 C 469.894 608.98 468.054 628.951 467.808 647.321 C 460.655 656.907 454.759 666.82 453.086 678.906 C 451.135 694.032 455.404 709.302 464.917 721.223 C 474.24 732.952 487.838 739.629 502.607 740.996 C 517.347 742.314 532.015 737.79 543.453 728.4 C 562.622 712.722 568.697 686.905 558.478 664.381 C 554.741 656.142 550.365 651.176 544.578 644.426 C 545.362 625.776 544.79 601.79 547.532 583.914 C 548.423 575.329 549.674 565.576 550.252 557.059 z"/>
<path transform="translate(0,0)" fill="rgb(217,154,70)" d="M 120.556 1655.36 C 130.081 1659.22 140.266 1667.74 150.003 1672.68 C 183.616 1689.75 219.532 1701.72 256.087 1710.71 C 318.851 1725.51 382.416 1736.68 446.465 1744.18 C 587.054 1759.93 728.315 1768.97 869.766 1771.26 C 916.282 1772.22 962.814 1772.22 1009.33 1771.25 C 1089.6 1769.4 1198.52 1770.26 1244.94 1692.16 C 1249.18 1685.02 1253.96 1671.06 1260.11 1666.21 C 1260.29 1667.67 1260.45 1669.09 1260.52 1670.55 C 1262.99 1723.35 1255.61 1776.35 1219.14 1817.21 C 1190.26 1849.57 1163.36 1849.77 1122.55 1851.94 C 1043.08 1856.18 962.601 1855.7 883.08 1853.43 C 737.368 1849.28 255.705 1824.1 156.489 1733.85 C 133.266 1712.73 122.031 1686.41 120.556 1655.36 z"/>
<path transform="translate(0,0)" fill="rgb(246,222,177)" d="M 1045.14 561.236 C 1106.15 563.889 1167.88 571.277 1228.73 576.769 C 1235.21 577.353 1242.56 578.235 1248.94 579.352 L 1260.27 1647.97 L 1257.84 1649.33 C 1256.7 1644.54 1258.06 1646.36 1254.63 1643.57 C 1251.34 1607.96 1251.13 1572.48 1249.51 1536.85 L 1241.27 1350.01 C 1234.23 1198.38 1229.49 1046.65 1227.07 894.87 C 1226.8 840.444 1227.29 786.017 1228.54 731.604 C 1229.33 696.969 1231.42 645.863 1228.98 611.993 C 1167.51 602.924 1105.73 596.111 1043.76 591.568 C 1044.23 581.594 1044.87 571.178 1045.14 561.236 z"/>
<path transform="translate(0,0)" fill="rgb(246,222,177)" d="M 550.252 557.059 C 636.15 551.808 725.456 551.596 811.65 551.936 C 863.229 552.139 915.7 555.791 967.121 557.356 C 966.899 567.08 966.826 577.221 966.139 586.889 C 884.118 582.239 802.689 577.489 720.517 577.995 C 662.612 578.351 605.348 581.711 547.532 583.914 C 548.423 575.329 549.674 565.576 550.252 557.059 z"/>
<path transform="translate(0,0)" fill="rgb(246,222,177)" d="M 293.537 611.402 C 296.606 603.179 297.283 592.454 303.183 585.654 C 315.165 571.843 444.793 564.194 473.355 561.84 C 472.011 571.549 471.044 581.851 469.966 591.634 C 458.734 591.184 436.393 593.909 424.466 595.112 C 394.795 598.025 365.181 601.502 335.642 605.541 C 326.996 606.769 299.744 612.1 293.537 611.402 z"/>
<path transform="translate(0,0)" fill="rgb(246,222,177)" d="M 335.565 724.246 C 384.808 724.972 356.414 806.887 345.418 830.61 C 334.98 853.128 320.518 880.894 294.756 888.073 C 234.69 887.403 279.849 737.298 335.565 724.246 z"/>
<path transform="translate(0,0)" fill="rgb(246,222,177)" d="M 276.9 921.135 C 307.909 923.634 301.583 971.832 269.707 979.033 C 237.732 975.76 243.784 928.386 276.9 921.135 z"/>
<path transform="translate(0,0)" fill="rgb(144,191,174)" d="M 1481.11 525.959 C 1498.13 526.226 1519.2 528.376 1536.53 529.763 C 1580.1 533.132 1623.59 537.516 1666.96 542.912 C 1667.83 592.306 1668.31 641.705 1668.41 691.106 L 1671.29 1065.37 L 1673.47 1293.27 L 1674.55 1380.71 C 1674.79 1396.3 1675.76 1417.88 1675.08 1432.9 C 1676.58 1446.66 1676.39 1469.5 1676.65 1483.84 C 1677.46 1514.76 1677.55 1545.69 1676.93 1576.61 C 1680.29 1631.79 1673.18 1679.87 1635.83 1723.37 C 1609.2 1754.37 1584.14 1746.37 1549.26 1751.47 C 1577.04 1722.42 1581.77 1702.31 1581.78 1661.82 C 1578.82 1592.1 1574.2 1522.46 1567.93 1452.96 C 1554.9 1301.24 1537.18 1149.96 1514.79 999.333 C 1504.13 923.735 1491.76 848.387 1477.71 773.346 C 1473.48 751.564 1467.42 715.336 1461.87 694.904 C 1463.63 693.595 1465.37 692.264 1467.1 690.911 C 1495.59 668.472 1498.85 636.85 1476.13 608.399 C 1477.2 591.385 1477.98 569.907 1480.04 553.307 C 1480.18 543.683 1480.43 535.591 1481.11 525.959 z"/>
<path transform="translate(0,0)" fill="rgb(201,221,211)" d="M 1481.11 525.959 C 1498.13 526.226 1519.2 528.376 1536.53 529.763 C 1580.1 533.132 1623.59 537.516 1666.96 542.912 C 1667.83 592.306 1668.31 641.705 1668.41 691.106 L 1671.29 1065.37 L 1673.47 1293.27 L 1674.55 1380.71 C 1674.79 1396.3 1675.76 1417.88 1675.08 1432.9 L 1674.42 1442.84 L 1674.89 1441.75 L 1673.77 1441.36 C 1674.46 1386.42 1670.24 1331.13 1671.83 1276.19 C 1672.27 1261.23 1668.85 1243.37 1668.46 1227.83 C 1667.69 1229.98 1668.18 1228.95 1666.97 1230.93 L 1665.41 1229.55 C 1663.46 1230.63 1660.98 1234.63 1661.06 1236.7 C 1663.34 1293.47 1667.71 1350.2 1668.34 1407.03 C 1668.42 1414.58 1670.34 1436.07 1668.52 1442.74 C 1658.71 1238.59 1651.95 1034.29 1648.23 829.936 C 1647.85 791.237 1647.85 752.536 1648.24 713.837 C 1649 668.574 1650.59 619.474 1648.98 574.473 C 1630.9 570.159 1608.3 567.281 1589.85 564.868 C 1553.31 560.434 1516.71 556.58 1480.04 553.307 C 1480.18 543.683 1480.43 535.591 1481.11 525.959 z"/>
<path transform="translate(0,0)" fill="rgb(125,163,148)" d="M 1581.78 1661.82 C 1597.06 1659.31 1619.84 1648.62 1632.09 1638.89 C 1649.17 1625.32 1661.33 1610.24 1671.01 1590.71 C 1674.13 1584.43 1675.9 1584.87 1676.93 1576.61 C 1680.29 1631.79 1673.18 1679.87 1635.83 1723.37 C 1609.2 1754.37 1584.14 1746.37 1549.26 1751.47 C 1577.04 1722.42 1581.77 1702.31 1581.78 1661.82 z"/>
<path transform="translate(0,0)" fill="rgb(217,154,70)" d="M 1416.43 1618.36 C 1414.03 1595.56 1412.76 1570.48 1410.99 1547.44 L 1401.12 1423.1 L 1372.39 1066.58 L 1347.91 757.048 L 1340.47 662.303 C 1339.51 650.692 1332.66 599.083 1338.59 592.485 L 1342.25 592.37 C 1351.97 593.631 1362.36 594.956 1372.03 596.111 C 1394.56 598.8 1399.95 599.923 1404.62 621.953 C 1412.72 650.388 1419.81 691.247 1425.89 720.892 C 1445.22 817.861 1461.82 915.352 1475.69 1013.25 C 1483.7 1066.79 1490.99 1120.44 1497.56 1174.18 C 1501.18 1202.62 1506.39 1237.2 1508.13 1265.55 C 1509.63 1273.51 1510.86 1287.35 1511.83 1295.85 L 1518.46 1356.21 C 1526.5 1430.95 1532.74 1505.87 1537.18 1580.91 C 1539.14 1614.93 1542.55 1651.23 1541.71 1685.24 C 1541.52 1692.72 1537.18 1703.27 1534.43 1710.64 C 1506 1688.83 1478.5 1665.73 1449.84 1644.21 C 1438.61 1635.77 1427.26 1627.28 1416.43 1618.36 z"/>
<path transform="translate(0,0)" fill="rgb(229,180,92)" d="M 1342.25 592.37 C 1351.97 593.631 1362.36 594.956 1372.03 596.111 C 1394.56 598.8 1399.95 599.923 1404.62 621.953 C 1412.72 650.388 1419.81 691.247 1425.89 720.892 C 1445.22 817.861 1461.82 915.352 1475.69 1013.25 C 1483.7 1066.79 1490.99 1120.44 1497.56 1174.18 C 1501.18 1202.62 1506.39 1237.2 1508.13 1265.55 C 1507.76 1273.08 1497.97 1302.38 1490.33 1301.28 C 1455.1 1296.19 1440.81 1222.09 1434.23 1194.48 C 1423.27 1148.52 1417.23 1100.18 1411.33 1054.34 C 1405.66 1009.13 1399.77 963.954 1393.64 918.805 C 1379.21 813.812 1360.81 711.709 1344.96 607.393 C 1344.69 604.358 1342.88 595.993 1342.25 592.37 z"/>
<path transform="translate(0,0)" fill="rgb(246,222,177)" d="M 1342.25 592.37 C 1351.97 593.631 1362.36 594.956 1372.03 596.111 C 1394.56 598.8 1399.95 599.923 1404.62 621.953 C 1403.8 622.25 1402.75 622.63 1401.52 622.309 C 1383.28 617.533 1364.84 614.184 1346.66 609.721 C 1346.09 608.945 1345.52 608.169 1344.96 607.393 C 1344.69 604.358 1342.88 595.993 1342.25 592.37 z"/>
<path transform="translate(0,0)" fill="rgb(217,154,70)" d="M 1266.45 581.732 C 1282.62 586.944 1301.04 592.453 1316.6 598.783 L 1397.01 1618.87 C 1375.84 1648.95 1349.77 1680.51 1327.07 1709.83 C 1307.12 1735.59 1286.87 1762.02 1266.43 1787.27 C 1263.84 1787.59 1262.38 1789.77 1260.67 1791.73 L 1261.25 1790.26 L 1260.58 1791.98 C 1260.55 1790.88 1260.92 1789.9 1261.21 1788.85 L 1260.11 1791.49 C 1260.98 1788.81 1261.64 1786.32 1262.11 1783.53 L 1262.36 1781.94 C 1272.36 1755.77 1277.92 1737.68 1278.76 1709.26 C 1279.76 1675.58 1279.04 1641.33 1278.49 1607.65 L 1277.22 1488.69 L 1272.16 1105.76 L 1269.28 747.935 L 1267.67 649.433 C 1267.48 630.879 1267.99 599.868 1266.45 581.732 z"/>
<path transform="translate(0,0)" fill="rgb(125,163,148)" d="M 1818.4 1531.31 C 1815.23 1511.31 1813.76 1480.24 1812.27 1459.58 L 1802.9 1327.68 L 1769.08 868.388 L 1753.81 668.55 C 1752.52 651.88 1743.85 564.319 1746.55 554.827 L 1748.09 554.924 C 1759.63 555.364 1770.7 556.433 1782.08 557.657 C 1802.73 559.878 1799.76 563.49 1804.65 579.999 C 1831.69 707.105 1853.25 835.319 1869.25 964.283 C 1879.46 1041.33 1890.19 1121.11 1896.4 1198.4 C 1900.23 1224.64 1902.76 1254.49 1905.21 1280.91 C 1908.86 1320.23 1912.3 1359.57 1915.53 1398.92 C 1918.53 1434.73 1921.09 1470.57 1923.2 1506.45 C 1925.28 1539.81 1929.98 1583.91 1921.04 1615.78 C 1889.09 1587.86 1851.72 1558.42 1818.4 1531.31 z"/>
<path transform="translate(0,0)" fill="rgb(144,191,174)" d="M 1748.09 554.924 C 1759.63 555.364 1770.7 556.433 1782.08 557.657 C 1802.73 559.878 1799.76 563.49 1804.65 579.999 C 1831.69 707.105 1853.25 835.319 1869.25 964.283 C 1879.46 1041.33 1890.19 1121.11 1896.4 1198.4 C 1895.8 1202.96 1889.95 1214.39 1887.59 1218.78 C 1877.45 1237.66 1862.03 1224.62 1855.95 1211.46 C 1848.74 1195.63 1842.85 1177.76 1839.2 1160.63 C 1815.31 1048.31 1804.82 932.787 1789.36 819.044 C 1783.95 779.219 1778.5 740.104 1772.8 700.474 C 1768.74 670.971 1764.32 641.519 1759.56 612.122 C 1757.66 600.295 1755.12 581.114 1752.28 570.039 C 1751.48 566.696 1748.28 556.575 1748.09 554.924 z"/>
<path transform="translate(0,0)" fill="rgb(201,221,211)" d="M 1748.09 554.924 C 1759.63 555.364 1770.7 556.433 1782.08 557.657 C 1802.73 559.878 1799.76 563.49 1804.65 579.999 C 1789.85 578.562 1768.78 572.321 1752.28 570.039 C 1751.48 566.696 1748.28 556.575 1748.09 554.924 z"/>
<path transform="translate(0,0)" fill="rgb(125,163,148)" d="M 1683.93 544.703 L 1726.53 558.668 C 1732.59 627.305 1737.9 696.007 1742.45 764.761 L 1771.31 1158.82 L 1790.02 1413.23 C 1792.68 1450.4 1797.85 1496.84 1798.37 1533.1 C 1794.94 1538.56 1791.05 1544.01 1787.18 1549.18 C 1762.84 1581.79 1738.92 1614.74 1714.78 1647.49 C 1705.22 1660.87 1678.59 1698.52 1668.63 1708.8 C 1695.04 1650.67 1695.06 1635.04 1694.84 1571.59 L 1694.21 1485.44 L 1691.17 1190.41 L 1686.42 730.301 C 1685.62 668.926 1686.42 605.979 1683.93 544.703 z"/>
<path transform="translate(0,0)" fill="rgb(2,0,2)" fill-opacity="0.0117647" d="M 1167.53 334.895 C 1168.07 336.261 1167.75 335.588 1168.73 337.191 L 1169.52 338.472 C 1165.79 342.053 1166.91 340.286 1165.58 345.223 L 1165.3 345.698 C 1163.12 340.326 1164.48 339.464 1167.53 334.895 z"/>
<path transform="translate(0,0)" fill="rgb(229,180,92)" d="M 621.45 268.584 C 704.906 182.829 858.47 172.751 945.168 258.41 C 951.12 264.291 960.181 273.829 964.452 280.916 C 981.164 298.742 994.816 332.349 1001.82 355.479 C 1033.67 460.508 1023.66 573.307 1014.14 680.965 C 1012.05 704.573 995.834 711.951 982.117 691.634 C 981.13 669.343 984.866 648.761 986.193 626.71 C 992.283 525.512 998.259 394.817 936.502 308.14 C 878.561 226.82 732.548 225.693 658.976 285.427 C 565.886 361.008 531.756 488.537 523.349 603.649 C 522.299 620.084 522.099 636.562 522.749 653.018 C 523.083 663.975 524.392 678.714 522.665 689.282 C 521.595 690.709 520.419 692.052 519.147 693.301 C 515.881 696.54 511.678 698.649 506.984 698.486 C 502.187 698.318 497.788 695.301 494.739 691.774 C 484.431 679.853 493.18 583.013 494.992 565.062 C 504.019 475.672 533.139 383.111 585.886 309.692 C 596.214 295.317 607.694 279.82 621.45 268.584 z"/>
<path transform="translate(0,0)" fill="rgb(246,222,177)" d="M 621.45 268.584 C 704.906 182.829 858.47 172.751 945.168 258.41 C 951.12 264.291 960.181 273.829 964.452 280.916 C 965.358 283.431 966.032 285.215 966.648 287.851 L 965.86 289.032 C 959.837 285.581 943.07 267.72 934.623 261.298 C 910.897 243.364 883.986 230.088 855.316 222.175 C 808.94 209.726 737.026 215.919 692.153 233.526 C 664.677 244.306 654.375 253.261 631.439 266.588 L 633.261 263.017 L 632.532 261.753 C 629.444 263.082 625.902 266.744 623.199 269.146 L 621.45 268.584 z"/>
<path transform="translate(0,0)" fill="rgb(144,191,174)" d="M 1088.25 231.724 C 1175.25 156.25 1316.8 153.477 1394.91 243.708 C 1399.47 248.935 1403.74 254.407 1407.71 260.099 C 1476.19 361.483 1461.54 524.311 1451.56 639.742 C 1444.33 617.31 1442.15 591.382 1425.98 574.445 C 1430.32 478.362 1436.54 338.719 1362.91 263.585 C 1308.12 207.68 1206.75 204.951 1140.23 239.325 C 1120.92 249.306 1103.11 262.227 1087.68 277.973 C 1080.05 268.868 1073.3 260.785 1065.05 252.225 C 1072.25 245.144 1080.18 237.801 1088.25 231.724 z"/>
<path transform="translate(0,0)" fill="rgb(201,221,211)" d="M 1088.25 231.724 C 1175.25 156.25 1316.8 153.477 1394.91 243.708 C 1399.47 248.935 1403.74 254.407 1407.71 260.099 C 1406.2 261.764 1405.73 262.039 1403.9 263.386 C 1401.06 261.594 1393.81 253.774 1391.14 251.061 C 1381.84 241.589 1375.92 235.553 1364.83 228.531 C 1308.12 192.595 1261 183.052 1194.49 194.724 C 1174.86 198.17 1159.86 201.022 1140.17 208.735 C 1123.9 215.106 1107.34 225.922 1091.72 233.401 C 1090.64 233.917 1089.53 232.647 1088.25 231.724 z"/>
<path transform="translate(0,0)" fill="rgb(217,154,70)" d="M 1407.59 1634.19 L 1413.24 1639.11 C 1417.46 1641.97 1421.63 1644.94 1425.61 1648.12 C 1457.49 1673.49 1491.56 1696.73 1522.94 1722.63 C 1495.55 1738.64 1446.76 1760.34 1416.86 1771.77 C 1404.87 1777.49 1389.97 1782.67 1377.53 1787.88 C 1335.57 1805.43 1292.49 1819.12 1249.59 1833.85 C 1301.98 1768.58 1358.29 1701.67 1407.59 1634.19 z"/>
<path transform="translate(0,0)" fill="rgb(229,180,92)" d="M 1416.86 1771.77 C 1412.24 1760.91 1418.94 1685.67 1412.93 1667.33 C 1411.65 1663.43 1410.62 1643.07 1413.24 1639.11 C 1417.46 1641.97 1421.63 1644.94 1425.61 1648.12 C 1457.49 1673.49 1491.56 1696.73 1522.94 1722.63 C 1495.55 1738.64 1446.76 1760.34 1416.86 1771.77 z"/>
<path transform="translate(0,0)" fill="rgb(125,163,148)" d="M 1668.42 1735.18 C 1683.97 1713.44 1703.85 1690.45 1720.25 1668.4 C 1737.88 1644.93 1755.36 1621.35 1772.7 1597.67 C 1778.46 1589.75 1805.11 1550 1811.18 1548.75 L 1814.2 1551.27 C 1847.11 1576.81 1878.26 1602.92 1910.67 1628.37 C 1877.41 1646.06 1846.66 1660.02 1812.53 1675.71 C 1783.7 1690.26 1747.07 1703.41 1716.96 1716 C 1699.89 1723.14 1685.97 1726.1 1668.42 1735.18 z"/>
<path transform="translate(0,0)" fill="rgb(144,191,174)" d="M 1814.2 1551.27 C 1847.11 1576.81 1878.26 1602.92 1910.67 1628.37 C 1877.41 1646.06 1846.66 1660.02 1812.53 1675.71 C 1808.21 1667.68 1813.12 1641.04 1813.5 1630.19 C 1814.22 1609.47 1814.22 1588.93 1813.82 1568.17 C 1813.72 1562.94 1812.89 1556.17 1814.2 1551.27 z"/>
<path transform="translate(0,0)" fill="rgb(217,154,70)" d="M 890.917 195.322 C 898.079 195.06 907.237 196.237 914.452 197.298 C 1077.18 221.232 1136.09 387.291 1146.81 529.825 C 1139.11 529.775 1122.87 528.03 1114.54 527.462 L 1114.38 525.77 C 1104.55 431.069 1076.9 325.194 993.857 268.129 C 987.218 262.941 973.706 256.905 967.947 251.1 C 949.24 232.245 932.961 215.861 908.213 204.955 C 904.426 203.286 893.952 198.023 890.917 195.322 z"/>
<path transform="translate(0,0)" fill="rgb(125,163,148)" d="M 1338.37 172.155 C 1345.88 172.334 1355.97 174.197 1363.37 175.432 C 1468.92 193.064 1530.32 284.648 1557.58 380.883 C 1568.61 419.791 1572.78 455.294 1577.32 495.469 C 1566.97 494.293 1556.59 493.398 1546.19 492.786 C 1545.76 483.403 1544.59 472.631 1543.19 463.125 C 1532.3 388.777 1510.75 314.339 1455.22 260.402 C 1439.46 245.093 1426.53 241.489 1411.75 229.538 C 1401.44 219.602 1393.46 209.016 1381.94 200.252 C 1368.34 189.911 1354.09 182.25 1339.71 173.228 C 1339.26 172.87 1338.82 172.513 1338.37 172.155 z"/>
<path transform="translate(0,0)" fill="rgb(217,154,70)" d="M 761.47 266.364 L 762.454 266.563 L 762.444 268.18 C 757.582 271.93 752.721 275.769 748.027 279.724 C 683.466 334.123 661.29 432.659 655.312 514.078 C 645.25 514.045 634.809 514.279 624.72 514.381 L 623.631 513.979 C 622.313 510.442 625.569 487.706 626.183 482.297 C 633.359 418.695 649.229 356.297 684.792 302.308 C 701.123 277.515 733.824 271.23 761.47 266.364 z"/>
<path transform="translate(0,0)" fill="rgb(201,221,211)" d="M 1168.77 514.746 C 1229.59 514.365 1290.41 515.429 1351.17 517.938 C 1369.5 518.596 1388.52 518.677 1406.73 519.834 L 1405.92 545.714 C 1405.55 551.017 1405.22 556.322 1404.91 561.629 C 1372.82 554.691 1337.4 550.693 1304.87 545.501 C 1260 540.495 1215.1 535.892 1170.15 531.692 C 1169.17 525 1168.92 521.52 1168.77 514.746 z"/>
<path transform="translate(0,0)" fill="rgb(144,191,174)" d="M 1304.87 545.501 C 1306.14 544.68 1309.36 542.653 1310.83 542.473 C 1316.21 541.813 1321.97 542.145 1327.46 542.49 C 1352.81 544.079 1378.16 546.054 1403.51 547.441 C 1404.81 547.512 1405.29 546.538 1405.92 545.714 C 1405.55 551.017 1405.22 556.322 1404.91 561.629 C 1372.82 554.691 1337.4 550.693 1304.87 545.501 z"/>
<path transform="translate(0,0)" fill="rgb(2,0,2)" fill-opacity="0.0196078" d="M 1484.16 354.352 C 1487.73 356.481 1489.12 361.485 1490.92 365.599 C 1486.36 363.686 1485.72 358.815 1484.16 354.352 z"/>
<path transform="translate(0,0)" fill="url(#Gradient3)" d="M 1478.3 341.565 C 1481.63 343.741 1481.6 344.02 1483.02 347.93 L 1481.42 347.852 C 1478.86 345.875 1479.45 345.375 1478.3 341.565 z"/>
<path transform="translate(0,0)" fill="url(#Gradient2)" d="M 590.702 425.795 L 592.28 427.218 C 591.871 429.878 590.101 431.792 588.473 434.245 L 587.419 434.044 L 586.69 432.588 C 588.211 430.218 589.35 428.232 590.702 425.795 z"/>
<path transform="translate(0,0)" fill="rgb(125,163,148)" d="M 1208.3 240.262 L 1208.88 240.325 L 1209.65 241.317 C 1206.13 244.807 1201.72 247.597 1197.86 250.767 C 1164.43 278.237 1144.35 315.747 1130.64 355.918 L 1125.49 343.83 C 1121.81 334.598 1117.28 326.41 1112.65 317.652 C 1118.94 303.776 1128.81 287.448 1136.34 274.196 C 1149.29 251.426 1183.36 245.52 1208.3 240.262 z"/>
<path transform="translate(0,0)" fill="rgb(217,154,70)" d="M 1035.72 687.911 L 1036.25 688.533 C 1040.45 703.547 1025.97 722.419 1011.55 727.37 C 1001.3 730.85 990.08 730.027 980.45 725.09 C 968.049 718.739 964.15 710.473 960.475 698.222 C 960.083 695.713 959.951 694.675 959.884 692.145 C 963.655 694.183 968.24 714.073 988.575 721.079 C 996.824 723.905 1005.88 723.18 1013.57 719.078 C 1026.57 712.226 1031.55 700.932 1035.72 687.911 z"/>
<path transform="translate(0,0)" fill="rgb(217,154,70)" d="M 545.65 682.877 L 546.238 683.519 C 547.731 688.377 544.899 698.412 542.799 703.023 C 538.485 712.494 530.198 719.521 520.397 722.893 C 510.291 726.273 499.239 725.35 489.834 720.339 C 479.67 715.001 474.28 707.374 470.718 696.741 C 469.706 692.653 469.652 692.425 469.562 688.233 C 471.923 689.173 480.488 711.521 494.645 715.955 C 523.234 724.91 538.304 705.331 545.65 682.877 z"/>
<path transform="translate(0,0)" fill="rgb(144,191,174)" d="M 1013.3 316.761 C 1021.42 319.282 1031.42 338.686 1038.57 347.503 C 1036.29 352.192 1033.71 356.99 1031.3 361.638 C 1029.76 364.632 1030.65 363.756 1028.09 365.634 C 1025.58 357.641 1012.75 321.785 1013.3 316.761 z"/>
<path transform="translate(0,0)" fill="rgb(144,191,174)" d="M 962.868 464.515 L 964.212 465.978 C 965.729 473.953 967.756 508.944 966.631 516.895 C 964.215 518.454 959.03 517.865 955.877 517.815 L 953.929 517.162 C 952.581 511.149 960.856 471.823 962.868 464.515 z"/>
<path transform="translate(0,0)" fill="rgb(201,221,211)" d="M 1070.57 518.428 C 1076.62 518.081 1087.82 516.42 1091.63 522.141 C 1088.29 525.788 1079.62 523.764 1075.07 523.162 C 1069.77 522.986 1053.23 522.576 1049.09 520.036 C 1055.71 518.95 1063.76 518.765 1070.57 518.428 z"/>
<path transform="translate(0,0)" fill="rgb(125,163,148)" d="M 1078.2 448.709 L 1079.7 450.543 C 1080.87 456.553 1084.77 477.271 1083.6 482.579 C 1082.1 482.435 1076.79 482.126 1076.53 480.49 C 1075.25 472.188 1076.3 456.755 1078.2 448.709 z"/>
<path transform="translate(0,0)" fill="rgb(125,163,148)" d="M 1471.98 642.566 L 1473.08 643.827 C 1476.59 656.231 1468.68 668.089 1459.71 675.853 L 1458.66 674.153 C 1458.86 670.215 1466.51 659.938 1468.31 654.764 C 1469.91 650.203 1470.79 647.412 1471.98 642.566 z"/>
<path transform="translate(0,0)" fill="rgb(137,100,68)" d="M 1244.34 1813.13 C 1249.94 1803.6 1256.43 1790.62 1262.36 1781.94 L 1262.11 1783.53 C 1261.64 1786.32 1260.98 1788.81 1260.11 1791.49 L 1261.21 1788.85 C 1260.92 1789.9 1260.55 1790.88 1260.58 1791.98 L 1261.25 1790.26 L 1260.67 1791.73 C 1262.38 1789.77 1263.84 1787.59 1266.43 1787.27 C 1264.84 1792.22 1249.44 1809.39 1244.34 1813.13 z"/>
<path transform="translate(0,0)" fill="rgb(84,82,83)" d="M 1099.79 291.523 C 1101.65 291.282 1103.39 292.492 1103.81 294.319 C 1104.24 296.147 1103.2 297.996 1101.42 298.594 C 1100.11 299.037 1098.66 298.694 1097.68 297.711 C 1096.7 296.727 1096.36 295.272 1096.81 293.959 C 1097.26 292.646 1098.42 291.701 1099.79 291.523 z"/>
<path transform="translate(0,0)" fill="rgb(84,82,83)" fill-opacity="0.0117647" d="M 1928.05 1665.82 L 1929.56 1666.09 C 1929.25 1669.76 1930.41 1669.3 1929.08 1673.34 C 1925.64 1675.08 1927.37 1674.85 1923.76 1674.31 L 1919.01 1673.34 L 1918.98 1672.25 C 1921.98 1670.07 1925 1667.92 1928.05 1665.82 z"/>
<path transform="translate(0,0)" fill="url(#Gradient1)" d="M 576.354 274.613 C 578.228 276.541 577.488 275.409 577.927 278.468 C 575.629 281.887 573.802 283.713 570.981 286.757 C 569.487 281.865 573.369 281.478 576.354 274.613 z"/>
<path transform="translate(0,0)" fill="rgb(2,0,2)" fill-opacity="0.0235294" d="M 680.013 193.312 C 680.311 193.519 681.333 195.087 681.587 195.452 L 675.893 199.217 L 673.729 198.454 C 674.75 195.698 676.82 195.295 680.013 193.312 z"/>
<path transform="translate(0,0)" fill="rgb(2,0,2)" fill-opacity="0.0705882" d="M 660.182 203.899 L 660.97 205.462 C 658.982 208.04 654.493 209.973 651.459 211.587 L 650.755 210.159 C 654.258 208.057 656.843 206.268 660.182 203.899 z"/>
<path transform="translate(0,0)" fill="rgb(2,0,2)" fill-opacity="0.0156863" d="M 1849.92 1703.47 L 1852.01 1704.67 C 1850.47 1707.16 1849.24 1706.93 1845.88 1708.33 L 1844.28 1707.72 C 1845.92 1705.19 1847.05 1705.09 1849.92 1703.47 z"/>
<path transform="translate(0,0)" fill="rgb(2,0,2)" fill-opacity="0.0431373" d="M 1924.23 992.492 L 1925.3 992.208 L 1926.07 993.374 C 1926.12 996.434 1926.5 1000.56 1925.42 1003.24 C 1924.46 1001.54 1924.38 994.923 1924.23 992.492 z"/>
</svg>