<?xml version="1.0" encoding="UTF-8"?>
<!-- Generator: visioncortex VTracer 0.6.12 -->
<svg version="1.1" xmlns="http://www.w3.org/2000/svg" width="256" height="256">
<path d="M0 0 C3.627 1.399 6.379 3.279 8.938 6.25 C10.956 11.475 10.647 15.489 8.5 20.5 C8.005 21.325 7.51 22.15 7 23 C7.542 23.17 8.084 23.339 8.642 23.514 C14.361 25.356 19.809 27.563 25.281 30.035 C26.157 30.426 27.033 30.818 27.935 31.221 C30.792 32.498 33.646 33.78 36.5 35.062 C40.532 36.867 44.565 38.668 48.598 40.469 C49.622 40.927 50.646 41.384 51.701 41.856 C63.305 47.039 74.946 52.136 86.592 57.222 C89.071 58.304 91.549 59.388 94.027 60.473 C94.75 60.787 95.473 61.102 96.218 61.427 C107.783 66.49 107.783 66.49 109.062 69.5 C109 72 109 72 107.838 73.479 C105.545 75.376 103.208 76.538 100.523 77.828 C99.396 78.372 98.268 78.917 97.106 79.478 C95.862 80.069 94.619 80.66 93.375 81.25 C92.071 81.875 90.767 82.499 89.463 83.124 C81.452 86.949 73.396 90.671 65.308 94.33 C64.609 94.647 63.909 94.963 63.188 95.289 C61.21 96.183 59.232 97.075 57.253 97.966 C46.083 103.006 35.001 108.223 23.934 113.484 C22.181 114.316 20.428 115.148 18.675 115.98 C14.449 117.985 10.224 119.992 6 122 C6 122.557 6.001 123.114 6.001 123.688 C6.008 137.251 5.982 150.814 5.92 164.376 C5.891 170.935 5.873 177.494 5.88 184.053 C5.886 190.382 5.864 196.709 5.821 203.038 C5.81 205.453 5.81 207.869 5.82 210.285 C5.832 213.666 5.807 217.045 5.773 220.427 C5.785 221.428 5.797 222.429 5.81 223.461 C5.691 230.035 5.691 230.035 3.74 232.757 C0.895 235.299 -0.796 235.993 -4.625 236.125 C-8.738 234.754 -9.742 233.668 -12 230 C-12.38 227.065 -12.531 224.511 -12.492 221.581 C-12.497 220.735 -12.501 219.89 -12.506 219.019 C-12.517 216.188 -12.5 213.357 -12.482 210.526 C-12.485 208.495 -12.489 206.465 -12.494 204.434 C-12.503 200.063 -12.499 195.691 -12.486 191.319 C-12.466 184.407 -12.475 177.495 -12.49 170.583 C-12.519 154.661 -12.508 138.74 -12.497 122.819 C-12.488 108.229 -12.486 93.64 -12.517 79.051 C-12.531 72.179 -12.525 65.308 -12.504 58.436 C-12.495 54.161 -12.502 49.887 -12.514 45.612 C-12.516 43.63 -12.512 41.647 -12.5 39.665 C-12.484 36.958 -12.493 34.253 -12.508 31.546 C-12.503 31.154 -12.503 31.154 -12.476 29.169 C-12.541 23.908 -13.897 21.165 -17 17 C-17.607 12.754 -17.326 10.64 -15.375 6.812 C-10.871 1.479 -7.09 -0.995 0 0 Z " fill="#424140" transform="translate(82,10)"/>
<path d="M0 0 C5.681 1.894 10.511 3.573 15.785 6.121 C21.733 8.956 27.719 11.685 33.746 14.348 C34.602 14.726 35.459 15.105 36.341 15.494 C39.039 16.685 41.738 17.874 44.438 19.062 C46.326 19.896 48.214 20.729 50.103 21.562 C66.386 28.743 82.687 35.885 99 43 C99 43.99 99 44.98 99 46 C98.697 46.138 98.697 46.138 97.162 46.835 C85.08 52.332 73.041 57.902 61.081 63.657 C51.72 68.153 42.31 72.541 32.893 76.918 C27.239 79.547 21.59 82.185 15.973 84.891 C15.53 85.103 15.53 85.103 13.292 86.179 C11.69 86.952 10.09 87.729 8.493 88.512 C3.33 91 3.33 91 0 91 C0 60.97 0 30.94 0 0 Z " fill="#F6C25E" transform="translate(87,36)"/>
<path d="M0 0 C2.97 0 5.94 0 9 0 C9.07 26.564 9.123 53.127 9.155 79.691 C9.171 92.025 9.192 104.358 9.226 116.691 C9.256 127.437 9.276 138.183 9.282 148.929 C9.286 154.622 9.295 160.315 9.317 166.009 C9.337 171.362 9.344 176.715 9.339 182.068 C9.34 184.038 9.346 186.007 9.358 187.977 C9.372 190.657 9.369 193.335 9.361 196.015 C9.37 196.803 9.378 197.591 9.387 198.403 C9.369 200.568 9.369 200.568 9 204 C6 206 6 206 3.375 205.688 C1 205 1 205 0 204 C-0.098 201.37 -0.13 198.766 -0.12 196.135 C-0.121 195.301 -0.122 194.467 -0.123 193.608 C-0.125 190.792 -0.119 187.976 -0.114 185.16 C-0.113 183.15 -0.113 181.14 -0.114 179.13 C-0.114 173.655 -0.108 168.18 -0.101 162.705 C-0.095 156.99 -0.095 151.275 -0.093 145.56 C-0.09 134.73 -0.082 123.9 -0.072 113.07 C-0.061 100.744 -0.055 88.417 -0.05 76.091 C-0.04 50.727 -0.022 25.364 0 0 Z " fill="#754C1E" transform="translate(74,36)"/>
<path d="M0 0 C0.33 0.165 0.33 0.165 2 1 C1.67 28.72 1.34 56.44 1 85 C7.414 82.401 13.829 79.802 20.438 77.125 C24.291 75.567 28.146 74.01 32 72.453 C37.799 70.11 43.595 67.762 49.378 65.38 C51.167 64.644 52.958 63.911 54.748 63.179 C56.827 62.329 58.904 61.472 60.976 60.606 C61.88 60.238 62.784 59.871 63.715 59.492 C64.097 59.334 64.097 59.334 66.031 58.535 C68 58 68 58 71 59 C52.522 67.748 34.04 76.484 15.483 85.063 C14.95 85.31 14.95 85.31 12.25 86.559 C11.327 86.985 10.404 87.411 9.453 87.849 C7.902 88.577 6.368 89.341 4.859 90.153 C3 91 3 91 0 91 C0 60.97 0 30.94 0 0 Z " fill="#CD9B49" transform="translate(87,36)"/>
<path d="M0 0 C2.753 1.796 4.526 3.053 6 6 C6.493 10.352 6.518 12.3 3.875 15.875 C0.648 18.26 -0.999 19 -5 19 C-8.201 17.83 -10.299 16.924 -12.375 14.188 C-13.217 11.239 -13.374 9.057 -13 6 C-9.246 0.37 -6.731 -0.57 0 0 Z " fill="#7D5423" transform="translate(82,14)"/>
<path d="M0 0 C4.382 0.658 8.166 2.251 12.168 4.07 C12.869 4.384 13.569 4.697 14.291 5.02 C16.592 6.05 18.89 7.088 21.188 8.125 C22.784 8.841 24.381 9.557 25.978 10.271 C28.456 11.381 30.934 12.491 33.411 13.602 C42.34 17.608 51.294 21.556 60.25 25.5 C61.745 26.159 63.24 26.818 64.735 27.477 C68.156 28.985 71.578 30.493 75 32 C70.991 33.336 69.479 32.281 65.57 30.746 C65.245 30.62 65.245 30.62 63.598 29.982 C61.437 29.142 59.281 28.29 57.125 27.438 C54.847 26.549 52.568 25.663 50.289 24.777 C48.692 24.156 47.095 23.534 45.499 22.911 C39.531 20.583 33.546 18.305 27.551 16.051 C26.701 15.731 25.851 15.411 24.976 15.082 C21.635 13.826 18.293 12.571 14.951 11.318 C12.631 10.449 10.314 9.576 7.996 8.703 C7.3 8.443 6.603 8.183 5.886 7.916 C1.114 6.114 1.114 6.114 0 5 C-0.041 3.334 -0.043 1.666 0 0 Z " fill="#F6E0AF" transform="translate(88,37)"/>
<path d="M0 0 C1.32 0.66 2.64 1.32 4 2 C3.648 7.461 3.648 7.461 3 10 C0.938 11.5 0.938 11.5 -1 12 C-3 10 -3 10 -3.312 6.562 C-3 3 -3 3 -1.5 1.062 C-1.005 0.712 -0.51 0.361 0 0 Z " fill="#FCE4B3" transform="translate(96,51)"/>
</svg>
