<?xml version="1.0" encoding="UTF-8"?>
<!-- Generator: visioncortex VTracer 0.6.12 -->
<svg version="1.1" xmlns="http://www.w3.org/2000/svg" width="256" height="256">
<path d="M0 0 C5.793 5.535 9.589 12.075 13.375 19.062 C14.519 21.13 15.665 23.196 16.812 25.262 C17.362 26.255 17.911 27.248 18.477 28.271 C21.412 33.529 24.545 38.666 27.673 43.811 C38.96 62.427 50.071 81.149 61.062 99.941 C67.99 111.784 74.936 123.613 82 135.375 C82.617 136.404 83.234 137.433 83.869 138.493 C86.505 142.882 89.153 147.262 91.863 151.605 C92.284 152.286 92.705 152.967 93.139 153.668 C94.205 155.39 95.284 157.103 96.363 158.816 C100.135 166.153 100.602 172.941 99 181 C96.52 188.711 91.037 194.601 83.938 198.375 C78.365 201.085 72.411 201.148 66.322 201.14 C65.569 201.143 64.815 201.146 64.039 201.149 C61.524 201.158 59.01 201.16 56.495 201.161 C54.688 201.166 52.881 201.171 51.073 201.176 C46.17 201.189 41.267 201.196 36.364 201.2 C33.298 201.203 30.232 201.207 27.166 201.212 C17.566 201.225 7.966 201.235 -1.634 201.239 C-12.702 201.243 -23.769 201.261 -34.837 201.29 C-43.402 201.312 -51.967 201.322 -60.532 201.323 C-65.643 201.324 -70.754 201.33 -75.865 201.348 C-80.675 201.364 -85.484 201.366 -90.294 201.358 C-92.054 201.357 -93.814 201.361 -95.574 201.371 C-108.062 201.437 -119.586 201.288 -129 192 C-134.355 185.419 -136.282 178.583 -136 170.188 C-135.256 163.424 -132.574 158.687 -129 153 C-128.303 151.837 -127.609 150.671 -126.918 149.504 C-125.015 146.295 -123.089 143.1 -121.156 139.909 C-113.338 126.998 -105.669 113.999 -98 101 C-69.537 52.767 -69.537 52.767 -56.086 30.497 C-53.377 26.004 -50.699 21.503 -48.133 16.926 C-42.19 6.356 -37.164 -1.411 -25 -5 C-16.675 -7.15 -7.006 -4.903 0 0 Z " fill="#EA6B57" transform="translate(146,30)"/>
<path d="M -15.68 -6.1 L -24.15 -5.62 L -32.46 -2.29 L -38.81 2.67 L -43.85 9.01 L -130.25 154.25 L -134.19 161.62 L -136.37 169.84 L -135.84 178.49 L -133.23 186.28 L -128.07 193.43 L -120.86 198.18 L -113.07 200.68 L -104.81 201.64 L 72.42 201.43 L 80.73 200.07 L 88.36 196.09 L 94.48 190.27 L 98.74 182.93 L 100.24 174.33 L 99.52 166.15 L 96.4 158.13 L 78.85 129.33 L 44.63 71.27 L 22.93 35.17 L 10.5 13.11 L 5.89 6.1 L 0.25 -0.32 L -7.3 -4.22 z M -32.21 5.11 L -23.59 0.48 L -13.43 0.04 L -12.27 0.42 L -4.17 4.55 L 2.4 11.77 L 15.55 33.41 L 36.71 69.68 L 88.38 156.19 L 92.64 164.1 L 94.35 173.96 L 91.91 182.74 L 91.04 184.28 L 84.5 191.3 L 75.96 194.88 L 66.34 195.5 L -101.62 195.28 L -110.16 195.03 L -111.32 194.82 L -119.96 191.83 L -120.87 191.11 L -126.94 184.62 L -130.21 174.68 L -129.19 165.88 L -128.75 164.48 L -124.6 156.78 L -107.55 127.88 L -60.18 48.55 L -43.25 19.58 L -38.49 12.08 z" fill="#464448" transform="translate(146,30)"/>
<path d="M0 0 C4.017 4.625 6.937 9.788 10 15.062 C11.16 17.043 12.32 19.024 13.48 21.004 C13.773 21.504 13.773 21.504 15.255 24.036 C17.908 28.544 20.61 33.021 23.312 37.5 C38.975 63.512 38.975 63.512 38 72 C36.291 77.303 33.76 80.981 29 84 C24.785 86.098 20.937 86.288 16.315 86.267 C15.549 86.272 14.783 86.276 13.993 86.281 C11.429 86.294 8.865 86.292 6.302 86.291 C4.462 86.297 2.622 86.303 0.782 86.311 C-4.214 86.329 -9.21 86.333 -14.206 86.335 C-17.328 86.336 -20.451 86.34 -23.573 86.346 C-34.469 86.364 -45.364 86.372 -56.26 86.371 C-66.411 86.369 -76.563 86.391 -86.714 86.422 C-95.434 86.448 -104.153 86.459 -112.872 86.458 C-118.078 86.457 -123.284 86.463 -128.49 86.484 C-133.388 86.503 -138.285 86.504 -143.183 86.489 C-144.978 86.487 -146.772 86.492 -148.567 86.504 C-151.023 86.519 -153.478 86.51 -155.934 86.494 C-156.639 86.505 -157.344 86.515 -158.07 86.526 C-164.658 86.435 -169.876 84.178 -174.438 79.5 C-175.877 77.197 -176.432 75.602 -177 73 C-176.704 73.139 -176.704 73.139 -175.207 73.84 C-174.812 74.021 -174.812 74.021 -172.812 74.938 C-172.035 75.297 -171.258 75.657 -170.457 76.027 C-165.701 77.91 -161.25 78.127 -156.164 78.134 C-155.489 78.136 -154.814 78.138 -154.118 78.141 C-151.863 78.147 -149.608 78.146 -147.353 78.145 C-145.733 78.148 -144.113 78.152 -142.493 78.155 C-138.096 78.164 -133.699 78.167 -129.302 78.167 C-126.552 78.168 -123.803 78.17 -121.053 78.173 C-111.452 78.182 -101.85 78.186 -92.249 78.185 C-83.314 78.185 -74.378 78.195 -65.442 78.211 C-57.76 78.224 -50.079 78.229 -42.397 78.229 C-37.814 78.229 -33.23 78.231 -28.647 78.242 C-24.332 78.252 -20.017 78.252 -15.702 78.245 C-14.125 78.243 -12.547 78.246 -10.969 78.252 C11.963 78.334 11.963 78.334 19.363 71.039 C22.809 66.746 23.996 62.805 24.004 57.32 C23.057 48.691 19.137 41.591 15.101 34.069 C13.32 30.722 11.629 27.331 9.938 23.938 C9.611 23.287 9.285 22.636 8.949 21.966 C5.491 15.043 2.232 8.03 -1 1 C-0.67 0.67 -0.34 0.34 0 0 Z " fill="#D65240" transform="translate(198,135)"/>
<path d="M0 0 C5.303 4.656 5.303 4.656 5.931 8.509 C5.926 9.333 5.922 10.158 5.917 11.007 C5.917 11.948 5.916 12.888 5.916 13.857 C5.897 14.871 5.878 15.885 5.859 16.93 C5.854 17.46 5.854 17.46 5.827 20.145 C5.66 30.872 4.976 41.551 4.073 52.239 C3.807 55.435 3.571 58.633 3.336 61.832 C3.168 63.891 2.999 65.949 2.828 68.008 C2.761 68.951 2.694 69.895 2.626 70.867 C2.12 76.465 1.22 79.92 -2.438 84.25 C-5.654 85.858 -8.959 85.863 -12.438 85.25 C-15.548 82.735 -18.111 80.501 -18.703 76.418 C-18.769 75.675 -18.835 74.931 -18.902 74.165 C-18.979 73.319 -19.056 72.472 -19.135 71.6 C-19.214 70.676 -19.293 69.752 -19.375 68.801 C-19.46 67.837 -19.545 66.874 -19.633 65.881 C-19.813 63.824 -19.991 61.767 -20.167 59.709 C-20.43 56.647 -20.703 53.586 -20.977 50.525 C-21.512 44.437 -21.995 38.346 -22.438 32.25 C-22.476 31.722 -22.476 31.722 -22.67 29.049 C-22.885 25.923 -23.073 22.797 -23.25 19.668 C-23.315 18.724 -23.38 17.78 -23.448 16.807 C-23.733 11.082 -23.288 7.273 -20.438 2.25 C-14.205 -2.711 -7.194 -3.662 0 0 Z " fill="#FCEED2" transform="translate(136.4375,78.75)"/>
<path d="M0 0 C3.45 2.487 5.189 4.976 6.688 8.938 C7.379 13.777 6.276 16.831 3.688 20.938 C0.168 24.768 -3.068 25.683 -8.098 26.043 C-12.191 25.848 -14.974 24.037 -18.062 21.5 C-21.337 17.407 -21.848 14.199 -21.312 8.938 C-19.942 5.331 -18.032 2.575 -15.125 0 C-9.941 -1.958 -5.234 -1.679 0 0 Z " fill="#FCECD2" transform="translate(135.3125,175.0625)"/>
<path d="M0 0 C0.639 0.33 1.279 0.66 1.938 1 C1.938 1.33 1.938 1.66 1.938 2 C1.02 2.075 0.102 2.15 -0.844 2.227 C-8.876 3.087 -14.409 4.086 -20.062 10 C-21.03 11.313 -21.957 12.657 -22.848 14.023 C-23.367 14.819 -23.886 15.614 -24.42 16.433 C-27.313 20.956 -30.165 25.503 -33 30.062 C-34.318 32.176 -35.635 34.289 -36.953 36.402 C-38.323 38.602 -39.693 40.801 -41.062 43 C-43.79 47.376 -46.52 51.751 -49.25 56.125 C-49.873 57.125 -50.496 58.126 -51.138 59.156 C-54.048 63.818 -56.977 68.453 -60.062 73 C-60.392 72.34 -60.722 71.68 -61.062 71 C-60.237 69.182 -60.237 69.182 -58.879 66.941 C-58.371 66.094 -57.864 65.247 -57.341 64.374 C-56.775 63.446 -56.208 62.518 -55.625 61.562 C-54.422 59.561 -53.218 57.56 -52.016 55.559 C-51.373 54.495 -50.73 53.431 -50.068 52.335 C-48.022 48.933 -45.999 45.519 -43.984 42.098 C-40.032 35.386 -36.053 28.69 -32.062 22 C-31.539 21.118 -31.016 20.237 -30.477 19.328 C-29.142 17.086 -27.793 14.854 -26.438 12.625 C-26.072 12.008 -25.707 11.39 -25.331 10.754 C-19.467 1.246 -10.97 -3.582 0 0 Z " fill="#EFA596" transform="translate(135.0625,35)"/>
</svg>
