<svg version="1.1" xmlns="http://www.w3.org/2000/svg" viewBox="18.21 -9.81 2006.72 2051.17" width="250.51" height="256">
<defs>
	<linearGradient id="Gradient1" gradientUnits="userSpaceOnUse" x1="1416.65" y1="160.137" x2="1414.48" y2="165.209">
		<stop class="stop0" offset="0" stop-opacity="0" stop-color="rgb(23,30,22)"/>
		<stop class="stop1" offset="1" stop-opacity="0.0235294" stop-color="rgb(0,0,0)"/>
	</linearGradient>
	<linearGradient id="Gradient2" gradientUnits="userSpaceOnUse" x1="1307.58" y1="833.131" x2="1241.38" y2="772.534">
		<stop class="stop0" offset="0" stop-opacity="1" stop-color="rgb(116,170,151)"/>
		<stop class="stop1" offset="1" stop-opacity="1" stop-color="rgb(157,214,194)"/>
	</linearGradient>
</defs>
<path transform="translate(0,0)" fill="rgb(55,50,56)" d="M 1752.31 445.163 C 1757.72 453.821 1769.65 468.852 1775.99 477.649 C 1788.31 494.861 1799.95 512.553 1810.87 530.684 C 1888.73 659.439 1934.35 805.087 1943.86 955.251 C 1948.96 1025.72 1946.09 1094.1 1937.83 1164.13 C 1916.33 1346.53 1836.43 1510.87 1716.99 1648.91 C 1579.07 1806.1 1391.73 1911.64 1185.83 1948.16 C 1101.84 1962.57 1007.77 1965.39 922.938 1956.32 C 739.668 1936.6 566.648 1861.91 426.609 1742.05 C 205.434 1549.84 94.1751 1295.03 101.344 1002.53 C 105.607 780.222 188.211 566.559 334.595 399.2 C 491.635 216.199 715.053 103.226 955.524 85.2211 C 1199.3 66.1565 1440.4 146.666 1623.81 308.378 C 1638.12 320.885 1657.55 341.705 1670.58 351.98 C 1675.37 356.818 1680.77 362.55 1685.65 367.165 C 1690.44 373.777 1708.47 391.851 1715.29 399.229 L 1724.23 410.037 C 1728.8 415.664 1748.69 442.361 1752.31 445.163 z"/>
<path transform="translate(0,0)" fill="rgb(253,241,213)" d="M 410.553 1640.62 C 330.565 1559.32 267.514 1462.95 225.054 1357.1 C 161.236 1201.67 147.082 1019.03 179.373 854.567 C 191.783 791.883 210.627 730.647 235.606 671.83 C 325.302 461.951 493.564 295.503 704.403 208.087 C 904.846 125.748 1142.21 123.135 1342.56 207.125 C 1556.46 295.917 1726.62 465.618 1815.99 679.276 C 1834.33 721.121 1845.28 757.417 1856.72 801.523 C 1902.04 976.348 1894.59 1177.35 1828.42 1346.36 C 1745.04 1562.02 1579.11 1735.52 1367.39 1828.45 C 1058.93 1963.1 690.274 1902.1 443.401 1672.86 C 434.446 1664.54 417.858 1650.15 410.553 1640.62 z"/>
<path transform="translate(0,0)" fill="rgb(243,216,170)" d="M 1815.99 679.276 C 1834.33 721.121 1845.28 757.417 1856.72 801.523 C 1902.04 976.348 1894.59 1177.35 1828.42 1346.36 C 1745.04 1562.02 1579.11 1735.52 1367.39 1828.45 C 1058.93 1963.1 690.274 1902.1 443.401 1672.86 C 434.446 1664.54 417.858 1650.15 410.553 1640.62 L 411.736 1638.18 C 418.493 1637.7 442.496 1655.84 449.879 1660.34 C 494.401 1687.54 537.823 1711.99 585.36 1733.61 C 679.032 1776.14 779.163 1802.68 881.602 1812.15 C 1107.44 1833.27 1332.46 1764.06 1507.37 1619.65 C 1718.37 1442.85 1838.4 1180.34 1834.1 905.104 C 1833.56 862.323 1830.99 819.591 1826.41 777.052 C 1824.85 763.056 1823.06 749.086 1821.03 735.149 C 1818.54 718.542 1814.22 697.372 1815.8 681.073 L 1815.99 679.276 z"/>
<path transform="translate(0,0)" fill="rgb(55,50,56)" d="M 1061.21 930.808 C 1091.12 906 1124.92 874.243 1154.07 848.157 L 1321.05 698.416 C 1338.74 682.45 1419.56 605.949 1432.5 601.074 C 1438.17 598.938 1444.65 598.615 1450.23 601.228 C 1454.38 603.145 1457.58 606.654 1459.11 610.962 C 1462.22 619.665 1460.35 626.058 1456.73 633.921 C 1458.59 637.887 1462.75 645.336 1461 648.907 C 1452.52 666.171 1435.85 687.155 1425.16 702.851 L 1245.43 961.626 C 1231.74 981.276 1217.94 1000.85 1204.04 1020.36 C 1196.32 1031.05 1186.63 1043.18 1179.64 1053.98 C 1189.7 1089.38 1183.93 1131.59 1166.29 1163.67 C 1128.24 1232.87 1039.49 1254.24 972.595 1213.89 C 958.626 1205.47 937.547 1194.42 938.569 1176.37 C 859.796 1115.16 867.105 994.073 953.782 944.343 C 986.431 925.918 1025.01 921.057 1061.21 930.808 z"/>
<path transform="translate(0,0)" fill="rgb(243,216,170)" d="M 1159.73 1034.06 L 1371.81 748.942 C 1399.33 711.479 1430.4 671.678 1456.73 633.921 C 1458.59 637.887 1462.75 645.336 1461 648.907 C 1452.52 666.171 1435.85 687.155 1425.16 702.851 L 1245.43 961.626 C 1231.74 981.276 1217.94 1000.85 1204.04 1020.36 C 1196.32 1031.05 1186.63 1043.18 1179.64 1053.98 C 1189.7 1089.38 1183.93 1131.59 1166.29 1163.67 C 1128.24 1232.87 1039.49 1254.24 972.595 1213.89 C 958.626 1205.47 937.547 1194.42 938.569 1176.37 C 943.908 1179.9 949.312 1183.47 954.916 1186.57 C 988.076 1205.12 1027.29 1209.59 1063.77 1198.98 C 1099.25 1188.51 1129.15 1164.44 1146.97 1132.03 C 1162.25 1103.67 1168.94 1065.34 1159.73 1034.06 z"/>
<path transform="translate(0,0)" fill="rgb(241,187,95)" d="M 961.03 1149.1 C 925.871 1122.62 910.939 1077.04 923.619 1034.89 C 936.298 992.744 973.901 962.964 1017.83 960.28 C 1061.76 957.595 1102.71 982.574 1120.43 1022.86 C 1139.67 1066.63 1126.95 1117.86 1089.48 1147.54 C 1052 1177.22 999.217 1177.86 961.03 1149.1 z"/>
<path transform="translate(0,0)" fill="rgb(226,160,65)" d="M 1120.43 1022.86 C 1139.67 1066.63 1126.95 1117.86 1089.48 1147.54 C 1052 1177.22 999.217 1177.86 961.03 1149.1 C 966.803 1147.78 979.267 1148.96 985.496 1149.71 C 1046.08 1157 1103.67 1115.23 1116.05 1055.61 C 1118.23 1045.08 1117.73 1033.46 1120.43 1022.86 z"/>
<path transform="translate(0,0)" fill="rgb(253,241,213)" d="M 1003.16 973.177 C 1019.86 971.963 1024.85 976.773 1030.97 991.704 C 1024.65 1013.76 1007.41 1027.86 985.364 1032.81 C 944.979 1039.9 944.009 986.289 1003.16 973.177 z"/>
<path transform="translate(0,0)" fill="rgb(243,216,170)" d="M 948.328 1044.03 C 969.083 1042.26 972.591 1065.57 952.274 1075.6 C 941.419 1075.55 933.341 1069.3 936.045 1057.56 C 937.826 1049.82 942 1047.91 948.328 1044.03 z"/>
<path transform="translate(0,0)" fill="url(#Gradient2)" d="M 1430.37 628.716 L 1431.52 630.091 C 1430.58 634.875 1387.16 689.733 1380.03 699.536 C 1304.66 803.1 1228.44 906.047 1151.39 1008.37 C 1144.01 992.95 1137.24 982.759 1126.34 969.718 C 1116.16 958.836 1098.93 946.223 1084.92 940.703 L 1294.86 751.802 C 1338.06 712.602 1386.26 666.08 1430.37 628.716 z"/>
<path transform="translate(0,0)" fill="rgb(253,251,241)" d="M 430.302 503.213 C 451.167 501.43 463.387 515.94 465.783 535.47 C 472.299 588.603 412.377 697.275 356.239 703.684 C 336.561 703.751 324.125 692.449 321.177 673.019 C 315.399 634.938 332.531 593.593 353.993 562.975 C 372.047 537.219 398.094 509.091 430.302 503.213 z"/>
<path transform="translate(0,0)" fill="rgb(253,251,241)" d="M 319.444 754.354 C 364.613 759.28 348.854 820.711 321.021 836.41 C 314.6 840.032 311.508 840.809 304.537 842.442 C 255.572 835.271 273.799 761.166 319.444 754.354 z"/>
<path transform="translate(0,0)" fill="rgb(55,50,56)" d="M 621.814 373.224 C 625.987 373.005 633.669 372.669 636.832 375.26 C 648.191 384.564 677.408 436.337 680.518 448.652 C 676.822 459.545 675.7 462.462 664.893 467.475 C 660.379 468.006 655.809 468.228 651.512 466.451 C 641.982 462.511 614.328 413.572 609.417 402.47 C 606.823 396.604 605.677 391.228 608.351 385.096 C 610.997 379.027 615.942 375.733 621.814 373.224 z"/>
<path transform="translate(0,0)" fill="rgb(55,50,56)" d="M 1416.43 373.098 C 1440.54 372.769 1445.18 390.09 1434.33 409.251 C 1427.93 419.669 1421.82 430.643 1415.12 440.852 C 1408.85 450.402 1403.17 463.738 1391.65 467.025 C 1367.53 467.354 1362.47 449.935 1373.5 430.637 C 1379.61 419.957 1386.47 409.208 1392.89 398.717 C 1399.09 388.591 1404.45 376.486 1416.43 373.098 z"/>
<path transform="translate(0,0)" fill="rgb(55,50,56)" d="M 1019.1 262.127 C 1023.79 261.991 1028.03 262.32 1032.3 264.424 C 1036.4 266.435 1040.46 270.409 1041.82 274.847 C 1044.85 284.76 1045.4 345.834 1040.94 353.188 C 1037.65 358.617 1032.95 360.888 1027.05 362.567 C 1010.63 362.805 1003.65 355.114 1003.69 338.632 C 1003.74 317.847 1001.57 295.581 1004.69 275.099 C 1005.6 269.106 1014.26 264.253 1019.1 262.127 z"/>
<path transform="translate(0,0)" fill="rgb(125,125,127)" fill-opacity="0.027451" d="M 1623.81 308.378 L 1628.69 308.492 C 1631.41 305.086 1629.56 305.7 1630.57 301.232 C 1633.3 300.012 1631.95 300.135 1634.73 300.644 L 1635.24 304.988 C 1639.08 305.892 1640.83 306.279 1642.84 309.772 C 1641.55 317.212 1645.33 323.22 1653.67 321.072 L 1655.16 323.524 C 1655.11 323.54 1655.06 323.556 1655.01 323.572 C 1654.66 323.893 1654.32 324.214 1653.97 324.535 L 1655.08 325.873 C 1657.6 325.938 1657.85 325.428 1659.53 327.633 C 1663.89 333.333 1666.28 335.744 1672.2 339.466 L 1672.58 341.155 L 1671.96 341.978 C 1669.92 344.73 1669.4 345.145 1668.69 348.565 L 1670.58 351.98 C 1657.55 341.705 1638.12 320.885 1623.81 308.378 z"/>
<path transform="translate(0,0)" fill="rgb(125,125,127)" fill-opacity="0.0156863" d="M 1724.23 410.037 C 1726.69 406.763 1725 405.314 1727.65 405.327 C 1731.93 405.348 1740.61 410.673 1743.27 413.58 L 1742.78 417.098 C 1745.71 419.086 1747.74 414.439 1750.53 421.565 C 1748.42 423.422 1746.91 422.885 1743.4 423.212 C 1744.18 424.982 1745.12 426.101 1745.31 427.963 C 1747.77 430.219 1752.95 427.608 1756.33 429.464 C 1755.55 431.466 1755.93 430.765 1754.43 432.367 L 1755.24 433.69 L 1758.75 433.587 L 1759.89 434.947 C 1757.31 440.47 1756.85 438.112 1756.6 443.73 C 1758.51 447.018 1759.85 447.118 1763.46 448.735 C 1762.96 450.501 1763.48 450.003 1762.48 450.643 C 1759.67 448.533 1757.48 446.928 1754.9 444.551 L 1752.31 445.163 C 1748.69 442.361 1728.8 415.664 1724.23 410.037 z"/>
<path transform="translate(0,0)" fill="rgb(125,125,127)" fill-opacity="0.0156863" d="M 1685.65 367.165 C 1686.47 365.673 1687.03 364.598 1687.78 363.047 C 1696.47 363.893 1703.25 387.172 1714.04 379.723 L 1715.11 381.387 L 1714.18 384.427 C 1718.34 387.07 1727.88 392.263 1728.74 397.29 C 1725.85 399.66 1719.05 399.609 1715.29 399.229 C 1708.47 391.851 1690.44 373.777 1685.65 367.165 z"/>
<path transform="translate(0,0)" fill="rgb(125,125,127)" fill-opacity="0.0156863" d="M 232.788 518.355 C 235.547 519.144 235.191 518.839 237.654 520.477 L 238.811 518.221 L 240.184 517.882 C 238.895 522.3 233.822 530.567 231.105 534.499 L 230.326 533.39 C 229.941 531.921 230.293 532.696 228.995 531.21 C 227.907 533.727 227.757 535.015 225.476 536.377 C 224.16 531.948 229.778 521.609 232.788 518.355 z"/>
<path transform="translate(0,0)" fill="url(#Gradient1)" d="M 1402.47 158.497 C 1420.18 159.552 1413.47 164.099 1423.32 167.461 L 1424.36 168.937 L 1423.48 169.538 C 1417.24 167.772 1407.85 162.249 1402.47 158.497 z"/>
<path transform="translate(0,0)" fill="rgb(2,0,1)" fill-opacity="0.101961" d="M 1883 645.864 C 1885.98 648.216 1893.14 662.807 1893.82 666.545 L 1893.15 666.66 C 1890.05 664.355 1884.07 650.037 1883 645.864 z"/>
<path transform="translate(0,0)" fill="rgb(2,0,1)" fill-opacity="0.0117647" d="M 754.313 114.809 C 755.972 115.327 758.024 115.796 759.739 116.24 L 759.551 117.417 C 755.438 118.749 749.969 118.985 745.556 119.399 L 744.994 120.925 L 743.734 121.173 L 743.402 118.493 C 749.13 114.501 746.81 120.1 754.313 114.809 z"/>
<path transform="translate(0,0)" fill="rgb(2,0,1)" fill-opacity="0.0196078" d="M 1865.75 1433.92 C 1865.69 1437.18 1859.15 1449.13 1856.99 1452.37 C 1855.66 1446.99 1861.65 1437.2 1865.75 1433.92 z"/>
<path transform="translate(0,0)" fill="rgb(2,0,1)" fill-opacity="0.184314" d="M 600.68 180.033 L 601.692 180.036 L 602.323 180.922 C 598.617 184.141 593.853 185.871 589.304 187.917 L 588.647 188.286 L 587.747 187.796 C 590.157 184.963 597.058 181.902 600.68 180.033 z"/>
<path transform="translate(0,0)" fill="rgb(2,0,1)" fill-opacity="0.0117647" d="M 1879.12 1398.46 L 1881.05 1402.25 C 1879.28 1405.84 1878.71 1404.95 1878.63 1408.96 L 1877.62 1409.85 C 1875.76 1405.72 1877.5 1402.86 1879.12 1398.46 z"/>
<path transform="translate(0,0)" fill="rgb(2,0,1)" fill-opacity="0.0156863" d="M 171.481 1407.32 L 172.032 1407.28 C 174.697 1409.62 176.999 1415.6 177.456 1419.26 C 174.695 1415.98 171.747 1411.73 171.481 1407.32 z"/>
</svg>