<svg version="1.1" xmlns="http://www.w3.org/2000/svg" viewBox="149.91 7.98 1752.28 2028.44" width="221.16" height="256">
<defs>
	<linearGradient id="Gradient1" gradientUnits="userSpaceOnUse" x1="1698.36" y1="1609.86" x2="1673.38" y2="1604.31">
		<stop class="stop0" offset="0" stop-opacity="0" stop-color="rgb(185,199,189)"/>
		<stop class="stop1" offset="1" stop-opacity="0.00784314" stop-color="rgb(228,228,255)"/>
	</linearGradient>
	<linearGradient id="Gradient2" gradientUnits="userSpaceOnUse" x1="942.554" y1="1642.76" x2="939.203" y2="1665.91">
		<stop class="stop0" offset="0" stop-opacity="1" stop-color="rgb(107,88,85)"/>
		<stop class="stop1" offset="1" stop-opacity="1" stop-color="rgb(150,120,62)"/>
	</linearGradient>
	<linearGradient id="Gradient3" gradientUnits="userSpaceOnUse" x1="1716.94" y1="1451.87" x2="1583.6" y2="1341.98">
		<stop class="stop0" offset="0" stop-opacity="1" stop-color="rgb(234,166,60)"/>
		<stop class="stop1" offset="1" stop-opacity="1" stop-color="rgb(251,198,89)"/>
	</linearGradient>
</defs>
<path transform="translate(0,0)" fill="rgb(62,59,65)" d="M 1236.88 565.161 C 1194.9 559.088 1149.38 576.254 1112.06 539.624 C 1089.98 519.069 1084.53 499.191 1082.9 470.097 C 1080.27 423.163 1111.74 397.387 1141.67 365.737 L 1192.77 310.667 L 1322.18 172.933 C 1335.75 158.514 1349.07 143.065 1363.08 128.521 C 1391.27 99.2671 1408.97 85.1066 1450.95 83.9785 C 1483.21 83.1118 1507.37 91.8652 1530.47 114.97 C 1546.69 131.199 1562.77 149.263 1578.35 166.353 C 1605.22 195.918 1632.27 225.327 1659.49 254.578 C 1695.18 292.421 1731.68 329.704 1765.87 368.798 C 1790.4 396.837 1815.43 412.576 1821.4 451.776 C 1827.06 484.328 1818.34 514.455 1794.53 537.91 C 1766.27 565.745 1743.53 565.648 1706.74 564.447 C 1694.19 564.123 1681.64 564.047 1669.09 564.219 C 1669.21 639.158 1669.71 714.753 1666.46 789.735 C 1665.16 804.712 1660.76 820.615 1653.51 833.823 C 1645.81 847.849 1648.22 861.457 1648.31 877.01 L 1648.25 925.413 L 1648.25 1005.09 C 1648.24 1019.48 1647.62 1039.23 1648.87 1052.87 C 1657.26 1058.23 1668.05 1061.37 1675.81 1066.06 C 1705.34 1084.24 1736.54 1107.88 1755.23 1137.47 C 1769.83 1160.58 1767.93 1188.38 1768.04 1214.54 L 1768.35 1275.81 L 1768.86 1386.32 C 1768.92 1405.96 1770.55 1450.44 1765.45 1467.47 C 1754.94 1502.52 1726.91 1525.61 1696.84 1543 C 1693.27 1544.8 1686.37 1547.77 1684.23 1550.84 C 1682.57 1557.2 1683.34 1589.91 1683.41 1598.04 L 1683.96 1702.84 C 1684.03 1721.36 1685.62 1741.15 1683.19 1759.47 C 1678.79 1792.64 1654.38 1816.16 1629 1835.23 C 1505.96 1927.69 1207.74 1955.42 1055.38 1960.35 C 1026.06 1961.3 996.656 1960.25 967.322 1960.24 C 869.44 1960.18 772.318 1957.43 675.192 1943.74 C 566.239 1928.38 348.048 1891.89 279.303 1799.57 C 269.956 1786.93 263.88 1772.17 261.614 1756.61 C 259.479 1742.38 260.232 1717.37 260.236 1702.15 L 260.273 1612.34 L 260.188 1532.83 C 260.137 1517.27 259.326 1494.93 261.51 1479.96 C 266.506 1445.7 287.171 1419.21 314.174 1398.69 C 322.855 1392.09 332.337 1386.9 341.091 1380.32 L 342.092 1379.55 C 342.592 1335.17 342.287 1290.79 341.179 1246.42 C 306.402 1230.41 279.576 1216.48 253.634 1187.34 C 225.036 1155.22 227.653 1132.23 227.815 1091.8 L 227.953 1027.3 L 228.289 921.001 C 228.426 903.144 228.029 881.903 229.352 864.232 C 235.254 785.38 331.74 743.017 395.363 718.681 C 452.461 696.841 509.252 684.509 568.769 673.406 C 612.352 665.006 656.299 658.621 700.47 654.272 C 734.46 651.084 768.411 649.799 802.22 647.983 C 924.708 641.402 1047.52 643.012 1169.68 654.42 C 1192.08 656.511 1214.57 660.804 1237.14 662.5 C 1237.02 632.688 1235.69 594.351 1236.88 565.161 z"/>
<path transform="translate(0,0)" fill="rgb(234,171,64)" d="M 309.047 915.562 C 294.324 903.159 274.074 881.727 278.906 860.814 C 284.199 837.904 310.731 816.478 330.045 805.266 C 383.662 774.25 443.75 755.639 503.856 741.328 C 692.491 696.418 888.292 691.577 1081.22 699.876 C 1104.01 700.856 1129.18 704.404 1152.03 706.747 C 1175.78 708.999 1199.49 711.679 1223.14 714.788 C 1232.26 716 1246.02 717.537 1254.78 719.625 C 1338.01 727.062 1528.48 771.066 1585.22 836.908 C 1650.63 912.82 1446.71 976.34 1396.75 985.967 C 1153.12 1043.98 896.837 1045.64 649.01 1018.52 C 559.122 1008.41 377.527 973.39 309.047 915.562 z"/>
<path transform="translate(0,0)" fill="rgb(251,199,89)" d="M 1254.78 719.625 C 1338.01 727.062 1528.48 771.066 1585.22 836.908 C 1650.63 912.82 1446.71 976.34 1396.75 985.967 C 1153.12 1043.98 896.837 1045.64 649.01 1018.52 C 559.122 1008.41 377.527 973.39 309.047 915.562 C 311.787 912.914 312.402 912.364 313.088 908.559 C 318.116 880.695 352.144 870.674 372.828 854.702 L 373.757 853.974 C 374.206 866.331 371.903 878.554 381.482 890.751 C 424.651 940.563 519.11 962.967 582.048 974.714 C 628.841 983.448 686.611 990.683 733.18 995.024 C 797.689 1000.39 862.395 1003.04 927.126 1002.96 C 1058.36 1003.36 1195.1 995.306 1323.54 967.292 C 1373.48 956.57 1424.3 943.305 1467.68 915.534 C 1490.96 900.635 1517.74 868.443 1495.03 842.607 C 1439.6 779.572 1306.11 759.21 1227.84 749.156 C 1203.87 746.208 1178.94 741.479 1154.99 739.052 C 1123.99 735.91 1096.64 734.466 1065.71 729.008 C 1076.32 728.287 1088.68 727.052 1099.21 727.344 C 1144.46 728.597 1190.58 726.743 1235.62 730.725 C 1257.86 731.624 1277.04 732.811 1299.6 733.07 C 1299.24 737.866 1295.21 740.973 1290.46 740.805 L 1287.63 739.188 L 1287.33 737.209 C 1285.35 734.665 1241.61 731.933 1235.88 732.216 C 1231.1 732.177 1227.29 731.629 1223.08 733.644 C 1220.68 739.167 1227.02 742.223 1227.84 747.508 C 1238.37 747.615 1248.95 750.477 1259.34 751.923 C 1268.48 753.196 1276.45 757.24 1279.46 745.558 C 1289.08 742.584 1297.04 742.983 1306.68 740.734 C 1310.03 739.953 1310.42 737.411 1312.1 734.085 C 1314.42 733.108 1314.61 733.252 1316.24 731.423 C 1304.54 727.404 1294.42 726.862 1282.66 730.099 C 1275.16 727.271 1261.08 722.806 1254.78 719.625 z"/>
<path transform="translate(0,0)" fill="rgb(253,225,168)" d="M 309.047 915.562 C 294.324 903.159 274.074 881.727 278.906 860.814 C 284.199 837.904 310.731 816.478 330.045 805.266 C 383.662 774.25 443.75 755.639 503.856 741.328 C 692.491 696.418 888.292 691.577 1081.22 699.876 C 1104.01 700.856 1129.18 704.404 1152.03 706.747 C 1175.78 708.999 1199.49 711.679 1223.14 714.788 C 1232.26 716 1246.02 717.537 1254.78 719.625 C 1261.08 722.806 1275.16 727.271 1282.66 730.099 C 1294.42 726.862 1304.54 727.404 1316.24 731.423 C 1314.61 733.252 1314.42 733.108 1312.1 734.085 C 1310.42 737.411 1310.03 739.953 1306.68 740.734 C 1297.04 742.983 1289.08 742.584 1279.46 745.558 C 1276.45 757.24 1268.48 753.196 1259.34 751.923 C 1248.95 750.477 1238.37 747.615 1227.84 747.508 C 1227.02 742.223 1220.68 739.167 1223.08 733.644 C 1227.29 731.629 1231.1 732.177 1235.88 732.216 C 1241.61 731.933 1285.35 734.665 1287.33 737.209 L 1287.63 739.188 L 1290.46 740.805 C 1295.21 740.973 1299.24 737.866 1299.6 733.07 C 1277.04 732.811 1257.86 731.624 1235.62 730.725 C 1190.58 726.743 1144.46 728.597 1099.21 727.344 C 1088.68 727.052 1076.32 728.287 1065.71 729.008 C 872.062 725.894 667.121 728.12 480.83 786.54 C 442.152 798.669 395.27 817.423 373.757 853.974 L 372.828 854.702 C 352.144 870.674 318.116 880.695 313.088 908.559 C 312.402 912.364 311.787 912.914 309.047 915.562 z"/>
<path transform="translate(0,0)" fill="rgb(251,199,89)" d="M 888.419 763.438 C 902.363 762.632 920.325 763 934.496 762.966 C 986.438 763.002 1038.37 764.625 1090.21 767.833 C 1177.54 773.793 1399.86 796.481 1465.15 850.814 C 1469.78 854.67 1474.87 859.609 1475.24 866 C 1475.56 871.449 1472.67 875.927 1469.02 879.715 C 1452.78 896.573 1425.92 906.487 1404.29 914.205 C 1279.65 958.673 1122.46 966.884 990.25 969.819 C 869.571 970.472 750.728 967.711 631.055 950.106 C 573.319 941.742 514.745 931.872 460.295 910.231 C 446.647 905.534 381.678 878.898 405.379 857.474 C 443.607 822.918 510.294 809.382 558.603 798.753 C 666.982 774.906 778.102 768.033 888.419 763.438 z"/>
<path transform="translate(0,0)" fill="rgb(252,235,197)" d="M 606.237 810.407 C 620.15 809.247 634.503 809.863 647.083 817.19 C 657.113 823.032 657.537 839.244 650.112 846.722 C 624.278 872.74 569.939 886.656 535.162 890.762 C 520.635 891.776 503.912 894.656 491.677 884.776 C 480.572 875.808 484.556 858.062 493.645 849.378 C 519.784 824.404 571.287 813.506 606.237 810.407 z"/>
<path transform="translate(0,0)" fill="rgb(252,235,197)" d="M 722.306 791.24 C 741.582 789.411 751.308 792.163 755.2 811.539 C 750.047 819.876 745.348 825.233 736.243 829.044 C 725.032 831.088 709.155 829.094 704.05 817.238 C 702.328 813.202 702.404 808.623 704.259 804.646 C 707.848 796.87 714.924 793.996 722.306 791.24 z"/>
<path transform="translate(0,0)" fill="rgb(145,192,171)" d="M 1449.52 137.309 C 1485.36 135.208 1500.08 162.658 1521.42 186.173 C 1595.96 268.324 1672.2 348.917 1747.56 430.301 C 1757.81 441.38 1769.09 454.289 1767.29 470.511 C 1765.7 522.783 1713.68 507.291 1678.87 509.612 C 1657.25 510.922 1619.99 503.636 1615.32 533.694 C 1613.98 542.328 1614.29 556.891 1614.14 566.092 C 1613.87 589.51 1613.77 612.929 1613.83 636.348 C 1613.78 674.291 1613.9 712.495 1611.89 750.382 C 1611.19 763.557 1610.37 776.717 1609.7 789.898 C 1579.31 764.506 1549.05 745.394 1512.25 730.241 C 1457.34 705.664 1352.46 678.065 1292.99 671.19 C 1291.9 658.673 1292.3 643.306 1292.23 630.421 C 1292.14 609.215 1291.91 588.01 1291.54 566.807 C 1291.4 558.377 1291.58 538.248 1289.8 530.697 C 1288.01 522.997 1282.58 516.655 1275.25 513.715 C 1255.11 505.537 1193.66 515.039 1169.41 509.544 C 1151.91 505.578 1141.88 492.944 1138.35 475.763 C 1134.48 456.931 1144.49 446.325 1156.3 433.454 C 1170.43 418.061 1184.66 402.484 1198.88 387.039 C 1236.15 346.282 1273.71 305.796 1311.56 265.583 L 1382.4 188.832 C 1395.07 175.189 1408.15 159.939 1422.08 147.682 C 1429.84 140.858 1439.62 138.735 1449.52 137.309 z"/>
<path transform="translate(0,0)" fill="rgb(236,240,230)" d="M 1329.15 298.248 C 1331.97 298.108 1334.79 298.086 1337.6 298.181 C 1344.83 298.475 1348.23 302.424 1352.78 307.327 C 1357.36 345.017 1318.51 385.821 1284.53 396.796 C 1223.6 398.788 1281.44 306.84 1329.15 298.248 z"/>
<path transform="translate(0,0)" fill="rgb(236,240,230)" d="M 1224.59 415.158 C 1247.25 415.195 1248.82 420.733 1246.57 441.664 C 1239.83 449.82 1237.87 451.505 1228.42 456.002 C 1212.85 457.201 1210.21 453.33 1204.96 439.999 C 1209.25 428.369 1213.33 420.89 1224.59 415.158 z"/>
<path transform="translate(0,0)" fill="rgb(234,171,64)" d="M 1555.8 977.227 C 1570.64 967.672 1583.54 959.115 1597.1 947.845 C 1595.73 965.226 1596.69 988.123 1596.88 1005.93 L 1597.14 1083.01 C 1597.28 1120.25 1603.94 1140.16 1571.63 1166.16 C 1539.43 1192.08 1503.35 1205.67 1464.75 1218.91 C 1409 1238.34 1355.64 1248.9 1297.9 1258.61 C 1176.37 1278.24 1053.39 1287.42 930.293 1286.05 C 865.691 1286.31 801.106 1283.84 736.712 1278.64 C 735.519 1278.51 734.326 1278.38 733.133 1278.25 C 732.98 1267.16 733.925 1259.35 733.343 1247.14 C 733.106 1239.05 732.942 1230.83 733.101 1222.74 C 734.064 1173.91 731.785 1124.49 733.109 1075.73 C 877.566 1087.28 1022.74 1086.54 1167.08 1073.5 C 1175.73 1071.81 1190.89 1070.63 1200.14 1069.65 C 1237.18 1065.47 1274.09 1060.11 1310.79 1053.56 C 1321.78 1051.17 1334.43 1049.09 1345.61 1046.96 C 1375.45 1040.86 1409.27 1033.32 1438.37 1024.43 C 1449.77 1021.08 1461.15 1017.67 1472.5 1014.18 C 1505.39 1001.59 1524.53 993.587 1555.8 977.227 z"/>
<path transform="translate(0,0)" fill="rgb(251,199,89)" d="M 733.109 1075.73 C 877.566 1087.28 1022.74 1086.54 1167.08 1073.5 C 1168.73 1080.32 1167.96 1104.5 1168.28 1112.92 C 1169.71 1150.1 1168.07 1188.36 1169.16 1225.46 C 1095.82 1234.54 1031.07 1243.29 956.577 1247.19 C 896.476 1250.2 836.278 1250.8 776.129 1248.98 C 761.811 1248.64 747.57 1247.51 733.343 1247.14 C 733.106 1239.05 732.942 1230.83 733.101 1222.74 C 734.064 1173.91 731.785 1124.49 733.109 1075.73 z"/>
<path transform="translate(0,0)" fill="rgb(251,199,89)" d="M 1200.14 1069.65 C 1237.18 1065.47 1274.09 1060.11 1310.79 1053.56 C 1313.85 1064.23 1313.21 1082.39 1313.35 1093.95 C 1313.64 1113.11 1313.79 1132.27 1313.8 1151.43 C 1313.76 1163.23 1313.19 1177.38 1313.85 1188.86 C 1295.69 1193.49 1277.48 1199.46 1259.32 1204.42 C 1240.08 1209.66 1221.04 1214.02 1201.65 1218.6 C 1200.2 1174.23 1201.84 1129.72 1200.49 1085.33 C 1200.33 1080.13 1200.17 1074.85 1200.14 1069.65 z"/>
<path transform="translate(0,0)" fill="rgb(251,199,89)" d="M 1345.61 1046.96 C 1375.45 1040.86 1409.27 1033.32 1438.37 1024.43 C 1444.33 1032.6 1441.58 1107.55 1442.67 1124.44 C 1420.13 1142.07 1373.74 1164.68 1346.91 1175.72 C 1347 1146.61 1346.84 1117.5 1346.43 1088.39 C 1346.29 1076.96 1346.6 1057.87 1345.61 1046.96 z"/>
<path transform="translate(0,0)" fill="rgb(251,199,89)" d="M 1555.8 977.227 C 1561.92 982.801 1551.02 999.515 1547.57 1005.99 C 1530.29 1038.43 1507.64 1068.99 1480.58 1093.94 C 1478.1 1096.24 1475.57 1098.49 1472.99 1100.69 L 1472.5 1050.72 C 1472.36 1039.64 1471.65 1025.01 1472.5 1014.18 C 1505.39 1001.59 1524.53 993.587 1555.8 977.227 z"/>
<path transform="translate(0,0)" fill="rgb(251,199,89)" d="M 1233.76 1691.64 C 1244.84 1689.54 1265.2 1687.94 1277.21 1686.41 C 1299.87 1683.45 1322.44 1679.74 1344.86 1675.3 C 1346.67 1685.25 1346.62 1694.41 1346.9 1704.42 C 1347.89 1738.75 1346.43 1773.67 1347.4 1807.92 L 1346.83 1809.36 C 1347.17 1832.03 1348.28 1855.25 1348.56 1877.43 C 1156.87 1908.85 962.026 1916.45 768.47 1900.05 C 757.35 1898.28 745.178 1898.46 733.189 1896.52 C 709.086 1894.54 686.732 1891.24 662.805 1887.7 C 661.937 1872.89 661.209 1849.47 662.12 1834.98 L 662.003 1832.36 C 664.626 1787.01 658.864 1738.68 662.209 1693.09 C 662.382 1690.73 666.463 1688.7 668.312 1687.45 C 691.011 1690.86 713.834 1693.38 736.73 1695 C 745.147 1695.74 758.915 1696.35 766.603 1697.68 C 854.741 1704.43 943.168 1706.63 1031.53 1704.29 C 1085.21 1703.07 1147.82 1700.6 1201.19 1694.69 C 1212.04 1693.61 1222.89 1692.59 1233.76 1691.64 z"/>
<path transform="translate(0,0)" fill="rgb(234,171,64)" d="M 1233.76 1691.64 C 1244.84 1689.54 1265.2 1687.94 1277.21 1686.41 C 1299.87 1683.45 1322.44 1679.74 1344.86 1675.3 C 1346.67 1685.25 1346.62 1694.41 1346.9 1704.42 C 1347.89 1738.75 1346.43 1773.67 1347.4 1807.92 L 1346.83 1809.36 C 1347.17 1832.03 1348.28 1855.25 1348.56 1877.43 C 1156.87 1908.85 962.026 1916.45 768.47 1900.05 C 757.35 1898.28 745.178 1898.46 733.189 1896.52 C 709.086 1894.54 686.732 1891.24 662.805 1887.7 C 661.937 1872.89 661.209 1849.47 662.12 1834.98 L 662.003 1832.36 C 664.626 1787.01 658.864 1738.68 662.209 1693.09 C 662.382 1690.73 666.463 1688.7 668.312 1687.45 C 691.011 1690.86 713.834 1693.38 736.73 1695 C 745.147 1695.74 758.915 1696.35 766.603 1697.68 C 765.468 1711.84 766.144 1742.03 766.117 1757 L 766.239 1868.94 C 793.678 1871.19 831.455 1870.44 859.51 1870.97 C 929.201 1872.27 997.984 1870.5 1067.41 1863.49 C 1094.29 1860.62 1121.12 1857.35 1147.9 1853.7 C 1162.76 1851.59 1186.83 1847.27 1200.89 1846.87 C 1200.75 1832.41 1201.67 1817.52 1201.47 1803.11 C 1200.97 1766.98 1200.89 1730.81 1201.19 1694.69 C 1212.04 1693.61 1222.89 1692.59 1233.76 1691.64 z"/>
<path transform="translate(0,0)" fill="rgb(251,199,89)" d="M 1233.76 1691.64 C 1244.84 1689.54 1265.2 1687.94 1277.21 1686.41 C 1299.87 1683.45 1322.44 1679.74 1344.86 1675.3 C 1346.67 1685.25 1346.62 1694.41 1346.9 1704.42 C 1347.89 1738.75 1346.43 1773.67 1347.4 1807.92 L 1346.83 1809.36 C 1307.96 1820.38 1275.59 1830.7 1234.87 1838.24 C 1233.72 1789.72 1234.33 1740.33 1233.76 1691.64 z"/>
<path transform="translate(0,0)" fill="rgb(251,199,89)" d="M 668.312 1687.45 C 691.011 1690.86 713.834 1693.38 736.73 1695 C 734.906 1705.24 735.274 1738.41 735.262 1750.7 L 735.87 1867.26 C 713.049 1865.1 686.031 1863.35 662.895 1861.83 C 662.78 1855.19 662.921 1841.01 662.12 1834.98 L 662.003 1832.36 C 664.626 1787.01 658.864 1738.68 662.209 1693.09 C 662.382 1690.73 666.463 1688.7 668.312 1687.45 z"/>
<path transform="translate(0,0)" fill="rgb(224,158,58)" d="M 736.62 1867.51 C 746.794 1867.59 756.312 1868.78 766.012 1868.83 C 766.146 1875.53 766.806 1894.01 768.47 1900.05 C 757.35 1898.28 745.178 1898.46 733.189 1896.52 L 735.591 1895.21 C 737.325 1888.86 736.668 1874.55 736.62 1867.51 z"/>
<path transform="translate(0,0)" fill="rgb(251,199,89)" d="M 1320.24 1388.63 C 1358.26 1383.48 1393.29 1378.8 1431.07 1371.29 C 1435.56 1383.26 1434.16 1484.94 1434.3 1504.96 L 1434.18 1506.18 C 1434.89 1510.97 1433.6 1565.27 1433.43 1572.98 C 1358.12 1587.73 1293.47 1594.4 1217.29 1599.68 C 1095.51 1608.51 973.227 1607.74 851.569 1597.37 C 852.041 1589.56 851.301 1574.07 851.177 1565.78 C 850.767 1546.03 851.469 1524.96 851.394 1505.01 C 851.26 1468.91 850.67 1432.58 850.861 1396.51 C 860.615 1397.9 879.171 1398.56 889.475 1399.23 C 928.325 1401.9 967.257 1403.18 1006.2 1403.07 C 1101.21 1403.62 1193.83 1402.6 1288.54 1392.53 C 1295.34 1391.16 1312.06 1389.83 1320.24 1388.63 z"/>
<path transform="translate(0,0)" fill="rgb(234,171,64)" d="M 1320.24 1388.63 C 1358.26 1383.48 1393.29 1378.8 1431.07 1371.29 C 1435.56 1383.26 1434.16 1484.94 1434.3 1504.96 L 1434.18 1506.18 C 1434.89 1510.97 1433.6 1565.27 1433.43 1572.98 C 1358.12 1587.73 1293.47 1594.4 1217.29 1599.68 C 1095.51 1608.51 973.227 1607.74 851.569 1597.37 C 852.041 1589.56 851.301 1574.07 851.177 1565.78 C 856.247 1565 902.986 1567.19 912.045 1567.24 C 961.007 1567.26 1010.85 1569.79 1059.77 1567.52 C 1125.83 1564.47 1192.55 1556.47 1258.03 1547.26 C 1268.18 1545.83 1278.36 1543.58 1288.56 1542.87 L 1289.81 1542.8 C 1288.48 1533.4 1289.16 1500.28 1289.16 1489.43 L 1288.54 1392.53 C 1295.34 1391.16 1312.06 1389.83 1320.24 1388.63 z"/>
<path transform="translate(0,0)" fill="rgb(251,199,89)" d="M 1320.24 1388.63 C 1358.26 1383.48 1393.29 1378.8 1431.07 1371.29 C 1435.56 1383.26 1434.16 1484.94 1434.3 1504.96 L 1434.18 1506.18 C 1428.28 1507.45 1421.84 1509.16 1416.06 1510.97 C 1385.15 1520.62 1353.84 1527.04 1322.46 1534.7 C 1321.7 1502.33 1322.86 1468.88 1322.04 1436.43 C 1321.7 1422.91 1322.35 1401.76 1320.24 1388.63 z"/>
<path transform="translate(0,0)" fill="rgb(251,199,89)" d="M 393.606 1266.05 C 409.268 1280.49 428.433 1291.36 446.635 1302.37 C 480.54 1320.59 524.158 1334.96 561.326 1346.53 L 592.816 1355.28 C 635.154 1365.73 673.368 1373 716.349 1380.33 C 728.943 1382.32 741.523 1384.39 754.09 1386.53 C 777.053 1389.73 800.115 1392.18 823.237 1393.87 C 832.456 1394.64 841.664 1395.52 850.861 1396.51 C 850.67 1432.58 851.26 1468.91 851.394 1505.01 C 851.469 1524.96 850.767 1546.03 851.177 1565.78 C 851.301 1574.07 852.041 1589.56 851.569 1597.37 C 819.857 1595.95 780.639 1589.93 748.598 1585.5 C 736.887 1584.09 726.814 1582.77 715.181 1580.66 C 675.72 1575.77 628.847 1564.81 589.829 1555.74 C 577.909 1552.94 566.043 1549.92 554.239 1546.66 C 539.041 1542.1 524.016 1536.98 509.197 1531.31 C 491.256 1525.62 460.483 1511.06 444.109 1501.85 C 428.768 1493.73 399.29 1470.27 394.917 1453.34 C 392.753 1444.97 393.859 1404.15 393.847 1394.13 L 393.606 1266.05 z"/>
<path transform="translate(0,0)" fill="rgb(251,199,89)" d="M 393.606 1266.05 C 409.268 1280.49 428.433 1291.36 446.635 1302.37 C 480.54 1320.59 524.158 1334.96 561.326 1346.53 C 558.469 1356.64 559.108 1386.64 559.323 1397.7 C 559.853 1427.95 560.102 1458.21 560.069 1488.46 C 560.108 1500.64 560.874 1529.84 558.664 1540.47 C 544.962 1536.38 522.004 1527.26 509.197 1531.31 C 491.256 1525.62 460.483 1511.06 444.109 1501.85 C 428.768 1493.73 399.29 1470.27 394.917 1453.34 C 392.753 1444.97 393.859 1404.15 393.847 1394.13 L 393.606 1266.05 z"/>
<path transform="translate(0,0)" fill="rgb(253,225,168)" d="M 393.606 1266.05 C 409.268 1280.49 428.433 1291.36 446.635 1302.37 C 446.612 1317.1 446.678 1331.82 446.831 1346.55 C 446.86 1350.74 446.682 1363.71 447.272 1367.22 C 434.11 1378.17 427.927 1389.11 426.2 1407.08 C 424.225 1427.61 429.201 1451.36 436.434 1470.65 C 437.912 1474.59 442.929 1480.84 445.095 1485.09 C 442.521 1492.68 448.941 1494.85 444.109 1501.85 C 428.768 1493.73 399.29 1470.27 394.917 1453.34 C 392.753 1444.97 393.859 1404.15 393.847 1394.13 L 393.606 1266.05 z"/>
<path transform="translate(0,0)" fill="rgb(252,235,197)" d="M 447.272 1367.22 C 456.071 1366.04 460.862 1365.05 468.294 1370.94 C 480.533 1380.64 486.343 1401.64 487.415 1416.62 C 489.251 1442.28 492.488 1470.81 471.175 1489.04 C 465.622 1489.98 460.885 1490.89 455.231 1491.21 C 452.004 1489.28 448.171 1487.14 445.095 1485.09 C 442.929 1480.84 437.912 1474.59 436.434 1470.65 C 429.201 1451.36 424.225 1427.61 426.2 1407.08 C 427.927 1389.11 434.11 1378.17 447.272 1367.22 z"/>
<path transform="translate(0,0)" fill="rgb(251,199,89)" d="M 754.09 1386.53 C 777.053 1389.73 800.115 1392.18 823.237 1393.87 C 832.456 1394.64 841.664 1395.52 850.861 1396.51 C 850.67 1432.58 851.26 1468.91 851.394 1505.01 C 851.469 1524.96 850.767 1546.03 851.177 1565.78 C 851.301 1574.07 852.041 1589.56 851.569 1597.37 C 819.857 1595.95 780.639 1589.93 748.598 1585.5 C 747.996 1575.96 747.913 1568.81 748.1 1559.25 C 747.965 1512.71 747.256 1466.16 747.595 1419.62 C 747.666 1409.82 747.15 1398.22 748.424 1388.61 C 750.206 1386.43 750.377 1387.1 754.09 1386.53 z"/>
<path transform="translate(0,0)" fill="rgb(234,171,64)" d="M 823.237 1393.87 C 832.456 1394.64 841.664 1395.52 850.861 1396.51 C 850.67 1432.58 851.26 1468.91 851.394 1505.01 C 851.469 1524.96 850.767 1546.03 851.177 1565.78 C 851.301 1574.07 852.041 1589.56 851.569 1597.37 C 819.857 1595.95 780.639 1589.93 748.598 1585.5 C 747.996 1575.96 747.913 1568.81 748.1 1559.25 C 772.394 1561.85 796.666 1562.1 820.95 1563.86 C 820.862 1540.33 819.077 1405.43 823.237 1393.87 z"/>
<path transform="translate(0,0)" fill="rgb(234,171,64)" d="M 561.326 1346.53 L 592.816 1355.28 C 591.428 1355.6 590.681 1355.34 589.999 1356.76 C 587.1 1362.8 590.069 1522.68 590.076 1541.79 C 628.063 1543.08 674.513 1553.23 715.006 1555.3 L 714.702 1437.93 C 714.692 1426.27 714.235 1389.88 716.349 1380.33 C 728.943 1382.32 741.523 1384.39 754.09 1386.53 C 750.377 1387.1 750.206 1386.43 748.424 1388.61 C 747.15 1398.22 747.666 1409.82 747.595 1419.62 C 747.256 1466.16 747.965 1512.71 748.1 1559.25 C 747.913 1568.81 747.996 1575.96 748.598 1585.5 C 736.887 1584.09 726.814 1582.77 715.181 1580.66 C 675.72 1575.77 628.847 1564.81 589.829 1555.74 C 577.909 1552.94 566.043 1549.92 554.239 1546.66 C 539.041 1542.1 524.016 1536.98 509.197 1531.31 C 522.004 1527.26 544.962 1536.38 558.664 1540.47 C 560.874 1529.84 560.108 1500.64 560.069 1488.46 C 560.102 1458.21 559.853 1427.95 559.323 1397.7 C 559.108 1386.64 558.469 1356.64 561.326 1346.53 z"/>
<path transform="translate(0,0)" fill="rgb(224,158,58)" d="M 715.871 1557.39 C 724.841 1557.46 739.733 1557.44 748.1 1559.25 C 747.913 1568.81 747.996 1575.96 748.598 1585.5 C 736.887 1584.09 726.814 1582.77 715.181 1580.66 C 715.802 1579.38 715.709 1560.99 715.871 1557.39 z"/>
<path transform="translate(0,0)" fill="rgb(224,158,58)" d="M 554.239 1546.66 L 555.809 1546.37 C 565.685 1544.46 576.338 1540.4 586.761 1543.26 C 589.747 1546.21 589.109 1550.41 589.829 1555.74 C 577.909 1552.94 566.043 1549.92 554.239 1546.66 z"/>
<path transform="translate(0,0)" fill="rgb(234,171,64)" d="M 277.956 944.978 C 293.793 961.536 309.345 970.408 328.669 982.066 C 357.335 998.254 412.04 1018.45 444.212 1026.57 C 454.721 1029.54 465.25 1032.43 475.797 1035.26 C 515.988 1045.46 556.669 1053.61 597.684 1059.68 C 608.647 1061.21 619.915 1062.65 630.814 1064.45 C 654.791 1067.8 678.831 1070.67 702.922 1073.06 C 706.552 1073.4 730.887 1075.13 733.109 1075.73 C 731.785 1124.49 734.064 1173.91 733.101 1222.74 C 732.942 1230.83 733.106 1239.05 733.343 1247.14 C 733.925 1259.35 732.98 1267.16 733.133 1278.25 C 722.393 1277.17 711.693 1276.21 701.033 1274.5 C 676.382 1271.71 651.753 1268.72 627.148 1265.55 C 617.015 1264.44 606.915 1263.05 596.86 1261.38 C 554.314 1254.32 512.04 1245.72 470.121 1235.58 C 450.257 1231.53 424.044 1223.62 405.336 1215.93 C 383.589 1207.93 344.596 1193.03 325.326 1180.35 C 309.855 1171.56 294.903 1158.89 284.516 1144.35 C 276.245 1132.78 277.625 1125.22 277.843 1111.59 C 278.733 1056.04 277.929 1000.53 277.956 944.978 z"/>
<path transform="translate(0,0)" fill="rgb(251,199,89)" d="M 277.956 944.978 C 293.793 961.536 309.345 970.408 328.669 982.066 C 357.335 998.254 412.04 1018.45 444.212 1026.57 C 440.694 1075.21 444.441 1126.97 443.577 1175.86 C 443.439 1183.66 444.882 1216.01 443.116 1220.82 L 444.211 1221.01 C 453.847 1222.65 462.945 1220.84 468.922 1226.78 C 470.42 1230.23 470.13 1231.85 470.121 1235.58 C 450.257 1231.53 424.044 1223.62 405.336 1215.93 C 383.589 1207.93 344.596 1193.03 325.326 1180.35 C 309.855 1171.56 294.903 1158.89 284.516 1144.35 C 276.245 1132.78 277.625 1125.22 277.843 1111.59 C 278.733 1056.04 277.929 1000.53 277.956 944.978 z"/>
<path transform="translate(0,0)" fill="rgb(253,225,168)" d="M 277.956 944.978 C 293.793 961.536 309.345 970.408 328.669 982.066 C 328.284 987.515 330.022 1044.97 331.742 1047.5 C 304.604 1061 308.019 1125.06 318.809 1147.97 C 320.439 1151.43 325.637 1159.05 328.154 1162.15 C 321.477 1169.33 336.442 1170.28 325.326 1180.35 C 309.855 1171.56 294.903 1158.89 284.516 1144.35 C 276.245 1132.78 277.625 1125.22 277.843 1111.59 C 278.733 1056.04 277.929 1000.53 277.956 944.978 z"/>
<path transform="translate(0,0)" fill="rgb(252,235,197)" d="M 331.742 1047.5 C 355.098 1040.14 361.454 1055.54 367.911 1075.24 C 372.684 1089.8 371.911 1105.98 372.614 1120.99 C 373.842 1147.23 360.652 1188.03 328.154 1162.15 C 325.637 1159.05 320.439 1151.43 318.809 1147.97 C 308.019 1125.06 304.604 1061 331.742 1047.5 z"/>
<path transform="translate(0,0)" fill="rgb(224,158,58)" d="M 405.336 1215.93 C 410.085 1212.75 410.654 1213.5 416.989 1214.75 C 425.751 1216.54 434.463 1218.57 443.116 1220.82 L 444.211 1221.01 C 453.847 1222.65 462.945 1220.84 468.922 1226.78 C 470.42 1230.23 470.13 1231.85 470.121 1235.58 C 450.257 1231.53 424.044 1223.62 405.336 1215.93 z"/>
<path transform="translate(0,0)" fill="rgb(251,199,89)" d="M 475.797 1035.26 C 515.988 1045.46 556.669 1053.61 597.684 1059.68 C 596.645 1072 597.807 1100.33 597.817 1114.44 L 598.016 1237.78 C 553.086 1232.78 517.421 1224.63 471.662 1223.92 C 473.718 1165.79 470.349 1106.43 472.298 1048.18 C 472.476 1042.86 472.17 1039.32 475.797 1035.26 z"/>
<path transform="translate(0,0)" fill="rgb(251,199,89)" d="M 630.814 1064.45 C 654.791 1067.8 678.831 1070.67 702.922 1073.06 C 702.104 1093.19 702.875 1117.07 702.974 1137.51 C 703.176 1173.46 703.184 1209.41 702.999 1245.36 C 679.862 1244.56 653.402 1242.16 629.82 1240.85 C 630.194 1202.4 630.28 1163.94 630.077 1125.48 C 630.054 1111.63 629.174 1076.82 630.814 1064.45 z"/>
<path transform="translate(0,0)" fill="rgb(224,158,58)" d="M 703.212 1245.33 C 713.38 1246.01 723.151 1246.15 733.343 1247.14 C 733.925 1259.35 732.98 1267.16 733.133 1278.25 C 722.393 1277.17 711.693 1276.21 701.033 1274.5 C 703.494 1265.49 703.104 1254.8 703.212 1245.33 z"/>
<path transform="translate(0,0)" fill="rgb(224,158,58)" d="M 598.152 1237.95 C 608.409 1238.04 618.727 1237.84 628.865 1239.34 C 628.822 1247.54 629.287 1257.84 627.148 1265.55 C 617.015 1264.44 606.915 1263.05 596.86 1261.38 C 598.194 1252.95 598.365 1246.53 598.152 1237.95 z"/>
<path transform="translate(0,0)" fill="rgb(251,199,89)" d="M 311.073 1567.09 C 332.081 1585.59 340.222 1590.65 364.118 1604.63 C 400.17 1623.1 439.988 1637.13 478.855 1648.4 C 486.449 1650.55 502.852 1654.74 509.736 1657.32 C 535.047 1663.54 560.538 1669 586.174 1673.71 C 599.655 1676.22 617.51 1678.67 630.086 1681.52 C 642.734 1683.46 655.725 1685.31 668.312 1687.45 C 666.463 1688.7 662.382 1690.73 662.209 1693.09 C 658.864 1738.68 664.626 1787.01 662.003 1832.36 L 662.12 1834.98 C 661.209 1849.47 661.937 1872.89 662.805 1887.7 C 608.227 1880.73 554.164 1870.2 500.963 1856.17 C 469.452 1848 440.453 1840.85 410.817 1826.56 C 401.153 1824.33 369.314 1807.86 359.911 1801.84 C 348.822 1795.42 338.596 1787.61 329.482 1778.6 C 309.901 1758.98 310.624 1746.72 311.086 1720.26 C 311.286 1708.78 311.128 1696.26 311.133 1684.73 L 311.073 1567.09 z"/>
<path transform="translate(0,0)" fill="rgb(251,199,89)" d="M 311.073 1567.09 C 332.081 1585.59 340.222 1590.65 364.118 1604.63 C 400.17 1623.1 439.988 1637.13 478.855 1648.4 C 475.92 1659.73 477.21 1697.46 477.012 1710.99 C 476.385 1754.03 477.984 1798.13 477.061 1841.08 C 450.734 1837.58 435.024 1829.34 410.817 1826.56 C 401.153 1824.33 369.314 1807.86 359.911 1801.84 C 348.822 1795.42 338.596 1787.61 329.482 1778.6 C 309.901 1758.98 310.624 1746.72 311.086 1720.26 C 311.286 1708.78 311.128 1696.26 311.133 1684.73 L 311.073 1567.09 z"/>
<path transform="translate(0,0)" fill="rgb(253,225,168)" d="M 311.073 1567.09 C 332.081 1585.59 340.222 1590.65 364.118 1604.63 C 364.071 1626.11 364.312 1647.58 364.84 1669.06 C 369.584 1669.02 373.777 1668.71 378.387 1669.76 C 373.14 1669.83 367.895 1670 362.654 1670.25 C 347.587 1684.21 343.353 1696.28 342.052 1716.78 C 340.836 1735.95 348.168 1775.81 364.148 1788.25 L 362.591 1789.65 C 362.679 1795.22 363.518 1797.8 359.911 1801.84 C 348.822 1795.42 338.596 1787.61 329.482 1778.6 C 309.901 1758.98 310.624 1746.72 311.086 1720.26 C 311.286 1708.78 311.128 1696.26 311.133 1684.73 L 311.073 1567.09 z"/>
<path transform="translate(0,0)" fill="rgb(252,235,197)" d="M 362.654 1670.25 C 367.895 1670 373.14 1669.83 378.387 1669.76 C 404.387 1681.11 403.396 1717.65 405.384 1741.65 C 407.429 1766.36 396.821 1802.96 364.148 1788.25 C 348.168 1775.81 340.836 1735.95 342.052 1716.78 C 343.353 1696.28 347.587 1684.21 362.654 1670.25 z"/>
<path transform="translate(0,0)" fill="rgb(234,171,64)" d="M 478.855 1648.4 C 486.449 1650.55 502.852 1654.74 509.736 1657.32 C 507.665 1658.69 506.605 1659.47 506.416 1662.78 C 505.494 1678.93 505.796 1696.35 505.593 1712.49 C 504.929 1756.1 504.704 1799.72 504.917 1843.34 C 516.083 1846.13 541.732 1848.83 554.412 1850.26 C 578.417 1852.96 605.116 1856.95 629.03 1858.72 C 629.352 1853.98 629.759 1849.08 629.992 1844.35 C 629.385 1839.76 629.827 1823.13 629.846 1817.86 L 630.016 1759.42 C 630.045 1743.32 629.957 1727.22 629.752 1711.12 C 629.67 1702.82 629.12 1689.39 630.086 1681.52 C 642.734 1683.46 655.725 1685.31 668.312 1687.45 C 666.463 1688.7 662.382 1690.73 662.209 1693.09 C 658.864 1738.68 664.626 1787.01 662.003 1832.36 L 662.12 1834.98 C 661.209 1849.47 661.937 1872.89 662.805 1887.7 C 608.227 1880.73 554.164 1870.2 500.963 1856.17 C 469.452 1848 440.453 1840.85 410.817 1826.56 C 435.024 1829.34 450.734 1837.58 477.061 1841.08 C 477.984 1798.13 476.385 1754.03 477.012 1710.99 C 477.21 1697.46 475.92 1659.73 478.855 1648.4 z"/>
<path transform="translate(0,0)" fill="rgb(234,171,64)" d="M 1471.68 1645.55 C 1522.05 1630.33 1574.62 1610.34 1618.47 1580.6 C 1622.87 1577.62 1627.35 1574.82 1631.89 1572.06 L 1632.54 1701.1 C 1632.61 1719.9 1636.75 1752.13 1625.26 1766.85 C 1598.37 1801.33 1552.42 1820.58 1512.14 1834.83 C 1499.88 1838.77 1485.03 1843.19 1473.06 1847.62 C 1440.18 1856.5 1415.91 1863.85 1381.83 1870.75 L 1348.56 1877.43 C 1348.28 1855.25 1347.17 1832.03 1346.83 1809.36 L 1347.4 1807.92 C 1346.43 1773.67 1347.89 1738.75 1346.9 1704.42 C 1346.62 1694.41 1346.67 1685.25 1344.86 1675.3 C 1354.46 1672.93 1368.38 1670.72 1378.56 1668.61 C 1409.88 1662.1 1440.94 1654.41 1471.68 1645.55 z"/>
<path transform="translate(0,0)" fill="rgb(234,171,64)" d="M 1378.56 1668.61 C 1409.88 1662.1 1440.94 1654.41 1471.68 1645.55 C 1472.36 1646.46 1473.18 1647.57 1474.15 1648.87 C 1475.78 1674 1477.02 1720.47 1475.61 1743.93 L 1475.44 1746.98 C 1476.78 1753.44 1476.22 1763.34 1476.23 1770.12 C 1476.25 1790.2 1475.75 1810.26 1476.41 1830.34 C 1476.61 1836.41 1477.31 1842.91 1473.06 1847.62 C 1440.18 1856.5 1415.91 1863.85 1381.83 1870.75 L 1348.56 1877.43 C 1348.28 1855.25 1347.17 1832.03 1346.83 1809.36 L 1347.4 1807.92 C 1346.43 1773.67 1347.89 1738.75 1346.9 1704.42 C 1346.62 1694.41 1346.67 1685.25 1344.86 1675.3 C 1354.46 1672.93 1368.38 1670.72 1378.56 1668.61 z"/>
<path transform="translate(0,0)" fill="rgb(251,199,89)" d="M 1378.56 1668.61 C 1409.88 1662.1 1440.94 1654.41 1471.68 1645.55 C 1472.36 1646.46 1473.18 1647.57 1474.15 1648.87 C 1475.78 1674 1477.02 1720.47 1475.61 1743.93 L 1475.44 1746.98 C 1472.6 1747.88 1453.28 1760.81 1448.11 1763.62 C 1425.97 1775.77 1403.24 1786.81 1380 1796.69 C 1380.14 1756.48 1381.47 1707.92 1378.56 1668.61 z"/>
<path transform="translate(0,0)" fill="rgb(224,158,58)" d="M 1347.4 1807.92 C 1358.4 1804.96 1369.17 1799.9 1379.77 1797.16 C 1379.92 1807.04 1379.82 1865.56 1381.83 1870.75 L 1348.56 1877.43 C 1348.28 1855.25 1347.17 1832.03 1346.83 1809.36 L 1347.4 1807.92 z"/>
<path transform="translate(0,0)" fill="rgb(224,158,58)" d="M 1475.61 1743.93 C 1485.57 1739.64 1498.55 1728.75 1506.43 1721.14 C 1506.82 1757.56 1506.08 1794.51 1507.61 1830.88 C 1507.64 1831.7 1511.07 1834.3 1512.14 1834.83 C 1499.88 1838.77 1485.03 1843.19 1473.06 1847.62 C 1477.31 1842.91 1476.61 1836.41 1476.41 1830.34 C 1475.75 1810.26 1476.25 1790.2 1476.23 1770.12 C 1476.22 1763.34 1476.78 1753.44 1475.44 1746.98 L 1475.61 1743.93 z"/>
<path transform="translate(0,0)" fill="rgb(234,171,64)" d="M 1588.45 1332.08 C 1640.91 1313 1674.73 1299.74 1718.12 1263.62 C 1717.48 1307.73 1717.3 1351.85 1717.57 1395.96 C 1717.56 1405.44 1719.04 1443.95 1716.84 1449.93 C 1701.06 1492.94 1636.99 1517.7 1596.84 1531.76 C 1585.15 1536.03 1573.35 1539.98 1561.45 1543.61 C 1533.03 1551.6 1496.82 1562.2 1467.76 1566.6 C 1456.62 1569.29 1444.76 1571.07 1433.43 1572.98 C 1433.6 1565.27 1434.89 1510.97 1434.18 1506.18 L 1434.3 1504.96 C 1434.16 1484.94 1435.56 1383.26 1431.07 1371.29 C 1441.29 1368.86 1454.1 1366.68 1464.67 1364.47 C 1496.63 1358.14 1528.3 1350.39 1559.58 1341.25 C 1569.26 1338.39 1578.89 1335.33 1588.45 1332.08 z"/>
<path transform="translate(0,0)" fill="url(#Gradient3)" d="M 1588.45 1332.08 C 1640.91 1313 1674.73 1299.74 1718.12 1263.62 C 1717.48 1307.73 1717.3 1351.85 1717.57 1395.96 C 1717.56 1405.44 1719.04 1443.95 1716.84 1449.93 C 1701.06 1492.94 1636.99 1517.7 1596.84 1531.76 C 1595.12 1531.16 1592.84 1529.76 1592.63 1527.7 C 1591.56 1517.2 1592.31 1506.49 1592.23 1495.9 L 1591.15 1396.89 C 1590.99 1380.81 1592.64 1345.84 1588.45 1332.08 z"/>
<path transform="translate(0,0)" fill="rgb(251,199,89)" d="M 1464.67 1364.47 C 1496.63 1358.14 1528.3 1350.39 1559.58 1341.25 C 1565.44 1359.53 1559.84 1418.34 1562.28 1440.74 C 1540.88 1456.35 1492.2 1484.21 1466.89 1492.03 C 1465.71 1461.18 1467.44 1429.43 1466.36 1398.49 C 1465.98 1387.8 1466.49 1374.86 1464.67 1364.47 z"/>
<path transform="translate(0,0)" fill="rgb(224,158,58)" d="M 1434.3 1504.96 C 1443.57 1501.16 1456.01 1495.68 1465.65 1494.24 C 1465.7 1503.06 1465.49 1563.22 1467.76 1566.6 C 1456.62 1569.29 1444.76 1571.07 1433.43 1572.98 C 1433.6 1565.27 1434.89 1510.97 1434.18 1506.18 L 1434.3 1504.96 z"/>
<path transform="translate(0,0)" fill="rgb(251,199,89)" d="M 1649.34 1112.25 C 1677.82 1125.97 1734.22 1162.92 1714.55 1200.27 C 1691.72 1243.63 1626.95 1268.4 1582.48 1284.44 C 1381.31 1348.08 1159.86 1360.48 950.009 1353.05 C 919.05 1351.95 862.685 1349.42 833.204 1344.97 C 827.952 1342.93 820.033 1342.92 812.453 1339.99 L 812.211 1339.12 C 818.572 1338.5 824.924 1337.77 831.264 1336.96 C 1000.74 1342.9 1170.09 1336.87 1337.14 1305.94 C 1381.34 1297.75 1414.74 1287.76 1456.89 1278.22 C 1468.92 1273.38 1485.27 1269.02 1498.02 1264.15 C 1548.51 1244.86 1580.04 1229.59 1620.32 1193.15 C 1645.97 1163.14 1649.15 1150.04 1649.34 1112.25 z"/>
<path transform="translate(0,0)" fill="rgb(224,158,58)" d="M 1456.89 1278.22 C 1468.92 1273.38 1485.27 1269.02 1498.02 1264.15 C 1548.51 1244.86 1580.04 1229.59 1620.32 1193.15 C 1619.32 1235.68 1491.5 1276.5 1456.89 1278.22 z"/>
<path transform="translate(0,0)" fill="rgb(251,199,89)" d="M 671.77 1638.14 C 560.9 1617.58 414.409 1602.33 325.29 1522.42 C 317.16 1515.13 308.482 1498.51 309.731 1487.5 C 311.882 1468.52 329.291 1453.64 342.931 1441.95 C 342.487 1566.42 590.61 1611.64 683.121 1629.34 C 696.654 1630.57 710.777 1633.77 724.419 1635.26 C 763.955 1639.58 805.399 1645.22 845.029 1648.27 C 845.892 1651.28 845.347 1651.56 843.21 1654.41 C 823.044 1652.85 801.984 1652.73 781.634 1650.98 C 746.432 1647.95 706.541 1644.25 671.77 1638.14 z"/>
<path transform="translate(0,0)" fill="rgb(224,158,58)" d="M 683.121 1629.34 C 696.654 1630.57 710.777 1633.77 724.419 1635.26 C 763.955 1639.58 805.399 1645.22 845.029 1648.27 C 845.892 1651.28 845.347 1651.56 843.21 1654.41 C 823.044 1652.85 801.984 1652.73 781.634 1650.98 C 746.432 1647.95 706.541 1644.25 671.77 1638.14 C 684.149 1634.27 764.909 1651.63 784.294 1648.94 C 790.315 1648.1 807.202 1653.22 814.363 1650.49 C 816.377 1649.72 815.461 1650.47 816.562 1648.57 L 815.852 1647.13 C 771.726 1643.2 727.738 1637.84 683.958 1631.06 L 683.121 1629.34 z"/>
<path transform="translate(0,0)" fill="url(#Gradient2)" d="M 845.029 1648.27 C 870.974 1649.28 903.522 1652.23 929.457 1652.83 C 944.756 1653.18 1027.02 1653.82 1034.42 1657.3 C 981.871 1658.08 930.054 1660.38 877.464 1657.15 C 872.497 1656.85 847.438 1655.55 843.21 1654.41 C 845.347 1651.56 845.892 1651.28 845.029 1648.27 z"/>
<path transform="translate(0,0)" fill="rgb(162,133,75)" d="M 740.231 1333.23 C 763.696 1332.58 785.118 1333.49 808.507 1335.36 C 813.709 1335.78 827.142 1336.08 831.264 1336.96 C 824.924 1337.77 818.572 1338.5 812.211 1339.12 L 812.453 1339.99 C 820.033 1342.92 827.952 1342.93 833.204 1344.97 C 817.69 1345.76 763.277 1338.05 746.219 1335.47 C 743.923 1334.72 742.45 1334.18 740.231 1333.23 z"/>
<path transform="translate(0,0)" fill="rgb(116,106,93)" d="M 746.219 1335.47 C 742.114 1336.16 736.539 1335.78 732.931 1333.68 C 735.584 1332.62 737.379 1333.02 740.231 1333.23 C 742.45 1334.18 743.923 1334.72 746.219 1335.47 z"/>
<path transform="translate(0,0)" fill="url(#Gradient1)" d="M 1696.84 1543 C 1696.32 1548.71 1692.16 1551.24 1687.58 1553.84 C 1684.15 1558.88 1686.04 1656.29 1685.8 1670.18 C 1684.11 1663.67 1685.26 1651.8 1685.01 1644.78 C 1684.43 1628.46 1684.9 1611.15 1684.91 1595.13 C 1684.91 1587.28 1685.83 1557.32 1684.23 1550.84 C 1686.37 1547.77 1693.27 1544.8 1696.84 1543 z"/>
<path transform="translate(0,0)" fill="rgb(5,1,5)" fill-opacity="0.0196078" d="M 1775.11 556.276 C 1775.46 556.391 1778.53 556.604 1778.98 556.641 L 1778.77 558.192 C 1775.52 559.699 1772.66 561.258 1769.51 562.956 C 1766.8 564.29 1766.81 564.528 1763.86 564.675 C 1765.31 562.314 1770.51 559.912 1773.51 557.552 L 1775.11 556.276 z"/>
<path transform="translate(0,0)" fill="rgb(5,1,5)" fill-opacity="0.0235294" d="M 1387.1 95.0617 L 1389.8 96.5263 C 1388.67 99.3469 1386.51 99.9776 1383.45 102.083 L 1383.16 100.967 C 1384.92 97.6272 1384.04 97.7902 1387.1 95.0617 z"/>
</svg>