<svg version="1.1" xmlns="http://www.w3.org/2000/svg" viewBox="19.76 9.10 2009.62 2029.56" width="253.48" height="256">
<path transform="translate(0,0)" fill="rgb(61,60,61)" d="M 1909.09 85.367 C 1926.13 84.2702 1944.96 86.6595 1948.63 106.847 C 1954.21 137.561 1943.19 179.847 1934.42 209.76 C 1923.09 248.419 1908.44 286.704 1895.8 324.756 L 1783.15 653.788 L 1577.71 1253.31 L 1498.73 1485.39 L 1469.87 1569.82 C 1464 1587.12 1454.82 1618.1 1446.04 1632.51 C 1419.57 1675.95 1371.61 1642.43 1344.39 1620.05 C 1331.24 1609.24 1317.21 1599.35 1304.31 1589.75 L 1111.42 1446.23 C 1094.5 1433.49 1077.69 1420.58 1061.01 1407.52 C 1057.89 1405.11 1026.21 1380.59 1024.34 1381.64 C 970.116 1412.11 919.246 1448.88 866.375 1481.69 C 833.985 1501.79 802.634 1529.45 765.836 1540.38 C 747.122 1547.51 721.105 1533.7 715.568 1514.29 C 704.508 1475.54 698.876 1430.01 691.296 1390.3 C 685.699 1347.9 676.431 1303.46 668.424 1261.3 L 643.596 1123.63 C 628.819 1113.9 611.346 1104.6 596.006 1094.71 C 508.591 1038.39 420.438 983.035 333.306 926.295 C 305.217 908.003 276.526 889.716 248.933 870.745 C 237.629 862.634 229.184 853.939 227.58 839.402 C 224.713 813.433 243.136 797.812 264.784 788.309 C 296.125 774.55 327.774 761.324 359.189 747.721 L 550.564 664.484 L 1088.24 430.401 L 1580.76 215.099 C 1664.37 178.483 1748.68 140.214 1834.21 108.344 C 1853.94 100.989 1888.77 87.8855 1909.09 85.367 z"/>
<path transform="translate(0,0)" fill="rgb(150,197,181)" d="M 1853.63 149.954 L 1855.61 150.305 C 1854.88 154.714 1779.68 212.84 1769.79 220.808 C 1463 467.498 1153.97 711.405 842.754 952.498 C 786.265 996.695 729.824 1043.47 672.377 1086.23 C 664.187 1079.85 651.078 1071.72 642.186 1065.94 C 622.627 1053.19 602.944 1040.63 583.14 1028.25 L 438.5 935.669 C 387.171 902.611 335.233 867.926 283.449 835.721 C 298.873 829.826 319.018 819.817 334.653 812.962 C 373.619 796.31 412.405 779.238 451.003 761.749 L 713.78 647.347 L 1467.59 319.418 L 1768.8 188.1 C 1785.07 181.094 1801.29 173.982 1817.46 166.762 C 1830.04 161 1840.73 155.313 1853.63 149.954 z"/>
<path transform="translate(0,0)" fill="rgb(244,245,234)" d="M 651.156 727.391 C 685.866 722.567 713.871 742.525 691.828 776.056 C 671.345 807.215 617.849 834.293 582.888 841.756 C 564.283 845.328 534.5 841.762 533.471 819.321 C 531.312 772.257 614.145 731.734 651.156 727.391 z"/>
<path transform="translate(0,0)" fill="rgb(244,245,234)" d="M 755.348 684.203 C 792.748 680.59 798.445 716.908 765.532 731.786 C 728.284 734.832 723.506 699.726 755.348 684.203 z"/>
<path transform="translate(0,0)" fill="rgb(238,197,128)" d="M 1164.68 914.69 C 1181.99 921.189 1232.17 955.308 1249.01 966.308 C 1314.19 1008.64 1378.47 1052.34 1441.81 1097.38 C 1471.25 1118.63 1500.7 1139.63 1529.16 1162.18 C 1535.64 1167.32 1542.39 1172.58 1549.26 1177.17 L 1469.08 1414.5 L 1428.69 1532.84 C 1420.75 1555.8 1411.19 1580.15 1404.23 1603.22 C 1398.28 1597.78 1384.99 1588.46 1378.15 1583.38 L 1324.7 1543.92 L 1070.03 1353.12 C 1008.5 1306.7 943.636 1255.59 881.405 1211.6 L 1061.08 1023.98 L 1129.67 951.722 C 1141.36 939.383 1153.47 927.448 1164.68 914.69 z"/>
<path transform="translate(0,0)" fill="rgb(150,197,181)" d="M 1908.92 135.97 C 1909.24 136.632 1909.56 137.295 1909.89 137.958 C 1907.86 144.995 1899.68 165.333 1897.41 171.247 C 1882.64 210.754 1868.35 250.434 1854.53 290.28 L 1676.76 806.142 L 1598.44 1035.37 C 1585.57 1073.24 1569.03 1117.87 1557.73 1155.53 C 1535.14 1137.13 1510.72 1119.68 1487.22 1102.36 C 1438.55 1066.48 1389.04 1031.76 1338.72 998.226 C 1287.82 964.791 1234.43 927.383 1181.38 897.846 C 1201.53 878.135 1221.43 856.613 1241.06 836.264 L 1367.64 704.073 C 1476.98 592.006 1585.02 478.69 1691.76 364.149 C 1744.85 307.373 1798.5 251.119 1852.7 195.396 C 1869.39 178.23 1892.35 150.834 1908.92 135.97 z"/>
<path transform="translate(0,0)" fill="rgb(106,152,135)" d="M 1779.21 235.092 L 1779.99 235.942 C 1778.38 243.734 1327.75 698.014 1281.18 745.552 L 982.768 1052.27 L 887.579 1149.75 C 877.589 1159.95 844.998 1191.17 839.394 1201.55 C 830.74 1217.58 818.852 1257.32 812.354 1276.75 L 773.811 1395.14 C 767.539 1414.26 760.499 1433.19 754.458 1452.27 C 750.166 1435.09 747.142 1417.78 744.323 1400.31 L 712.378 1222.94 C 705.872 1185.97 700.083 1145.33 692.356 1109.08 C 733.168 1077.26 773.651 1045.02 813.798 1012.37 L 954.468 901.184 L 1434.99 517.942 L 1779.21 235.092 z"/>
<path transform="translate(0,0)" fill="rgb(106,152,135)" d="M 857.321 1254.35 C 864.65 1257.4 900.611 1286.55 909.279 1292.97 C 933.488 1310.89 958.085 1329.9 981.789 1348.48 C 973.964 1354.37 961.42 1361.92 952.86 1367.62 C 918.116 1390.78 882.89 1411.73 848.233 1435.23 L 801.372 1465.47 C 792.841 1471.04 781.566 1479.36 772.601 1483.44 C 783.642 1457.69 791.384 1432.3 801.404 1406.28 C 814.323 1372.9 826.753 1339.33 838.69 1305.59 C 844.554 1289.46 852.419 1270.42 857.321 1254.35 z"/>
<path transform="translate(0,0)" fill="rgb(61,60,61)" d="M 500.269 1684.14 C 544.751 1677.65 586.103 1708.36 592.764 1752.81 C 599.425 1797.27 568.887 1838.74 524.458 1845.58 C 479.779 1852.45 438.022 1821.71 431.324 1777 C 424.625 1732.3 455.538 1690.66 500.269 1684.14 z"/>
<path transform="translate(0,0)" fill="rgb(238,197,128)" d="M 501.334 1724.82 C 524.155 1719.14 547.247 1733.09 552.822 1755.94 C 558.397 1778.79 544.33 1801.82 521.457 1807.28 C 498.735 1812.71 475.896 1798.76 470.358 1776.07 C 464.82 1753.37 478.665 1730.46 501.334 1724.82 z"/>
<path transform="translate(0,0)" fill="rgb(61,60,61)" d="M 389.547 1875.79 C 386.933 1883.85 383.268 1893.08 378.505 1900.1 C 369.284 1913.95 354.863 1923.49 338.51 1926.56 C 302.774 1933.28 270.675 1911.45 263.659 1875.71 C 256.884 1841.2 279.316 1806.08 314.718 1800.92 C 336.918 1797.69 351.253 1803.25 368.968 1816.37 C 388.088 1835.53 392.463 1849.16 389.547 1875.79 z"/>
<path transform="translate(0,0)" fill="rgb(238,197,128)" d="M 320.238 1833.53 C 337.007 1830.25 353.277 1841.13 356.654 1857.88 C 360.03 1874.63 349.245 1890.96 332.515 1894.43 C 315.647 1897.93 299.151 1887.04 295.747 1870.15 C 292.343 1853.27 303.331 1836.83 320.238 1833.53 z"/>
<path transform="translate(0,0)" fill="rgb(61,60,61)" d="M 649.643 1554.43 C 683.617 1552.77 712.564 1578.84 714.448 1612.8 C 716.331 1646.76 690.444 1675.88 656.494 1677.98 C 622.236 1680.1 592.8 1653.92 590.9 1619.65 C 589 1585.38 615.361 1556.11 649.643 1554.43 z"/>
<path transform="translate(0,0)" fill="rgb(238,197,128)" d="M 651.374 1586.27 C 667.874 1585.41 682.009 1597.95 683.13 1614.44 C 684.251 1630.92 671.943 1645.26 655.479 1646.65 C 644.588 1647.56 634.049 1642.54 627.906 1633.5 C 621.763 1624.46 620.972 1612.81 625.834 1603.02 C 630.697 1593.24 640.46 1586.83 651.374 1586.27 z"/>
<path transform="translate(0,0)" fill="rgb(61,60,61)" d="M 147.856 1852.31 C 177.647 1849.53 204.145 1871.19 207.342 1900.94 C 210.539 1930.69 189.249 1957.49 159.548 1961.11 C 139.96 1963.49 120.605 1955.14 108.894 1939.26 C 97.1833 1923.38 94.931 1902.42 103 1884.41 C 111.068 1866.41 128.208 1854.14 147.856 1852.31 z"/>
<path transform="translate(0,0)" fill="rgb(238,197,128)" d="M 151.234 1881.89 C 164.658 1880.97 176.344 1890.98 177.498 1904.39 C 178.653 1917.79 168.85 1929.65 155.466 1931.04 C 146.598 1931.96 137.924 1928.02 132.778 1920.74 C 127.632 1913.46 126.814 1903.97 130.64 1895.92 C 134.466 1887.87 142.339 1882.5 151.234 1881.89 z"/>
<path transform="translate(0,0)" fill="rgb(2,2,2)" fill-opacity="0.133333" d="M 1549.11 219.923 C 1549.92 220.744 1549.56 220.182 1549.73 221.82 C 1544.02 225.561 1530.67 231.997 1524.35 234.875 L 1523.98 234.709 L 1524.24 233.425 C 1532.56 227.909 1540.97 225.213 1549.11 219.923 z"/>
<path transform="translate(0,0)" fill="rgb(2,2,2)" fill-opacity="0.0156863" d="M 1494.17 1518.49 L 1495.25 1518.78 C 1496.07 1524.57 1490.73 1533.64 1487.44 1538.25 C 1487.37 1535 1492.67 1522.64 1494.17 1518.49 z"/>
<path transform="translate(0,0)" fill="rgb(2,2,2)" fill-opacity="0.145098" d="M 945.225 483.841 L 946.215 484.352 C 945.281 487.073 934.294 492.066 930.602 494.172 L 929.207 493.903 L 928.636 492.94 C 933.65 489.355 939.762 487.42 945.225 483.841 z"/>
<path transform="translate(0,0)" fill="rgb(2,2,2)" fill-opacity="0.0431373" d="M 1647 1067.53 L 1647.82 1070.49 C 1646.9 1073.12 1646.34 1075.29 1644.72 1077.56 C 1643.47 1077.21 1644.03 1077.58 1643.22 1076.2 C 1645.08 1072.71 1645.72 1071.26 1647 1067.53 z"/>
<path transform="translate(0,0)" fill="rgb(2,2,2)" fill-opacity="0.0196078" d="M 1594.45 1221.65 L 1595.58 1221.86 C 1596.22 1224.76 1595.05 1228.83 1593.39 1231.27 L 1592.47 1231.05 C 1592.39 1228.06 1593.63 1224.61 1594.45 1221.65 z"/>
<path transform="translate(0,0)" fill="rgb(2,2,2)" fill-opacity="0.0156863" d="M 1679.16 975.597 C 1680.78 979.861 1678.71 982.398 1676.85 986.388 C 1675.75 980.934 1676.03 979.814 1679.16 975.597 z"/>
<path transform="translate(0,0)" fill="rgb(2,2,2)" fill-opacity="0.0196078" d="M 1514.52 1453.53 L 1516.13 1453.03 C 1516.43 1456.29 1514.86 1459.93 1513.84 1463.29 L 1512.74 1462.22 C 1512.94 1458.95 1513.69 1456.67 1514.52 1453.53 z"/>
<path transform="translate(0,0)" fill="rgb(2,2,2)" fill-opacity="0.0235294" d="M 1518.48 1441.62 L 1520.01 1442.22 C 1519.3 1446.31 1518.55 1448.12 1517.11 1452.07 C 1515.79 1448.61 1517.37 1445.3 1518.48 1441.62 z"/>
<path transform="translate(0,0)" fill="rgb(2,2,2)" fill-opacity="0.12549" d="M 592.365 1729.37 L 593.547 1729.19 C 595.364 1731.74 596.436 1732.67 596.462 1735.78 L 595.627 1735.91 C 593.574 1732.94 593.484 1733 592.365 1729.37 z"/>
</svg>