<svg version="1.1" xmlns="http://www.w3.org/2000/svg" viewBox="3.10 2.71 2038.06 2041.38" width="255.62" height="256">
<path transform="translate(0,0)" fill="rgb(72,72,72)" d="M 523.193 398.829 C 558.354 377.188 593.859 352.173 628.574 329.503 L 848.694 184.831 L 941.642 123.547 C 972.162 103.481 1000.51 78.3175 1040.35 88.4187 C 1049.76 90.8021 1057.97 94.5457 1066.21 99.6876 C 1095.32 118.461 1123.95 138.269 1152.93 157.293 L 1387.36 311.8 C 1493.97 381.172 1600.19 451.144 1706.01 521.713 L 1820.48 596.795 C 1839.43 609.124 1858.59 621.398 1877.6 633.651 C 1901.85 649.283 1912.36 674.909 1904.84 703.116 C 1901.15 716.74 1892.14 728.31 1879.84 735.229 C 1864.23 744.127 1838.13 743.118 1820.22 741.717 C 1828.59 760.413 1834.3 779.006 1826.85 799.459 C 1822.46 811.471 1813.39 821.192 1801.72 826.404 C 1793.24 830.226 1786 830.874 1776.92 831.139 C 1778.56 843.706 1778.08 866.44 1778.17 879.938 L 1778.96 964.501 L 1784.54 1284.39 L 1786.28 1374.8 C 1786.39 1383.82 1786.15 1432.24 1788.3 1435.65 C 1793.39 1438.33 1798.32 1438.08 1803.07 1440.1 C 1836.32 1454.29 1833.01 1491.95 1823.57 1518.94 C 1899.05 1508.11 1889.46 1562.52 1888.71 1614.67 C 1902.35 1613.2 1918.36 1613.2 1932.04 1614.52 C 1936.13 1614.92 1943.06 1619.68 1945.86 1620.23 C 1948.87 1623.47 1953.81 1628.46 1956.37 1631.82 C 1963.78 1644.76 1963.17 1659.47 1962.79 1674.19 C 1962.25 1695.47 1965.55 1718.96 1948.57 1734.92 C 1941.34 1741.72 1934 1743.87 1924.34 1744.02 C 1899.86 1744.4 1874.59 1744.2 1850.13 1744.24 L 1677.09 1744.08 L 1381.69 1744.12 C 1326.59 1744.13 1267.72 1745.18 1212.88 1743.92 C 1214.83 1755.71 1214.06 1771.92 1213.16 1783.79 C 1205.03 1891.14 1110.15 1968.48 1003.49 1959.05 C 953.096 1954.96 906.424 1930.9 873.855 1892.22 C 837.735 1849.07 825.073 1799.29 829.84 1743.91 C 780.207 1744.85 729.025 1744.23 679.311 1744.23 L 418.223 1744.39 L 222.095 1744.79 C 190.359 1744.83 158.608 1745.02 126.873 1744.79 C 114.095 1744.7 103.226 1743.47 93.7988 1734.08 C 84.9958 1725.31 80.7047 1715.48 80.7665 1703.06 C 81.6058 1684.8 78.7024 1660.15 81.8586 1642.62 C 85.1575 1624.3 108.164 1612.15 125.686 1613.79 C 135.211 1614.69 146.915 1613.91 156.311 1614 C 155.327 1601.89 155.89 1588.65 155.239 1576.49 C 153.468 1543.44 163.041 1516.46 201.945 1518.19 C 205.327 1518.34 213.649 1518.88 216.725 1517.73 C 217.575 1514.82 214.107 1500.46 213.645 1496.37 C 209.932 1463.48 222.487 1439.92 257.724 1436.06 C 256.764 1421.64 257.494 1399.03 257.6 1384.07 C 257.796 1350.72 258.269 1317.37 259.02 1284.02 L 262.52 1048.5 L 264.982 903.695 C 265.164 887.833 264.207 844.97 266.272 831.058 C 257.211 831.251 250.523 830.918 241.994 827.368 C 229.998 822.261 220.638 812.434 216.12 800.203 C 209.093 781.046 214.048 759.703 222.114 741.777 C 195.045 745.256 162.828 744.936 146.232 719.539 C 136.829 705.225 133.598 687.722 137.271 670.993 C 138.683 664.364 144.08 650.329 149.155 645.958 C 164.267 632.945 182.699 622.344 199.576 611.746 C 221.757 597.738 243.83 583.56 265.793 569.212 L 520.293 400.814 C 521.572 400.24 522.056 399.705 523.193 398.829 z"/>
<path transform="translate(0,0)" fill="rgb(137,191,180)" d="M 178.94 653.416 C 188.886 648.426 216.673 629.896 227.028 623.248 L 331.122 555.195 L 791.332 251.573 L 938.4 154.534 C 956.648 142.599 974.401 129.777 992.872 118.234 C 1005.05 110.622 1024.76 106.35 1038.06 112.48 C 1056.18 120.837 1073.11 133.5 1089.89 144.507 L 1177.32 202.12 L 1446.78 379.615 L 1637.67 505.309 L 1690.48 539.994 C 1696.69 544.069 1711 552.957 1716.14 557.268 C 1724.79 561.621 1737.99 570.995 1746.51 576.658 L 1799.61 611.93 C 1813.35 621.098 1827.14 630.179 1840.99 639.173 C 1864.18 654.079 1894.55 667.036 1879.51 702.531 C 1877.1 708.22 1868.24 715.249 1861.93 716.907 C 1830.88 719.455 1786.9 718.755 1756.62 718.722 L 1557.39 718.687 L 569.084 718.716 L 317.514 718.686 L 235.614 718.699 C 218.968 718.687 202.242 718.591 185.63 717.847 C 179.302 717.564 172.432 712.821 168.32 708.327 C 151.416 689.855 160.443 666.011 178.94 653.416 z"/>
<path transform="translate(0,0)" fill="rgb(194,223,213)" d="M 178.94 653.416 C 188.886 648.426 216.673 629.896 227.028 623.248 L 331.122 555.195 L 791.332 251.573 L 938.4 154.534 C 956.648 142.599 974.401 129.777 992.872 118.234 C 1005.05 110.622 1024.76 106.35 1038.06 112.48 C 1056.18 120.837 1073.11 133.5 1089.89 144.507 L 1177.32 202.12 L 1446.78 379.615 L 1637.67 505.309 L 1690.48 539.994 C 1696.69 544.069 1711 552.957 1716.14 557.268 C 1721.11 564.872 1733.02 567.35 1739.12 574.155 C 1736.58 575.001 1736.64 574.634 1733.7 574.273 C 1733.44 573.763 1733.2 573.242 1732.92 572.741 C 1732.26 571.544 1674.26 532.977 1669.19 529.78 L 1292.34 294.426 L 1144.73 202.211 C 1117.56 185.121 1089.27 168.377 1063.07 150.87 C 1040.5 135.785 1007.91 138.765 986.388 153.112 C 966.877 164.773 948.059 177.365 928.805 189.706 L 830.304 251.571 L 361.755 543.904 L 224.029 629.795 C 213.15 636.506 183.102 657.422 173.175 661.52 L 172.842 660.983 C 175.331 658.354 177.264 656.649 178.94 653.416 z"/>
<path transform="translate(0,0)" fill="rgb(72,72,72)" d="M 1020.08 170.777 C 1028.94 171.804 1144.03 248.733 1159.64 258.882 L 1443.34 444.176 C 1512.4 488.772 1581.23 533.734 1649.82 579.06 C 1673.33 594.628 1697.21 609.747 1720.71 625.319 C 1723.98 627.604 1733.66 635.412 1733.07 639.999 C 1731.74 650.37 1722.45 651.885 1714.79 652.038 C 1689.02 652.55 1663.49 652.076 1637.85 652.057 L 1487.83 652.085 L 1025.15 652.322 L 503.949 652.157 L 378.933 652.285 C 359.947 652.349 339.932 653.021 320.996 651.437 C 318.148 651.199 315.264 648.393 313.732 646.058 C 309.46 639.548 313.181 632.421 318.895 628.387 C 330.289 620.826 341.702 613.087 353.169 605.519 C 377.978 589.114 402.887 572.862 427.894 556.763 L 639.732 418.483 L 868.601 268.823 L 946.932 217.574 C 970.64 201.886 995.426 184.739 1020.08 170.777 z"/>
<path transform="translate(0,0)" fill="rgb(111,162,152)" d="M 1019.86 197.745 C 1023.33 197.527 1052.48 217.462 1057.23 220.498 C 1104.42 251.065 1151.45 281.88 1198.32 312.941 L 1538.85 535.264 C 1586.56 566.226 1633.22 597.833 1681.46 628.303 C 1616.75 626.86 1548.5 628.419 1483.37 628.346 L 1024.75 628.823 L 655.613 628.685 C 559.617 628.274 459.618 626.483 363.863 628.464 C 380.057 615.541 407.936 598.629 425.988 586.975 L 532.155 517.735 L 880.242 289.869 C 926.245 259.652 974.683 228.774 1019.86 197.745 z"/>
<path transform="translate(0,0)" fill="rgb(137,191,180)" d="M 1013.07 253.018 C 1027.17 250.606 1044.07 255.729 1056.18 262.992 C 1090.72 283.318 1123.59 306.79 1157.61 327.917 C 1211.06 361.115 1264.38 394.55 1317.73 427.899 L 1494.93 538.221 C 1513.85 550.134 1554.17 572.381 1567.71 586.233 C 1567.9 590.505 1568.82 595.752 1566.34 598.947 C 1559.25 603.06 1416.64 601.826 1397.31 602.085 L 1028.25 606.007 C 971.204 606.058 497.081 614.592 483.554 608.206 C 479.735 606.403 475.972 603.106 474.618 598.996 C 473.622 595.971 473.737 591.432 475.407 588.706 C 479.501 582.023 487.849 576.13 494.25 571.78 C 510.545 560.706 527.697 550.617 544.397 540.149 C 575.69 520.334 607.142 500.771 638.749 481.462 L 828.63 364.254 C 835.639 359.959 842.216 354.699 849.058 350.33 L 933.244 297.476 C 953.851 284.434 990.629 257.558 1013.07 253.018 z"/>
<path transform="translate(0,0)" fill="rgb(137,191,180)" d="M 850.94 742.387 L 1079.99 742.312 C 1117.07 742.311 1155.95 742.799 1192.92 741.921 C 1182.16 763.939 1180.37 797.588 1198.51 816.152 C 1211.13 829.071 1220.97 830.864 1237.78 831.418 C 1236.62 859.474 1237.16 888.676 1236.76 916.874 L 1233.66 1104 L 1229.65 1332.27 C 1229.22 1366.07 1227.92 1401.55 1228.6 1435.19 C 1209.85 1439.37 1194.59 1448.04 1187.62 1467.38 C 1182.27 1482.23 1184.19 1503.61 1190.88 1517.91 L 1132.91 1518.04 L 1133.08 1362.3 C 1133.11 1326.7 1137.12 1282.07 1124.08 1249.33 C 1118.21 1236.86 1112.64 1227.8 1102.92 1217.77 C 1081.77 1195.9 1052.69 1183.49 1022.27 1183.34 C 992.415 1183.21 964.523 1194.76 942.808 1215.4 C 901.733 1254.44 910.582 1306.35 910.637 1358.7 L 910.837 1518.17 L 851.844 1517.93 C 868.015 1482.99 858.989 1442.4 815.806 1435.54 L 805.943 831.482 C 813.192 831.23 818.85 831.047 825.907 828.699 C 838.265 824.609 848.428 815.67 854.063 803.936 C 860.309 790.845 860.048 773.849 857.351 759.691 C 856.865 757.141 852.182 746.012 850.94 742.387 z"/>
<path transform="translate(0,0)" fill="rgb(137,191,180)" d="M 478.851 741.984 C 486.696 742.928 511.306 742.488 520.293 742.422 C 543.947 742.246 568.712 742.756 592.219 742.044 C 582.348 764.936 578.395 794.612 596.046 815.229 C 607.879 829.049 620.111 830.682 636.965 831.954 C 635.491 858.071 635.684 886.995 635.285 913.368 L 633.165 1073.1 C 631.283 1193.05 627.538 1315.89 627.611 1435.65 C 621.985 1436.64 616.6 1437.39 611.406 1439.89 C 581.734 1454.17 577.031 1489.84 589.855 1516.9 C 587.301 1519.35 493.162 1518.03 481.887 1517.96 C 484.156 1512.22 485.793 1506.25 486.768 1500.16 C 492.228 1467.9 479.93 1440.71 444.976 1435.64 C 444.438 1380.3 443.562 1324.97 442.347 1269.64 L 434.93 831.358 C 488.807 830.539 498.852 782.88 478.851 741.984 z"/>
<path transform="translate(0,0)" fill="rgb(137,191,180)" d="M 1451.01 742.222 C 1459.46 743.288 1489.15 742.83 1498.68 742.598 C 1519.1 742.102 1544.36 743.407 1564.36 742.044 C 1548.93 774.773 1550.5 815.402 1590.03 829.468 C 1595.3 831.343 1602.78 831.563 1608.39 831.985 C 1605.74 908.923 1606.4 986.519 1604.93 1063.5 C 1602.15 1187.5 1600.21 1311.52 1599.11 1435.54 C 1596.85 1435.79 1594.61 1436.17 1592.39 1436.66 C 1579.97 1439.45 1569.22 1447.17 1562.58 1458.04 C 1551.38 1476.24 1554.81 1495.48 1559.61 1514.8 L 1560.02 1516.78 C 1556.2 1519.08 1465.69 1518.07 1452.69 1518.04 C 1468.51 1483.05 1460.57 1442.6 1416.83 1435.79 C 1414.46 1354.98 1414.34 1272.37 1413.16 1191.5 L 1406.85 831.297 C 1413.97 831.168 1420.32 830.83 1427.11 828.518 C 1439.12 824.5 1448.89 815.626 1454.04 804.059 C 1463.26 783.873 1458.01 762.025 1451.01 742.222 z"/>
<path transform="translate(0,0)" fill="rgb(137,191,180)" d="M 193.672 1542.38 C 224.2 1540.27 272.8 1541.87 304.54 1541.89 L 512.489 1541.92 L 1161.79 1541.96 L 1631.26 1541.96 L 1772.38 1541.87 C 1794.22 1541.86 1832.54 1540.76 1853.34 1543.27 C 1859.1 1546.97 1861.11 1549.38 1864.96 1554.9 C 1866.27 1572.5 1865.3 1596.02 1865 1614.08 L 1816.5 1614.11 L 1133.26 1614.08 C 1062.66 1567.05 980.294 1565.99 909.947 1614.5 C 882.494 1613.43 849.933 1614.12 822.05 1614.07 L 652.825 1614.02 L 179.257 1614.01 C 178.959 1596.42 177.92 1576.5 179.407 1558.96 C 180.139 1550.33 185.555 1545 193.672 1542.38 z"/>
<path transform="translate(0,0)" fill="rgb(242,191,100)" d="M 853.454 1753.19 C 853.581 1750.36 853.838 1747.54 854.225 1744.73 C 860.423 1700.72 885.792 1660.71 921.112 1634.12 C 957.218 1607.24 1002.51 1595.77 1047.05 1602.23 C 1092.37 1609.37 1132.91 1634.44 1159.54 1671.79 C 1185.74 1708.27 1196.19 1753.75 1188.55 1798.01 C 1181.1 1841.68 1156.53 1880.56 1120.28 1906.03 C 1083 1932.65 1036.59 1943.16 991.482 1935.19 C 947.142 1927.58 907.684 1902.56 881.888 1865.7 C 859.556 1833.38 849.289 1794.21 853.197 1754.12 C 853.283 1753.81 853.368 1753.5 853.454 1753.19 z"/>
<path transform="translate(0,0)" fill="rgb(250,225,178)" d="M 853.454 1753.19 C 853.581 1750.36 853.838 1747.54 854.225 1744.73 C 860.423 1700.72 885.792 1660.71 921.112 1634.12 C 957.218 1607.24 1002.51 1595.77 1047.05 1602.23 C 1040.02 1606.75 1025.55 1607.26 1016.87 1608.26 C 944.707 1616.59 876.459 1676.33 858.906 1746.88 C 858.01 1750.48 857.334 1753.19 855.381 1756.39 L 854.129 1756.28 L 853.454 1753.19 z"/>
<path transform="translate(0,0)" fill="rgb(72,72,72)" d="M 1004.94 1631.58 C 1081.12 1622.59 1150.17 1677.04 1159.18 1753.22 C 1168.2 1829.4 1113.77 1898.47 1037.6 1907.51 C 961.385 1916.56 892.272 1862.1 883.25 1785.88 C 874.229 1709.67 928.716 1640.57 1004.94 1631.58 z"/>
<path transform="translate(0,0)" fill="rgb(242,191,100)" d="M 1004.38 1645.17 C 1073.2 1635.77 1136.56 1684.07 1145.74 1752.92 C 1154.91 1821.77 1106.41 1884.98 1037.53 1893.93 C 968.968 1902.84 906.115 1854.61 896.981 1786.08 C 887.846 1717.54 935.872 1654.53 1004.38 1645.17 z"/>
<path transform="translate(0,0)" fill="rgb(250,225,178)" d="M 962.676 1683.15 C 989.967 1686.58 978.886 1710.19 965.018 1722.53 C 958.59 1728.25 954.314 1731.26 946.483 1734.94 C 915.116 1735.87 933.173 1688.7 962.676 1683.15 z"/>
<path transform="translate(0,0)" fill="rgb(250,225,178)" d="M 999.072 1665.15 C 1017.12 1668.88 1014.57 1684.83 999.044 1691.57 C 982.646 1689.1 981.016 1670.89 999.072 1665.15 z"/>
<path transform="translate(0,0)" fill="rgb(137,191,180)" d="M 289.178 830.875 L 410.671 830.995 L 417.584 1243.4 L 419.523 1364.41 C 419.973 1387.4 421.119 1412.89 420.904 1435.68 C 394.432 1434.81 367.124 1436.07 340.602 1435.81 C 329.517 1435.71 312.419 1436.37 301.754 1435.17 C 295.893 1435.53 287.16 1435.31 281.072 1435.36 C 281.327 1242.25 288.527 1047.64 288.997 854.479 L 289.178 830.875 z"/>
<path transform="translate(0,0)" fill="rgb(111,162,152)" d="M 289.178 830.875 L 410.671 830.995 L 417.584 1243.4 L 419.523 1364.41 C 419.973 1387.4 421.119 1412.89 420.904 1435.68 C 394.432 1434.81 367.124 1436.07 340.602 1435.81 C 329.517 1435.71 312.419 1436.37 301.754 1435.17 C 322.429 1433.36 366.296 1434.68 388.671 1434.67 L 388.054 1099.17 L 387.83 982.655 C 387.76 962.084 388.332 933.633 386.653 913.724 C 385.767 903.357 382.987 893.24 378.449 883.877 C 369.141 864.758 351.312 849.768 329.349 849.261 C 323.555 849.128 294.144 847.903 290.168 849.979 L 288.997 854.479 L 289.178 830.875 z"/>
<path transform="translate(0,0)" fill="rgb(194,223,213)" d="M 313.944 935.705 C 318.494 936.39 322.599 937.311 325.265 941.538 C 339.479 964.077 339.066 1043.71 316.942 1059.68 C 293.066 1062.33 296.568 1004.24 296.925 989.046 C 297.361 970.516 299.851 948.856 313.944 935.705 z"/>
<path transform="translate(0,0)" fill="rgb(194,223,213)" d="M 310.285 1077.75 C 326.111 1079.38 324.919 1100.99 323.207 1112.87 C 321.952 1121.58 319.011 1126.87 311.878 1131.86 C 291.965 1123.4 294.841 1089.24 310.285 1077.75 z"/>
<path transform="translate(0,0)" fill="rgb(137,191,180)" d="M 1261.74 830.897 L 1382.87 831.016 L 1390.08 1275.65 C 1390.92 1327.84 1392.91 1383.32 1392.89 1435.29 C 1382.24 1435.09 1371.6 1435.08 1360.95 1435.24 C 1328.95 1435.32 1283.41 1433.77 1252.3 1435.77 C 1253.3 1417.23 1253.12 1396.83 1253.41 1378.03 L 1255.09 1253.72 L 1261.76 849.031 L 1261.74 830.897 z"/>
<path transform="translate(0,0)" fill="rgb(111,162,152)" d="M 1261.74 830.897 L 1382.87 831.016 L 1390.08 1275.65 C 1390.92 1327.84 1392.91 1383.32 1392.89 1435.29 C 1382.24 1435.09 1371.6 1435.08 1360.95 1435.24 C 1359.69 1407.81 1360.68 1373.55 1360.68 1345.28 L 1360.87 1166.04 L 1360.1 993.155 C 1360.05 982.577 1360.21 971.798 1360.04 961.373 C 1359.49 926.861 1364.6 890.683 1337.51 864.129 C 1317.41 844.434 1287.88 848.775 1261.76 849.031 L 1261.74 830.897 z"/>
<path transform="translate(0,0)" fill="rgb(194,223,213)" d="M 1285.69 937.027 C 1298.21 936.77 1301.68 948.248 1303.5 958.898 C 1307.42 981.759 1310.05 1044.84 1288.53 1059.56 C 1266.83 1061.42 1268.64 1012.44 1269.06 998.202 C 1269.62 979.531 1270.05 949.547 1285.69 937.027 z"/>
<path transform="translate(0,0)" fill="rgb(194,223,213)" d="M 1282.23 1076.71 C 1296.09 1077.44 1296.9 1094.62 1296.21 1105.26 C 1295.49 1116.4 1293.42 1123.93 1285 1131.49 C 1271.53 1130.78 1269.61 1112.21 1270.65 1101.97 C 1271.79 1090.76 1273.75 1084.13 1282.23 1076.71 z"/>
<path transform="translate(0,0)" fill="rgb(137,191,180)" d="M 660.487 830.806 L 781.626 831.124 L 789.407 1271.15 C 790.382 1325.65 790.32 1380.7 791.891 1435.12 C 781.24 1435.07 770.589 1435.1 759.938 1435.21 L 651.618 1435.23 C 654.065 1363.49 653.962 1286.83 655.072 1214.79 L 660.229 852.307 C 660.305 845.234 660.271 837.846 660.487 830.806 z"/>
<path transform="translate(0,0)" fill="rgb(111,162,152)" d="M 660.487 830.806 L 781.626 831.124 L 789.407 1271.15 C 790.382 1325.65 790.32 1380.7 791.891 1435.12 C 781.24 1435.07 770.589 1435.1 759.938 1435.21 C 758.678 1428.09 759.019 1407.22 759.01 1398.96 L 759.369 1321.48 C 759.538 1220.97 759.921 1117.63 758.624 1017.29 C 758.355 995.616 758.316 973.939 758.507 952.263 C 758.55 938.304 759.302 922.872 757.439 909.743 C 751.443 868.11 723.031 844.88 680.685 848.927 C 674.543 849.514 664.03 847.038 660.229 852.307 C 660.305 845.234 660.271 837.846 660.487 830.806 z"/>
<path transform="translate(0,0)" fill="rgb(194,223,213)" d="M 684.643 935.843 C 714.061 937.738 709.441 1042.55 688.949 1060.2 C 669.154 1061.58 667.901 1027.15 667.868 1013.26 C 667.816 991.64 666.569 951.049 684.643 935.843 z"/>
<path transform="translate(0,0)" fill="rgb(194,223,213)" d="M 682.347 1077.67 C 696.924 1082.23 696.661 1100.52 694.663 1113.11 C 693.224 1122.18 690.367 1126.94 682.904 1132.06 C 669.421 1128.98 668.286 1111.66 669.905 1100.42 C 671.436 1089.78 673.958 1084.22 682.347 1077.67 z"/>
<path transform="translate(0,0)" fill="rgb(137,191,180)" d="M 1632.05 830.963 C 1671.99 830.876 1713.15 830.415 1752.98 831.059 L 1762.88 1435.16 C 1752.3 1435.05 1741.73 1435.15 1731.16 1435.44 C 1697.72 1435.69 1654.99 1433.86 1622.8 1435.9 C 1624.59 1240.34 1627.64 1044.79 1631.98 849.276 L 1632.05 830.963 z"/>
<path transform="translate(0,0)" fill="rgb(111,162,152)" d="M 1632.05 830.963 C 1671.99 830.876 1713.15 830.415 1752.98 831.059 L 1762.88 1435.16 C 1752.3 1435.05 1741.73 1435.15 1731.16 1435.44 L 1730.02 1060 C 1729.98 1016.34 1730.04 972.79 1729.96 928.979 C 1729.92 903.194 1724.75 882.477 1705.96 863.388 C 1687.49 844.625 1657.2 848.667 1631.98 849.276 L 1632.05 830.963 z"/>
<path transform="translate(0,0)" fill="rgb(194,223,213)" d="M 1656.58 936.11 L 1657.29 936.247 C 1664.52 937.569 1666.73 939.367 1669.86 946.269 C 1679.6 967.75 1680.68 1048.71 1657.55 1059.33 C 1630.07 1054.9 1638.44 971.607 1644.79 952.588 C 1647.34 944.939 1649.65 940.326 1656.58 936.11 z"/>
<path transform="translate(0,0)" fill="rgb(194,223,213)" d="M 1652.48 1076.81 C 1667.09 1077.52 1667.69 1098.34 1666.1 1109.11 C 1664.59 1119.3 1662.67 1125.17 1654.43 1131.34 C 1640.32 1129.74 1639.31 1109.62 1640.86 1098.88 C 1642.32 1088.73 1644.39 1083.12 1652.48 1076.81 z"/>
<path transform="translate(0,0)" fill="rgb(111,162,152)" d="M 1160.46 1637.88 L 1719.6 1638.11 L 1855.16 1638.13 C 1873.69 1638.09 1915.37 1636.89 1931.23 1639.81 C 1938.38 1644.62 1938.8 1660.68 1938.32 1668.52 C 1937.48 1682.17 1941.3 1703.75 1933.85 1715.13 C 1930.3 1718.39 1928.33 1720.76 1923.58 1720.9 C 1899.69 1721.64 1874.94 1721.14 1851.05 1721.13 L 1696.26 1721.13 L 1207.61 1720.95 C 1200.48 1690.76 1182.06 1660.07 1160.46 1637.88 z"/>
<path transform="translate(0,0)" fill="rgb(111,162,152)" d="M 116.487 1638.22 C 177.541 1636.77 245.152 1638.09 306.614 1638.09 L 678.724 1638.05 L 808.793 1638.13 C 831.515 1638.19 860.622 1639.09 882.922 1637.91 C 861.729 1659.77 856.304 1669.21 843.641 1696.74 C 840.324 1704.6 837.839 1712.71 835.202 1720.82 L 320.713 1721.08 L 184.589 1721.14 C 162.689 1721.15 138.869 1722.02 117.354 1719.83 C 101.744 1718.24 104.863 1682.18 105.094 1670.84 C 105.407 1655.51 101.841 1646.26 116.487 1638.22 z"/>
<path transform="translate(0,0)" fill="rgb(65,113,109)" d="M 1009.77 1208.33 C 1037.06 1204.93 1059.17 1211.75 1080.07 1229.49 C 1116.13 1260.09 1108.88 1308.9 1108.71 1352.15 L 1108.7 1465.46 C 1108.74 1481.11 1107.88 1501.83 1108.67 1516.79 L 1108.75 1518.06 L 1032.75 1518.18 L 934.976 1518.57 L 934.974 1369 C 934.903 1339.59 933.686 1309.01 936.5 1279.85 C 940.22 1241.31 973.026 1214.11 1009.77 1208.33 z"/>
<path transform="translate(0,0)" fill="rgb(137,191,180)" d="M 620.786 742.273 C 686.43 743.687 755.032 742.581 820.833 742.575 C 835.432 759.499 843.217 785.863 825.144 803.187 C 820.112 805.831 815.214 807.025 809.48 807.02 C 750.712 806.953 691.893 807.615 633.129 807.03 C 604.606 806.745 604.347 776.082 612.572 755.967 C 615.455 750.429 617.36 747.416 620.786 742.273 z"/>
<path transform="translate(0,0)" fill="rgb(111,162,152)" d="M 620.786 742.273 C 686.43 743.687 755.032 742.581 820.833 742.575 C 835.432 759.499 843.217 785.863 825.144 803.187 C 824.316 801.726 823.94 800.921 823.54 799.28 C 820.444 786.664 813.784 774.569 801.489 768.967 C 787.659 762.666 772.124 762.722 757.166 762.188 C 721.043 760.898 684.893 759.312 648.771 757.982 C 639.412 757.637 620.203 759.484 612.572 755.967 C 615.455 750.429 617.36 747.416 620.786 742.273 z"/>
<path transform="translate(0,0)" fill="rgb(137,191,180)" d="M 1593.18 742.55 L 1722.74 742.464 C 1743.84 742.412 1770.75 741.628 1791.44 742.849 C 1804.74 756.927 1814.93 788.466 1796.92 802.014 C 1788.73 808.115 1779.35 807.255 1769.4 807.182 C 1711.74 806.76 1653.68 808.261 1596.07 806.833 C 1575.77 795.314 1575.46 777.505 1583.25 757.765 C 1586.09 751.713 1589 747.758 1593.18 742.55 z"/>
<path transform="translate(0,0)" fill="rgb(111,162,152)" d="M 1593.18 742.55 L 1722.74 742.464 C 1743.84 742.412 1770.75 741.628 1791.44 742.849 C 1804.74 756.927 1814.93 788.466 1796.92 802.014 C 1794.64 798.171 1793.31 792.7 1791.38 788.354 C 1778.01 758.265 1740.81 762.204 1711.56 761.3 C 1686.48 760.356 1661.39 759.593 1636.3 759.01 C 1621.12 758.742 1599.23 759.229 1584.7 757.903 L 1583.25 757.765 C 1586.09 751.713 1589 747.758 1593.18 742.55 z"/>
<path transform="translate(0,0)" fill="rgb(137,191,180)" d="M 251.409 742.438 C 295.609 742.909 339.813 743.031 384.015 742.807 C 404.738 742.787 430.108 742.098 450.522 743.125 C 464.61 759.796 471.345 785.845 454.105 802.742 C 449.102 805.795 446.509 806.642 440.513 806.741 C 382.195 807.701 323.798 806.951 265.466 807.204 C 261.43 806.713 253.586 806.754 249.992 805.013 C 232.511 796.547 235.555 771.828 240.247 758.587 C 243.698 751.462 245.7 748.384 251.409 742.438 z"/>
<path transform="translate(0,0)" fill="rgb(111,162,152)" d="M 251.409 742.438 C 295.609 742.909 339.813 743.031 384.015 742.807 C 404.738 742.787 430.108 742.098 450.522 743.125 C 464.61 759.796 471.345 785.845 454.105 802.742 C 453.287 801.014 452.339 798.384 451.906 796.472 C 444.224 762.587 412.057 762.685 386.009 762.199 C 337.338 761.291 288.211 756.616 240.247 758.587 C 243.698 751.462 245.7 748.384 251.409 742.438 z"/>
<path transform="translate(0,0)" fill="rgb(137,191,180)" d="M 1222.18 741.978 C 1247.45 743.816 1273.3 742.166 1298.61 742.714 C 1339.22 743.593 1381.41 741.006 1421.9 742.975 C 1434.87 759.031 1443.43 790.149 1423.16 803.807 C 1419.42 806.052 1414.46 806.974 1410.13 806.974 C 1351.94 806.97 1293.73 807.296 1235.54 807.128 C 1224.63 807.096 1215.78 803.605 1211.36 792.952 C 1206.8 781.961 1208.64 766.581 1213.01 755.626 C 1216.37 749.384 1217.77 747.533 1222.18 741.978 z"/>
<path transform="translate(0,0)" fill="rgb(111,162,152)" d="M 1222.18 741.978 C 1247.45 743.816 1273.3 742.166 1298.61 742.714 C 1339.22 743.593 1381.41 741.006 1421.9 742.975 C 1434.87 759.031 1443.43 790.149 1423.16 803.807 C 1422 797.955 1420.8 792.632 1418.04 787.267 C 1413.78 778.998 1406.18 770.933 1397.52 767.249 C 1379.77 759.689 1281.23 759.231 1254.6 758.524 C 1241.53 758.177 1225.46 759.423 1213.01 755.626 C 1216.37 749.384 1217.77 747.533 1222.18 741.978 z"/>
<path transform="translate(0,0)" fill="rgb(137,191,180)" d="M 637.807 1459.42 C 671.925 1458.41 706.948 1460.28 741.291 1459.78 C 764.525 1459.44 792.408 1458.97 815.431 1460.52 C 841.544 1462.28 838.043 1501.1 823.204 1516.87 C 817.219 1517.37 811.131 1517.43 805.121 1517.57 C 744.022 1516.54 680.573 1518.51 619.837 1517.49 C 608.174 1504.6 600.508 1482.85 614.062 1467.56 C 620.659 1460.12 628.473 1459.8 637.807 1459.42 z"/>
<path transform="translate(0,0)" fill="rgb(137,191,180)" d="M 262.002 1459.44 C 300.577 1459.01 339.759 1460.01 378.461 1459.64 C 399.953 1459.94 421.541 1458.87 443.001 1460.15 C 453.737 1460.79 462.354 1470.54 463.308 1480.99 C 464.634 1495.52 461.318 1505.52 452.776 1516.99 L 437.236 1517.3 C 374.4 1517.91 310.957 1517.13 248.113 1516.59 C 240.375 1516.53 220.377 1463.25 262.002 1459.44 z"/>
<path transform="translate(0,0)" fill="rgb(137,191,180)" d="M 1602.18 1459.41 L 1721 1459.41 C 1737.53 1459.38 1754.06 1459.17 1770.58 1459.17 C 1778.98 1459.67 1788.8 1458.44 1795.85 1463.9 C 1813 1477.18 1806.67 1501.95 1795.23 1516.88 L 1785.25 1517.05 L 1590.45 1517.01 C 1574.67 1497.92 1571.47 1463.36 1602.18 1459.41 z"/>
<path transform="translate(0,0)" fill="rgb(137,191,180)" d="M 1228.57 1460.11 C 1284.85 1458.39 1342.16 1460.92 1398.55 1459.65 C 1403.57 1459.53 1409.84 1459.77 1414.78 1460.31 C 1431.26 1462.09 1438.93 1480.37 1434.88 1495.15 C 1432.07 1505.39 1430.59 1515.44 1419.25 1517.16 L 1219.05 1517.09 C 1204.77 1499.39 1201.14 1467.53 1228.57 1460.11 z"/>
<path transform="translate(0,0)" fill="rgb(127,127,133)" fill-opacity="0.0156863" d="M 1945.86 1620.23 L 1945.78 1618.4 L 1943.83 1616.97 L 1944.21 1615.93 L 1943.64 1616.34 L 1948.43 1615.34 L 1949.41 1613.25 C 1952.49 1613.87 1952.03 1614.42 1953.87 1613.42 C 1958.45 1617.11 1960.35 1618.03 1961.15 1623.6 C 1959.59 1627.76 1959.05 1628.17 1956.37 1631.82 C 1953.81 1628.46 1948.87 1623.47 1945.86 1620.23 z"/>
<path transform="translate(0,0)" fill="rgb(2,1,3)" fill-opacity="0.0117647" d="M 520.293 400.814 C 517.663 399.547 515.853 399.67 512.955 399.486 L 512.761 398.742 C 517.601 394.803 525.603 390.38 531.492 388.251 L 532.389 388.878 C 529.794 392.211 525.262 392.621 522.13 396.462 L 523.193 398.829 C 522.056 399.705 521.572 400.24 520.293 400.814 z"/>
<path transform="translate(0,0)" fill="rgb(2,1,3)" fill-opacity="0.0156863" d="M 251.933 571.116 C 252.686 571.924 252.331 571.366 252.544 573.003 C 249.817 575.674 248.683 576.742 245.624 578.982 C 243.273 579.085 242.398 579.394 240.217 580.287 L 238.889 582.276 L 238.035 581.592 C 239.931 576.729 245.588 575.883 250.306 572.356 L 251.933 571.116 z"/>
<path transform="translate(0,0)" fill="rgb(2,1,3)" fill-opacity="0.0156863" d="M 1421.56 328.438 L 1422.95 327.804 C 1430.73 330.791 1429.22 331.816 1435.11 336.536 C 1429.88 335.906 1425.48 332.155 1421.56 328.438 z"/>
<path transform="translate(0,0)" fill="rgb(2,1,3)" fill-opacity="0.0117647" d="M 1879.03 627.317 C 1883.1 629.589 1884.65 630.336 1888.14 633.302 C 1888.34 635.246 1888.44 634.347 1887.97 636.008 C 1885.33 635.144 1879.33 630.345 1878.14 628.356 L 1879.03 627.317 z"/>
<path transform="translate(0,0)" fill="rgb(2,1,3)" fill-opacity="0.0392157" d="M 1887.97 636.008 C 1893.33 637.536 1893.52 637.76 1896.19 642.481 L 1896.7 643.396 L 1895.14 644.001 C 1891.83 641.798 1889.75 639.629 1887.97 636.008 z"/>
<path transform="translate(0,0)" fill="rgb(2,1,3)" fill-opacity="0.0156863" d="M 1700.79 512.69 C 1703.6 512.994 1707.92 516.129 1709.74 518.254 L 1709.39 519.275 L 1707.36 519.053 C 1703.62 516.675 1703.5 516.331 1700.79 512.69 z"/>
<path transform="translate(0,0)" fill="rgb(2,1,3)" fill-opacity="0.027451" d="M 1827.59 1454.28 C 1830.77 1456.15 1832.43 1461.66 1834.24 1465.5 L 1832.09 1464.94 C 1829.39 1462.08 1828.72 1458.14 1827.59 1454.28 z"/>
</svg>