<?xml version="1.0" encoding="UTF-8"?>
<!-- Generator: visioncortex VTracer 0.6.12 -->
<svg viewBox="0 0 512 512" version="1.1" xmlns="http://www.w3.org/2000/svg" width="256" height="256">
<path d="M0 0 C8.661 4.539 17.723 3.904 27.305 4.031 C39.466 4.22 52.677 5.733 61.938 14.336 C67.512 20.328 70.474 25.829 70.625 34.188 C69.559 45.121 63.536 54.007 56.625 62.188 C56.018 62.929 55.411 63.67 54.785 64.434 C49.659 70.482 43.843 75.301 37.625 80.188 C36.834 80.845 36.042 81.502 35.227 82.18 C20.949 93.991 5.011 102.68 -11.375 111.188 C-11.968 111.496 -12.561 111.804 -13.172 112.121 C-31.416 121.579 -49.93 130.305 -68.754 138.543 C-70.156 139.157 -71.558 139.773 -72.958 140.392 C-76.685 142.032 -80.424 143.622 -84.196 145.157 C-99.427 151.453 -99.427 151.453 -104.5 159.062 C-105.015 159.759 -105.531 160.456 -106.062 161.174 C-107.073 162.544 -108.07 163.924 -109.05 165.316 C-110.815 167.809 -112.707 170.186 -114.625 172.562 C-115.237 173.331 -115.85 174.099 -116.48 174.891 C-119.219 178.211 -122.098 181.396 -125.004 184.57 C-126.93 186.697 -128.824 188.843 -130.707 191.008 C-150.08 213.191 -172.233 236.976 -202.375 243.188 C-205.876 243.015 -208.316 242.893 -211.25 240.938 C-213.308 237.737 -213.516 234.974 -212.85 231.261 C-209.939 221.361 -206.19 211.939 -202.188 202.438 C-201.539 200.88 -200.891 199.323 -200.244 197.766 C-195.662 186.762 -195.662 186.762 -194.375 184.188 C-194.819 184.336 -194.819 184.336 -197.068 185.086 C-283.067 213.668 -283.067 213.668 -311.785 207.266 C-325.237 204.29 -325.237 204.29 -332.438 208.438 C-333.457 209.101 -334.477 209.765 -335.527 210.449 C-339.639 212.959 -342.6 213.265 -347.375 213.188 C-348.365 212.528 -349.355 211.868 -350.375 211.188 C-351.154 206.414 -350.263 203.68 -347.812 199.688 C-345.224 195.364 -345.149 193.178 -346.375 188.188 C-347.704 181.368 -347.373 176.836 -344.383 170.512 C-342.437 166.025 -342.437 166.025 -342.375 163.188 C-343.915 160.523 -345.458 158.243 -347.312 155.812 C-348.425 154.298 -349.535 152.782 -350.645 151.266 C-351.246 150.452 -351.848 149.638 -352.467 148.799 C-355.893 144.11 -359.192 139.334 -362.5 134.562 C-363.179 133.584 -363.857 132.605 -364.557 131.596 C-365.882 129.683 -367.206 127.77 -368.529 125.855 C-369.697 124.167 -370.869 122.48 -372.045 120.797 C-373.478 118.747 -374.897 116.688 -376.312 114.625 C-376.516 114.337 -376.516 114.337 -377.545 112.878 C-379.94 109.347 -380.973 106.432 -381.375 102.188 C-376.509 97.706 -371.388 94.906 -365.375 92.188 C-364.426 91.754 -363.478 91.321 -362.5 90.875 C-350.585 88.254 -341.889 91.928 -331.375 97.188 C-330.294 97.724 -329.213 98.26 -328.099 98.812 C-323.22 101.234 -318.344 103.66 -313.486 106.124 C-308.126 108.838 -302.758 111.536 -297.332 114.117 C-296.912 114.318 -296.912 114.318 -294.788 115.335 C-292.114 116.28 -290.191 116.469 -287.375 116.188 C-284.711 114.492 -284.711 114.492 -281.75 112.062 C-280.59 111.133 -279.429 110.206 -278.266 109.281 C-277.64 108.78 -277.014 108.278 -276.369 107.762 C-272.806 104.949 -269.155 102.255 -265.5 99.562 C-264.715 98.983 -263.929 98.404 -263.12 97.807 C-255.522 92.235 -247.789 86.859 -240.028 81.517 C-239.103 80.88 -238.179 80.243 -237.227 79.586 C-236.41 79.026 -235.594 78.465 -234.752 77.888 C-232.217 76.075 -229.792 74.155 -227.375 72.188 C-230.015 71.197 -232.655 70.207 -235.375 69.188 C-236.125 66.5 -236.125 66.5 -236.375 63.188 C-229.2 52.172 -211.593 46.464 -199.375 43.188 C-194.996 42.312 -190.593 41.601 -186.188 40.875 C-175.446 39.045 -168.179 35.955 -159.446 29.617 C-155.44 26.852 -151.175 24.514 -146.938 22.125 C-146.038 21.616 -145.139 21.107 -144.213 20.582 C-141.604 19.11 -138.99 17.647 -136.375 16.188 C-135.652 15.781 -134.93 15.375 -134.185 14.957 C-93.296 -7.89 -43.733 -26.197 0 0 Z " fill="#92C3B5" transform="translate(420.375,140.8125)"/>
<path d="M0 0 C8.661 4.539 17.723 3.904 27.305 4.031 C39.466 4.22 52.677 5.733 61.938 14.336 C67.512 20.328 70.474 25.829 70.625 34.188 C69.559 45.121 63.536 54.007 56.625 62.188 C56.018 62.929 55.411 63.67 54.785 64.434 C49.659 70.482 43.843 75.301 37.625 80.188 C36.834 80.845 36.042 81.502 35.227 82.18 C20.949 93.991 5.011 102.68 -11.375 111.188 C-11.968 111.496 -12.561 111.804 -13.172 112.121 C-31.416 121.579 -49.93 130.305 -68.754 138.543 C-70.156 139.157 -71.558 139.773 -72.958 140.392 C-76.685 142.032 -80.424 143.622 -84.196 145.157 C-99.427 151.453 -99.427 151.453 -104.5 159.062 C-105.015 159.759 -105.531 160.456 -106.062 161.174 C-107.073 162.544 -108.07 163.924 -109.05 165.316 C-110.815 167.809 -112.707 170.186 -114.625 172.562 C-115.237 173.331 -115.85 174.099 -116.48 174.891 C-119.219 178.211 -122.098 181.396 -125.004 184.57 C-126.93 186.697 -128.824 188.843 -130.707 191.008 C-150.08 213.191 -172.233 236.976 -202.375 243.188 C-205.876 243.015 -208.316 242.893 -211.25 240.938 C-213.308 237.737 -213.516 234.974 -212.85 231.261 C-209.939 221.361 -206.19 211.939 -202.188 202.438 C-201.539 200.88 -200.891 199.323 -200.244 197.766 C-195.662 186.762 -195.662 186.762 -194.375 184.188 C-194.819 184.336 -194.819 184.336 -197.068 185.086 C-283.067 213.668 -283.067 213.668 -311.785 207.266 C-325.237 204.29 -325.237 204.29 -332.438 208.438 C-333.457 209.101 -334.477 209.765 -335.527 210.449 C-339.639 212.959 -342.6 213.265 -347.375 213.188 C-348.365 212.528 -349.355 211.868 -350.375 211.188 C-351.154 206.414 -350.263 203.68 -347.812 199.688 C-345.224 195.364 -345.149 193.178 -346.375 188.188 C-347.704 181.368 -347.373 176.836 -344.383 170.512 C-342.437 166.025 -342.437 166.025 -342.375 163.188 C-343.915 160.523 -345.458 158.243 -347.312 155.812 C-348.425 154.298 -349.535 152.782 -350.645 151.266 C-351.246 150.452 -351.848 149.638 -352.467 148.799 C-355.893 144.11 -359.192 139.334 -362.5 134.562 C-363.179 133.584 -363.857 132.605 -364.557 131.596 C-365.882 129.683 -367.206 127.77 -368.529 125.855 C-369.697 124.167 -370.869 122.48 -372.045 120.797 C-373.478 118.747 -374.897 116.688 -376.312 114.625 C-376.516 114.337 -376.516 114.337 -377.545 112.878 C-379.94 109.347 -380.973 106.432 -381.375 102.188 C-376.509 97.706 -371.388 94.906 -365.375 92.188 C-364.426 91.754 -363.478 91.321 -362.5 90.875 C-350.585 88.254 -341.889 91.928 -331.375 97.188 C-330.294 97.724 -329.213 98.26 -328.099 98.812 C-323.22 101.234 -318.344 103.66 -313.486 106.124 C-308.126 108.838 -302.758 111.536 -297.332 114.117 C-296.912 114.318 -296.912 114.318 -294.788 115.335 C-292.114 116.28 -290.191 116.469 -287.375 116.188 C-284.711 114.492 -284.711 114.492 -281.75 112.062 C-280.59 111.133 -279.429 110.206 -278.266 109.281 C-277.64 108.78 -277.014 108.278 -276.369 107.762 C-272.806 104.949 -269.155 102.255 -265.5 99.562 C-264.715 98.983 -263.929 98.404 -263.12 97.807 C-255.522 92.235 -247.789 86.859 -240.028 81.517 C-239.103 80.88 -238.179 80.243 -237.227 79.586 C-236.41 79.026 -235.594 78.465 -234.752 77.888 C-232.217 76.075 -229.792 74.155 -227.375 72.188 C-230.015 71.197 -232.655 70.207 -235.375 69.188 C-236.125 66.5 -236.125 66.5 -236.375 63.188 C-229.2 52.172 -211.593 46.464 -199.375 43.188 C-194.996 42.312 -190.593 41.601 -186.188 40.875 C-175.446 39.045 -168.179 35.955 -159.446 29.617 C-155.44 26.852 -151.175 24.514 -146.938 22.125 C-146.038 21.616 -145.139 21.107 -144.213 20.582 C-141.604 19.11 -138.99 17.647 -136.375 16.188 C-135.652 15.781 -134.93 15.375 -134.185 14.957 C-93.296 -7.89 -43.733 -26.197 0 0 Z M-78.375 -3.812 C-79.113 -3.598 -79.851 -3.384 -80.612 -3.163 C-99.209 2.379 -116.408 10.882 -133.375 20.188 C-134.242 20.663 -135.109 21.138 -136.002 21.628 C-175.332 43.312 -212.796 68.165 -249.375 94.188 C-250.166 94.749 -250.957 95.31 -251.772 95.889 C-267.819 107.299 -283.398 119.244 -298.61 131.743 C-300.199 133.043 -301.798 134.331 -303.398 135.617 C-308.84 139.999 -314.061 144.553 -319.17 149.315 C-321.727 151.697 -324.315 153.967 -327.062 156.125 C-332.615 160.789 -338.861 168.37 -341.375 175.188 C-341.57 178.203 -341.57 178.203 -341.5 181.438 C-341.482 182.515 -341.464 183.593 -341.445 184.703 C-341.422 185.523 -341.399 186.343 -341.375 187.188 C-340.715 187.188 -340.055 187.188 -339.375 187.188 C-338.275 185.566 -337.221 183.914 -336.188 182.25 C-328.179 170.936 -311.705 162.954 -298.375 160.188 C-294.289 159.893 -290.301 159.879 -286.375 161.188 C-285.809 165.718 -286.04 168.262 -288.75 172 C-296.002 180.798 -304.479 188.116 -313.375 195.188 C-315.384 196.844 -317.379 198.515 -319.375 200.188 C-294.584 213.468 -252.14 197.06 -226.876 189.433 C-220.882 187.606 -214.906 185.723 -208.938 183.812 C-208.123 183.554 -207.309 183.295 -206.47 183.029 C-204.165 182.293 -201.865 181.544 -199.566 180.789 C-198.881 180.571 -198.195 180.352 -197.488 180.127 C-193.06 178.647 -190.545 177.416 -188.367 173.268 C-188.218 172.906 -188.218 172.906 -187.465 171.074 C-187.12 170.249 -186.775 169.424 -186.42 168.573 C-186.055 167.683 -185.689 166.792 -185.312 165.875 C-184.509 163.977 -183.704 162.08 -182.898 160.184 C-181.635 157.191 -180.378 154.196 -179.142 151.192 C-170.232 129.641 -170.232 129.641 -160.375 123.188 C-159.092 122.306 -157.81 121.425 -156.527 120.543 C-152.217 117.634 -147.819 114.886 -143.375 112.188 C-143.035 111.981 -143.035 111.981 -141.317 110.936 C-131.397 104.969 -121.219 100.221 -110.375 96.188 C-109.705 95.929 -109.034 95.671 -108.344 95.405 C-97.189 91.164 -85.754 89.136 -73.945 92.027 C-73.097 92.41 -72.249 92.793 -71.375 93.188 C-69.14 99.892 -70.339 105.436 -73.25 111.688 C-73.403 112.026 -73.403 112.026 -74.175 113.739 C-78.524 123.06 -84.057 132.065 -90.375 140.188 C-90.045 140.847 -89.715 141.507 -89.375 142.188 C-2.038 104.58 -2.038 104.58 28.625 81.188 C29.173 80.772 29.72 80.356 30.284 79.927 C37.083 74.724 37.083 74.724 39.625 72.188 C39.625 69.188 39.625 69.188 37.973 67.418 C37.219 66.744 36.464 66.07 35.688 65.375 C22.474 52.516 15.943 36.156 15.062 17.875 C15.019 17.039 14.976 16.203 14.932 15.342 C14.826 13.291 14.725 11.239 14.625 9.188 C11.465 8.84 11.465 8.84 7.625 9.188 C5.451 11.029 3.93 12.569 2.188 14.75 C1.229 15.862 0.268 16.971 -0.695 18.078 C-1.156 18.616 -1.616 19.154 -2.091 19.709 C-9.792 28.576 -20.791 34.943 -32.48 36.461 C-39.031 36.78 -43.98 34.875 -49.375 31.188 C-52.996 27.125 -54.278 23.631 -54.375 18.188 C-52.478 13.419 -50.246 10.892 -46.188 7.812 C-41.268 3.946 -36.406 0.004 -32.375 -4.812 C-32.375 -5.472 -32.375 -6.132 -32.375 -6.812 C-47.959 -9.406 -63.269 -8.215 -78.375 -3.812 Z " fill="#434146" transform="translate(420.375,140.8125)"/>
<path d="M0 0 C0.522 0.485 1.044 0.969 1.582 1.469 C1.11 7.53 -0.208 11.933 -3.043 17.281 C-3.406 17.982 -3.77 18.683 -4.144 19.405 C-13.741 37.663 -26.878 53.906 -39.994 69.741 C-41.279 71.3 -42.545 72.874 -43.809 74.449 C-48.325 80.079 -53.059 85.442 -57.994 90.704 C-60.66 93.547 -63.265 96.428 -65.816 99.375 C-81.367 117.217 -101.316 136.403 -125.418 141.469 C-128.98 141.656 -128.98 141.656 -131.418 141.469 C-133.666 134.685 -130.089 127.517 -127.375 121.28 C-125.318 117.389 -122.384 115.941 -118.418 114.469 C-113.009 112.336 -111.228 110.184 -108.719 104.984 C-108.401 104.34 -108.084 103.696 -107.757 103.032 C-106.731 100.936 -105.73 98.828 -104.73 96.719 C-104.028 95.27 -103.324 93.821 -102.619 92.374 C-101.205 89.464 -99.802 86.549 -98.408 83.628 C-96.617 79.877 -94.796 76.142 -92.965 72.41 C-91.969 70.368 -90.974 68.325 -89.98 66.281 C-89.526 65.352 -89.072 64.422 -88.605 63.464 C-88.194 62.606 -87.783 61.747 -87.359 60.863 C-87.006 60.13 -86.652 59.396 -86.287 58.64 C-85.338 56.269 -84.846 53.981 -84.418 51.469 C-88.795 52.694 -93.115 53.999 -97.418 55.469 C-96.769 51.117 -95.256 47.551 -93.355 43.594 C-92.808 42.421 -92.26 41.248 -91.695 40.039 C-87.4 32.476 -79.387 27.898 -72.168 23.469 C-71.331 22.95 -70.494 22.431 -69.632 21.896 C-67.974 20.871 -66.314 19.851 -64.652 18.834 C-62.788 17.695 -60.932 16.542 -59.078 15.387 C-45.826 7.334 -15.429 -9.771 0 0 Z " fill="#EFC884" transform="translate(344.41796875,237.53125)"/>
<path d="M0 0 C0.9 -0.001 1.8 -0.003 2.727 -0.004 C3.655 -0 4.583 0.004 5.539 0.008 C6.459 0.004 7.38 0 8.328 -0.004 C13.382 0.003 18.184 0.268 23.164 1.133 C22.012 3.601 21.116 5.181 19.164 7.133 C16.957 7.201 14.746 7.161 12.539 7.07 C1.736 6.82 -8.504 9.07 -18.836 12.133 C-16.856 13.123 -14.876 14.113 -12.836 15.133 C-13.103 18.332 -13.55 19.829 -15.773 22.195 C-23.481 27.072 -31.694 29.641 -40.836 29.133 C-41.826 28.473 -42.816 27.813 -43.836 27.133 C-43.506 25.483 -43.176 23.833 -42.836 22.133 C-84.326 43.264 -84.326 43.264 -101.149 52.642 C-104.149 54.307 -107.16 55.951 -110.172 57.594 C-123.696 65 -136.952 72.733 -150.093 80.793 C-150.382 80.971 -150.382 80.971 -151.844 81.867 C-152.421 82.221 -152.998 82.575 -153.593 82.94 C-159.92 86.812 -166.317 90.562 -172.711 94.32 C-183.729 100.812 -194.558 107.563 -205.301 114.5 C-209.8 117.397 -214.319 120.264 -218.836 123.133 C-219.496 122.803 -220.156 122.473 -220.836 122.133 C-209.622 113.388 -198.185 105.056 -186.487 96.972 C-183.807 95.113 -181.139 93.238 -178.473 91.359 C-155.812 75.421 -132.654 60.286 -108.836 46.133 C-107.874 45.557 -106.912 44.982 -105.921 44.389 C-91.702 35.892 -77.251 27.984 -62.482 20.484 C-60.251 19.345 -58.033 18.187 -55.82 17.012 C-41.21 9.384 -25.937 4.438 -9.836 1.133 C-9.437 1.044 -9.437 1.044 -7.417 0.596 C-4.885 0.142 -2.569 0.004 0 0 Z " fill="#C0DBD0" transform="translate(364.8359375,132.8671875)"/>
<path d="M0 0 C1.129 0.933 2.253 1.871 3.375 2.812 C4.001 3.335 4.628 3.857 5.273 4.395 C7 6 7 6 9 9 C-3.328 20.942 -17.912 29.999 -33 38 C-33.784 38.422 -34.568 38.843 -35.376 39.277 C-63.254 54.244 -91.835 67.748 -121 80 C-121 76.526 -120.285 75.503 -118.445 72.621 C-117.913 71.783 -117.381 70.944 -116.832 70.08 C-116.269 69.208 -115.705 68.336 -115.125 67.438 C-114.569 66.562 -114.014 65.686 -113.441 64.783 C-107.971 56.222 -107.971 56.222 -102.699 54.254 C-96.272 51.758 -90.055 48.859 -83.812 45.938 C-82.573 45.359 -81.334 44.78 -80.095 44.201 C-77.589 43.03 -75.084 41.856 -72.58 40.68 C-70.326 39.622 -68.071 38.567 -65.815 37.516 C-42.927 26.845 -20.18 15.336 0 0 Z " fill="#76A499" transform="translate(452,203)"/>
<path d="M0 0 C13.225 -0.384 28.58 -0.127 39.238 8.895 C43.126 13.104 45.955 17.104 46.023 23.02 C45.07 37.346 35.937 48.383 26 58 C12.553 52.007 5.71 35.645 0.75 22.75 C-1.188 15.646 -2.37 7.109 0 0 Z " fill="#F2CB85" transform="translate(440,150)"/>
<path d="M0 0 C0.846 0.399 1.693 0.797 2.564 1.208 C5.305 2.51 8.029 3.844 10.75 5.188 C11.223 5.42 11.223 5.42 13.619 6.597 C19.212 9.352 24.784 12.148 30.345 14.969 C33.598 16.617 36.861 18.247 40.125 19.875 C41.667 20.646 43.208 21.417 44.75 22.188 C42.193 25.561 39.67 28.242 36.312 30.812 C31.999 34.178 27.793 37.644 23.625 41.188 C23.044 41.681 22.464 42.174 21.865 42.682 C20.493 43.849 19.121 45.018 17.75 46.188 C11.959 42.208 7.101 37.651 2.191 32.637 C-0.515 29.922 -3.323 27.398 -6.25 24.926 C-7.709 23.658 -9.12 22.334 -10.5 20.98 C-16.366 15.322 -16.366 15.322 -20.938 14.625 C-22.031 14.811 -23.124 14.996 -24.25 15.188 C-24.817 15.27 -24.817 15.27 -27.688 15.688 C-28.11 15.77 -28.11 15.77 -30.25 16.188 C-31.289 14.974 -32.306 13.741 -33.312 12.5 C-33.881 11.816 -34.449 11.131 -35.035 10.426 C-36.25 8.188 -36.25 8.188 -36.297 5.621 C-34.798 2.138 -32.836 1.499 -29.438 -0.062 C-28.379 -0.563 -27.321 -1.063 -26.23 -1.578 C-16.926 -5.432 -8.874 -4.372 0 0 Z " fill="#F2CD8A" transform="translate(81.25,239.8125)"/>
<path d="M0 0 C-0.433 1.355 -0.872 2.709 -1.312 4.062 C-1.556 4.817 -1.8 5.571 -2.051 6.348 C-2.364 7.223 -2.677 8.098 -3 9 C-3.361 10.146 -3.723 11.292 -4.095 12.472 C-5.496 15.687 -5.986 15.992 -9.312 17.801 C-10.675 18.261 -12.049 18.692 -13.43 19.098 C-14.168 19.338 -14.906 19.578 -15.666 19.826 C-18.061 20.598 -20.467 21.331 -22.875 22.062 C-24.531 22.586 -26.187 23.111 -27.842 23.639 C-31.853 24.909 -35.872 26.145 -39.898 27.363 C-41.733 27.919 -43.566 28.482 -45.398 29.046 C-68.866 36.24 -93.215 42.172 -117.875 42.312 C-118.677 42.318 -119.479 42.324 -120.305 42.329 C-125.492 42.265 -130.012 41.426 -135 40 C-125.657 30.345 -115.209 21.72 -105 13 C-105.539 17.598 -106.766 20.868 -109.062 24.875 C-109.61 25.842 -110.158 26.809 -110.723 27.805 C-111.144 28.529 -111.566 29.254 -112 30 C-111.418 29.881 -110.836 29.762 -110.237 29.639 C-105.571 28.695 -100.901 27.793 -96.215 26.957 C-74.091 22.964 -52.926 16.709 -31.562 9.812 C-31.162 9.684 -31.162 9.684 -29.137 9.031 C-13.332 3.92 -13.332 3.92 -5.961 0.671 C-4 0 -4 0 0 0 Z " fill="#76A396" transform="translate(236,302)"/>
<path d="M0 0 C10.709 1.261 20.496 6.126 30 11 C28.633 14.987 26.848 17.885 24 21 C23.34 21 22.68 21 22 21 C22 21.66 22 22.32 22 23 C13.85 30.355 3.991 36.955 -7.25 37.625 C-12.351 37.353 -16.178 35.326 -20 32 C-22.106 28.841 -22.58 26.833 -22.477 23.055 C-21.566 19.132 -18.537 17.251 -15.438 14.938 C-14.149 13.91 -12.863 12.88 -11.578 11.848 C-10.959 11.361 -10.339 10.873 -9.701 10.372 C-6.104 7.472 -2.083 4.166 0 0 Z " fill="#F7F4E7" transform="translate(393,136)"/>
<path d="M0 0 C3.63 0 7.26 0 11 0 C8.93 7.131 5.974 12.759 2 19 C1.221 20.256 0.444 21.512 -0.332 22.77 C-12.555 42.539 -25.77 61.392 -40.599 79.294 C-42.498 81.606 -44.342 83.959 -46.188 86.312 C-49.802 90.85 -53.674 95.122 -57.609 99.383 C-59.737 101.712 -61.781 104.088 -63.812 106.5 C-66.266 109.338 -68.578 111.341 -72 113 C-71.378 109.312 -69.785 107.036 -67.562 104.062 C-66.834 103.084 -66.106 102.106 -65.355 101.098 C-62.631 97.515 -59.885 93.951 -57.131 90.392 C-39.39 67.39 -22.443 43.798 -8.438 18.312 C-7.937 17.404 -7.436 16.496 -6.92 15.56 C-4.171 10.475 -1.889 5.464 0 0 Z " fill="#F9EBD0" transform="translate(327,236)"/>
<path d="M0 0 C0.412 0.006 0.412 0.006 2.496 0.035 C3.322 0.044 4.149 0.053 5 0.062 C5.638 0.074 6.276 0.086 6.934 0.098 C6.017 5.341 2.473 8.339 -1.066 12.098 C-1.69 12.763 -2.314 13.428 -2.957 14.113 C-7.955 19.274 -13.37 23.731 -19.066 28.098 C-20.064 28.866 -21.062 29.634 -22.09 30.426 C-40.062 44.098 -40.062 44.098 -48.066 44.098 C-47.545 39.03 -45.079 35.462 -42.379 31.285 C-42.149 30.928 -42.149 30.928 -40.983 29.119 C-40.076 27.719 -39.165 26.321 -38.25 24.927 C-37.329 23.504 -36.454 22.052 -35.598 20.59 C-29.392 10.763 -16.023 5.666 -5.48 1.973 C-0.044 0.002 -0.044 0.002 0 0 Z " fill="#E9C284" transform="translate(123.06640625,304.90234375)"/>
<path d="M0 0 C1.957 1.602 1.957 1.602 3.812 3.625 C6.313 6.255 8.8 8.771 11.562 11.125 C18.239 16.861 24.585 22.975 31 29 C29.304 32.633 27.262 34.945 24.375 37.75 C23.558 38.549 22.74 39.348 21.898 40.172 C21.272 40.775 20.645 41.378 20 42 C16.105 40.505 14.687 38.425 12.5 34.938 C9.085 29.63 5.535 24.454 1.875 19.312 C-4.892 9.761 -4.892 9.761 -7.75 5.562 C-7.974 5.233 -7.974 5.233 -9.109 3.566 C-10 2 -10 2 -10 0 C-6.279 -0.957 -3.695 -1.087 0 0 Z " fill="#DDA661" transform="translate(64,259)"/>
<path d="M0 0 C1.25 2.062 1.25 2.062 2 5 C-0.57 11.939 -5.687 15.447 -12 19 C-20.249 22.65 -28.841 25.473 -37.875 23.312 C-40 22 -40 22 -41 19.562 C-41 17 -41 17 -39.91 15.453 C-37.254 13.433 -34.673 12.965 -31.438 12.188 C-22.654 9.819 -15.926 5.844 -9 0 C-5.931 -1.534 -3.299 -0.55 0 0 Z " fill="#44434B" transform="translate(61,340)"/>
<path d="M0 0 C3 2.5 3 2.5 5 5 C4.076 8.109 3.456 9.676 0.773 11.582 C-2.087 13.044 -4.55 13.73 -7.688 14.375 C-15.003 16.103 -21.646 18.687 -27.25 23.812 C-30 26 -30 26 -33.25 26.438 C-36 26 -36 26 -38 24 C-37.756 17.5 -34.463 14.689 -29.961 10.406 C-21.638 3.642 -10.851 -1.225 0 0 Z " fill="#45434B" transform="translate(59,308)"/>
<path d="M0 0 C-0.812 1.625 -1.625 3.25 -2.437 4.874 C-3.157 6.314 -3.877 7.754 -4.596 9.194 C-6.39 12.785 -8.187 16.374 -9.996 19.957 C-10.156 20.275 -10.156 20.275 -10.967 21.886 C-11.618 23.178 -12.271 24.469 -12.926 25.759 C-14.806 29.495 -16.575 33.26 -18.258 37.09 C-18.45 37.519 -18.45 37.519 -19.422 39.69 C-20.163 41.354 -20.888 43.026 -21.592 44.706 C-24.085 50.256 -26.329 52.644 -32 55 C-32.66 54.67 -33.32 54.34 -34 54 C-31.833 48.968 -29.664 43.936 -27.494 38.906 C-26.758 37.201 -26.023 35.495 -25.289 33.789 C-23.194 28.923 -21.085 24.064 -18.96 19.211 C-18.065 17.151 -17.192 15.082 -16.322 13.011 C-15.821 11.853 -15.321 10.696 -14.805 9.504 C-14.384 8.511 -13.964 7.518 -13.531 6.494 C-11.047 2.447 -4.82 -2.41 0 0 Z " fill="#DFB06C" transform="translate(255,295)"/>
<path d="M0 0 C13.147 -0.382 27.94 0.01 38.863 8.438 C40.25 9.812 40.25 9.812 42 12 C41.67 12.66 41.34 13.32 41 14 C37.7 12.35 34.4 10.7 31 9 C30.67 10.32 30.34 11.64 30 13 C25.971 15.442 21.582 15.561 17 15 C13.927 14.174 10.965 13.153 8 12 C7.835 11.175 7.835 11.175 7 7 C7.66 7 8.32 7 9 7 C9 6.34 9 5.68 9 5 C6.03 5 3.06 5 0 5 C0 3.35 0 1.7 0 0 Z " fill="#F7EBD4" transform="translate(440,150)"/>
<path d="M0 0 C0.33 0 0.66 0 1 0 C-0.003 15.543 -8.078 26.43 -19 37 C-23.274 35.417 -25.265 32.494 -28 29 C-26.501 27.645 -25 26.291 -23.5 24.938 C-22.582 24.106 -21.664 23.275 -20.719 22.418 C-19.141 21.015 -17.545 19.631 -15.906 18.301 C-10.317 13.753 -6.258 8.358 -2.004 2.598 C-1.673 2.169 -1.673 2.169 0 0 Z " fill="#DDAA65" transform="translate(485,171)"/>
<path d="M0 0 C-5.756 3.863 -5.756 3.863 -8.459 5.648 C-12.167 8.096 -15.838 10.581 -19.465 13.148 C-20.935 14.162 -22.405 15.175 -23.875 16.188 C-24.551 16.681 -25.227 17.174 -25.924 17.683 C-30.524 20.802 -33.53 21.427 -39.024 20.486 C-40.705 20.073 -42.358 19.547 -44 19 C-41.014 11.495 -30.906 8.233 -23.938 5.164 C-4.822 -2.411 -4.822 -2.411 0 0 Z " fill="#EDC581" transform="translate(233,188)"/>
<path d="M0 0 C0.846 0.399 1.693 0.797 2.564 1.208 C5.305 2.51 8.029 3.844 10.75 5.188 C11.223 5.42 11.223 5.42 13.619 6.597 C19.212 9.352 24.784 12.148 30.345 14.969 C33.598 16.617 36.861 18.247 40.125 19.875 C41.667 20.646 43.208 21.417 44.75 22.188 C44.42 22.683 44.42 22.683 42.75 25.188 C38.924 24.573 35.835 23.436 32.355 21.746 C31.325 21.249 30.294 20.751 29.232 20.238 C28.689 19.972 28.689 19.972 25.938 18.625 C24.821 18.084 23.704 17.542 22.553 16.984 C16.263 13.929 9.997 10.829 3.75 7.688 C1.417 6.519 -0.916 5.353 -3.25 4.188 C-4.125 3.745 -5.001 3.303 -5.902 2.848 C-10.399 0.688 -14.314 -0.324 -19.305 -0.637 C-21.25 -0.812 -21.25 -0.812 -24.25 -1.812 C-16.087 -6.166 -7.786 -3.836 0 0 Z " fill="#F3E6CD" transform="translate(81.25,239.8125)"/>
<path d="M0 0 C0.722 0.248 1.444 0.495 2.188 0.75 C0.861 6.389 -3.14 8.848 -7.812 11.75 C-14.4 15.208 -20.142 16.903 -27.625 16.812 C-28.113 16.808 -28.113 16.808 -30.582 16.785 C-30.95 16.779 -30.95 16.779 -32.812 16.75 C-32.483 15.76 -32.153 14.77 -31.812 13.75 C-29.512 13.047 -29.512 13.047 -26.5 12.5 C-18.397 10.673 -11.498 6.837 -5.141 1.512 C-2.812 -0.25 -2.812 -0.25 0 0 Z " fill="#99D8EF" transform="translate(56.8125,343.25)"/>
<path d="M0 0 C0.901 0.009 1.802 0.018 2.73 0.027 C3.418 0.039 4.105 0.051 4.812 0.062 C4.812 1.382 4.812 2.702 4.812 4.062 C1.381 6.061 -1.855 6.602 -5.75 7.25 C-13.536 8.835 -20.258 12.033 -25.863 17.781 C-27.188 19.062 -27.188 19.062 -29.188 19.062 C-26.588 11.263 -19.935 6.728 -12.812 3.125 C-8.388 1.053 -4.912 -0.064 0 0 Z " fill="#9AD6EE" transform="translate(54.1875,311.9375)"/>
<path d="M0 0 C0.866 0.165 1.733 0.33 2.625 0.5 C-1 6.375 -1 6.375 -4.375 7.5 C-5.072 8.818 -5.736 10.153 -6.375 11.5 C-7.887 13.147 -7.887 13.147 -9.633 14.734 C-9.945 15.021 -9.945 15.021 -11.527 16.473 C-12.178 17.059 -12.829 17.646 -13.5 18.25 C-14.159 18.852 -14.817 19.454 -15.496 20.074 C-17.118 21.555 -18.744 23.03 -20.375 24.5 C-21.035 24.17 -21.695 23.84 -22.375 23.5 C-21.506 22.51 -20.637 21.52 -19.742 20.5 C-18.578 19.167 -17.414 17.834 -16.25 16.5 C-15.651 15.816 -15.051 15.132 -14.433 14.427 C-11.383 10.921 -8.531 7.428 -5.938 3.562 C-3.375 0.5 -3.375 0.5 0 0 Z " fill="#F3E8D0" transform="translate(123.375,305.5)"/>
<path d="M0 0 C-6.913 5.103 -12.728 5.165 -21 5 C-17.471 2.647 -13.995 1.806 -9.938 0.812 C-9.571 0.717 -9.571 0.717 -7.717 0.236 C-2.249 -1.124 -2.249 -1.124 0 0 Z " fill="#E3E4D8" transform="translate(233,188)"/>
<path d="M0 0 C0 0.99 0 1.98 0 3 C-2.645 4.322 -4.678 4.097 -7.625 4.062 C-8.628 4.053 -9.631 4.044 -10.664 4.035 C-11.435 4.024 -12.206 4.012 -13 4 C-12.67 3.01 -12.34 2.02 -12 1 C-10.565 0.636 -9.127 0.284 -7.688 -0.062 C-6.887 -0.26 -6.086 -0.457 -5.262 -0.66 C-3 -1 -3 -1 0 0 Z " fill="#91CFE8" transform="translate(37,356)"/>
</svg>
